ISO-10303-21;
HEADER;
/* Generated by software containing ST-Developer
 * from STEP Tools, Inc. (www.steptools.com) 
 */

FILE_DESCRIPTION(
/* description */ (''),
/* implementation_level */ '2;1');

FILE_NAME(
/* name */ 'Diode-123 v11.step',
/* time_stamp */ '2026-02-19T02:17:57+01:00',
/* author */ (''),
/* organization */ (''),
/* preprocessor_version */ 'ST-DEVELOPER v20.1',
/* originating_system */ 'Autodesk Translation Framework v14.24.0.0',
/* authorisation */ '');

FILE_SCHEMA (('AUTOMOTIVE_DESIGN { 1 0 10303 214 3 1 1 }'));
ENDSEC;

DATA;
#10=MECHANICAL_DESIGN_GEOMETRIC_PRESENTATION_REPRESENTATION('',(#13),#651);
#11=SHAPE_REPRESENTATION_RELATIONSHIP('SRR','None',#658,#12);
#12=ADVANCED_BREP_SHAPE_REPRESENTATION('',(#14),#650);
#13=STYLED_ITEM('',(#668),#14);
#14=MANIFOLD_SOLID_BREP('Corps1',#359);
#15=PLANE('',#393);
#16=PLANE('',#418);
#17=PLANE('',#419);
#18=PLANE('',#420);
#19=PLANE('',#421);
#20=PLANE('',#422);
#21=LINE('',#579,#45);
#22=LINE('',#580,#46);
#23=LINE('',#582,#47);
#24=LINE('',#583,#48);
#25=LINE('',#585,#49);
#26=LINE('',#586,#50);
#27=LINE('',#588,#51);
#28=LINE('',#589,#52);
#29=LINE('',#599,#53);
#30=LINE('',#600,#54);
#31=LINE('',#609,#55);
#32=LINE('',#610,#56);
#33=LINE('',#619,#57);
#34=LINE('',#620,#58);
#35=LINE('',#622,#59);
#36=LINE('',#623,#60);
#37=LINE('',#632,#61);
#38=LINE('',#633,#62);
#39=LINE('',#635,#63);
#40=LINE('',#636,#64);
#41=LINE('',#638,#65);
#42=LINE('',#639,#66);
#43=LINE('',#641,#67);
#44=LINE('',#642,#68);
#45=VECTOR('',#459,10.);
#46=VECTOR('',#460,10.);
#47=VECTOR('',#463,10.);
#48=VECTOR('',#464,10.);
#49=VECTOR('',#467,10.);
#50=VECTOR('',#468,10.);
#51=VECTOR('',#471,10.);
#52=VECTOR('',#472,10.);
#53=VECTOR('',#485,10.);
#54=VECTOR('',#486,10.);
#55=VECTOR('',#497,10.);
#56=VECTOR('',#498,10.);
#57=VECTOR('',#509,10.);
#58=VECTOR('',#510,10.);
#59=VECTOR('',#513,10.);
#60=VECTOR('',#514,10.);
#61=VECTOR('',#525,10.);
#62=VECTOR('',#526,10.);
#63=VECTOR('',#529,10.);
#64=VECTOR('',#530,10.);
#65=VECTOR('',#533,10.);
#66=VECTOR('',#534,10.);
#67=VECTOR('',#537,10.);
#68=VECTOR('',#538,10.);
#69=CYLINDRICAL_SURFACE('',#389,0.3);
#70=CYLINDRICAL_SURFACE('',#390,0.3);
#71=CYLINDRICAL_SURFACE('',#391,0.3);
#72=CYLINDRICAL_SURFACE('',#392,0.3);
#73=CYLINDRICAL_SURFACE('',#398,0.3);
#74=CYLINDRICAL_SURFACE('',#403,0.3);
#75=CYLINDRICAL_SURFACE('',#408,0.3);
#76=CYLINDRICAL_SURFACE('',#409,0.3);
#77=CYLINDRICAL_SURFACE('',#414,0.3);
#78=CYLINDRICAL_SURFACE('',#415,0.3);
#79=CYLINDRICAL_SURFACE('',#416,0.3);
#80=CYLINDRICAL_SURFACE('',#417,0.3);
#81=FACE_OUTER_BOUND('',#107,.T.);
#82=FACE_OUTER_BOUND('',#108,.T.);
#83=FACE_OUTER_BOUND('',#109,.T.);
#84=FACE_OUTER_BOUND('',#110,.T.);
#85=FACE_OUTER_BOUND('',#111,.T.);
#86=FACE_OUTER_BOUND('',#112,.T.);
#87=FACE_OUTER_BOUND('',#113,.T.);
#88=FACE_OUTER_BOUND('',#114,.T.);
#89=FACE_OUTER_BOUND('',#115,.T.);
#90=FACE_OUTER_BOUND('',#116,.T.);
#91=FACE_OUTER_BOUND('',#117,.T.);
#92=FACE_OUTER_BOUND('',#118,.T.);
#93=FACE_OUTER_BOUND('',#119,.T.);
#94=FACE_OUTER_BOUND('',#120,.T.);
#95=FACE_OUTER_BOUND('',#121,.T.);
#96=FACE_OUTER_BOUND('',#122,.T.);
#97=FACE_OUTER_BOUND('',#123,.T.);
#98=FACE_OUTER_BOUND('',#124,.T.);
#99=FACE_OUTER_BOUND('',#125,.T.);
#100=FACE_OUTER_BOUND('',#126,.T.);
#101=FACE_OUTER_BOUND('',#127,.T.);
#102=FACE_OUTER_BOUND('',#128,.T.);
#103=FACE_OUTER_BOUND('',#129,.T.);
#104=FACE_OUTER_BOUND('',#130,.T.);
#105=FACE_OUTER_BOUND('',#131,.T.);
#106=FACE_OUTER_BOUND('',#132,.T.);
#107=EDGE_LOOP('',(#229,#230,#231));
#108=EDGE_LOOP('',(#232,#233,#234));
#109=EDGE_LOOP('',(#235,#236,#237));
#110=EDGE_LOOP('',(#238,#239,#240));
#111=EDGE_LOOP('',(#241,#242,#243,#244));
#112=EDGE_LOOP('',(#245,#246,#247,#248));
#113=EDGE_LOOP('',(#249,#250,#251,#252));
#114=EDGE_LOOP('',(#253,#254,#255,#256));
#115=EDGE_LOOP('',(#257,#258,#259,#260));
#116=EDGE_LOOP('',(#261,#262,#263));
#117=EDGE_LOOP('',(#264,#265,#266,#267));
#118=EDGE_LOOP('',(#268,#269,#270));
#119=EDGE_LOOP('',(#271,#272,#273,#274));
#120=EDGE_LOOP('',(#275,#276,#277));
#121=EDGE_LOOP('',(#278,#279,#280,#281));
#122=EDGE_LOOP('',(#282,#283,#284,#285));
#123=EDGE_LOOP('',(#286,#287,#288));
#124=EDGE_LOOP('',(#289,#290,#291,#292));
#125=EDGE_LOOP('',(#293,#294,#295,#296));
#126=EDGE_LOOP('',(#297,#298,#299,#300));
#127=EDGE_LOOP('',(#301,#302,#303,#304));
#128=EDGE_LOOP('',(#305,#306,#307,#308));
#129=EDGE_LOOP('',(#309,#310,#311,#312));
#130=EDGE_LOOP('',(#313,#314,#315,#316));
#131=EDGE_LOOP('',(#317,#318,#319,#320));
#132=EDGE_LOOP('',(#321,#322,#323,#324));
#133=CIRCLE('',#374,0.3);
#134=CIRCLE('',#375,0.3);
#135=CIRCLE('',#376,0.3);
#136=CIRCLE('',#378,0.3);
#137=CIRCLE('',#379,0.3);
#138=CIRCLE('',#380,0.3);
#139=CIRCLE('',#382,0.3);
#140=CIRCLE('',#383,0.3);
#141=CIRCLE('',#384,0.3);
#142=CIRCLE('',#386,0.3);
#143=CIRCLE('',#387,0.3);
#144=CIRCLE('',#388,0.3);
#145=CIRCLE('',#395,0.3);
#146=CIRCLE('',#396,0.3);
#147=CIRCLE('',#397,0.3);
#148=CIRCLE('',#400,0.3);
#149=CIRCLE('',#401,0.3);
#150=CIRCLE('',#402,0.3);
#151=CIRCLE('',#405,0.3);
#152=CIRCLE('',#406,0.3);
#153=CIRCLE('',#407,0.3);
#154=CIRCLE('',#411,0.3);
#155=CIRCLE('',#412,0.3);
#156=CIRCLE('',#413,0.3);
#157=VERTEX_POINT('',#551);
#158=VERTEX_POINT('',#552);
#159=VERTEX_POINT('',#554);
#160=VERTEX_POINT('',#558);
#161=VERTEX_POINT('',#559);
#162=VERTEX_POINT('',#561);
#163=VERTEX_POINT('',#565);
#164=VERTEX_POINT('',#566);
#165=VERTEX_POINT('',#568);
#166=VERTEX_POINT('',#572);
#167=VERTEX_POINT('',#573);
#168=VERTEX_POINT('',#575);
#169=VERTEX_POINT('',#592);
#170=VERTEX_POINT('',#593);
#171=VERTEX_POINT('',#595);
#172=VERTEX_POINT('',#602);
#173=VERTEX_POINT('',#603);
#174=VERTEX_POINT('',#605);
#175=VERTEX_POINT('',#612);
#176=VERTEX_POINT('',#613);
#177=VERTEX_POINT('',#615);
#178=VERTEX_POINT('',#625);
#179=VERTEX_POINT('',#626);
#180=VERTEX_POINT('',#628);
#181=EDGE_CURVE('',#157,#158,#133,.F.);
#182=EDGE_CURVE('',#159,#157,#134,.F.);
#183=EDGE_CURVE('',#158,#159,#135,.F.);
#184=EDGE_CURVE('',#160,#161,#136,.F.);
#185=EDGE_CURVE('',#162,#160,#137,.F.);
#186=EDGE_CURVE('',#161,#162,#138,.F.);
#187=EDGE_CURVE('',#163,#164,#139,.F.);
#188=EDGE_CURVE('',#165,#163,#140,.F.);
#189=EDGE_CURVE('',#164,#165,#141,.F.);
#190=EDGE_CURVE('',#166,#167,#142,.F.);
#191=EDGE_CURVE('',#168,#166,#143,.F.);
#192=EDGE_CURVE('',#167,#168,#144,.F.);
#193=EDGE_CURVE('',#168,#162,#21,.T.);
#194=EDGE_CURVE('',#160,#167,#22,.T.);
#195=EDGE_CURVE('',#165,#166,#23,.T.);
#196=EDGE_CURVE('',#167,#164,#24,.T.);
#197=EDGE_CURVE('',#157,#163,#25,.T.);
#198=EDGE_CURVE('',#164,#159,#26,.T.);
#199=EDGE_CURVE('',#161,#158,#27,.T.);
#200=EDGE_CURVE('',#159,#160,#28,.T.);
#201=EDGE_CURVE('',#169,#170,#145,.F.);
#202=EDGE_CURVE('',#171,#169,#146,.F.);
#203=EDGE_CURVE('',#170,#171,#147,.F.);
#204=EDGE_CURVE('',#163,#171,#29,.T.);
#205=EDGE_CURVE('',#169,#165,#30,.T.);
#206=EDGE_CURVE('',#172,#173,#148,.F.);
#207=EDGE_CURVE('',#174,#172,#149,.F.);
#208=EDGE_CURVE('',#173,#174,#150,.F.);
#209=EDGE_CURVE('',#158,#174,#31,.T.);
#210=EDGE_CURVE('',#172,#157,#32,.T.);
#211=EDGE_CURVE('',#175,#176,#151,.F.);
#212=EDGE_CURVE('',#177,#175,#152,.F.);
#213=EDGE_CURVE('',#176,#177,#153,.F.);
#214=EDGE_CURVE('',#166,#177,#33,.T.);
#215=EDGE_CURVE('',#175,#168,#34,.T.);
#216=EDGE_CURVE('',#170,#176,#35,.T.);
#217=EDGE_CURVE('',#177,#169,#36,.T.);
#218=EDGE_CURVE('',#178,#179,#154,.F.);
#219=EDGE_CURVE('',#180,#178,#155,.F.);
#220=EDGE_CURVE('',#179,#180,#156,.F.);
#221=EDGE_CURVE('',#162,#180,#37,.T.);
#222=EDGE_CURVE('',#178,#161,#38,.T.);
#223=EDGE_CURVE('',#176,#179,#39,.T.);
#224=EDGE_CURVE('',#180,#175,#40,.T.);
#225=EDGE_CURVE('',#179,#173,#41,.T.);
#226=EDGE_CURVE('',#174,#178,#42,.T.);
#227=EDGE_CURVE('',#173,#170,#43,.T.);
#228=EDGE_CURVE('',#171,#172,#44,.T.);
#229=ORIENTED_EDGE('',*,*,#181,.F.);
#230=ORIENTED_EDGE('',*,*,#182,.F.);
#231=ORIENTED_EDGE('',*,*,#183,.F.);
#232=ORIENTED_EDGE('',*,*,#184,.F.);
#233=ORIENTED_EDGE('',*,*,#185,.F.);
#234=ORIENTED_EDGE('',*,*,#186,.F.);
#235=ORIENTED_EDGE('',*,*,#187,.F.);
#236=ORIENTED_EDGE('',*,*,#188,.F.);
#237=ORIENTED_EDGE('',*,*,#189,.F.);
#238=ORIENTED_EDGE('',*,*,#190,.F.);
#239=ORIENTED_EDGE('',*,*,#191,.F.);
#240=ORIENTED_EDGE('',*,*,#192,.F.);
#241=ORIENTED_EDGE('',*,*,#192,.T.);
#242=ORIENTED_EDGE('',*,*,#193,.T.);
#243=ORIENTED_EDGE('',*,*,#185,.T.);
#244=ORIENTED_EDGE('',*,*,#194,.T.);
#245=ORIENTED_EDGE('',*,*,#189,.T.);
#246=ORIENTED_EDGE('',*,*,#195,.T.);
#247=ORIENTED_EDGE('',*,*,#190,.T.);
#248=ORIENTED_EDGE('',*,*,#196,.T.);
#249=ORIENTED_EDGE('',*,*,#182,.T.);
#250=ORIENTED_EDGE('',*,*,#197,.T.);
#251=ORIENTED_EDGE('',*,*,#187,.T.);
#252=ORIENTED_EDGE('',*,*,#198,.T.);
#253=ORIENTED_EDGE('',*,*,#184,.T.);
#254=ORIENTED_EDGE('',*,*,#199,.T.);
#255=ORIENTED_EDGE('',*,*,#183,.T.);
#256=ORIENTED_EDGE('',*,*,#200,.T.);
#257=ORIENTED_EDGE('',*,*,#194,.F.);
#258=ORIENTED_EDGE('',*,*,#200,.F.);
#259=ORIENTED_EDGE('',*,*,#198,.F.);
#260=ORIENTED_EDGE('',*,*,#196,.F.);
#261=ORIENTED_EDGE('',*,*,#201,.F.);
#262=ORIENTED_EDGE('',*,*,#202,.F.);
#263=ORIENTED_EDGE('',*,*,#203,.F.);
#264=ORIENTED_EDGE('',*,*,#204,.T.);
#265=ORIENTED_EDGE('',*,*,#202,.T.);
#266=ORIENTED_EDGE('',*,*,#205,.T.);
#267=ORIENTED_EDGE('',*,*,#188,.T.);
#268=ORIENTED_EDGE('',*,*,#206,.F.);
#269=ORIENTED_EDGE('',*,*,#207,.F.);
#270=ORIENTED_EDGE('',*,*,#208,.F.);
#271=ORIENTED_EDGE('',*,*,#209,.T.);
#272=ORIENTED_EDGE('',*,*,#207,.T.);
#273=ORIENTED_EDGE('',*,*,#210,.T.);
#274=ORIENTED_EDGE('',*,*,#181,.T.);
#275=ORIENTED_EDGE('',*,*,#211,.F.);
#276=ORIENTED_EDGE('',*,*,#212,.F.);
#277=ORIENTED_EDGE('',*,*,#213,.F.);
#278=ORIENTED_EDGE('',*,*,#214,.T.);
#279=ORIENTED_EDGE('',*,*,#212,.T.);
#280=ORIENTED_EDGE('',*,*,#215,.T.);
#281=ORIENTED_EDGE('',*,*,#191,.T.);
#282=ORIENTED_EDGE('',*,*,#201,.T.);
#283=ORIENTED_EDGE('',*,*,#216,.T.);
#284=ORIENTED_EDGE('',*,*,#213,.T.);
#285=ORIENTED_EDGE('',*,*,#217,.T.);
#286=ORIENTED_EDGE('',*,*,#218,.F.);
#287=ORIENTED_EDGE('',*,*,#219,.F.);
#288=ORIENTED_EDGE('',*,*,#220,.F.);
#289=ORIENTED_EDGE('',*,*,#221,.T.);
#290=ORIENTED_EDGE('',*,*,#219,.T.);
#291=ORIENTED_EDGE('',*,*,#222,.T.);
#292=ORIENTED_EDGE('',*,*,#186,.T.);
#293=ORIENTED_EDGE('',*,*,#211,.T.);
#294=ORIENTED_EDGE('',*,*,#223,.T.);
#295=ORIENTED_EDGE('',*,*,#220,.T.);
#296=ORIENTED_EDGE('',*,*,#224,.T.);
#297=ORIENTED_EDGE('',*,*,#218,.T.);
#298=ORIENTED_EDGE('',*,*,#225,.T.);
#299=ORIENTED_EDGE('',*,*,#208,.T.);
#300=ORIENTED_EDGE('',*,*,#226,.T.);
#301=ORIENTED_EDGE('',*,*,#206,.T.);
#302=ORIENTED_EDGE('',*,*,#227,.T.);
#303=ORIENTED_EDGE('',*,*,#203,.T.);
#304=ORIENTED_EDGE('',*,*,#228,.T.);
#305=ORIENTED_EDGE('',*,*,#205,.F.);
#306=ORIENTED_EDGE('',*,*,#217,.F.);
#307=ORIENTED_EDGE('',*,*,#214,.F.);
#308=ORIENTED_EDGE('',*,*,#195,.F.);
#309=ORIENTED_EDGE('',*,*,#215,.F.);
#310=ORIENTED_EDGE('',*,*,#224,.F.);
#311=ORIENTED_EDGE('',*,*,#221,.F.);
#312=ORIENTED_EDGE('',*,*,#193,.F.);
#313=ORIENTED_EDGE('',*,*,#216,.F.);
#314=ORIENTED_EDGE('',*,*,#227,.F.);
#315=ORIENTED_EDGE('',*,*,#225,.F.);
#316=ORIENTED_EDGE('',*,*,#223,.F.);
#317=ORIENTED_EDGE('',*,*,#209,.F.);
#318=ORIENTED_EDGE('',*,*,#199,.F.);
#319=ORIENTED_EDGE('',*,*,#222,.F.);
#320=ORIENTED_EDGE('',*,*,#226,.F.);
#321=ORIENTED_EDGE('',*,*,#204,.F.);
#322=ORIENTED_EDGE('',*,*,#197,.F.);
#323=ORIENTED_EDGE('',*,*,#210,.F.);
#324=ORIENTED_EDGE('',*,*,#228,.F.);
#325=SPHERICAL_SURFACE('',#373,0.3);
#326=SPHERICAL_SURFACE('',#377,0.3);
#327=SPHERICAL_SURFACE('',#381,0.3);
#328=SPHERICAL_SURFACE('',#385,0.3);
#329=SPHERICAL_SURFACE('',#394,0.3);
#330=SPHERICAL_SURFACE('',#399,0.3);
#331=SPHERICAL_SURFACE('',#404,0.3);
#332=SPHERICAL_SURFACE('',#410,0.3);
#333=ADVANCED_FACE('',(#81),#325,.T.);
#334=ADVANCED_FACE('',(#82),#326,.T.);
#335=ADVANCED_FACE('',(#83),#327,.T.);
#336=ADVANCED_FACE('',(#84),#328,.T.);
#337=ADVANCED_FACE('',(#85),#69,.T.);
#338=ADVANCED_FACE('',(#86),#70,.T.);
#339=ADVANCED_FACE('',(#87),#71,.T.);
#340=ADVANCED_FACE('',(#88),#72,.T.);
#341=ADVANCED_FACE('',(#89),#15,.F.);
#342=ADVANCED_FACE('',(#90),#329,.T.);
#343=ADVANCED_FACE('',(#91),#73,.T.);
#344=ADVANCED_FACE('',(#92),#330,.T.);
#345=ADVANCED_FACE('',(#93),#74,.T.);
#346=ADVANCED_FACE('',(#94),#331,.T.);
#347=ADVANCED_FACE('',(#95),#75,.T.);
#348=ADVANCED_FACE('',(#96),#76,.T.);
#349=ADVANCED_FACE('',(#97),#332,.T.);
#350=ADVANCED_FACE('',(#98),#77,.T.);
#351=ADVANCED_FACE('',(#99),#78,.T.);
#352=ADVANCED_FACE('',(#100),#79,.T.);
#353=ADVANCED_FACE('',(#101),#80,.T.);
#354=ADVANCED_FACE('',(#102),#16,.T.);
#355=ADVANCED_FACE('',(#103),#17,.T.);
#356=ADVANCED_FACE('',(#104),#18,.T.);
#357=ADVANCED_FACE('',(#105),#19,.T.);
#358=ADVANCED_FACE('',(#106),#20,.T.);
#359=CLOSED_SHELL('',(#333,#334,#335,#336,#337,#338,#339,#340,#341,#342,
#343,#344,#345,#346,#347,#348,#349,#350,#351,#352,#353,#354,#355,#356,#357,
#358));
#360=DERIVED_UNIT_ELEMENT(#362,1.);
#361=DERIVED_UNIT_ELEMENT(#653,-3.);
#362=(
MASS_UNIT()
NAMED_UNIT(*)
SI_UNIT(.KILO.,.GRAM.)
);
#363=DERIVED_UNIT((#360,#361));
#364=MEASURE_REPRESENTATION_ITEM('density measure',
POSITIVE_RATIO_MEASURE(1060.),#363);
#365=PROPERTY_DEFINITION_REPRESENTATION(#370,#367);
#366=PROPERTY_DEFINITION_REPRESENTATION(#371,#368);
#367=REPRESENTATION('material name',(#369),#650);
#368=REPRESENTATION('density',(#364),#650);
#369=DESCRIPTIVE_REPRESENTATION_ITEM('Plastique ABS','Plastique ABS');
#370=PROPERTY_DEFINITION('material property','material name',#660);
#371=PROPERTY_DEFINITION('material property','density of part',#660);
#372=AXIS2_PLACEMENT_3D('',#549,#423,#424);
#373=AXIS2_PLACEMENT_3D('',#550,#425,#426);
#374=AXIS2_PLACEMENT_3D('',#553,#427,#428);
#375=AXIS2_PLACEMENT_3D('',#555,#429,#430);
#376=AXIS2_PLACEMENT_3D('',#556,#431,#432);
#377=AXIS2_PLACEMENT_3D('',#557,#433,#434);
#378=AXIS2_PLACEMENT_3D('',#560,#435,#436);
#379=AXIS2_PLACEMENT_3D('',#562,#437,#438);
#380=AXIS2_PLACEMENT_3D('',#563,#439,#440);
#381=AXIS2_PLACEMENT_3D('',#564,#441,#442);
#382=AXIS2_PLACEMENT_3D('',#567,#443,#444);
#383=AXIS2_PLACEMENT_3D('',#569,#445,#446);
#384=AXIS2_PLACEMENT_3D('',#570,#447,#448);
#385=AXIS2_PLACEMENT_3D('',#571,#449,#450);
#386=AXIS2_PLACEMENT_3D('',#574,#451,#452);
#387=AXIS2_PLACEMENT_3D('',#576,#453,#454);
#388=AXIS2_PLACEMENT_3D('',#577,#455,#456);
#389=AXIS2_PLACEMENT_3D('',#578,#457,#458);
#390=AXIS2_PLACEMENT_3D('',#581,#461,#462);
#391=AXIS2_PLACEMENT_3D('',#584,#465,#466);
#392=AXIS2_PLACEMENT_3D('',#587,#469,#470);
#393=AXIS2_PLACEMENT_3D('',#590,#473,#474);
#394=AXIS2_PLACEMENT_3D('',#591,#475,#476);
#395=AXIS2_PLACEMENT_3D('',#594,#477,#478);
#396=AXIS2_PLACEMENT_3D('',#596,#479,#480);
#397=AXIS2_PLACEMENT_3D('',#597,#481,#482);
#398=AXIS2_PLACEMENT_3D('',#598,#483,#484);
#399=AXIS2_PLACEMENT_3D('',#601,#487,#488);
#400=AXIS2_PLACEMENT_3D('',#604,#489,#490);
#401=AXIS2_PLACEMENT_3D('',#606,#491,#492);
#402=AXIS2_PLACEMENT_3D('',#607,#493,#494);
#403=AXIS2_PLACEMENT_3D('',#608,#495,#496);
#404=AXIS2_PLACEMENT_3D('',#611,#499,#500);
#405=AXIS2_PLACEMENT_3D('',#614,#501,#502);
#406=AXIS2_PLACEMENT_3D('',#616,#503,#504);
#407=AXIS2_PLACEMENT_3D('',#617,#505,#506);
#408=AXIS2_PLACEMENT_3D('',#618,#507,#508);
#409=AXIS2_PLACEMENT_3D('',#621,#511,#512);
#410=AXIS2_PLACEMENT_3D('',#624,#515,#516);
#411=AXIS2_PLACEMENT_3D('',#627,#517,#518);
#412=AXIS2_PLACEMENT_3D('',#629,#519,#520);
#413=AXIS2_PLACEMENT_3D('',#630,#521,#522);
#414=AXIS2_PLACEMENT_3D('',#631,#523,#524);
#415=AXIS2_PLACEMENT_3D('',#634,#527,#528);
#416=AXIS2_PLACEMENT_3D('',#637,#531,#532);
#417=AXIS2_PLACEMENT_3D('',#640,#535,#536);
#418=AXIS2_PLACEMENT_3D('',#643,#539,#540);
#419=AXIS2_PLACEMENT_3D('',#644,#541,#542);
#420=AXIS2_PLACEMENT_3D('',#645,#543,#544);
#421=AXIS2_PLACEMENT_3D('',#646,#545,#546);
#422=AXIS2_PLACEMENT_3D('',#647,#547,#548);
#423=DIRECTION('axis',(0.,0.,1.));
#424=DIRECTION('refdir',(1.,0.,0.));
#425=DIRECTION('center_axis',(0.408248290463863,-0.408248290463862,-0.816496580927727));
#426=DIRECTION('ref_axis',(-0.577350269189628,0.577350269189625,-0.577350269189625));
#427=DIRECTION('center_axis',(0.,0.,-1.));
#428=DIRECTION('ref_axis',(0.,1.,0.));
#429=DIRECTION('center_axis',(-1.,-1.85037170770859E-15,0.));
#430=DIRECTION('ref_axis',(0.,0.,-1.));
#431=DIRECTION('center_axis',(0.,1.,9.25185853854298E-16));
#432=DIRECTION('ref_axis',(-1.,0.,0.));
#433=DIRECTION('center_axis',(0.408248290463863,-0.816496580927726,0.408248290463863));
#434=DIRECTION('ref_axis',(-0.577350269189626,-0.577350269189626,-0.577350269189626));
#435=DIRECTION('center_axis',(0.,-1.,0.));
#436=DIRECTION('ref_axis',(0.,0.,-1.));
#437=DIRECTION('center_axis',(-1.,0.,0.));
#438=DIRECTION('ref_axis',(0.,-1.,0.));
#439=DIRECTION('center_axis',(0.,0.,-1.));
#440=DIRECTION('ref_axis',(-1.,-9.25185853854298E-16,0.));
#441=DIRECTION('center_axis',(-0.408248290463863,-0.408248290463863,-0.816496580927727));
#442=DIRECTION('ref_axis',(0.577350269189627,0.577350269189626,-0.577350269189625));
#443=DIRECTION('center_axis',(1.,0.,0.));
#444=DIRECTION('ref_axis',(0.,1.,0.));
#445=DIRECTION('center_axis',(0.,0.,-1.));
#446=DIRECTION('ref_axis',(1.,0.,0.));
#447=DIRECTION('center_axis',(0.,1.,0.));
#448=DIRECTION('ref_axis',(0.,0.,-1.));
#449=DIRECTION('center_axis',(-0.408248290463863,0.408248290463863,-0.816496580927727));
#450=DIRECTION('ref_axis',(0.577350269189627,-0.577350269189625,-0.577350269189625));
#451=DIRECTION('center_axis',(0.,-1.,0.));
#452=DIRECTION('ref_axis',(1.,0.,0.));
#453=DIRECTION('center_axis',(0.,0.,-1.));
#454=DIRECTION('ref_axis',(0.,-1.,0.));
#455=DIRECTION('center_axis',(1.,0.,0.));
#456=DIRECTION('ref_axis',(0.,0.,-1.));
#457=DIRECTION('center_axis',(1.,-8.54017711250121E-17,0.));
#458=DIRECTION('ref_axis',(0.,-0.707106781186547,-0.707106781186548));
#459=DIRECTION('',(-1.,8.54017711250121E-17,0.));
#460=DIRECTION('',(1.,-8.54017711250121E-17,0.));
#461=DIRECTION('center_axis',(-1.58603289232165E-16,1.,0.));
#462=DIRECTION('ref_axis',(0.707106781186547,0.,-0.707106781186547));
#463=DIRECTION('',(1.58603289232165E-16,-1.,0.));
#464=DIRECTION('',(-1.58603289232165E-16,1.,0.));
#465=DIRECTION('center_axis',(-1.,4.2700885562506E-17,0.));
#466=DIRECTION('ref_axis',(0.,0.707106781186547,-0.707106781186547));
#467=DIRECTION('',(1.,-4.2700885562506E-17,0.));
#468=DIRECTION('',(-1.,4.2700885562506E-17,0.));
#469=DIRECTION('center_axis',(4.75809867696495E-16,-1.,0.));
#470=DIRECTION('ref_axis',(-0.707106781186546,-6.5420519111824E-16,-0.707106781186549));
#471=DIRECTION('',(-4.75809867696495E-16,1.,0.));
#472=DIRECTION('',(4.75809867696495E-16,-1.,0.));
#473=DIRECTION('center_axis',(0.,0.,1.));
#474=DIRECTION('ref_axis',(1.,0.,0.));
#475=DIRECTION('center_axis',(0.408248290463863,-0.816496580927726,0.408248290463864));
#476=DIRECTION('ref_axis',(0.577350269189624,0.577350269189627,0.577350269189627));
#477=DIRECTION('center_axis',(0.,1.,0.));
#478=DIRECTION('ref_axis',(1.,0.,0.));
#479=DIRECTION('center_axis',(0.,0.,1.));
#480=DIRECTION('ref_axis',(0.,1.,0.));
#481=DIRECTION('center_axis',(1.,0.,0.));
#482=DIRECTION('ref_axis',(0.,0.,1.));
#483=DIRECTION('center_axis',(0.,0.,1.));
#484=DIRECTION('ref_axis',(0.707106781186547,0.707106781186547,0.));
#485=DIRECTION('',(0.,0.,1.));
#486=DIRECTION('',(0.,0.,-1.));
#487=DIRECTION('center_axis',(-0.816496580927728,-0.408248290463862,-0.408248290463862));
#488=DIRECTION('ref_axis',(-0.577350269189624,0.577350269189627,0.577350269189627));
#489=DIRECTION('center_axis',(-1.,0.,1.85037170770859E-15));
#490=DIRECTION('ref_axis',(0.,1.,0.));
#491=DIRECTION('center_axis',(0.,0.,1.));
#492=DIRECTION('ref_axis',(-1.,-9.25185853854298E-16,0.));
#493=DIRECTION('center_axis',(-1.8503717077086E-15,1.,0.));
#494=DIRECTION('ref_axis',(0.,0.,1.));
#495=DIRECTION('center_axis',(0.,0.,1.));
#496=DIRECTION('ref_axis',(-0.707106781186547,0.707106781186547,0.));
#497=DIRECTION('',(0.,0.,1.));
#498=DIRECTION('',(0.,0.,-1.));
#499=DIRECTION('center_axis',(0.408248290463864,-0.408248290463863,-0.816496580927726));
#500=DIRECTION('ref_axis',(0.577350269189626,-0.577350269189626,0.577350269189626));
#501=DIRECTION('center_axis',(1.,0.,0.));
#502=DIRECTION('ref_axis',(0.,-1.,0.));
#503=DIRECTION('center_axis',(0.,0.,1.));
#504=DIRECTION('ref_axis',(1.,0.,0.));
#505=DIRECTION('center_axis',(9.25185853854296E-16,-1.,0.));
#506=DIRECTION('ref_axis',(0.,0.,1.));
#507=DIRECTION('center_axis',(0.,0.,1.));
#508=DIRECTION('ref_axis',(0.707106781186548,-0.707106781186547,0.));
#509=DIRECTION('',(0.,0.,1.));
#510=DIRECTION('',(0.,0.,-1.));
#511=DIRECTION('center_axis',(-1.58603289232165E-16,1.,0.));
#512=DIRECTION('ref_axis',(0.707106781186548,0.,0.707106781186547));
#513=DIRECTION('',(1.58603289232165E-16,-1.,0.));
#514=DIRECTION('',(-1.58603289232165E-16,1.,0.));
#515=DIRECTION('center_axis',(-0.816496580927728,0.408248290463862,-0.408248290463861));
#516=DIRECTION('ref_axis',(-0.577350269189624,-0.577350269189627,0.577350269189626));
#517=DIRECTION('center_axis',(0.,-1.,0.));
#518=DIRECTION('ref_axis',(-1.,0.,0.));
#519=DIRECTION('center_axis',(0.,0.,1.));
#520=DIRECTION('ref_axis',(0.,-1.,0.));
#521=DIRECTION('center_axis',(-1.,1.8503717077086E-15,0.));
#522=DIRECTION('ref_axis',(0.,0.,1.));
#523=DIRECTION('center_axis',(0.,0.,1.));
#524=DIRECTION('ref_axis',(-0.707106781186546,-0.707106781186549,0.));
#525=DIRECTION('',(0.,0.,1.));
#526=DIRECTION('',(0.,0.,-1.));
#527=DIRECTION('center_axis',(1.,-8.54017711250121E-17,0.));
#528=DIRECTION('ref_axis',(0.,-0.707106781186548,0.707106781186548));
#529=DIRECTION('',(-1.,8.54017711250121E-17,0.));
#530=DIRECTION('',(1.,-8.54017711250121E-17,0.));
#531=DIRECTION('center_axis',(4.75809867696495E-16,-1.,0.));
#532=DIRECTION('ref_axis',(-0.707106781186547,-6.54205191118241E-16,0.707106781186548));
#533=DIRECTION('',(-4.75809867696495E-16,1.,0.));
#534=DIRECTION('',(4.75809867696495E-16,-1.,0.));
#535=DIRECTION('center_axis',(-1.,4.2700885562506E-17,0.));
#536=DIRECTION('ref_axis',(0.,0.707106781186548,0.707106781186547));
#537=DIRECTION('',(1.,-4.2700885562506E-17,0.));
#538=DIRECTION('',(-1.,4.2700885562506E-17,0.));
#539=DIRECTION('center_axis',(1.,1.58603289232165E-16,0.));
#540=DIRECTION('ref_axis',(-1.58603289232165E-16,1.,0.));
#541=DIRECTION('center_axis',(-8.54017711250121E-17,-1.,0.));
#542=DIRECTION('ref_axis',(1.,-8.54017711250121E-17,0.));
#543=DIRECTION('center_axis',(0.,0.,1.));
#544=DIRECTION('ref_axis',(1.,0.,0.));
#545=DIRECTION('center_axis',(-1.,-4.75809867696495E-16,0.));
#546=DIRECTION('ref_axis',(4.75809867696495E-16,-1.,0.));
#547=DIRECTION('center_axis',(4.2700885562506E-17,1.,0.));
#548=DIRECTION('ref_axis',(-1.,4.2700885562506E-17,0.));
#549=CARTESIAN_POINT('',(0.,0.,0.));
#550=CARTESIAN_POINT('Origin',(-2.95,1.45,-3.3));
#551=CARTESIAN_POINT('',(-2.95,1.75,-3.3));
#552=CARTESIAN_POINT('',(-3.25,1.45,-3.3));
#553=CARTESIAN_POINT('Origin',(-2.95,1.45,-3.3));
#554=CARTESIAN_POINT('',(-2.95,1.45,-3.6));
#555=CARTESIAN_POINT('Origin',(-2.95,1.45,-3.3));
#556=CARTESIAN_POINT('Origin',(-2.95,1.45,-3.3));
#557=CARTESIAN_POINT('Origin',(-2.95,-1.45,-3.3));
#558=CARTESIAN_POINT('',(-2.95,-1.45,-3.6));
#559=CARTESIAN_POINT('',(-3.25,-1.45,-3.3));
#560=CARTESIAN_POINT('Origin',(-2.95,-1.45,-3.3));
#561=CARTESIAN_POINT('',(-2.95,-1.75,-3.3));
#562=CARTESIAN_POINT('Origin',(-2.95,-1.45,-3.3));
#563=CARTESIAN_POINT('Origin',(-2.95,-1.45,-3.3));
#564=CARTESIAN_POINT('Origin',(2.95,1.45,-3.3));
#565=CARTESIAN_POINT('',(2.95,1.75,-3.3));
#566=CARTESIAN_POINT('',(2.95,1.45,-3.6));
#567=CARTESIAN_POINT('Origin',(2.95,1.45,-3.3));
#568=CARTESIAN_POINT('',(3.25,1.45,-3.3));
#569=CARTESIAN_POINT('Origin',(2.95,1.45,-3.3));
#570=CARTESIAN_POINT('Origin',(2.95,1.45,-3.3));
#571=CARTESIAN_POINT('Origin',(2.95,-1.45,-3.3));
#572=CARTESIAN_POINT('',(3.25,-1.45,-3.3));
#573=CARTESIAN_POINT('',(2.95,-1.45,-3.6));
#574=CARTESIAN_POINT('Origin',(2.95,-1.45,-3.3));
#575=CARTESIAN_POINT('',(2.95,-1.75,-3.3));
#576=CARTESIAN_POINT('Origin',(2.95,-1.45,-3.3));
#577=CARTESIAN_POINT('Origin',(2.95,-1.45,-3.3));
#578=CARTESIAN_POINT('Origin',(-1.625,-1.45,-3.3));
#579=CARTESIAN_POINT('',(-1.625,-1.75,-3.3));
#580=CARTESIAN_POINT('',(-1.625,-1.45,-3.6));
#581=CARTESIAN_POINT('Origin',(2.95,-0.875,-3.3));
#582=CARTESIAN_POINT('',(3.25,-0.875,-3.3));
#583=CARTESIAN_POINT('',(2.95,-0.875,-3.6));
#584=CARTESIAN_POINT('Origin',(1.625,1.45,-3.3));
#585=CARTESIAN_POINT('',(1.625,1.75,-3.3));
#586=CARTESIAN_POINT('',(1.625,1.45,-3.6));
#587=CARTESIAN_POINT('Origin',(-2.95,0.875,-3.3));
#588=CARTESIAN_POINT('',(-3.25,0.875,-3.3));
#589=CARTESIAN_POINT('',(-2.95,0.875,-3.6));
#590=CARTESIAN_POINT('Origin',(5.55111512312578E-16,-2.77555756156289E-16,
-3.6));
#591=CARTESIAN_POINT('Origin',(2.95,1.45,1.7));
#592=CARTESIAN_POINT('',(3.25,1.45,1.7));
#593=CARTESIAN_POINT('',(2.95,1.45,2.));
#594=CARTESIAN_POINT('Origin',(2.95,1.45,1.7));
#595=CARTESIAN_POINT('',(2.95,1.75,1.7));
#596=CARTESIAN_POINT('Origin',(2.95,1.45,1.7));
#597=CARTESIAN_POINT('Origin',(2.95,1.45,1.7));
#598=CARTESIAN_POINT('Origin',(2.95,1.45,0.));
#599=CARTESIAN_POINT('',(2.95,1.75,0.));
#600=CARTESIAN_POINT('',(3.25,1.45,0.));
#601=CARTESIAN_POINT('Origin',(-2.95,1.45,1.7));
#602=CARTESIAN_POINT('',(-2.95,1.75,1.7));
#603=CARTESIAN_POINT('',(-2.95,1.45,2.));
#604=CARTESIAN_POINT('Origin',(-2.95,1.45,1.7));
#605=CARTESIAN_POINT('',(-3.25,1.45,1.7));
#606=CARTESIAN_POINT('Origin',(-2.95,1.45,1.7));
#607=CARTESIAN_POINT('Origin',(-2.95,1.45,1.7));
#608=CARTESIAN_POINT('Origin',(-2.95,1.45,0.));
#609=CARTESIAN_POINT('',(-3.25,1.45,0.));
#610=CARTESIAN_POINT('',(-2.95,1.75,0.));
#611=CARTESIAN_POINT('Origin',(2.95,-1.45,1.7));
#612=CARTESIAN_POINT('',(2.95,-1.75,1.7));
#613=CARTESIAN_POINT('',(2.95,-1.45,2.));
#614=CARTESIAN_POINT('Origin',(2.95,-1.45,1.7));
#615=CARTESIAN_POINT('',(3.25,-1.45,1.7));
#616=CARTESIAN_POINT('Origin',(2.95,-1.45,1.7));
#617=CARTESIAN_POINT('Origin',(2.95,-1.45,1.7));
#618=CARTESIAN_POINT('Origin',(2.95,-1.45,0.));
#619=CARTESIAN_POINT('',(3.25,-1.45,0.));
#620=CARTESIAN_POINT('',(2.95,-1.75,0.));
#621=CARTESIAN_POINT('Origin',(2.95,-0.875,1.7));
#622=CARTESIAN_POINT('',(2.95,-0.875,2.));
#623=CARTESIAN_POINT('',(3.25,-0.875,1.7));
#624=CARTESIAN_POINT('Origin',(-2.95,-1.45,1.7));
#625=CARTESIAN_POINT('',(-3.25,-1.45,1.7));
#626=CARTESIAN_POINT('',(-2.95,-1.45,2.));
#627=CARTESIAN_POINT('Origin',(-2.95,-1.45,1.7));
#628=CARTESIAN_POINT('',(-2.95,-1.75,1.7));
#629=CARTESIAN_POINT('Origin',(-2.95,-1.45,1.7));
#630=CARTESIAN_POINT('Origin',(-2.95,-1.45,1.7));
#631=CARTESIAN_POINT('Origin',(-2.95,-1.45,0.));
#632=CARTESIAN_POINT('',(-2.95,-1.75,0.));
#633=CARTESIAN_POINT('',(-3.25,-1.45,0.));
#634=CARTESIAN_POINT('Origin',(-1.625,-1.45,1.7));
#635=CARTESIAN_POINT('',(-1.625,-1.45,2.));
#636=CARTESIAN_POINT('',(-1.625,-1.75,1.7));
#637=CARTESIAN_POINT('Origin',(-2.95,0.875,1.7));
#638=CARTESIAN_POINT('',(-2.95,0.875,2.));
#639=CARTESIAN_POINT('',(-3.25,0.875,1.7));
#640=CARTESIAN_POINT('Origin',(1.625,1.45,1.7));
#641=CARTESIAN_POINT('',(1.625,1.45,2.));
#642=CARTESIAN_POINT('',(1.625,1.75,1.7));
#643=CARTESIAN_POINT('Origin',(3.25,-1.75,0.));
#644=CARTESIAN_POINT('Origin',(-3.25,-1.75,0.));
#645=CARTESIAN_POINT('Origin',(5.55111512312578E-16,-2.77555756156289E-16,
2.));
#646=CARTESIAN_POINT('Origin',(-3.25,1.75,0.));
#647=CARTESIAN_POINT('Origin',(3.25,1.75,0.));
#648=UNCERTAINTY_MEASURE_WITH_UNIT(LENGTH_MEASURE(0.01),#652,
'DISTANCE_ACCURACY_VALUE',
'Maximum model space distance between geometric entities at asserted c
onnectivities');
#649=UNCERTAINTY_MEASURE_WITH_UNIT(LENGTH_MEASURE(0.01),#652,
'DISTANCE_ACCURACY_VALUE',
'Maximum model space distance between geometric entities at asserted c
onnectivities');
#650=(
GEOMETRIC_REPRESENTATION_CONTEXT(3)
GLOBAL_UNCERTAINTY_ASSIGNED_CONTEXT((#648))
GLOBAL_UNIT_ASSIGNED_CONTEXT((#652,#654,#655))
REPRESENTATION_CONTEXT('','3D')
);
#651=(
GEOMETRIC_REPRESENTATION_CONTEXT(3)
GLOBAL_UNCERTAINTY_ASSIGNED_CONTEXT((#649))
GLOBAL_UNIT_ASSIGNED_CONTEXT((#652,#654,#655))
REPRESENTATION_CONTEXT('','3D')
);
#652=(
LENGTH_UNIT()
NAMED_UNIT(*)
SI_UNIT(.MILLI.,.METRE.)
);
#653=(
LENGTH_UNIT()
NAMED_UNIT(*)
SI_UNIT($,.METRE.)
);
#654=(
NAMED_UNIT(*)
PLANE_ANGLE_UNIT()
SI_UNIT($,.RADIAN.)
);
#655=(
NAMED_UNIT(*)
SI_UNIT($,.STERADIAN.)
SOLID_ANGLE_UNIT()
);
#656=SHAPE_DEFINITION_REPRESENTATION(#657,#658);
#657=PRODUCT_DEFINITION_SHAPE('',$,#660);
#658=SHAPE_REPRESENTATION('',(#372),#650);
#659=PRODUCT_DEFINITION_CONTEXT('part definition',#664,'design');
#660=PRODUCT_DEFINITION('Diode-123','Diode-123 v11',#661,#659);
#661=PRODUCT_DEFINITION_FORMATION('',$,#666);
#662=PRODUCT_RELATED_PRODUCT_CATEGORY('Diode-123 v11','Diode-123 v11',(#666));
#663=APPLICATION_PROTOCOL_DEFINITION('international standard',
'automotive_design',2009,#664);
#664=APPLICATION_CONTEXT(
'Core Data for Automotive Mechanical Design Process');
#665=PRODUCT_CONTEXT('part definition',#664,'mechanical');
#666=PRODUCT('Diode-123','Diode-123 v11',$,(#665));
#667=PRESENTATION_STYLE_ASSIGNMENT((#669));
#668=PRESENTATION_STYLE_ASSIGNMENT((#670));
#669=SURFACE_STYLE_USAGE(.BOTH.,#671);
#670=SURFACE_STYLE_USAGE(.BOTH.,#672);
#671=SURFACE_SIDE_STYLE('',(#673));
#672=SURFACE_SIDE_STYLE('',(#674));
#673=SURFACE_STYLE_FILL_AREA(#675);
#674=SURFACE_STYLE_FILL_AREA(#676);
#675=FILL_AREA_STYLE('ABS (blanc)',(#677));
#676=FILL_AREA_STYLE('ABS-orange',(#678));
#677=FILL_AREA_STYLE_COLOUR('ABS (blanc)',#679);
#678=FILL_AREA_STYLE_COLOUR('ABS-orange',#680);
#679=COLOUR_RGB('ABS (blanc)',0.964705882352941,0.964705882352941,0.952941176470588);
#680=COLOUR_RGB('ABS-orange',1.,0.317647058823529,0.);
ENDSEC;
END-ISO-10303-21;
