ISO-10303-21;
HEADER;
/* Generated by software containing ST-Developer
 * from STEP Tools, Inc. (www.steptools.com) 
 */

FILE_DESCRIPTION(
/* description */ (''),
/* implementation_level */ '2;1');

FILE_NAME(
/* name */ 'Diode-123-OnlyOneSide-FINAL.step',
/* time_stamp */ '2025-08-30T01:11:55+02:00',
/* author */ (''),
/* organization */ (''),
/* preprocessor_version */ 'ST-DEVELOPER v20.1',
/* originating_system */ 'Autodesk Translation Framework v14.10.0.0',
/* authorisation */ '');

FILE_SCHEMA (('AUTOMOTIVE_DESIGN { 1 0 10303 214 3 1 1 }'));
ENDSEC;

DATA;
#10=MECHANICAL_DESIGN_GEOMETRIC_PRESENTATION_REPRESENTATION('',(#13),#487);
#11=SHAPE_REPRESENTATION_RELATIONSHIP('SRR','None',#494,#12);
#12=ADVANCED_BREP_SHAPE_REPRESENTATION('',(#14),#486);
#13=STYLED_ITEM('',(#504),#14);
#14=MANIFOLD_SOLID_BREP('Corps2',#271);
#15=CYLINDRICAL_SURFACE('',#294,0.3);
#16=CYLINDRICAL_SURFACE('',#299,0.3);
#17=CYLINDRICAL_SURFACE('',#300,0.3);
#18=CYLINDRICAL_SURFACE('',#305,0.3);
#19=CYLINDRICAL_SURFACE('',#306,0.3);
#20=CYLINDRICAL_SURFACE('',#311,0.3);
#21=CYLINDRICAL_SURFACE('',#312,0.3);
#22=CYLINDRICAL_SURFACE('',#313,0.3);
#23=SPHERICAL_SURFACE('',#290,0.3);
#24=SPHERICAL_SURFACE('',#295,0.3);
#25=SPHERICAL_SURFACE('',#301,0.3);
#26=SPHERICAL_SURFACE('',#307,0.3);
#27=FACE_OUTER_BOUND('',#45,.T.);
#28=FACE_OUTER_BOUND('',#46,.T.);
#29=FACE_OUTER_BOUND('',#47,.T.);
#30=FACE_OUTER_BOUND('',#48,.T.);
#31=FACE_OUTER_BOUND('',#49,.T.);
#32=FACE_OUTER_BOUND('',#50,.T.);
#33=FACE_OUTER_BOUND('',#51,.T.);
#34=FACE_OUTER_BOUND('',#52,.T.);
#35=FACE_OUTER_BOUND('',#53,.T.);
#36=FACE_OUTER_BOUND('',#54,.T.);
#37=FACE_OUTER_BOUND('',#55,.T.);
#38=FACE_OUTER_BOUND('',#56,.T.);
#39=FACE_OUTER_BOUND('',#57,.T.);
#40=FACE_OUTER_BOUND('',#58,.T.);
#41=FACE_OUTER_BOUND('',#59,.T.);
#42=FACE_OUTER_BOUND('',#60,.T.);
#43=FACE_OUTER_BOUND('',#61,.T.);
#44=FACE_OUTER_BOUND('',#62,.T.);
#45=EDGE_LOOP('',(#175,#176,#177,#178,#179,#180,#181,#182));
#46=EDGE_LOOP('',(#183,#184,#185));
#47=EDGE_LOOP('',(#186,#187,#188,#189));
#48=EDGE_LOOP('',(#190,#191,#192));
#49=EDGE_LOOP('',(#193,#194,#195,#196));
#50=EDGE_LOOP('',(#197,#198,#199,#200));
#51=EDGE_LOOP('',(#201,#202,#203));
#52=EDGE_LOOP('',(#204,#205,#206,#207));
#53=EDGE_LOOP('',(#208,#209,#210,#211));
#54=EDGE_LOOP('',(#212,#213,#214));
#55=EDGE_LOOP('',(#215,#216,#217,#218));
#56=EDGE_LOOP('',(#219,#220,#221,#222));
#57=EDGE_LOOP('',(#223,#224,#225,#226));
#58=EDGE_LOOP('',(#227,#228,#229,#230));
#59=EDGE_LOOP('',(#231,#232,#233,#234));
#60=EDGE_LOOP('',(#235,#236,#237,#238));
#61=EDGE_LOOP('',(#239,#240,#241,#242));
#62=EDGE_LOOP('',(#243,#244,#245,#246));
#63=LINE('',#415,#83);
#64=LINE('',#419,#84);
#65=LINE('',#423,#85);
#66=LINE('',#426,#86);
#67=LINE('',#435,#87);
#68=LINE('',#436,#88);
#69=LINE('',#445,#89);
#70=LINE('',#446,#90);
#71=LINE('',#448,#91);
#72=LINE('',#449,#92);
#73=LINE('',#458,#93);
#74=LINE('',#459,#94);
#75=LINE('',#461,#95);
#76=LINE('',#462,#96);
#77=LINE('',#471,#97);
#78=LINE('',#472,#98);
#79=LINE('',#474,#99);
#80=LINE('',#475,#100);
#81=LINE('',#477,#101);
#82=LINE('',#478,#102);
#83=VECTOR('',#325,10.);
#84=VECTOR('',#328,10.);
#85=VECTOR('',#331,10.);
#86=VECTOR('',#334,10.);
#87=VECTOR('',#345,10.);
#88=VECTOR('',#346,10.);
#89=VECTOR('',#357,10.);
#90=VECTOR('',#358,10.);
#91=VECTOR('',#361,10.);
#92=VECTOR('',#362,10.);
#93=VECTOR('',#373,10.);
#94=VECTOR('',#374,10.);
#95=VECTOR('',#377,10.);
#96=VECTOR('',#378,10.);
#97=VECTOR('',#389,10.);
#98=VECTOR('',#390,10.);
#99=VECTOR('',#393,10.);
#100=VECTOR('',#394,10.);
#101=VECTOR('',#397,10.);
#102=VECTOR('',#398,10.);
#103=CIRCLE('',#286,0.3);
#104=CIRCLE('',#287,0.3);
#105=CIRCLE('',#288,0.3);
#106=CIRCLE('',#289,0.3);
#107=CIRCLE('',#291,0.3);
#108=CIRCLE('',#292,0.3);
#109=CIRCLE('',#293,0.3);
#110=CIRCLE('',#296,0.3);
#111=CIRCLE('',#297,0.3);
#112=CIRCLE('',#298,0.3);
#113=CIRCLE('',#302,0.3);
#114=CIRCLE('',#303,0.3);
#115=CIRCLE('',#304,0.3);
#116=CIRCLE('',#308,0.3);
#117=CIRCLE('',#309,0.3);
#118=CIRCLE('',#310,0.3);
#119=VERTEX_POINT('',#411);
#120=VERTEX_POINT('',#412);
#121=VERTEX_POINT('',#414);
#122=VERTEX_POINT('',#416);
#123=VERTEX_POINT('',#418);
#124=VERTEX_POINT('',#420);
#125=VERTEX_POINT('',#422);
#126=VERTEX_POINT('',#424);
#127=VERTEX_POINT('',#428);
#128=VERTEX_POINT('',#429);
#129=VERTEX_POINT('',#431);
#130=VERTEX_POINT('',#438);
#131=VERTEX_POINT('',#439);
#132=VERTEX_POINT('',#441);
#133=VERTEX_POINT('',#451);
#134=VERTEX_POINT('',#452);
#135=VERTEX_POINT('',#454);
#136=VERTEX_POINT('',#464);
#137=VERTEX_POINT('',#465);
#138=VERTEX_POINT('',#467);
#139=EDGE_CURVE('',#119,#120,#103,.T.);
#140=EDGE_CURVE('',#120,#121,#63,.T.);
#141=EDGE_CURVE('',#121,#122,#104,.T.);
#142=EDGE_CURVE('',#122,#123,#64,.T.);
#143=EDGE_CURVE('',#123,#124,#105,.T.);
#144=EDGE_CURVE('',#124,#125,#65,.T.);
#145=EDGE_CURVE('',#125,#126,#106,.T.);
#146=EDGE_CURVE('',#126,#119,#66,.T.);
#147=EDGE_CURVE('',#127,#128,#107,.F.);
#148=EDGE_CURVE('',#129,#127,#108,.F.);
#149=EDGE_CURVE('',#128,#129,#109,.F.);
#150=EDGE_CURVE('',#129,#125,#67,.T.);
#151=EDGE_CURVE('',#127,#126,#68,.T.);
#152=EDGE_CURVE('',#130,#131,#110,.F.);
#153=EDGE_CURVE('',#132,#130,#111,.F.);
#154=EDGE_CURVE('',#131,#132,#112,.F.);
#155=EDGE_CURVE('',#132,#119,#69,.T.);
#156=EDGE_CURVE('',#130,#120,#70,.T.);
#157=EDGE_CURVE('',#132,#127,#71,.T.);
#158=EDGE_CURVE('',#128,#131,#72,.T.);
#159=EDGE_CURVE('',#133,#134,#113,.F.);
#160=EDGE_CURVE('',#135,#133,#114,.F.);
#161=EDGE_CURVE('',#134,#135,#115,.F.);
#162=EDGE_CURVE('',#129,#135,#73,.T.);
#163=EDGE_CURVE('',#133,#128,#74,.T.);
#164=EDGE_CURVE('',#134,#123,#75,.T.);
#165=EDGE_CURVE('',#135,#124,#76,.T.);
#166=EDGE_CURVE('',#136,#137,#116,.F.);
#167=EDGE_CURVE('',#138,#136,#117,.F.);
#168=EDGE_CURVE('',#137,#138,#118,.F.);
#169=EDGE_CURVE('',#136,#130,#77,.T.);
#170=EDGE_CURVE('',#131,#138,#78,.T.);
#171=EDGE_CURVE('',#134,#137,#79,.T.);
#172=EDGE_CURVE('',#138,#133,#80,.T.);
#173=EDGE_CURVE('',#136,#121,#81,.T.);
#174=EDGE_CURVE('',#137,#122,#82,.T.);
#175=ORIENTED_EDGE('',*,*,#139,.T.);
#176=ORIENTED_EDGE('',*,*,#140,.T.);
#177=ORIENTED_EDGE('',*,*,#141,.T.);
#178=ORIENTED_EDGE('',*,*,#142,.T.);
#179=ORIENTED_EDGE('',*,*,#143,.T.);
#180=ORIENTED_EDGE('',*,*,#144,.T.);
#181=ORIENTED_EDGE('',*,*,#145,.T.);
#182=ORIENTED_EDGE('',*,*,#146,.T.);
#183=ORIENTED_EDGE('',*,*,#147,.F.);
#184=ORIENTED_EDGE('',*,*,#148,.F.);
#185=ORIENTED_EDGE('',*,*,#149,.F.);
#186=ORIENTED_EDGE('',*,*,#150,.F.);
#187=ORIENTED_EDGE('',*,*,#148,.T.);
#188=ORIENTED_EDGE('',*,*,#151,.T.);
#189=ORIENTED_EDGE('',*,*,#145,.F.);
#190=ORIENTED_EDGE('',*,*,#152,.F.);
#191=ORIENTED_EDGE('',*,*,#153,.F.);
#192=ORIENTED_EDGE('',*,*,#154,.F.);
#193=ORIENTED_EDGE('',*,*,#155,.F.);
#194=ORIENTED_EDGE('',*,*,#153,.T.);
#195=ORIENTED_EDGE('',*,*,#156,.T.);
#196=ORIENTED_EDGE('',*,*,#139,.F.);
#197=ORIENTED_EDGE('',*,*,#154,.T.);
#198=ORIENTED_EDGE('',*,*,#157,.T.);
#199=ORIENTED_EDGE('',*,*,#147,.T.);
#200=ORIENTED_EDGE('',*,*,#158,.T.);
#201=ORIENTED_EDGE('',*,*,#159,.F.);
#202=ORIENTED_EDGE('',*,*,#160,.F.);
#203=ORIENTED_EDGE('',*,*,#161,.F.);
#204=ORIENTED_EDGE('',*,*,#149,.T.);
#205=ORIENTED_EDGE('',*,*,#162,.T.);
#206=ORIENTED_EDGE('',*,*,#160,.T.);
#207=ORIENTED_EDGE('',*,*,#163,.T.);
#208=ORIENTED_EDGE('',*,*,#164,.F.);
#209=ORIENTED_EDGE('',*,*,#161,.T.);
#210=ORIENTED_EDGE('',*,*,#165,.T.);
#211=ORIENTED_EDGE('',*,*,#143,.F.);
#212=ORIENTED_EDGE('',*,*,#166,.F.);
#213=ORIENTED_EDGE('',*,*,#167,.F.);
#214=ORIENTED_EDGE('',*,*,#168,.F.);
#215=ORIENTED_EDGE('',*,*,#167,.T.);
#216=ORIENTED_EDGE('',*,*,#169,.T.);
#217=ORIENTED_EDGE('',*,*,#152,.T.);
#218=ORIENTED_EDGE('',*,*,#170,.T.);
#219=ORIENTED_EDGE('',*,*,#159,.T.);
#220=ORIENTED_EDGE('',*,*,#171,.T.);
#221=ORIENTED_EDGE('',*,*,#168,.T.);
#222=ORIENTED_EDGE('',*,*,#172,.T.);
#223=ORIENTED_EDGE('',*,*,#173,.F.);
#224=ORIENTED_EDGE('',*,*,#166,.T.);
#225=ORIENTED_EDGE('',*,*,#174,.T.);
#226=ORIENTED_EDGE('',*,*,#141,.F.);
#227=ORIENTED_EDGE('',*,*,#156,.F.);
#228=ORIENTED_EDGE('',*,*,#169,.F.);
#229=ORIENTED_EDGE('',*,*,#173,.T.);
#230=ORIENTED_EDGE('',*,*,#140,.F.);
#231=ORIENTED_EDGE('',*,*,#174,.F.);
#232=ORIENTED_EDGE('',*,*,#171,.F.);
#233=ORIENTED_EDGE('',*,*,#164,.T.);
#234=ORIENTED_EDGE('',*,*,#142,.F.);
#235=ORIENTED_EDGE('',*,*,#158,.F.);
#236=ORIENTED_EDGE('',*,*,#163,.F.);
#237=ORIENTED_EDGE('',*,*,#172,.F.);
#238=ORIENTED_EDGE('',*,*,#170,.F.);
#239=ORIENTED_EDGE('',*,*,#155,.T.);
#240=ORIENTED_EDGE('',*,*,#146,.F.);
#241=ORIENTED_EDGE('',*,*,#151,.F.);
#242=ORIENTED_EDGE('',*,*,#157,.F.);
#243=ORIENTED_EDGE('',*,*,#150,.T.);
#244=ORIENTED_EDGE('',*,*,#144,.F.);
#245=ORIENTED_EDGE('',*,*,#165,.F.);
#246=ORIENTED_EDGE('',*,*,#162,.F.);
#247=PLANE('',#285);
#248=PLANE('',#314);
#249=PLANE('',#315);
#250=PLANE('',#316);
#251=PLANE('',#317);
#252=PLANE('',#318);
#253=ADVANCED_FACE('',(#27),#247,.T.);
#254=ADVANCED_FACE('',(#28),#23,.T.);
#255=ADVANCED_FACE('',(#29),#15,.T.);
#256=ADVANCED_FACE('',(#30),#24,.T.);
#257=ADVANCED_FACE('',(#31),#16,.T.);
#258=ADVANCED_FACE('',(#32),#17,.T.);
#259=ADVANCED_FACE('',(#33),#25,.T.);
#260=ADVANCED_FACE('',(#34),#18,.T.);
#261=ADVANCED_FACE('',(#35),#19,.T.);
#262=ADVANCED_FACE('',(#36),#26,.T.);
#263=ADVANCED_FACE('',(#37),#20,.T.);
#264=ADVANCED_FACE('',(#38),#21,.T.);
#265=ADVANCED_FACE('',(#39),#22,.T.);
#266=ADVANCED_FACE('',(#40),#248,.F.);
#267=ADVANCED_FACE('',(#41),#249,.F.);
#268=ADVANCED_FACE('',(#42),#250,.F.);
#269=ADVANCED_FACE('',(#43),#251,.F.);
#270=ADVANCED_FACE('',(#44),#252,.F.);
#271=CLOSED_SHELL('',(#253,#254,#255,#256,#257,#258,#259,#260,#261,#262,
#263,#264,#265,#266,#267,#268,#269,#270));
#272=DERIVED_UNIT_ELEMENT(#274,1.);
#273=DERIVED_UNIT_ELEMENT(#489,-3.);
#274=(
MASS_UNIT()
NAMED_UNIT(*)
SI_UNIT(.KILO.,.GRAM.)
);
#275=DERIVED_UNIT((#272,#273));
#276=MEASURE_REPRESENTATION_ITEM('density measure',
POSITIVE_RATIO_MEASURE(1060.),#275);
#277=PROPERTY_DEFINITION_REPRESENTATION(#282,#279);
#278=PROPERTY_DEFINITION_REPRESENTATION(#283,#280);
#279=REPRESENTATION('material name',(#281),#486);
#280=REPRESENTATION('density',(#276),#486);
#281=DESCRIPTIVE_REPRESENTATION_ITEM('Plastique ABS','Plastique ABS');
#282=PROPERTY_DEFINITION('material property','material name',#496);
#283=PROPERTY_DEFINITION('material property','density of part',#496);
#284=AXIS2_PLACEMENT_3D('',#409,#319,#320);
#285=AXIS2_PLACEMENT_3D('',#410,#321,#322);
#286=AXIS2_PLACEMENT_3D('',#413,#323,#324);
#287=AXIS2_PLACEMENT_3D('',#417,#326,#327);
#288=AXIS2_PLACEMENT_3D('',#421,#329,#330);
#289=AXIS2_PLACEMENT_3D('',#425,#332,#333);
#290=AXIS2_PLACEMENT_3D('',#427,#335,#336);
#291=AXIS2_PLACEMENT_3D('',#430,#337,#338);
#292=AXIS2_PLACEMENT_3D('',#432,#339,#340);
#293=AXIS2_PLACEMENT_3D('',#433,#341,#342);
#294=AXIS2_PLACEMENT_3D('',#434,#343,#344);
#295=AXIS2_PLACEMENT_3D('',#437,#347,#348);
#296=AXIS2_PLACEMENT_3D('',#440,#349,#350);
#297=AXIS2_PLACEMENT_3D('',#442,#351,#352);
#298=AXIS2_PLACEMENT_3D('',#443,#353,#354);
#299=AXIS2_PLACEMENT_3D('',#444,#355,#356);
#300=AXIS2_PLACEMENT_3D('',#447,#359,#360);
#301=AXIS2_PLACEMENT_3D('',#450,#363,#364);
#302=AXIS2_PLACEMENT_3D('',#453,#365,#366);
#303=AXIS2_PLACEMENT_3D('',#455,#367,#368);
#304=AXIS2_PLACEMENT_3D('',#456,#369,#370);
#305=AXIS2_PLACEMENT_3D('',#457,#371,#372);
#306=AXIS2_PLACEMENT_3D('',#460,#375,#376);
#307=AXIS2_PLACEMENT_3D('',#463,#379,#380);
#308=AXIS2_PLACEMENT_3D('',#466,#381,#382);
#309=AXIS2_PLACEMENT_3D('',#468,#383,#384);
#310=AXIS2_PLACEMENT_3D('',#469,#385,#386);
#311=AXIS2_PLACEMENT_3D('',#470,#387,#388);
#312=AXIS2_PLACEMENT_3D('',#473,#391,#392);
#313=AXIS2_PLACEMENT_3D('',#476,#395,#396);
#314=AXIS2_PLACEMENT_3D('',#479,#399,#400);
#315=AXIS2_PLACEMENT_3D('',#480,#401,#402);
#316=AXIS2_PLACEMENT_3D('',#481,#403,#404);
#317=AXIS2_PLACEMENT_3D('',#482,#405,#406);
#318=AXIS2_PLACEMENT_3D('',#483,#407,#408);
#319=DIRECTION('axis',(0.,0.,1.));
#320=DIRECTION('refdir',(1.,0.,0.));
#321=DIRECTION('center_axis',(0.,0.,1.));
#322=DIRECTION('ref_axis',(1.,0.,0.));
#323=DIRECTION('center_axis',(0.,0.,1.));
#324=DIRECTION('ref_axis',(-0.707106781186548,-0.707106781186547,0.));
#325=DIRECTION('',(1.,-4.70433485010659E-17,0.));
#326=DIRECTION('center_axis',(0.,0.,1.));
#327=DIRECTION('ref_axis',(0.707106781186548,-0.707106781186547,0.));
#328=DIRECTION('',(1.98254111540207E-16,1.,0.));
#329=DIRECTION('center_axis',(0.,0.,1.));
#330=DIRECTION('ref_axis',(0.707106781186547,0.707106781186549,0.));
#331=DIRECTION('',(-1.,4.70433485010659E-17,0.));
#332=DIRECTION('center_axis',(0.,0.,1.));
#333=DIRECTION('ref_axis',(-0.707106781186548,0.707106781186547,0.));
#334=DIRECTION('',(0.,-1.,0.));
#335=DIRECTION('center_axis',(0.408248290463863,-0.408248290463862,-0.816496580927727));
#336=DIRECTION('ref_axis',(-0.577350269189627,0.577350269189625,-0.577350269189625));
#337=DIRECTION('center_axis',(0.,1.,-4.62592926927149E-16));
#338=DIRECTION('ref_axis',(-1.,0.,0.));
#339=DIRECTION('center_axis',(0.,0.,-1.));
#340=DIRECTION('ref_axis',(0.,1.,0.));
#341=DIRECTION('center_axis',(-1.,0.,0.));
#342=DIRECTION('ref_axis',(0.,0.,-1.));
#343=DIRECTION('center_axis',(0.,0.,-1.));
#344=DIRECTION('ref_axis',(-0.707106781186548,0.707106781186547,0.));
#345=DIRECTION('',(0.,0.,1.));
#346=DIRECTION('',(0.,0.,1.));
#347=DIRECTION('center_axis',(0.408248290463862,0.408248290463863,-0.816496580927726));
#348=DIRECTION('ref_axis',(-0.577350269189627,-0.577350269189626,-0.577350269189625));
#349=DIRECTION('center_axis',(-1.,0.,0.));
#350=DIRECTION('ref_axis',(0.,-1.,0.));
#351=DIRECTION('center_axis',(0.,0.,-1.));
#352=DIRECTION('ref_axis',(-1.,0.,0.));
#353=DIRECTION('center_axis',(0.,-1.,0.));
#354=DIRECTION('ref_axis',(0.,0.,-1.));
#355=DIRECTION('center_axis',(0.,0.,-1.));
#356=DIRECTION('ref_axis',(-0.707106781186548,-0.707106781186547,0.));
#357=DIRECTION('',(0.,0.,1.));
#358=DIRECTION('',(0.,0.,1.));
#359=DIRECTION('center_axis',(0.,-1.,0.));
#360=DIRECTION('ref_axis',(-0.707106781186547,0.,-0.707106781186547));
#361=DIRECTION('',(0.,1.,0.));
#362=DIRECTION('',(0.,-1.,0.));
#363=DIRECTION('center_axis',(-0.816496580927726,0.408248290463863,-0.408248290463862));
#364=DIRECTION('ref_axis',(0.577350269189626,0.577350269189626,-0.577350269189626));
#365=DIRECTION('center_axis',(0.,1.,0.));
#366=DIRECTION('ref_axis',(0.,0.,-1.));
#367=DIRECTION('center_axis',(1.,0.,0.));
#368=DIRECTION('ref_axis',(0.,1.,0.));
#369=DIRECTION('center_axis',(0.,0.,-1.));
#370=DIRECTION('ref_axis',(1.,0.,0.));
#371=DIRECTION('center_axis',(-1.,4.70433485010659E-17,0.));
#372=DIRECTION('ref_axis',(0.,0.707106781186547,-0.707106781186548));
#373=DIRECTION('',(1.,-4.70433485010659E-17,0.));
#374=DIRECTION('',(-1.,4.70433485010659E-17,0.));
#375=DIRECTION('center_axis',(0.,0.,-1.));
#376=DIRECTION('ref_axis',(0.707106781186547,0.707106781186549,0.));
#377=DIRECTION('',(0.,0.,1.));
#378=DIRECTION('',(0.,0.,1.));
#379=DIRECTION('center_axis',(-0.816496580927726,-0.408248290463863,-0.408248290463863));
#380=DIRECTION('ref_axis',(0.577350269189626,-0.577350269189626,-0.577350269189626));
#381=DIRECTION('center_axis',(0.,0.,-1.));
#382=DIRECTION('ref_axis',(0.,-1.,0.));
#383=DIRECTION('center_axis',(1.,0.,0.));
#384=DIRECTION('ref_axis',(0.,0.,-1.));
#385=DIRECTION('center_axis',(0.,-1.,-4.62592926927149E-16));
#386=DIRECTION('ref_axis',(1.,0.,0.));
#387=DIRECTION('center_axis',(1.,-4.70433485010659E-17,0.));
#388=DIRECTION('ref_axis',(0.,-0.707106781186547,-0.707106781186548));
#389=DIRECTION('',(-1.,4.70433485010659E-17,0.));
#390=DIRECTION('',(1.,-4.70433485010659E-17,0.));
#391=DIRECTION('center_axis',(1.98254111540207E-16,1.,0.));
#392=DIRECTION('ref_axis',(0.707106781186547,0.,-0.707106781186547));
#393=DIRECTION('',(-1.98254111540207E-16,-1.,0.));
#394=DIRECTION('',(1.98254111540207E-16,1.,0.));
#395=DIRECTION('center_axis',(0.,0.,-1.));
#396=DIRECTION('ref_axis',(0.707106781186548,-0.707106781186547,0.));
#397=DIRECTION('',(0.,0.,1.));
#398=DIRECTION('',(0.,0.,1.));
#399=DIRECTION('center_axis',(4.70433485010659E-17,1.,0.));
#400=DIRECTION('ref_axis',(1.,-4.70433485010659E-17,0.));
#401=DIRECTION('center_axis',(-1.,1.98254111540207E-16,0.));
#402=DIRECTION('ref_axis',(1.98254111540207E-16,1.,0.));
#403=DIRECTION('center_axis',(0.,0.,1.));
#404=DIRECTION('ref_axis',(1.,0.,0.));
#405=DIRECTION('center_axis',(1.,0.,0.));
#406=DIRECTION('ref_axis',(0.,-1.,0.));
#407=DIRECTION('center_axis',(-4.70433485010659E-17,-1.,0.));
#408=DIRECTION('ref_axis',(-1.,4.70433485010659E-17,0.));
#409=CARTESIAN_POINT('',(0.,0.,0.));
#410=CARTESIAN_POINT('Origin',(-5.55111512312578E-16,2.77555756156289E-16,
-0.9));
#411=CARTESIAN_POINT('',(-2.95,-1.1,-0.9));
#412=CARTESIAN_POINT('',(-2.65,-1.4,-0.9));
#413=CARTESIAN_POINT('Origin',(-2.65,-1.1,-0.9));
#414=CARTESIAN_POINT('',(2.65,-1.4,-0.9));
#415=CARTESIAN_POINT('',(2.95,-1.4,-0.9));
#416=CARTESIAN_POINT('',(2.95,-1.1,-0.9));
#417=CARTESIAN_POINT('Origin',(2.65,-1.1,-0.9));
#418=CARTESIAN_POINT('',(2.95,1.1,-0.9));
#419=CARTESIAN_POINT('',(2.95,1.4,-0.9));
#420=CARTESIAN_POINT('',(2.65,1.4,-0.9));
#421=CARTESIAN_POINT('Origin',(2.65,1.1,-0.9));
#422=CARTESIAN_POINT('',(-2.65,1.4,-0.9));
#423=CARTESIAN_POINT('',(-2.95,1.4,-0.9));
#424=CARTESIAN_POINT('',(-2.95,1.1,-0.9));
#425=CARTESIAN_POINT('Origin',(-2.65,1.1,-0.9));
#426=CARTESIAN_POINT('',(-2.95,-1.4,-0.9));
#427=CARTESIAN_POINT('Origin',(-2.65,1.1,-3.3));
#428=CARTESIAN_POINT('',(-2.95,1.1,-3.3));
#429=CARTESIAN_POINT('',(-2.65,1.1,-3.6));
#430=CARTESIAN_POINT('Origin',(-2.65,1.1,-3.3));
#431=CARTESIAN_POINT('',(-2.65,1.4,-3.3));
#432=CARTESIAN_POINT('Origin',(-2.65,1.1,-3.3));
#433=CARTESIAN_POINT('Origin',(-2.65,1.1,-3.3));
#434=CARTESIAN_POINT('Origin',(-2.65,1.1,-1.6));
#435=CARTESIAN_POINT('',(-2.65,1.4,-1.6));
#436=CARTESIAN_POINT('',(-2.95,1.1,-1.6));
#437=CARTESIAN_POINT('Origin',(-2.65,-1.1,-3.3));
#438=CARTESIAN_POINT('',(-2.65,-1.4,-3.3));
#439=CARTESIAN_POINT('',(-2.65,-1.1,-3.6));
#440=CARTESIAN_POINT('Origin',(-2.65,-1.1,-3.3));
#441=CARTESIAN_POINT('',(-2.95,-1.1,-3.3));
#442=CARTESIAN_POINT('Origin',(-2.65,-1.1,-3.3));
#443=CARTESIAN_POINT('Origin',(-2.65,-1.1,-3.3));
#444=CARTESIAN_POINT('Origin',(-2.65,-1.1,-1.6));
#445=CARTESIAN_POINT('',(-2.95,-1.1,-1.6));
#446=CARTESIAN_POINT('',(-2.65,-1.4,-1.6));
#447=CARTESIAN_POINT('Origin',(-2.65,0.7,-3.3));
#448=CARTESIAN_POINT('',(-2.95,0.7,-3.3));
#449=CARTESIAN_POINT('',(-2.65,0.7,-3.6));
#450=CARTESIAN_POINT('Origin',(2.65,1.1,-3.3));
#451=CARTESIAN_POINT('',(2.65,1.1,-3.6));
#452=CARTESIAN_POINT('',(2.95,1.1,-3.3));
#453=CARTESIAN_POINT('Origin',(2.65,1.1,-3.3));
#454=CARTESIAN_POINT('',(2.65,1.4,-3.3));
#455=CARTESIAN_POINT('Origin',(2.65,1.1,-3.3));
#456=CARTESIAN_POINT('Origin',(2.65,1.1,-3.3));
#457=CARTESIAN_POINT('Origin',(1.475,1.1,-3.3));
#458=CARTESIAN_POINT('',(1.475,1.4,-3.3));
#459=CARTESIAN_POINT('',(1.475,1.1,-3.6));
#460=CARTESIAN_POINT('Origin',(2.65,1.1,-1.6));
#461=CARTESIAN_POINT('',(2.95,1.1,-1.6));
#462=CARTESIAN_POINT('',(2.65,1.4,-1.6));
#463=CARTESIAN_POINT('Origin',(2.65,-1.1,-3.3));
#464=CARTESIAN_POINT('',(2.65,-1.4,-3.3));
#465=CARTESIAN_POINT('',(2.95,-1.1,-3.3));
#466=CARTESIAN_POINT('Origin',(2.65,-1.1,-3.3));
#467=CARTESIAN_POINT('',(2.65,-1.1,-3.6));
#468=CARTESIAN_POINT('Origin',(2.65,-1.1,-3.3));
#469=CARTESIAN_POINT('Origin',(2.65,-1.1,-3.3));
#470=CARTESIAN_POINT('Origin',(-1.475,-1.1,-3.3));
#471=CARTESIAN_POINT('',(-1.475,-1.4,-3.3));
#472=CARTESIAN_POINT('',(-1.475,-1.1,-3.6));
#473=CARTESIAN_POINT('Origin',(2.65,-0.7,-3.3));
#474=CARTESIAN_POINT('',(2.95,-0.7,-3.3));
#475=CARTESIAN_POINT('',(2.65,-0.7,-3.6));
#476=CARTESIAN_POINT('Origin',(2.65,-1.1,-1.6));
#477=CARTESIAN_POINT('',(2.65,-1.4,-1.6));
#478=CARTESIAN_POINT('',(2.95,-1.1,-1.6));
#479=CARTESIAN_POINT('Origin',(-2.95,-1.4,-1.6));
#480=CARTESIAN_POINT('Origin',(2.95,-1.4,-1.6));
#481=CARTESIAN_POINT('Origin',(-5.55111512312578E-16,2.77555756156289E-16,
-3.6));
#482=CARTESIAN_POINT('Origin',(-2.95,1.4,-1.6));
#483=CARTESIAN_POINT('Origin',(2.95,1.4,-1.6));
#484=UNCERTAINTY_MEASURE_WITH_UNIT(LENGTH_MEASURE(0.01),#488,
'DISTANCE_ACCURACY_VALUE',
'Maximum model space distance between geometric entities at asserted c
onnectivities');
#485=UNCERTAINTY_MEASURE_WITH_UNIT(LENGTH_MEASURE(0.01),#488,
'DISTANCE_ACCURACY_VALUE',
'Maximum model space distance between geometric entities at asserted c
onnectivities');
#486=(
GEOMETRIC_REPRESENTATION_CONTEXT(3)
GLOBAL_UNCERTAINTY_ASSIGNED_CONTEXT((#484))
GLOBAL_UNIT_ASSIGNED_CONTEXT((#488,#490,#491))
REPRESENTATION_CONTEXT('','3D')
);
#487=(
GEOMETRIC_REPRESENTATION_CONTEXT(3)
GLOBAL_UNCERTAINTY_ASSIGNED_CONTEXT((#485))
GLOBAL_UNIT_ASSIGNED_CONTEXT((#488,#490,#491))
REPRESENTATION_CONTEXT('','3D')
);
#488=(
LENGTH_UNIT()
NAMED_UNIT(*)
SI_UNIT(.MILLI.,.METRE.)
);
#489=(
LENGTH_UNIT()
NAMED_UNIT(*)
SI_UNIT($,.METRE.)
);
#490=(
NAMED_UNIT(*)
PLANE_ANGLE_UNIT()
SI_UNIT($,.RADIAN.)
);
#491=(
NAMED_UNIT(*)
SI_UNIT($,.STERADIAN.)
SOLID_ANGLE_UNIT()
);
#492=SHAPE_DEFINITION_REPRESENTATION(#493,#494);
#493=PRODUCT_DEFINITION_SHAPE('',$,#496);
#494=SHAPE_REPRESENTATION('',(#284),#486);
#495=PRODUCT_DEFINITION_CONTEXT('part definition',#500,'design');
#496=PRODUCT_DEFINITION('Diode-123','Diode-123 v9',#497,#495);
#497=PRODUCT_DEFINITION_FORMATION('',$,#502);
#498=PRODUCT_RELATED_PRODUCT_CATEGORY('Diode-123 v9','Diode-123 v9',(#502));
#499=APPLICATION_PROTOCOL_DEFINITION('international standard',
'automotive_design',2009,#500);
#500=APPLICATION_CONTEXT(
'Core Data for Automotive Mechanical Design Process');
#501=PRODUCT_CONTEXT('part definition',#500,'mechanical');
#502=PRODUCT('Diode-123','Diode-123 v9',$,(#501));
#503=PRESENTATION_STYLE_ASSIGNMENT((#505));
#504=PRESENTATION_STYLE_ASSIGNMENT((#506));
#505=SURFACE_STYLE_USAGE(.BOTH.,#507);
#506=SURFACE_STYLE_USAGE(.BOTH.,#508);
#507=SURFACE_SIDE_STYLE('',(#509));
#508=SURFACE_SIDE_STYLE('',(#510));
#509=SURFACE_STYLE_FILL_AREA(#511);
#510=SURFACE_STYLE_FILL_AREA(#512);
#511=FILL_AREA_STYLE('ABS (blanc)',(#513));
#512=FILL_AREA_STYLE('ABS-orange',(#514));
#513=FILL_AREA_STYLE_COLOUR('ABS (blanc)',#515);
#514=FILL_AREA_STYLE_COLOUR('ABS-orange',#516);
#515=COLOUR_RGB('ABS (blanc)',0.964705882352941,0.964705882352941,0.952941176470588);
#516=COLOUR_RGB('ABS-orange',1.,0.317647058823529,0.);
ENDSEC;
END-ISO-10303-21;
