ISO-10303-21;
HEADER;
/* Generated by software containing ST-Developer
 * from STEP Tools, Inc. (www.steptools.com) 
 */

FILE_DESCRIPTION(
/* description */ (''),
/* implementation_level */ '2;1');

FILE_NAME(
/* name */ 'MCU-rp2040-TOP-FINAL.step',
/* time_stamp */ '2025-09-01T17:17:03+02:00',
/* author */ (''),
/* organization */ (''),
/* preprocessor_version */ 'ST-DEVELOPER v20.1',
/* originating_system */ 'Autodesk Translation Framework v14.10.0.0',
/* authorisation */ '');

FILE_SCHEMA (('AUTOMOTIVE_DESIGN { 1 0 10303 214 3 1 1 }'));
ENDSEC;

DATA;
#10=MECHANICAL_DESIGN_GEOMETRIC_PRESENTATION_REPRESENTATION('',(#33,#34,
#35,#36),#1027);
#11=SHAPE_REPRESENTATION_RELATIONSHIP('SRR','None',#1034,#12);
#12=ADVANCED_BREP_SHAPE_REPRESENTATION('',(#37,#38,#39,#40),#1026);
#13=CYLINDRICAL_SURFACE('',#651,5.25);
#14=CYLINDRICAL_SURFACE('',#654,1.625);
#15=CYLINDRICAL_SURFACE('',#659,1.625);
#16=CYLINDRICAL_SURFACE('',#661,0.789462863952831);
#17=CYLINDRICAL_SURFACE('',#664,0.789462863952831);
#18=FACE_BOUND('',#84,.T.);
#19=FACE_BOUND('',#103,.T.);
#20=FACE_BOUND('',#104,.T.);
#21=FACE_BOUND('',#106,.T.);
#22=FACE_BOUND('',#107,.T.);
#23=CIRCLE('',#648,5.25);
#24=CIRCLE('',#649,1.625);
#25=CIRCLE('',#650,1.625);
#26=CIRCLE('',#652,5.25);
#27=CIRCLE('',#655,1.625);
#28=CIRCLE('',#658,1.625);
#29=CIRCLE('',#662,0.789462863952831);
#30=CIRCLE('',#663,0.789462863952831);
#31=CIRCLE('',#665,0.789462863952831);
#32=CIRCLE('',#666,0.789462863952831);
#33=STYLED_ITEM('',(#1047),#37);
#34=STYLED_ITEM('',(#1043),#38);
#35=STYLED_ITEM('',(#1048),#39);
#36=STYLED_ITEM('',(#1049),#40);
#37=MANIFOLD_SOLID_BREP('Corps64',#624);
#38=MANIFOLD_SOLID_BREP('Corps65',#625);
#39=MANIFOLD_SOLID_BREP('Corps66',#626);
#40=MANIFOLD_SOLID_BREP('Corps67',#627);
#41=FACE_OUTER_BOUND('',#77,.T.);
#42=FACE_OUTER_BOUND('',#78,.T.);
#43=FACE_OUTER_BOUND('',#79,.T.);
#44=FACE_OUTER_BOUND('',#80,.T.);
#45=FACE_OUTER_BOUND('',#81,.T.);
#46=FACE_OUTER_BOUND('',#82,.T.);
#47=FACE_OUTER_BOUND('',#83,.T.);
#48=FACE_OUTER_BOUND('',#85,.T.);
#49=FACE_OUTER_BOUND('',#86,.T.);
#50=FACE_OUTER_BOUND('',#87,.T.);
#51=FACE_OUTER_BOUND('',#88,.T.);
#52=FACE_OUTER_BOUND('',#89,.T.);
#53=FACE_OUTER_BOUND('',#90,.T.);
#54=FACE_OUTER_BOUND('',#91,.T.);
#55=FACE_OUTER_BOUND('',#92,.T.);
#56=FACE_OUTER_BOUND('',#93,.T.);
#57=FACE_OUTER_BOUND('',#94,.T.);
#58=FACE_OUTER_BOUND('',#95,.T.);
#59=FACE_OUTER_BOUND('',#96,.T.);
#60=FACE_OUTER_BOUND('',#97,.T.);
#61=FACE_OUTER_BOUND('',#98,.T.);
#62=FACE_OUTER_BOUND('',#99,.T.);
#63=FACE_OUTER_BOUND('',#100,.T.);
#64=FACE_OUTER_BOUND('',#101,.T.);
#65=FACE_OUTER_BOUND('',#102,.T.);
#66=FACE_OUTER_BOUND('',#105,.T.);
#67=FACE_OUTER_BOUND('',#108,.T.);
#68=FACE_OUTER_BOUND('',#109,.T.);
#69=FACE_OUTER_BOUND('',#110,.T.);
#70=FACE_OUTER_BOUND('',#111,.T.);
#71=FACE_OUTER_BOUND('',#112,.T.);
#72=FACE_OUTER_BOUND('',#113,.T.);
#73=FACE_OUTER_BOUND('',#114,.T.);
#74=FACE_OUTER_BOUND('',#115,.T.);
#75=FACE_OUTER_BOUND('',#116,.T.);
#76=FACE_OUTER_BOUND('',#117,.T.);
#77=EDGE_LOOP('',(#395,#396,#397,#398));
#78=EDGE_LOOP('',(#399,#400,#401,#402));
#79=EDGE_LOOP('',(#403,#404,#405,#406));
#80=EDGE_LOOP('',(#407,#408,#409,#410));
#81=EDGE_LOOP('',(#411,#412,#413,#414));
#82=EDGE_LOOP('',(#415,#416,#417,#418));
#83=EDGE_LOOP('',(#419));
#84=EDGE_LOOP('',(#420,#421,#422,#423));
#85=EDGE_LOOP('',(#424,#425,#426,#427));
#86=EDGE_LOOP('',(#428));
#87=EDGE_LOOP('',(#429,#430,#431,#432));
#88=EDGE_LOOP('',(#433,#434,#435,#436));
#89=EDGE_LOOP('',(#437,#438,#439,#440));
#90=EDGE_LOOP('',(#441,#442,#443,#444));
#91=EDGE_LOOP('',(#445,#446,#447,#448));
#92=EDGE_LOOP('',(#449,#450,#451,#452));
#93=EDGE_LOOP('',(#453,#454,#455,#456));
#94=EDGE_LOOP('',(#457,#458,#459,#460));
#95=EDGE_LOOP('',(#461,#462,#463,#464));
#96=EDGE_LOOP('',(#465,#466,#467,#468));
#97=EDGE_LOOP('',(#469,#470,#471,#472));
#98=EDGE_LOOP('',(#473,#474,#475,#476));
#99=EDGE_LOOP('',(#477,#478,#479,#480));
#100=EDGE_LOOP('',(#481,#482,#483,#484));
#101=EDGE_LOOP('',(#485,#486,#487,#488));
#102=EDGE_LOOP('',(#489,#490,#491,#492,#493,#494,#495,#496));
#103=EDGE_LOOP('',(#497));
#104=EDGE_LOOP('',(#498));
#105=EDGE_LOOP('',(#499,#500,#501,#502,#503,#504,#505,#506));
#106=EDGE_LOOP('',(#507));
#107=EDGE_LOOP('',(#508));
#108=EDGE_LOOP('',(#509,#510,#511,#512));
#109=EDGE_LOOP('',(#513,#514,#515,#516));
#110=EDGE_LOOP('',(#517,#518,#519,#520));
#111=EDGE_LOOP('',(#521,#522,#523,#524));
#112=EDGE_LOOP('',(#525,#526,#527,#528));
#113=EDGE_LOOP('',(#529,#530,#531,#532));
#114=EDGE_LOOP('',(#533,#534,#535,#536));
#115=EDGE_LOOP('',(#537,#538,#539,#540));
#116=EDGE_LOOP('',(#541,#542,#543,#544,#545,#546,#547,#548));
#117=EDGE_LOOP('',(#549,#550,#551,#552,#553,#554,#555,#556));
#118=LINE('',#856,#189);
#119=LINE('',#858,#190);
#120=LINE('',#860,#191);
#121=LINE('',#861,#192);
#122=LINE('',#864,#193);
#123=LINE('',#866,#194);
#124=LINE('',#867,#195);
#125=LINE('',#870,#196);
#126=LINE('',#872,#197);
#127=LINE('',#873,#198);
#128=LINE('',#875,#199);
#129=LINE('',#876,#200);
#130=LINE('',#886,#201);
#131=LINE('',#889,#202);
#132=LINE('',#893,#203);
#133=LINE('',#899,#204);
#134=LINE('',#900,#205);
#135=LINE('',#903,#206);
#136=LINE('',#904,#207);
#137=LINE('',#907,#208);
#138=LINE('',#910,#209);
#139=LINE('',#916,#210);
#140=LINE('',#922,#211);
#141=LINE('',#927,#212);
#142=LINE('',#929,#213);
#143=LINE('',#931,#214);
#144=LINE('',#932,#215);
#145=LINE('',#935,#216);
#146=LINE('',#937,#217);
#147=LINE('',#938,#218);
#148=LINE('',#941,#219);
#149=LINE('',#943,#220);
#150=LINE('',#944,#221);
#151=LINE('',#947,#222);
#152=LINE('',#949,#223);
#153=LINE('',#950,#224);
#154=LINE('',#953,#225);
#155=LINE('',#955,#226);
#156=LINE('',#956,#227);
#157=LINE('',#959,#228);
#158=LINE('',#961,#229);
#159=LINE('',#962,#230);
#160=LINE('',#965,#231);
#161=LINE('',#967,#232);
#162=LINE('',#968,#233);
#163=LINE('',#970,#234);
#164=LINE('',#971,#235);
#165=LINE('',#977,#236);
#166=LINE('',#979,#237);
#167=LINE('',#981,#238);
#168=LINE('',#982,#239);
#169=LINE('',#985,#240);
#170=LINE('',#987,#241);
#171=LINE('',#988,#242);
#172=LINE('',#991,#243);
#173=LINE('',#993,#244);
#174=LINE('',#994,#245);
#175=LINE('',#997,#246);
#176=LINE('',#999,#247);
#177=LINE('',#1000,#248);
#178=LINE('',#1003,#249);
#179=LINE('',#1005,#250);
#180=LINE('',#1006,#251);
#181=LINE('',#1009,#252);
#182=LINE('',#1011,#253);
#183=LINE('',#1012,#254);
#184=LINE('',#1015,#255);
#185=LINE('',#1017,#256);
#186=LINE('',#1018,#257);
#187=LINE('',#1020,#258);
#188=LINE('',#1021,#259);
#189=VECTOR('',#691,10.);
#190=VECTOR('',#692,10.);
#191=VECTOR('',#693,10.);
#192=VECTOR('',#694,10.);
#193=VECTOR('',#697,10.);
#194=VECTOR('',#698,10.);
#195=VECTOR('',#699,10.);
#196=VECTOR('',#702,10.);
#197=VECTOR('',#703,10.);
#198=VECTOR('',#704,10.);
#199=VECTOR('',#707,10.);
#200=VECTOR('',#708,10.);
#201=VECTOR('',#719,10.);
#202=VECTOR('',#722,10.);
#203=VECTOR('',#727,5.25);
#204=VECTOR('',#734,10.);
#205=VECTOR('',#735,10.);
#206=VECTOR('',#738,10.);
#207=VECTOR('',#739,10.);
#208=VECTOR('',#742,10.);
#209=VECTOR('',#747,10.);
#210=VECTOR('',#754,0.789462863952831);
#211=VECTOR('',#761,0.789462863952831);
#212=VECTOR('',#766,10.);
#213=VECTOR('',#767,10.);
#214=VECTOR('',#768,10.);
#215=VECTOR('',#769,10.);
#216=VECTOR('',#772,10.);
#217=VECTOR('',#773,10.);
#218=VECTOR('',#774,10.);
#219=VECTOR('',#777,10.);
#220=VECTOR('',#778,10.);
#221=VECTOR('',#779,10.);
#222=VECTOR('',#782,10.);
#223=VECTOR('',#783,10.);
#224=VECTOR('',#784,10.);
#225=VECTOR('',#787,10.);
#226=VECTOR('',#788,10.);
#227=VECTOR('',#789,10.);
#228=VECTOR('',#792,10.);
#229=VECTOR('',#793,10.);
#230=VECTOR('',#794,10.);
#231=VECTOR('',#797,10.);
#232=VECTOR('',#798,10.);
#233=VECTOR('',#799,10.);
#234=VECTOR('',#802,10.);
#235=VECTOR('',#803,10.);
#236=VECTOR('',#810,10.);
#237=VECTOR('',#811,10.);
#238=VECTOR('',#812,10.);
#239=VECTOR('',#813,10.);
#240=VECTOR('',#816,10.);
#241=VECTOR('',#817,10.);
#242=VECTOR('',#818,10.);
#243=VECTOR('',#821,10.);
#244=VECTOR('',#822,10.);
#245=VECTOR('',#823,10.);
#246=VECTOR('',#826,10.);
#247=VECTOR('',#827,10.);
#248=VECTOR('',#828,10.);
#249=VECTOR('',#831,10.);
#250=VECTOR('',#832,10.);
#251=VECTOR('',#833,10.);
#252=VECTOR('',#836,10.);
#253=VECTOR('',#837,10.);
#254=VECTOR('',#838,10.);
#255=VECTOR('',#841,10.);
#256=VECTOR('',#842,10.);
#257=VECTOR('',#843,10.);
#258=VECTOR('',#846,10.);
#259=VECTOR('',#847,10.);
#260=VERTEX_POINT('',#854);
#261=VERTEX_POINT('',#855);
#262=VERTEX_POINT('',#857);
#263=VERTEX_POINT('',#859);
#264=VERTEX_POINT('',#863);
#265=VERTEX_POINT('',#865);
#266=VERTEX_POINT('',#869);
#267=VERTEX_POINT('',#871);
#268=VERTEX_POINT('',#880);
#269=VERTEX_POINT('',#882);
#270=VERTEX_POINT('',#883);
#271=VERTEX_POINT('',#885);
#272=VERTEX_POINT('',#887);
#273=VERTEX_POINT('',#891);
#274=VERTEX_POINT('',#896);
#275=VERTEX_POINT('',#897);
#276=VERTEX_POINT('',#902);
#277=VERTEX_POINT('',#906);
#278=VERTEX_POINT('',#913);
#279=VERTEX_POINT('',#915);
#280=VERTEX_POINT('',#919);
#281=VERTEX_POINT('',#921);
#282=VERTEX_POINT('',#925);
#283=VERTEX_POINT('',#926);
#284=VERTEX_POINT('',#928);
#285=VERTEX_POINT('',#930);
#286=VERTEX_POINT('',#934);
#287=VERTEX_POINT('',#936);
#288=VERTEX_POINT('',#940);
#289=VERTEX_POINT('',#942);
#290=VERTEX_POINT('',#946);
#291=VERTEX_POINT('',#948);
#292=VERTEX_POINT('',#952);
#293=VERTEX_POINT('',#954);
#294=VERTEX_POINT('',#958);
#295=VERTEX_POINT('',#960);
#296=VERTEX_POINT('',#964);
#297=VERTEX_POINT('',#966);
#298=VERTEX_POINT('',#975);
#299=VERTEX_POINT('',#976);
#300=VERTEX_POINT('',#978);
#301=VERTEX_POINT('',#980);
#302=VERTEX_POINT('',#984);
#303=VERTEX_POINT('',#986);
#304=VERTEX_POINT('',#990);
#305=VERTEX_POINT('',#992);
#306=VERTEX_POINT('',#996);
#307=VERTEX_POINT('',#998);
#308=VERTEX_POINT('',#1002);
#309=VERTEX_POINT('',#1004);
#310=VERTEX_POINT('',#1008);
#311=VERTEX_POINT('',#1010);
#312=VERTEX_POINT('',#1014);
#313=VERTEX_POINT('',#1016);
#314=EDGE_CURVE('',#260,#261,#118,.T.);
#315=EDGE_CURVE('',#260,#262,#119,.T.);
#316=EDGE_CURVE('',#263,#262,#120,.T.);
#317=EDGE_CURVE('',#261,#263,#121,.T.);
#318=EDGE_CURVE('',#261,#264,#122,.T.);
#319=EDGE_CURVE('',#265,#263,#123,.T.);
#320=EDGE_CURVE('',#264,#265,#124,.T.);
#321=EDGE_CURVE('',#264,#266,#125,.T.);
#322=EDGE_CURVE('',#267,#265,#126,.T.);
#323=EDGE_CURVE('',#266,#267,#127,.T.);
#324=EDGE_CURVE('',#266,#260,#128,.T.);
#325=EDGE_CURVE('',#262,#267,#129,.T.);
#326=EDGE_CURVE('',#268,#268,#23,.T.);
#327=EDGE_CURVE('',#269,#270,#24,.T.);
#328=EDGE_CURVE('',#271,#269,#130,.T.);
#329=EDGE_CURVE('',#272,#271,#25,.T.);
#330=EDGE_CURVE('',#270,#272,#131,.T.);
#331=EDGE_CURVE('',#273,#273,#26,.T.);
#332=EDGE_CURVE('',#273,#268,#132,.T.);
#333=EDGE_CURVE('',#274,#275,#27,.T.);
#334=EDGE_CURVE('',#275,#269,#133,.T.);
#335=EDGE_CURVE('',#270,#274,#134,.T.);
#336=EDGE_CURVE('',#275,#276,#135,.T.);
#337=EDGE_CURVE('',#271,#276,#136,.T.);
#338=EDGE_CURVE('',#277,#274,#137,.T.);
#339=EDGE_CURVE('',#276,#277,#28,.T.);
#340=EDGE_CURVE('',#277,#272,#138,.T.);
#341=EDGE_CURVE('',#278,#278,#29,.T.);
#342=EDGE_CURVE('',#278,#279,#139,.T.);
#343=EDGE_CURVE('',#279,#279,#30,.T.);
#344=EDGE_CURVE('',#280,#280,#31,.T.);
#345=EDGE_CURVE('',#280,#281,#140,.T.);
#346=EDGE_CURVE('',#281,#281,#32,.T.);
#347=EDGE_CURVE('',#282,#283,#141,.T.);
#348=EDGE_CURVE('',#282,#284,#142,.T.);
#349=EDGE_CURVE('',#285,#284,#143,.T.);
#350=EDGE_CURVE('',#283,#285,#144,.T.);
#351=EDGE_CURVE('',#283,#286,#145,.T.);
#352=EDGE_CURVE('',#287,#285,#146,.T.);
#353=EDGE_CURVE('',#286,#287,#147,.T.);
#354=EDGE_CURVE('',#286,#288,#148,.T.);
#355=EDGE_CURVE('',#289,#287,#149,.T.);
#356=EDGE_CURVE('',#288,#289,#150,.T.);
#357=EDGE_CURVE('',#288,#290,#151,.T.);
#358=EDGE_CURVE('',#291,#289,#152,.T.);
#359=EDGE_CURVE('',#290,#291,#153,.T.);
#360=EDGE_CURVE('',#290,#292,#154,.T.);
#361=EDGE_CURVE('',#293,#291,#155,.T.);
#362=EDGE_CURVE('',#292,#293,#156,.T.);
#363=EDGE_CURVE('',#294,#292,#157,.T.);
#364=EDGE_CURVE('',#295,#293,#158,.T.);
#365=EDGE_CURVE('',#294,#295,#159,.T.);
#366=EDGE_CURVE('',#296,#294,#160,.T.);
#367=EDGE_CURVE('',#297,#295,#161,.T.);
#368=EDGE_CURVE('',#296,#297,#162,.T.);
#369=EDGE_CURVE('',#282,#296,#163,.T.);
#370=EDGE_CURVE('',#284,#297,#164,.T.);
#371=EDGE_CURVE('',#298,#299,#165,.T.);
#372=EDGE_CURVE('',#298,#300,#166,.T.);
#373=EDGE_CURVE('',#301,#300,#167,.T.);
#374=EDGE_CURVE('',#299,#301,#168,.T.);
#375=EDGE_CURVE('',#299,#302,#169,.T.);
#376=EDGE_CURVE('',#303,#301,#170,.T.);
#377=EDGE_CURVE('',#302,#303,#171,.T.);
#378=EDGE_CURVE('',#304,#302,#172,.T.);
#379=EDGE_CURVE('',#305,#303,#173,.T.);
#380=EDGE_CURVE('',#304,#305,#174,.T.);
#381=EDGE_CURVE('',#306,#304,#175,.T.);
#382=EDGE_CURVE('',#307,#305,#176,.T.);
#383=EDGE_CURVE('',#306,#307,#177,.T.);
#384=EDGE_CURVE('',#308,#306,#178,.T.);
#385=EDGE_CURVE('',#309,#307,#179,.T.);
#386=EDGE_CURVE('',#308,#309,#180,.T.);
#387=EDGE_CURVE('',#310,#308,#181,.T.);
#388=EDGE_CURVE('',#311,#309,#182,.T.);
#389=EDGE_CURVE('',#310,#311,#183,.T.);
#390=EDGE_CURVE('',#312,#310,#184,.T.);
#391=EDGE_CURVE('',#313,#311,#185,.T.);
#392=EDGE_CURVE('',#312,#313,#186,.T.);
#393=EDGE_CURVE('',#312,#298,#187,.T.);
#394=EDGE_CURVE('',#300,#313,#188,.T.);
#395=ORIENTED_EDGE('',*,*,#314,.F.);
#396=ORIENTED_EDGE('',*,*,#315,.T.);
#397=ORIENTED_EDGE('',*,*,#316,.F.);
#398=ORIENTED_EDGE('',*,*,#317,.F.);
#399=ORIENTED_EDGE('',*,*,#318,.F.);
#400=ORIENTED_EDGE('',*,*,#317,.T.);
#401=ORIENTED_EDGE('',*,*,#319,.F.);
#402=ORIENTED_EDGE('',*,*,#320,.F.);
#403=ORIENTED_EDGE('',*,*,#321,.F.);
#404=ORIENTED_EDGE('',*,*,#320,.T.);
#405=ORIENTED_EDGE('',*,*,#322,.F.);
#406=ORIENTED_EDGE('',*,*,#323,.F.);
#407=ORIENTED_EDGE('',*,*,#324,.F.);
#408=ORIENTED_EDGE('',*,*,#323,.T.);
#409=ORIENTED_EDGE('',*,*,#325,.F.);
#410=ORIENTED_EDGE('',*,*,#315,.F.);
#411=ORIENTED_EDGE('',*,*,#325,.T.);
#412=ORIENTED_EDGE('',*,*,#322,.T.);
#413=ORIENTED_EDGE('',*,*,#319,.T.);
#414=ORIENTED_EDGE('',*,*,#316,.T.);
#415=ORIENTED_EDGE('',*,*,#324,.T.);
#416=ORIENTED_EDGE('',*,*,#314,.T.);
#417=ORIENTED_EDGE('',*,*,#318,.T.);
#418=ORIENTED_EDGE('',*,*,#321,.T.);
#419=ORIENTED_EDGE('',*,*,#326,.F.);
#420=ORIENTED_EDGE('',*,*,#327,.F.);
#421=ORIENTED_EDGE('',*,*,#328,.F.);
#422=ORIENTED_EDGE('',*,*,#329,.F.);
#423=ORIENTED_EDGE('',*,*,#330,.F.);
#424=ORIENTED_EDGE('',*,*,#331,.F.);
#425=ORIENTED_EDGE('',*,*,#332,.T.);
#426=ORIENTED_EDGE('',*,*,#326,.T.);
#427=ORIENTED_EDGE('',*,*,#332,.F.);
#428=ORIENTED_EDGE('',*,*,#331,.T.);
#429=ORIENTED_EDGE('',*,*,#333,.T.);
#430=ORIENTED_EDGE('',*,*,#334,.T.);
#431=ORIENTED_EDGE('',*,*,#327,.T.);
#432=ORIENTED_EDGE('',*,*,#335,.T.);
#433=ORIENTED_EDGE('',*,*,#334,.F.);
#434=ORIENTED_EDGE('',*,*,#336,.T.);
#435=ORIENTED_EDGE('',*,*,#337,.F.);
#436=ORIENTED_EDGE('',*,*,#328,.T.);
#437=ORIENTED_EDGE('',*,*,#333,.F.);
#438=ORIENTED_EDGE('',*,*,#338,.F.);
#439=ORIENTED_EDGE('',*,*,#339,.F.);
#440=ORIENTED_EDGE('',*,*,#336,.F.);
#441=ORIENTED_EDGE('',*,*,#339,.T.);
#442=ORIENTED_EDGE('',*,*,#340,.T.);
#443=ORIENTED_EDGE('',*,*,#329,.T.);
#444=ORIENTED_EDGE('',*,*,#337,.T.);
#445=ORIENTED_EDGE('',*,*,#335,.F.);
#446=ORIENTED_EDGE('',*,*,#330,.T.);
#447=ORIENTED_EDGE('',*,*,#340,.F.);
#448=ORIENTED_EDGE('',*,*,#338,.T.);
#449=ORIENTED_EDGE('',*,*,#341,.F.);
#450=ORIENTED_EDGE('',*,*,#342,.T.);
#451=ORIENTED_EDGE('',*,*,#343,.T.);
#452=ORIENTED_EDGE('',*,*,#342,.F.);
#453=ORIENTED_EDGE('',*,*,#344,.F.);
#454=ORIENTED_EDGE('',*,*,#345,.T.);
#455=ORIENTED_EDGE('',*,*,#346,.T.);
#456=ORIENTED_EDGE('',*,*,#345,.F.);
#457=ORIENTED_EDGE('',*,*,#347,.F.);
#458=ORIENTED_EDGE('',*,*,#348,.T.);
#459=ORIENTED_EDGE('',*,*,#349,.F.);
#460=ORIENTED_EDGE('',*,*,#350,.F.);
#461=ORIENTED_EDGE('',*,*,#351,.F.);
#462=ORIENTED_EDGE('',*,*,#350,.T.);
#463=ORIENTED_EDGE('',*,*,#352,.F.);
#464=ORIENTED_EDGE('',*,*,#353,.F.);
#465=ORIENTED_EDGE('',*,*,#354,.F.);
#466=ORIENTED_EDGE('',*,*,#353,.T.);
#467=ORIENTED_EDGE('',*,*,#355,.F.);
#468=ORIENTED_EDGE('',*,*,#356,.F.);
#469=ORIENTED_EDGE('',*,*,#357,.F.);
#470=ORIENTED_EDGE('',*,*,#356,.T.);
#471=ORIENTED_EDGE('',*,*,#358,.F.);
#472=ORIENTED_EDGE('',*,*,#359,.F.);
#473=ORIENTED_EDGE('',*,*,#360,.F.);
#474=ORIENTED_EDGE('',*,*,#359,.T.);
#475=ORIENTED_EDGE('',*,*,#361,.F.);
#476=ORIENTED_EDGE('',*,*,#362,.F.);
#477=ORIENTED_EDGE('',*,*,#363,.T.);
#478=ORIENTED_EDGE('',*,*,#362,.T.);
#479=ORIENTED_EDGE('',*,*,#364,.F.);
#480=ORIENTED_EDGE('',*,*,#365,.F.);
#481=ORIENTED_EDGE('',*,*,#366,.T.);
#482=ORIENTED_EDGE('',*,*,#365,.T.);
#483=ORIENTED_EDGE('',*,*,#367,.F.);
#484=ORIENTED_EDGE('',*,*,#368,.F.);
#485=ORIENTED_EDGE('',*,*,#369,.T.);
#486=ORIENTED_EDGE('',*,*,#368,.T.);
#487=ORIENTED_EDGE('',*,*,#370,.F.);
#488=ORIENTED_EDGE('',*,*,#348,.F.);
#489=ORIENTED_EDGE('',*,*,#370,.T.);
#490=ORIENTED_EDGE('',*,*,#367,.T.);
#491=ORIENTED_EDGE('',*,*,#364,.T.);
#492=ORIENTED_EDGE('',*,*,#361,.T.);
#493=ORIENTED_EDGE('',*,*,#358,.T.);
#494=ORIENTED_EDGE('',*,*,#355,.T.);
#495=ORIENTED_EDGE('',*,*,#352,.T.);
#496=ORIENTED_EDGE('',*,*,#349,.T.);
#497=ORIENTED_EDGE('',*,*,#344,.T.);
#498=ORIENTED_EDGE('',*,*,#341,.T.);
#499=ORIENTED_EDGE('',*,*,#369,.F.);
#500=ORIENTED_EDGE('',*,*,#347,.T.);
#501=ORIENTED_EDGE('',*,*,#351,.T.);
#502=ORIENTED_EDGE('',*,*,#354,.T.);
#503=ORIENTED_EDGE('',*,*,#357,.T.);
#504=ORIENTED_EDGE('',*,*,#360,.T.);
#505=ORIENTED_EDGE('',*,*,#363,.F.);
#506=ORIENTED_EDGE('',*,*,#366,.F.);
#507=ORIENTED_EDGE('',*,*,#346,.F.);
#508=ORIENTED_EDGE('',*,*,#343,.F.);
#509=ORIENTED_EDGE('',*,*,#371,.F.);
#510=ORIENTED_EDGE('',*,*,#372,.T.);
#511=ORIENTED_EDGE('',*,*,#373,.F.);
#512=ORIENTED_EDGE('',*,*,#374,.F.);
#513=ORIENTED_EDGE('',*,*,#375,.F.);
#514=ORIENTED_EDGE('',*,*,#374,.T.);
#515=ORIENTED_EDGE('',*,*,#376,.F.);
#516=ORIENTED_EDGE('',*,*,#377,.F.);
#517=ORIENTED_EDGE('',*,*,#378,.T.);
#518=ORIENTED_EDGE('',*,*,#377,.T.);
#519=ORIENTED_EDGE('',*,*,#379,.F.);
#520=ORIENTED_EDGE('',*,*,#380,.F.);
#521=ORIENTED_EDGE('',*,*,#381,.T.);
#522=ORIENTED_EDGE('',*,*,#380,.T.);
#523=ORIENTED_EDGE('',*,*,#382,.F.);
#524=ORIENTED_EDGE('',*,*,#383,.F.);
#525=ORIENTED_EDGE('',*,*,#384,.T.);
#526=ORIENTED_EDGE('',*,*,#383,.T.);
#527=ORIENTED_EDGE('',*,*,#385,.F.);
#528=ORIENTED_EDGE('',*,*,#386,.F.);
#529=ORIENTED_EDGE('',*,*,#387,.T.);
#530=ORIENTED_EDGE('',*,*,#386,.T.);
#531=ORIENTED_EDGE('',*,*,#388,.F.);
#532=ORIENTED_EDGE('',*,*,#389,.F.);
#533=ORIENTED_EDGE('',*,*,#390,.T.);
#534=ORIENTED_EDGE('',*,*,#389,.T.);
#535=ORIENTED_EDGE('',*,*,#391,.F.);
#536=ORIENTED_EDGE('',*,*,#392,.F.);
#537=ORIENTED_EDGE('',*,*,#393,.F.);
#538=ORIENTED_EDGE('',*,*,#392,.T.);
#539=ORIENTED_EDGE('',*,*,#394,.F.);
#540=ORIENTED_EDGE('',*,*,#372,.F.);
#541=ORIENTED_EDGE('',*,*,#393,.T.);
#542=ORIENTED_EDGE('',*,*,#371,.T.);
#543=ORIENTED_EDGE('',*,*,#375,.T.);
#544=ORIENTED_EDGE('',*,*,#378,.F.);
#545=ORIENTED_EDGE('',*,*,#381,.F.);
#546=ORIENTED_EDGE('',*,*,#384,.F.);
#547=ORIENTED_EDGE('',*,*,#387,.F.);
#548=ORIENTED_EDGE('',*,*,#390,.F.);
#549=ORIENTED_EDGE('',*,*,#394,.T.);
#550=ORIENTED_EDGE('',*,*,#391,.T.);
#551=ORIENTED_EDGE('',*,*,#388,.T.);
#552=ORIENTED_EDGE('',*,*,#385,.T.);
#553=ORIENTED_EDGE('',*,*,#382,.T.);
#554=ORIENTED_EDGE('',*,*,#379,.T.);
#555=ORIENTED_EDGE('',*,*,#376,.T.);
#556=ORIENTED_EDGE('',*,*,#373,.T.);
#557=PLANE('',#641);
#558=PLANE('',#642);
#559=PLANE('',#643);
#560=PLANE('',#644);
#561=PLANE('',#645);
#562=PLANE('',#646);
#563=PLANE('',#647);
#564=PLANE('',#653);
#565=PLANE('',#656);
#566=PLANE('',#657);
#567=PLANE('',#660);
#568=PLANE('',#667);
#569=PLANE('',#668);
#570=PLANE('',#669);
#571=PLANE('',#670);
#572=PLANE('',#671);
#573=PLANE('',#672);
#574=PLANE('',#673);
#575=PLANE('',#674);
#576=PLANE('',#675);
#577=PLANE('',#676);
#578=PLANE('',#677);
#579=PLANE('',#678);
#580=PLANE('',#679);
#581=PLANE('',#680);
#582=PLANE('',#681);
#583=PLANE('',#682);
#584=PLANE('',#683);
#585=PLANE('',#684);
#586=PLANE('',#685);
#587=PLANE('',#686);
#588=ADVANCED_FACE('',(#41),#557,.T.);
#589=ADVANCED_FACE('',(#42),#558,.T.);
#590=ADVANCED_FACE('',(#43),#559,.T.);
#591=ADVANCED_FACE('',(#44),#560,.T.);
#592=ADVANCED_FACE('',(#45),#561,.T.);
#593=ADVANCED_FACE('',(#46),#562,.F.);
#594=ADVANCED_FACE('',(#47,#18),#563,.F.);
#595=ADVANCED_FACE('',(#48),#13,.T.);
#596=ADVANCED_FACE('',(#49),#564,.T.);
#597=ADVANCED_FACE('',(#50),#14,.T.);
#598=ADVANCED_FACE('',(#51),#565,.F.);
#599=ADVANCED_FACE('',(#52),#566,.T.);
#600=ADVANCED_FACE('',(#53),#15,.T.);
#601=ADVANCED_FACE('',(#54),#567,.T.);
#602=ADVANCED_FACE('',(#55),#16,.F.);
#603=ADVANCED_FACE('',(#56),#17,.F.);
#604=ADVANCED_FACE('',(#57),#568,.T.);
#605=ADVANCED_FACE('',(#58),#569,.T.);
#606=ADVANCED_FACE('',(#59),#570,.T.);
#607=ADVANCED_FACE('',(#60),#571,.T.);
#608=ADVANCED_FACE('',(#61),#572,.T.);
#609=ADVANCED_FACE('',(#62),#573,.T.);
#610=ADVANCED_FACE('',(#63),#574,.T.);
#611=ADVANCED_FACE('',(#64),#575,.T.);
#612=ADVANCED_FACE('',(#65,#19,#20),#576,.T.);
#613=ADVANCED_FACE('',(#66,#21,#22),#577,.F.);
#614=ADVANCED_FACE('',(#67),#578,.T.);
#615=ADVANCED_FACE('',(#68),#579,.T.);
#616=ADVANCED_FACE('',(#69),#580,.T.);
#617=ADVANCED_FACE('',(#70),#581,.T.);
#618=ADVANCED_FACE('',(#71),#582,.T.);
#619=ADVANCED_FACE('',(#72),#583,.T.);
#620=ADVANCED_FACE('',(#73),#584,.T.);
#621=ADVANCED_FACE('',(#74),#585,.T.);
#622=ADVANCED_FACE('',(#75),#586,.T.);
#623=ADVANCED_FACE('',(#76),#587,.T.);
#624=CLOSED_SHELL('',(#588,#589,#590,#591,#592,#593));
#625=CLOSED_SHELL('',(#594,#595,#596,#597,#598,#599,#600,#601));
#626=CLOSED_SHELL('',(#602,#603,#604,#605,#606,#607,#608,#609,#610,#611,
#612,#613));
#627=CLOSED_SHELL('',(#614,#615,#616,#617,#618,#619,#620,#621,#622,#623));
#628=DERIVED_UNIT_ELEMENT(#630,1.);
#629=DERIVED_UNIT_ELEMENT(#1029,-3.);
#630=(
MASS_UNIT()
NAMED_UNIT(*)
SI_UNIT(.KILO.,.GRAM.)
);
#631=DERIVED_UNIT((#628,#629));
#632=MEASURE_REPRESENTATION_ITEM('density measure',
POSITIVE_RATIO_MEASURE(19300.),#631);
#633=PROPERTY_DEFINITION_REPRESENTATION(#638,#635);
#634=PROPERTY_DEFINITION_REPRESENTATION(#639,#636);
#635=REPRESENTATION('material name',(#637),#1026);
#636=REPRESENTATION('density',(#632),#1026);
#637=DESCRIPTIVE_REPRESENTATION_ITEM('Or','Or');
#638=PROPERTY_DEFINITION('material property','material name',#1036);
#639=PROPERTY_DEFINITION('material property','density of part',#1036);
#640=AXIS2_PLACEMENT_3D('',#852,#687,#688);
#641=AXIS2_PLACEMENT_3D('',#853,#689,#690);
#642=AXIS2_PLACEMENT_3D('',#862,#695,#696);
#643=AXIS2_PLACEMENT_3D('',#868,#700,#701);
#644=AXIS2_PLACEMENT_3D('',#874,#705,#706);
#645=AXIS2_PLACEMENT_3D('',#877,#709,#710);
#646=AXIS2_PLACEMENT_3D('',#878,#711,#712);
#647=AXIS2_PLACEMENT_3D('',#879,#713,#714);
#648=AXIS2_PLACEMENT_3D('',#881,#715,#716);
#649=AXIS2_PLACEMENT_3D('',#884,#717,#718);
#650=AXIS2_PLACEMENT_3D('',#888,#720,#721);
#651=AXIS2_PLACEMENT_3D('',#890,#723,#724);
#652=AXIS2_PLACEMENT_3D('',#892,#725,#726);
#653=AXIS2_PLACEMENT_3D('',#894,#728,#729);
#654=AXIS2_PLACEMENT_3D('',#895,#730,#731);
#655=AXIS2_PLACEMENT_3D('',#898,#732,#733);
#656=AXIS2_PLACEMENT_3D('',#901,#736,#737);
#657=AXIS2_PLACEMENT_3D('',#905,#740,#741);
#658=AXIS2_PLACEMENT_3D('',#908,#743,#744);
#659=AXIS2_PLACEMENT_3D('',#909,#745,#746);
#660=AXIS2_PLACEMENT_3D('',#911,#748,#749);
#661=AXIS2_PLACEMENT_3D('',#912,#750,#751);
#662=AXIS2_PLACEMENT_3D('',#914,#752,#753);
#663=AXIS2_PLACEMENT_3D('',#917,#755,#756);
#664=AXIS2_PLACEMENT_3D('',#918,#757,#758);
#665=AXIS2_PLACEMENT_3D('',#920,#759,#760);
#666=AXIS2_PLACEMENT_3D('',#923,#762,#763);
#667=AXIS2_PLACEMENT_3D('',#924,#764,#765);
#668=AXIS2_PLACEMENT_3D('',#933,#770,#771);
#669=AXIS2_PLACEMENT_3D('',#939,#775,#776);
#670=AXIS2_PLACEMENT_3D('',#945,#780,#781);
#671=AXIS2_PLACEMENT_3D('',#951,#785,#786);
#672=AXIS2_PLACEMENT_3D('',#957,#790,#791);
#673=AXIS2_PLACEMENT_3D('',#963,#795,#796);
#674=AXIS2_PLACEMENT_3D('',#969,#800,#801);
#675=AXIS2_PLACEMENT_3D('',#972,#804,#805);
#676=AXIS2_PLACEMENT_3D('',#973,#806,#807);
#677=AXIS2_PLACEMENT_3D('',#974,#808,#809);
#678=AXIS2_PLACEMENT_3D('',#983,#814,#815);
#679=AXIS2_PLACEMENT_3D('',#989,#819,#820);
#680=AXIS2_PLACEMENT_3D('',#995,#824,#825);
#681=AXIS2_PLACEMENT_3D('',#1001,#829,#830);
#682=AXIS2_PLACEMENT_3D('',#1007,#834,#835);
#683=AXIS2_PLACEMENT_3D('',#1013,#839,#840);
#684=AXIS2_PLACEMENT_3D('',#1019,#844,#845);
#685=AXIS2_PLACEMENT_3D('',#1022,#848,#849);
#686=AXIS2_PLACEMENT_3D('',#1023,#850,#851);
#687=DIRECTION('axis',(0.,0.,1.));
#688=DIRECTION('refdir',(1.,0.,0.));
#689=DIRECTION('center_axis',(-1.,0.,0.));
#690=DIRECTION('ref_axis',(0.,-1.,0.));
#691=DIRECTION('',(0.,1.,0.));
#692=DIRECTION('',(0.,0.,1.));
#693=DIRECTION('',(0.,-1.,0.));
#694=DIRECTION('',(0.,0.,1.));
#695=DIRECTION('center_axis',(0.,1.,0.));
#696=DIRECTION('ref_axis',(-1.,0.,0.));
#697=DIRECTION('',(1.,0.,0.));
#698=DIRECTION('',(-1.,0.,0.));
#699=DIRECTION('',(0.,0.,1.));
#700=DIRECTION('center_axis',(1.,0.,0.));
#701=DIRECTION('ref_axis',(0.,1.,0.));
#702=DIRECTION('',(0.,-1.,0.));
#703=DIRECTION('',(0.,1.,0.));
#704=DIRECTION('',(0.,0.,1.));
#705=DIRECTION('center_axis',(0.,-1.,0.));
#706=DIRECTION('ref_axis',(1.,0.,0.));
#707=DIRECTION('',(-1.,0.,0.));
#708=DIRECTION('',(1.,0.,0.));
#709=DIRECTION('center_axis',(0.,0.,1.));
#710=DIRECTION('ref_axis',(1.,0.,0.));
#711=DIRECTION('center_axis',(0.,0.,1.));
#712=DIRECTION('ref_axis',(1.,0.,0.));
#713=DIRECTION('center_axis',(0.,1.,0.));
#714=DIRECTION('ref_axis',(-1.,0.,0.));
#715=DIRECTION('center_axis',(0.,1.,0.));
#716=DIRECTION('ref_axis',(-1.,0.,0.));
#717=DIRECTION('center_axis',(0.,-1.,0.));
#718=DIRECTION('ref_axis',(0.707106781186548,0.,0.707106781186547));
#719=DIRECTION('',(1.,0.,0.));
#720=DIRECTION('center_axis',(0.,-1.,0.));
#721=DIRECTION('ref_axis',(-0.707106781186548,0.,-0.707106781186547));
#722=DIRECTION('',(-1.,0.,0.));
#723=DIRECTION('center_axis',(0.,1.,0.));
#724=DIRECTION('ref_axis',(-1.,0.,0.));
#725=DIRECTION('center_axis',(0.,1.,0.));
#726=DIRECTION('ref_axis',(-1.,0.,0.));
#727=DIRECTION('',(0.,-1.,0.));
#728=DIRECTION('center_axis',(0.,1.,0.));
#729=DIRECTION('ref_axis',(-1.,0.,0.));
#730=DIRECTION('center_axis',(0.,-1.,0.));
#731=DIRECTION('ref_axis',(0.707106781186548,0.,-0.707106781186547));
#732=DIRECTION('center_axis',(0.,1.,0.));
#733=DIRECTION('ref_axis',(0.707106781186548,0.,0.707106781186547));
#734=DIRECTION('',(0.,1.,0.));
#735=DIRECTION('',(0.,-1.,0.));
#736=DIRECTION('center_axis',(0.,0.,1.));
#737=DIRECTION('ref_axis',(1.,0.,0.));
#738=DIRECTION('',(-1.,0.,0.));
#739=DIRECTION('',(0.,-1.,0.));
#740=DIRECTION('center_axis',(0.,-1.,0.));
#741=DIRECTION('ref_axis',(1.,0.,0.));
#742=DIRECTION('',(1.,0.,0.));
#743=DIRECTION('center_axis',(0.,1.,0.));
#744=DIRECTION('ref_axis',(-0.707106781186548,0.,0.707106781186547));
#745=DIRECTION('center_axis',(0.,-1.,0.));
#746=DIRECTION('ref_axis',(-0.707106781186548,0.,0.707106781186547));
#747=DIRECTION('',(0.,1.,0.));
#748=DIRECTION('center_axis',(0.,0.,1.));
#749=DIRECTION('ref_axis',(1.,0.,0.));
#750=DIRECTION('center_axis',(0.,0.,1.));
#751=DIRECTION('ref_axis',(1.,0.,0.));
#752=DIRECTION('center_axis',(0.,0.,-1.));
#753=DIRECTION('ref_axis',(1.,0.,0.));
#754=DIRECTION('',(0.,0.,-1.));
#755=DIRECTION('center_axis',(0.,0.,-1.));
#756=DIRECTION('ref_axis',(1.,0.,0.));
#757=DIRECTION('center_axis',(0.,0.,1.));
#758=DIRECTION('ref_axis',(1.,0.,0.));
#759=DIRECTION('center_axis',(0.,0.,-1.));
#760=DIRECTION('ref_axis',(1.,0.,0.));
#761=DIRECTION('',(0.,0.,-1.));
#762=DIRECTION('center_axis',(0.,0.,-1.));
#763=DIRECTION('ref_axis',(1.,0.,0.));
#764=DIRECTION('center_axis',(0.,1.,0.));
#765=DIRECTION('ref_axis',(-1.,0.,0.));
#766=DIRECTION('',(1.,0.,0.));
#767=DIRECTION('',(0.,0.,1.));
#768=DIRECTION('',(-1.,0.,0.));
#769=DIRECTION('',(0.,0.,1.));
#770=DIRECTION('center_axis',(1.,0.,0.));
#771=DIRECTION('ref_axis',(0.,1.,0.));
#772=DIRECTION('',(0.,-1.,0.));
#773=DIRECTION('',(0.,1.,0.));
#774=DIRECTION('',(0.,0.,1.));
#775=DIRECTION('center_axis',(0.,-1.,0.));
#776=DIRECTION('ref_axis',(1.,0.,0.));
#777=DIRECTION('',(-1.,0.,0.));
#778=DIRECTION('',(1.,0.,0.));
#779=DIRECTION('',(0.,0.,1.));
#780=DIRECTION('center_axis',(-1.,0.,0.));
#781=DIRECTION('ref_axis',(0.,-1.,0.));
#782=DIRECTION('',(0.,1.,0.));
#783=DIRECTION('',(0.,-1.,0.));
#784=DIRECTION('',(0.,0.,1.));
#785=DIRECTION('center_axis',(0.,1.,0.));
#786=DIRECTION('ref_axis',(-1.,0.,0.));
#787=DIRECTION('',(1.,0.,0.));
#788=DIRECTION('',(-1.,0.,0.));
#789=DIRECTION('',(0.,0.,1.));
#790=DIRECTION('center_axis',(1.,0.,0.));
#791=DIRECTION('ref_axis',(0.,1.,0.));
#792=DIRECTION('',(0.,1.,0.));
#793=DIRECTION('',(0.,1.,0.));
#794=DIRECTION('',(0.,0.,1.));
#795=DIRECTION('center_axis',(0.,1.,0.));
#796=DIRECTION('ref_axis',(-1.,0.,0.));
#797=DIRECTION('',(-1.,0.,0.));
#798=DIRECTION('',(-1.,0.,0.));
#799=DIRECTION('',(0.,0.,1.));
#800=DIRECTION('center_axis',(-1.,0.,0.));
#801=DIRECTION('ref_axis',(0.,-1.,0.));
#802=DIRECTION('',(0.,-1.,0.));
#803=DIRECTION('',(0.,-1.,0.));
#804=DIRECTION('center_axis',(0.,0.,1.));
#805=DIRECTION('ref_axis',(1.,0.,0.));
#806=DIRECTION('center_axis',(0.,0.,1.));
#807=DIRECTION('ref_axis',(1.,0.,0.));
#808=DIRECTION('center_axis',(0.,1.,0.));
#809=DIRECTION('ref_axis',(1.,0.,0.));
#810=DIRECTION('',(-1.,0.,0.));
#811=DIRECTION('',(0.,0.,-1.));
#812=DIRECTION('',(1.,0.,0.));
#813=DIRECTION('',(0.,0.,-1.));
#814=DIRECTION('center_axis',(1.,0.,0.));
#815=DIRECTION('ref_axis',(0.,-1.,0.));
#816=DIRECTION('',(0.,1.,0.));
#817=DIRECTION('',(0.,-1.,0.));
#818=DIRECTION('',(0.,0.,-1.));
#819=DIRECTION('center_axis',(0.,1.,0.));
#820=DIRECTION('ref_axis',(1.,0.,0.));
#821=DIRECTION('',(1.,0.,0.));
#822=DIRECTION('',(1.,0.,0.));
#823=DIRECTION('',(0.,0.,-1.));
#824=DIRECTION('center_axis',(-1.,0.,0.));
#825=DIRECTION('ref_axis',(0.,1.,0.));
#826=DIRECTION('',(0.,1.,0.));
#827=DIRECTION('',(0.,1.,0.));
#828=DIRECTION('',(0.,0.,-1.));
#829=DIRECTION('center_axis',(0.,-1.,0.));
#830=DIRECTION('ref_axis',(-1.,0.,0.));
#831=DIRECTION('',(-1.,0.,0.));
#832=DIRECTION('',(-1.,0.,0.));
#833=DIRECTION('',(0.,0.,-1.));
#834=DIRECTION('center_axis',(1.,0.,0.));
#835=DIRECTION('ref_axis',(0.,-1.,0.));
#836=DIRECTION('',(0.,-1.,0.));
#837=DIRECTION('',(0.,-1.,0.));
#838=DIRECTION('',(0.,0.,-1.));
#839=DIRECTION('center_axis',(0.,1.,0.));
#840=DIRECTION('ref_axis',(1.,0.,0.));
#841=DIRECTION('',(1.,0.,0.));
#842=DIRECTION('',(1.,0.,0.));
#843=DIRECTION('',(0.,0.,-1.));
#844=DIRECTION('center_axis',(-1.,0.,0.));
#845=DIRECTION('ref_axis',(0.,1.,0.));
#846=DIRECTION('',(0.,-1.,0.));
#847=DIRECTION('',(0.,1.,0.));
#848=DIRECTION('center_axis',(0.,0.,1.));
#849=DIRECTION('ref_axis',(1.,0.,0.));
#850=DIRECTION('center_axis',(0.,0.,-1.));
#851=DIRECTION('ref_axis',(-1.,0.,0.));
#852=CARTESIAN_POINT('',(0.,0.,0.));
#853=CARTESIAN_POINT('Origin',(-9.05,16.3331981434802,0.));
#854=CARTESIAN_POINT('',(-9.05,-16.5168018565198,0.));
#855=CARTESIAN_POINT('',(-9.05,16.3331981434802,0.));
#856=CARTESIAN_POINT('',(-9.05,-16.5168018565198,0.));
#857=CARTESIAN_POINT('',(-9.05,-16.5168018565198,4.8));
#858=CARTESIAN_POINT('',(-9.05,-16.5168018565198,0.));
#859=CARTESIAN_POINT('',(-9.05,16.3331981434802,4.8));
#860=CARTESIAN_POINT('',(-9.05,-16.5168018565198,4.8));
#861=CARTESIAN_POINT('',(-9.05,16.3331981434802,0.));
#862=CARTESIAN_POINT('Origin',(8.95,16.3331981434802,0.));
#863=CARTESIAN_POINT('',(8.95,16.3331981434802,0.));
#864=CARTESIAN_POINT('',(-9.05,16.3331981434802,0.));
#865=CARTESIAN_POINT('',(8.95,16.3331981434802,4.8));
#866=CARTESIAN_POINT('',(-9.05,16.3331981434802,4.8));
#867=CARTESIAN_POINT('',(8.95,16.3331981434802,0.));
#868=CARTESIAN_POINT('Origin',(8.95,-16.5168018565198,0.));
#869=CARTESIAN_POINT('',(8.95,-16.5168018565198,0.));
#870=CARTESIAN_POINT('',(8.95,16.3331981434802,0.));
#871=CARTESIAN_POINT('',(8.95,-16.5168018565198,4.8));
#872=CARTESIAN_POINT('',(8.95,16.3331981434802,4.8));
#873=CARTESIAN_POINT('',(8.95,-16.5168018565198,0.));
#874=CARTESIAN_POINT('Origin',(-9.05,-16.5168018565198,0.));
#875=CARTESIAN_POINT('',(8.95,-16.5168018565198,0.));
#876=CARTESIAN_POINT('',(8.95,-16.5168018565198,4.8));
#877=CARTESIAN_POINT('Origin',(-0.0499999999999989,-0.0918018565197798,
4.8));
#878=CARTESIAN_POINT('Origin',(-0.0499999999999989,-0.0918018565197798,
0.));
#879=CARTESIAN_POINT('Origin',(-0.0499999999999989,17.4331981434802,1.625));
#880=CARTESIAN_POINT('',(5.2,17.4331981434802,1.625));
#881=CARTESIAN_POINT('Origin',(-0.0499999999999989,17.4331981434802,1.625));
#882=CARTESIAN_POINT('',(2.825,17.4331981434802,0.));
#883=CARTESIAN_POINT('',(2.825,17.4331981434802,3.25));
#884=CARTESIAN_POINT('Origin',(2.825,17.4331981434802,1.625));
#885=CARTESIAN_POINT('',(-2.925,17.4331981434802,0.));
#886=CARTESIAN_POINT('',(-4.55,17.4331981434802,0.));
#887=CARTESIAN_POINT('',(-2.925,17.4331981434802,3.25));
#888=CARTESIAN_POINT('Origin',(-2.925,17.4331981434802,1.625));
#889=CARTESIAN_POINT('',(-4.55,17.4331981434802,3.25));
#890=CARTESIAN_POINT('Origin',(-0.0499999999999989,17.4331981434802,1.625));
#891=CARTESIAN_POINT('',(5.2,29.9331981434802,1.625));
#892=CARTESIAN_POINT('Origin',(-0.0499999999999989,29.9331981434802,1.625));
#893=CARTESIAN_POINT('',(5.2,17.4331981434802,1.625));
#894=CARTESIAN_POINT('Origin',(-0.0499999999999989,29.9331981434802,1.625));
#895=CARTESIAN_POINT('Origin',(2.825,12.5581981434802,1.625));
#896=CARTESIAN_POINT('',(2.825,10.9331981434802,3.25));
#897=CARTESIAN_POINT('',(2.825,10.9331981434802,0.));
#898=CARTESIAN_POINT('Origin',(2.825,10.9331981434802,1.625));
#899=CARTESIAN_POINT('',(2.825,12.5581981434802,0.));
#900=CARTESIAN_POINT('',(2.825,12.5581981434802,3.25));
#901=CARTESIAN_POINT('Origin',(-0.0499999999999989,14.1831981434802,0.));
#902=CARTESIAN_POINT('',(-2.925,10.9331981434802,0.));
#903=CARTESIAN_POINT('',(4.45,10.9331981434802,0.));
#904=CARTESIAN_POINT('',(-2.925,15.8081981434802,0.));
#905=CARTESIAN_POINT('Origin',(-4.55,10.9331981434802,0.));
#906=CARTESIAN_POINT('',(-2.925,10.9331981434802,3.25));
#907=CARTESIAN_POINT('',(4.45,10.9331981434802,3.25));
#908=CARTESIAN_POINT('Origin',(-2.925,10.9331981434802,1.625));
#909=CARTESIAN_POINT('Origin',(-2.925,15.8081981434802,1.625));
#910=CARTESIAN_POINT('',(-2.925,15.8081981434802,3.25));
#911=CARTESIAN_POINT('Origin',(-0.0499999999999989,14.1831981434802,3.25));
#912=CARTESIAN_POINT('Origin',(7.95,15.3331981434802,0.));
#913=CARTESIAN_POINT('',(7.16053713604717,15.3331981434802,1.6));
#914=CARTESIAN_POINT('Origin',(7.95,15.3331981434802,1.6));
#915=CARTESIAN_POINT('',(7.16053713604717,15.3331981434802,0.));
#916=CARTESIAN_POINT('',(7.16053713604717,15.3331981434802,0.));
#917=CARTESIAN_POINT('Origin',(7.95,15.3331981434802,0.));
#918=CARTESIAN_POINT('Origin',(7.95,-15.2595552758524,0.));
#919=CARTESIAN_POINT('',(7.16053713604717,-15.2595552758524,1.6));
#920=CARTESIAN_POINT('Origin',(7.95,-15.2595552758524,1.6));
#921=CARTESIAN_POINT('',(7.16053713604717,-15.2595552758524,0.));
#922=CARTESIAN_POINT('',(7.16053713604717,-15.2595552758524,0.));
#923=CARTESIAN_POINT('Origin',(7.95,-15.2595552758524,0.));
#924=CARTESIAN_POINT('Origin',(8.95,16.3331981434802,0.));
#925=CARTESIAN_POINT('',(4.45,16.3331981434802,0.));
#926=CARTESIAN_POINT('',(8.95,16.3331981434802,0.));
#927=CARTESIAN_POINT('',(-9.05,16.3331981434802,0.));
#928=CARTESIAN_POINT('',(4.45,16.3331981434802,1.6));
#929=CARTESIAN_POINT('',(4.45,16.3331981434802,0.));
#930=CARTESIAN_POINT('',(8.95,16.3331981434802,1.6));
#931=CARTESIAN_POINT('',(-9.05,16.3331981434802,1.6));
#932=CARTESIAN_POINT('',(8.95,16.3331981434802,0.));
#933=CARTESIAN_POINT('Origin',(8.95,-16.5168018565198,0.));
#934=CARTESIAN_POINT('',(8.95,-16.5168018565198,0.));
#935=CARTESIAN_POINT('',(8.95,16.3331981434802,0.));
#936=CARTESIAN_POINT('',(8.95,-16.5168018565198,1.6));
#937=CARTESIAN_POINT('',(8.95,16.3331981434802,1.6));
#938=CARTESIAN_POINT('',(8.95,-16.5168018565198,0.));
#939=CARTESIAN_POINT('Origin',(-9.05,-16.5168018565198,0.));
#940=CARTESIAN_POINT('',(-9.05,-16.5168018565198,0.));
#941=CARTESIAN_POINT('',(8.95,-16.5168018565198,0.));
#942=CARTESIAN_POINT('',(-9.05,-16.5168018565198,1.6));
#943=CARTESIAN_POINT('',(8.95,-16.5168018565198,1.6));
#944=CARTESIAN_POINT('',(-9.05,-16.5168018565198,0.));
#945=CARTESIAN_POINT('Origin',(-9.05,16.3331981434802,0.));
#946=CARTESIAN_POINT('',(-9.05,16.3331981434802,0.));
#947=CARTESIAN_POINT('',(-9.05,-16.5168018565198,0.));
#948=CARTESIAN_POINT('',(-9.05,16.3331981434802,1.6));
#949=CARTESIAN_POINT('',(-9.05,-16.5168018565198,1.6));
#950=CARTESIAN_POINT('',(-9.05,16.3331981434802,0.));
#951=CARTESIAN_POINT('Origin',(-4.55,16.3331981434802,0.));
#952=CARTESIAN_POINT('',(-4.55,16.3331981434802,0.));
#953=CARTESIAN_POINT('',(-9.05,16.3331981434802,0.));
#954=CARTESIAN_POINT('',(-4.55,16.3331981434802,1.6));
#955=CARTESIAN_POINT('',(-9.05,16.3331981434802,1.6));
#956=CARTESIAN_POINT('',(-4.55,16.3331981434802,0.));
#957=CARTESIAN_POINT('Origin',(-4.55,10.9331981434802,0.));
#958=CARTESIAN_POINT('',(-4.55,10.9331981434802,0.));
#959=CARTESIAN_POINT('',(-4.55,10.9331981434802,0.));
#960=CARTESIAN_POINT('',(-4.55,10.9331981434802,1.6));
#961=CARTESIAN_POINT('',(-4.55,10.9331981434802,1.6));
#962=CARTESIAN_POINT('',(-4.55,10.9331981434802,0.));
#963=CARTESIAN_POINT('Origin',(4.45,10.9331981434802,0.));
#964=CARTESIAN_POINT('',(4.45,10.9331981434802,0.));
#965=CARTESIAN_POINT('',(4.45,10.9331981434802,0.));
#966=CARTESIAN_POINT('',(4.45,10.9331981434802,1.6));
#967=CARTESIAN_POINT('',(4.45,10.9331981434802,1.6));
#968=CARTESIAN_POINT('',(4.45,10.9331981434802,0.));
#969=CARTESIAN_POINT('Origin',(4.45,16.3331981434802,0.));
#970=CARTESIAN_POINT('',(4.45,17.4331981434802,0.));
#971=CARTESIAN_POINT('',(4.45,17.4331981434802,1.6));
#972=CARTESIAN_POINT('Origin',(-0.0499999999999989,-0.0918018565197798,
1.6));
#973=CARTESIAN_POINT('Origin',(-0.0499999999999989,-0.0918018565197798,
0.));
#974=CARTESIAN_POINT('Origin',(-4.55,10.9331981434802,0.));
#975=CARTESIAN_POINT('',(4.45,10.9331981434802,0.));
#976=CARTESIAN_POINT('',(-4.55,10.9331981434802,0.));
#977=CARTESIAN_POINT('',(4.45,10.9331981434802,0.));
#978=CARTESIAN_POINT('',(4.45,10.9331981434802,-2.));
#979=CARTESIAN_POINT('',(4.45,10.9331981434802,0.));
#980=CARTESIAN_POINT('',(-4.55,10.9331981434802,-2.));
#981=CARTESIAN_POINT('',(4.45,10.9331981434802,-2.));
#982=CARTESIAN_POINT('',(-4.55,10.9331981434802,0.));
#983=CARTESIAN_POINT('Origin',(-4.55,16.3331981434802,0.));
#984=CARTESIAN_POINT('',(-4.55,16.3331981434802,0.));
#985=CARTESIAN_POINT('',(-4.55,10.9331981434802,0.));
#986=CARTESIAN_POINT('',(-4.55,16.3331981434802,-2.));
#987=CARTESIAN_POINT('',(-4.55,10.9331981434802,-2.));
#988=CARTESIAN_POINT('',(-4.55,16.3331981434802,0.));
#989=CARTESIAN_POINT('Origin',(-9.05,16.3331981434802,0.));
#990=CARTESIAN_POINT('',(-9.05,16.3331981434802,0.));
#991=CARTESIAN_POINT('',(-9.05,16.3331981434802,0.));
#992=CARTESIAN_POINT('',(-9.05,16.3331981434802,-2.));
#993=CARTESIAN_POINT('',(-9.05,16.3331981434802,-2.));
#994=CARTESIAN_POINT('',(-9.05,16.3331981434802,0.));
#995=CARTESIAN_POINT('Origin',(-9.05,-16.5168018565198,0.));
#996=CARTESIAN_POINT('',(-9.05,-16.5168018565198,0.));
#997=CARTESIAN_POINT('',(-9.05,-16.5168018565198,0.));
#998=CARTESIAN_POINT('',(-9.05,-16.5168018565198,-2.));
#999=CARTESIAN_POINT('',(-9.05,-16.5168018565198,-2.));
#1000=CARTESIAN_POINT('',(-9.05,-16.5168018565198,0.));
#1001=CARTESIAN_POINT('Origin',(8.95,-16.5168018565198,0.));
#1002=CARTESIAN_POINT('',(8.95,-16.5168018565198,0.));
#1003=CARTESIAN_POINT('',(8.95,-16.5168018565198,0.));
#1004=CARTESIAN_POINT('',(8.95,-16.5168018565198,-2.));
#1005=CARTESIAN_POINT('',(8.95,-16.5168018565198,-2.));
#1006=CARTESIAN_POINT('',(8.95,-16.5168018565198,0.));
#1007=CARTESIAN_POINT('Origin',(8.95,16.3331981434802,0.));
#1008=CARTESIAN_POINT('',(8.95,16.3331981434802,0.));
#1009=CARTESIAN_POINT('',(8.95,16.3331981434802,0.));
#1010=CARTESIAN_POINT('',(8.95,16.3331981434802,-2.));
#1011=CARTESIAN_POINT('',(8.95,16.3331981434802,-2.));
#1012=CARTESIAN_POINT('',(8.95,16.3331981434802,0.));
#1013=CARTESIAN_POINT('Origin',(4.45,16.3331981434802,0.));
#1014=CARTESIAN_POINT('',(4.45,16.3331981434802,0.));
#1015=CARTESIAN_POINT('',(-9.05,16.3331981434802,0.));
#1016=CARTESIAN_POINT('',(4.45,16.3331981434802,-2.));
#1017=CARTESIAN_POINT('',(-9.05,16.3331981434802,-2.));
#1018=CARTESIAN_POINT('',(4.45,16.3331981434802,0.));
#1019=CARTESIAN_POINT('Origin',(4.45,10.9331981434802,0.));
#1020=CARTESIAN_POINT('',(4.45,17.4331981434802,0.));
#1021=CARTESIAN_POINT('',(4.45,17.4331981434802,-2.));
#1022=CARTESIAN_POINT('Origin',(-0.0499999999999989,-0.0918018565197798,
0.));
#1023=CARTESIAN_POINT('Origin',(-0.0499999999999989,-0.0918018565197798,
-2.));
#1024=UNCERTAINTY_MEASURE_WITH_UNIT(LENGTH_MEASURE(0.01),#1028,
'DISTANCE_ACCURACY_VALUE',
'Maximum model space distance between geometric entities at asserted c
onnectivities');
#1025=UNCERTAINTY_MEASURE_WITH_UNIT(LENGTH_MEASURE(0.01),#1028,
'DISTANCE_ACCURACY_VALUE',
'Maximum model space distance between geometric entities at asserted c
onnectivities');
#1026=(
GEOMETRIC_REPRESENTATION_CONTEXT(3)
GLOBAL_UNCERTAINTY_ASSIGNED_CONTEXT((#1024))
GLOBAL_UNIT_ASSIGNED_CONTEXT((#1028,#1030,#1031))
REPRESENTATION_CONTEXT('','3D')
);
#1027=(
GEOMETRIC_REPRESENTATION_CONTEXT(3)
GLOBAL_UNCERTAINTY_ASSIGNED_CONTEXT((#1025))
GLOBAL_UNIT_ASSIGNED_CONTEXT((#1028,#1030,#1031))
REPRESENTATION_CONTEXT('','3D')
);
#1028=(
LENGTH_UNIT()
NAMED_UNIT(*)
SI_UNIT(.MILLI.,.METRE.)
);
#1029=(
LENGTH_UNIT()
NAMED_UNIT(*)
SI_UNIT($,.METRE.)
);
#1030=(
NAMED_UNIT(*)
PLANE_ANGLE_UNIT()
SI_UNIT($,.RADIAN.)
);
#1031=(
NAMED_UNIT(*)
SI_UNIT($,.STERADIAN.)
SOLID_ANGLE_UNIT()
);
#1032=SHAPE_DEFINITION_REPRESENTATION(#1033,#1034);
#1033=PRODUCT_DEFINITION_SHAPE('',$,#1036);
#1034=SHAPE_REPRESENTATION('',(#640),#1026);
#1035=PRODUCT_DEFINITION_CONTEXT('part definition',#1040,'design');
#1036=PRODUCT_DEFINITION('MCU-rp2040-TOP','MCU-rp2040-TOP v8',#1037,#1035);
#1037=PRODUCT_DEFINITION_FORMATION('',$,#1042);
#1038=PRODUCT_RELATED_PRODUCT_CATEGORY('MCU-rp2040-TOP v8',
'MCU-rp2040-TOP v8',(#1042));
#1039=APPLICATION_PROTOCOL_DEFINITION('international standard',
'automotive_design',2009,#1040);
#1040=APPLICATION_CONTEXT(
'Core Data for Automotive Mechanical Design Process');
#1041=PRODUCT_CONTEXT('part definition',#1040,'mechanical');
#1042=PRODUCT('MCU-rp2040-TOP','MCU-rp2040-TOP v8',$,(#1041));
#1043=PRESENTATION_STYLE_ASSIGNMENT((#1050));
#1044=PRESENTATION_STYLE_ASSIGNMENT((#1051));
#1045=PRESENTATION_STYLE_ASSIGNMENT((#1052));
#1046=PRESENTATION_STYLE_ASSIGNMENT((#1053));
#1047=PRESENTATION_STYLE_ASSIGNMENT((#1054));
#1048=PRESENTATION_STYLE_ASSIGNMENT((#1055));
#1049=PRESENTATION_STYLE_ASSIGNMENT((#1056));
#1050=SURFACE_STYLE_USAGE(.BOTH.,#1057);
#1051=SURFACE_STYLE_USAGE(.BOTH.,#1058);
#1052=SURFACE_STYLE_USAGE(.BOTH.,#1059);
#1053=SURFACE_STYLE_USAGE(.BOTH.,#1060);
#1054=SURFACE_STYLE_USAGE(.BOTH.,#1061);
#1055=SURFACE_STYLE_USAGE(.BOTH.,#1062);
#1056=SURFACE_STYLE_USAGE(.BOTH.,#1063);
#1057=SURFACE_SIDE_STYLE('',(#1064));
#1058=SURFACE_SIDE_STYLE('',(#1065));
#1059=SURFACE_SIDE_STYLE('',(#1066));
#1060=SURFACE_SIDE_STYLE('',(#1067));
#1061=SURFACE_SIDE_STYLE('',(#1068));
#1062=SURFACE_SIDE_STYLE('',(#1069));
#1063=SURFACE_SIDE_STYLE('',(#1070));
#1064=SURFACE_STYLE_FILL_AREA(#1071);
#1065=SURFACE_STYLE_FILL_AREA(#1072);
#1066=SURFACE_STYLE_FILL_AREA(#1073);
#1067=SURFACE_STYLE_FILL_AREA(#1074);
#1068=SURFACE_STYLE_FILL_AREA(#1075);
#1069=SURFACE_STYLE_FILL_AREA(#1076);
#1070=SURFACE_STYLE_FILL_AREA(#1077);
#1071=FILL_AREA_STYLE('Or - Poli',(#1078));
#1072=FILL_AREA_STYLE('FR4',(#1079));
#1073=FILL_AREA_STYLE('Acier inoxydable - Satin\X\E9',(#1080));
#1074=FILL_AREA_STYLE('Plastique - Mat (noir)',(#1081));
#1075=FILL_AREA_STYLE('FR4 (1) (1)',(#1082));
#1076=FILL_AREA_STYLE('FR4 (1)',(#1083));
#1077=FILL_AREA_STYLE('Plastique - Brillant (noir)',(#1084));
#1078=FILL_AREA_STYLE_COLOUR('Or - Poli',#1085);
#1079=FILL_AREA_STYLE_COLOUR('FR4',#1086);
#1080=FILL_AREA_STYLE_COLOUR('Acier inoxydable - Satin\X\E9',#1087);
#1081=FILL_AREA_STYLE_COLOUR('Plastique - Mat (noir)',#1088);
#1082=FILL_AREA_STYLE_COLOUR('FR4 (1) (1)',#1089);
#1083=FILL_AREA_STYLE_COLOUR('FR4 (1)',#1090);
#1084=FILL_AREA_STYLE_COLOUR('Plastique - Brillant (noir)',#1091);
#1085=COLOUR_RGB('Or - Poli',0.956862745098039,0.898039215686275,0.654901960784314);
#1086=COLOUR_RGB('FR4',0.447058823529412,0.,0.505882352941176);
#1087=COLOUR_RGB('Acier inoxydable - Satin\X\E9',0.796078431372549,0.796078431372549,
0.796078431372549);
#1088=COLOUR_RGB('Plastique - Mat (noir)',0.172549019607843,0.172549019607843,
0.172549019607843);
#1089=COLOUR_RGB('FR4 (1) (1)',0.129411764705882,0.980392156862745,0.980392156862745);
#1090=COLOUR_RGB('FR4 (1)',0.313725490196078,0.980392156862745,0.129411764705882);
#1091=COLOUR_RGB('Plastique - Brillant (noir)',0.0980392156862745,0.0980392156862745,
0.0980392156862745);
ENDSEC;
END-ISO-10303-21;
