ISO-10303-21;
HEADER;
/* Generated by software containing ST-Developer
 * from STEP Tools, Inc. (www.steptools.com) 
 */

FILE_DESCRIPTION(
/* description */ (''),
/* implementation_level */ '2;1');

FILE_NAME(
/* name */ 'switch-plate-oneswitch-FINAL.step',
/* time_stamp */ '2025-09-07T20:51:45+02:00',
/* author */ (''),
/* organization */ (''),
/* preprocessor_version */ 'ST-DEVELOPER v20.1',
/* originating_system */ 'Autodesk Translation Framework v14.10.0.0',
/* authorisation */ '');

FILE_SCHEMA (('AUTOMOTIVE_DESIGN { 1 0 10303 214 3 1 1 }'));
ENDSEC;

DATA;
#10=MECHANICAL_DESIGN_GEOMETRIC_PRESENTATION_REPRESENTATION('',(#13),#723);
#11=SHAPE_REPRESENTATION_RELATIONSHIP('SRR','None',#730,#12);
#12=ADVANCED_BREP_SHAPE_REPRESENTATION('',(#14),#722);
#13=STYLED_ITEM('',(#739),#14);
#14=MANIFOLD_SOLID_BREP('Corps1',#439);
#15=FACE_BOUND('',#78,.T.);
#16=FACE_BOUND('',#80,.T.);
#17=PLANE('',#456);
#18=PLANE('',#460);
#19=PLANE('',#464);
#20=PLANE('',#468);
#21=PLANE('',#469);
#22=PLANE('',#470);
#23=PLANE('',#471);
#24=PLANE('',#472);
#25=PLANE('',#473);
#26=PLANE('',#474);
#27=PLANE('',#475);
#28=PLANE('',#476);
#29=PLANE('',#477);
#30=PLANE('',#478);
#31=PLANE('',#479);
#32=PLANE('',#480);
#33=PLANE('',#481);
#34=PLANE('',#482);
#35=FACE_OUTER_BOUND('',#57,.T.);
#36=FACE_OUTER_BOUND('',#58,.T.);
#37=FACE_OUTER_BOUND('',#59,.T.);
#38=FACE_OUTER_BOUND('',#60,.T.);
#39=FACE_OUTER_BOUND('',#61,.T.);
#40=FACE_OUTER_BOUND('',#62,.T.);
#41=FACE_OUTER_BOUND('',#63,.T.);
#42=FACE_OUTER_BOUND('',#64,.T.);
#43=FACE_OUTER_BOUND('',#65,.T.);
#44=FACE_OUTER_BOUND('',#66,.T.);
#45=FACE_OUTER_BOUND('',#67,.T.);
#46=FACE_OUTER_BOUND('',#68,.T.);
#47=FACE_OUTER_BOUND('',#69,.T.);
#48=FACE_OUTER_BOUND('',#70,.T.);
#49=FACE_OUTER_BOUND('',#71,.T.);
#50=FACE_OUTER_BOUND('',#72,.T.);
#51=FACE_OUTER_BOUND('',#73,.T.);
#52=FACE_OUTER_BOUND('',#74,.T.);
#53=FACE_OUTER_BOUND('',#75,.T.);
#54=FACE_OUTER_BOUND('',#76,.T.);
#55=FACE_OUTER_BOUND('',#77,.T.);
#56=FACE_OUTER_BOUND('',#79,.T.);
#57=EDGE_LOOP('',(#293,#294,#295,#296));
#58=EDGE_LOOP('',(#297,#298,#299,#300));
#59=EDGE_LOOP('',(#301,#302,#303,#304));
#60=EDGE_LOOP('',(#305,#306,#307,#308,#309,#310,#311,#312));
#61=EDGE_LOOP('',(#313,#314,#315,#316));
#62=EDGE_LOOP('',(#317,#318,#319,#320));
#63=EDGE_LOOP('',(#321,#322,#323,#324));
#64=EDGE_LOOP('',(#325,#326,#327,#328,#329,#330,#331,#332));
#65=EDGE_LOOP('',(#333,#334,#335,#336));
#66=EDGE_LOOP('',(#337,#338,#339,#340));
#67=EDGE_LOOP('',(#341,#342,#343,#344));
#68=EDGE_LOOP('',(#345,#346,#347,#348));
#69=EDGE_LOOP('',(#349,#350,#351,#352));
#70=EDGE_LOOP('',(#353,#354,#355,#356));
#71=EDGE_LOOP('',(#357,#358,#359,#360));
#72=EDGE_LOOP('',(#361,#362,#363,#364));
#73=EDGE_LOOP('',(#365,#366,#367,#368));
#74=EDGE_LOOP('',(#369,#370,#371,#372));
#75=EDGE_LOOP('',(#373,#374,#375,#376));
#76=EDGE_LOOP('',(#377,#378,#379,#380));
#77=EDGE_LOOP('',(#381,#382,#383,#384));
#78=EDGE_LOOP('',(#385,#386,#387,#388,#389,#390,#391,#392));
#79=EDGE_LOOP('',(#393,#394,#395,#396));
#80=EDGE_LOOP('',(#397,#398,#399,#400,#401,#402,#403,#404,#405,#406,#407,
#408,#409,#410,#411,#412));
#81=LINE('',#603,#133);
#82=LINE('',#606,#134);
#83=LINE('',#609,#135);
#84=LINE('',#611,#136);
#85=LINE('',#612,#137);
#86=LINE('',#618,#138);
#87=LINE('',#621,#139);
#88=LINE('',#623,#140);
#89=LINE('',#625,#141);
#90=LINE('',#627,#142);
#91=LINE('',#629,#143);
#92=LINE('',#631,#144);
#93=LINE('',#632,#145);
#94=LINE('',#638,#146);
#95=LINE('',#641,#147);
#96=LINE('',#643,#148);
#97=LINE('',#644,#149);
#98=LINE('',#649,#150);
#99=LINE('',#652,#151);
#100=LINE('',#654,#152);
#101=LINE('',#656,#153);
#102=LINE('',#658,#154);
#103=LINE('',#660,#155);
#104=LINE('',#661,#156);
#105=LINE('',#665,#157);
#106=LINE('',#667,#158);
#107=LINE('',#669,#159);
#108=LINE('',#670,#160);
#109=LINE('',#672,#161);
#110=LINE('',#673,#162);
#111=LINE('',#675,#163);
#112=LINE('',#676,#164);
#113=LINE('',#680,#165);
#114=LINE('',#682,#166);
#115=LINE('',#683,#167);
#116=LINE('',#686,#168);
#117=LINE('',#688,#169);
#118=LINE('',#689,#170);
#119=LINE('',#691,#171);
#120=LINE('',#692,#172);
#121=LINE('',#697,#173);
#122=LINE('',#699,#174);
#123=LINE('',#701,#175);
#124=LINE('',#702,#176);
#125=LINE('',#705,#177);
#126=LINE('',#707,#178);
#127=LINE('',#708,#179);
#128=LINE('',#711,#180);
#129=LINE('',#713,#181);
#130=LINE('',#714,#182);
#131=LINE('',#716,#183);
#132=LINE('',#717,#184);
#133=VECTOR('',#489,10.);
#134=VECTOR('',#492,10.);
#135=VECTOR('',#495,10.);
#136=VECTOR('',#496,10.);
#137=VECTOR('',#497,10.);
#138=VECTOR('',#502,10.);
#139=VECTOR('',#505,10.);
#140=VECTOR('',#508,10.);
#141=VECTOR('',#509,10.);
#142=VECTOR('',#510,10.);
#143=VECTOR('',#511,10.);
#144=VECTOR('',#512,10.);
#145=VECTOR('',#513,10.);
#146=VECTOR('',#518,10.);
#147=VECTOR('',#521,10.);
#148=VECTOR('',#524,10.);
#149=VECTOR('',#525,10.);
#150=VECTOR('',#530,10.);
#151=VECTOR('',#535,10.);
#152=VECTOR('',#536,10.);
#153=VECTOR('',#537,10.);
#154=VECTOR('',#538,10.);
#155=VECTOR('',#539,10.);
#156=VECTOR('',#540,10.);
#157=VECTOR('',#543,10.);
#158=VECTOR('',#544,10.);
#159=VECTOR('',#545,10.);
#160=VECTOR('',#546,10.);
#161=VECTOR('',#549,10.);
#162=VECTOR('',#550,10.);
#163=VECTOR('',#553,10.);
#164=VECTOR('',#554,10.);
#165=VECTOR('',#559,10.);
#166=VECTOR('',#560,10.);
#167=VECTOR('',#561,10.);
#168=VECTOR('',#564,10.);
#169=VECTOR('',#565,10.);
#170=VECTOR('',#566,10.);
#171=VECTOR('',#569,10.);
#172=VECTOR('',#570,10.);
#173=VECTOR('',#575,10.);
#174=VECTOR('',#576,10.);
#175=VECTOR('',#577,10.);
#176=VECTOR('',#578,10.);
#177=VECTOR('',#581,10.);
#178=VECTOR('',#582,10.);
#179=VECTOR('',#583,10.);
#180=VECTOR('',#586,10.);
#181=VECTOR('',#587,10.);
#182=VECTOR('',#588,10.);
#183=VECTOR('',#591,10.);
#184=VECTOR('',#592,10.);
#185=CIRCLE('',#454,0.1);
#186=CIRCLE('',#455,0.1);
#187=CIRCLE('',#458,0.1);
#188=CIRCLE('',#459,0.1);
#189=CIRCLE('',#462,0.1);
#190=CIRCLE('',#463,0.1);
#191=CIRCLE('',#466,0.1);
#192=CIRCLE('',#467,0.1);
#193=VERTEX_POINT('',#599);
#194=VERTEX_POINT('',#600);
#195=VERTEX_POINT('',#602);
#196=VERTEX_POINT('',#604);
#197=VERTEX_POINT('',#608);
#198=VERTEX_POINT('',#610);
#199=VERTEX_POINT('',#614);
#200=VERTEX_POINT('',#615);
#201=VERTEX_POINT('',#617);
#202=VERTEX_POINT('',#619);
#203=VERTEX_POINT('',#624);
#204=VERTEX_POINT('',#626);
#205=VERTEX_POINT('',#628);
#206=VERTEX_POINT('',#630);
#207=VERTEX_POINT('',#634);
#208=VERTEX_POINT('',#635);
#209=VERTEX_POINT('',#637);
#210=VERTEX_POINT('',#639);
#211=VERTEX_POINT('',#646);
#212=VERTEX_POINT('',#648);
#213=VERTEX_POINT('',#653);
#214=VERTEX_POINT('',#655);
#215=VERTEX_POINT('',#657);
#216=VERTEX_POINT('',#659);
#217=VERTEX_POINT('',#663);
#218=VERTEX_POINT('',#664);
#219=VERTEX_POINT('',#666);
#220=VERTEX_POINT('',#668);
#221=VERTEX_POINT('',#679);
#222=VERTEX_POINT('',#681);
#223=VERTEX_POINT('',#685);
#224=VERTEX_POINT('',#687);
#225=VERTEX_POINT('',#695);
#226=VERTEX_POINT('',#696);
#227=VERTEX_POINT('',#698);
#228=VERTEX_POINT('',#700);
#229=VERTEX_POINT('',#704);
#230=VERTEX_POINT('',#706);
#231=VERTEX_POINT('',#710);
#232=VERTEX_POINT('',#712);
#233=EDGE_CURVE('',#193,#194,#185,.T.);
#234=EDGE_CURVE('',#194,#195,#81,.T.);
#235=EDGE_CURVE('',#195,#196,#186,.T.);
#236=EDGE_CURVE('',#196,#193,#82,.T.);
#237=EDGE_CURVE('',#194,#197,#83,.T.);
#238=EDGE_CURVE('',#198,#197,#84,.T.);
#239=EDGE_CURVE('',#195,#198,#85,.T.);
#240=EDGE_CURVE('',#199,#200,#187,.T.);
#241=EDGE_CURVE('',#200,#201,#86,.T.);
#242=EDGE_CURVE('',#201,#202,#188,.T.);
#243=EDGE_CURVE('',#202,#199,#87,.T.);
#244=EDGE_CURVE('',#201,#196,#88,.T.);
#245=EDGE_CURVE('',#200,#203,#89,.T.);
#246=EDGE_CURVE('',#203,#204,#90,.T.);
#247=EDGE_CURVE('',#204,#205,#91,.T.);
#248=EDGE_CURVE('',#205,#206,#92,.T.);
#249=EDGE_CURVE('',#206,#193,#93,.T.);
#250=EDGE_CURVE('',#207,#208,#189,.T.);
#251=EDGE_CURVE('',#208,#209,#94,.T.);
#252=EDGE_CURVE('',#209,#210,#190,.T.);
#253=EDGE_CURVE('',#210,#207,#95,.T.);
#254=EDGE_CURVE('',#209,#202,#96,.T.);
#255=EDGE_CURVE('',#208,#199,#97,.T.);
#256=EDGE_CURVE('',#197,#211,#191,.T.);
#257=EDGE_CURVE('',#211,#212,#98,.T.);
#258=EDGE_CURVE('',#212,#198,#192,.T.);
#259=EDGE_CURVE('',#212,#210,#99,.T.);
#260=EDGE_CURVE('',#211,#213,#100,.T.);
#261=EDGE_CURVE('',#213,#214,#101,.T.);
#262=EDGE_CURVE('',#214,#215,#102,.T.);
#263=EDGE_CURVE('',#215,#216,#103,.T.);
#264=EDGE_CURVE('',#216,#207,#104,.T.);
#265=EDGE_CURVE('',#217,#218,#105,.T.);
#266=EDGE_CURVE('',#217,#219,#106,.T.);
#267=EDGE_CURVE('',#219,#220,#107,.T.);
#268=EDGE_CURVE('',#218,#220,#108,.T.);
#269=EDGE_CURVE('',#206,#217,#109,.T.);
#270=EDGE_CURVE('',#205,#219,#110,.T.);
#271=EDGE_CURVE('',#218,#203,#111,.T.);
#272=EDGE_CURVE('',#220,#204,#112,.T.);
#273=EDGE_CURVE('',#221,#213,#113,.T.);
#274=EDGE_CURVE('',#221,#222,#114,.T.);
#275=EDGE_CURVE('',#222,#214,#115,.T.);
#276=EDGE_CURVE('',#223,#221,#116,.T.);
#277=EDGE_CURVE('',#223,#224,#117,.T.);
#278=EDGE_CURVE('',#224,#222,#118,.T.);
#279=EDGE_CURVE('',#216,#223,#119,.T.);
#280=EDGE_CURVE('',#215,#224,#120,.T.);
#281=EDGE_CURVE('',#225,#226,#121,.T.);
#282=EDGE_CURVE('',#225,#227,#122,.T.);
#283=EDGE_CURVE('',#228,#227,#123,.T.);
#284=EDGE_CURVE('',#226,#228,#124,.T.);
#285=EDGE_CURVE('',#226,#229,#125,.T.);
#286=EDGE_CURVE('',#230,#228,#126,.T.);
#287=EDGE_CURVE('',#229,#230,#127,.T.);
#288=EDGE_CURVE('',#229,#231,#128,.T.);
#289=EDGE_CURVE('',#232,#230,#129,.T.);
#290=EDGE_CURVE('',#231,#232,#130,.T.);
#291=EDGE_CURVE('',#231,#225,#131,.T.);
#292=EDGE_CURVE('',#227,#232,#132,.T.);
#293=ORIENTED_EDGE('',*,*,#233,.T.);
#294=ORIENTED_EDGE('',*,*,#234,.T.);
#295=ORIENTED_EDGE('',*,*,#235,.T.);
#296=ORIENTED_EDGE('',*,*,#236,.T.);
#297=ORIENTED_EDGE('',*,*,#234,.F.);
#298=ORIENTED_EDGE('',*,*,#237,.T.);
#299=ORIENTED_EDGE('',*,*,#238,.F.);
#300=ORIENTED_EDGE('',*,*,#239,.F.);
#301=ORIENTED_EDGE('',*,*,#240,.T.);
#302=ORIENTED_EDGE('',*,*,#241,.T.);
#303=ORIENTED_EDGE('',*,*,#242,.T.);
#304=ORIENTED_EDGE('',*,*,#243,.T.);
#305=ORIENTED_EDGE('',*,*,#236,.F.);
#306=ORIENTED_EDGE('',*,*,#244,.F.);
#307=ORIENTED_EDGE('',*,*,#241,.F.);
#308=ORIENTED_EDGE('',*,*,#245,.T.);
#309=ORIENTED_EDGE('',*,*,#246,.T.);
#310=ORIENTED_EDGE('',*,*,#247,.T.);
#311=ORIENTED_EDGE('',*,*,#248,.T.);
#312=ORIENTED_EDGE('',*,*,#249,.T.);
#313=ORIENTED_EDGE('',*,*,#250,.T.);
#314=ORIENTED_EDGE('',*,*,#251,.T.);
#315=ORIENTED_EDGE('',*,*,#252,.T.);
#316=ORIENTED_EDGE('',*,*,#253,.T.);
#317=ORIENTED_EDGE('',*,*,#243,.F.);
#318=ORIENTED_EDGE('',*,*,#254,.F.);
#319=ORIENTED_EDGE('',*,*,#251,.F.);
#320=ORIENTED_EDGE('',*,*,#255,.T.);
#321=ORIENTED_EDGE('',*,*,#256,.T.);
#322=ORIENTED_EDGE('',*,*,#257,.T.);
#323=ORIENTED_EDGE('',*,*,#258,.T.);
#324=ORIENTED_EDGE('',*,*,#238,.T.);
#325=ORIENTED_EDGE('',*,*,#253,.F.);
#326=ORIENTED_EDGE('',*,*,#259,.F.);
#327=ORIENTED_EDGE('',*,*,#257,.F.);
#328=ORIENTED_EDGE('',*,*,#260,.T.);
#329=ORIENTED_EDGE('',*,*,#261,.T.);
#330=ORIENTED_EDGE('',*,*,#262,.T.);
#331=ORIENTED_EDGE('',*,*,#263,.T.);
#332=ORIENTED_EDGE('',*,*,#264,.T.);
#333=ORIENTED_EDGE('',*,*,#265,.F.);
#334=ORIENTED_EDGE('',*,*,#266,.T.);
#335=ORIENTED_EDGE('',*,*,#267,.T.);
#336=ORIENTED_EDGE('',*,*,#268,.F.);
#337=ORIENTED_EDGE('',*,*,#269,.F.);
#338=ORIENTED_EDGE('',*,*,#248,.F.);
#339=ORIENTED_EDGE('',*,*,#270,.T.);
#340=ORIENTED_EDGE('',*,*,#266,.F.);
#341=ORIENTED_EDGE('',*,*,#271,.F.);
#342=ORIENTED_EDGE('',*,*,#268,.T.);
#343=ORIENTED_EDGE('',*,*,#272,.T.);
#344=ORIENTED_EDGE('',*,*,#246,.F.);
#345=ORIENTED_EDGE('',*,*,#272,.F.);
#346=ORIENTED_EDGE('',*,*,#267,.F.);
#347=ORIENTED_EDGE('',*,*,#270,.F.);
#348=ORIENTED_EDGE('',*,*,#247,.F.);
#349=ORIENTED_EDGE('',*,*,#273,.F.);
#350=ORIENTED_EDGE('',*,*,#274,.T.);
#351=ORIENTED_EDGE('',*,*,#275,.T.);
#352=ORIENTED_EDGE('',*,*,#261,.F.);
#353=ORIENTED_EDGE('',*,*,#276,.F.);
#354=ORIENTED_EDGE('',*,*,#277,.T.);
#355=ORIENTED_EDGE('',*,*,#278,.T.);
#356=ORIENTED_EDGE('',*,*,#274,.F.);
#357=ORIENTED_EDGE('',*,*,#279,.F.);
#358=ORIENTED_EDGE('',*,*,#263,.F.);
#359=ORIENTED_EDGE('',*,*,#280,.T.);
#360=ORIENTED_EDGE('',*,*,#277,.F.);
#361=ORIENTED_EDGE('',*,*,#262,.F.);
#362=ORIENTED_EDGE('',*,*,#275,.F.);
#363=ORIENTED_EDGE('',*,*,#278,.F.);
#364=ORIENTED_EDGE('',*,*,#280,.F.);
#365=ORIENTED_EDGE('',*,*,#281,.F.);
#366=ORIENTED_EDGE('',*,*,#282,.T.);
#367=ORIENTED_EDGE('',*,*,#283,.F.);
#368=ORIENTED_EDGE('',*,*,#284,.F.);
#369=ORIENTED_EDGE('',*,*,#285,.F.);
#370=ORIENTED_EDGE('',*,*,#284,.T.);
#371=ORIENTED_EDGE('',*,*,#286,.F.);
#372=ORIENTED_EDGE('',*,*,#287,.F.);
#373=ORIENTED_EDGE('',*,*,#288,.F.);
#374=ORIENTED_EDGE('',*,*,#287,.T.);
#375=ORIENTED_EDGE('',*,*,#289,.F.);
#376=ORIENTED_EDGE('',*,*,#290,.F.);
#377=ORIENTED_EDGE('',*,*,#291,.F.);
#378=ORIENTED_EDGE('',*,*,#290,.T.);
#379=ORIENTED_EDGE('',*,*,#292,.F.);
#380=ORIENTED_EDGE('',*,*,#282,.F.);
#381=ORIENTED_EDGE('',*,*,#292,.T.);
#382=ORIENTED_EDGE('',*,*,#289,.T.);
#383=ORIENTED_EDGE('',*,*,#286,.T.);
#384=ORIENTED_EDGE('',*,*,#283,.T.);
#385=ORIENTED_EDGE('',*,*,#239,.T.);
#386=ORIENTED_EDGE('',*,*,#258,.F.);
#387=ORIENTED_EDGE('',*,*,#259,.T.);
#388=ORIENTED_EDGE('',*,*,#252,.F.);
#389=ORIENTED_EDGE('',*,*,#254,.T.);
#390=ORIENTED_EDGE('',*,*,#242,.F.);
#391=ORIENTED_EDGE('',*,*,#244,.T.);
#392=ORIENTED_EDGE('',*,*,#235,.F.);
#393=ORIENTED_EDGE('',*,*,#291,.T.);
#394=ORIENTED_EDGE('',*,*,#281,.T.);
#395=ORIENTED_EDGE('',*,*,#285,.T.);
#396=ORIENTED_EDGE('',*,*,#288,.T.);
#397=ORIENTED_EDGE('',*,*,#271,.T.);
#398=ORIENTED_EDGE('',*,*,#245,.F.);
#399=ORIENTED_EDGE('',*,*,#240,.F.);
#400=ORIENTED_EDGE('',*,*,#255,.F.);
#401=ORIENTED_EDGE('',*,*,#250,.F.);
#402=ORIENTED_EDGE('',*,*,#264,.F.);
#403=ORIENTED_EDGE('',*,*,#279,.T.);
#404=ORIENTED_EDGE('',*,*,#276,.T.);
#405=ORIENTED_EDGE('',*,*,#273,.T.);
#406=ORIENTED_EDGE('',*,*,#260,.F.);
#407=ORIENTED_EDGE('',*,*,#256,.F.);
#408=ORIENTED_EDGE('',*,*,#237,.F.);
#409=ORIENTED_EDGE('',*,*,#233,.F.);
#410=ORIENTED_EDGE('',*,*,#249,.F.);
#411=ORIENTED_EDGE('',*,*,#269,.T.);
#412=ORIENTED_EDGE('',*,*,#265,.T.);
#413=CYLINDRICAL_SURFACE('',#453,0.1);
#414=CYLINDRICAL_SURFACE('',#457,0.1);
#415=CYLINDRICAL_SURFACE('',#461,0.1);
#416=CYLINDRICAL_SURFACE('',#465,0.1);
#417=ADVANCED_FACE('',(#35),#413,.F.);
#418=ADVANCED_FACE('',(#36),#17,.T.);
#419=ADVANCED_FACE('',(#37),#414,.F.);
#420=ADVANCED_FACE('',(#38),#18,.T.);
#421=ADVANCED_FACE('',(#39),#415,.F.);
#422=ADVANCED_FACE('',(#40),#19,.T.);
#423=ADVANCED_FACE('',(#41),#416,.F.);
#424=ADVANCED_FACE('',(#42),#20,.T.);
#425=ADVANCED_FACE('',(#43),#21,.F.);
#426=ADVANCED_FACE('',(#44),#22,.F.);
#427=ADVANCED_FACE('',(#45),#23,.F.);
#428=ADVANCED_FACE('',(#46),#24,.F.);
#429=ADVANCED_FACE('',(#47),#25,.F.);
#430=ADVANCED_FACE('',(#48),#26,.F.);
#431=ADVANCED_FACE('',(#49),#27,.F.);
#432=ADVANCED_FACE('',(#50),#28,.F.);
#433=ADVANCED_FACE('',(#51),#29,.T.);
#434=ADVANCED_FACE('',(#52),#30,.T.);
#435=ADVANCED_FACE('',(#53),#31,.T.);
#436=ADVANCED_FACE('',(#54),#32,.T.);
#437=ADVANCED_FACE('',(#55,#15),#33,.T.);
#438=ADVANCED_FACE('',(#56,#16),#34,.F.);
#439=CLOSED_SHELL('',(#417,#418,#419,#420,#421,#422,#423,#424,#425,#426,
#427,#428,#429,#430,#431,#432,#433,#434,#435,#436,#437,#438));
#440=DERIVED_UNIT_ELEMENT(#442,1.);
#441=DERIVED_UNIT_ELEMENT(#725,-3.);
#442=(
MASS_UNIT()
NAMED_UNIT(*)
SI_UNIT(.KILO.,.GRAM.)
);
#443=DERIVED_UNIT((#440,#441));
#444=MEASURE_REPRESENTATION_ITEM('density measure',
POSITIVE_RATIO_MEASURE(1060.),#443);
#445=PROPERTY_DEFINITION_REPRESENTATION(#450,#447);
#446=PROPERTY_DEFINITION_REPRESENTATION(#451,#448);
#447=REPRESENTATION('material name',(#449),#722);
#448=REPRESENTATION('density',(#444),#722);
#449=DESCRIPTIVE_REPRESENTATION_ITEM('Plastique ABS','Plastique ABS');
#450=PROPERTY_DEFINITION('material property','material name',#732);
#451=PROPERTY_DEFINITION('material property','density of part',#732);
#452=AXIS2_PLACEMENT_3D('',#597,#483,#484);
#453=AXIS2_PLACEMENT_3D('',#598,#485,#486);
#454=AXIS2_PLACEMENT_3D('',#601,#487,#488);
#455=AXIS2_PLACEMENT_3D('',#605,#490,#491);
#456=AXIS2_PLACEMENT_3D('',#607,#493,#494);
#457=AXIS2_PLACEMENT_3D('',#613,#498,#499);
#458=AXIS2_PLACEMENT_3D('',#616,#500,#501);
#459=AXIS2_PLACEMENT_3D('',#620,#503,#504);
#460=AXIS2_PLACEMENT_3D('',#622,#506,#507);
#461=AXIS2_PLACEMENT_3D('',#633,#514,#515);
#462=AXIS2_PLACEMENT_3D('',#636,#516,#517);
#463=AXIS2_PLACEMENT_3D('',#640,#519,#520);
#464=AXIS2_PLACEMENT_3D('',#642,#522,#523);
#465=AXIS2_PLACEMENT_3D('',#645,#526,#527);
#466=AXIS2_PLACEMENT_3D('',#647,#528,#529);
#467=AXIS2_PLACEMENT_3D('',#650,#531,#532);
#468=AXIS2_PLACEMENT_3D('',#651,#533,#534);
#469=AXIS2_PLACEMENT_3D('',#662,#541,#542);
#470=AXIS2_PLACEMENT_3D('',#671,#547,#548);
#471=AXIS2_PLACEMENT_3D('',#674,#551,#552);
#472=AXIS2_PLACEMENT_3D('',#677,#555,#556);
#473=AXIS2_PLACEMENT_3D('',#678,#557,#558);
#474=AXIS2_PLACEMENT_3D('',#684,#562,#563);
#475=AXIS2_PLACEMENT_3D('',#690,#567,#568);
#476=AXIS2_PLACEMENT_3D('',#693,#571,#572);
#477=AXIS2_PLACEMENT_3D('',#694,#573,#574);
#478=AXIS2_PLACEMENT_3D('',#703,#579,#580);
#479=AXIS2_PLACEMENT_3D('',#709,#584,#585);
#480=AXIS2_PLACEMENT_3D('',#715,#589,#590);
#481=AXIS2_PLACEMENT_3D('',#718,#593,#594);
#482=AXIS2_PLACEMENT_3D('',#719,#595,#596);
#483=DIRECTION('axis',(0.,0.,1.));
#484=DIRECTION('refdir',(1.,0.,0.));
#485=DIRECTION('center_axis',(0.,0.,1.));
#486=DIRECTION('ref_axis',(-0.707106781186548,0.707106781186548,0.));
#487=DIRECTION('center_axis',(0.,0.,-1.));
#488=DIRECTION('ref_axis',(-0.707106781186548,0.707106781186548,0.));
#489=DIRECTION('',(0.,0.,1.));
#490=DIRECTION('center_axis',(0.,0.,1.));
#491=DIRECTION('ref_axis',(-0.707106781186548,0.707106781186548,0.));
#492=DIRECTION('',(0.,0.,-1.));
#493=DIRECTION('center_axis',(0.,-1.,0.));
#494=DIRECTION('ref_axis',(1.,0.,0.));
#495=DIRECTION('',(1.,0.,0.));
#496=DIRECTION('',(0.,0.,-1.));
#497=DIRECTION('',(1.,0.,0.));
#498=DIRECTION('center_axis',(0.,0.,1.));
#499=DIRECTION('ref_axis',(-0.707106781186548,-0.707106781186548,0.));
#500=DIRECTION('center_axis',(0.,0.,-1.));
#501=DIRECTION('ref_axis',(-0.707106781186548,-0.707106781186548,0.));
#502=DIRECTION('',(0.,0.,1.));
#503=DIRECTION('center_axis',(0.,0.,1.));
#504=DIRECTION('ref_axis',(-0.707106781186548,-0.707106781186548,0.));
#505=DIRECTION('',(0.,0.,-1.));
#506=DIRECTION('center_axis',(1.,1.57255385924243E-16,0.));
#507=DIRECTION('ref_axis',(-1.57255385924243E-16,1.,0.));
#508=DIRECTION('',(-1.57255385924243E-16,1.,0.));
#509=DIRECTION('',(-1.57255385924243E-16,1.,0.));
#510=DIRECTION('',(0.,0.,1.));
#511=DIRECTION('',(-1.57255385924243E-16,1.,0.));
#512=DIRECTION('',(0.,0.,-1.));
#513=DIRECTION('',(-1.57255385924243E-16,1.,0.));
#514=DIRECTION('center_axis',(0.,0.,1.));
#515=DIRECTION('ref_axis',(0.707106781186548,-0.707106781186548,0.));
#516=DIRECTION('center_axis',(0.,0.,-1.));
#517=DIRECTION('ref_axis',(0.707106781186548,-0.707106781186548,0.));
#518=DIRECTION('',(0.,0.,1.));
#519=DIRECTION('center_axis',(0.,0.,1.));
#520=DIRECTION('ref_axis',(0.707106781186548,-0.707106781186548,0.));
#521=DIRECTION('',(0.,0.,-1.));
#522=DIRECTION('center_axis',(0.,1.,0.));
#523=DIRECTION('ref_axis',(-1.,0.,0.));
#524=DIRECTION('',(-1.,0.,0.));
#525=DIRECTION('',(-1.,0.,0.));
#526=DIRECTION('center_axis',(0.,0.,1.));
#527=DIRECTION('ref_axis',(0.707106781186548,0.707106781186548,0.));
#528=DIRECTION('center_axis',(0.,0.,-1.));
#529=DIRECTION('ref_axis',(0.707106781186548,0.707106781186548,0.));
#530=DIRECTION('',(0.,0.,1.));
#531=DIRECTION('center_axis',(0.,0.,1.));
#532=DIRECTION('ref_axis',(0.707106781186548,0.707106781186548,0.));
#533=DIRECTION('center_axis',(-1.,0.,0.));
#534=DIRECTION('ref_axis',(0.,-1.,0.));
#535=DIRECTION('',(0.,-1.,0.));
#536=DIRECTION('',(0.,-1.,0.));
#537=DIRECTION('',(0.,0.,1.));
#538=DIRECTION('',(0.,-1.,0.));
#539=DIRECTION('',(0.,0.,-1.));
#540=DIRECTION('',(0.,-1.,0.));
#541=DIRECTION('center_axis',(-1.,-3.44255201434157E-16,0.));
#542=DIRECTION('ref_axis',(3.44255201434157E-16,-1.,0.));
#543=DIRECTION('',(3.44255201434157E-16,-1.,0.));
#544=DIRECTION('',(0.,0.,1.));
#545=DIRECTION('',(3.44255201434157E-16,-1.,0.));
#546=DIRECTION('',(0.,0.,1.));
#547=DIRECTION('center_axis',(0.,1.,0.));
#548=DIRECTION('ref_axis',(-1.,0.,0.));
#549=DIRECTION('',(-1.,0.,0.));
#550=DIRECTION('',(-1.,0.,0.));
#551=DIRECTION('center_axis',(0.,-1.,0.));
#552=DIRECTION('ref_axis',(1.,0.,0.));
#553=DIRECTION('',(1.,0.,0.));
#554=DIRECTION('',(1.,0.,0.));
#555=DIRECTION('center_axis',(0.,0.,1.));
#556=DIRECTION('ref_axis',(1.,0.,0.));
#557=DIRECTION('center_axis',(0.,1.,0.));
#558=DIRECTION('ref_axis',(-1.,0.,0.));
#559=DIRECTION('',(-1.,0.,0.));
#560=DIRECTION('',(0.,0.,1.));
#561=DIRECTION('',(-1.,0.,0.));
#562=DIRECTION('center_axis',(1.,0.,0.));
#563=DIRECTION('ref_axis',(0.,1.,0.));
#564=DIRECTION('',(0.,1.,0.));
#565=DIRECTION('',(0.,0.,1.));
#566=DIRECTION('',(0.,1.,0.));
#567=DIRECTION('center_axis',(0.,-1.,0.));
#568=DIRECTION('ref_axis',(1.,0.,0.));
#569=DIRECTION('',(1.,0.,0.));
#570=DIRECTION('',(1.,0.,0.));
#571=DIRECTION('center_axis',(0.,0.,1.));
#572=DIRECTION('ref_axis',(1.,0.,0.));
#573=DIRECTION('center_axis',(1.,1.18613571006973E-16,0.));
#574=DIRECTION('ref_axis',(-1.18613571006973E-16,1.,0.));
#575=DIRECTION('',(1.18613571006973E-16,-1.,0.));
#576=DIRECTION('',(0.,0.,1.));
#577=DIRECTION('',(-1.18613571006973E-16,1.,0.));
#578=DIRECTION('',(0.,0.,1.));
#579=DIRECTION('center_axis',(0.,-1.,0.));
#580=DIRECTION('ref_axis',(1.,0.,0.));
#581=DIRECTION('',(-1.,0.,0.));
#582=DIRECTION('',(1.,0.,0.));
#583=DIRECTION('',(0.,0.,1.));
#584=DIRECTION('center_axis',(-1.,0.,0.));
#585=DIRECTION('ref_axis',(0.,-1.,0.));
#586=DIRECTION('',(0.,1.,0.));
#587=DIRECTION('',(0.,-1.,0.));
#588=DIRECTION('',(0.,0.,1.));
#589=DIRECTION('center_axis',(0.,1.,0.));
#590=DIRECTION('ref_axis',(-1.,0.,0.));
#591=DIRECTION('',(1.,0.,0.));
#592=DIRECTION('',(-1.,0.,0.));
#593=DIRECTION('center_axis',(0.,0.,1.));
#594=DIRECTION('ref_axis',(1.,0.,0.));
#595=DIRECTION('center_axis',(0.,0.,1.));
#596=DIRECTION('ref_axis',(1.,0.,0.));
#597=CARTESIAN_POINT('',(0.,0.,0.));
#598=CARTESIAN_POINT('Origin',(-6.96,6.96,0.));
#599=CARTESIAN_POINT('',(-7.06,6.96,0.));
#600=CARTESIAN_POINT('',(-6.96,7.06,0.));
#601=CARTESIAN_POINT('Origin',(-6.96,6.96,0.));
#602=CARTESIAN_POINT('',(-6.96,7.06,2.2));
#603=CARTESIAN_POINT('',(-6.96,7.06,0.));
#604=CARTESIAN_POINT('',(-7.06,6.96,2.2));
#605=CARTESIAN_POINT('Origin',(-6.96,6.96,2.2));
#606=CARTESIAN_POINT('',(-7.06,6.96,0.));
#607=CARTESIAN_POINT('Origin',(-7.06,7.06,0.));
#608=CARTESIAN_POINT('',(6.96,7.06,0.));
#609=CARTESIAN_POINT('',(-7.06,7.06,0.));
#610=CARTESIAN_POINT('',(6.96,7.06,2.2));
#611=CARTESIAN_POINT('',(6.96,7.06,0.));
#612=CARTESIAN_POINT('',(-7.06,7.06,2.2));
#613=CARTESIAN_POINT('Origin',(-6.96,-6.96,0.));
#614=CARTESIAN_POINT('',(-6.96,-7.06,0.));
#615=CARTESIAN_POINT('',(-7.06,-6.96,0.));
#616=CARTESIAN_POINT('Origin',(-6.96,-6.96,0.));
#617=CARTESIAN_POINT('',(-7.06,-6.96,2.2));
#618=CARTESIAN_POINT('',(-7.06,-6.96,0.));
#619=CARTESIAN_POINT('',(-6.96,-7.06,2.2));
#620=CARTESIAN_POINT('Origin',(-6.96,-6.96,2.2));
#621=CARTESIAN_POINT('',(-6.96,-7.06,0.));
#622=CARTESIAN_POINT('Origin',(-7.06,-7.06,0.));
#623=CARTESIAN_POINT('',(-7.06,-7.06,2.2));
#624=CARTESIAN_POINT('',(-7.06,-6.45,0.));
#625=CARTESIAN_POINT('',(-7.06,-7.06,0.));
#626=CARTESIAN_POINT('',(-7.06,-6.45,1.));
#627=CARTESIAN_POINT('',(-7.06,-6.45,0.));
#628=CARTESIAN_POINT('',(-7.06,6.45,1.));
#629=CARTESIAN_POINT('',(-7.06,-3.53,1.));
#630=CARTESIAN_POINT('',(-7.06,6.45,0.));
#631=CARTESIAN_POINT('',(-7.06,6.45,0.));
#632=CARTESIAN_POINT('',(-7.06,-7.06,0.));
#633=CARTESIAN_POINT('Origin',(6.96,-6.96,0.));
#634=CARTESIAN_POINT('',(7.06,-6.96,0.));
#635=CARTESIAN_POINT('',(6.96,-7.06,0.));
#636=CARTESIAN_POINT('Origin',(6.96,-6.96,0.));
#637=CARTESIAN_POINT('',(6.96,-7.06,2.2));
#638=CARTESIAN_POINT('',(6.96,-7.06,0.));
#639=CARTESIAN_POINT('',(7.06,-6.96,2.2));
#640=CARTESIAN_POINT('Origin',(6.96,-6.96,2.2));
#641=CARTESIAN_POINT('',(7.06,-6.96,0.));
#642=CARTESIAN_POINT('Origin',(7.06,-7.06,0.));
#643=CARTESIAN_POINT('',(7.06,-7.06,2.2));
#644=CARTESIAN_POINT('',(7.06,-7.06,0.));
#645=CARTESIAN_POINT('Origin',(6.96,6.96,0.));
#646=CARTESIAN_POINT('',(7.06,6.96,0.));
#647=CARTESIAN_POINT('Origin',(6.96,6.96,0.));
#648=CARTESIAN_POINT('',(7.06,6.96,2.2));
#649=CARTESIAN_POINT('',(7.06,6.96,0.));
#650=CARTESIAN_POINT('Origin',(6.96,6.96,2.2));
#651=CARTESIAN_POINT('Origin',(7.06,7.06,0.));
#652=CARTESIAN_POINT('',(7.06,7.06,2.2));
#653=CARTESIAN_POINT('',(7.06,6.45,0.));
#654=CARTESIAN_POINT('',(7.06,7.06,0.));
#655=CARTESIAN_POINT('',(7.06,6.45,1.));
#656=CARTESIAN_POINT('',(7.06,6.45,0.));
#657=CARTESIAN_POINT('',(7.06,-6.45,1.));
#658=CARTESIAN_POINT('',(7.06,3.53,1.));
#659=CARTESIAN_POINT('',(7.06,-6.45,0.));
#660=CARTESIAN_POINT('',(7.06,-6.45,0.));
#661=CARTESIAN_POINT('',(7.06,7.06,0.));
#662=CARTESIAN_POINT('Origin',(-7.81,6.45,0.));
#663=CARTESIAN_POINT('',(-7.81,6.45,0.));
#664=CARTESIAN_POINT('',(-7.81,-6.45,0.));
#665=CARTESIAN_POINT('',(-7.81,3.22500000000047,0.));
#666=CARTESIAN_POINT('',(-7.81,6.45,1.));
#667=CARTESIAN_POINT('',(-7.81,6.45,0.));
#668=CARTESIAN_POINT('',(-7.81,-6.45,1.));
#669=CARTESIAN_POINT('',(-7.81,6.45,1.));
#670=CARTESIAN_POINT('',(-7.81,-6.45,0.));
#671=CARTESIAN_POINT('Origin',(-7.06,6.45,0.));
#672=CARTESIAN_POINT('',(-3.53000000000051,6.45,0.));
#673=CARTESIAN_POINT('',(-7.06,6.45,1.));
#674=CARTESIAN_POINT('Origin',(-7.81,-6.45,0.));
#675=CARTESIAN_POINT('',(-3.90500000000051,-6.45,0.));
#676=CARTESIAN_POINT('',(-7.81,-6.45,1.));
#677=CARTESIAN_POINT('Origin',(-7.435,-2.22044604925031E-15,1.));
#678=CARTESIAN_POINT('Origin',(7.81,6.45,0.));
#679=CARTESIAN_POINT('',(7.81,6.45,0.));
#680=CARTESIAN_POINT('',(3.90499999999949,6.45,0.));
#681=CARTESIAN_POINT('',(7.81,6.45,1.));
#682=CARTESIAN_POINT('',(7.81,6.45,0.));
#683=CARTESIAN_POINT('',(7.06,6.45,1.));
#684=CARTESIAN_POINT('Origin',(7.81,-6.45,0.));
#685=CARTESIAN_POINT('',(7.81,-6.45,0.));
#686=CARTESIAN_POINT('',(7.81,-3.22499999999953,0.));
#687=CARTESIAN_POINT('',(7.81,-6.45,1.));
#688=CARTESIAN_POINT('',(7.81,-6.45,0.));
#689=CARTESIAN_POINT('',(7.81,6.45,1.));
#690=CARTESIAN_POINT('Origin',(7.06,-6.45,0.));
#691=CARTESIAN_POINT('',(3.52999999999949,-6.45,0.));
#692=CARTESIAN_POINT('',(7.81,-6.45,1.));
#693=CARTESIAN_POINT('Origin',(7.435,0.,1.));
#694=CARTESIAN_POINT('Origin',(10.109999999998,-9.35999999999812,0.));
#695=CARTESIAN_POINT('',(10.109999999998,9.36,0.));
#696=CARTESIAN_POINT('',(10.109999999998,-9.35999999999812,0.));
#697=CARTESIAN_POINT('',(10.109999999998,9.36,0.));
#698=CARTESIAN_POINT('',(10.109999999998,9.36,2.2));
#699=CARTESIAN_POINT('',(10.109999999998,9.36,0.));
#700=CARTESIAN_POINT('',(10.109999999998,-9.35999999999812,2.2));
#701=CARTESIAN_POINT('',(10.109999999998,9.36,2.2));
#702=CARTESIAN_POINT('',(10.109999999998,-9.35999999999812,0.));
#703=CARTESIAN_POINT('Origin',(-10.11,-9.35999999999812,0.));
#704=CARTESIAN_POINT('',(-10.11,-9.35999999999812,0.));
#705=CARTESIAN_POINT('',(10.109999999998,-9.35999999999812,0.));
#706=CARTESIAN_POINT('',(-10.11,-9.35999999999812,2.2));
#707=CARTESIAN_POINT('',(10.109999999998,-9.35999999999812,2.2));
#708=CARTESIAN_POINT('',(-10.11,-9.35999999999812,0.));
#709=CARTESIAN_POINT('Origin',(-10.11,9.36,0.));
#710=CARTESIAN_POINT('',(-10.11,9.36,0.));
#711=CARTESIAN_POINT('',(-10.11,-9.35999999999812,0.));
#712=CARTESIAN_POINT('',(-10.11,9.36,2.2));
#713=CARTESIAN_POINT('',(-10.11,-9.35999999999812,2.2));
#714=CARTESIAN_POINT('',(-10.11,9.36,0.));
#715=CARTESIAN_POINT('Origin',(10.109999999998,9.36,0.));
#716=CARTESIAN_POINT('',(-10.11,9.36,0.));
#717=CARTESIAN_POINT('',(-10.11,9.36,2.2));
#718=CARTESIAN_POINT('Origin',(-1.01474384450739E-12,9.40358901857508E-13,
2.2));
#719=CARTESIAN_POINT('Origin',(-1.01474384450739E-12,9.40358901857508E-13,
0.));
#720=UNCERTAINTY_MEASURE_WITH_UNIT(LENGTH_MEASURE(0.01),#724,
'DISTANCE_ACCURACY_VALUE',
'Maximum model space distance between geometric entities at asserted c
onnectivities');
#721=UNCERTAINTY_MEASURE_WITH_UNIT(LENGTH_MEASURE(0.01),#724,
'DISTANCE_ACCURACY_VALUE',
'Maximum model space distance between geometric entities at asserted c
onnectivities');
#722=(
GEOMETRIC_REPRESENTATION_CONTEXT(3)
GLOBAL_UNCERTAINTY_ASSIGNED_CONTEXT((#720))
GLOBAL_UNIT_ASSIGNED_CONTEXT((#724,#726,#727))
REPRESENTATION_CONTEXT('','3D')
);
#723=(
GEOMETRIC_REPRESENTATION_CONTEXT(3)
GLOBAL_UNCERTAINTY_ASSIGNED_CONTEXT((#721))
GLOBAL_UNIT_ASSIGNED_CONTEXT((#724,#726,#727))
REPRESENTATION_CONTEXT('','3D')
);
#724=(
LENGTH_UNIT()
NAMED_UNIT(*)
SI_UNIT(.MILLI.,.METRE.)
);
#725=(
LENGTH_UNIT()
NAMED_UNIT(*)
SI_UNIT($,.METRE.)
);
#726=(
NAMED_UNIT(*)
PLANE_ANGLE_UNIT()
SI_UNIT($,.RADIAN.)
);
#727=(
NAMED_UNIT(*)
SI_UNIT($,.STERADIAN.)
SOLID_ANGLE_UNIT()
);
#728=SHAPE_DEFINITION_REPRESENTATION(#729,#730);
#729=PRODUCT_DEFINITION_SHAPE('',$,#732);
#730=SHAPE_REPRESENTATION('',(#452),#722);
#731=PRODUCT_DEFINITION_CONTEXT('part definition',#736,'design');
#732=PRODUCT_DEFINITION('switche-holder','switche-holder v8',#733,#731);
#733=PRODUCT_DEFINITION_FORMATION('',$,#738);
#734=PRODUCT_RELATED_PRODUCT_CATEGORY('switche-holder v8',
'switche-holder v8',(#738));
#735=APPLICATION_PROTOCOL_DEFINITION('international standard',
'automotive_design',2009,#736);
#736=APPLICATION_CONTEXT(
'Core Data for Automotive Mechanical Design Process');
#737=PRODUCT_CONTEXT('part definition',#736,'mechanical');
#738=PRODUCT('switche-holder','switche-holder v8',$,(#737));
#739=PRESENTATION_STYLE_ASSIGNMENT((#740));
#740=SURFACE_STYLE_USAGE(.BOTH.,#741);
#741=SURFACE_SIDE_STYLE('',(#742));
#742=SURFACE_STYLE_FILL_AREA(#743);
#743=FILL_AREA_STYLE('ABS (blanc)',(#744));
#744=FILL_AREA_STYLE_COLOUR('ABS (blanc)',#745);
#745=COLOUR_RGB('ABS (blanc)',0.964705882352941,0.964705882352941,0.952941176470588);
ENDSEC;
END-ISO-10303-21;
