ISO-10303-21;
HEADER;
/* Generated by software containing ST-Developer
 * from STEP Tools, Inc. (www.steptools.com) 
 */

FILE_DESCRIPTION(
/* description */ (''),
/* implementation_level */ '2;1');

FILE_NAME(
/* name */ 'Reset-button-4x4x1.5mm-FINAL.step',
/* time_stamp */ '2025-09-07T21:05:36+02:00',
/* author */ (''),
/* organization */ (''),
/* preprocessor_version */ 'ST-DEVELOPER v20.1',
/* originating_system */ 'Autodesk Translation Framework v14.10.0.0',
/* authorisation */ '');

FILE_SCHEMA (('AUTOMOTIVE_DESIGN { 1 0 10303 214 3 1 1 }'));
ENDSEC;

DATA;
#10=MECHANICAL_DESIGN_GEOMETRIC_PRESENTATION_REPRESENTATION('',(#13,#14),
#2312);
#11=SHAPE_REPRESENTATION_RELATIONSHIP('SRR','None',#2319,#12);
#12=ADVANCED_BREP_SHAPE_REPRESENTATION('',(#15,#16),#2311);
#13=STYLED_ITEM('',(#2329),#15);
#14=STYLED_ITEM('',(#2329),#16);
#15=MANIFOLD_SOLID_BREP('Corps1',#1291);
#16=MANIFOLD_SOLID_BREP('Corps3',#1292);
#17=FACE_BOUND('',#193,.T.);
#18=FACE_BOUND('',#238,.T.);
#19=TOROIDAL_SURFACE('',#1323,0.8,0.4);
#20=TOROIDAL_SURFACE('',#1328,0.8,0.4);
#21=TOROIDAL_SURFACE('',#1348,0.8,0.4);
#22=TOROIDAL_SURFACE('',#1364,0.8,0.4);
#23=TOROIDAL_SURFACE('',#1413,0.8,0.4);
#24=TOROIDAL_SURFACE('',#1418,0.8,0.4);
#25=TOROIDAL_SURFACE('',#1438,0.8,0.4);
#26=TOROIDAL_SURFACE('',#1454,0.8,0.4);
#27=SPHERICAL_SURFACE('',#1310,0.4);
#28=SPHERICAL_SURFACE('',#1316,0.4);
#29=SPHERICAL_SURFACE('',#1333,0.4);
#30=SPHERICAL_SURFACE('',#1338,0.399999999999999);
#31=SPHERICAL_SURFACE('',#1344,0.4);
#32=SPHERICAL_SURFACE('',#1354,0.4);
#33=SPHERICAL_SURFACE('',#1358,0.4);
#34=SPHERICAL_SURFACE('',#1371,0.4);
#35=SPHERICAL_SURFACE('',#1400,0.4);
#36=SPHERICAL_SURFACE('',#1406,0.4);
#37=SPHERICAL_SURFACE('',#1423,0.4);
#38=SPHERICAL_SURFACE('',#1428,0.399999999999999);
#39=SPHERICAL_SURFACE('',#1434,0.4);
#40=SPHERICAL_SURFACE('',#1444,0.4);
#41=SPHERICAL_SURFACE('',#1448,0.4);
#42=SPHERICAL_SURFACE('',#1461,0.4);
#43=PLANE('',#1309);
#44=PLANE('',#1386);
#45=PLANE('',#1387);
#46=PLANE('',#1388);
#47=PLANE('',#1389);
#48=PLANE('',#1390);
#49=PLANE('',#1391);
#50=PLANE('',#1392);
#51=PLANE('',#1393);
#52=PLANE('',#1394);
#53=PLANE('',#1395);
#54=PLANE('',#1399);
#55=PLANE('',#1476);
#56=PLANE('',#1477);
#57=PLANE('',#1478);
#58=PLANE('',#1479);
#59=PLANE('',#1480);
#60=PLANE('',#1481);
#61=PLANE('',#1482);
#62=PLANE('',#1483);
#63=PLANE('',#1484);
#64=PLANE('',#1485);
#65=FACE_OUTER_BOUND('',#153,.T.);
#66=FACE_OUTER_BOUND('',#154,.T.);
#67=FACE_OUTER_BOUND('',#155,.T.);
#68=FACE_OUTER_BOUND('',#156,.T.);
#69=FACE_OUTER_BOUND('',#157,.T.);
#70=FACE_OUTER_BOUND('',#158,.T.);
#71=FACE_OUTER_BOUND('',#159,.T.);
#72=FACE_OUTER_BOUND('',#160,.T.);
#73=FACE_OUTER_BOUND('',#161,.T.);
#74=FACE_OUTER_BOUND('',#162,.T.);
#75=FACE_OUTER_BOUND('',#163,.T.);
#76=FACE_OUTER_BOUND('',#164,.T.);
#77=FACE_OUTER_BOUND('',#165,.T.);
#78=FACE_OUTER_BOUND('',#166,.T.);
#79=FACE_OUTER_BOUND('',#167,.T.);
#80=FACE_OUTER_BOUND('',#168,.T.);
#81=FACE_OUTER_BOUND('',#169,.T.);
#82=FACE_OUTER_BOUND('',#170,.T.);
#83=FACE_OUTER_BOUND('',#171,.T.);
#84=FACE_OUTER_BOUND('',#172,.T.);
#85=FACE_OUTER_BOUND('',#173,.T.);
#86=FACE_OUTER_BOUND('',#174,.T.);
#87=FACE_OUTER_BOUND('',#175,.T.);
#88=FACE_OUTER_BOUND('',#176,.T.);
#89=FACE_OUTER_BOUND('',#177,.T.);
#90=FACE_OUTER_BOUND('',#178,.T.);
#91=FACE_OUTER_BOUND('',#179,.T.);
#92=FACE_OUTER_BOUND('',#180,.T.);
#93=FACE_OUTER_BOUND('',#181,.T.);
#94=FACE_OUTER_BOUND('',#182,.T.);
#95=FACE_OUTER_BOUND('',#183,.T.);
#96=FACE_OUTER_BOUND('',#184,.T.);
#97=FACE_OUTER_BOUND('',#185,.T.);
#98=FACE_OUTER_BOUND('',#186,.T.);
#99=FACE_OUTER_BOUND('',#187,.T.);
#100=FACE_OUTER_BOUND('',#188,.T.);
#101=FACE_OUTER_BOUND('',#189,.T.);
#102=FACE_OUTER_BOUND('',#190,.T.);
#103=FACE_OUTER_BOUND('',#191,.T.);
#104=FACE_OUTER_BOUND('',#192,.T.);
#105=FACE_OUTER_BOUND('',#194,.T.);
#106=FACE_OUTER_BOUND('',#195,.T.);
#107=FACE_OUTER_BOUND('',#196,.T.);
#108=FACE_OUTER_BOUND('',#197,.T.);
#109=FACE_OUTER_BOUND('',#198,.T.);
#110=FACE_OUTER_BOUND('',#199,.T.);
#111=FACE_OUTER_BOUND('',#200,.T.);
#112=FACE_OUTER_BOUND('',#201,.T.);
#113=FACE_OUTER_BOUND('',#202,.T.);
#114=FACE_OUTER_BOUND('',#203,.T.);
#115=FACE_OUTER_BOUND('',#204,.T.);
#116=FACE_OUTER_BOUND('',#205,.T.);
#117=FACE_OUTER_BOUND('',#206,.T.);
#118=FACE_OUTER_BOUND('',#207,.T.);
#119=FACE_OUTER_BOUND('',#208,.T.);
#120=FACE_OUTER_BOUND('',#209,.T.);
#121=FACE_OUTER_BOUND('',#210,.T.);
#122=FACE_OUTER_BOUND('',#211,.T.);
#123=FACE_OUTER_BOUND('',#212,.T.);
#124=FACE_OUTER_BOUND('',#213,.T.);
#125=FACE_OUTER_BOUND('',#214,.T.);
#126=FACE_OUTER_BOUND('',#215,.T.);
#127=FACE_OUTER_BOUND('',#216,.T.);
#128=FACE_OUTER_BOUND('',#217,.T.);
#129=FACE_OUTER_BOUND('',#218,.T.);
#130=FACE_OUTER_BOUND('',#219,.T.);
#131=FACE_OUTER_BOUND('',#220,.T.);
#132=FACE_OUTER_BOUND('',#221,.T.);
#133=FACE_OUTER_BOUND('',#222,.T.);
#134=FACE_OUTER_BOUND('',#223,.T.);
#135=FACE_OUTER_BOUND('',#224,.T.);
#136=FACE_OUTER_BOUND('',#225,.T.);
#137=FACE_OUTER_BOUND('',#226,.T.);
#138=FACE_OUTER_BOUND('',#227,.T.);
#139=FACE_OUTER_BOUND('',#228,.T.);
#140=FACE_OUTER_BOUND('',#229,.T.);
#141=FACE_OUTER_BOUND('',#230,.T.);
#142=FACE_OUTER_BOUND('',#231,.T.);
#143=FACE_OUTER_BOUND('',#232,.T.);
#144=FACE_OUTER_BOUND('',#233,.T.);
#145=FACE_OUTER_BOUND('',#234,.T.);
#146=FACE_OUTER_BOUND('',#235,.T.);
#147=FACE_OUTER_BOUND('',#236,.T.);
#148=FACE_OUTER_BOUND('',#237,.T.);
#149=FACE_OUTER_BOUND('',#239,.T.);
#150=FACE_OUTER_BOUND('',#240,.T.);
#151=FACE_OUTER_BOUND('',#241,.T.);
#152=FACE_OUTER_BOUND('',#242,.T.);
#153=EDGE_LOOP('',(#797,#798,#799,#800));
#154=EDGE_LOOP('',(#801));
#155=EDGE_LOOP('',(#802,#803,#804));
#156=EDGE_LOOP('',(#805,#806,#807,#808));
#157=EDGE_LOOP('',(#809,#810,#811));
#158=EDGE_LOOP('',(#812,#813,#814,#815));
#159=EDGE_LOOP('',(#816,#817,#818,#819));
#160=EDGE_LOOP('',(#820,#821,#822,#823));
#161=EDGE_LOOP('',(#824,#825,#826,#827));
#162=EDGE_LOOP('',(#828,#829,#830));
#163=EDGE_LOOP('',(#831,#832,#833,#834));
#164=EDGE_LOOP('',(#835,#836,#837));
#165=EDGE_LOOP('',(#838,#839,#840,#841));
#166=EDGE_LOOP('',(#842,#843,#844,#845));
#167=EDGE_LOOP('',(#846,#847,#848));
#168=EDGE_LOOP('',(#849,#850,#851,#852));
#169=EDGE_LOOP('',(#853,#854,#855,#856));
#170=EDGE_LOOP('',(#857,#858,#859));
#171=EDGE_LOOP('',(#860,#861,#862));
#172=EDGE_LOOP('',(#863,#864,#865,#866));
#173=EDGE_LOOP('',(#867,#868,#869,#870));
#174=EDGE_LOOP('',(#871,#872,#873,#874));
#175=EDGE_LOOP('',(#875,#876,#877,#878));
#176=EDGE_LOOP('',(#879,#880,#881));
#177=EDGE_LOOP('',(#882,#883,#884,#885));
#178=EDGE_LOOP('',(#886,#887,#888,#889));
#179=EDGE_LOOP('',(#890,#891,#892,#893));
#180=EDGE_LOOP('',(#894,#895,#896,#897));
#181=EDGE_LOOP('',(#898,#899,#900,#901));
#182=EDGE_LOOP('',(#902,#903,#904,#905));
#183=EDGE_LOOP('',(#906,#907,#908,#909));
#184=EDGE_LOOP('',(#910,#911,#912,#913));
#185=EDGE_LOOP('',(#914,#915,#916,#917));
#186=EDGE_LOOP('',(#918,#919,#920,#921));
#187=EDGE_LOOP('',(#922,#923,#924,#925));
#188=EDGE_LOOP('',(#926,#927,#928,#929,#930,#931,#932,#933,#934,#935));
#189=EDGE_LOOP('',(#936,#937,#938,#939,#940,#941,#942,#943));
#190=EDGE_LOOP('',(#944,#945,#946,#947));
#191=EDGE_LOOP('',(#948,#949,#950,#951));
#192=EDGE_LOOP('',(#952,#953,#954,#955));
#193=EDGE_LOOP('',(#956));
#194=EDGE_LOOP('',(#957,#958,#959,#960));
#195=EDGE_LOOP('',(#961,#962,#963,#964));
#196=EDGE_LOOP('',(#965,#966,#967,#968));
#197=EDGE_LOOP('',(#969,#970,#971,#972,#973,#974,#975,#976,#977,#978));
#198=EDGE_LOOP('',(#979,#980,#981,#982));
#199=EDGE_LOOP('',(#983));
#200=EDGE_LOOP('',(#984,#985,#986));
#201=EDGE_LOOP('',(#987,#988,#989,#990));
#202=EDGE_LOOP('',(#991,#992,#993));
#203=EDGE_LOOP('',(#994,#995,#996,#997));
#204=EDGE_LOOP('',(#998,#999,#1000,#1001));
#205=EDGE_LOOP('',(#1002,#1003,#1004,#1005));
#206=EDGE_LOOP('',(#1006,#1007,#1008,#1009));
#207=EDGE_LOOP('',(#1010,#1011,#1012));
#208=EDGE_LOOP('',(#1013,#1014,#1015,#1016));
#209=EDGE_LOOP('',(#1017,#1018,#1019));
#210=EDGE_LOOP('',(#1020,#1021,#1022,#1023));
#211=EDGE_LOOP('',(#1024,#1025,#1026,#1027));
#212=EDGE_LOOP('',(#1028,#1029,#1030));
#213=EDGE_LOOP('',(#1031,#1032,#1033,#1034));
#214=EDGE_LOOP('',(#1035,#1036,#1037,#1038));
#215=EDGE_LOOP('',(#1039,#1040,#1041));
#216=EDGE_LOOP('',(#1042,#1043,#1044));
#217=EDGE_LOOP('',(#1045,#1046,#1047,#1048));
#218=EDGE_LOOP('',(#1049,#1050,#1051,#1052));
#219=EDGE_LOOP('',(#1053,#1054,#1055,#1056));
#220=EDGE_LOOP('',(#1057,#1058,#1059,#1060));
#221=EDGE_LOOP('',(#1061,#1062,#1063));
#222=EDGE_LOOP('',(#1064,#1065,#1066,#1067));
#223=EDGE_LOOP('',(#1068,#1069,#1070,#1071));
#224=EDGE_LOOP('',(#1072,#1073,#1074,#1075));
#225=EDGE_LOOP('',(#1076,#1077,#1078,#1079));
#226=EDGE_LOOP('',(#1080,#1081,#1082,#1083));
#227=EDGE_LOOP('',(#1084,#1085,#1086,#1087));
#228=EDGE_LOOP('',(#1088,#1089,#1090,#1091));
#229=EDGE_LOOP('',(#1092,#1093,#1094,#1095));
#230=EDGE_LOOP('',(#1096,#1097,#1098,#1099));
#231=EDGE_LOOP('',(#1100,#1101,#1102,#1103));
#232=EDGE_LOOP('',(#1104,#1105,#1106,#1107));
#233=EDGE_LOOP('',(#1108,#1109,#1110,#1111,#1112,#1113,#1114,#1115,#1116,
#1117));
#234=EDGE_LOOP('',(#1118,#1119,#1120,#1121,#1122,#1123,#1124,#1125));
#235=EDGE_LOOP('',(#1126,#1127,#1128,#1129));
#236=EDGE_LOOP('',(#1130,#1131,#1132,#1133));
#237=EDGE_LOOP('',(#1134,#1135,#1136,#1137));
#238=EDGE_LOOP('',(#1138));
#239=EDGE_LOOP('',(#1139,#1140,#1141,#1142));
#240=EDGE_LOOP('',(#1143,#1144,#1145,#1146));
#241=EDGE_LOOP('',(#1147,#1148,#1149,#1150));
#242=EDGE_LOOP('',(#1151,#1152,#1153,#1154,#1155,#1156,#1157,#1158,#1159,
#1160));
#243=LINE('',#1943,#333);
#244=LINE('',#1957,#334);
#245=LINE('',#1958,#335);
#246=LINE('',#1970,#336);
#247=LINE('',#1971,#337);
#248=LINE('',#1973,#338);
#249=LINE('',#1974,#339);
#250=LINE('',#2001,#340);
#251=LINE('',#2002,#341);
#252=LINE('',#2011,#342);
#253=LINE('',#2012,#343);
#254=LINE('',#2014,#344);
#255=LINE('',#2015,#345);
#256=LINE('',#2033,#346);
#257=LINE('',#2034,#347);
#258=LINE('',#2053,#348);
#259=LINE('',#2054,#349);
#260=LINE('',#2065,#350);
#261=LINE('',#2066,#351);
#262=LINE('',#2068,#352);
#263=LINE('',#2069,#353);
#264=LINE('',#2081,#354);
#265=LINE('',#2082,#355);
#266=LINE('',#2084,#356);
#267=LINE('',#2085,#357);
#268=LINE('',#2087,#358);
#269=LINE('',#2088,#359);
#270=LINE('',#2090,#360);
#271=LINE('',#2091,#361);
#272=LINE('',#2093,#362);
#273=LINE('',#2094,#363);
#274=LINE('',#2096,#364);
#275=LINE('',#2097,#365);
#276=LINE('',#2099,#366);
#277=LINE('',#2100,#367);
#278=LINE('',#2102,#368);
#279=LINE('',#2103,#369);
#280=LINE('',#2105,#370);
#281=LINE('',#2106,#371);
#282=LINE('',#2108,#372);
#283=LINE('',#2109,#373);
#284=LINE('',#2111,#374);
#285=LINE('',#2113,#375);
#286=LINE('',#2115,#376);
#287=LINE('',#2116,#377);
#288=LINE('',#2128,#378);
#289=LINE('',#2142,#379);
#290=LINE('',#2143,#380);
#291=LINE('',#2155,#381);
#292=LINE('',#2156,#382);
#293=LINE('',#2158,#383);
#294=LINE('',#2159,#384);
#295=LINE('',#2186,#385);
#296=LINE('',#2187,#386);
#297=LINE('',#2196,#387);
#298=LINE('',#2197,#388);
#299=LINE('',#2199,#389);
#300=LINE('',#2200,#390);
#301=LINE('',#2218,#391);
#302=LINE('',#2219,#392);
#303=LINE('',#2238,#393);
#304=LINE('',#2239,#394);
#305=LINE('',#2250,#395);
#306=LINE('',#2251,#396);
#307=LINE('',#2253,#397);
#308=LINE('',#2254,#398);
#309=LINE('',#2266,#399);
#310=LINE('',#2267,#400);
#311=LINE('',#2269,#401);
#312=LINE('',#2270,#402);
#313=LINE('',#2272,#403);
#314=LINE('',#2273,#404);
#315=LINE('',#2275,#405);
#316=LINE('',#2276,#406);
#317=LINE('',#2278,#407);
#318=LINE('',#2279,#408);
#319=LINE('',#2281,#409);
#320=LINE('',#2282,#410);
#321=LINE('',#2284,#411);
#322=LINE('',#2285,#412);
#323=LINE('',#2287,#413);
#324=LINE('',#2288,#414);
#325=LINE('',#2290,#415);
#326=LINE('',#2291,#416);
#327=LINE('',#2293,#417);
#328=LINE('',#2294,#418);
#329=LINE('',#2296,#419);
#330=LINE('',#2298,#420);
#331=LINE('',#2300,#421);
#332=LINE('',#2301,#422);
#333=VECTOR('',#1492,1.1);
#334=VECTOR('',#1509,10.);
#335=VECTOR('',#1510,10.);
#336=VECTOR('',#1523,10.);
#337=VECTOR('',#1524,10.);
#338=VECTOR('',#1527,10.);
#339=VECTOR('',#1528,10.);
#340=VECTOR('',#1559,10.);
#341=VECTOR('',#1560,10.);
#342=VECTOR('',#1571,10.);
#343=VECTOR('',#1572,10.);
#344=VECTOR('',#1575,10.);
#345=VECTOR('',#1576,10.);
#346=VECTOR('',#1597,10.);
#347=VECTOR('',#1598,10.);
#348=VECTOR('',#1619,10.);
#349=VECTOR('',#1620,10.);
#350=VECTOR('',#1633,10.);
#351=VECTOR('',#1634,10.);
#352=VECTOR('',#1637,10.);
#353=VECTOR('',#1638,10.);
#354=VECTOR('',#1651,10.);
#355=VECTOR('',#1652,10.);
#356=VECTOR('',#1655,10.);
#357=VECTOR('',#1656,10.);
#358=VECTOR('',#1659,10.);
#359=VECTOR('',#1660,10.);
#360=VECTOR('',#1663,10.);
#361=VECTOR('',#1664,10.);
#362=VECTOR('',#1667,10.);
#363=VECTOR('',#1668,10.);
#364=VECTOR('',#1671,10.);
#365=VECTOR('',#1672,10.);
#366=VECTOR('',#1675,10.);
#367=VECTOR('',#1676,10.);
#368=VECTOR('',#1679,10.);
#369=VECTOR('',#1680,10.);
#370=VECTOR('',#1683,10.);
#371=VECTOR('',#1684,10.);
#372=VECTOR('',#1687,10.);
#373=VECTOR('',#1688,10.);
#374=VECTOR('',#1691,10.);
#375=VECTOR('',#1694,10.);
#376=VECTOR('',#1697,10.);
#377=VECTOR('',#1698,10.);
#378=VECTOR('',#1717,1.1);
#379=VECTOR('',#1734,10.);
#380=VECTOR('',#1735,10.);
#381=VECTOR('',#1748,10.);
#382=VECTOR('',#1749,10.);
#383=VECTOR('',#1752,10.);
#384=VECTOR('',#1753,10.);
#385=VECTOR('',#1784,10.);
#386=VECTOR('',#1785,10.);
#387=VECTOR('',#1796,10.);
#388=VECTOR('',#1797,10.);
#389=VECTOR('',#1800,10.);
#390=VECTOR('',#1801,10.);
#391=VECTOR('',#1822,10.);
#392=VECTOR('',#1823,10.);
#393=VECTOR('',#1844,10.);
#394=VECTOR('',#1845,10.);
#395=VECTOR('',#1858,10.);
#396=VECTOR('',#1859,10.);
#397=VECTOR('',#1862,10.);
#398=VECTOR('',#1863,10.);
#399=VECTOR('',#1876,10.);
#400=VECTOR('',#1877,10.);
#401=VECTOR('',#1880,10.);
#402=VECTOR('',#1881,10.);
#403=VECTOR('',#1884,10.);
#404=VECTOR('',#1885,10.);
#405=VECTOR('',#1888,10.);
#406=VECTOR('',#1889,10.);
#407=VECTOR('',#1892,10.);
#408=VECTOR('',#1893,10.);
#409=VECTOR('',#1896,10.);
#410=VECTOR('',#1897,10.);
#411=VECTOR('',#1900,10.);
#412=VECTOR('',#1901,10.);
#413=VECTOR('',#1904,10.);
#414=VECTOR('',#1905,10.);
#415=VECTOR('',#1908,10.);
#416=VECTOR('',#1909,10.);
#417=VECTOR('',#1912,10.);
#418=VECTOR('',#1913,10.);
#419=VECTOR('',#1916,10.);
#420=VECTOR('',#1919,10.);
#421=VECTOR('',#1922,10.);
#422=VECTOR('',#1923,10.);
#423=CIRCLE('',#1307,1.1);
#424=CIRCLE('',#1308,1.1);
#425=CIRCLE('',#1311,0.4);
#426=CIRCLE('',#1312,0.4);
#427=CIRCLE('',#1313,0.4);
#428=CIRCLE('',#1315,0.4);
#429=CIRCLE('',#1317,0.4);
#430=CIRCLE('',#1318,0.4);
#431=CIRCLE('',#1319,0.4);
#432=CIRCLE('',#1321,0.4);
#433=CIRCLE('',#1324,0.8);
#434=CIRCLE('',#1325,0.399999999999999);
#435=CIRCLE('',#1326,0.4);
#436=CIRCLE('',#1327,0.4);
#437=CIRCLE('',#1329,0.4);
#438=CIRCLE('',#1330,0.4);
#439=CIRCLE('',#1331,0.8);
#440=CIRCLE('',#1332,0.4);
#441=CIRCLE('',#1334,0.4);
#442=CIRCLE('',#1335,0.4);
#443=CIRCLE('',#1336,0.4);
#444=CIRCLE('',#1339,0.4);
#445=CIRCLE('',#1340,0.399999999999999);
#446=CIRCLE('',#1341,0.4);
#447=CIRCLE('',#1345,0.4);
#448=CIRCLE('',#1346,0.4);
#449=CIRCLE('',#1347,0.4);
#450=CIRCLE('',#1349,0.4);
#451=CIRCLE('',#1350,0.4);
#452=CIRCLE('',#1351,0.8);
#453=CIRCLE('',#1352,0.4);
#454=CIRCLE('',#1355,0.4);
#455=CIRCLE('',#1356,0.4);
#456=CIRCLE('',#1357,0.4);
#457=CIRCLE('',#1359,0.4);
#458=CIRCLE('',#1360,0.4);
#459=CIRCLE('',#1361,0.4);
#460=CIRCLE('',#1363,0.4);
#461=CIRCLE('',#1365,0.8);
#462=CIRCLE('',#1366,0.4);
#463=CIRCLE('',#1367,0.4);
#464=CIRCLE('',#1368,0.4);
#465=CIRCLE('',#1372,0.4);
#466=CIRCLE('',#1373,0.4);
#467=CIRCLE('',#1374,0.4);
#468=CIRCLE('',#1376,0.4);
#469=CIRCLE('',#1397,1.1);
#470=CIRCLE('',#1398,1.1);
#471=CIRCLE('',#1401,0.4);
#472=CIRCLE('',#1402,0.4);
#473=CIRCLE('',#1403,0.4);
#474=CIRCLE('',#1405,0.4);
#475=CIRCLE('',#1407,0.4);
#476=CIRCLE('',#1408,0.4);
#477=CIRCLE('',#1409,0.4);
#478=CIRCLE('',#1411,0.4);
#479=CIRCLE('',#1414,0.8);
#480=CIRCLE('',#1415,0.4);
#481=CIRCLE('',#1416,0.4);
#482=CIRCLE('',#1417,0.399999999999999);
#483=CIRCLE('',#1419,0.4);
#484=CIRCLE('',#1420,0.4);
#485=CIRCLE('',#1421,0.8);
#486=CIRCLE('',#1422,0.4);
#487=CIRCLE('',#1424,0.4);
#488=CIRCLE('',#1425,0.4);
#489=CIRCLE('',#1426,0.4);
#490=CIRCLE('',#1429,0.4);
#491=CIRCLE('',#1430,0.4);
#492=CIRCLE('',#1431,0.399999999999999);
#493=CIRCLE('',#1435,0.4);
#494=CIRCLE('',#1436,0.4);
#495=CIRCLE('',#1437,0.4);
#496=CIRCLE('',#1439,0.4);
#497=CIRCLE('',#1440,0.4);
#498=CIRCLE('',#1441,0.8);
#499=CIRCLE('',#1442,0.4);
#500=CIRCLE('',#1445,0.4);
#501=CIRCLE('',#1446,0.4);
#502=CIRCLE('',#1447,0.4);
#503=CIRCLE('',#1449,0.4);
#504=CIRCLE('',#1450,0.4);
#505=CIRCLE('',#1451,0.4);
#506=CIRCLE('',#1453,0.4);
#507=CIRCLE('',#1455,0.8);
#508=CIRCLE('',#1456,0.4);
#509=CIRCLE('',#1457,0.4);
#510=CIRCLE('',#1458,0.4);
#511=CIRCLE('',#1462,0.4);
#512=CIRCLE('',#1463,0.4);
#513=CIRCLE('',#1464,0.4);
#514=CIRCLE('',#1466,0.4);
#515=VERTEX_POINT('',#1940);
#516=VERTEX_POINT('',#1942);
#517=VERTEX_POINT('',#1947);
#518=VERTEX_POINT('',#1948);
#519=VERTEX_POINT('',#1950);
#520=VERTEX_POINT('',#1954);
#521=VERTEX_POINT('',#1955);
#522=VERTEX_POINT('',#1960);
#523=VERTEX_POINT('',#1961);
#524=VERTEX_POINT('',#1963);
#525=VERTEX_POINT('',#1967);
#526=VERTEX_POINT('',#1968);
#527=VERTEX_POINT('',#1976);
#528=VERTEX_POINT('',#1977);
#529=VERTEX_POINT('',#1979);
#530=VERTEX_POINT('',#1981);
#531=VERTEX_POINT('',#1985);
#532=VERTEX_POINT('',#1986);
#533=VERTEX_POINT('',#1988);
#534=VERTEX_POINT('',#1990);
#535=VERTEX_POINT('',#1994);
#536=VERTEX_POINT('',#1995);
#537=VERTEX_POINT('',#1997);
#538=VERTEX_POINT('',#2004);
#539=VERTEX_POINT('',#2005);
#540=VERTEX_POINT('',#2007);
#541=VERTEX_POINT('',#2017);
#542=VERTEX_POINT('',#2018);
#543=VERTEX_POINT('',#2020);
#544=VERTEX_POINT('',#2024);
#545=VERTEX_POINT('',#2025);
#546=VERTEX_POINT('',#2027);
#547=VERTEX_POINT('',#2029);
#548=VERTEX_POINT('',#2036);
#549=VERTEX_POINT('',#2037);
#550=VERTEX_POINT('',#2039);
#551=VERTEX_POINT('',#2043);
#552=VERTEX_POINT('',#2044);
#553=VERTEX_POINT('',#2046);
#554=VERTEX_POINT('',#2050);
#555=VERTEX_POINT('',#2051);
#556=VERTEX_POINT('',#2056);
#557=VERTEX_POINT('',#2057);
#558=VERTEX_POINT('',#2059);
#559=VERTEX_POINT('',#2061);
#560=VERTEX_POINT('',#2071);
#561=VERTEX_POINT('',#2072);
#562=VERTEX_POINT('',#2074);
#563=VERTEX_POINT('',#2078);
#564=VERTEX_POINT('',#2079);
#565=VERTEX_POINT('',#2125);
#566=VERTEX_POINT('',#2127);
#567=VERTEX_POINT('',#2132);
#568=VERTEX_POINT('',#2133);
#569=VERTEX_POINT('',#2135);
#570=VERTEX_POINT('',#2139);
#571=VERTEX_POINT('',#2140);
#572=VERTEX_POINT('',#2145);
#573=VERTEX_POINT('',#2146);
#574=VERTEX_POINT('',#2148);
#575=VERTEX_POINT('',#2152);
#576=VERTEX_POINT('',#2153);
#577=VERTEX_POINT('',#2161);
#578=VERTEX_POINT('',#2162);
#579=VERTEX_POINT('',#2164);
#580=VERTEX_POINT('',#2166);
#581=VERTEX_POINT('',#2170);
#582=VERTEX_POINT('',#2171);
#583=VERTEX_POINT('',#2173);
#584=VERTEX_POINT('',#2175);
#585=VERTEX_POINT('',#2179);
#586=VERTEX_POINT('',#2180);
#587=VERTEX_POINT('',#2182);
#588=VERTEX_POINT('',#2189);
#589=VERTEX_POINT('',#2190);
#590=VERTEX_POINT('',#2192);
#591=VERTEX_POINT('',#2202);
#592=VERTEX_POINT('',#2203);
#593=VERTEX_POINT('',#2205);
#594=VERTEX_POINT('',#2209);
#595=VERTEX_POINT('',#2210);
#596=VERTEX_POINT('',#2212);
#597=VERTEX_POINT('',#2214);
#598=VERTEX_POINT('',#2221);
#599=VERTEX_POINT('',#2222);
#600=VERTEX_POINT('',#2224);
#601=VERTEX_POINT('',#2228);
#602=VERTEX_POINT('',#2229);
#603=VERTEX_POINT('',#2231);
#604=VERTEX_POINT('',#2235);
#605=VERTEX_POINT('',#2236);
#606=VERTEX_POINT('',#2241);
#607=VERTEX_POINT('',#2242);
#608=VERTEX_POINT('',#2244);
#609=VERTEX_POINT('',#2246);
#610=VERTEX_POINT('',#2256);
#611=VERTEX_POINT('',#2257);
#612=VERTEX_POINT('',#2259);
#613=VERTEX_POINT('',#2263);
#614=VERTEX_POINT('',#2264);
#615=EDGE_CURVE('',#515,#515,#423,.T.);
#616=EDGE_CURVE('',#515,#516,#243,.T.);
#617=EDGE_CURVE('',#516,#516,#424,.T.);
#618=EDGE_CURVE('',#517,#518,#425,.F.);
#619=EDGE_CURVE('',#519,#517,#426,.F.);
#620=EDGE_CURVE('',#518,#519,#427,.F.);
#621=EDGE_CURVE('',#520,#521,#428,.T.);
#622=EDGE_CURVE('',#521,#519,#244,.T.);
#623=EDGE_CURVE('',#517,#520,#245,.T.);
#624=EDGE_CURVE('',#522,#523,#429,.F.);
#625=EDGE_CURVE('',#524,#522,#430,.F.);
#626=EDGE_CURVE('',#523,#524,#431,.F.);
#627=EDGE_CURVE('',#525,#526,#432,.T.);
#628=EDGE_CURVE('',#526,#524,#246,.T.);
#629=EDGE_CURVE('',#522,#525,#247,.T.);
#630=EDGE_CURVE('',#518,#523,#248,.T.);
#631=EDGE_CURVE('',#524,#517,#249,.T.);
#632=EDGE_CURVE('',#527,#528,#433,.T.);
#633=EDGE_CURVE('',#529,#528,#434,.T.);
#634=EDGE_CURVE('',#530,#529,#435,.F.);
#635=EDGE_CURVE('',#527,#530,#436,.T.);
#636=EDGE_CURVE('',#531,#532,#437,.F.);
#637=EDGE_CURVE('',#533,#531,#438,.T.);
#638=EDGE_CURVE('',#533,#534,#439,.T.);
#639=EDGE_CURVE('',#532,#534,#440,.T.);
#640=EDGE_CURVE('',#535,#536,#441,.F.);
#641=EDGE_CURVE('',#537,#535,#442,.F.);
#642=EDGE_CURVE('',#536,#537,#443,.F.);
#643=EDGE_CURVE('',#535,#529,#250,.T.);
#644=EDGE_CURVE('',#528,#537,#251,.T.);
#645=EDGE_CURVE('',#538,#539,#444,.F.);
#646=EDGE_CURVE('',#540,#538,#445,.F.);
#647=EDGE_CURVE('',#539,#540,#446,.F.);
#648=EDGE_CURVE('',#538,#533,#252,.T.);
#649=EDGE_CURVE('',#531,#540,#253,.T.);
#650=EDGE_CURVE('',#536,#539,#254,.T.);
#651=EDGE_CURVE('',#540,#535,#255,.T.);
#652=EDGE_CURVE('',#541,#542,#447,.F.);
#653=EDGE_CURVE('',#543,#541,#448,.F.);
#654=EDGE_CURVE('',#542,#543,#449,.F.);
#655=EDGE_CURVE('',#544,#545,#450,.F.);
#656=EDGE_CURVE('',#546,#544,#451,.T.);
#657=EDGE_CURVE('',#546,#547,#452,.T.);
#658=EDGE_CURVE('',#545,#547,#453,.T.);
#659=EDGE_CURVE('',#541,#546,#256,.T.);
#660=EDGE_CURVE('',#544,#543,#257,.T.);
#661=EDGE_CURVE('',#548,#549,#454,.F.);
#662=EDGE_CURVE('',#550,#548,#455,.F.);
#663=EDGE_CURVE('',#549,#550,#456,.F.);
#664=EDGE_CURVE('',#551,#552,#457,.F.);
#665=EDGE_CURVE('',#553,#551,#458,.F.);
#666=EDGE_CURVE('',#552,#553,#459,.F.);
#667=EDGE_CURVE('',#554,#555,#460,.T.);
#668=EDGE_CURVE('',#555,#553,#258,.T.);
#669=EDGE_CURVE('',#551,#554,#259,.T.);
#670=EDGE_CURVE('',#556,#557,#461,.T.);
#671=EDGE_CURVE('',#558,#557,#462,.T.);
#672=EDGE_CURVE('',#559,#558,#463,.F.);
#673=EDGE_CURVE('',#556,#559,#464,.T.);
#674=EDGE_CURVE('',#548,#558,#260,.T.);
#675=EDGE_CURVE('',#557,#550,#261,.T.);
#676=EDGE_CURVE('',#558,#544,#262,.T.);
#677=EDGE_CURVE('',#545,#559,#263,.T.);
#678=EDGE_CURVE('',#560,#561,#465,.F.);
#679=EDGE_CURVE('',#562,#560,#466,.F.);
#680=EDGE_CURVE('',#561,#562,#467,.F.);
#681=EDGE_CURVE('',#563,#564,#468,.T.);
#682=EDGE_CURVE('',#564,#562,#264,.T.);
#683=EDGE_CURVE('',#560,#563,#265,.T.);
#684=EDGE_CURVE('',#559,#561,#266,.T.);
#685=EDGE_CURVE('',#562,#556,#267,.T.);
#686=EDGE_CURVE('',#561,#552,#268,.T.);
#687=EDGE_CURVE('',#553,#560,#269,.T.);
#688=EDGE_CURVE('',#552,#545,#270,.T.);
#689=EDGE_CURVE('',#547,#551,#271,.T.);
#690=EDGE_CURVE('',#539,#549,#272,.T.);
#691=EDGE_CURVE('',#550,#538,#273,.T.);
#692=EDGE_CURVE('',#549,#542,#274,.T.);
#693=EDGE_CURVE('',#543,#548,#275,.T.);
#694=EDGE_CURVE('',#542,#536,#276,.T.);
#695=EDGE_CURVE('',#537,#541,#277,.T.);
#696=EDGE_CURVE('',#523,#532,#278,.T.);
#697=EDGE_CURVE('',#534,#522,#279,.T.);
#698=EDGE_CURVE('',#529,#531,#280,.T.);
#699=EDGE_CURVE('',#532,#530,#281,.T.);
#700=EDGE_CURVE('',#530,#518,#282,.T.);
#701=EDGE_CURVE('',#519,#527,#283,.T.);
#702=EDGE_CURVE('',#520,#526,#284,.T.);
#703=EDGE_CURVE('',#525,#564,#285,.T.);
#704=EDGE_CURVE('',#563,#555,#286,.T.);
#705=EDGE_CURVE('',#554,#521,#287,.T.);
#706=EDGE_CURVE('',#565,#565,#469,.T.);
#707=EDGE_CURVE('',#565,#566,#288,.T.);
#708=EDGE_CURVE('',#566,#566,#470,.T.);
#709=EDGE_CURVE('',#567,#568,#471,.F.);
#710=EDGE_CURVE('',#568,#569,#472,.F.);
#711=EDGE_CURVE('',#569,#567,#473,.F.);
#712=EDGE_CURVE('',#570,#571,#474,.T.);
#713=EDGE_CURVE('',#567,#570,#289,.T.);
#714=EDGE_CURVE('',#571,#569,#290,.T.);
#715=EDGE_CURVE('',#572,#573,#475,.F.);
#716=EDGE_CURVE('',#573,#574,#476,.F.);
#717=EDGE_CURVE('',#574,#572,#477,.F.);
#718=EDGE_CURVE('',#575,#576,#478,.T.);
#719=EDGE_CURVE('',#572,#575,#291,.T.);
#720=EDGE_CURVE('',#576,#574,#292,.T.);
#721=EDGE_CURVE('',#574,#567,#293,.T.);
#722=EDGE_CURVE('',#568,#573,#294,.T.);
#723=EDGE_CURVE('',#577,#578,#479,.T.);
#724=EDGE_CURVE('',#577,#579,#480,.T.);
#725=EDGE_CURVE('',#579,#580,#481,.F.);
#726=EDGE_CURVE('',#580,#578,#482,.T.);
#727=EDGE_CURVE('',#581,#582,#483,.F.);
#728=EDGE_CURVE('',#582,#583,#484,.T.);
#729=EDGE_CURVE('',#584,#583,#485,.T.);
#730=EDGE_CURVE('',#584,#581,#486,.T.);
#731=EDGE_CURVE('',#585,#586,#487,.F.);
#732=EDGE_CURVE('',#586,#587,#488,.F.);
#733=EDGE_CURVE('',#587,#585,#489,.F.);
#734=EDGE_CURVE('',#578,#587,#295,.T.);
#735=EDGE_CURVE('',#585,#580,#296,.T.);
#736=EDGE_CURVE('',#588,#589,#490,.F.);
#737=EDGE_CURVE('',#589,#590,#491,.F.);
#738=EDGE_CURVE('',#590,#588,#492,.F.);
#739=EDGE_CURVE('',#581,#590,#297,.T.);
#740=EDGE_CURVE('',#588,#584,#298,.T.);
#741=EDGE_CURVE('',#590,#585,#299,.T.);
#742=EDGE_CURVE('',#586,#589,#300,.T.);
#743=EDGE_CURVE('',#591,#592,#493,.F.);
#744=EDGE_CURVE('',#592,#593,#494,.F.);
#745=EDGE_CURVE('',#593,#591,#495,.F.);
#746=EDGE_CURVE('',#594,#595,#496,.F.);
#747=EDGE_CURVE('',#595,#596,#497,.T.);
#748=EDGE_CURVE('',#597,#596,#498,.T.);
#749=EDGE_CURVE('',#597,#594,#499,.T.);
#750=EDGE_CURVE('',#594,#593,#301,.T.);
#751=EDGE_CURVE('',#591,#597,#302,.T.);
#752=EDGE_CURVE('',#598,#599,#500,.F.);
#753=EDGE_CURVE('',#599,#600,#501,.F.);
#754=EDGE_CURVE('',#600,#598,#502,.F.);
#755=EDGE_CURVE('',#601,#602,#503,.F.);
#756=EDGE_CURVE('',#602,#603,#504,.F.);
#757=EDGE_CURVE('',#603,#601,#505,.F.);
#758=EDGE_CURVE('',#604,#605,#506,.T.);
#759=EDGE_CURVE('',#601,#604,#303,.T.);
#760=EDGE_CURVE('',#605,#603,#304,.T.);
#761=EDGE_CURVE('',#606,#607,#507,.T.);
#762=EDGE_CURVE('',#606,#608,#508,.T.);
#763=EDGE_CURVE('',#608,#609,#509,.F.);
#764=EDGE_CURVE('',#609,#607,#510,.T.);
#765=EDGE_CURVE('',#607,#600,#305,.T.);
#766=EDGE_CURVE('',#598,#609,#306,.T.);
#767=EDGE_CURVE('',#595,#608,#307,.T.);
#768=EDGE_CURVE('',#609,#594,#308,.T.);
#769=EDGE_CURVE('',#610,#611,#511,.F.);
#770=EDGE_CURVE('',#611,#612,#512,.F.);
#771=EDGE_CURVE('',#612,#610,#513,.F.);
#772=EDGE_CURVE('',#613,#614,#514,.T.);
#773=EDGE_CURVE('',#610,#613,#309,.T.);
#774=EDGE_CURVE('',#614,#612,#310,.T.);
#775=EDGE_CURVE('',#612,#606,#311,.T.);
#776=EDGE_CURVE('',#608,#611,#312,.T.);
#777=EDGE_CURVE('',#603,#610,#313,.T.);
#778=EDGE_CURVE('',#611,#602,#314,.T.);
#779=EDGE_CURVE('',#596,#601,#315,.T.);
#780=EDGE_CURVE('',#602,#595,#316,.T.);
#781=EDGE_CURVE('',#600,#588,#317,.T.);
#782=EDGE_CURVE('',#589,#599,#318,.T.);
#783=EDGE_CURVE('',#593,#598,#319,.T.);
#784=EDGE_CURVE('',#599,#592,#320,.T.);
#785=EDGE_CURVE('',#587,#591,#321,.T.);
#786=EDGE_CURVE('',#592,#586,#322,.T.);
#787=EDGE_CURVE('',#583,#572,#323,.T.);
#788=EDGE_CURVE('',#573,#582,#324,.T.);
#789=EDGE_CURVE('',#582,#579,#325,.T.);
#790=EDGE_CURVE('',#580,#581,#326,.T.);
#791=EDGE_CURVE('',#569,#577,#327,.T.);
#792=EDGE_CURVE('',#579,#568,#328,.T.);
#793=EDGE_CURVE('',#570,#576,#329,.T.);
#794=EDGE_CURVE('',#575,#614,#330,.T.);
#795=EDGE_CURVE('',#604,#571,#331,.T.);
#796=EDGE_CURVE('',#613,#605,#332,.T.);
#797=ORIENTED_EDGE('',*,*,#615,.F.);
#798=ORIENTED_EDGE('',*,*,#616,.T.);
#799=ORIENTED_EDGE('',*,*,#617,.F.);
#800=ORIENTED_EDGE('',*,*,#616,.F.);
#801=ORIENTED_EDGE('',*,*,#615,.T.);
#802=ORIENTED_EDGE('',*,*,#618,.F.);
#803=ORIENTED_EDGE('',*,*,#619,.F.);
#804=ORIENTED_EDGE('',*,*,#620,.F.);
#805=ORIENTED_EDGE('',*,*,#621,.T.);
#806=ORIENTED_EDGE('',*,*,#622,.T.);
#807=ORIENTED_EDGE('',*,*,#619,.T.);
#808=ORIENTED_EDGE('',*,*,#623,.T.);
#809=ORIENTED_EDGE('',*,*,#624,.F.);
#810=ORIENTED_EDGE('',*,*,#625,.F.);
#811=ORIENTED_EDGE('',*,*,#626,.F.);
#812=ORIENTED_EDGE('',*,*,#627,.T.);
#813=ORIENTED_EDGE('',*,*,#628,.T.);
#814=ORIENTED_EDGE('',*,*,#625,.T.);
#815=ORIENTED_EDGE('',*,*,#629,.T.);
#816=ORIENTED_EDGE('',*,*,#618,.T.);
#817=ORIENTED_EDGE('',*,*,#630,.T.);
#818=ORIENTED_EDGE('',*,*,#626,.T.);
#819=ORIENTED_EDGE('',*,*,#631,.T.);
#820=ORIENTED_EDGE('',*,*,#632,.T.);
#821=ORIENTED_EDGE('',*,*,#633,.F.);
#822=ORIENTED_EDGE('',*,*,#634,.F.);
#823=ORIENTED_EDGE('',*,*,#635,.F.);
#824=ORIENTED_EDGE('',*,*,#636,.F.);
#825=ORIENTED_EDGE('',*,*,#637,.F.);
#826=ORIENTED_EDGE('',*,*,#638,.T.);
#827=ORIENTED_EDGE('',*,*,#639,.F.);
#828=ORIENTED_EDGE('',*,*,#640,.F.);
#829=ORIENTED_EDGE('',*,*,#641,.F.);
#830=ORIENTED_EDGE('',*,*,#642,.F.);
#831=ORIENTED_EDGE('',*,*,#641,.T.);
#832=ORIENTED_EDGE('',*,*,#643,.T.);
#833=ORIENTED_EDGE('',*,*,#633,.T.);
#834=ORIENTED_EDGE('',*,*,#644,.T.);
#835=ORIENTED_EDGE('',*,*,#645,.F.);
#836=ORIENTED_EDGE('',*,*,#646,.F.);
#837=ORIENTED_EDGE('',*,*,#647,.F.);
#838=ORIENTED_EDGE('',*,*,#646,.T.);
#839=ORIENTED_EDGE('',*,*,#648,.T.);
#840=ORIENTED_EDGE('',*,*,#637,.T.);
#841=ORIENTED_EDGE('',*,*,#649,.T.);
#842=ORIENTED_EDGE('',*,*,#640,.T.);
#843=ORIENTED_EDGE('',*,*,#650,.T.);
#844=ORIENTED_EDGE('',*,*,#647,.T.);
#845=ORIENTED_EDGE('',*,*,#651,.T.);
#846=ORIENTED_EDGE('',*,*,#652,.F.);
#847=ORIENTED_EDGE('',*,*,#653,.F.);
#848=ORIENTED_EDGE('',*,*,#654,.F.);
#849=ORIENTED_EDGE('',*,*,#655,.F.);
#850=ORIENTED_EDGE('',*,*,#656,.F.);
#851=ORIENTED_EDGE('',*,*,#657,.T.);
#852=ORIENTED_EDGE('',*,*,#658,.F.);
#853=ORIENTED_EDGE('',*,*,#653,.T.);
#854=ORIENTED_EDGE('',*,*,#659,.T.);
#855=ORIENTED_EDGE('',*,*,#656,.T.);
#856=ORIENTED_EDGE('',*,*,#660,.T.);
#857=ORIENTED_EDGE('',*,*,#661,.F.);
#858=ORIENTED_EDGE('',*,*,#662,.F.);
#859=ORIENTED_EDGE('',*,*,#663,.F.);
#860=ORIENTED_EDGE('',*,*,#664,.F.);
#861=ORIENTED_EDGE('',*,*,#665,.F.);
#862=ORIENTED_EDGE('',*,*,#666,.F.);
#863=ORIENTED_EDGE('',*,*,#667,.T.);
#864=ORIENTED_EDGE('',*,*,#668,.T.);
#865=ORIENTED_EDGE('',*,*,#665,.T.);
#866=ORIENTED_EDGE('',*,*,#669,.T.);
#867=ORIENTED_EDGE('',*,*,#670,.T.);
#868=ORIENTED_EDGE('',*,*,#671,.F.);
#869=ORIENTED_EDGE('',*,*,#672,.F.);
#870=ORIENTED_EDGE('',*,*,#673,.F.);
#871=ORIENTED_EDGE('',*,*,#662,.T.);
#872=ORIENTED_EDGE('',*,*,#674,.T.);
#873=ORIENTED_EDGE('',*,*,#671,.T.);
#874=ORIENTED_EDGE('',*,*,#675,.T.);
#875=ORIENTED_EDGE('',*,*,#672,.T.);
#876=ORIENTED_EDGE('',*,*,#676,.T.);
#877=ORIENTED_EDGE('',*,*,#655,.T.);
#878=ORIENTED_EDGE('',*,*,#677,.T.);
#879=ORIENTED_EDGE('',*,*,#678,.F.);
#880=ORIENTED_EDGE('',*,*,#679,.F.);
#881=ORIENTED_EDGE('',*,*,#680,.F.);
#882=ORIENTED_EDGE('',*,*,#681,.T.);
#883=ORIENTED_EDGE('',*,*,#682,.T.);
#884=ORIENTED_EDGE('',*,*,#679,.T.);
#885=ORIENTED_EDGE('',*,*,#683,.T.);
#886=ORIENTED_EDGE('',*,*,#673,.T.);
#887=ORIENTED_EDGE('',*,*,#684,.T.);
#888=ORIENTED_EDGE('',*,*,#680,.T.);
#889=ORIENTED_EDGE('',*,*,#685,.T.);
#890=ORIENTED_EDGE('',*,*,#678,.T.);
#891=ORIENTED_EDGE('',*,*,#686,.T.);
#892=ORIENTED_EDGE('',*,*,#666,.T.);
#893=ORIENTED_EDGE('',*,*,#687,.T.);
#894=ORIENTED_EDGE('',*,*,#664,.T.);
#895=ORIENTED_EDGE('',*,*,#688,.T.);
#896=ORIENTED_EDGE('',*,*,#658,.T.);
#897=ORIENTED_EDGE('',*,*,#689,.T.);
#898=ORIENTED_EDGE('',*,*,#645,.T.);
#899=ORIENTED_EDGE('',*,*,#690,.T.);
#900=ORIENTED_EDGE('',*,*,#663,.T.);
#901=ORIENTED_EDGE('',*,*,#691,.T.);
#902=ORIENTED_EDGE('',*,*,#661,.T.);
#903=ORIENTED_EDGE('',*,*,#692,.T.);
#904=ORIENTED_EDGE('',*,*,#654,.T.);
#905=ORIENTED_EDGE('',*,*,#693,.T.);
#906=ORIENTED_EDGE('',*,*,#652,.T.);
#907=ORIENTED_EDGE('',*,*,#694,.T.);
#908=ORIENTED_EDGE('',*,*,#642,.T.);
#909=ORIENTED_EDGE('',*,*,#695,.T.);
#910=ORIENTED_EDGE('',*,*,#624,.T.);
#911=ORIENTED_EDGE('',*,*,#696,.T.);
#912=ORIENTED_EDGE('',*,*,#639,.T.);
#913=ORIENTED_EDGE('',*,*,#697,.T.);
#914=ORIENTED_EDGE('',*,*,#634,.T.);
#915=ORIENTED_EDGE('',*,*,#698,.T.);
#916=ORIENTED_EDGE('',*,*,#636,.T.);
#917=ORIENTED_EDGE('',*,*,#699,.T.);
#918=ORIENTED_EDGE('',*,*,#635,.T.);
#919=ORIENTED_EDGE('',*,*,#700,.T.);
#920=ORIENTED_EDGE('',*,*,#620,.T.);
#921=ORIENTED_EDGE('',*,*,#701,.T.);
#922=ORIENTED_EDGE('',*,*,#623,.F.);
#923=ORIENTED_EDGE('',*,*,#631,.F.);
#924=ORIENTED_EDGE('',*,*,#628,.F.);
#925=ORIENTED_EDGE('',*,*,#702,.F.);
#926=ORIENTED_EDGE('',*,*,#629,.F.);
#927=ORIENTED_EDGE('',*,*,#697,.F.);
#928=ORIENTED_EDGE('',*,*,#638,.F.);
#929=ORIENTED_EDGE('',*,*,#648,.F.);
#930=ORIENTED_EDGE('',*,*,#691,.F.);
#931=ORIENTED_EDGE('',*,*,#675,.F.);
#932=ORIENTED_EDGE('',*,*,#670,.F.);
#933=ORIENTED_EDGE('',*,*,#685,.F.);
#934=ORIENTED_EDGE('',*,*,#682,.F.);
#935=ORIENTED_EDGE('',*,*,#703,.F.);
#936=ORIENTED_EDGE('',*,*,#621,.F.);
#937=ORIENTED_EDGE('',*,*,#702,.T.);
#938=ORIENTED_EDGE('',*,*,#627,.F.);
#939=ORIENTED_EDGE('',*,*,#703,.T.);
#940=ORIENTED_EDGE('',*,*,#681,.F.);
#941=ORIENTED_EDGE('',*,*,#704,.T.);
#942=ORIENTED_EDGE('',*,*,#667,.F.);
#943=ORIENTED_EDGE('',*,*,#705,.T.);
#944=ORIENTED_EDGE('',*,*,#630,.F.);
#945=ORIENTED_EDGE('',*,*,#700,.F.);
#946=ORIENTED_EDGE('',*,*,#699,.F.);
#947=ORIENTED_EDGE('',*,*,#696,.F.);
#948=ORIENTED_EDGE('',*,*,#649,.F.);
#949=ORIENTED_EDGE('',*,*,#698,.F.);
#950=ORIENTED_EDGE('',*,*,#643,.F.);
#951=ORIENTED_EDGE('',*,*,#651,.F.);
#952=ORIENTED_EDGE('',*,*,#650,.F.);
#953=ORIENTED_EDGE('',*,*,#694,.F.);
#954=ORIENTED_EDGE('',*,*,#692,.F.);
#955=ORIENTED_EDGE('',*,*,#690,.F.);
#956=ORIENTED_EDGE('',*,*,#617,.T.);
#957=ORIENTED_EDGE('',*,*,#674,.F.);
#958=ORIENTED_EDGE('',*,*,#693,.F.);
#959=ORIENTED_EDGE('',*,*,#660,.F.);
#960=ORIENTED_EDGE('',*,*,#676,.F.);
#961=ORIENTED_EDGE('',*,*,#677,.F.);
#962=ORIENTED_EDGE('',*,*,#688,.F.);
#963=ORIENTED_EDGE('',*,*,#686,.F.);
#964=ORIENTED_EDGE('',*,*,#684,.F.);
#965=ORIENTED_EDGE('',*,*,#668,.F.);
#966=ORIENTED_EDGE('',*,*,#704,.F.);
#967=ORIENTED_EDGE('',*,*,#683,.F.);
#968=ORIENTED_EDGE('',*,*,#687,.F.);
#969=ORIENTED_EDGE('',*,*,#622,.F.);
#970=ORIENTED_EDGE('',*,*,#705,.F.);
#971=ORIENTED_EDGE('',*,*,#669,.F.);
#972=ORIENTED_EDGE('',*,*,#689,.F.);
#973=ORIENTED_EDGE('',*,*,#657,.F.);
#974=ORIENTED_EDGE('',*,*,#659,.F.);
#975=ORIENTED_EDGE('',*,*,#695,.F.);
#976=ORIENTED_EDGE('',*,*,#644,.F.);
#977=ORIENTED_EDGE('',*,*,#632,.F.);
#978=ORIENTED_EDGE('',*,*,#701,.F.);
#979=ORIENTED_EDGE('',*,*,#706,.F.);
#980=ORIENTED_EDGE('',*,*,#707,.T.);
#981=ORIENTED_EDGE('',*,*,#708,.F.);
#982=ORIENTED_EDGE('',*,*,#707,.F.);
#983=ORIENTED_EDGE('',*,*,#706,.T.);
#984=ORIENTED_EDGE('',*,*,#709,.T.);
#985=ORIENTED_EDGE('',*,*,#710,.T.);
#986=ORIENTED_EDGE('',*,*,#711,.T.);
#987=ORIENTED_EDGE('',*,*,#712,.F.);
#988=ORIENTED_EDGE('',*,*,#713,.F.);
#989=ORIENTED_EDGE('',*,*,#711,.F.);
#990=ORIENTED_EDGE('',*,*,#714,.F.);
#991=ORIENTED_EDGE('',*,*,#715,.T.);
#992=ORIENTED_EDGE('',*,*,#716,.T.);
#993=ORIENTED_EDGE('',*,*,#717,.T.);
#994=ORIENTED_EDGE('',*,*,#718,.F.);
#995=ORIENTED_EDGE('',*,*,#719,.F.);
#996=ORIENTED_EDGE('',*,*,#717,.F.);
#997=ORIENTED_EDGE('',*,*,#720,.F.);
#998=ORIENTED_EDGE('',*,*,#709,.F.);
#999=ORIENTED_EDGE('',*,*,#721,.F.);
#1000=ORIENTED_EDGE('',*,*,#716,.F.);
#1001=ORIENTED_EDGE('',*,*,#722,.F.);
#1002=ORIENTED_EDGE('',*,*,#723,.F.);
#1003=ORIENTED_EDGE('',*,*,#724,.T.);
#1004=ORIENTED_EDGE('',*,*,#725,.T.);
#1005=ORIENTED_EDGE('',*,*,#726,.T.);
#1006=ORIENTED_EDGE('',*,*,#727,.T.);
#1007=ORIENTED_EDGE('',*,*,#728,.T.);
#1008=ORIENTED_EDGE('',*,*,#729,.F.);
#1009=ORIENTED_EDGE('',*,*,#730,.T.);
#1010=ORIENTED_EDGE('',*,*,#731,.T.);
#1011=ORIENTED_EDGE('',*,*,#732,.T.);
#1012=ORIENTED_EDGE('',*,*,#733,.T.);
#1013=ORIENTED_EDGE('',*,*,#733,.F.);
#1014=ORIENTED_EDGE('',*,*,#734,.F.);
#1015=ORIENTED_EDGE('',*,*,#726,.F.);
#1016=ORIENTED_EDGE('',*,*,#735,.F.);
#1017=ORIENTED_EDGE('',*,*,#736,.T.);
#1018=ORIENTED_EDGE('',*,*,#737,.T.);
#1019=ORIENTED_EDGE('',*,*,#738,.T.);
#1020=ORIENTED_EDGE('',*,*,#738,.F.);
#1021=ORIENTED_EDGE('',*,*,#739,.F.);
#1022=ORIENTED_EDGE('',*,*,#730,.F.);
#1023=ORIENTED_EDGE('',*,*,#740,.F.);
#1024=ORIENTED_EDGE('',*,*,#731,.F.);
#1025=ORIENTED_EDGE('',*,*,#741,.F.);
#1026=ORIENTED_EDGE('',*,*,#737,.F.);
#1027=ORIENTED_EDGE('',*,*,#742,.F.);
#1028=ORIENTED_EDGE('',*,*,#743,.T.);
#1029=ORIENTED_EDGE('',*,*,#744,.T.);
#1030=ORIENTED_EDGE('',*,*,#745,.T.);
#1031=ORIENTED_EDGE('',*,*,#746,.T.);
#1032=ORIENTED_EDGE('',*,*,#747,.T.);
#1033=ORIENTED_EDGE('',*,*,#748,.F.);
#1034=ORIENTED_EDGE('',*,*,#749,.T.);
#1035=ORIENTED_EDGE('',*,*,#745,.F.);
#1036=ORIENTED_EDGE('',*,*,#750,.F.);
#1037=ORIENTED_EDGE('',*,*,#749,.F.);
#1038=ORIENTED_EDGE('',*,*,#751,.F.);
#1039=ORIENTED_EDGE('',*,*,#752,.T.);
#1040=ORIENTED_EDGE('',*,*,#753,.T.);
#1041=ORIENTED_EDGE('',*,*,#754,.T.);
#1042=ORIENTED_EDGE('',*,*,#755,.T.);
#1043=ORIENTED_EDGE('',*,*,#756,.T.);
#1044=ORIENTED_EDGE('',*,*,#757,.T.);
#1045=ORIENTED_EDGE('',*,*,#758,.F.);
#1046=ORIENTED_EDGE('',*,*,#759,.F.);
#1047=ORIENTED_EDGE('',*,*,#757,.F.);
#1048=ORIENTED_EDGE('',*,*,#760,.F.);
#1049=ORIENTED_EDGE('',*,*,#761,.F.);
#1050=ORIENTED_EDGE('',*,*,#762,.T.);
#1051=ORIENTED_EDGE('',*,*,#763,.T.);
#1052=ORIENTED_EDGE('',*,*,#764,.T.);
#1053=ORIENTED_EDGE('',*,*,#754,.F.);
#1054=ORIENTED_EDGE('',*,*,#765,.F.);
#1055=ORIENTED_EDGE('',*,*,#764,.F.);
#1056=ORIENTED_EDGE('',*,*,#766,.F.);
#1057=ORIENTED_EDGE('',*,*,#763,.F.);
#1058=ORIENTED_EDGE('',*,*,#767,.F.);
#1059=ORIENTED_EDGE('',*,*,#746,.F.);
#1060=ORIENTED_EDGE('',*,*,#768,.F.);
#1061=ORIENTED_EDGE('',*,*,#769,.T.);
#1062=ORIENTED_EDGE('',*,*,#770,.T.);
#1063=ORIENTED_EDGE('',*,*,#771,.T.);
#1064=ORIENTED_EDGE('',*,*,#772,.F.);
#1065=ORIENTED_EDGE('',*,*,#773,.F.);
#1066=ORIENTED_EDGE('',*,*,#771,.F.);
#1067=ORIENTED_EDGE('',*,*,#774,.F.);
#1068=ORIENTED_EDGE('',*,*,#762,.F.);
#1069=ORIENTED_EDGE('',*,*,#775,.F.);
#1070=ORIENTED_EDGE('',*,*,#770,.F.);
#1071=ORIENTED_EDGE('',*,*,#776,.F.);
#1072=ORIENTED_EDGE('',*,*,#769,.F.);
#1073=ORIENTED_EDGE('',*,*,#777,.F.);
#1074=ORIENTED_EDGE('',*,*,#756,.F.);
#1075=ORIENTED_EDGE('',*,*,#778,.F.);
#1076=ORIENTED_EDGE('',*,*,#755,.F.);
#1077=ORIENTED_EDGE('',*,*,#779,.F.);
#1078=ORIENTED_EDGE('',*,*,#747,.F.);
#1079=ORIENTED_EDGE('',*,*,#780,.F.);
#1080=ORIENTED_EDGE('',*,*,#736,.F.);
#1081=ORIENTED_EDGE('',*,*,#781,.F.);
#1082=ORIENTED_EDGE('',*,*,#753,.F.);
#1083=ORIENTED_EDGE('',*,*,#782,.F.);
#1084=ORIENTED_EDGE('',*,*,#752,.F.);
#1085=ORIENTED_EDGE('',*,*,#783,.F.);
#1086=ORIENTED_EDGE('',*,*,#744,.F.);
#1087=ORIENTED_EDGE('',*,*,#784,.F.);
#1088=ORIENTED_EDGE('',*,*,#743,.F.);
#1089=ORIENTED_EDGE('',*,*,#785,.F.);
#1090=ORIENTED_EDGE('',*,*,#732,.F.);
#1091=ORIENTED_EDGE('',*,*,#786,.F.);
#1092=ORIENTED_EDGE('',*,*,#715,.F.);
#1093=ORIENTED_EDGE('',*,*,#787,.F.);
#1094=ORIENTED_EDGE('',*,*,#728,.F.);
#1095=ORIENTED_EDGE('',*,*,#788,.F.);
#1096=ORIENTED_EDGE('',*,*,#725,.F.);
#1097=ORIENTED_EDGE('',*,*,#789,.F.);
#1098=ORIENTED_EDGE('',*,*,#727,.F.);
#1099=ORIENTED_EDGE('',*,*,#790,.F.);
#1100=ORIENTED_EDGE('',*,*,#724,.F.);
#1101=ORIENTED_EDGE('',*,*,#791,.F.);
#1102=ORIENTED_EDGE('',*,*,#710,.F.);
#1103=ORIENTED_EDGE('',*,*,#792,.F.);
#1104=ORIENTED_EDGE('',*,*,#713,.T.);
#1105=ORIENTED_EDGE('',*,*,#793,.T.);
#1106=ORIENTED_EDGE('',*,*,#720,.T.);
#1107=ORIENTED_EDGE('',*,*,#721,.T.);
#1108=ORIENTED_EDGE('',*,*,#719,.T.);
#1109=ORIENTED_EDGE('',*,*,#794,.T.);
#1110=ORIENTED_EDGE('',*,*,#774,.T.);
#1111=ORIENTED_EDGE('',*,*,#775,.T.);
#1112=ORIENTED_EDGE('',*,*,#761,.T.);
#1113=ORIENTED_EDGE('',*,*,#765,.T.);
#1114=ORIENTED_EDGE('',*,*,#781,.T.);
#1115=ORIENTED_EDGE('',*,*,#740,.T.);
#1116=ORIENTED_EDGE('',*,*,#729,.T.);
#1117=ORIENTED_EDGE('',*,*,#787,.T.);
#1118=ORIENTED_EDGE('',*,*,#712,.T.);
#1119=ORIENTED_EDGE('',*,*,#795,.F.);
#1120=ORIENTED_EDGE('',*,*,#758,.T.);
#1121=ORIENTED_EDGE('',*,*,#796,.F.);
#1122=ORIENTED_EDGE('',*,*,#772,.T.);
#1123=ORIENTED_EDGE('',*,*,#794,.F.);
#1124=ORIENTED_EDGE('',*,*,#718,.T.);
#1125=ORIENTED_EDGE('',*,*,#793,.F.);
#1126=ORIENTED_EDGE('',*,*,#722,.T.);
#1127=ORIENTED_EDGE('',*,*,#788,.T.);
#1128=ORIENTED_EDGE('',*,*,#789,.T.);
#1129=ORIENTED_EDGE('',*,*,#792,.T.);
#1130=ORIENTED_EDGE('',*,*,#739,.T.);
#1131=ORIENTED_EDGE('',*,*,#741,.T.);
#1132=ORIENTED_EDGE('',*,*,#735,.T.);
#1133=ORIENTED_EDGE('',*,*,#790,.T.);
#1134=ORIENTED_EDGE('',*,*,#742,.T.);
#1135=ORIENTED_EDGE('',*,*,#782,.T.);
#1136=ORIENTED_EDGE('',*,*,#784,.T.);
#1137=ORIENTED_EDGE('',*,*,#786,.T.);
#1138=ORIENTED_EDGE('',*,*,#708,.T.);
#1139=ORIENTED_EDGE('',*,*,#766,.T.);
#1140=ORIENTED_EDGE('',*,*,#768,.T.);
#1141=ORIENTED_EDGE('',*,*,#750,.T.);
#1142=ORIENTED_EDGE('',*,*,#783,.T.);
#1143=ORIENTED_EDGE('',*,*,#767,.T.);
#1144=ORIENTED_EDGE('',*,*,#776,.T.);
#1145=ORIENTED_EDGE('',*,*,#778,.T.);
#1146=ORIENTED_EDGE('',*,*,#780,.T.);
#1147=ORIENTED_EDGE('',*,*,#760,.T.);
#1148=ORIENTED_EDGE('',*,*,#777,.T.);
#1149=ORIENTED_EDGE('',*,*,#773,.T.);
#1150=ORIENTED_EDGE('',*,*,#796,.T.);
#1151=ORIENTED_EDGE('',*,*,#714,.T.);
#1152=ORIENTED_EDGE('',*,*,#791,.T.);
#1153=ORIENTED_EDGE('',*,*,#723,.T.);
#1154=ORIENTED_EDGE('',*,*,#734,.T.);
#1155=ORIENTED_EDGE('',*,*,#785,.T.);
#1156=ORIENTED_EDGE('',*,*,#751,.T.);
#1157=ORIENTED_EDGE('',*,*,#748,.T.);
#1158=ORIENTED_EDGE('',*,*,#779,.T.);
#1159=ORIENTED_EDGE('',*,*,#759,.T.);
#1160=ORIENTED_EDGE('',*,*,#795,.T.);
#1161=CYLINDRICAL_SURFACE('',#1306,1.1);
#1162=CYLINDRICAL_SURFACE('',#1314,0.4);
#1163=CYLINDRICAL_SURFACE('',#1320,0.4);
#1164=CYLINDRICAL_SURFACE('',#1322,0.4);
#1165=CYLINDRICAL_SURFACE('',#1337,0.4);
#1166=CYLINDRICAL_SURFACE('',#1342,0.4);
#1167=CYLINDRICAL_SURFACE('',#1343,0.4);
#1168=CYLINDRICAL_SURFACE('',#1353,0.4);
#1169=CYLINDRICAL_SURFACE('',#1362,0.4);
#1170=CYLINDRICAL_SURFACE('',#1369,0.4);
#1171=CYLINDRICAL_SURFACE('',#1370,0.4);
#1172=CYLINDRICAL_SURFACE('',#1375,0.4);
#1173=CYLINDRICAL_SURFACE('',#1377,0.4);
#1174=CYLINDRICAL_SURFACE('',#1378,0.4);
#1175=CYLINDRICAL_SURFACE('',#1379,0.4);
#1176=CYLINDRICAL_SURFACE('',#1380,0.4);
#1177=CYLINDRICAL_SURFACE('',#1381,0.4);
#1178=CYLINDRICAL_SURFACE('',#1382,0.4);
#1179=CYLINDRICAL_SURFACE('',#1383,0.4);
#1180=CYLINDRICAL_SURFACE('',#1384,0.4);
#1181=CYLINDRICAL_SURFACE('',#1385,0.4);
#1182=CYLINDRICAL_SURFACE('',#1396,1.1);
#1183=CYLINDRICAL_SURFACE('',#1404,0.4);
#1184=CYLINDRICAL_SURFACE('',#1410,0.4);
#1185=CYLINDRICAL_SURFACE('',#1412,0.4);
#1186=CYLINDRICAL_SURFACE('',#1427,0.4);
#1187=CYLINDRICAL_SURFACE('',#1432,0.4);
#1188=CYLINDRICAL_SURFACE('',#1433,0.4);
#1189=CYLINDRICAL_SURFACE('',#1443,0.4);
#1190=CYLINDRICAL_SURFACE('',#1452,0.4);
#1191=CYLINDRICAL_SURFACE('',#1459,0.4);
#1192=CYLINDRICAL_SURFACE('',#1460,0.4);
#1193=CYLINDRICAL_SURFACE('',#1465,0.4);
#1194=CYLINDRICAL_SURFACE('',#1467,0.4);
#1195=CYLINDRICAL_SURFACE('',#1468,0.4);
#1196=CYLINDRICAL_SURFACE('',#1469,0.4);
#1197=CYLINDRICAL_SURFACE('',#1470,0.4);
#1198=CYLINDRICAL_SURFACE('',#1471,0.4);
#1199=CYLINDRICAL_SURFACE('',#1472,0.4);
#1200=CYLINDRICAL_SURFACE('',#1473,0.4);
#1201=CYLINDRICAL_SURFACE('',#1474,0.4);
#1202=CYLINDRICAL_SURFACE('',#1475,0.4);
#1203=ADVANCED_FACE('',(#65),#1161,.T.);
#1204=ADVANCED_FACE('',(#66),#43,.T.);
#1205=ADVANCED_FACE('',(#67),#27,.T.);
#1206=ADVANCED_FACE('',(#68),#1162,.T.);
#1207=ADVANCED_FACE('',(#69),#28,.T.);
#1208=ADVANCED_FACE('',(#70),#1163,.T.);
#1209=ADVANCED_FACE('',(#71),#1164,.T.);
#1210=ADVANCED_FACE('',(#72),#19,.T.);
#1211=ADVANCED_FACE('',(#73),#20,.T.);
#1212=ADVANCED_FACE('',(#74),#29,.T.);
#1213=ADVANCED_FACE('',(#75),#1165,.T.);
#1214=ADVANCED_FACE('',(#76),#30,.T.);
#1215=ADVANCED_FACE('',(#77),#1166,.T.);
#1216=ADVANCED_FACE('',(#78),#1167,.T.);
#1217=ADVANCED_FACE('',(#79),#31,.T.);
#1218=ADVANCED_FACE('',(#80),#21,.T.);
#1219=ADVANCED_FACE('',(#81),#1168,.T.);
#1220=ADVANCED_FACE('',(#82),#32,.T.);
#1221=ADVANCED_FACE('',(#83),#33,.T.);
#1222=ADVANCED_FACE('',(#84),#1169,.T.);
#1223=ADVANCED_FACE('',(#85),#22,.T.);
#1224=ADVANCED_FACE('',(#86),#1170,.T.);
#1225=ADVANCED_FACE('',(#87),#1171,.F.);
#1226=ADVANCED_FACE('',(#88),#34,.T.);
#1227=ADVANCED_FACE('',(#89),#1172,.T.);
#1228=ADVANCED_FACE('',(#90),#1173,.T.);
#1229=ADVANCED_FACE('',(#91),#1174,.T.);
#1230=ADVANCED_FACE('',(#92),#1175,.T.);
#1231=ADVANCED_FACE('',(#93),#1176,.T.);
#1232=ADVANCED_FACE('',(#94),#1177,.T.);
#1233=ADVANCED_FACE('',(#95),#1178,.T.);
#1234=ADVANCED_FACE('',(#96),#1179,.T.);
#1235=ADVANCED_FACE('',(#97),#1180,.F.);
#1236=ADVANCED_FACE('',(#98),#1181,.T.);
#1237=ADVANCED_FACE('',(#99),#44,.T.);
#1238=ADVANCED_FACE('',(#100),#45,.T.);
#1239=ADVANCED_FACE('',(#101),#46,.F.);
#1240=ADVANCED_FACE('',(#102),#47,.T.);
#1241=ADVANCED_FACE('',(#103),#48,.T.);
#1242=ADVANCED_FACE('',(#104,#17),#49,.T.);
#1243=ADVANCED_FACE('',(#105),#50,.T.);
#1244=ADVANCED_FACE('',(#106),#51,.T.);
#1245=ADVANCED_FACE('',(#107),#52,.T.);
#1246=ADVANCED_FACE('',(#108),#53,.T.);
#1247=ADVANCED_FACE('',(#109),#1182,.T.);
#1248=ADVANCED_FACE('',(#110),#54,.F.);
#1249=ADVANCED_FACE('',(#111),#35,.T.);
#1250=ADVANCED_FACE('',(#112),#1183,.T.);
#1251=ADVANCED_FACE('',(#113),#36,.T.);
#1252=ADVANCED_FACE('',(#114),#1184,.T.);
#1253=ADVANCED_FACE('',(#115),#1185,.T.);
#1254=ADVANCED_FACE('',(#116),#23,.T.);
#1255=ADVANCED_FACE('',(#117),#24,.T.);
#1256=ADVANCED_FACE('',(#118),#37,.T.);
#1257=ADVANCED_FACE('',(#119),#1186,.T.);
#1258=ADVANCED_FACE('',(#120),#38,.T.);
#1259=ADVANCED_FACE('',(#121),#1187,.T.);
#1260=ADVANCED_FACE('',(#122),#1188,.T.);
#1261=ADVANCED_FACE('',(#123),#39,.T.);
#1262=ADVANCED_FACE('',(#124),#25,.T.);
#1263=ADVANCED_FACE('',(#125),#1189,.T.);
#1264=ADVANCED_FACE('',(#126),#40,.T.);
#1265=ADVANCED_FACE('',(#127),#41,.T.);
#1266=ADVANCED_FACE('',(#128),#1190,.T.);
#1267=ADVANCED_FACE('',(#129),#26,.T.);
#1268=ADVANCED_FACE('',(#130),#1191,.T.);
#1269=ADVANCED_FACE('',(#131),#1192,.F.);
#1270=ADVANCED_FACE('',(#132),#42,.T.);
#1271=ADVANCED_FACE('',(#133),#1193,.T.);
#1272=ADVANCED_FACE('',(#134),#1194,.T.);
#1273=ADVANCED_FACE('',(#135),#1195,.T.);
#1274=ADVANCED_FACE('',(#136),#1196,.T.);
#1275=ADVANCED_FACE('',(#137),#1197,.T.);
#1276=ADVANCED_FACE('',(#138),#1198,.T.);
#1277=ADVANCED_FACE('',(#139),#1199,.T.);
#1278=ADVANCED_FACE('',(#140),#1200,.T.);
#1279=ADVANCED_FACE('',(#141),#1201,.F.);
#1280=ADVANCED_FACE('',(#142),#1202,.T.);
#1281=ADVANCED_FACE('',(#143),#55,.F.);
#1282=ADVANCED_FACE('',(#144),#56,.F.);
#1283=ADVANCED_FACE('',(#145),#57,.T.);
#1284=ADVANCED_FACE('',(#146),#58,.F.);
#1285=ADVANCED_FACE('',(#147),#59,.F.);
#1286=ADVANCED_FACE('',(#148,#18),#60,.F.);
#1287=ADVANCED_FACE('',(#149),#61,.F.);
#1288=ADVANCED_FACE('',(#150),#62,.F.);
#1289=ADVANCED_FACE('',(#151),#63,.F.);
#1290=ADVANCED_FACE('',(#152),#64,.F.);
#1291=CLOSED_SHELL('',(#1203,#1204,#1205,#1206,#1207,#1208,#1209,#1210,
#1211,#1212,#1213,#1214,#1215,#1216,#1217,#1218,#1219,#1220,#1221,#1222,
#1223,#1224,#1225,#1226,#1227,#1228,#1229,#1230,#1231,#1232,#1233,#1234,
#1235,#1236,#1237,#1238,#1239,#1240,#1241,#1242,#1243,#1244,#1245,#1246));
#1292=CLOSED_SHELL('',(#1247,#1248,#1249,#1250,#1251,#1252,#1253,#1254,
#1255,#1256,#1257,#1258,#1259,#1260,#1261,#1262,#1263,#1264,#1265,#1266,
#1267,#1268,#1269,#1270,#1271,#1272,#1273,#1274,#1275,#1276,#1277,#1278,
#1279,#1280,#1281,#1282,#1283,#1284,#1285,#1286,#1287,#1288,#1289,#1290));
#1293=DERIVED_UNIT_ELEMENT(#1295,1.);
#1294=DERIVED_UNIT_ELEMENT(#2314,-3.);
#1295=(
MASS_UNIT()
NAMED_UNIT(*)
SI_UNIT(.KILO.,.GRAM.)
);
#1296=DERIVED_UNIT((#1293,#1294));
#1297=MEASURE_REPRESENTATION_ITEM('density measure',
POSITIVE_RATIO_MEASURE(1060.),#1296);
#1298=PROPERTY_DEFINITION_REPRESENTATION(#1303,#1300);
#1299=PROPERTY_DEFINITION_REPRESENTATION(#1304,#1301);
#1300=REPRESENTATION('material name',(#1302),#2311);
#1301=REPRESENTATION('density',(#1297),#2311);
#1302=DESCRIPTIVE_REPRESENTATION_ITEM('Plastique ABS','Plastique ABS');
#1303=PROPERTY_DEFINITION('material property','material name',#2321);
#1304=PROPERTY_DEFINITION('material property','density of part',#2321);
#1305=AXIS2_PLACEMENT_3D('',#1938,#1486,#1487);
#1306=AXIS2_PLACEMENT_3D('',#1939,#1488,#1489);
#1307=AXIS2_PLACEMENT_3D('',#1941,#1490,#1491);
#1308=AXIS2_PLACEMENT_3D('',#1944,#1493,#1494);
#1309=AXIS2_PLACEMENT_3D('',#1945,#1495,#1496);
#1310=AXIS2_PLACEMENT_3D('',#1946,#1497,#1498);
#1311=AXIS2_PLACEMENT_3D('',#1949,#1499,#1500);
#1312=AXIS2_PLACEMENT_3D('',#1951,#1501,#1502);
#1313=AXIS2_PLACEMENT_3D('',#1952,#1503,#1504);
#1314=AXIS2_PLACEMENT_3D('',#1953,#1505,#1506);
#1315=AXIS2_PLACEMENT_3D('',#1956,#1507,#1508);
#1316=AXIS2_PLACEMENT_3D('',#1959,#1511,#1512);
#1317=AXIS2_PLACEMENT_3D('',#1962,#1513,#1514);
#1318=AXIS2_PLACEMENT_3D('',#1964,#1515,#1516);
#1319=AXIS2_PLACEMENT_3D('',#1965,#1517,#1518);
#1320=AXIS2_PLACEMENT_3D('',#1966,#1519,#1520);
#1321=AXIS2_PLACEMENT_3D('',#1969,#1521,#1522);
#1322=AXIS2_PLACEMENT_3D('',#1972,#1525,#1526);
#1323=AXIS2_PLACEMENT_3D('',#1975,#1529,#1530);
#1324=AXIS2_PLACEMENT_3D('',#1978,#1531,#1532);
#1325=AXIS2_PLACEMENT_3D('',#1980,#1533,#1534);
#1326=AXIS2_PLACEMENT_3D('',#1982,#1535,#1536);
#1327=AXIS2_PLACEMENT_3D('',#1983,#1537,#1538);
#1328=AXIS2_PLACEMENT_3D('',#1984,#1539,#1540);
#1329=AXIS2_PLACEMENT_3D('',#1987,#1541,#1542);
#1330=AXIS2_PLACEMENT_3D('',#1989,#1543,#1544);
#1331=AXIS2_PLACEMENT_3D('',#1991,#1545,#1546);
#1332=AXIS2_PLACEMENT_3D('',#1992,#1547,#1548);
#1333=AXIS2_PLACEMENT_3D('',#1993,#1549,#1550);
#1334=AXIS2_PLACEMENT_3D('',#1996,#1551,#1552);
#1335=AXIS2_PLACEMENT_3D('',#1998,#1553,#1554);
#1336=AXIS2_PLACEMENT_3D('',#1999,#1555,#1556);
#1337=AXIS2_PLACEMENT_3D('',#2000,#1557,#1558);
#1338=AXIS2_PLACEMENT_3D('',#2003,#1561,#1562);
#1339=AXIS2_PLACEMENT_3D('',#2006,#1563,#1564);
#1340=AXIS2_PLACEMENT_3D('',#2008,#1565,#1566);
#1341=AXIS2_PLACEMENT_3D('',#2009,#1567,#1568);
#1342=AXIS2_PLACEMENT_3D('',#2010,#1569,#1570);
#1343=AXIS2_PLACEMENT_3D('',#2013,#1573,#1574);
#1344=AXIS2_PLACEMENT_3D('',#2016,#1577,#1578);
#1345=AXIS2_PLACEMENT_3D('',#2019,#1579,#1580);
#1346=AXIS2_PLACEMENT_3D('',#2021,#1581,#1582);
#1347=AXIS2_PLACEMENT_3D('',#2022,#1583,#1584);
#1348=AXIS2_PLACEMENT_3D('',#2023,#1585,#1586);
#1349=AXIS2_PLACEMENT_3D('',#2026,#1587,#1588);
#1350=AXIS2_PLACEMENT_3D('',#2028,#1589,#1590);
#1351=AXIS2_PLACEMENT_3D('',#2030,#1591,#1592);
#1352=AXIS2_PLACEMENT_3D('',#2031,#1593,#1594);
#1353=AXIS2_PLACEMENT_3D('',#2032,#1595,#1596);
#1354=AXIS2_PLACEMENT_3D('',#2035,#1599,#1600);
#1355=AXIS2_PLACEMENT_3D('',#2038,#1601,#1602);
#1356=AXIS2_PLACEMENT_3D('',#2040,#1603,#1604);
#1357=AXIS2_PLACEMENT_3D('',#2041,#1605,#1606);
#1358=AXIS2_PLACEMENT_3D('',#2042,#1607,#1608);
#1359=AXIS2_PLACEMENT_3D('',#2045,#1609,#1610);
#1360=AXIS2_PLACEMENT_3D('',#2047,#1611,#1612);
#1361=AXIS2_PLACEMENT_3D('',#2048,#1613,#1614);
#1362=AXIS2_PLACEMENT_3D('',#2049,#1615,#1616);
#1363=AXIS2_PLACEMENT_3D('',#2052,#1617,#1618);
#1364=AXIS2_PLACEMENT_3D('',#2055,#1621,#1622);
#1365=AXIS2_PLACEMENT_3D('',#2058,#1623,#1624);
#1366=AXIS2_PLACEMENT_3D('',#2060,#1625,#1626);
#1367=AXIS2_PLACEMENT_3D('',#2062,#1627,#1628);
#1368=AXIS2_PLACEMENT_3D('',#2063,#1629,#1630);
#1369=AXIS2_PLACEMENT_3D('',#2064,#1631,#1632);
#1370=AXIS2_PLACEMENT_3D('',#2067,#1635,#1636);
#1371=AXIS2_PLACEMENT_3D('',#2070,#1639,#1640);
#1372=AXIS2_PLACEMENT_3D('',#2073,#1641,#1642);
#1373=AXIS2_PLACEMENT_3D('',#2075,#1643,#1644);
#1374=AXIS2_PLACEMENT_3D('',#2076,#1645,#1646);
#1375=AXIS2_PLACEMENT_3D('',#2077,#1647,#1648);
#1376=AXIS2_PLACEMENT_3D('',#2080,#1649,#1650);
#1377=AXIS2_PLACEMENT_3D('',#2083,#1653,#1654);
#1378=AXIS2_PLACEMENT_3D('',#2086,#1657,#1658);
#1379=AXIS2_PLACEMENT_3D('',#2089,#1661,#1662);
#1380=AXIS2_PLACEMENT_3D('',#2092,#1665,#1666);
#1381=AXIS2_PLACEMENT_3D('',#2095,#1669,#1670);
#1382=AXIS2_PLACEMENT_3D('',#2098,#1673,#1674);
#1383=AXIS2_PLACEMENT_3D('',#2101,#1677,#1678);
#1384=AXIS2_PLACEMENT_3D('',#2104,#1681,#1682);
#1385=AXIS2_PLACEMENT_3D('',#2107,#1685,#1686);
#1386=AXIS2_PLACEMENT_3D('',#2110,#1689,#1690);
#1387=AXIS2_PLACEMENT_3D('',#2112,#1692,#1693);
#1388=AXIS2_PLACEMENT_3D('',#2114,#1695,#1696);
#1389=AXIS2_PLACEMENT_3D('',#2117,#1699,#1700);
#1390=AXIS2_PLACEMENT_3D('',#2118,#1701,#1702);
#1391=AXIS2_PLACEMENT_3D('',#2119,#1703,#1704);
#1392=AXIS2_PLACEMENT_3D('',#2120,#1705,#1706);
#1393=AXIS2_PLACEMENT_3D('',#2121,#1707,#1708);
#1394=AXIS2_PLACEMENT_3D('',#2122,#1709,#1710);
#1395=AXIS2_PLACEMENT_3D('',#2123,#1711,#1712);
#1396=AXIS2_PLACEMENT_3D('',#2124,#1713,#1714);
#1397=AXIS2_PLACEMENT_3D('',#2126,#1715,#1716);
#1398=AXIS2_PLACEMENT_3D('',#2129,#1718,#1719);
#1399=AXIS2_PLACEMENT_3D('',#2130,#1720,#1721);
#1400=AXIS2_PLACEMENT_3D('',#2131,#1722,#1723);
#1401=AXIS2_PLACEMENT_3D('',#2134,#1724,#1725);
#1402=AXIS2_PLACEMENT_3D('',#2136,#1726,#1727);
#1403=AXIS2_PLACEMENT_3D('',#2137,#1728,#1729);
#1404=AXIS2_PLACEMENT_3D('',#2138,#1730,#1731);
#1405=AXIS2_PLACEMENT_3D('',#2141,#1732,#1733);
#1406=AXIS2_PLACEMENT_3D('',#2144,#1736,#1737);
#1407=AXIS2_PLACEMENT_3D('',#2147,#1738,#1739);
#1408=AXIS2_PLACEMENT_3D('',#2149,#1740,#1741);
#1409=AXIS2_PLACEMENT_3D('',#2150,#1742,#1743);
#1410=AXIS2_PLACEMENT_3D('',#2151,#1744,#1745);
#1411=AXIS2_PLACEMENT_3D('',#2154,#1746,#1747);
#1412=AXIS2_PLACEMENT_3D('',#2157,#1750,#1751);
#1413=AXIS2_PLACEMENT_3D('',#2160,#1754,#1755);
#1414=AXIS2_PLACEMENT_3D('',#2163,#1756,#1757);
#1415=AXIS2_PLACEMENT_3D('',#2165,#1758,#1759);
#1416=AXIS2_PLACEMENT_3D('',#2167,#1760,#1761);
#1417=AXIS2_PLACEMENT_3D('',#2168,#1762,#1763);
#1418=AXIS2_PLACEMENT_3D('',#2169,#1764,#1765);
#1419=AXIS2_PLACEMENT_3D('',#2172,#1766,#1767);
#1420=AXIS2_PLACEMENT_3D('',#2174,#1768,#1769);
#1421=AXIS2_PLACEMENT_3D('',#2176,#1770,#1771);
#1422=AXIS2_PLACEMENT_3D('',#2177,#1772,#1773);
#1423=AXIS2_PLACEMENT_3D('',#2178,#1774,#1775);
#1424=AXIS2_PLACEMENT_3D('',#2181,#1776,#1777);
#1425=AXIS2_PLACEMENT_3D('',#2183,#1778,#1779);
#1426=AXIS2_PLACEMENT_3D('',#2184,#1780,#1781);
#1427=AXIS2_PLACEMENT_3D('',#2185,#1782,#1783);
#1428=AXIS2_PLACEMENT_3D('',#2188,#1786,#1787);
#1429=AXIS2_PLACEMENT_3D('',#2191,#1788,#1789);
#1430=AXIS2_PLACEMENT_3D('',#2193,#1790,#1791);
#1431=AXIS2_PLACEMENT_3D('',#2194,#1792,#1793);
#1432=AXIS2_PLACEMENT_3D('',#2195,#1794,#1795);
#1433=AXIS2_PLACEMENT_3D('',#2198,#1798,#1799);
#1434=AXIS2_PLACEMENT_3D('',#2201,#1802,#1803);
#1435=AXIS2_PLACEMENT_3D('',#2204,#1804,#1805);
#1436=AXIS2_PLACEMENT_3D('',#2206,#1806,#1807);
#1437=AXIS2_PLACEMENT_3D('',#2207,#1808,#1809);
#1438=AXIS2_PLACEMENT_3D('',#2208,#1810,#1811);
#1439=AXIS2_PLACEMENT_3D('',#2211,#1812,#1813);
#1440=AXIS2_PLACEMENT_3D('',#2213,#1814,#1815);
#1441=AXIS2_PLACEMENT_3D('',#2215,#1816,#1817);
#1442=AXIS2_PLACEMENT_3D('',#2216,#1818,#1819);
#1443=AXIS2_PLACEMENT_3D('',#2217,#1820,#1821);
#1444=AXIS2_PLACEMENT_3D('',#2220,#1824,#1825);
#1445=AXIS2_PLACEMENT_3D('',#2223,#1826,#1827);
#1446=AXIS2_PLACEMENT_3D('',#2225,#1828,#1829);
#1447=AXIS2_PLACEMENT_3D('',#2226,#1830,#1831);
#1448=AXIS2_PLACEMENT_3D('',#2227,#1832,#1833);
#1449=AXIS2_PLACEMENT_3D('',#2230,#1834,#1835);
#1450=AXIS2_PLACEMENT_3D('',#2232,#1836,#1837);
#1451=AXIS2_PLACEMENT_3D('',#2233,#1838,#1839);
#1452=AXIS2_PLACEMENT_3D('',#2234,#1840,#1841);
#1453=AXIS2_PLACEMENT_3D('',#2237,#1842,#1843);
#1454=AXIS2_PLACEMENT_3D('',#2240,#1846,#1847);
#1455=AXIS2_PLACEMENT_3D('',#2243,#1848,#1849);
#1456=AXIS2_PLACEMENT_3D('',#2245,#1850,#1851);
#1457=AXIS2_PLACEMENT_3D('',#2247,#1852,#1853);
#1458=AXIS2_PLACEMENT_3D('',#2248,#1854,#1855);
#1459=AXIS2_PLACEMENT_3D('',#2249,#1856,#1857);
#1460=AXIS2_PLACEMENT_3D('',#2252,#1860,#1861);
#1461=AXIS2_PLACEMENT_3D('',#2255,#1864,#1865);
#1462=AXIS2_PLACEMENT_3D('',#2258,#1866,#1867);
#1463=AXIS2_PLACEMENT_3D('',#2260,#1868,#1869);
#1464=AXIS2_PLACEMENT_3D('',#2261,#1870,#1871);
#1465=AXIS2_PLACEMENT_3D('',#2262,#1872,#1873);
#1466=AXIS2_PLACEMENT_3D('',#2265,#1874,#1875);
#1467=AXIS2_PLACEMENT_3D('',#2268,#1878,#1879);
#1468=AXIS2_PLACEMENT_3D('',#2271,#1882,#1883);
#1469=AXIS2_PLACEMENT_3D('',#2274,#1886,#1887);
#1470=AXIS2_PLACEMENT_3D('',#2277,#1890,#1891);
#1471=AXIS2_PLACEMENT_3D('',#2280,#1894,#1895);
#1472=AXIS2_PLACEMENT_3D('',#2283,#1898,#1899);
#1473=AXIS2_PLACEMENT_3D('',#2286,#1902,#1903);
#1474=AXIS2_PLACEMENT_3D('',#2289,#1906,#1907);
#1475=AXIS2_PLACEMENT_3D('',#2292,#1910,#1911);
#1476=AXIS2_PLACEMENT_3D('',#2295,#1914,#1915);
#1477=AXIS2_PLACEMENT_3D('',#2297,#1917,#1918);
#1478=AXIS2_PLACEMENT_3D('',#2299,#1920,#1921);
#1479=AXIS2_PLACEMENT_3D('',#2302,#1924,#1925);
#1480=AXIS2_PLACEMENT_3D('',#2303,#1926,#1927);
#1481=AXIS2_PLACEMENT_3D('',#2304,#1928,#1929);
#1482=AXIS2_PLACEMENT_3D('',#2305,#1930,#1931);
#1483=AXIS2_PLACEMENT_3D('',#2306,#1932,#1933);
#1484=AXIS2_PLACEMENT_3D('',#2307,#1934,#1935);
#1485=AXIS2_PLACEMENT_3D('',#2308,#1936,#1937);
#1486=DIRECTION('axis',(0.,0.,1.));
#1487=DIRECTION('refdir',(1.,0.,0.));
#1488=DIRECTION('center_axis',(0.,0.,1.));
#1489=DIRECTION('ref_axis',(1.,0.,0.));
#1490=DIRECTION('center_axis',(0.,0.,1.));
#1491=DIRECTION('ref_axis',(1.,0.,0.));
#1492=DIRECTION('',(0.,0.,-1.));
#1493=DIRECTION('center_axis',(0.,0.,-1.));
#1494=DIRECTION('ref_axis',(1.,0.,0.));
#1495=DIRECTION('center_axis',(0.,0.,1.));
#1496=DIRECTION('ref_axis',(1.,0.,0.));
#1497=DIRECTION('center_axis',(-0.816496580927725,0.408248290463864,0.408248290463863));
#1498=DIRECTION('ref_axis',(0.577350269189627,0.577350269189625,0.577350269189625));
#1499=DIRECTION('center_axis',(0.,1.,0.));
#1500=DIRECTION('ref_axis',(1.,0.,0.));
#1501=DIRECTION('center_axis',(0.,0.,1.));
#1502=DIRECTION('ref_axis',(0.,1.,0.));
#1503=DIRECTION('center_axis',(1.,0.,0.));
#1504=DIRECTION('ref_axis',(0.,0.,1.));
#1505=DIRECTION('center_axis',(0.,0.,1.));
#1506=DIRECTION('ref_axis',(0.707106781186548,0.707106781186548,0.));
#1507=DIRECTION('center_axis',(0.,0.,1.));
#1508=DIRECTION('ref_axis',(0.707106781186548,0.707106781186548,0.));
#1509=DIRECTION('',(0.,0.,1.));
#1510=DIRECTION('',(0.,0.,-1.));
#1511=DIRECTION('center_axis',(-0.816496580927725,-0.408248290463864,0.408248290463863));
#1512=DIRECTION('ref_axis',(0.577350269189627,-0.577350269189625,0.577350269189625));
#1513=DIRECTION('center_axis',(1.,0.,0.));
#1514=DIRECTION('ref_axis',(0.,-1.,0.));
#1515=DIRECTION('center_axis',(0.,0.,1.));
#1516=DIRECTION('ref_axis',(1.,0.,0.));
#1517=DIRECTION('center_axis',(0.,-1.,0.));
#1518=DIRECTION('ref_axis',(0.,0.,1.));
#1519=DIRECTION('center_axis',(0.,0.,1.));
#1520=DIRECTION('ref_axis',(0.707106781186548,-0.707106781186548,0.));
#1521=DIRECTION('center_axis',(0.,0.,1.));
#1522=DIRECTION('ref_axis',(0.707106781186548,-0.707106781186548,0.));
#1523=DIRECTION('',(0.,0.,1.));
#1524=DIRECTION('',(0.,0.,-1.));
#1525=DIRECTION('center_axis',(0.,1.,0.));
#1526=DIRECTION('ref_axis',(0.707106781186548,0.,0.707106781186547));
#1527=DIRECTION('',(0.,-1.,0.));
#1528=DIRECTION('',(0.,1.,0.));
#1529=DIRECTION('center_axis',(0.,1.,0.));
#1530=DIRECTION('ref_axis',(0.,0.,1.));
#1531=DIRECTION('center_axis',(0.,1.,0.));
#1532=DIRECTION('ref_axis',(-0.707106781186547,0.,-0.707106781186548));
#1533=DIRECTION('center_axis',(0.,0.,1.));
#1534=DIRECTION('ref_axis',(1.,1.38777878078145E-15,0.));
#1535=DIRECTION('center_axis',(-2.77555756156289E-15,-1.,0.));
#1536=DIRECTION('ref_axis',(0.,0.,-1.));
#1537=DIRECTION('center_axis',(1.,0.,0.));
#1538=DIRECTION('ref_axis',(0.,1.,0.));
#1539=DIRECTION('center_axis',(0.,1.,0.));
#1540=DIRECTION('ref_axis',(0.,0.,1.));
#1541=DIRECTION('center_axis',(-1.38777878078145E-15,1.,-2.77555756156289E-15));
#1542=DIRECTION('ref_axis',(-1.,-1.38777878078145E-15,0.));
#1543=DIRECTION('center_axis',(0.,0.,1.));
#1544=DIRECTION('ref_axis',(0.,-1.,0.));
#1545=DIRECTION('center_axis',(0.,-1.,0.));
#1546=DIRECTION('ref_axis',(-0.707106781186547,0.,-0.707106781186548));
#1547=DIRECTION('center_axis',(1.,0.,0.));
#1548=DIRECTION('ref_axis',(0.,0.,1.));
#1549=DIRECTION('center_axis',(-0.816496580927727,0.408248290463862,0.408248290463862));
#1550=DIRECTION('ref_axis',(0.577350269189625,0.577350269189627,0.577350269189626));
#1551=DIRECTION('center_axis',(-1.38777878078145E-15,1.,0.));
#1552=DIRECTION('ref_axis',(1.,1.38777878078145E-15,0.));
#1553=DIRECTION('center_axis',(0.,0.,1.));
#1554=DIRECTION('ref_axis',(0.,1.,0.));
#1555=DIRECTION('center_axis',(1.,0.,0.));
#1556=DIRECTION('ref_axis',(0.,0.,1.));
#1557=DIRECTION('center_axis',(0.,0.,1.));
#1558=DIRECTION('ref_axis',(0.707106781186547,0.707106781186548,0.));
#1559=DIRECTION('',(0.,0.,-1.));
#1560=DIRECTION('',(0.,0.,1.));
#1561=DIRECTION('center_axis',(-0.408248290463863,-0.816496580927726,-0.408248290463863));
#1562=DIRECTION('ref_axis',(0.577350269189626,-0.577350269189626,0.577350269189626));
#1563=DIRECTION('center_axis',(1.,0.,0.));
#1564=DIRECTION('ref_axis',(0.,-1.,0.));
#1565=DIRECTION('center_axis',(0.,0.,1.));
#1566=DIRECTION('ref_axis',(1.,1.38777878078145E-15,0.));
#1567=DIRECTION('center_axis',(1.38777878078145E-15,-1.,0.));
#1568=DIRECTION('ref_axis',(0.,0.,1.));
#1569=DIRECTION('center_axis',(0.,0.,1.));
#1570=DIRECTION('ref_axis',(0.707106781186547,-0.707106781186548,0.));
#1571=DIRECTION('',(0.,0.,-1.));
#1572=DIRECTION('',(0.,0.,1.));
#1573=DIRECTION('center_axis',(-7.13714801544744E-16,1.,0.));
#1574=DIRECTION('ref_axis',(0.707106781186548,9.81307786677359E-16,0.707106781186547));
#1575=DIRECTION('',(7.13714801544744E-16,-1.,0.));
#1576=DIRECTION('',(-7.13714801544744E-16,1.,0.));
#1577=DIRECTION('center_axis',(-0.408248290463863,0.408248290463862,-0.816496580927727));
#1578=DIRECTION('ref_axis',(-0.577350269189627,0.577350269189626,0.577350269189625));
#1579=DIRECTION('center_axis',(-1.,0.,-1.38777878078145E-15));
#1580=DIRECTION('ref_axis',(0.,1.,0.));
#1581=DIRECTION('center_axis',(0.,0.,1.));
#1582=DIRECTION('ref_axis',(-1.,0.,0.));
#1583=DIRECTION('center_axis',(0.,1.,0.));
#1584=DIRECTION('ref_axis',(0.,0.,1.));
#1585=DIRECTION('center_axis',(0.,-1.,0.));
#1586=DIRECTION('ref_axis',(0.,0.,-1.));
#1587=DIRECTION('center_axis',(0.,-1.,0.));
#1588=DIRECTION('ref_axis',(1.,0.,0.));
#1589=DIRECTION('center_axis',(0.,0.,1.));
#1590=DIRECTION('ref_axis',(0.,1.,0.));
#1591=DIRECTION('center_axis',(0.,1.,0.));
#1592=DIRECTION('ref_axis',(0.707106781186547,0.,-0.707106781186548));
#1593=DIRECTION('center_axis',(-1.,0.,0.));
#1594=DIRECTION('ref_axis',(0.,0.,1.));
#1595=DIRECTION('center_axis',(0.,0.,1.));
#1596=DIRECTION('ref_axis',(-0.707106781186548,0.707106781186548,0.));
#1597=DIRECTION('',(0.,0.,-1.));
#1598=DIRECTION('',(0.,0.,1.));
#1599=DIRECTION('center_axis',(-0.816496580927726,0.408248290463864,-0.408248290463863));
#1600=DIRECTION('ref_axis',(-0.577350269189626,-0.577350269189626,0.577350269189626));
#1601=DIRECTION('center_axis',(0.,-1.,0.));
#1602=DIRECTION('ref_axis',(-1.,0.,0.));
#1603=DIRECTION('center_axis',(0.,0.,1.));
#1604=DIRECTION('ref_axis',(0.,-1.,0.));
#1605=DIRECTION('center_axis',(-1.,0.,0.));
#1606=DIRECTION('ref_axis',(0.,0.,1.));
#1607=DIRECTION('center_axis',(-0.816496580927726,-0.408248290463863,-0.408248290463863));
#1608=DIRECTION('ref_axis',(-0.577350269189625,0.577350269189627,0.577350269189626));
#1609=DIRECTION('center_axis',(-1.,0.,0.));
#1610=DIRECTION('ref_axis',(0.,1.,0.));
#1611=DIRECTION('center_axis',(0.,0.,1.));
#1612=DIRECTION('ref_axis',(-1.,0.,0.));
#1613=DIRECTION('center_axis',(0.,1.,0.));
#1614=DIRECTION('ref_axis',(0.,0.,1.));
#1615=DIRECTION('center_axis',(0.,0.,1.));
#1616=DIRECTION('ref_axis',(-0.707106781186548,0.707106781186548,0.));
#1617=DIRECTION('center_axis',(0.,0.,1.));
#1618=DIRECTION('ref_axis',(-0.707106781186548,0.707106781186548,0.));
#1619=DIRECTION('',(0.,0.,1.));
#1620=DIRECTION('',(0.,0.,-1.));
#1621=DIRECTION('center_axis',(0.,-1.,0.));
#1622=DIRECTION('ref_axis',(0.,0.,-1.));
#1623=DIRECTION('center_axis',(0.,-1.,0.));
#1624=DIRECTION('ref_axis',(0.707106781186548,0.,-0.707106781186547));
#1625=DIRECTION('center_axis',(0.,0.,1.));
#1626=DIRECTION('ref_axis',(-1.,0.,0.));
#1627=DIRECTION('center_axis',(0.,1.,0.));
#1628=DIRECTION('ref_axis',(0.,0.,-1.));
#1629=DIRECTION('center_axis',(-1.,0.,0.));
#1630=DIRECTION('ref_axis',(0.,-1.,0.));
#1631=DIRECTION('center_axis',(0.,0.,1.));
#1632=DIRECTION('ref_axis',(-0.707106781186548,-0.707106781186548,0.));
#1633=DIRECTION('',(0.,0.,-1.));
#1634=DIRECTION('',(0.,0.,1.));
#1635=DIRECTION('center_axis',(-5.55111512312578E-16,-1.,0.));
#1636=DIRECTION('ref_axis',(0.707106781186548,0.,-0.707106781186547));
#1637=DIRECTION('',(5.55111512312578E-16,1.,0.));
#1638=DIRECTION('',(-5.55111512312578E-16,-1.,0.));
#1639=DIRECTION('center_axis',(-0.816496580927727,0.408248290463862,-0.408248290463862));
#1640=DIRECTION('ref_axis',(-0.577350269189625,-0.577350269189627,0.577350269189626));
#1641=DIRECTION('center_axis',(0.,-1.,0.));
#1642=DIRECTION('ref_axis',(-1.,0.,0.));
#1643=DIRECTION('center_axis',(0.,0.,1.));
#1644=DIRECTION('ref_axis',(0.,-1.,0.));
#1645=DIRECTION('center_axis',(-1.,0.,0.));
#1646=DIRECTION('ref_axis',(0.,0.,1.));
#1647=DIRECTION('center_axis',(0.,0.,1.));
#1648=DIRECTION('ref_axis',(-0.707106781186548,-0.707106781186548,0.));
#1649=DIRECTION('center_axis',(0.,0.,1.));
#1650=DIRECTION('ref_axis',(-0.707106781186548,-0.707106781186548,0.));
#1651=DIRECTION('',(0.,0.,1.));
#1652=DIRECTION('',(0.,0.,-1.));
#1653=DIRECTION('center_axis',(1.,0.,0.));
#1654=DIRECTION('ref_axis',(0.,-0.707106781186548,0.707106781186547));
#1655=DIRECTION('',(-1.,0.,0.));
#1656=DIRECTION('',(1.,0.,0.));
#1657=DIRECTION('center_axis',(0.,-1.,0.));
#1658=DIRECTION('ref_axis',(-0.707106781186548,0.,0.707106781186547));
#1659=DIRECTION('',(0.,1.,0.));
#1660=DIRECTION('',(0.,-1.,0.));
#1661=DIRECTION('center_axis',(-1.,0.,0.));
#1662=DIRECTION('ref_axis',(0.,0.707106781186548,0.707106781186547));
#1663=DIRECTION('',(1.,0.,0.));
#1664=DIRECTION('',(-1.,0.,0.));
#1665=DIRECTION('center_axis',(1.,0.,0.));
#1666=DIRECTION('ref_axis',(0.,-0.707106781186548,0.707106781186547));
#1667=DIRECTION('',(-1.,0.,0.));
#1668=DIRECTION('',(1.,0.,0.));
#1669=DIRECTION('center_axis',(-5.55111512312578E-16,-1.,0.));
#1670=DIRECTION('ref_axis',(-0.707106781186548,9.81307786677359E-16,0.707106781186547));
#1671=DIRECTION('',(5.55111512312578E-16,1.,0.));
#1672=DIRECTION('',(-5.55111512312578E-16,-1.,0.));
#1673=DIRECTION('center_axis',(-1.,0.,0.));
#1674=DIRECTION('ref_axis',(0.,0.707106781186548,0.707106781186547));
#1675=DIRECTION('',(1.,0.,0.));
#1676=DIRECTION('',(-1.,0.,0.));
#1677=DIRECTION('center_axis',(1.,0.,0.));
#1678=DIRECTION('ref_axis',(0.,-0.707106781186548,0.707106781186547));
#1679=DIRECTION('',(-1.,0.,0.));
#1680=DIRECTION('',(1.,0.,0.));
#1681=DIRECTION('center_axis',(-7.13714801544744E-16,1.,0.));
#1682=DIRECTION('ref_axis',(-0.707106781186548,0.,-0.707106781186547));
#1683=DIRECTION('',(7.13714801544744E-16,-1.,0.));
#1684=DIRECTION('',(-7.13714801544744E-16,1.,0.));
#1685=DIRECTION('center_axis',(-1.,0.,0.));
#1686=DIRECTION('ref_axis',(0.,0.707106781186548,0.707106781186547));
#1687=DIRECTION('',(1.,0.,0.));
#1688=DIRECTION('',(-1.,0.,0.));
#1689=DIRECTION('center_axis',(1.,0.,0.));
#1690=DIRECTION('ref_axis',(0.,1.,0.));
#1691=DIRECTION('',(0.,-1.,0.));
#1692=DIRECTION('center_axis',(0.,-1.,0.));
#1693=DIRECTION('ref_axis',(1.,0.,0.));
#1694=DIRECTION('',(-1.,1.11022302462516E-16,0.));
#1695=DIRECTION('center_axis',(0.,0.,1.));
#1696=DIRECTION('ref_axis',(1.,0.,0.));
#1697=DIRECTION('',(0.,1.,0.));
#1698=DIRECTION('',(1.,0.,0.));
#1699=DIRECTION('center_axis',(0.,0.,1.));
#1700=DIRECTION('ref_axis',(1.,0.,0.));
#1701=DIRECTION('center_axis',(1.,7.13714801544744E-16,0.));
#1702=DIRECTION('ref_axis',(-7.13714801544744E-16,1.,0.));
#1703=DIRECTION('center_axis',(0.,0.,1.));
#1704=DIRECTION('ref_axis',(1.,0.,0.));
#1705=DIRECTION('center_axis',(-1.,5.55111512312578E-16,0.));
#1706=DIRECTION('ref_axis',(-5.55111512312578E-16,-1.,0.));
#1707=DIRECTION('center_axis',(0.,0.,1.));
#1708=DIRECTION('ref_axis',(1.,0.,0.));
#1709=DIRECTION('center_axis',(-1.,0.,0.));
#1710=DIRECTION('ref_axis',(0.,-1.,0.));
#1711=DIRECTION('center_axis',(0.,1.,0.));
#1712=DIRECTION('ref_axis',(-1.,0.,0.));
#1713=DIRECTION('center_axis',(0.,0.,-1.));
#1714=DIRECTION('ref_axis',(1.,0.,0.));
#1715=DIRECTION('center_axis',(0.,0.,-1.));
#1716=DIRECTION('ref_axis',(1.,0.,0.));
#1717=DIRECTION('',(0.,0.,1.));
#1718=DIRECTION('center_axis',(0.,0.,1.));
#1719=DIRECTION('ref_axis',(1.,0.,0.));
#1720=DIRECTION('center_axis',(0.,0.,1.));
#1721=DIRECTION('ref_axis',(1.,0.,0.));
#1722=DIRECTION('center_axis',(-0.816496580927726,0.408248290463864,-0.408248290463863));
#1723=DIRECTION('ref_axis',(0.577350269189627,0.577350269189625,-0.577350269189625));
#1724=DIRECTION('center_axis',(0.,-1.,0.));
#1725=DIRECTION('ref_axis',(1.,0.,0.));
#1726=DIRECTION('center_axis',(-1.,0.,0.));
#1727=DIRECTION('ref_axis',(0.,0.,-1.));
#1728=DIRECTION('center_axis',(0.,0.,1.));
#1729=DIRECTION('ref_axis',(0.,1.,0.));
#1730=DIRECTION('center_axis',(0.,0.,1.));
#1731=DIRECTION('ref_axis',(0.707106781186548,0.707106781186548,0.));
#1732=DIRECTION('center_axis',(0.,0.,1.));
#1733=DIRECTION('ref_axis',(0.707106781186548,0.707106781186548,0.));
#1734=DIRECTION('',(0.,0.,1.));
#1735=DIRECTION('',(0.,0.,-1.));
#1736=DIRECTION('center_axis',(-0.816496580927726,-0.408248290463864,-0.408248290463863));
#1737=DIRECTION('ref_axis',(0.577350269189627,-0.577350269189625,-0.577350269189625));
#1738=DIRECTION('center_axis',(-1.,0.,0.));
#1739=DIRECTION('ref_axis',(0.,-1.,0.));
#1740=DIRECTION('center_axis',(0.,1.,0.));
#1741=DIRECTION('ref_axis',(0.,0.,-1.));
#1742=DIRECTION('center_axis',(0.,0.,1.));
#1743=DIRECTION('ref_axis',(1.,0.,0.));
#1744=DIRECTION('center_axis',(0.,0.,1.));
#1745=DIRECTION('ref_axis',(0.707106781186548,-0.707106781186548,0.));
#1746=DIRECTION('center_axis',(0.,0.,1.));
#1747=DIRECTION('ref_axis',(0.707106781186548,-0.707106781186548,0.));
#1748=DIRECTION('',(0.,0.,1.));
#1749=DIRECTION('',(0.,0.,-1.));
#1750=DIRECTION('center_axis',(0.,-1.,0.));
#1751=DIRECTION('ref_axis',(0.707106781186548,0.,-0.707106781186547));
#1752=DIRECTION('',(0.,1.,0.));
#1753=DIRECTION('',(0.,-1.,0.));
#1754=DIRECTION('center_axis',(0.,1.,0.));
#1755=DIRECTION('ref_axis',(0.,0.,-1.));
#1756=DIRECTION('center_axis',(0.,-1.,0.));
#1757=DIRECTION('ref_axis',(-0.707106781186547,0.,0.707106781186548));
#1758=DIRECTION('center_axis',(-1.,0.,0.));
#1759=DIRECTION('ref_axis',(0.,1.,0.));
#1760=DIRECTION('center_axis',(2.77555756156289E-15,1.,0.));
#1761=DIRECTION('ref_axis',(0.,0.,1.));
#1762=DIRECTION('center_axis',(0.,0.,1.));
#1763=DIRECTION('ref_axis',(1.,1.38777878078145E-15,0.));
#1764=DIRECTION('center_axis',(0.,1.,0.));
#1765=DIRECTION('ref_axis',(0.,0.,-1.));
#1766=DIRECTION('center_axis',(1.38777878078145E-15,-1.,-2.77555756156289E-15));
#1767=DIRECTION('ref_axis',(-1.,-1.38777878078145E-15,0.));
#1768=DIRECTION('center_axis',(-1.,0.,0.));
#1769=DIRECTION('ref_axis',(0.,0.,-1.));
#1770=DIRECTION('center_axis',(0.,1.,0.));
#1771=DIRECTION('ref_axis',(-0.707106781186547,0.,0.707106781186548));
#1772=DIRECTION('center_axis',(0.,0.,1.));
#1773=DIRECTION('ref_axis',(0.,-1.,0.));
#1774=DIRECTION('center_axis',(-0.816496580927727,0.408248290463862,-0.408248290463861));
#1775=DIRECTION('ref_axis',(0.577350269189625,0.577350269189627,-0.577350269189626));
#1776=DIRECTION('center_axis',(1.38777878078145E-15,-1.,0.));
#1777=DIRECTION('ref_axis',(1.,1.38777878078145E-15,0.));
#1778=DIRECTION('center_axis',(-1.,0.,0.));
#1779=DIRECTION('ref_axis',(0.,0.,-1.));
#1780=DIRECTION('center_axis',(0.,0.,1.));
#1781=DIRECTION('ref_axis',(0.,1.,0.));
#1782=DIRECTION('center_axis',(0.,0.,1.));
#1783=DIRECTION('ref_axis',(0.707106781186547,0.707106781186548,0.));
#1784=DIRECTION('',(0.,0.,-1.));
#1785=DIRECTION('',(0.,0.,1.));
#1786=DIRECTION('center_axis',(-0.408248290463863,-0.816496580927726,0.408248290463863));
#1787=DIRECTION('ref_axis',(0.577350269189626,-0.577350269189626,-0.577350269189626));
#1788=DIRECTION('center_axis',(-1.,0.,0.));
#1789=DIRECTION('ref_axis',(0.,-1.,0.));
#1790=DIRECTION('center_axis',(-1.38777878078145E-15,1.,0.));
#1791=DIRECTION('ref_axis',(0.,0.,-1.));
#1792=DIRECTION('center_axis',(0.,0.,1.));
#1793=DIRECTION('ref_axis',(1.,1.38777878078145E-15,0.));
#1794=DIRECTION('center_axis',(0.,0.,1.));
#1795=DIRECTION('ref_axis',(0.707106781186547,-0.707106781186548,0.));
#1796=DIRECTION('',(0.,0.,-1.));
#1797=DIRECTION('',(0.,0.,1.));
#1798=DIRECTION('center_axis',(7.13714801544744E-16,-1.,0.));
#1799=DIRECTION('ref_axis',(0.707106781186548,9.81307786677359E-16,-0.707106781186547));
#1800=DIRECTION('',(-7.13714801544744E-16,1.,0.));
#1801=DIRECTION('',(7.13714801544744E-16,-1.,0.));
#1802=DIRECTION('center_axis',(-0.408248290463863,0.408248290463862,0.816496580927727));
#1803=DIRECTION('ref_axis',(-0.577350269189627,0.577350269189625,-0.577350269189625));
#1804=DIRECTION('center_axis',(1.,0.,-1.38777878078145E-15));
#1805=DIRECTION('ref_axis',(0.,1.,0.));
#1806=DIRECTION('center_axis',(0.,-1.,0.));
#1807=DIRECTION('ref_axis',(0.,0.,-1.));
#1808=DIRECTION('center_axis',(0.,0.,1.));
#1809=DIRECTION('ref_axis',(-1.,0.,0.));
#1810=DIRECTION('center_axis',(0.,-1.,0.));
#1811=DIRECTION('ref_axis',(0.,0.,1.));
#1812=DIRECTION('center_axis',(0.,1.,0.));
#1813=DIRECTION('ref_axis',(1.,0.,0.));
#1814=DIRECTION('center_axis',(1.,0.,0.));
#1815=DIRECTION('ref_axis',(0.,0.,-1.));
#1816=DIRECTION('center_axis',(0.,-1.,0.));
#1817=DIRECTION('ref_axis',(0.707106781186547,0.,0.707106781186548));
#1818=DIRECTION('center_axis',(0.,0.,1.));
#1819=DIRECTION('ref_axis',(0.,1.,0.));
#1820=DIRECTION('center_axis',(0.,0.,1.));
#1821=DIRECTION('ref_axis',(-0.707106781186548,0.707106781186548,0.));
#1822=DIRECTION('',(0.,0.,-1.));
#1823=DIRECTION('',(0.,0.,1.));
#1824=DIRECTION('center_axis',(-0.816496580927726,0.408248290463864,0.408248290463863));
#1825=DIRECTION('ref_axis',(-0.577350269189626,-0.577350269189626,-0.577350269189626));
#1826=DIRECTION('center_axis',(0.,1.,0.));
#1827=DIRECTION('ref_axis',(-1.,0.,0.));
#1828=DIRECTION('center_axis',(1.,0.,0.));
#1829=DIRECTION('ref_axis',(0.,0.,-1.));
#1830=DIRECTION('center_axis',(0.,0.,1.));
#1831=DIRECTION('ref_axis',(0.,-1.,0.));
#1832=DIRECTION('center_axis',(-0.816496580927726,-0.408248290463863,0.408248290463863));
#1833=DIRECTION('ref_axis',(-0.577350269189625,0.577350269189627,-0.577350269189625));
#1834=DIRECTION('center_axis',(1.,0.,0.));
#1835=DIRECTION('ref_axis',(0.,1.,0.));
#1836=DIRECTION('center_axis',(0.,-1.,0.));
#1837=DIRECTION('ref_axis',(0.,0.,-1.));
#1838=DIRECTION('center_axis',(0.,0.,1.));
#1839=DIRECTION('ref_axis',(-1.,0.,0.));
#1840=DIRECTION('center_axis',(0.,0.,1.));
#1841=DIRECTION('ref_axis',(-0.707106781186548,0.707106781186548,0.));
#1842=DIRECTION('center_axis',(0.,0.,1.));
#1843=DIRECTION('ref_axis',(-0.707106781186548,0.707106781186548,0.));
#1844=DIRECTION('',(0.,0.,1.));
#1845=DIRECTION('',(0.,0.,-1.));
#1846=DIRECTION('center_axis',(0.,-1.,0.));
#1847=DIRECTION('ref_axis',(0.,0.,1.));
#1848=DIRECTION('center_axis',(0.,1.,0.));
#1849=DIRECTION('ref_axis',(0.707106781186548,0.,0.707106781186547));
#1850=DIRECTION('center_axis',(1.,0.,0.));
#1851=DIRECTION('ref_axis',(0.,-1.,0.));
#1852=DIRECTION('center_axis',(0.,-1.,0.));
#1853=DIRECTION('ref_axis',(0.,0.,1.));
#1854=DIRECTION('center_axis',(0.,0.,1.));
#1855=DIRECTION('ref_axis',(-1.,0.,0.));
#1856=DIRECTION('center_axis',(0.,0.,1.));
#1857=DIRECTION('ref_axis',(-0.707106781186548,-0.707106781186548,0.));
#1858=DIRECTION('',(0.,0.,-1.));
#1859=DIRECTION('',(0.,0.,1.));
#1860=DIRECTION('center_axis',(5.55111512312578E-16,1.,0.));
#1861=DIRECTION('ref_axis',(0.707106781186548,0.,0.707106781186547));
#1862=DIRECTION('',(-5.55111512312578E-16,-1.,0.));
#1863=DIRECTION('',(5.55111512312578E-16,1.,0.));
#1864=DIRECTION('center_axis',(-0.816496580927727,0.408248290463862,0.408248290463862));
#1865=DIRECTION('ref_axis',(-0.577350269189625,-0.577350269189627,-0.577350269189626));
#1866=DIRECTION('center_axis',(0.,1.,0.));
#1867=DIRECTION('ref_axis',(-1.,0.,0.));
#1868=DIRECTION('center_axis',(1.,0.,0.));
#1869=DIRECTION('ref_axis',(0.,0.,-1.));
#1870=DIRECTION('center_axis',(0.,0.,1.));
#1871=DIRECTION('ref_axis',(0.,-1.,0.));
#1872=DIRECTION('center_axis',(0.,0.,1.));
#1873=DIRECTION('ref_axis',(-0.707106781186548,-0.707106781186548,0.));
#1874=DIRECTION('center_axis',(0.,0.,1.));
#1875=DIRECTION('ref_axis',(-0.707106781186548,-0.707106781186548,0.));
#1876=DIRECTION('',(0.,0.,1.));
#1877=DIRECTION('',(0.,0.,-1.));
#1878=DIRECTION('center_axis',(-1.,0.,0.));
#1879=DIRECTION('ref_axis',(0.,-0.707106781186548,-0.707106781186547));
#1880=DIRECTION('',(1.,0.,0.));
#1881=DIRECTION('',(-1.,0.,0.));
#1882=DIRECTION('center_axis',(0.,1.,0.));
#1883=DIRECTION('ref_axis',(-0.707106781186548,0.,-0.707106781186547));
#1884=DIRECTION('',(0.,-1.,0.));
#1885=DIRECTION('',(0.,1.,0.));
#1886=DIRECTION('center_axis',(1.,0.,0.));
#1887=DIRECTION('ref_axis',(0.,0.707106781186548,-0.707106781186547));
#1888=DIRECTION('',(-1.,0.,0.));
#1889=DIRECTION('',(1.,0.,0.));
#1890=DIRECTION('center_axis',(-1.,0.,0.));
#1891=DIRECTION('ref_axis',(0.,-0.707106781186548,-0.707106781186547));
#1892=DIRECTION('',(1.,0.,0.));
#1893=DIRECTION('',(-1.,0.,0.));
#1894=DIRECTION('center_axis',(5.55111512312578E-16,1.,0.));
#1895=DIRECTION('ref_axis',(-0.707106781186548,9.81307786677359E-16,-0.707106781186547));
#1896=DIRECTION('',(-5.55111512312578E-16,-1.,0.));
#1897=DIRECTION('',(5.55111512312578E-16,1.,0.));
#1898=DIRECTION('center_axis',(1.,0.,0.));
#1899=DIRECTION('ref_axis',(0.,0.707106781186548,-0.707106781186547));
#1900=DIRECTION('',(-1.,0.,0.));
#1901=DIRECTION('',(1.,0.,0.));
#1902=DIRECTION('center_axis',(-1.,0.,0.));
#1903=DIRECTION('ref_axis',(0.,-0.707106781186548,-0.707106781186547));
#1904=DIRECTION('',(1.,0.,0.));
#1905=DIRECTION('',(-1.,0.,0.));
#1906=DIRECTION('center_axis',(7.13714801544744E-16,-1.,0.));
#1907=DIRECTION('ref_axis',(-0.707106781186548,0.,0.707106781186547));
#1908=DIRECTION('',(-7.13714801544744E-16,1.,0.));
#1909=DIRECTION('',(7.13714801544744E-16,-1.,0.));
#1910=DIRECTION('center_axis',(1.,0.,0.));
#1911=DIRECTION('ref_axis',(0.,0.707106781186548,-0.707106781186547));
#1912=DIRECTION('',(-1.,0.,0.));
#1913=DIRECTION('',(1.,0.,0.));
#1914=DIRECTION('center_axis',(-1.,0.,0.));
#1915=DIRECTION('ref_axis',(0.,1.,0.));
#1916=DIRECTION('',(0.,-1.,0.));
#1917=DIRECTION('center_axis',(0.,1.,0.));
#1918=DIRECTION('ref_axis',(1.,0.,0.));
#1919=DIRECTION('',(-1.,1.11022302462516E-16,0.));
#1920=DIRECTION('center_axis',(0.,0.,1.));
#1921=DIRECTION('ref_axis',(1.,0.,0.));
#1922=DIRECTION('',(1.,0.,0.));
#1923=DIRECTION('',(0.,1.,0.));
#1924=DIRECTION('center_axis',(0.,0.,1.));
#1925=DIRECTION('ref_axis',(1.,0.,0.));
#1926=DIRECTION('center_axis',(-1.,-7.13714801544744E-16,0.));
#1927=DIRECTION('ref_axis',(-7.13714801544744E-16,1.,0.));
#1928=DIRECTION('center_axis',(0.,0.,1.));
#1929=DIRECTION('ref_axis',(1.,0.,0.));
#1930=DIRECTION('center_axis',(1.,-5.55111512312578E-16,0.));
#1931=DIRECTION('ref_axis',(-5.55111512312578E-16,-1.,0.));
#1932=DIRECTION('center_axis',(0.,0.,1.));
#1933=DIRECTION('ref_axis',(1.,0.,0.));
#1934=DIRECTION('center_axis',(1.,0.,0.));
#1935=DIRECTION('ref_axis',(0.,-1.,0.));
#1936=DIRECTION('center_axis',(0.,-1.,0.));
#1937=DIRECTION('ref_axis',(-1.,0.,0.));
#1938=CARTESIAN_POINT('',(0.,0.,0.));
#1939=CARTESIAN_POINT('Origin',(0.,0.,0.));
#1940=CARTESIAN_POINT('',(-1.1,-1.34711147906209E-16,25.));
#1941=CARTESIAN_POINT('Origin',(0.,0.,25.));
#1942=CARTESIAN_POINT('',(-1.1,1.34711147906209E-16,2.));
#1943=CARTESIAN_POINT('',(-1.1,-1.34711147906209E-16,0.));
#1944=CARTESIAN_POINT('Origin',(0.,0.,2.));
#1945=CARTESIAN_POINT('Origin',(0.,0.,25.));
#1946=CARTESIAN_POINT('Origin',(4.6,3.1,0.6));
#1947=CARTESIAN_POINT('',(5.,3.1,0.6));
#1948=CARTESIAN_POINT('',(4.6,3.1,1.));
#1949=CARTESIAN_POINT('Origin',(4.6,3.1,0.6));
#1950=CARTESIAN_POINT('',(4.6,3.5,0.6));
#1951=CARTESIAN_POINT('Origin',(4.6,3.1,0.6));
#1952=CARTESIAN_POINT('Origin',(4.6,3.1,0.6));
#1953=CARTESIAN_POINT('Origin',(4.6,3.1,0.));
#1954=CARTESIAN_POINT('',(5.,3.1,0.));
#1955=CARTESIAN_POINT('',(4.6,3.5,0.));
#1956=CARTESIAN_POINT('Origin',(4.6,3.1,0.));
#1957=CARTESIAN_POINT('',(4.6,3.5,0.));
#1958=CARTESIAN_POINT('',(5.,3.1,0.));
#1959=CARTESIAN_POINT('Origin',(4.6,-3.1,0.6));
#1960=CARTESIAN_POINT('',(4.6,-3.5,0.6));
#1961=CARTESIAN_POINT('',(4.6,-3.1,1.));
#1962=CARTESIAN_POINT('Origin',(4.6,-3.1,0.6));
#1963=CARTESIAN_POINT('',(5.,-3.1,0.6));
#1964=CARTESIAN_POINT('Origin',(4.6,-3.1,0.6));
#1965=CARTESIAN_POINT('Origin',(4.6,-3.1,0.6));
#1966=CARTESIAN_POINT('Origin',(4.6,-3.1,0.));
#1967=CARTESIAN_POINT('',(4.6,-3.5,0.));
#1968=CARTESIAN_POINT('',(5.,-3.1,0.));
#1969=CARTESIAN_POINT('Origin',(4.6,-3.1,0.));
#1970=CARTESIAN_POINT('',(5.,-3.1,0.));
#1971=CARTESIAN_POINT('',(4.6,-3.5,0.));
#1972=CARTESIAN_POINT('Origin',(4.6,-1.75,0.6));
#1973=CARTESIAN_POINT('',(4.6,-1.75,1.));
#1974=CARTESIAN_POINT('',(5.,-1.75,0.6));
#1975=CARTESIAN_POINT('Origin',(3.9,3.1,1.4));
#1976=CARTESIAN_POINT('',(3.9,3.5,0.6));
#1977=CARTESIAN_POINT('',(3.1,3.5,1.4));
#1978=CARTESIAN_POINT('Origin',(3.9,3.5,1.4));
#1979=CARTESIAN_POINT('',(3.5,3.1,1.4));
#1980=CARTESIAN_POINT('Origin',(3.1,3.1,1.4));
#1981=CARTESIAN_POINT('',(3.9,3.1,1.));
#1982=CARTESIAN_POINT('Origin',(3.9,3.1,1.4));
#1983=CARTESIAN_POINT('Origin',(3.9,3.1,0.6));
#1984=CARTESIAN_POINT('Origin',(3.9,-3.1,1.4));
#1985=CARTESIAN_POINT('',(3.5,-3.1,1.4));
#1986=CARTESIAN_POINT('',(3.9,-3.1,1.));
#1987=CARTESIAN_POINT('Origin',(3.9,-3.1,1.4));
#1988=CARTESIAN_POINT('',(3.1,-3.5,1.4));
#1989=CARTESIAN_POINT('Origin',(3.1,-3.1,1.4));
#1990=CARTESIAN_POINT('',(3.9,-3.5,0.6));
#1991=CARTESIAN_POINT('Origin',(3.9,-3.5,1.4));
#1992=CARTESIAN_POINT('Origin',(3.9,-3.1,0.6));
#1993=CARTESIAN_POINT('Origin',(3.1,3.1,1.6));
#1994=CARTESIAN_POINT('',(3.5,3.1,1.6));
#1995=CARTESIAN_POINT('',(3.1,3.1,2.));
#1996=CARTESIAN_POINT('Origin',(3.1,3.1,1.6));
#1997=CARTESIAN_POINT('',(3.1,3.5,1.6));
#1998=CARTESIAN_POINT('Origin',(3.1,3.1,1.6));
#1999=CARTESIAN_POINT('Origin',(3.1,3.1,1.6));
#2000=CARTESIAN_POINT('Origin',(3.1,3.1,0.));
#2001=CARTESIAN_POINT('',(3.5,3.1,0.));
#2002=CARTESIAN_POINT('',(3.1,3.5,0.));
#2003=CARTESIAN_POINT('Origin',(3.1,-3.1,1.6));
#2004=CARTESIAN_POINT('',(3.1,-3.5,1.6));
#2005=CARTESIAN_POINT('',(3.1,-3.1,2.));
#2006=CARTESIAN_POINT('Origin',(3.1,-3.1,1.6));
#2007=CARTESIAN_POINT('',(3.5,-3.1,1.6));
#2008=CARTESIAN_POINT('Origin',(3.1,-3.1,1.6));
#2009=CARTESIAN_POINT('Origin',(3.1,-3.1,1.6));
#2010=CARTESIAN_POINT('Origin',(3.1,-3.1,0.));
#2011=CARTESIAN_POINT('',(3.1,-3.5,0.));
#2012=CARTESIAN_POINT('',(3.5,-3.1,0.));
#2013=CARTESIAN_POINT('Origin',(3.1,-1.75,1.6));
#2014=CARTESIAN_POINT('',(3.1,-1.75,2.));
#2015=CARTESIAN_POINT('',(3.5,-1.75,1.6));
#2016=CARTESIAN_POINT('Origin',(-3.1,3.1,1.6));
#2017=CARTESIAN_POINT('',(-3.1,3.5,1.6));
#2018=CARTESIAN_POINT('',(-3.1,3.1,2.));
#2019=CARTESIAN_POINT('Origin',(-3.1,3.1,1.6));
#2020=CARTESIAN_POINT('',(-3.5,3.1,1.6));
#2021=CARTESIAN_POINT('Origin',(-3.1,3.1,1.6));
#2022=CARTESIAN_POINT('Origin',(-3.1,3.1,1.6));
#2023=CARTESIAN_POINT('Origin',(-3.9,3.1,1.4));
#2024=CARTESIAN_POINT('',(-3.5,3.1,1.4));
#2025=CARTESIAN_POINT('',(-3.9,3.1,1.));
#2026=CARTESIAN_POINT('Origin',(-3.9,3.1,1.4));
#2027=CARTESIAN_POINT('',(-3.1,3.5,1.4));
#2028=CARTESIAN_POINT('Origin',(-3.1,3.1,1.4));
#2029=CARTESIAN_POINT('',(-3.9,3.5,0.6));
#2030=CARTESIAN_POINT('Origin',(-3.9,3.5,1.4));
#2031=CARTESIAN_POINT('Origin',(-3.9,3.1,0.6));
#2032=CARTESIAN_POINT('Origin',(-3.1,3.1,0.));
#2033=CARTESIAN_POINT('',(-3.1,3.5,0.));
#2034=CARTESIAN_POINT('',(-3.5,3.1,0.));
#2035=CARTESIAN_POINT('Origin',(-3.1,-3.1,1.6));
#2036=CARTESIAN_POINT('',(-3.5,-3.1,1.6));
#2037=CARTESIAN_POINT('',(-3.1,-3.1,2.));
#2038=CARTESIAN_POINT('Origin',(-3.1,-3.1,1.6));
#2039=CARTESIAN_POINT('',(-3.1,-3.5,1.6));
#2040=CARTESIAN_POINT('Origin',(-3.1,-3.1,1.6));
#2041=CARTESIAN_POINT('Origin',(-3.1,-3.1,1.6));
#2042=CARTESIAN_POINT('Origin',(-4.6,3.1,0.6));
#2043=CARTESIAN_POINT('',(-4.6,3.5,0.6));
#2044=CARTESIAN_POINT('',(-4.6,3.1,1.));
#2045=CARTESIAN_POINT('Origin',(-4.6,3.1,0.6));
#2046=CARTESIAN_POINT('',(-5.,3.1,0.6));
#2047=CARTESIAN_POINT('Origin',(-4.6,3.1,0.6));
#2048=CARTESIAN_POINT('Origin',(-4.6,3.1,0.6));
#2049=CARTESIAN_POINT('Origin',(-4.6,3.1,0.));
#2050=CARTESIAN_POINT('',(-4.6,3.5,0.));
#2051=CARTESIAN_POINT('',(-5.,3.1,0.));
#2052=CARTESIAN_POINT('Origin',(-4.6,3.1,0.));
#2053=CARTESIAN_POINT('',(-5.,3.1,0.));
#2054=CARTESIAN_POINT('',(-4.6,3.5,0.));
#2055=CARTESIAN_POINT('Origin',(-3.90000000000001,-3.1,1.4));
#2056=CARTESIAN_POINT('',(-3.90000000000001,-3.5,0.6));
#2057=CARTESIAN_POINT('',(-3.1,-3.5,1.4));
#2058=CARTESIAN_POINT('Origin',(-3.90000000000001,-3.5,1.4));
#2059=CARTESIAN_POINT('',(-3.5,-3.1,1.4));
#2060=CARTESIAN_POINT('Origin',(-3.1,-3.1,1.4));
#2061=CARTESIAN_POINT('',(-3.90000000000001,-3.1,1.));
#2062=CARTESIAN_POINT('Origin',(-3.90000000000001,-3.1,1.4));
#2063=CARTESIAN_POINT('Origin',(-3.90000000000001,-3.1,0.6));
#2064=CARTESIAN_POINT('Origin',(-3.1,-3.1,0.));
#2065=CARTESIAN_POINT('',(-3.5,-3.1,0.));
#2066=CARTESIAN_POINT('',(-3.1,-3.5,0.));
#2067=CARTESIAN_POINT('Origin',(-3.9,1.75,1.4));
#2068=CARTESIAN_POINT('',(-3.5,1.75,1.4));
#2069=CARTESIAN_POINT('',(-3.9,1.75,1.));
#2070=CARTESIAN_POINT('Origin',(-4.6,-3.1,0.6));
#2071=CARTESIAN_POINT('',(-5.,-3.1,0.6));
#2072=CARTESIAN_POINT('',(-4.6,-3.1,1.));
#2073=CARTESIAN_POINT('Origin',(-4.6,-3.1,0.6));
#2074=CARTESIAN_POINT('',(-4.6,-3.5,0.6));
#2075=CARTESIAN_POINT('Origin',(-4.6,-3.1,0.6));
#2076=CARTESIAN_POINT('Origin',(-4.6,-3.1,0.6));
#2077=CARTESIAN_POINT('Origin',(-4.6,-3.1,0.));
#2078=CARTESIAN_POINT('',(-5.,-3.1,0.));
#2079=CARTESIAN_POINT('',(-4.6,-3.5,0.));
#2080=CARTESIAN_POINT('Origin',(-4.6,-3.1,0.));
#2081=CARTESIAN_POINT('',(-4.6,-3.5,0.));
#2082=CARTESIAN_POINT('',(-5.,-3.1,0.));
#2083=CARTESIAN_POINT('Origin',(-1.75,-3.1,0.6));
#2084=CARTESIAN_POINT('',(-1.75,-3.1,1.));
#2085=CARTESIAN_POINT('',(-1.75,-3.5,0.6));
#2086=CARTESIAN_POINT('Origin',(-4.6,1.75,0.6));
#2087=CARTESIAN_POINT('',(-4.6,1.75,1.));
#2088=CARTESIAN_POINT('',(-5.,1.75,0.6));
#2089=CARTESIAN_POINT('Origin',(1.75,3.1,0.6));
#2090=CARTESIAN_POINT('',(1.75,3.1,1.));
#2091=CARTESIAN_POINT('',(1.75,3.5,0.6));
#2092=CARTESIAN_POINT('Origin',(-1.75,-3.1,1.6));
#2093=CARTESIAN_POINT('',(-1.75,-3.1,2.));
#2094=CARTESIAN_POINT('',(-1.75,-3.5,1.6));
#2095=CARTESIAN_POINT('Origin',(-3.1,1.75,1.6));
#2096=CARTESIAN_POINT('',(-3.1,1.75,2.));
#2097=CARTESIAN_POINT('',(-3.5,1.75,1.6));
#2098=CARTESIAN_POINT('Origin',(1.75,3.1,1.6));
#2099=CARTESIAN_POINT('',(1.75,3.1,2.));
#2100=CARTESIAN_POINT('',(1.75,3.5,1.6));
#2101=CARTESIAN_POINT('Origin',(-1.75,-3.1,0.6));
#2102=CARTESIAN_POINT('',(-1.75,-3.1,1.));
#2103=CARTESIAN_POINT('',(-1.75,-3.5,0.6));
#2104=CARTESIAN_POINT('Origin',(3.9,-1.75,1.4));
#2105=CARTESIAN_POINT('',(3.5,-1.75,1.4));
#2106=CARTESIAN_POINT('',(3.9,-1.75,1.));
#2107=CARTESIAN_POINT('Origin',(1.75,3.1,0.6));
#2108=CARTESIAN_POINT('',(1.75,3.1,1.));
#2109=CARTESIAN_POINT('',(1.75,3.5,0.6));
#2110=CARTESIAN_POINT('Origin',(5.,-3.5,0.));
#2111=CARTESIAN_POINT('',(5.,3.5,0.));
#2112=CARTESIAN_POINT('Origin',(-3.5,-3.5,0.));
#2113=CARTESIAN_POINT('',(5.,-3.5,0.));
#2114=CARTESIAN_POINT('Origin',(0.,-2.22044604925031E-15,0.));
#2115=CARTESIAN_POINT('',(-5.,-3.5,0.));
#2116=CARTESIAN_POINT('',(-3.5,3.5,0.));
#2117=CARTESIAN_POINT('Origin',(0.,-2.22044604925031E-15,1.));
#2118=CARTESIAN_POINT('Origin',(3.5,-3.5,0.));
#2119=CARTESIAN_POINT('Origin',(0.,-2.22044604925031E-15,2.));
#2120=CARTESIAN_POINT('Origin',(-3.5,3.5,0.));
#2121=CARTESIAN_POINT('Origin',(0.,-2.22044604925031E-15,1.));
#2122=CARTESIAN_POINT('Origin',(-5.,3.5,0.));
#2123=CARTESIAN_POINT('Origin',(3.5,3.5,0.));
#2124=CARTESIAN_POINT('Origin',(0.,0.,-1.6));
#2125=CARTESIAN_POINT('',(-1.1,1.34711147906209E-16,-26.6));
#2126=CARTESIAN_POINT('Origin',(0.,0.,-26.6));
#2127=CARTESIAN_POINT('',(-1.1,-1.34711147906209E-16,-3.6));
#2128=CARTESIAN_POINT('',(-1.1,1.34711147906209E-16,-1.6));
#2129=CARTESIAN_POINT('Origin',(0.,0.,-3.6));
#2130=CARTESIAN_POINT('Origin',(0.,0.,-26.6));
#2131=CARTESIAN_POINT('Origin',(4.6,3.1,-2.2));
#2132=CARTESIAN_POINT('',(5.,3.1,-2.2));
#2133=CARTESIAN_POINT('',(4.6,3.1,-2.6));
#2134=CARTESIAN_POINT('Origin',(4.6,3.1,-2.2));
#2135=CARTESIAN_POINT('',(4.6,3.5,-2.2));
#2136=CARTESIAN_POINT('Origin',(4.6,3.1,-2.2));
#2137=CARTESIAN_POINT('Origin',(4.6,3.1,-2.2));
#2138=CARTESIAN_POINT('Origin',(4.6,3.1,-1.6));
#2139=CARTESIAN_POINT('',(5.,3.1,-1.6));
#2140=CARTESIAN_POINT('',(4.6,3.5,-1.6));
#2141=CARTESIAN_POINT('Origin',(4.6,3.1,-1.6));
#2142=CARTESIAN_POINT('',(5.,3.1,-1.6));
#2143=CARTESIAN_POINT('',(4.6,3.5,-1.6));
#2144=CARTESIAN_POINT('Origin',(4.6,-3.1,-2.2));
#2145=CARTESIAN_POINT('',(4.6,-3.5,-2.2));
#2146=CARTESIAN_POINT('',(4.6,-3.1,-2.6));
#2147=CARTESIAN_POINT('Origin',(4.6,-3.1,-2.2));
#2148=CARTESIAN_POINT('',(5.,-3.1,-2.2));
#2149=CARTESIAN_POINT('Origin',(4.6,-3.1,-2.2));
#2150=CARTESIAN_POINT('Origin',(4.6,-3.1,-2.2));
#2151=CARTESIAN_POINT('Origin',(4.6,-3.1,-1.6));
#2152=CARTESIAN_POINT('',(4.6,-3.5,-1.6));
#2153=CARTESIAN_POINT('',(5.,-3.1,-1.6));
#2154=CARTESIAN_POINT('Origin',(4.6,-3.1,-1.6));
#2155=CARTESIAN_POINT('',(4.6,-3.5,-1.6));
#2156=CARTESIAN_POINT('',(5.,-3.1,-1.6));
#2157=CARTESIAN_POINT('Origin',(4.6,-1.75,-2.2));
#2158=CARTESIAN_POINT('',(5.,-1.75,-2.2));
#2159=CARTESIAN_POINT('',(4.6,-1.75,-2.6));
#2160=CARTESIAN_POINT('Origin',(3.9,3.1,-3.));
#2161=CARTESIAN_POINT('',(3.9,3.5,-2.2));
#2162=CARTESIAN_POINT('',(3.1,3.5,-3.));
#2163=CARTESIAN_POINT('Origin',(3.9,3.5,-3.));
#2164=CARTESIAN_POINT('',(3.9,3.1,-2.6));
#2165=CARTESIAN_POINT('Origin',(3.9,3.1,-2.2));
#2166=CARTESIAN_POINT('',(3.5,3.1,-3.));
#2167=CARTESIAN_POINT('Origin',(3.9,3.1,-3.));
#2168=CARTESIAN_POINT('Origin',(3.1,3.1,-3.));
#2169=CARTESIAN_POINT('Origin',(3.9,-3.1,-3.));
#2170=CARTESIAN_POINT('',(3.5,-3.1,-3.));
#2171=CARTESIAN_POINT('',(3.9,-3.1,-2.6));
#2172=CARTESIAN_POINT('Origin',(3.9,-3.1,-3.));
#2173=CARTESIAN_POINT('',(3.9,-3.5,-2.2));
#2174=CARTESIAN_POINT('Origin',(3.9,-3.1,-2.2));
#2175=CARTESIAN_POINT('',(3.1,-3.5,-3.));
#2176=CARTESIAN_POINT('Origin',(3.9,-3.5,-3.));
#2177=CARTESIAN_POINT('Origin',(3.1,-3.1,-3.));
#2178=CARTESIAN_POINT('Origin',(3.1,3.1,-3.2));
#2179=CARTESIAN_POINT('',(3.5,3.1,-3.2));
#2180=CARTESIAN_POINT('',(3.1,3.1,-3.6));
#2181=CARTESIAN_POINT('Origin',(3.1,3.1,-3.2));
#2182=CARTESIAN_POINT('',(3.1,3.5,-3.2));
#2183=CARTESIAN_POINT('Origin',(3.1,3.1,-3.2));
#2184=CARTESIAN_POINT('Origin',(3.1,3.1,-3.2));
#2185=CARTESIAN_POINT('Origin',(3.1,3.1,-1.6));
#2186=CARTESIAN_POINT('',(3.1,3.5,-1.6));
#2187=CARTESIAN_POINT('',(3.5,3.1,-1.6));
#2188=CARTESIAN_POINT('Origin',(3.1,-3.1,-3.2));
#2189=CARTESIAN_POINT('',(3.1,-3.5,-3.2));
#2190=CARTESIAN_POINT('',(3.1,-3.1,-3.6));
#2191=CARTESIAN_POINT('Origin',(3.1,-3.1,-3.2));
#2192=CARTESIAN_POINT('',(3.5,-3.1,-3.2));
#2193=CARTESIAN_POINT('Origin',(3.1,-3.1,-3.2));
#2194=CARTESIAN_POINT('Origin',(3.1,-3.1,-3.2));
#2195=CARTESIAN_POINT('Origin',(3.1,-3.1,-1.6));
#2196=CARTESIAN_POINT('',(3.5,-3.1,-1.6));
#2197=CARTESIAN_POINT('',(3.1,-3.5,-1.6));
#2198=CARTESIAN_POINT('Origin',(3.1,-1.75,-3.2));
#2199=CARTESIAN_POINT('',(3.5,-1.75,-3.2));
#2200=CARTESIAN_POINT('',(3.1,-1.75,-3.6));
#2201=CARTESIAN_POINT('Origin',(-3.1,3.1,-3.2));
#2202=CARTESIAN_POINT('',(-3.1,3.5,-3.2));
#2203=CARTESIAN_POINT('',(-3.1,3.1,-3.6));
#2204=CARTESIAN_POINT('Origin',(-3.1,3.1,-3.2));
#2205=CARTESIAN_POINT('',(-3.5,3.1,-3.2));
#2206=CARTESIAN_POINT('Origin',(-3.1,3.1,-3.2));
#2207=CARTESIAN_POINT('Origin',(-3.1,3.1,-3.2));
#2208=CARTESIAN_POINT('Origin',(-3.9,3.1,-3.));
#2209=CARTESIAN_POINT('',(-3.5,3.1,-3.));
#2210=CARTESIAN_POINT('',(-3.9,3.1,-2.6));
#2211=CARTESIAN_POINT('Origin',(-3.9,3.1,-3.));
#2212=CARTESIAN_POINT('',(-3.9,3.5,-2.2));
#2213=CARTESIAN_POINT('Origin',(-3.9,3.1,-2.2));
#2214=CARTESIAN_POINT('',(-3.1,3.5,-3.));
#2215=CARTESIAN_POINT('Origin',(-3.9,3.5,-3.));
#2216=CARTESIAN_POINT('Origin',(-3.1,3.1,-3.));
#2217=CARTESIAN_POINT('Origin',(-3.1,3.1,-1.6));
#2218=CARTESIAN_POINT('',(-3.5,3.1,-1.6));
#2219=CARTESIAN_POINT('',(-3.1,3.5,-1.6));
#2220=CARTESIAN_POINT('Origin',(-3.1,-3.1,-3.2));
#2221=CARTESIAN_POINT('',(-3.5,-3.1,-3.2));
#2222=CARTESIAN_POINT('',(-3.1,-3.1,-3.6));
#2223=CARTESIAN_POINT('Origin',(-3.1,-3.1,-3.2));
#2224=CARTESIAN_POINT('',(-3.1,-3.5,-3.2));
#2225=CARTESIAN_POINT('Origin',(-3.1,-3.1,-3.2));
#2226=CARTESIAN_POINT('Origin',(-3.1,-3.1,-3.2));
#2227=CARTESIAN_POINT('Origin',(-4.6,3.1,-2.2));
#2228=CARTESIAN_POINT('',(-4.6,3.5,-2.2));
#2229=CARTESIAN_POINT('',(-4.6,3.1,-2.6));
#2230=CARTESIAN_POINT('Origin',(-4.6,3.1,-2.2));
#2231=CARTESIAN_POINT('',(-5.,3.1,-2.2));
#2232=CARTESIAN_POINT('Origin',(-4.6,3.1,-2.2));
#2233=CARTESIAN_POINT('Origin',(-4.6,3.1,-2.2));
#2234=CARTESIAN_POINT('Origin',(-4.6,3.1,-1.6));
#2235=CARTESIAN_POINT('',(-4.6,3.5,-1.6));
#2236=CARTESIAN_POINT('',(-5.,3.1,-1.6));
#2237=CARTESIAN_POINT('Origin',(-4.6,3.1,-1.6));
#2238=CARTESIAN_POINT('',(-4.6,3.5,-1.6));
#2239=CARTESIAN_POINT('',(-5.,3.1,-1.6));
#2240=CARTESIAN_POINT('Origin',(-3.90000000000001,-3.1,-3.));
#2241=CARTESIAN_POINT('',(-3.90000000000001,-3.5,-2.2));
#2242=CARTESIAN_POINT('',(-3.1,-3.5,-3.));
#2243=CARTESIAN_POINT('Origin',(-3.90000000000001,-3.5,-3.));
#2244=CARTESIAN_POINT('',(-3.90000000000001,-3.1,-2.6));
#2245=CARTESIAN_POINT('Origin',(-3.90000000000001,-3.1,-2.2));
#2246=CARTESIAN_POINT('',(-3.5,-3.1,-3.));
#2247=CARTESIAN_POINT('Origin',(-3.90000000000001,-3.1,-3.));
#2248=CARTESIAN_POINT('Origin',(-3.1,-3.1,-3.));
#2249=CARTESIAN_POINT('Origin',(-3.1,-3.1,-1.6));
#2250=CARTESIAN_POINT('',(-3.1,-3.5,-1.6));
#2251=CARTESIAN_POINT('',(-3.5,-3.1,-1.6));
#2252=CARTESIAN_POINT('Origin',(-3.9,1.75,-3.));
#2253=CARTESIAN_POINT('',(-3.9,1.75,-2.6));
#2254=CARTESIAN_POINT('',(-3.5,1.75,-3.));
#2255=CARTESIAN_POINT('Origin',(-4.6,-3.1,-2.2));
#2256=CARTESIAN_POINT('',(-5.,-3.1,-2.2));
#2257=CARTESIAN_POINT('',(-4.6,-3.1,-2.6));
#2258=CARTESIAN_POINT('Origin',(-4.6,-3.1,-2.2));
#2259=CARTESIAN_POINT('',(-4.6,-3.5,-2.2));
#2260=CARTESIAN_POINT('Origin',(-4.6,-3.1,-2.2));
#2261=CARTESIAN_POINT('Origin',(-4.6,-3.1,-2.2));
#2262=CARTESIAN_POINT('Origin',(-4.6,-3.1,-1.6));
#2263=CARTESIAN_POINT('',(-5.,-3.1,-1.6));
#2264=CARTESIAN_POINT('',(-4.6,-3.5,-1.6));
#2265=CARTESIAN_POINT('Origin',(-4.6,-3.1,-1.6));
#2266=CARTESIAN_POINT('',(-5.,-3.1,-1.6));
#2267=CARTESIAN_POINT('',(-4.6,-3.5,-1.6));
#2268=CARTESIAN_POINT('Origin',(-1.75,-3.1,-2.2));
#2269=CARTESIAN_POINT('',(-1.75,-3.5,-2.2));
#2270=CARTESIAN_POINT('',(-1.75,-3.1,-2.6));
#2271=CARTESIAN_POINT('Origin',(-4.6,1.75,-2.2));
#2272=CARTESIAN_POINT('',(-5.,1.75,-2.2));
#2273=CARTESIAN_POINT('',(-4.6,1.75,-2.6));
#2274=CARTESIAN_POINT('Origin',(1.75,3.1,-2.2));
#2275=CARTESIAN_POINT('',(1.75,3.5,-2.2));
#2276=CARTESIAN_POINT('',(1.75,3.1,-2.6));
#2277=CARTESIAN_POINT('Origin',(-1.75,-3.1,-3.2));
#2278=CARTESIAN_POINT('',(-1.75,-3.5,-3.2));
#2279=CARTESIAN_POINT('',(-1.75,-3.1,-3.6));
#2280=CARTESIAN_POINT('Origin',(-3.1,1.75,-3.2));
#2281=CARTESIAN_POINT('',(-3.5,1.75,-3.2));
#2282=CARTESIAN_POINT('',(-3.1,1.75,-3.6));
#2283=CARTESIAN_POINT('Origin',(1.75,3.1,-3.2));
#2284=CARTESIAN_POINT('',(1.75,3.5,-3.2));
#2285=CARTESIAN_POINT('',(1.75,3.1,-3.6));
#2286=CARTESIAN_POINT('Origin',(-1.75,-3.1,-2.2));
#2287=CARTESIAN_POINT('',(-1.75,-3.5,-2.2));
#2288=CARTESIAN_POINT('',(-1.75,-3.1,-2.6));
#2289=CARTESIAN_POINT('Origin',(3.9,-1.75,-3.));
#2290=CARTESIAN_POINT('',(3.9,-1.75,-2.6));
#2291=CARTESIAN_POINT('',(3.5,-1.75,-3.));
#2292=CARTESIAN_POINT('Origin',(1.75,3.1,-2.2));
#2293=CARTESIAN_POINT('',(1.75,3.5,-2.2));
#2294=CARTESIAN_POINT('',(1.75,3.1,-2.6));
#2295=CARTESIAN_POINT('Origin',(5.,-3.5,-1.6));
#2296=CARTESIAN_POINT('',(5.,3.5,-1.6));
#2297=CARTESIAN_POINT('Origin',(-3.5,-3.5,-1.6));
#2298=CARTESIAN_POINT('',(5.,-3.5,-1.6));
#2299=CARTESIAN_POINT('Origin',(0.,-2.22044604925031E-15,-1.6));
#2300=CARTESIAN_POINT('',(-3.5,3.5,-1.6));
#2301=CARTESIAN_POINT('',(-5.,-3.5,-1.6));
#2302=CARTESIAN_POINT('Origin',(0.,-2.22044604925031E-15,-2.6));
#2303=CARTESIAN_POINT('Origin',(3.5,-3.5,-1.6));
#2304=CARTESIAN_POINT('Origin',(0.,-2.22044604925031E-15,-3.6));
#2305=CARTESIAN_POINT('Origin',(-3.5,3.5,-1.6));
#2306=CARTESIAN_POINT('Origin',(0.,-2.22044604925031E-15,-2.6));
#2307=CARTESIAN_POINT('Origin',(-5.,3.5,-1.6));
#2308=CARTESIAN_POINT('Origin',(3.5,3.5,-1.6));
#2309=UNCERTAINTY_MEASURE_WITH_UNIT(LENGTH_MEASURE(0.01),#2313,
'DISTANCE_ACCURACY_VALUE',
'Maximum model space distance between geometric entities at asserted c
onnectivities');
#2310=UNCERTAINTY_MEASURE_WITH_UNIT(LENGTH_MEASURE(0.01),#2313,
'DISTANCE_ACCURACY_VALUE',
'Maximum model space distance between geometric entities at asserted c
onnectivities');
#2311=(
GEOMETRIC_REPRESENTATION_CONTEXT(3)
GLOBAL_UNCERTAINTY_ASSIGNED_CONTEXT((#2309))
GLOBAL_UNIT_ASSIGNED_CONTEXT((#2313,#2315,#2316))
REPRESENTATION_CONTEXT('','3D')
);
#2312=(
GEOMETRIC_REPRESENTATION_CONTEXT(3)
GLOBAL_UNCERTAINTY_ASSIGNED_CONTEXT((#2310))
GLOBAL_UNIT_ASSIGNED_CONTEXT((#2313,#2315,#2316))
REPRESENTATION_CONTEXT('','3D')
);
#2313=(
LENGTH_UNIT()
NAMED_UNIT(*)
SI_UNIT(.MILLI.,.METRE.)
);
#2314=(
LENGTH_UNIT()
NAMED_UNIT(*)
SI_UNIT($,.METRE.)
);
#2315=(
NAMED_UNIT(*)
PLANE_ANGLE_UNIT()
SI_UNIT($,.RADIAN.)
);
#2316=(
NAMED_UNIT(*)
SI_UNIT($,.STERADIAN.)
SOLID_ANGLE_UNIT()
);
#2317=SHAPE_DEFINITION_REPRESENTATION(#2318,#2319);
#2318=PRODUCT_DEFINITION_SHAPE('',$,#2321);
#2319=SHAPE_REPRESENTATION('',(#1305),#2311);
#2320=PRODUCT_DEFINITION_CONTEXT('part definition',#2325,'design');
#2321=PRODUCT_DEFINITION('Reset-button-4x4x1.5mm',
'Reset-button-4x4x1.5mm v7',#2322,#2320);
#2322=PRODUCT_DEFINITION_FORMATION('',$,#2327);
#2323=PRODUCT_RELATED_PRODUCT_CATEGORY('Reset-button-4x4x1.5mm v7',
'Reset-button-4x4x1.5mm v7',(#2327));
#2324=APPLICATION_PROTOCOL_DEFINITION('international standard',
'automotive_design',2009,#2325);
#2325=APPLICATION_CONTEXT(
'Core Data for Automotive Mechanical Design Process');
#2326=PRODUCT_CONTEXT('part definition',#2325,'mechanical');
#2327=PRODUCT('Reset-button-4x4x1.5mm','Reset-button-4x4x1.5mm v7',$,(#2326));
#2328=PRESENTATION_STYLE_ASSIGNMENT((#2330));
#2329=PRESENTATION_STYLE_ASSIGNMENT((#2331));
#2330=SURFACE_STYLE_USAGE(.BOTH.,#2332);
#2331=SURFACE_STYLE_USAGE(.BOTH.,#2333);
#2332=SURFACE_SIDE_STYLE('',(#2334));
#2333=SURFACE_SIDE_STYLE('',(#2335));
#2334=SURFACE_STYLE_FILL_AREA(#2336);
#2335=SURFACE_STYLE_FILL_AREA(#2337);
#2336=FILL_AREA_STYLE('ABS (blanc)',(#2338));
#2337=FILL_AREA_STYLE('ABS (blanc)',(#2339));
#2338=FILL_AREA_STYLE_COLOUR('ABS (blanc)',#2340);
#2339=FILL_AREA_STYLE_COLOUR('ABS (blanc)',#2341);
#2340=COLOUR_RGB('ABS (blanc)',0.964705882352941,0.964705882352941,0.952941176470588);
#2341=COLOUR_RGB('ABS (blanc)',0.690196078431373,0.447058823529412,0.215686274509804);
ENDSEC;
END-ISO-10303-21;
