ISO-10303-21;
HEADER;
/* Generated by software containing ST-Developer
 * from STEP Tools, Inc. (www.steptools.com) 
 */

FILE_DESCRIPTION(
/* description */ (''),
/* implementation_level */ '2;1');

FILE_NAME(
/* name */ 'solo-bridge-FINAL.step',
/* time_stamp */ '2025-09-01T22:59:18+02:00',
/* author */ (''),
/* organization */ (''),
/* preprocessor_version */ 'ST-DEVELOPER v20.1',
/* originating_system */ 'Autodesk Translation Framework v14.10.0.0',
/* authorisation */ '');

FILE_SCHEMA (('AUTOMOTIVE_DESIGN { 1 0 10303 214 3 1 1 }'));
ENDSEC;

DATA;
#10=MECHANICAL_DESIGN_GEOMETRIC_PRESENTATION_REPRESENTATION('',(#13,#14),
#942);
#11=SHAPE_REPRESENTATION_RELATIONSHIP('SRR','None',#949,#12);
#12=ADVANCED_BREP_SHAPE_REPRESENTATION('',(#15,#16),#941);
#13=STYLED_ITEM('',(#959),#15);
#14=STYLED_ITEM('',(#959),#16);
#15=MANIFOLD_SOLID_BREP('Corps1',#529);
#16=MANIFOLD_SOLID_BREP('Corps2',#530);
#17=PLANE('',#572);
#18=PLANE('',#573);
#19=PLANE('',#574);
#20=PLANE('',#575);
#21=PLANE('',#576);
#22=PLANE('',#577);
#23=PLANE('',#606);
#24=PLANE('',#607);
#25=PLANE('',#608);
#26=PLANE('',#609);
#27=PLANE('',#610);
#28=PLANE('',#611);
#29=LINE('',#802,#69);
#30=LINE('',#803,#70);
#31=LINE('',#815,#71);
#32=LINE('',#816,#72);
#33=LINE('',#828,#73);
#34=LINE('',#829,#74);
#35=LINE('',#831,#75);
#36=LINE('',#832,#76);
#37=LINE('',#844,#77);
#38=LINE('',#845,#78);
#39=LINE('',#847,#79);
#40=LINE('',#848,#80);
#41=LINE('',#850,#81);
#42=LINE('',#851,#82);
#43=LINE('',#853,#83);
#44=LINE('',#854,#84);
#45=LINE('',#856,#85);
#46=LINE('',#858,#86);
#47=LINE('',#861,#87);
#48=LINE('',#863,#88);
#49=LINE('',#876,#89);
#50=LINE('',#877,#90);
#51=LINE('',#889,#91);
#52=LINE('',#890,#92);
#53=LINE('',#902,#93);
#54=LINE('',#903,#94);
#55=LINE('',#905,#95);
#56=LINE('',#906,#96);
#57=LINE('',#918,#97);
#58=LINE('',#919,#98);
#59=LINE('',#921,#99);
#60=LINE('',#922,#100);
#61=LINE('',#924,#101);
#62=LINE('',#925,#102);
#63=LINE('',#927,#103);
#64=LINE('',#928,#104);
#65=LINE('',#930,#105);
#66=LINE('',#932,#106);
#67=LINE('',#935,#107);
#68=LINE('',#937,#108);
#69=VECTOR('',#626,10.);
#70=VECTOR('',#627,10.);
#71=VECTOR('',#640,10.);
#72=VECTOR('',#641,10.);
#73=VECTOR('',#654,10.);
#74=VECTOR('',#655,10.);
#75=VECTOR('',#658,10.);
#76=VECTOR('',#659,10.);
#77=VECTOR('',#672,10.);
#78=VECTOR('',#673,10.);
#79=VECTOR('',#676,10.);
#80=VECTOR('',#677,10.);
#81=VECTOR('',#680,10.);
#82=VECTOR('',#681,10.);
#83=VECTOR('',#684,10.);
#84=VECTOR('',#685,10.);
#85=VECTOR('',#688,10.);
#86=VECTOR('',#691,10.);
#87=VECTOR('',#696,10.);
#88=VECTOR('',#699,10.);
#89=VECTOR('',#714,10.);
#90=VECTOR('',#715,10.);
#91=VECTOR('',#728,10.);
#92=VECTOR('',#729,10.);
#93=VECTOR('',#742,10.);
#94=VECTOR('',#743,10.);
#95=VECTOR('',#746,10.);
#96=VECTOR('',#747,10.);
#97=VECTOR('',#760,10.);
#98=VECTOR('',#761,10.);
#99=VECTOR('',#764,10.);
#100=VECTOR('',#765,10.);
#101=VECTOR('',#768,10.);
#102=VECTOR('',#769,10.);
#103=VECTOR('',#772,10.);
#104=VECTOR('',#773,10.);
#105=VECTOR('',#776,10.);
#106=VECTOR('',#779,10.);
#107=VECTOR('',#784,10.);
#108=VECTOR('',#787,10.);
#109=CYLINDRICAL_SURFACE('',#548,0.5);
#110=CYLINDRICAL_SURFACE('',#554,0.5);
#111=CYLINDRICAL_SURFACE('',#560,0.5);
#112=CYLINDRICAL_SURFACE('',#562,0.5);
#113=CYLINDRICAL_SURFACE('',#567,0.5);
#114=CYLINDRICAL_SURFACE('',#569,0.5);
#115=CYLINDRICAL_SURFACE('',#570,0.5);
#116=CYLINDRICAL_SURFACE('',#571,0.5);
#117=CYLINDRICAL_SURFACE('',#582,0.5);
#118=CYLINDRICAL_SURFACE('',#588,0.5);
#119=CYLINDRICAL_SURFACE('',#594,0.5);
#120=CYLINDRICAL_SURFACE('',#596,0.5);
#121=CYLINDRICAL_SURFACE('',#601,0.5);
#122=CYLINDRICAL_SURFACE('',#603,0.5);
#123=CYLINDRICAL_SURFACE('',#604,0.5);
#124=CYLINDRICAL_SURFACE('',#605,0.5);
#125=FACE_OUTER_BOUND('',#161,.T.);
#126=FACE_OUTER_BOUND('',#162,.T.);
#127=FACE_OUTER_BOUND('',#163,.T.);
#128=FACE_OUTER_BOUND('',#164,.T.);
#129=FACE_OUTER_BOUND('',#165,.T.);
#130=FACE_OUTER_BOUND('',#166,.T.);
#131=FACE_OUTER_BOUND('',#167,.T.);
#132=FACE_OUTER_BOUND('',#168,.T.);
#133=FACE_OUTER_BOUND('',#169,.T.);
#134=FACE_OUTER_BOUND('',#170,.T.);
#135=FACE_OUTER_BOUND('',#171,.T.);
#136=FACE_OUTER_BOUND('',#172,.T.);
#137=FACE_OUTER_BOUND('',#173,.T.);
#138=FACE_OUTER_BOUND('',#174,.T.);
#139=FACE_OUTER_BOUND('',#175,.T.);
#140=FACE_OUTER_BOUND('',#176,.T.);
#141=FACE_OUTER_BOUND('',#177,.T.);
#142=FACE_OUTER_BOUND('',#178,.T.);
#143=FACE_OUTER_BOUND('',#179,.T.);
#144=FACE_OUTER_BOUND('',#180,.T.);
#145=FACE_OUTER_BOUND('',#181,.T.);
#146=FACE_OUTER_BOUND('',#182,.T.);
#147=FACE_OUTER_BOUND('',#183,.T.);
#148=FACE_OUTER_BOUND('',#184,.T.);
#149=FACE_OUTER_BOUND('',#185,.T.);
#150=FACE_OUTER_BOUND('',#186,.T.);
#151=FACE_OUTER_BOUND('',#187,.T.);
#152=FACE_OUTER_BOUND('',#188,.T.);
#153=FACE_OUTER_BOUND('',#189,.T.);
#154=FACE_OUTER_BOUND('',#190,.T.);
#155=FACE_OUTER_BOUND('',#191,.T.);
#156=FACE_OUTER_BOUND('',#192,.T.);
#157=FACE_OUTER_BOUND('',#193,.T.);
#158=FACE_OUTER_BOUND('',#194,.T.);
#159=FACE_OUTER_BOUND('',#195,.T.);
#160=FACE_OUTER_BOUND('',#196,.T.);
#161=EDGE_LOOP('',(#341,#342,#343));
#162=EDGE_LOOP('',(#344,#345,#346,#347));
#163=EDGE_LOOP('',(#348,#349,#350));
#164=EDGE_LOOP('',(#351,#352,#353,#354));
#165=EDGE_LOOP('',(#355,#356,#357));
#166=EDGE_LOOP('',(#358,#359,#360,#361));
#167=EDGE_LOOP('',(#362,#363,#364,#365));
#168=EDGE_LOOP('',(#366,#367,#368));
#169=EDGE_LOOP('',(#369,#370,#371,#372));
#170=EDGE_LOOP('',(#373,#374,#375,#376));
#171=EDGE_LOOP('',(#377,#378,#379,#380));
#172=EDGE_LOOP('',(#381,#382,#383,#384));
#173=EDGE_LOOP('',(#385,#386,#387,#388));
#174=EDGE_LOOP('',(#389,#390,#391,#392));
#175=EDGE_LOOP('',(#393,#394,#395,#396));
#176=EDGE_LOOP('',(#397,#398,#399,#400));
#177=EDGE_LOOP('',(#401,#402,#403,#404));
#178=EDGE_LOOP('',(#405,#406,#407,#408,#409,#410,#411,#412));
#179=EDGE_LOOP('',(#413,#414,#415));
#180=EDGE_LOOP('',(#416,#417,#418,#419));
#181=EDGE_LOOP('',(#420,#421,#422));
#182=EDGE_LOOP('',(#423,#424,#425,#426));
#183=EDGE_LOOP('',(#427,#428,#429));
#184=EDGE_LOOP('',(#430,#431,#432,#433));
#185=EDGE_LOOP('',(#434,#435,#436,#437));
#186=EDGE_LOOP('',(#438,#439,#440));
#187=EDGE_LOOP('',(#441,#442,#443,#444));
#188=EDGE_LOOP('',(#445,#446,#447,#448));
#189=EDGE_LOOP('',(#449,#450,#451,#452));
#190=EDGE_LOOP('',(#453,#454,#455,#456));
#191=EDGE_LOOP('',(#457,#458,#459,#460));
#192=EDGE_LOOP('',(#461,#462,#463,#464));
#193=EDGE_LOOP('',(#465,#466,#467,#468));
#194=EDGE_LOOP('',(#469,#470,#471,#472));
#195=EDGE_LOOP('',(#473,#474,#475,#476));
#196=EDGE_LOOP('',(#477,#478,#479,#480,#481,#482,#483,#484));
#197=CIRCLE('',#545,0.5);
#198=CIRCLE('',#546,0.5);
#199=CIRCLE('',#547,0.5);
#200=CIRCLE('',#549,0.5);
#201=CIRCLE('',#551,0.5);
#202=CIRCLE('',#552,0.5);
#203=CIRCLE('',#553,0.5);
#204=CIRCLE('',#555,0.5);
#205=CIRCLE('',#557,0.5);
#206=CIRCLE('',#558,0.5);
#207=CIRCLE('',#559,0.5);
#208=CIRCLE('',#561,0.5);
#209=CIRCLE('',#564,0.5);
#210=CIRCLE('',#565,0.5);
#211=CIRCLE('',#566,0.5);
#212=CIRCLE('',#568,0.5);
#213=CIRCLE('',#579,0.5);
#214=CIRCLE('',#580,0.5);
#215=CIRCLE('',#581,0.5);
#216=CIRCLE('',#583,0.5);
#217=CIRCLE('',#585,0.5);
#218=CIRCLE('',#586,0.5);
#219=CIRCLE('',#587,0.5);
#220=CIRCLE('',#589,0.5);
#221=CIRCLE('',#591,0.5);
#222=CIRCLE('',#592,0.5);
#223=CIRCLE('',#593,0.5);
#224=CIRCLE('',#595,0.5);
#225=CIRCLE('',#598,0.5);
#226=CIRCLE('',#599,0.5);
#227=CIRCLE('',#600,0.5);
#228=CIRCLE('',#602,0.5);
#229=VERTEX_POINT('',#792);
#230=VERTEX_POINT('',#793);
#231=VERTEX_POINT('',#795);
#232=VERTEX_POINT('',#799);
#233=VERTEX_POINT('',#800);
#234=VERTEX_POINT('',#805);
#235=VERTEX_POINT('',#806);
#236=VERTEX_POINT('',#808);
#237=VERTEX_POINT('',#812);
#238=VERTEX_POINT('',#813);
#239=VERTEX_POINT('',#818);
#240=VERTEX_POINT('',#819);
#241=VERTEX_POINT('',#821);
#242=VERTEX_POINT('',#825);
#243=VERTEX_POINT('',#826);
#244=VERTEX_POINT('',#834);
#245=VERTEX_POINT('',#835);
#246=VERTEX_POINT('',#837);
#247=VERTEX_POINT('',#841);
#248=VERTEX_POINT('',#842);
#249=VERTEX_POINT('',#866);
#250=VERTEX_POINT('',#867);
#251=VERTEX_POINT('',#869);
#252=VERTEX_POINT('',#873);
#253=VERTEX_POINT('',#874);
#254=VERTEX_POINT('',#879);
#255=VERTEX_POINT('',#880);
#256=VERTEX_POINT('',#882);
#257=VERTEX_POINT('',#886);
#258=VERTEX_POINT('',#887);
#259=VERTEX_POINT('',#892);
#260=VERTEX_POINT('',#893);
#261=VERTEX_POINT('',#895);
#262=VERTEX_POINT('',#899);
#263=VERTEX_POINT('',#900);
#264=VERTEX_POINT('',#908);
#265=VERTEX_POINT('',#909);
#266=VERTEX_POINT('',#911);
#267=VERTEX_POINT('',#915);
#268=VERTEX_POINT('',#916);
#269=EDGE_CURVE('',#229,#230,#197,.F.);
#270=EDGE_CURVE('',#231,#229,#198,.F.);
#271=EDGE_CURVE('',#230,#231,#199,.F.);
#272=EDGE_CURVE('',#232,#233,#200,.T.);
#273=EDGE_CURVE('',#233,#231,#29,.T.);
#274=EDGE_CURVE('',#229,#232,#30,.T.);
#275=EDGE_CURVE('',#234,#235,#201,.F.);
#276=EDGE_CURVE('',#236,#234,#202,.F.);
#277=EDGE_CURVE('',#235,#236,#203,.F.);
#278=EDGE_CURVE('',#237,#238,#204,.T.);
#279=EDGE_CURVE('',#238,#236,#31,.T.);
#280=EDGE_CURVE('',#234,#237,#32,.T.);
#281=EDGE_CURVE('',#239,#240,#205,.F.);
#282=EDGE_CURVE('',#241,#239,#206,.F.);
#283=EDGE_CURVE('',#240,#241,#207,.F.);
#284=EDGE_CURVE('',#242,#243,#208,.T.);
#285=EDGE_CURVE('',#243,#241,#33,.T.);
#286=EDGE_CURVE('',#239,#242,#34,.T.);
#287=EDGE_CURVE('',#230,#240,#35,.T.);
#288=EDGE_CURVE('',#241,#229,#36,.T.);
#289=EDGE_CURVE('',#244,#245,#209,.F.);
#290=EDGE_CURVE('',#246,#244,#210,.F.);
#291=EDGE_CURVE('',#245,#246,#211,.F.);
#292=EDGE_CURVE('',#247,#248,#212,.T.);
#293=EDGE_CURVE('',#248,#246,#37,.T.);
#294=EDGE_CURVE('',#244,#247,#38,.T.);
#295=EDGE_CURVE('',#240,#245,#39,.T.);
#296=EDGE_CURVE('',#246,#239,#40,.T.);
#297=EDGE_CURVE('',#245,#235,#41,.T.);
#298=EDGE_CURVE('',#236,#244,#42,.T.);
#299=EDGE_CURVE('',#235,#230,#43,.T.);
#300=EDGE_CURVE('',#231,#234,#44,.T.);
#301=EDGE_CURVE('',#243,#232,#45,.T.);
#302=EDGE_CURVE('',#248,#242,#46,.T.);
#303=EDGE_CURVE('',#238,#247,#47,.T.);
#304=EDGE_CURVE('',#233,#237,#48,.T.);
#305=EDGE_CURVE('',#249,#250,#213,.F.);
#306=EDGE_CURVE('',#250,#251,#214,.F.);
#307=EDGE_CURVE('',#251,#249,#215,.F.);
#308=EDGE_CURVE('',#252,#253,#216,.T.);
#309=EDGE_CURVE('',#249,#252,#49,.T.);
#310=EDGE_CURVE('',#253,#251,#50,.T.);
#311=EDGE_CURVE('',#254,#255,#217,.F.);
#312=EDGE_CURVE('',#255,#256,#218,.F.);
#313=EDGE_CURVE('',#256,#254,#219,.F.);
#314=EDGE_CURVE('',#257,#258,#220,.T.);
#315=EDGE_CURVE('',#254,#257,#51,.T.);
#316=EDGE_CURVE('',#258,#256,#52,.T.);
#317=EDGE_CURVE('',#259,#260,#221,.F.);
#318=EDGE_CURVE('',#260,#261,#222,.F.);
#319=EDGE_CURVE('',#261,#259,#223,.F.);
#320=EDGE_CURVE('',#262,#263,#224,.T.);
#321=EDGE_CURVE('',#259,#262,#53,.T.);
#322=EDGE_CURVE('',#263,#261,#54,.T.);
#323=EDGE_CURVE('',#261,#249,#55,.T.);
#324=EDGE_CURVE('',#250,#260,#56,.T.);
#325=EDGE_CURVE('',#264,#265,#225,.F.);
#326=EDGE_CURVE('',#265,#266,#226,.F.);
#327=EDGE_CURVE('',#266,#264,#227,.F.);
#328=EDGE_CURVE('',#267,#268,#228,.T.);
#329=EDGE_CURVE('',#264,#267,#57,.T.);
#330=EDGE_CURVE('',#268,#266,#58,.T.);
#331=EDGE_CURVE('',#266,#259,#59,.T.);
#332=EDGE_CURVE('',#260,#265,#60,.T.);
#333=EDGE_CURVE('',#256,#264,#61,.T.);
#334=EDGE_CURVE('',#265,#255,#62,.T.);
#335=EDGE_CURVE('',#251,#254,#63,.T.);
#336=EDGE_CURVE('',#255,#250,#64,.T.);
#337=EDGE_CURVE('',#263,#252,#65,.T.);
#338=EDGE_CURVE('',#268,#262,#66,.T.);
#339=EDGE_CURVE('',#258,#267,#67,.T.);
#340=EDGE_CURVE('',#253,#257,#68,.T.);
#341=ORIENTED_EDGE('',*,*,#269,.F.);
#342=ORIENTED_EDGE('',*,*,#270,.F.);
#343=ORIENTED_EDGE('',*,*,#271,.F.);
#344=ORIENTED_EDGE('',*,*,#272,.T.);
#345=ORIENTED_EDGE('',*,*,#273,.T.);
#346=ORIENTED_EDGE('',*,*,#270,.T.);
#347=ORIENTED_EDGE('',*,*,#274,.T.);
#348=ORIENTED_EDGE('',*,*,#275,.F.);
#349=ORIENTED_EDGE('',*,*,#276,.F.);
#350=ORIENTED_EDGE('',*,*,#277,.F.);
#351=ORIENTED_EDGE('',*,*,#278,.T.);
#352=ORIENTED_EDGE('',*,*,#279,.T.);
#353=ORIENTED_EDGE('',*,*,#276,.T.);
#354=ORIENTED_EDGE('',*,*,#280,.T.);
#355=ORIENTED_EDGE('',*,*,#281,.F.);
#356=ORIENTED_EDGE('',*,*,#282,.F.);
#357=ORIENTED_EDGE('',*,*,#283,.F.);
#358=ORIENTED_EDGE('',*,*,#284,.T.);
#359=ORIENTED_EDGE('',*,*,#285,.T.);
#360=ORIENTED_EDGE('',*,*,#282,.T.);
#361=ORIENTED_EDGE('',*,*,#286,.T.);
#362=ORIENTED_EDGE('',*,*,#269,.T.);
#363=ORIENTED_EDGE('',*,*,#287,.T.);
#364=ORIENTED_EDGE('',*,*,#283,.T.);
#365=ORIENTED_EDGE('',*,*,#288,.T.);
#366=ORIENTED_EDGE('',*,*,#289,.F.);
#367=ORIENTED_EDGE('',*,*,#290,.F.);
#368=ORIENTED_EDGE('',*,*,#291,.F.);
#369=ORIENTED_EDGE('',*,*,#292,.T.);
#370=ORIENTED_EDGE('',*,*,#293,.T.);
#371=ORIENTED_EDGE('',*,*,#290,.T.);
#372=ORIENTED_EDGE('',*,*,#294,.T.);
#373=ORIENTED_EDGE('',*,*,#281,.T.);
#374=ORIENTED_EDGE('',*,*,#295,.T.);
#375=ORIENTED_EDGE('',*,*,#291,.T.);
#376=ORIENTED_EDGE('',*,*,#296,.T.);
#377=ORIENTED_EDGE('',*,*,#289,.T.);
#378=ORIENTED_EDGE('',*,*,#297,.T.);
#379=ORIENTED_EDGE('',*,*,#277,.T.);
#380=ORIENTED_EDGE('',*,*,#298,.T.);
#381=ORIENTED_EDGE('',*,*,#275,.T.);
#382=ORIENTED_EDGE('',*,*,#299,.T.);
#383=ORIENTED_EDGE('',*,*,#271,.T.);
#384=ORIENTED_EDGE('',*,*,#300,.T.);
#385=ORIENTED_EDGE('',*,*,#274,.F.);
#386=ORIENTED_EDGE('',*,*,#288,.F.);
#387=ORIENTED_EDGE('',*,*,#285,.F.);
#388=ORIENTED_EDGE('',*,*,#301,.T.);
#389=ORIENTED_EDGE('',*,*,#286,.F.);
#390=ORIENTED_EDGE('',*,*,#296,.F.);
#391=ORIENTED_EDGE('',*,*,#293,.F.);
#392=ORIENTED_EDGE('',*,*,#302,.T.);
#393=ORIENTED_EDGE('',*,*,#287,.F.);
#394=ORIENTED_EDGE('',*,*,#299,.F.);
#395=ORIENTED_EDGE('',*,*,#297,.F.);
#396=ORIENTED_EDGE('',*,*,#295,.F.);
#397=ORIENTED_EDGE('',*,*,#279,.F.);
#398=ORIENTED_EDGE('',*,*,#303,.T.);
#399=ORIENTED_EDGE('',*,*,#294,.F.);
#400=ORIENTED_EDGE('',*,*,#298,.F.);
#401=ORIENTED_EDGE('',*,*,#273,.F.);
#402=ORIENTED_EDGE('',*,*,#304,.T.);
#403=ORIENTED_EDGE('',*,*,#280,.F.);
#404=ORIENTED_EDGE('',*,*,#300,.F.);
#405=ORIENTED_EDGE('',*,*,#272,.F.);
#406=ORIENTED_EDGE('',*,*,#301,.F.);
#407=ORIENTED_EDGE('',*,*,#284,.F.);
#408=ORIENTED_EDGE('',*,*,#302,.F.);
#409=ORIENTED_EDGE('',*,*,#292,.F.);
#410=ORIENTED_EDGE('',*,*,#303,.F.);
#411=ORIENTED_EDGE('',*,*,#278,.F.);
#412=ORIENTED_EDGE('',*,*,#304,.F.);
#413=ORIENTED_EDGE('',*,*,#305,.T.);
#414=ORIENTED_EDGE('',*,*,#306,.T.);
#415=ORIENTED_EDGE('',*,*,#307,.T.);
#416=ORIENTED_EDGE('',*,*,#308,.F.);
#417=ORIENTED_EDGE('',*,*,#309,.F.);
#418=ORIENTED_EDGE('',*,*,#307,.F.);
#419=ORIENTED_EDGE('',*,*,#310,.F.);
#420=ORIENTED_EDGE('',*,*,#311,.T.);
#421=ORIENTED_EDGE('',*,*,#312,.T.);
#422=ORIENTED_EDGE('',*,*,#313,.T.);
#423=ORIENTED_EDGE('',*,*,#314,.F.);
#424=ORIENTED_EDGE('',*,*,#315,.F.);
#425=ORIENTED_EDGE('',*,*,#313,.F.);
#426=ORIENTED_EDGE('',*,*,#316,.F.);
#427=ORIENTED_EDGE('',*,*,#317,.T.);
#428=ORIENTED_EDGE('',*,*,#318,.T.);
#429=ORIENTED_EDGE('',*,*,#319,.T.);
#430=ORIENTED_EDGE('',*,*,#320,.F.);
#431=ORIENTED_EDGE('',*,*,#321,.F.);
#432=ORIENTED_EDGE('',*,*,#319,.F.);
#433=ORIENTED_EDGE('',*,*,#322,.F.);
#434=ORIENTED_EDGE('',*,*,#305,.F.);
#435=ORIENTED_EDGE('',*,*,#323,.F.);
#436=ORIENTED_EDGE('',*,*,#318,.F.);
#437=ORIENTED_EDGE('',*,*,#324,.F.);
#438=ORIENTED_EDGE('',*,*,#325,.T.);
#439=ORIENTED_EDGE('',*,*,#326,.T.);
#440=ORIENTED_EDGE('',*,*,#327,.T.);
#441=ORIENTED_EDGE('',*,*,#328,.F.);
#442=ORIENTED_EDGE('',*,*,#329,.F.);
#443=ORIENTED_EDGE('',*,*,#327,.F.);
#444=ORIENTED_EDGE('',*,*,#330,.F.);
#445=ORIENTED_EDGE('',*,*,#317,.F.);
#446=ORIENTED_EDGE('',*,*,#331,.F.);
#447=ORIENTED_EDGE('',*,*,#326,.F.);
#448=ORIENTED_EDGE('',*,*,#332,.F.);
#449=ORIENTED_EDGE('',*,*,#325,.F.);
#450=ORIENTED_EDGE('',*,*,#333,.F.);
#451=ORIENTED_EDGE('',*,*,#312,.F.);
#452=ORIENTED_EDGE('',*,*,#334,.F.);
#453=ORIENTED_EDGE('',*,*,#311,.F.);
#454=ORIENTED_EDGE('',*,*,#335,.F.);
#455=ORIENTED_EDGE('',*,*,#306,.F.);
#456=ORIENTED_EDGE('',*,*,#336,.F.);
#457=ORIENTED_EDGE('',*,*,#309,.T.);
#458=ORIENTED_EDGE('',*,*,#337,.F.);
#459=ORIENTED_EDGE('',*,*,#322,.T.);
#460=ORIENTED_EDGE('',*,*,#323,.T.);
#461=ORIENTED_EDGE('',*,*,#321,.T.);
#462=ORIENTED_EDGE('',*,*,#338,.F.);
#463=ORIENTED_EDGE('',*,*,#330,.T.);
#464=ORIENTED_EDGE('',*,*,#331,.T.);
#465=ORIENTED_EDGE('',*,*,#324,.T.);
#466=ORIENTED_EDGE('',*,*,#332,.T.);
#467=ORIENTED_EDGE('',*,*,#334,.T.);
#468=ORIENTED_EDGE('',*,*,#336,.T.);
#469=ORIENTED_EDGE('',*,*,#316,.T.);
#470=ORIENTED_EDGE('',*,*,#333,.T.);
#471=ORIENTED_EDGE('',*,*,#329,.T.);
#472=ORIENTED_EDGE('',*,*,#339,.F.);
#473=ORIENTED_EDGE('',*,*,#310,.T.);
#474=ORIENTED_EDGE('',*,*,#335,.T.);
#475=ORIENTED_EDGE('',*,*,#315,.T.);
#476=ORIENTED_EDGE('',*,*,#340,.F.);
#477=ORIENTED_EDGE('',*,*,#308,.T.);
#478=ORIENTED_EDGE('',*,*,#340,.T.);
#479=ORIENTED_EDGE('',*,*,#314,.T.);
#480=ORIENTED_EDGE('',*,*,#339,.T.);
#481=ORIENTED_EDGE('',*,*,#328,.T.);
#482=ORIENTED_EDGE('',*,*,#338,.T.);
#483=ORIENTED_EDGE('',*,*,#320,.T.);
#484=ORIENTED_EDGE('',*,*,#337,.T.);
#485=SPHERICAL_SURFACE('',#544,0.5);
#486=SPHERICAL_SURFACE('',#550,0.5);
#487=SPHERICAL_SURFACE('',#556,0.5);
#488=SPHERICAL_SURFACE('',#563,0.5);
#489=SPHERICAL_SURFACE('',#578,0.5);
#490=SPHERICAL_SURFACE('',#584,0.5);
#491=SPHERICAL_SURFACE('',#590,0.5);
#492=SPHERICAL_SURFACE('',#597,0.5);
#493=ADVANCED_FACE('',(#125),#485,.T.);
#494=ADVANCED_FACE('',(#126),#109,.T.);
#495=ADVANCED_FACE('',(#127),#486,.T.);
#496=ADVANCED_FACE('',(#128),#110,.T.);
#497=ADVANCED_FACE('',(#129),#487,.T.);
#498=ADVANCED_FACE('',(#130),#111,.T.);
#499=ADVANCED_FACE('',(#131),#112,.T.);
#500=ADVANCED_FACE('',(#132),#488,.T.);
#501=ADVANCED_FACE('',(#133),#113,.T.);
#502=ADVANCED_FACE('',(#134),#114,.T.);
#503=ADVANCED_FACE('',(#135),#115,.T.);
#504=ADVANCED_FACE('',(#136),#116,.T.);
#505=ADVANCED_FACE('',(#137),#17,.T.);
#506=ADVANCED_FACE('',(#138),#18,.T.);
#507=ADVANCED_FACE('',(#139),#19,.T.);
#508=ADVANCED_FACE('',(#140),#20,.T.);
#509=ADVANCED_FACE('',(#141),#21,.T.);
#510=ADVANCED_FACE('',(#142),#22,.F.);
#511=ADVANCED_FACE('',(#143),#489,.T.);
#512=ADVANCED_FACE('',(#144),#117,.T.);
#513=ADVANCED_FACE('',(#145),#490,.T.);
#514=ADVANCED_FACE('',(#146),#118,.T.);
#515=ADVANCED_FACE('',(#147),#491,.T.);
#516=ADVANCED_FACE('',(#148),#119,.T.);
#517=ADVANCED_FACE('',(#149),#120,.T.);
#518=ADVANCED_FACE('',(#150),#492,.T.);
#519=ADVANCED_FACE('',(#151),#121,.T.);
#520=ADVANCED_FACE('',(#152),#122,.T.);
#521=ADVANCED_FACE('',(#153),#123,.T.);
#522=ADVANCED_FACE('',(#154),#124,.T.);
#523=ADVANCED_FACE('',(#155),#23,.F.);
#524=ADVANCED_FACE('',(#156),#24,.F.);
#525=ADVANCED_FACE('',(#157),#25,.F.);
#526=ADVANCED_FACE('',(#158),#26,.F.);
#527=ADVANCED_FACE('',(#159),#27,.F.);
#528=ADVANCED_FACE('',(#160),#28,.T.);
#529=CLOSED_SHELL('',(#493,#494,#495,#496,#497,#498,#499,#500,#501,#502,
#503,#504,#505,#506,#507,#508,#509,#510));
#530=CLOSED_SHELL('',(#511,#512,#513,#514,#515,#516,#517,#518,#519,#520,
#521,#522,#523,#524,#525,#526,#527,#528));
#531=DERIVED_UNIT_ELEMENT(#533,1.);
#532=DERIVED_UNIT_ELEMENT(#944,-3.);
#533=(
MASS_UNIT()
NAMED_UNIT(*)
SI_UNIT(.KILO.,.GRAM.)
);
#534=DERIVED_UNIT((#531,#532));
#535=MEASURE_REPRESENTATION_ITEM('density measure',
POSITIVE_RATIO_MEASURE(1060.),#534);
#536=PROPERTY_DEFINITION_REPRESENTATION(#541,#538);
#537=PROPERTY_DEFINITION_REPRESENTATION(#542,#539);
#538=REPRESENTATION('material name',(#540),#941);
#539=REPRESENTATION('density',(#535),#941);
#540=DESCRIPTIVE_REPRESENTATION_ITEM('Plastique ABS','Plastique ABS');
#541=PROPERTY_DEFINITION('material property','material name',#951);
#542=PROPERTY_DEFINITION('material property','density of part',#951);
#543=AXIS2_PLACEMENT_3D('',#790,#612,#613);
#544=AXIS2_PLACEMENT_3D('',#791,#614,#615);
#545=AXIS2_PLACEMENT_3D('',#794,#616,#617);
#546=AXIS2_PLACEMENT_3D('',#796,#618,#619);
#547=AXIS2_PLACEMENT_3D('',#797,#620,#621);
#548=AXIS2_PLACEMENT_3D('',#798,#622,#623);
#549=AXIS2_PLACEMENT_3D('',#801,#624,#625);
#550=AXIS2_PLACEMENT_3D('',#804,#628,#629);
#551=AXIS2_PLACEMENT_3D('',#807,#630,#631);
#552=AXIS2_PLACEMENT_3D('',#809,#632,#633);
#553=AXIS2_PLACEMENT_3D('',#810,#634,#635);
#554=AXIS2_PLACEMENT_3D('',#811,#636,#637);
#555=AXIS2_PLACEMENT_3D('',#814,#638,#639);
#556=AXIS2_PLACEMENT_3D('',#817,#642,#643);
#557=AXIS2_PLACEMENT_3D('',#820,#644,#645);
#558=AXIS2_PLACEMENT_3D('',#822,#646,#647);
#559=AXIS2_PLACEMENT_3D('',#823,#648,#649);
#560=AXIS2_PLACEMENT_3D('',#824,#650,#651);
#561=AXIS2_PLACEMENT_3D('',#827,#652,#653);
#562=AXIS2_PLACEMENT_3D('',#830,#656,#657);
#563=AXIS2_PLACEMENT_3D('',#833,#660,#661);
#564=AXIS2_PLACEMENT_3D('',#836,#662,#663);
#565=AXIS2_PLACEMENT_3D('',#838,#664,#665);
#566=AXIS2_PLACEMENT_3D('',#839,#666,#667);
#567=AXIS2_PLACEMENT_3D('',#840,#668,#669);
#568=AXIS2_PLACEMENT_3D('',#843,#670,#671);
#569=AXIS2_PLACEMENT_3D('',#846,#674,#675);
#570=AXIS2_PLACEMENT_3D('',#849,#678,#679);
#571=AXIS2_PLACEMENT_3D('',#852,#682,#683);
#572=AXIS2_PLACEMENT_3D('',#855,#686,#687);
#573=AXIS2_PLACEMENT_3D('',#857,#689,#690);
#574=AXIS2_PLACEMENT_3D('',#859,#692,#693);
#575=AXIS2_PLACEMENT_3D('',#860,#694,#695);
#576=AXIS2_PLACEMENT_3D('',#862,#697,#698);
#577=AXIS2_PLACEMENT_3D('',#864,#700,#701);
#578=AXIS2_PLACEMENT_3D('',#865,#702,#703);
#579=AXIS2_PLACEMENT_3D('',#868,#704,#705);
#580=AXIS2_PLACEMENT_3D('',#870,#706,#707);
#581=AXIS2_PLACEMENT_3D('',#871,#708,#709);
#582=AXIS2_PLACEMENT_3D('',#872,#710,#711);
#583=AXIS2_PLACEMENT_3D('',#875,#712,#713);
#584=AXIS2_PLACEMENT_3D('',#878,#716,#717);
#585=AXIS2_PLACEMENT_3D('',#881,#718,#719);
#586=AXIS2_PLACEMENT_3D('',#883,#720,#721);
#587=AXIS2_PLACEMENT_3D('',#884,#722,#723);
#588=AXIS2_PLACEMENT_3D('',#885,#724,#725);
#589=AXIS2_PLACEMENT_3D('',#888,#726,#727);
#590=AXIS2_PLACEMENT_3D('',#891,#730,#731);
#591=AXIS2_PLACEMENT_3D('',#894,#732,#733);
#592=AXIS2_PLACEMENT_3D('',#896,#734,#735);
#593=AXIS2_PLACEMENT_3D('',#897,#736,#737);
#594=AXIS2_PLACEMENT_3D('',#898,#738,#739);
#595=AXIS2_PLACEMENT_3D('',#901,#740,#741);
#596=AXIS2_PLACEMENT_3D('',#904,#744,#745);
#597=AXIS2_PLACEMENT_3D('',#907,#748,#749);
#598=AXIS2_PLACEMENT_3D('',#910,#750,#751);
#599=AXIS2_PLACEMENT_3D('',#912,#752,#753);
#600=AXIS2_PLACEMENT_3D('',#913,#754,#755);
#601=AXIS2_PLACEMENT_3D('',#914,#756,#757);
#602=AXIS2_PLACEMENT_3D('',#917,#758,#759);
#603=AXIS2_PLACEMENT_3D('',#920,#762,#763);
#604=AXIS2_PLACEMENT_3D('',#923,#766,#767);
#605=AXIS2_PLACEMENT_3D('',#926,#770,#771);
#606=AXIS2_PLACEMENT_3D('',#929,#774,#775);
#607=AXIS2_PLACEMENT_3D('',#931,#777,#778);
#608=AXIS2_PLACEMENT_3D('',#933,#780,#781);
#609=AXIS2_PLACEMENT_3D('',#934,#782,#783);
#610=AXIS2_PLACEMENT_3D('',#936,#785,#786);
#611=AXIS2_PLACEMENT_3D('',#938,#788,#789);
#612=DIRECTION('axis',(0.,0.,1.));
#613=DIRECTION('refdir',(1.,0.,0.));
#614=DIRECTION('center_axis',(0.408248290463863,-0.816496580927726,0.408248290463863));
#615=DIRECTION('ref_axis',(0.577350269189626,0.577350269189626,0.577350269189626));
#616=DIRECTION('center_axis',(2.77555756156289E-16,1.,0.));
#617=DIRECTION('ref_axis',(1.,-2.77555756156289E-16,0.));
#618=DIRECTION('center_axis',(0.,0.,1.));
#619=DIRECTION('ref_axis',(0.,1.,0.));
#620=DIRECTION('center_axis',(1.,-2.77555756156289E-16,0.));
#621=DIRECTION('ref_axis',(0.,0.,1.));
#622=DIRECTION('center_axis',(0.,0.,1.));
#623=DIRECTION('ref_axis',(0.707106781186548,0.707106781186547,0.));
#624=DIRECTION('center_axis',(0.,0.,1.));
#625=DIRECTION('ref_axis',(0.707106781186548,0.707106781186547,0.));
#626=DIRECTION('',(0.,0.,1.));
#627=DIRECTION('',(0.,0.,-1.));
#628=DIRECTION('center_axis',(-0.408248290463863,0.408248290463863,-0.816496580927726));
#629=DIRECTION('ref_axis',(-0.577350269189626,0.577350269189626,0.577350269189626));
#630=DIRECTION('center_axis',(-1.,0.,0.));
#631=DIRECTION('ref_axis',(0.,1.,0.));
#632=DIRECTION('center_axis',(0.,0.,1.));
#633=DIRECTION('ref_axis',(-1.,2.77555756156289E-16,0.));
#634=DIRECTION('center_axis',(5.55111512312578E-16,1.,0.));
#635=DIRECTION('ref_axis',(0.,0.,1.));
#636=DIRECTION('center_axis',(0.,0.,1.));
#637=DIRECTION('ref_axis',(-0.707106781186548,0.707106781186548,0.));
#638=DIRECTION('center_axis',(0.,0.,1.));
#639=DIRECTION('ref_axis',(-0.707106781186548,0.707106781186548,0.));
#640=DIRECTION('',(0.,0.,1.));
#641=DIRECTION('',(0.,0.,-1.));
#642=DIRECTION('center_axis',(-0.816496580927726,-0.408248290463863,0.408248290463863));
#643=DIRECTION('ref_axis',(0.577350269189626,-0.577350269189626,0.577350269189626));
#644=DIRECTION('center_axis',(1.,0.,0.));
#645=DIRECTION('ref_axis',(0.,-1.,0.));
#646=DIRECTION('center_axis',(0.,0.,1.));
#647=DIRECTION('ref_axis',(1.,-2.77555756156289E-16,0.));
#648=DIRECTION('center_axis',(-2.77555756156289E-16,-1.,0.));
#649=DIRECTION('ref_axis',(0.,0.,1.));
#650=DIRECTION('center_axis',(0.,0.,1.));
#651=DIRECTION('ref_axis',(0.707106781186547,-0.707106781186548,0.));
#652=DIRECTION('center_axis',(0.,0.,1.));
#653=DIRECTION('ref_axis',(0.707106781186547,-0.707106781186548,0.));
#654=DIRECTION('',(0.,0.,1.));
#655=DIRECTION('',(0.,0.,-1.));
#656=DIRECTION('center_axis',(1.85037170770859E-16,1.,0.));
#657=DIRECTION('ref_axis',(0.707106781186548,-3.92523114670944E-16,0.707106781186547));
#658=DIRECTION('',(-1.85037170770859E-16,-1.,0.));
#659=DIRECTION('',(1.85037170770859E-16,1.,0.));
#660=DIRECTION('center_axis',(0.408248290463863,-0.816496580927726,-0.408248290463863));
#661=DIRECTION('ref_axis',(-0.577350269189626,-0.577350269189626,0.577350269189626));
#662=DIRECTION('center_axis',(-2.77555756156289E-16,-1.,5.55111512312578E-16));
#663=DIRECTION('ref_axis',(-1.,2.77555756156289E-16,0.));
#664=DIRECTION('center_axis',(0.,0.,1.));
#665=DIRECTION('ref_axis',(0.,-1.,0.));
#666=DIRECTION('center_axis',(-1.,2.77555756156289E-16,0.));
#667=DIRECTION('ref_axis',(0.,0.,1.));
#668=DIRECTION('center_axis',(0.,0.,1.));
#669=DIRECTION('ref_axis',(-0.707106781186548,-0.707106781186547,0.));
#670=DIRECTION('center_axis',(0.,0.,1.));
#671=DIRECTION('ref_axis',(-0.707106781186548,-0.707106781186547,0.));
#672=DIRECTION('',(0.,0.,1.));
#673=DIRECTION('',(0.,0.,-1.));
#674=DIRECTION('center_axis',(1.,9.91270557701033E-17,0.));
#675=DIRECTION('ref_axis',(0.,-0.707106781186548,0.707106781186548));
#676=DIRECTION('',(-1.,-9.91270557701033E-17,0.));
#677=DIRECTION('',(1.,9.91270557701033E-17,0.));
#678=DIRECTION('center_axis',(-1.85037170770859E-16,-1.,0.));
#679=DIRECTION('ref_axis',(-0.707106781186548,3.92523114670944E-16,0.707106781186547));
#680=DIRECTION('',(1.85037170770859E-16,1.,0.));
#681=DIRECTION('',(-1.85037170770859E-16,-1.,0.));
#682=DIRECTION('center_axis',(-1.,0.,0.));
#683=DIRECTION('ref_axis',(0.,0.707106781186548,0.707106781186547));
#684=DIRECTION('',(1.,0.,0.));
#685=DIRECTION('',(-1.,0.,0.));
#686=DIRECTION('center_axis',(1.,-1.85037170770859E-16,0.));
#687=DIRECTION('ref_axis',(1.85037170770859E-16,1.,0.));
#688=DIRECTION('',(1.85037170770859E-16,1.,0.));
#689=DIRECTION('center_axis',(9.91270557701033E-17,-1.,0.));
#690=DIRECTION('ref_axis',(1.,9.91270557701033E-17,0.));
#691=DIRECTION('',(1.,9.91270557701033E-17,0.));
#692=DIRECTION('center_axis',(0.,0.,1.));
#693=DIRECTION('ref_axis',(1.,0.,0.));
#694=DIRECTION('center_axis',(-1.,1.85037170770859E-16,0.));
#695=DIRECTION('ref_axis',(-1.85037170770859E-16,-1.,0.));
#696=DIRECTION('',(-1.85037170770859E-16,-1.,0.));
#697=DIRECTION('center_axis',(0.,1.,0.));
#698=DIRECTION('ref_axis',(-1.,0.,0.));
#699=DIRECTION('',(-1.,0.,0.));
#700=DIRECTION('center_axis',(0.,0.,1.));
#701=DIRECTION('ref_axis',(1.,0.,0.));
#702=DIRECTION('center_axis',(0.408248290463863,-0.816496580927726,-0.408248290463863));
#703=DIRECTION('ref_axis',(0.577350269189626,0.577350269189626,-0.577350269189626));
#704=DIRECTION('center_axis',(-2.77555756156289E-16,-1.,0.));
#705=DIRECTION('ref_axis',(1.,-2.77555756156289E-16,0.));
#706=DIRECTION('center_axis',(-1.,2.77555756156289E-16,0.));
#707=DIRECTION('ref_axis',(0.,0.,-1.));
#708=DIRECTION('center_axis',(0.,0.,1.));
#709=DIRECTION('ref_axis',(0.,1.,0.));
#710=DIRECTION('center_axis',(0.,0.,1.));
#711=DIRECTION('ref_axis',(0.707106781186548,0.707106781186547,0.));
#712=DIRECTION('center_axis',(0.,0.,1.));
#713=DIRECTION('ref_axis',(0.707106781186548,0.707106781186547,0.));
#714=DIRECTION('',(0.,0.,1.));
#715=DIRECTION('',(0.,0.,-1.));
#716=DIRECTION('center_axis',(-0.408248290463863,0.408248290463863,0.816496580927726));
#717=DIRECTION('ref_axis',(-0.577350269189626,0.577350269189626,-0.577350269189625));
#718=DIRECTION('center_axis',(1.,0.,0.));
#719=DIRECTION('ref_axis',(0.,1.,0.));
#720=DIRECTION('center_axis',(-5.55111512312578E-16,-1.,0.));
#721=DIRECTION('ref_axis',(0.,0.,-1.));
#722=DIRECTION('center_axis',(0.,0.,1.));
#723=DIRECTION('ref_axis',(-1.,2.77555756156289E-16,0.));
#724=DIRECTION('center_axis',(0.,0.,1.));
#725=DIRECTION('ref_axis',(-0.707106781186548,0.707106781186548,0.));
#726=DIRECTION('center_axis',(0.,0.,1.));
#727=DIRECTION('ref_axis',(-0.707106781186548,0.707106781186548,0.));
#728=DIRECTION('',(0.,0.,1.));
#729=DIRECTION('',(0.,0.,-1.));
#730=DIRECTION('center_axis',(-0.816496580927726,-0.408248290463863,-0.408248290463863));
#731=DIRECTION('ref_axis',(0.577350269189626,-0.577350269189626,-0.577350269189625));
#732=DIRECTION('center_axis',(-1.,0.,0.));
#733=DIRECTION('ref_axis',(0.,-1.,0.));
#734=DIRECTION('center_axis',(2.77555756156289E-16,1.,0.));
#735=DIRECTION('ref_axis',(0.,0.,-1.));
#736=DIRECTION('center_axis',(0.,0.,1.));
#737=DIRECTION('ref_axis',(1.,-2.77555756156289E-16,0.));
#738=DIRECTION('center_axis',(0.,0.,1.));
#739=DIRECTION('ref_axis',(0.707106781186547,-0.707106781186548,0.));
#740=DIRECTION('center_axis',(0.,0.,1.));
#741=DIRECTION('ref_axis',(0.707106781186547,-0.707106781186548,0.));
#742=DIRECTION('',(0.,0.,1.));
#743=DIRECTION('',(0.,0.,-1.));
#744=DIRECTION('center_axis',(-1.85037170770859E-16,-1.,0.));
#745=DIRECTION('ref_axis',(0.707106781186548,-3.92523114670944E-16,-0.707106781186547));
#746=DIRECTION('',(1.85037170770859E-16,1.,0.));
#747=DIRECTION('',(-1.85037170770859E-16,-1.,0.));
#748=DIRECTION('center_axis',(0.408248290463863,-0.816496580927726,0.408248290463863));
#749=DIRECTION('ref_axis',(-0.577350269189626,-0.577350269189626,-0.577350269189626));
#750=DIRECTION('center_axis',(2.77555756156289E-16,1.,5.55111512312578E-16));
#751=DIRECTION('ref_axis',(-1.,2.77555756156289E-16,0.));
#752=DIRECTION('center_axis',(1.,-2.77555756156289E-16,0.));
#753=DIRECTION('ref_axis',(0.,0.,-1.));
#754=DIRECTION('center_axis',(0.,0.,1.));
#755=DIRECTION('ref_axis',(0.,-1.,0.));
#756=DIRECTION('center_axis',(0.,0.,1.));
#757=DIRECTION('ref_axis',(-0.707106781186548,-0.707106781186547,0.));
#758=DIRECTION('center_axis',(0.,0.,1.));
#759=DIRECTION('ref_axis',(-0.707106781186548,-0.707106781186547,0.));
#760=DIRECTION('',(0.,0.,1.));
#761=DIRECTION('',(0.,0.,-1.));
#762=DIRECTION('center_axis',(-1.,-9.91270557701033E-17,0.));
#763=DIRECTION('ref_axis',(0.,-0.707106781186548,-0.707106781186548));
#764=DIRECTION('',(1.,9.91270557701033E-17,0.));
#765=DIRECTION('',(-1.,-9.91270557701033E-17,0.));
#766=DIRECTION('center_axis',(1.85037170770859E-16,1.,0.));
#767=DIRECTION('ref_axis',(-0.707106781186548,3.92523114670944E-16,-0.707106781186547));
#768=DIRECTION('',(-1.85037170770859E-16,-1.,0.));
#769=DIRECTION('',(1.85037170770859E-16,1.,0.));
#770=DIRECTION('center_axis',(1.,0.,0.));
#771=DIRECTION('ref_axis',(0.,0.707106781186548,-0.707106781186547));
#772=DIRECTION('',(-1.,0.,0.));
#773=DIRECTION('',(1.,0.,0.));
#774=DIRECTION('center_axis',(-1.,1.85037170770859E-16,0.));
#775=DIRECTION('ref_axis',(1.85037170770859E-16,1.,0.));
#776=DIRECTION('',(1.85037170770859E-16,1.,0.));
#777=DIRECTION('center_axis',(-9.91270557701033E-17,1.,0.));
#778=DIRECTION('ref_axis',(1.,9.91270557701033E-17,0.));
#779=DIRECTION('',(1.,9.91270557701033E-17,0.));
#780=DIRECTION('center_axis',(0.,0.,1.));
#781=DIRECTION('ref_axis',(1.,0.,0.));
#782=DIRECTION('center_axis',(1.,-1.85037170770859E-16,0.));
#783=DIRECTION('ref_axis',(-1.85037170770859E-16,-1.,0.));
#784=DIRECTION('',(-1.85037170770859E-16,-1.,0.));
#785=DIRECTION('center_axis',(0.,-1.,0.));
#786=DIRECTION('ref_axis',(-1.,0.,0.));
#787=DIRECTION('',(-1.,0.,0.));
#788=DIRECTION('center_axis',(0.,0.,1.));
#789=DIRECTION('ref_axis',(1.,0.,0.));
#790=CARTESIAN_POINT('',(0.,0.,0.));
#791=CARTESIAN_POINT('Origin',(0.9,1.,1.5));
#792=CARTESIAN_POINT('',(1.4,1.,1.5));
#793=CARTESIAN_POINT('',(0.9,1.,2.));
#794=CARTESIAN_POINT('Origin',(0.9,1.,1.5));
#795=CARTESIAN_POINT('',(0.9,1.5,1.5));
#796=CARTESIAN_POINT('Origin',(0.9,1.,1.5));
#797=CARTESIAN_POINT('Origin',(0.9,1.,1.5));
#798=CARTESIAN_POINT('Origin',(0.9,1.,0.));
#799=CARTESIAN_POINT('',(1.4,1.,0.));
#800=CARTESIAN_POINT('',(0.9,1.5,0.));
#801=CARTESIAN_POINT('Origin',(0.9,1.,0.));
#802=CARTESIAN_POINT('',(0.9,1.5,0.));
#803=CARTESIAN_POINT('',(1.4,1.,0.));
#804=CARTESIAN_POINT('Origin',(-0.9,1.,1.5));
#805=CARTESIAN_POINT('',(-0.9,1.5,1.5));
#806=CARTESIAN_POINT('',(-0.9,1.,2.));
#807=CARTESIAN_POINT('Origin',(-0.9,1.,1.5));
#808=CARTESIAN_POINT('',(-1.4,1.,1.5));
#809=CARTESIAN_POINT('Origin',(-0.9,1.,1.5));
#810=CARTESIAN_POINT('Origin',(-0.9,1.,1.5));
#811=CARTESIAN_POINT('Origin',(-0.9,1.,0.));
#812=CARTESIAN_POINT('',(-0.9,1.5,0.));
#813=CARTESIAN_POINT('',(-1.4,1.,0.));
#814=CARTESIAN_POINT('Origin',(-0.9,1.,0.));
#815=CARTESIAN_POINT('',(-1.4,1.,0.));
#816=CARTESIAN_POINT('',(-0.9,1.5,0.));
#817=CARTESIAN_POINT('Origin',(0.899999999999999,-1.,1.5));
#818=CARTESIAN_POINT('',(0.899999999999999,-1.5,1.5));
#819=CARTESIAN_POINT('',(0.899999999999999,-1.,2.));
#820=CARTESIAN_POINT('Origin',(0.899999999999999,-1.,1.5));
#821=CARTESIAN_POINT('',(1.4,-1.,1.5));
#822=CARTESIAN_POINT('Origin',(0.899999999999999,-1.,1.5));
#823=CARTESIAN_POINT('Origin',(0.899999999999999,-1.,1.5));
#824=CARTESIAN_POINT('Origin',(0.899999999999999,-1.,0.));
#825=CARTESIAN_POINT('',(0.899999999999999,-1.5,0.));
#826=CARTESIAN_POINT('',(1.4,-1.,0.));
#827=CARTESIAN_POINT('Origin',(0.899999999999999,-1.,0.));
#828=CARTESIAN_POINT('',(1.4,-1.,0.));
#829=CARTESIAN_POINT('',(0.899999999999999,-1.5,0.));
#830=CARTESIAN_POINT('Origin',(0.899999999999999,-0.75,1.5));
#831=CARTESIAN_POINT('',(0.899999999999999,-0.75,2.));
#832=CARTESIAN_POINT('',(1.4,-0.75,1.5));
#833=CARTESIAN_POINT('Origin',(-0.9,-1.,1.5));
#834=CARTESIAN_POINT('',(-1.4,-1.,1.5));
#835=CARTESIAN_POINT('',(-0.9,-1.,2.));
#836=CARTESIAN_POINT('Origin',(-0.9,-1.,1.5));
#837=CARTESIAN_POINT('',(-0.9,-1.5,1.5));
#838=CARTESIAN_POINT('Origin',(-0.9,-1.,1.5));
#839=CARTESIAN_POINT('Origin',(-0.9,-1.,1.5));
#840=CARTESIAN_POINT('Origin',(-0.9,-1.,0.));
#841=CARTESIAN_POINT('',(-1.4,-1.,0.));
#842=CARTESIAN_POINT('',(-0.9,-1.5,0.));
#843=CARTESIAN_POINT('Origin',(-0.9,-1.,0.));
#844=CARTESIAN_POINT('',(-0.9,-1.5,0.));
#845=CARTESIAN_POINT('',(-1.4,-1.,0.));
#846=CARTESIAN_POINT('Origin',(-0.7,-1.,1.5));
#847=CARTESIAN_POINT('',(-0.7,-1.,2.));
#848=CARTESIAN_POINT('',(-0.7,-1.5,1.5));
#849=CARTESIAN_POINT('Origin',(-0.9,0.75,1.5));
#850=CARTESIAN_POINT('',(-0.9,0.75,2.));
#851=CARTESIAN_POINT('',(-1.4,0.75,1.5));
#852=CARTESIAN_POINT('Origin',(0.7,1.,1.5));
#853=CARTESIAN_POINT('',(0.7,1.,2.));
#854=CARTESIAN_POINT('',(0.7,1.5,1.5));
#855=CARTESIAN_POINT('Origin',(1.4,-1.5,0.));
#856=CARTESIAN_POINT('',(1.4,-1.5,0.));
#857=CARTESIAN_POINT('Origin',(-1.4,-1.5,0.));
#858=CARTESIAN_POINT('',(-1.4,-1.5,0.));
#859=CARTESIAN_POINT('Origin',(-2.77555756156289E-16,-2.77555756156289E-16,
2.));
#860=CARTESIAN_POINT('Origin',(-1.4,1.5,0.));
#861=CARTESIAN_POINT('',(-1.4,1.5,0.));
#862=CARTESIAN_POINT('Origin',(1.4,1.5,0.));
#863=CARTESIAN_POINT('',(1.4,1.5,0.));
#864=CARTESIAN_POINT('Origin',(-2.77555756156289E-16,-2.77555756156289E-16,
0.));
#865=CARTESIAN_POINT('Origin',(0.9,1.,-3.1));
#866=CARTESIAN_POINT('',(1.4,1.,-3.1));
#867=CARTESIAN_POINT('',(0.9,1.,-3.6));
#868=CARTESIAN_POINT('Origin',(0.9,1.,-3.1));
#869=CARTESIAN_POINT('',(0.9,1.5,-3.1));
#870=CARTESIAN_POINT('Origin',(0.9,1.,-3.1));
#871=CARTESIAN_POINT('Origin',(0.9,1.,-3.1));
#872=CARTESIAN_POINT('Origin',(0.9,1.,-1.6));
#873=CARTESIAN_POINT('',(1.4,1.,-1.6));
#874=CARTESIAN_POINT('',(0.9,1.5,-1.6));
#875=CARTESIAN_POINT('Origin',(0.9,1.,-1.6));
#876=CARTESIAN_POINT('',(1.4,1.,-1.6));
#877=CARTESIAN_POINT('',(0.9,1.5,-1.6));
#878=CARTESIAN_POINT('Origin',(-0.9,1.,-3.1));
#879=CARTESIAN_POINT('',(-0.9,1.5,-3.1));
#880=CARTESIAN_POINT('',(-0.9,1.,-3.6));
#881=CARTESIAN_POINT('Origin',(-0.9,1.,-3.1));
#882=CARTESIAN_POINT('',(-1.4,1.,-3.1));
#883=CARTESIAN_POINT('Origin',(-0.9,1.,-3.1));
#884=CARTESIAN_POINT('Origin',(-0.9,1.,-3.1));
#885=CARTESIAN_POINT('Origin',(-0.9,1.,-1.6));
#886=CARTESIAN_POINT('',(-0.9,1.5,-1.6));
#887=CARTESIAN_POINT('',(-1.4,1.,-1.6));
#888=CARTESIAN_POINT('Origin',(-0.9,1.,-1.6));
#889=CARTESIAN_POINT('',(-0.9,1.5,-1.6));
#890=CARTESIAN_POINT('',(-1.4,1.,-1.6));
#891=CARTESIAN_POINT('Origin',(0.899999999999999,-1.,-3.1));
#892=CARTESIAN_POINT('',(0.899999999999999,-1.5,-3.1));
#893=CARTESIAN_POINT('',(0.899999999999999,-1.,-3.6));
#894=CARTESIAN_POINT('Origin',(0.899999999999999,-1.,-3.1));
#895=CARTESIAN_POINT('',(1.4,-1.,-3.1));
#896=CARTESIAN_POINT('Origin',(0.899999999999999,-1.,-3.1));
#897=CARTESIAN_POINT('Origin',(0.899999999999999,-1.,-3.1));
#898=CARTESIAN_POINT('Origin',(0.899999999999999,-1.,-1.6));
#899=CARTESIAN_POINT('',(0.899999999999999,-1.5,-1.6));
#900=CARTESIAN_POINT('',(1.4,-1.,-1.6));
#901=CARTESIAN_POINT('Origin',(0.899999999999999,-1.,-1.6));
#902=CARTESIAN_POINT('',(0.899999999999999,-1.5,-1.6));
#903=CARTESIAN_POINT('',(1.4,-1.,-1.6));
#904=CARTESIAN_POINT('Origin',(0.899999999999999,-0.75,-3.1));
#905=CARTESIAN_POINT('',(1.4,-0.75,-3.1));
#906=CARTESIAN_POINT('',(0.899999999999999,-0.75,-3.6));
#907=CARTESIAN_POINT('Origin',(-0.9,-1.,-3.1));
#908=CARTESIAN_POINT('',(-1.4,-1.,-3.1));
#909=CARTESIAN_POINT('',(-0.9,-1.,-3.6));
#910=CARTESIAN_POINT('Origin',(-0.9,-1.,-3.1));
#911=CARTESIAN_POINT('',(-0.9,-1.5,-3.1));
#912=CARTESIAN_POINT('Origin',(-0.9,-1.,-3.1));
#913=CARTESIAN_POINT('Origin',(-0.9,-1.,-3.1));
#914=CARTESIAN_POINT('Origin',(-0.9,-1.,-1.6));
#915=CARTESIAN_POINT('',(-1.4,-1.,-1.6));
#916=CARTESIAN_POINT('',(-0.9,-1.5,-1.6));
#917=CARTESIAN_POINT('Origin',(-0.9,-1.,-1.6));
#918=CARTESIAN_POINT('',(-1.4,-1.,-1.6));
#919=CARTESIAN_POINT('',(-0.9,-1.5,-1.6));
#920=CARTESIAN_POINT('Origin',(-0.7,-1.,-3.1));
#921=CARTESIAN_POINT('',(-0.7,-1.5,-3.1));
#922=CARTESIAN_POINT('',(-0.7,-1.,-3.6));
#923=CARTESIAN_POINT('Origin',(-0.9,0.75,-3.1));
#924=CARTESIAN_POINT('',(-1.4,0.75,-3.1));
#925=CARTESIAN_POINT('',(-0.9,0.75,-3.6));
#926=CARTESIAN_POINT('Origin',(0.7,1.,-3.1));
#927=CARTESIAN_POINT('',(0.7,1.5,-3.1));
#928=CARTESIAN_POINT('',(0.7,1.,-3.6));
#929=CARTESIAN_POINT('Origin',(1.4,-1.5,-1.6));
#930=CARTESIAN_POINT('',(1.4,-1.5,-1.6));
#931=CARTESIAN_POINT('Origin',(-1.4,-1.5,-1.6));
#932=CARTESIAN_POINT('',(-1.4,-1.5,-1.6));
#933=CARTESIAN_POINT('Origin',(-2.77555756156289E-16,-2.77555756156289E-16,
-3.6));
#934=CARTESIAN_POINT('Origin',(-1.4,1.5,-1.6));
#935=CARTESIAN_POINT('',(-1.4,1.5,-1.6));
#936=CARTESIAN_POINT('Origin',(1.4,1.5,-1.6));
#937=CARTESIAN_POINT('',(1.4,1.5,-1.6));
#938=CARTESIAN_POINT('Origin',(-2.77555756156289E-16,-2.77555756156289E-16,
-1.6));
#939=UNCERTAINTY_MEASURE_WITH_UNIT(LENGTH_MEASURE(0.01),#943,
'DISTANCE_ACCURACY_VALUE',
'Maximum model space distance between geometric entities at asserted c
onnectivities');
#940=UNCERTAINTY_MEASURE_WITH_UNIT(LENGTH_MEASURE(0.01),#943,
'DISTANCE_ACCURACY_VALUE',
'Maximum model space distance between geometric entities at asserted c
onnectivities');
#941=(
GEOMETRIC_REPRESENTATION_CONTEXT(3)
GLOBAL_UNCERTAINTY_ASSIGNED_CONTEXT((#939))
GLOBAL_UNIT_ASSIGNED_CONTEXT((#943,#945,#946))
REPRESENTATION_CONTEXT('','3D')
);
#942=(
GEOMETRIC_REPRESENTATION_CONTEXT(3)
GLOBAL_UNCERTAINTY_ASSIGNED_CONTEXT((#940))
GLOBAL_UNIT_ASSIGNED_CONTEXT((#943,#945,#946))
REPRESENTATION_CONTEXT('','3D')
);
#943=(
LENGTH_UNIT()
NAMED_UNIT(*)
SI_UNIT(.MILLI.,.METRE.)
);
#944=(
LENGTH_UNIT()
NAMED_UNIT(*)
SI_UNIT($,.METRE.)
);
#945=(
NAMED_UNIT(*)
PLANE_ANGLE_UNIT()
SI_UNIT($,.RADIAN.)
);
#946=(
NAMED_UNIT(*)
SI_UNIT($,.STERADIAN.)
SOLID_ANGLE_UNIT()
);
#947=SHAPE_DEFINITION_REPRESENTATION(#948,#949);
#948=PRODUCT_DEFINITION_SHAPE('',$,#951);
#949=SHAPE_REPRESENTATION('',(#543),#941);
#950=PRODUCT_DEFINITION_CONTEXT('part definition',#955,'design');
#951=PRODUCT_DEFINITION('solo-bridge','solo-bridge v6',#952,#950);
#952=PRODUCT_DEFINITION_FORMATION('',$,#957);
#953=PRODUCT_RELATED_PRODUCT_CATEGORY('solo-bridge v6','solo-bridge v6',
(#957));
#954=APPLICATION_PROTOCOL_DEFINITION('international standard',
'automotive_design',2009,#955);
#955=APPLICATION_CONTEXT(
'Core Data for Automotive Mechanical Design Process');
#956=PRODUCT_CONTEXT('part definition',#955,'mechanical');
#957=PRODUCT('solo-bridge','solo-bridge v6',$,(#956));
#958=PRESENTATION_STYLE_ASSIGNMENT((#960));
#959=PRESENTATION_STYLE_ASSIGNMENT((#961));
#960=SURFACE_STYLE_USAGE(.BOTH.,#962);
#961=SURFACE_STYLE_USAGE(.BOTH.,#963);
#962=SURFACE_SIDE_STYLE('',(#964));
#963=SURFACE_SIDE_STYLE('',(#965));
#964=SURFACE_STYLE_FILL_AREA(#966);
#965=SURFACE_STYLE_FILL_AREA(#967);
#966=FILL_AREA_STYLE('ABS (blanc)',(#968));
#967=FILL_AREA_STYLE('ABS (blanc)',(#969));
#968=FILL_AREA_STYLE_COLOUR('ABS (blanc)',#970);
#969=FILL_AREA_STYLE_COLOUR('ABS (blanc)',#971);
#970=COLOUR_RGB('ABS (blanc)',0.964705882352941,0.964705882352941,0.952941176470588);
#971=COLOUR_RGB('ABS (blanc)',0.705882352941177,0.513725490196078,0.388235294117647);
ENDSEC;
END-ISO-10303-21;
