ISO-10303-21;
HEADER;
/* Generated by software containing ST-Developer
 * from STEP Tools, Inc. (www.steptools.com) 
 */

FILE_DESCRIPTION(
/* description */ (''),
/* implementation_level */ '2;1');

FILE_NAME(
/* name */ 'ThumbSolo-attache-FINAL.step',
/* time_stamp */ '2025-08-31T05:24:47+02:00',
/* author */ (''),
/* organization */ (''),
/* preprocessor_version */ 'ST-DEVELOPER v20.1',
/* originating_system */ 'Autodesk Translation Framework v14.10.0.0',
/* authorisation */ '');

FILE_SCHEMA (('AUTOMOTIVE_DESIGN { 1 0 10303 214 3 1 1 }'));
ENDSEC;

DATA;
#10=MECHANICAL_DESIGN_GEOMETRIC_PRESENTATION_REPRESENTATION('',(#13,#14),
#942);
#11=SHAPE_REPRESENTATION_RELATIONSHIP('SRR','None',#949,#12);
#12=ADVANCED_BREP_SHAPE_REPRESENTATION('',(#15,#16),#941);
#13=STYLED_ITEM('',(#959),#15);
#14=STYLED_ITEM('',(#959),#16);
#15=MANIFOLD_SOLID_BREP('Corps1',#529);
#16=MANIFOLD_SOLID_BREP('Corps2',#530);
#17=CYLINDRICAL_SURFACE('',#553,0.5);
#18=CYLINDRICAL_SURFACE('',#558,0.5);
#19=CYLINDRICAL_SURFACE('',#559,0.5);
#20=CYLINDRICAL_SURFACE('',#564,0.5);
#21=CYLINDRICAL_SURFACE('',#569,0.5);
#22=CYLINDRICAL_SURFACE('',#570,0.5);
#23=CYLINDRICAL_SURFACE('',#571,0.5);
#24=CYLINDRICAL_SURFACE('',#572,0.5);
#25=CYLINDRICAL_SURFACE('',#587,0.5);
#26=CYLINDRICAL_SURFACE('',#592,0.5);
#27=CYLINDRICAL_SURFACE('',#593,0.5);
#28=CYLINDRICAL_SURFACE('',#598,0.5);
#29=CYLINDRICAL_SURFACE('',#603,0.5);
#30=CYLINDRICAL_SURFACE('',#604,0.5);
#31=CYLINDRICAL_SURFACE('',#605,0.5);
#32=CYLINDRICAL_SURFACE('',#606,0.5);
#33=SPHERICAL_SURFACE('',#549,0.5);
#34=SPHERICAL_SURFACE('',#554,0.5);
#35=SPHERICAL_SURFACE('',#560,0.5);
#36=SPHERICAL_SURFACE('',#565,0.5);
#37=SPHERICAL_SURFACE('',#583,0.5);
#38=SPHERICAL_SURFACE('',#588,0.5);
#39=SPHERICAL_SURFACE('',#594,0.5);
#40=SPHERICAL_SURFACE('',#599,0.5);
#41=FACE_OUTER_BOUND('',#77,.T.);
#42=FACE_OUTER_BOUND('',#78,.T.);
#43=FACE_OUTER_BOUND('',#79,.T.);
#44=FACE_OUTER_BOUND('',#80,.T.);
#45=FACE_OUTER_BOUND('',#81,.T.);
#46=FACE_OUTER_BOUND('',#82,.T.);
#47=FACE_OUTER_BOUND('',#83,.T.);
#48=FACE_OUTER_BOUND('',#84,.T.);
#49=FACE_OUTER_BOUND('',#85,.T.);
#50=FACE_OUTER_BOUND('',#86,.T.);
#51=FACE_OUTER_BOUND('',#87,.T.);
#52=FACE_OUTER_BOUND('',#88,.T.);
#53=FACE_OUTER_BOUND('',#89,.T.);
#54=FACE_OUTER_BOUND('',#90,.T.);
#55=FACE_OUTER_BOUND('',#91,.T.);
#56=FACE_OUTER_BOUND('',#92,.T.);
#57=FACE_OUTER_BOUND('',#93,.T.);
#58=FACE_OUTER_BOUND('',#94,.T.);
#59=FACE_OUTER_BOUND('',#95,.T.);
#60=FACE_OUTER_BOUND('',#96,.T.);
#61=FACE_OUTER_BOUND('',#97,.T.);
#62=FACE_OUTER_BOUND('',#98,.T.);
#63=FACE_OUTER_BOUND('',#99,.T.);
#64=FACE_OUTER_BOUND('',#100,.T.);
#65=FACE_OUTER_BOUND('',#101,.T.);
#66=FACE_OUTER_BOUND('',#102,.T.);
#67=FACE_OUTER_BOUND('',#103,.T.);
#68=FACE_OUTER_BOUND('',#104,.T.);
#69=FACE_OUTER_BOUND('',#105,.T.);
#70=FACE_OUTER_BOUND('',#106,.T.);
#71=FACE_OUTER_BOUND('',#107,.T.);
#72=FACE_OUTER_BOUND('',#108,.T.);
#73=FACE_OUTER_BOUND('',#109,.T.);
#74=FACE_OUTER_BOUND('',#110,.T.);
#75=FACE_OUTER_BOUND('',#111,.T.);
#76=FACE_OUTER_BOUND('',#112,.T.);
#77=EDGE_LOOP('',(#337,#338,#339,#340,#341,#342,#343,#344));
#78=EDGE_LOOP('',(#345,#346,#347));
#79=EDGE_LOOP('',(#348,#349,#350,#351));
#80=EDGE_LOOP('',(#352,#353,#354));
#81=EDGE_LOOP('',(#355,#356,#357,#358));
#82=EDGE_LOOP('',(#359,#360,#361,#362));
#83=EDGE_LOOP('',(#363,#364,#365));
#84=EDGE_LOOP('',(#366,#367,#368,#369));
#85=EDGE_LOOP('',(#370,#371,#372));
#86=EDGE_LOOP('',(#373,#374,#375,#376));
#87=EDGE_LOOP('',(#377,#378,#379,#380));
#88=EDGE_LOOP('',(#381,#382,#383,#384));
#89=EDGE_LOOP('',(#385,#386,#387,#388));
#90=EDGE_LOOP('',(#389,#390,#391,#392));
#91=EDGE_LOOP('',(#393,#394,#395,#396));
#92=EDGE_LOOP('',(#397,#398,#399,#400));
#93=EDGE_LOOP('',(#401,#402,#403,#404));
#94=EDGE_LOOP('',(#405,#406,#407,#408));
#95=EDGE_LOOP('',(#409,#410,#411,#412,#413,#414,#415,#416));
#96=EDGE_LOOP('',(#417,#418,#419));
#97=EDGE_LOOP('',(#420,#421,#422,#423));
#98=EDGE_LOOP('',(#424,#425,#426));
#99=EDGE_LOOP('',(#427,#428,#429,#430));
#100=EDGE_LOOP('',(#431,#432,#433,#434));
#101=EDGE_LOOP('',(#435,#436,#437));
#102=EDGE_LOOP('',(#438,#439,#440,#441));
#103=EDGE_LOOP('',(#442,#443,#444));
#104=EDGE_LOOP('',(#445,#446,#447,#448));
#105=EDGE_LOOP('',(#449,#450,#451,#452));
#106=EDGE_LOOP('',(#453,#454,#455,#456));
#107=EDGE_LOOP('',(#457,#458,#459,#460));
#108=EDGE_LOOP('',(#461,#462,#463,#464));
#109=EDGE_LOOP('',(#465,#466,#467,#468));
#110=EDGE_LOOP('',(#469,#470,#471,#472));
#111=EDGE_LOOP('',(#473,#474,#475,#476));
#112=EDGE_LOOP('',(#477,#478,#479,#480));
#113=LINE('',#796,#153);
#114=LINE('',#800,#154);
#115=LINE('',#804,#155);
#116=LINE('',#807,#156);
#117=LINE('',#816,#157);
#118=LINE('',#817,#158);
#119=LINE('',#826,#159);
#120=LINE('',#827,#160);
#121=LINE('',#829,#161);
#122=LINE('',#830,#162);
#123=LINE('',#839,#163);
#124=LINE('',#840,#164);
#125=LINE('',#849,#165);
#126=LINE('',#850,#166);
#127=LINE('',#852,#167);
#128=LINE('',#853,#168);
#129=LINE('',#855,#169);
#130=LINE('',#856,#170);
#131=LINE('',#858,#171);
#132=LINE('',#859,#172);
#133=LINE('',#870,#173);
#134=LINE('',#874,#174);
#135=LINE('',#878,#175);
#136=LINE('',#881,#176);
#137=LINE('',#890,#177);
#138=LINE('',#891,#178);
#139=LINE('',#900,#179);
#140=LINE('',#901,#180);
#141=LINE('',#903,#181);
#142=LINE('',#904,#182);
#143=LINE('',#913,#183);
#144=LINE('',#914,#184);
#145=LINE('',#923,#185);
#146=LINE('',#924,#186);
#147=LINE('',#926,#187);
#148=LINE('',#927,#188);
#149=LINE('',#929,#189);
#150=LINE('',#930,#190);
#151=LINE('',#932,#191);
#152=LINE('',#933,#192);
#153=VECTOR('',#618,10.);
#154=VECTOR('',#621,10.);
#155=VECTOR('',#624,10.);
#156=VECTOR('',#627,10.);
#157=VECTOR('',#638,10.);
#158=VECTOR('',#639,10.);
#159=VECTOR('',#650,10.);
#160=VECTOR('',#651,10.);
#161=VECTOR('',#654,10.);
#162=VECTOR('',#655,10.);
#163=VECTOR('',#666,10.);
#164=VECTOR('',#667,10.);
#165=VECTOR('',#678,10.);
#166=VECTOR('',#679,10.);
#167=VECTOR('',#682,10.);
#168=VECTOR('',#683,10.);
#169=VECTOR('',#686,10.);
#170=VECTOR('',#687,10.);
#171=VECTOR('',#690,10.);
#172=VECTOR('',#691,10.);
#173=VECTOR('',#706,10.);
#174=VECTOR('',#709,10.);
#175=VECTOR('',#712,10.);
#176=VECTOR('',#715,10.);
#177=VECTOR('',#726,10.);
#178=VECTOR('',#727,10.);
#179=VECTOR('',#738,10.);
#180=VECTOR('',#739,10.);
#181=VECTOR('',#742,10.);
#182=VECTOR('',#743,10.);
#183=VECTOR('',#754,10.);
#184=VECTOR('',#755,10.);
#185=VECTOR('',#766,10.);
#186=VECTOR('',#767,10.);
#187=VECTOR('',#770,10.);
#188=VECTOR('',#771,10.);
#189=VECTOR('',#774,10.);
#190=VECTOR('',#775,10.);
#191=VECTOR('',#778,10.);
#192=VECTOR('',#779,10.);
#193=CIRCLE('',#545,0.5);
#194=CIRCLE('',#546,0.5);
#195=CIRCLE('',#547,0.5);
#196=CIRCLE('',#548,0.5);
#197=CIRCLE('',#550,0.5);
#198=CIRCLE('',#551,0.5);
#199=CIRCLE('',#552,0.5);
#200=CIRCLE('',#555,0.5);
#201=CIRCLE('',#556,0.5);
#202=CIRCLE('',#557,0.5);
#203=CIRCLE('',#561,0.5);
#204=CIRCLE('',#562,0.5);
#205=CIRCLE('',#563,0.5);
#206=CIRCLE('',#566,0.5);
#207=CIRCLE('',#567,0.5);
#208=CIRCLE('',#568,0.5);
#209=CIRCLE('',#579,0.5);
#210=CIRCLE('',#580,0.5);
#211=CIRCLE('',#581,0.5);
#212=CIRCLE('',#582,0.5);
#213=CIRCLE('',#584,0.5);
#214=CIRCLE('',#585,0.5);
#215=CIRCLE('',#586,0.5);
#216=CIRCLE('',#589,0.5);
#217=CIRCLE('',#590,0.5);
#218=CIRCLE('',#591,0.5);
#219=CIRCLE('',#595,0.5);
#220=CIRCLE('',#596,0.5);
#221=CIRCLE('',#597,0.5);
#222=CIRCLE('',#600,0.5);
#223=CIRCLE('',#601,0.5);
#224=CIRCLE('',#602,0.5);
#225=VERTEX_POINT('',#792);
#226=VERTEX_POINT('',#793);
#227=VERTEX_POINT('',#795);
#228=VERTEX_POINT('',#797);
#229=VERTEX_POINT('',#799);
#230=VERTEX_POINT('',#801);
#231=VERTEX_POINT('',#803);
#232=VERTEX_POINT('',#805);
#233=VERTEX_POINT('',#809);
#234=VERTEX_POINT('',#810);
#235=VERTEX_POINT('',#812);
#236=VERTEX_POINT('',#819);
#237=VERTEX_POINT('',#820);
#238=VERTEX_POINT('',#822);
#239=VERTEX_POINT('',#832);
#240=VERTEX_POINT('',#833);
#241=VERTEX_POINT('',#835);
#242=VERTEX_POINT('',#842);
#243=VERTEX_POINT('',#843);
#244=VERTEX_POINT('',#845);
#245=VERTEX_POINT('',#866);
#246=VERTEX_POINT('',#867);
#247=VERTEX_POINT('',#869);
#248=VERTEX_POINT('',#871);
#249=VERTEX_POINT('',#873);
#250=VERTEX_POINT('',#875);
#251=VERTEX_POINT('',#877);
#252=VERTEX_POINT('',#879);
#253=VERTEX_POINT('',#883);
#254=VERTEX_POINT('',#884);
#255=VERTEX_POINT('',#886);
#256=VERTEX_POINT('',#893);
#257=VERTEX_POINT('',#894);
#258=VERTEX_POINT('',#896);
#259=VERTEX_POINT('',#906);
#260=VERTEX_POINT('',#907);
#261=VERTEX_POINT('',#909);
#262=VERTEX_POINT('',#916);
#263=VERTEX_POINT('',#917);
#264=VERTEX_POINT('',#919);
#265=EDGE_CURVE('',#225,#226,#193,.T.);
#266=EDGE_CURVE('',#226,#227,#113,.T.);
#267=EDGE_CURVE('',#227,#228,#194,.T.);
#268=EDGE_CURVE('',#228,#229,#114,.T.);
#269=EDGE_CURVE('',#229,#230,#195,.T.);
#270=EDGE_CURVE('',#230,#231,#115,.T.);
#271=EDGE_CURVE('',#231,#232,#196,.T.);
#272=EDGE_CURVE('',#232,#225,#116,.T.);
#273=EDGE_CURVE('',#233,#234,#197,.F.);
#274=EDGE_CURVE('',#235,#233,#198,.F.);
#275=EDGE_CURVE('',#234,#235,#199,.F.);
#276=EDGE_CURVE('',#225,#235,#117,.T.);
#277=EDGE_CURVE('',#233,#226,#118,.T.);
#278=EDGE_CURVE('',#236,#237,#200,.F.);
#279=EDGE_CURVE('',#238,#236,#201,.F.);
#280=EDGE_CURVE('',#237,#238,#202,.F.);
#281=EDGE_CURVE('',#227,#238,#119,.T.);
#282=EDGE_CURVE('',#236,#228,#120,.T.);
#283=EDGE_CURVE('',#234,#237,#121,.T.);
#284=EDGE_CURVE('',#238,#233,#122,.T.);
#285=EDGE_CURVE('',#239,#240,#203,.F.);
#286=EDGE_CURVE('',#241,#239,#204,.F.);
#287=EDGE_CURVE('',#240,#241,#205,.F.);
#288=EDGE_CURVE('',#231,#241,#123,.T.);
#289=EDGE_CURVE('',#239,#232,#124,.T.);
#290=EDGE_CURVE('',#242,#243,#206,.F.);
#291=EDGE_CURVE('',#244,#242,#207,.F.);
#292=EDGE_CURVE('',#243,#244,#208,.F.);
#293=EDGE_CURVE('',#229,#244,#125,.T.);
#294=EDGE_CURVE('',#242,#230,#126,.T.);
#295=EDGE_CURVE('',#237,#243,#127,.T.);
#296=EDGE_CURVE('',#244,#236,#128,.T.);
#297=EDGE_CURVE('',#243,#240,#129,.T.);
#298=EDGE_CURVE('',#241,#242,#130,.T.);
#299=EDGE_CURVE('',#240,#234,#131,.T.);
#300=EDGE_CURVE('',#235,#239,#132,.T.);
#301=EDGE_CURVE('',#245,#246,#209,.T.);
#302=EDGE_CURVE('',#246,#247,#133,.T.);
#303=EDGE_CURVE('',#247,#248,#210,.T.);
#304=EDGE_CURVE('',#248,#249,#134,.T.);
#305=EDGE_CURVE('',#249,#250,#211,.T.);
#306=EDGE_CURVE('',#250,#251,#135,.T.);
#307=EDGE_CURVE('',#251,#252,#212,.T.);
#308=EDGE_CURVE('',#252,#245,#136,.T.);
#309=EDGE_CURVE('',#253,#254,#213,.F.);
#310=EDGE_CURVE('',#254,#255,#214,.F.);
#311=EDGE_CURVE('',#255,#253,#215,.F.);
#312=EDGE_CURVE('',#253,#245,#137,.T.);
#313=EDGE_CURVE('',#255,#246,#138,.T.);
#314=EDGE_CURVE('',#256,#257,#216,.F.);
#315=EDGE_CURVE('',#257,#258,#217,.F.);
#316=EDGE_CURVE('',#258,#256,#218,.F.);
#317=EDGE_CURVE('',#256,#251,#139,.T.);
#318=EDGE_CURVE('',#258,#252,#140,.T.);
#319=EDGE_CURVE('',#258,#253,#141,.T.);
#320=EDGE_CURVE('',#254,#257,#142,.T.);
#321=EDGE_CURVE('',#259,#260,#219,.F.);
#322=EDGE_CURVE('',#260,#261,#220,.F.);
#323=EDGE_CURVE('',#261,#259,#221,.F.);
#324=EDGE_CURVE('',#259,#247,#143,.T.);
#325=EDGE_CURVE('',#248,#261,#144,.T.);
#326=EDGE_CURVE('',#262,#263,#222,.F.);
#327=EDGE_CURVE('',#263,#264,#223,.F.);
#328=EDGE_CURVE('',#264,#262,#224,.F.);
#329=EDGE_CURVE('',#262,#249,#145,.T.);
#330=EDGE_CURVE('',#250,#264,#146,.T.);
#331=EDGE_CURVE('',#264,#256,#147,.T.);
#332=EDGE_CURVE('',#257,#263,#148,.T.);
#333=EDGE_CURVE('',#261,#262,#149,.T.);
#334=EDGE_CURVE('',#263,#260,#150,.T.);
#335=EDGE_CURVE('',#255,#259,#151,.T.);
#336=EDGE_CURVE('',#260,#254,#152,.T.);
#337=ORIENTED_EDGE('',*,*,#265,.T.);
#338=ORIENTED_EDGE('',*,*,#266,.T.);
#339=ORIENTED_EDGE('',*,*,#267,.T.);
#340=ORIENTED_EDGE('',*,*,#268,.T.);
#341=ORIENTED_EDGE('',*,*,#269,.T.);
#342=ORIENTED_EDGE('',*,*,#270,.T.);
#343=ORIENTED_EDGE('',*,*,#271,.T.);
#344=ORIENTED_EDGE('',*,*,#272,.T.);
#345=ORIENTED_EDGE('',*,*,#273,.F.);
#346=ORIENTED_EDGE('',*,*,#274,.F.);
#347=ORIENTED_EDGE('',*,*,#275,.F.);
#348=ORIENTED_EDGE('',*,*,#276,.T.);
#349=ORIENTED_EDGE('',*,*,#274,.T.);
#350=ORIENTED_EDGE('',*,*,#277,.T.);
#351=ORIENTED_EDGE('',*,*,#265,.F.);
#352=ORIENTED_EDGE('',*,*,#278,.F.);
#353=ORIENTED_EDGE('',*,*,#279,.F.);
#354=ORIENTED_EDGE('',*,*,#280,.F.);
#355=ORIENTED_EDGE('',*,*,#281,.T.);
#356=ORIENTED_EDGE('',*,*,#279,.T.);
#357=ORIENTED_EDGE('',*,*,#282,.T.);
#358=ORIENTED_EDGE('',*,*,#267,.F.);
#359=ORIENTED_EDGE('',*,*,#273,.T.);
#360=ORIENTED_EDGE('',*,*,#283,.T.);
#361=ORIENTED_EDGE('',*,*,#280,.T.);
#362=ORIENTED_EDGE('',*,*,#284,.T.);
#363=ORIENTED_EDGE('',*,*,#285,.F.);
#364=ORIENTED_EDGE('',*,*,#286,.F.);
#365=ORIENTED_EDGE('',*,*,#287,.F.);
#366=ORIENTED_EDGE('',*,*,#288,.T.);
#367=ORIENTED_EDGE('',*,*,#286,.T.);
#368=ORIENTED_EDGE('',*,*,#289,.T.);
#369=ORIENTED_EDGE('',*,*,#271,.F.);
#370=ORIENTED_EDGE('',*,*,#290,.F.);
#371=ORIENTED_EDGE('',*,*,#291,.F.);
#372=ORIENTED_EDGE('',*,*,#292,.F.);
#373=ORIENTED_EDGE('',*,*,#293,.T.);
#374=ORIENTED_EDGE('',*,*,#291,.T.);
#375=ORIENTED_EDGE('',*,*,#294,.T.);
#376=ORIENTED_EDGE('',*,*,#269,.F.);
#377=ORIENTED_EDGE('',*,*,#278,.T.);
#378=ORIENTED_EDGE('',*,*,#295,.T.);
#379=ORIENTED_EDGE('',*,*,#292,.T.);
#380=ORIENTED_EDGE('',*,*,#296,.T.);
#381=ORIENTED_EDGE('',*,*,#290,.T.);
#382=ORIENTED_EDGE('',*,*,#297,.T.);
#383=ORIENTED_EDGE('',*,*,#287,.T.);
#384=ORIENTED_EDGE('',*,*,#298,.T.);
#385=ORIENTED_EDGE('',*,*,#285,.T.);
#386=ORIENTED_EDGE('',*,*,#299,.T.);
#387=ORIENTED_EDGE('',*,*,#275,.T.);
#388=ORIENTED_EDGE('',*,*,#300,.T.);
#389=ORIENTED_EDGE('',*,*,#277,.F.);
#390=ORIENTED_EDGE('',*,*,#284,.F.);
#391=ORIENTED_EDGE('',*,*,#281,.F.);
#392=ORIENTED_EDGE('',*,*,#266,.F.);
#393=ORIENTED_EDGE('',*,*,#282,.F.);
#394=ORIENTED_EDGE('',*,*,#296,.F.);
#395=ORIENTED_EDGE('',*,*,#293,.F.);
#396=ORIENTED_EDGE('',*,*,#268,.F.);
#397=ORIENTED_EDGE('',*,*,#283,.F.);
#398=ORIENTED_EDGE('',*,*,#299,.F.);
#399=ORIENTED_EDGE('',*,*,#297,.F.);
#400=ORIENTED_EDGE('',*,*,#295,.F.);
#401=ORIENTED_EDGE('',*,*,#288,.F.);
#402=ORIENTED_EDGE('',*,*,#270,.F.);
#403=ORIENTED_EDGE('',*,*,#294,.F.);
#404=ORIENTED_EDGE('',*,*,#298,.F.);
#405=ORIENTED_EDGE('',*,*,#276,.F.);
#406=ORIENTED_EDGE('',*,*,#272,.F.);
#407=ORIENTED_EDGE('',*,*,#289,.F.);
#408=ORIENTED_EDGE('',*,*,#300,.F.);
#409=ORIENTED_EDGE('',*,*,#301,.T.);
#410=ORIENTED_EDGE('',*,*,#302,.T.);
#411=ORIENTED_EDGE('',*,*,#303,.T.);
#412=ORIENTED_EDGE('',*,*,#304,.T.);
#413=ORIENTED_EDGE('',*,*,#305,.T.);
#414=ORIENTED_EDGE('',*,*,#306,.T.);
#415=ORIENTED_EDGE('',*,*,#307,.T.);
#416=ORIENTED_EDGE('',*,*,#308,.T.);
#417=ORIENTED_EDGE('',*,*,#309,.T.);
#418=ORIENTED_EDGE('',*,*,#310,.T.);
#419=ORIENTED_EDGE('',*,*,#311,.T.);
#420=ORIENTED_EDGE('',*,*,#312,.F.);
#421=ORIENTED_EDGE('',*,*,#311,.F.);
#422=ORIENTED_EDGE('',*,*,#313,.T.);
#423=ORIENTED_EDGE('',*,*,#301,.F.);
#424=ORIENTED_EDGE('',*,*,#314,.T.);
#425=ORIENTED_EDGE('',*,*,#315,.T.);
#426=ORIENTED_EDGE('',*,*,#316,.T.);
#427=ORIENTED_EDGE('',*,*,#317,.F.);
#428=ORIENTED_EDGE('',*,*,#316,.F.);
#429=ORIENTED_EDGE('',*,*,#318,.T.);
#430=ORIENTED_EDGE('',*,*,#307,.F.);
#431=ORIENTED_EDGE('',*,*,#309,.F.);
#432=ORIENTED_EDGE('',*,*,#319,.F.);
#433=ORIENTED_EDGE('',*,*,#315,.F.);
#434=ORIENTED_EDGE('',*,*,#320,.F.);
#435=ORIENTED_EDGE('',*,*,#321,.T.);
#436=ORIENTED_EDGE('',*,*,#322,.T.);
#437=ORIENTED_EDGE('',*,*,#323,.T.);
#438=ORIENTED_EDGE('',*,*,#324,.F.);
#439=ORIENTED_EDGE('',*,*,#323,.F.);
#440=ORIENTED_EDGE('',*,*,#325,.F.);
#441=ORIENTED_EDGE('',*,*,#303,.F.);
#442=ORIENTED_EDGE('',*,*,#326,.T.);
#443=ORIENTED_EDGE('',*,*,#327,.T.);
#444=ORIENTED_EDGE('',*,*,#328,.T.);
#445=ORIENTED_EDGE('',*,*,#329,.F.);
#446=ORIENTED_EDGE('',*,*,#328,.F.);
#447=ORIENTED_EDGE('',*,*,#330,.F.);
#448=ORIENTED_EDGE('',*,*,#305,.F.);
#449=ORIENTED_EDGE('',*,*,#314,.F.);
#450=ORIENTED_EDGE('',*,*,#331,.F.);
#451=ORIENTED_EDGE('',*,*,#327,.F.);
#452=ORIENTED_EDGE('',*,*,#332,.F.);
#453=ORIENTED_EDGE('',*,*,#326,.F.);
#454=ORIENTED_EDGE('',*,*,#333,.F.);
#455=ORIENTED_EDGE('',*,*,#322,.F.);
#456=ORIENTED_EDGE('',*,*,#334,.F.);
#457=ORIENTED_EDGE('',*,*,#321,.F.);
#458=ORIENTED_EDGE('',*,*,#335,.F.);
#459=ORIENTED_EDGE('',*,*,#310,.F.);
#460=ORIENTED_EDGE('',*,*,#336,.F.);
#461=ORIENTED_EDGE('',*,*,#312,.T.);
#462=ORIENTED_EDGE('',*,*,#308,.F.);
#463=ORIENTED_EDGE('',*,*,#318,.F.);
#464=ORIENTED_EDGE('',*,*,#319,.T.);
#465=ORIENTED_EDGE('',*,*,#317,.T.);
#466=ORIENTED_EDGE('',*,*,#306,.F.);
#467=ORIENTED_EDGE('',*,*,#330,.T.);
#468=ORIENTED_EDGE('',*,*,#331,.T.);
#469=ORIENTED_EDGE('',*,*,#320,.T.);
#470=ORIENTED_EDGE('',*,*,#332,.T.);
#471=ORIENTED_EDGE('',*,*,#334,.T.);
#472=ORIENTED_EDGE('',*,*,#336,.T.);
#473=ORIENTED_EDGE('',*,*,#325,.T.);
#474=ORIENTED_EDGE('',*,*,#333,.T.);
#475=ORIENTED_EDGE('',*,*,#329,.T.);
#476=ORIENTED_EDGE('',*,*,#304,.F.);
#477=ORIENTED_EDGE('',*,*,#313,.F.);
#478=ORIENTED_EDGE('',*,*,#335,.T.);
#479=ORIENTED_EDGE('',*,*,#324,.T.);
#480=ORIENTED_EDGE('',*,*,#302,.F.);
#481=PLANE('',#544);
#482=PLANE('',#573);
#483=PLANE('',#574);
#484=PLANE('',#575);
#485=PLANE('',#576);
#486=PLANE('',#577);
#487=PLANE('',#578);
#488=PLANE('',#607);
#489=PLANE('',#608);
#490=PLANE('',#609);
#491=PLANE('',#610);
#492=PLANE('',#611);
#493=ADVANCED_FACE('',(#41),#481,.F.);
#494=ADVANCED_FACE('',(#42),#33,.T.);
#495=ADVANCED_FACE('',(#43),#17,.T.);
#496=ADVANCED_FACE('',(#44),#34,.T.);
#497=ADVANCED_FACE('',(#45),#18,.T.);
#498=ADVANCED_FACE('',(#46),#19,.T.);
#499=ADVANCED_FACE('',(#47),#35,.T.);
#500=ADVANCED_FACE('',(#48),#20,.T.);
#501=ADVANCED_FACE('',(#49),#36,.T.);
#502=ADVANCED_FACE('',(#50),#21,.T.);
#503=ADVANCED_FACE('',(#51),#22,.T.);
#504=ADVANCED_FACE('',(#52),#23,.T.);
#505=ADVANCED_FACE('',(#53),#24,.T.);
#506=ADVANCED_FACE('',(#54),#482,.T.);
#507=ADVANCED_FACE('',(#55),#483,.T.);
#508=ADVANCED_FACE('',(#56),#484,.T.);
#509=ADVANCED_FACE('',(#57),#485,.T.);
#510=ADVANCED_FACE('',(#58),#486,.T.);
#511=ADVANCED_FACE('',(#59),#487,.T.);
#512=ADVANCED_FACE('',(#60),#37,.T.);
#513=ADVANCED_FACE('',(#61),#25,.T.);
#514=ADVANCED_FACE('',(#62),#38,.T.);
#515=ADVANCED_FACE('',(#63),#26,.T.);
#516=ADVANCED_FACE('',(#64),#27,.T.);
#517=ADVANCED_FACE('',(#65),#39,.T.);
#518=ADVANCED_FACE('',(#66),#28,.T.);
#519=ADVANCED_FACE('',(#67),#40,.T.);
#520=ADVANCED_FACE('',(#68),#29,.T.);
#521=ADVANCED_FACE('',(#69),#30,.T.);
#522=ADVANCED_FACE('',(#70),#31,.T.);
#523=ADVANCED_FACE('',(#71),#32,.T.);
#524=ADVANCED_FACE('',(#72),#488,.F.);
#525=ADVANCED_FACE('',(#73),#489,.F.);
#526=ADVANCED_FACE('',(#74),#490,.F.);
#527=ADVANCED_FACE('',(#75),#491,.F.);
#528=ADVANCED_FACE('',(#76),#492,.F.);
#529=CLOSED_SHELL('',(#493,#494,#495,#496,#497,#498,#499,#500,#501,#502,
#503,#504,#505,#506,#507,#508,#509,#510));
#530=CLOSED_SHELL('',(#511,#512,#513,#514,#515,#516,#517,#518,#519,#520,
#521,#522,#523,#524,#525,#526,#527,#528));
#531=DERIVED_UNIT_ELEMENT(#533,1.);
#532=DERIVED_UNIT_ELEMENT(#944,-3.);
#533=(
MASS_UNIT()
NAMED_UNIT(*)
SI_UNIT(.KILO.,.GRAM.)
);
#534=DERIVED_UNIT((#531,#532));
#535=MEASURE_REPRESENTATION_ITEM('density measure',
POSITIVE_RATIO_MEASURE(1060.),#534);
#536=PROPERTY_DEFINITION_REPRESENTATION(#541,#538);
#537=PROPERTY_DEFINITION_REPRESENTATION(#542,#539);
#538=REPRESENTATION('material name',(#540),#941);
#539=REPRESENTATION('density',(#535),#941);
#540=DESCRIPTIVE_REPRESENTATION_ITEM('Plastique ABS','Plastique ABS');
#541=PROPERTY_DEFINITION('material property','material name',#951);
#542=PROPERTY_DEFINITION('material property','density of part',#951);
#543=AXIS2_PLACEMENT_3D('',#790,#612,#613);
#544=AXIS2_PLACEMENT_3D('',#791,#614,#615);
#545=AXIS2_PLACEMENT_3D('',#794,#616,#617);
#546=AXIS2_PLACEMENT_3D('',#798,#619,#620);
#547=AXIS2_PLACEMENT_3D('',#802,#622,#623);
#548=AXIS2_PLACEMENT_3D('',#806,#625,#626);
#549=AXIS2_PLACEMENT_3D('',#808,#628,#629);
#550=AXIS2_PLACEMENT_3D('',#811,#630,#631);
#551=AXIS2_PLACEMENT_3D('',#813,#632,#633);
#552=AXIS2_PLACEMENT_3D('',#814,#634,#635);
#553=AXIS2_PLACEMENT_3D('',#815,#636,#637);
#554=AXIS2_PLACEMENT_3D('',#818,#640,#641);
#555=AXIS2_PLACEMENT_3D('',#821,#642,#643);
#556=AXIS2_PLACEMENT_3D('',#823,#644,#645);
#557=AXIS2_PLACEMENT_3D('',#824,#646,#647);
#558=AXIS2_PLACEMENT_3D('',#825,#648,#649);
#559=AXIS2_PLACEMENT_3D('',#828,#652,#653);
#560=AXIS2_PLACEMENT_3D('',#831,#656,#657);
#561=AXIS2_PLACEMENT_3D('',#834,#658,#659);
#562=AXIS2_PLACEMENT_3D('',#836,#660,#661);
#563=AXIS2_PLACEMENT_3D('',#837,#662,#663);
#564=AXIS2_PLACEMENT_3D('',#838,#664,#665);
#565=AXIS2_PLACEMENT_3D('',#841,#668,#669);
#566=AXIS2_PLACEMENT_3D('',#844,#670,#671);
#567=AXIS2_PLACEMENT_3D('',#846,#672,#673);
#568=AXIS2_PLACEMENT_3D('',#847,#674,#675);
#569=AXIS2_PLACEMENT_3D('',#848,#676,#677);
#570=AXIS2_PLACEMENT_3D('',#851,#680,#681);
#571=AXIS2_PLACEMENT_3D('',#854,#684,#685);
#572=AXIS2_PLACEMENT_3D('',#857,#688,#689);
#573=AXIS2_PLACEMENT_3D('',#860,#692,#693);
#574=AXIS2_PLACEMENT_3D('',#861,#694,#695);
#575=AXIS2_PLACEMENT_3D('',#862,#696,#697);
#576=AXIS2_PLACEMENT_3D('',#863,#698,#699);
#577=AXIS2_PLACEMENT_3D('',#864,#700,#701);
#578=AXIS2_PLACEMENT_3D('',#865,#702,#703);
#579=AXIS2_PLACEMENT_3D('',#868,#704,#705);
#580=AXIS2_PLACEMENT_3D('',#872,#707,#708);
#581=AXIS2_PLACEMENT_3D('',#876,#710,#711);
#582=AXIS2_PLACEMENT_3D('',#880,#713,#714);
#583=AXIS2_PLACEMENT_3D('',#882,#716,#717);
#584=AXIS2_PLACEMENT_3D('',#885,#718,#719);
#585=AXIS2_PLACEMENT_3D('',#887,#720,#721);
#586=AXIS2_PLACEMENT_3D('',#888,#722,#723);
#587=AXIS2_PLACEMENT_3D('',#889,#724,#725);
#588=AXIS2_PLACEMENT_3D('',#892,#728,#729);
#589=AXIS2_PLACEMENT_3D('',#895,#730,#731);
#590=AXIS2_PLACEMENT_3D('',#897,#732,#733);
#591=AXIS2_PLACEMENT_3D('',#898,#734,#735);
#592=AXIS2_PLACEMENT_3D('',#899,#736,#737);
#593=AXIS2_PLACEMENT_3D('',#902,#740,#741);
#594=AXIS2_PLACEMENT_3D('',#905,#744,#745);
#595=AXIS2_PLACEMENT_3D('',#908,#746,#747);
#596=AXIS2_PLACEMENT_3D('',#910,#748,#749);
#597=AXIS2_PLACEMENT_3D('',#911,#750,#751);
#598=AXIS2_PLACEMENT_3D('',#912,#752,#753);
#599=AXIS2_PLACEMENT_3D('',#915,#756,#757);
#600=AXIS2_PLACEMENT_3D('',#918,#758,#759);
#601=AXIS2_PLACEMENT_3D('',#920,#760,#761);
#602=AXIS2_PLACEMENT_3D('',#921,#762,#763);
#603=AXIS2_PLACEMENT_3D('',#922,#764,#765);
#604=AXIS2_PLACEMENT_3D('',#925,#768,#769);
#605=AXIS2_PLACEMENT_3D('',#928,#772,#773);
#606=AXIS2_PLACEMENT_3D('',#931,#776,#777);
#607=AXIS2_PLACEMENT_3D('',#934,#780,#781);
#608=AXIS2_PLACEMENT_3D('',#935,#782,#783);
#609=AXIS2_PLACEMENT_3D('',#936,#784,#785);
#610=AXIS2_PLACEMENT_3D('',#937,#786,#787);
#611=AXIS2_PLACEMENT_3D('',#938,#788,#789);
#612=DIRECTION('axis',(0.,0.,1.));
#613=DIRECTION('refdir',(1.,0.,0.));
#614=DIRECTION('center_axis',(0.,0.,1.));
#615=DIRECTION('ref_axis',(1.,0.,0.));
#616=DIRECTION('center_axis',(0.,0.,-1.));
#617=DIRECTION('ref_axis',(-0.707106781186548,0.707106781186547,0.));
#618=DIRECTION('',(1.,-3.46944695195361E-17,0.));
#619=DIRECTION('center_axis',(0.,0.,-1.));
#620=DIRECTION('ref_axis',(0.707106781186548,0.707106781186548,0.));
#621=DIRECTION('',(1.48029736616688E-15,-1.,0.));
#622=DIRECTION('center_axis',(0.,0.,-1.));
#623=DIRECTION('ref_axis',(0.707106781186548,-0.707106781186547,0.));
#624=DIRECTION('',(-1.,0.,0.));
#625=DIRECTION('center_axis',(0.,0.,-1.));
#626=DIRECTION('ref_axis',(-0.707106781186548,-0.707106781186547,0.));
#627=DIRECTION('',(-3.70074341541719E-16,1.,0.));
#628=DIRECTION('center_axis',(-0.408248290463863,0.408248290463863,-0.816496580927726));
#629=DIRECTION('ref_axis',(-0.577350269189626,0.577350269189626,0.577350269189626));
#630=DIRECTION('center_axis',(-1.,0.,0.));
#631=DIRECTION('ref_axis',(0.,1.,0.));
#632=DIRECTION('center_axis',(0.,0.,1.));
#633=DIRECTION('ref_axis',(-1.,-2.77555756156289E-16,0.));
#634=DIRECTION('center_axis',(-5.55111512312578E-16,1.,0.));
#635=DIRECTION('ref_axis',(0.,0.,1.));
#636=DIRECTION('center_axis',(0.,0.,1.));
#637=DIRECTION('ref_axis',(-0.707106781186548,0.707106781186547,0.));
#638=DIRECTION('',(0.,0.,1.));
#639=DIRECTION('',(0.,0.,-1.));
#640=DIRECTION('center_axis',(0.408248290463863,0.408248290463861,-0.816496580927727));
#641=DIRECTION('ref_axis',(0.577350269189628,0.577350269189625,0.577350269189625));
#642=DIRECTION('center_axis',(-1.38777878078144E-15,1.,5.55111512312578E-16));
#643=DIRECTION('ref_axis',(1.,1.38777878078144E-15,0.));
#644=DIRECTION('center_axis',(0.,0.,1.));
#645=DIRECTION('ref_axis',(0.,1.,0.));
#646=DIRECTION('center_axis',(1.,2.22044604925031E-15,0.));
#647=DIRECTION('ref_axis',(0.,0.,1.));
#648=DIRECTION('center_axis',(0.,0.,1.));
#649=DIRECTION('ref_axis',(0.707106781186548,0.707106781186548,0.));
#650=DIRECTION('',(0.,0.,1.));
#651=DIRECTION('',(0.,0.,-1.));
#652=DIRECTION('center_axis',(-1.,3.46944695195361E-17,0.));
#653=DIRECTION('ref_axis',(0.,0.707106781186548,0.707106781186548));
#654=DIRECTION('',(1.,-3.46944695195361E-17,0.));
#655=DIRECTION('',(-1.,3.46944695195361E-17,0.));
#656=DIRECTION('center_axis',(-0.408248290463863,-0.408248290463863,-0.816496580927726));
#657=DIRECTION('ref_axis',(-0.577350269189626,-0.577350269189626,0.577350269189626));
#658=DIRECTION('center_axis',(2.77555756156289E-16,-1.,5.55111512312578E-16));
#659=DIRECTION('ref_axis',(-1.,-2.77555756156289E-16,0.));
#660=DIRECTION('center_axis',(0.,0.,1.));
#661=DIRECTION('ref_axis',(0.,-1.,0.));
#662=DIRECTION('center_axis',(-1.,-2.22044604925031E-15,0.));
#663=DIRECTION('ref_axis',(0.,0.,1.));
#664=DIRECTION('center_axis',(0.,0.,1.));
#665=DIRECTION('ref_axis',(-0.707106781186548,-0.707106781186547,0.));
#666=DIRECTION('',(0.,0.,1.));
#667=DIRECTION('',(0.,0.,-1.));
#668=DIRECTION('center_axis',(0.408248290463863,-0.408248290463863,-0.816496580927726));
#669=DIRECTION('ref_axis',(0.577350269189626,-0.577350269189626,0.577350269189626));
#670=DIRECTION('center_axis',(1.,0.,0.));
#671=DIRECTION('ref_axis',(0.,-1.,0.));
#672=DIRECTION('center_axis',(0.,0.,1.));
#673=DIRECTION('ref_axis',(1.,1.38777878078144E-15,0.));
#674=DIRECTION('center_axis',(1.66533453693773E-15,-1.,0.));
#675=DIRECTION('ref_axis',(0.,0.,1.));
#676=DIRECTION('center_axis',(0.,0.,1.));
#677=DIRECTION('ref_axis',(0.707106781186548,-0.707106781186547,0.));
#678=DIRECTION('',(0.,0.,1.));
#679=DIRECTION('',(0.,0.,-1.));
#680=DIRECTION('center_axis',(-1.48029736616688E-15,1.,0.));
#681=DIRECTION('ref_axis',(0.707106781186548,1.17756934401283E-15,0.707106781186547));
#682=DIRECTION('',(1.48029736616688E-15,-1.,0.));
#683=DIRECTION('',(-1.48029736616688E-15,1.,0.));
#684=DIRECTION('center_axis',(1.,0.,0.));
#685=DIRECTION('ref_axis',(0.,-0.707106781186548,0.707106781186547));
#686=DIRECTION('',(-1.,0.,0.));
#687=DIRECTION('',(1.,0.,0.));
#688=DIRECTION('center_axis',(3.70074341541719E-16,-1.,0.));
#689=DIRECTION('ref_axis',(-0.707106781186548,-3.92523114670944E-16,0.707106781186547));
#690=DIRECTION('',(-3.70074341541719E-16,1.,0.));
#691=DIRECTION('',(3.70074341541719E-16,-1.,0.));
#692=DIRECTION('center_axis',(3.46944695195361E-17,1.,0.));
#693=DIRECTION('ref_axis',(-1.,3.46944695195361E-17,0.));
#694=DIRECTION('center_axis',(1.,1.48029736616688E-15,0.));
#695=DIRECTION('ref_axis',(-1.48029736616688E-15,1.,0.));
#696=DIRECTION('center_axis',(0.,0.,1.));
#697=DIRECTION('ref_axis',(1.,0.,0.));
#698=DIRECTION('center_axis',(0.,-1.,0.));
#699=DIRECTION('ref_axis',(1.,0.,0.));
#700=DIRECTION('center_axis',(-1.,-3.70074341541719E-16,0.));
#701=DIRECTION('ref_axis',(3.70074341541719E-16,-1.,0.));
#702=DIRECTION('center_axis',(0.,0.,1.));
#703=DIRECTION('ref_axis',(1.,0.,0.));
#704=DIRECTION('center_axis',(0.,0.,1.));
#705=DIRECTION('ref_axis',(-0.707106781186548,0.707106781186547,0.));
#706=DIRECTION('',(3.70074341541719E-16,-1.,0.));
#707=DIRECTION('center_axis',(0.,0.,1.));
#708=DIRECTION('ref_axis',(-0.707106781186548,-0.707106781186547,0.));
#709=DIRECTION('',(1.,0.,0.));
#710=DIRECTION('center_axis',(0.,0.,1.));
#711=DIRECTION('ref_axis',(0.707106781186548,-0.707106781186547,0.));
#712=DIRECTION('',(-1.48029736616688E-15,1.,0.));
#713=DIRECTION('center_axis',(0.,0.,1.));
#714=DIRECTION('ref_axis',(0.707106781186548,0.707106781186548,0.));
#715=DIRECTION('',(-1.,3.46944695195361E-17,0.));
#716=DIRECTION('center_axis',(-0.408248290463863,0.408248290463863,0.816496580927726));
#717=DIRECTION('ref_axis',(-0.577350269189626,0.577350269189626,-0.577350269189626));
#718=DIRECTION('center_axis',(1.,0.,0.));
#719=DIRECTION('ref_axis',(0.,1.,0.));
#720=DIRECTION('center_axis',(5.55111512312578E-16,-1.,0.));
#721=DIRECTION('ref_axis',(0.,0.,-1.));
#722=DIRECTION('center_axis',(0.,0.,1.));
#723=DIRECTION('ref_axis',(-1.,-2.77555756156289E-16,0.));
#724=DIRECTION('center_axis',(0.,0.,1.));
#725=DIRECTION('ref_axis',(-0.707106781186548,0.707106781186547,0.));
#726=DIRECTION('',(0.,0.,1.));
#727=DIRECTION('',(0.,0.,1.));
#728=DIRECTION('center_axis',(0.408248290463863,0.408248290463861,0.816496580927727));
#729=DIRECTION('ref_axis',(0.577350269189628,0.577350269189625,-0.577350269189625));
#730=DIRECTION('center_axis',(1.38777878078144E-15,-1.,5.55111512312578E-16));
#731=DIRECTION('ref_axis',(1.,1.38777878078144E-15,0.));
#732=DIRECTION('center_axis',(-1.,-2.22044604925031E-15,0.));
#733=DIRECTION('ref_axis',(0.,0.,-1.));
#734=DIRECTION('center_axis',(0.,0.,1.));
#735=DIRECTION('ref_axis',(0.,1.,0.));
#736=DIRECTION('center_axis',(0.,0.,1.));
#737=DIRECTION('ref_axis',(0.707106781186548,0.707106781186548,0.));
#738=DIRECTION('',(0.,0.,1.));
#739=DIRECTION('',(0.,0.,1.));
#740=DIRECTION('center_axis',(1.,-3.46944695195361E-17,0.));
#741=DIRECTION('ref_axis',(0.,0.707106781186548,-0.707106781186548));
#742=DIRECTION('',(-1.,3.46944695195361E-17,0.));
#743=DIRECTION('',(1.,-3.46944695195361E-17,0.));
#744=DIRECTION('center_axis',(-0.408248290463863,-0.408248290463863,0.816496580927726));
#745=DIRECTION('ref_axis',(-0.577350269189626,-0.577350269189626,-0.577350269189626));
#746=DIRECTION('center_axis',(-2.77555756156289E-16,1.,5.55111512312578E-16));
#747=DIRECTION('ref_axis',(-1.,-2.77555756156289E-16,0.));
#748=DIRECTION('center_axis',(1.,2.22044604925031E-15,0.));
#749=DIRECTION('ref_axis',(0.,0.,-1.));
#750=DIRECTION('center_axis',(0.,0.,1.));
#751=DIRECTION('ref_axis',(0.,-1.,0.));
#752=DIRECTION('center_axis',(0.,0.,1.));
#753=DIRECTION('ref_axis',(-0.707106781186548,-0.707106781186547,0.));
#754=DIRECTION('',(0.,0.,1.));
#755=DIRECTION('',(0.,0.,-1.));
#756=DIRECTION('center_axis',(0.408248290463863,-0.408248290463863,0.816496580927726));
#757=DIRECTION('ref_axis',(0.577350269189626,-0.577350269189626,-0.577350269189626));
#758=DIRECTION('center_axis',(-1.,0.,0.));
#759=DIRECTION('ref_axis',(0.,-1.,0.));
#760=DIRECTION('center_axis',(-1.66533453693773E-15,1.,0.));
#761=DIRECTION('ref_axis',(0.,0.,-1.));
#762=DIRECTION('center_axis',(0.,0.,1.));
#763=DIRECTION('ref_axis',(1.,1.38777878078144E-15,0.));
#764=DIRECTION('center_axis',(0.,0.,1.));
#765=DIRECTION('ref_axis',(0.707106781186548,-0.707106781186547,0.));
#766=DIRECTION('',(0.,0.,1.));
#767=DIRECTION('',(0.,0.,-1.));
#768=DIRECTION('center_axis',(1.48029736616688E-15,-1.,0.));
#769=DIRECTION('ref_axis',(0.707106781186548,1.17756934401283E-15,-0.707106781186547));
#770=DIRECTION('',(-1.48029736616688E-15,1.,0.));
#771=DIRECTION('',(1.48029736616688E-15,-1.,0.));
#772=DIRECTION('center_axis',(-1.,0.,0.));
#773=DIRECTION('ref_axis',(0.,-0.707106781186548,-0.707106781186547));
#774=DIRECTION('',(1.,0.,0.));
#775=DIRECTION('',(-1.,0.,0.));
#776=DIRECTION('center_axis',(-3.70074341541719E-16,1.,0.));
#777=DIRECTION('ref_axis',(-0.707106781186548,-3.92523114670944E-16,-0.707106781186547));
#778=DIRECTION('',(3.70074341541719E-16,-1.,0.));
#779=DIRECTION('',(-3.70074341541719E-16,1.,0.));
#780=DIRECTION('center_axis',(-3.46944695195361E-17,-1.,0.));
#781=DIRECTION('ref_axis',(-1.,3.46944695195361E-17,0.));
#782=DIRECTION('center_axis',(-1.,-1.48029736616688E-15,0.));
#783=DIRECTION('ref_axis',(-1.48029736616688E-15,1.,0.));
#784=DIRECTION('center_axis',(0.,0.,1.));
#785=DIRECTION('ref_axis',(1.,0.,0.));
#786=DIRECTION('center_axis',(0.,1.,0.));
#787=DIRECTION('ref_axis',(1.,0.,0.));
#788=DIRECTION('center_axis',(1.,3.70074341541719E-16,0.));
#789=DIRECTION('ref_axis',(3.70074341541719E-16,-1.,0.));
#790=CARTESIAN_POINT('',(0.,0.,0.));
#791=CARTESIAN_POINT('Origin',(0.,0.,-0.5));
#792=CARTESIAN_POINT('',(-8.,1.,-0.5));
#793=CARTESIAN_POINT('',(-7.5,1.5,-0.5));
#794=CARTESIAN_POINT('Origin',(-7.5,1.,-0.5));
#795=CARTESIAN_POINT('',(7.5,1.5,-0.5));
#796=CARTESIAN_POINT('',(-8.,1.5,-0.5));
#797=CARTESIAN_POINT('',(8.,1.,-0.5));
#798=CARTESIAN_POINT('Origin',(7.5,1.,-0.5));
#799=CARTESIAN_POINT('',(8.,-0.999999999999999,-0.5));
#800=CARTESIAN_POINT('',(8.,1.5,-0.5));
#801=CARTESIAN_POINT('',(7.5,-1.5,-0.5));
#802=CARTESIAN_POINT('Origin',(7.5,-1.,-0.5));
#803=CARTESIAN_POINT('',(-7.5,-1.5,-0.5));
#804=CARTESIAN_POINT('',(8.,-1.5,-0.5));
#805=CARTESIAN_POINT('',(-8.,-1.,-0.5));
#806=CARTESIAN_POINT('Origin',(-7.5,-1.,-0.5));
#807=CARTESIAN_POINT('',(-8.,-1.5,-0.5));
#808=CARTESIAN_POINT('Origin',(-7.5,1.,1.5));
#809=CARTESIAN_POINT('',(-7.5,1.5,1.5));
#810=CARTESIAN_POINT('',(-7.5,1.,2.));
#811=CARTESIAN_POINT('Origin',(-7.5,1.,1.5));
#812=CARTESIAN_POINT('',(-8.,1.,1.5));
#813=CARTESIAN_POINT('Origin',(-7.5,1.,1.5));
#814=CARTESIAN_POINT('Origin',(-7.5,1.,1.5));
#815=CARTESIAN_POINT('Origin',(-7.5,1.,0.));
#816=CARTESIAN_POINT('',(-8.,1.,0.));
#817=CARTESIAN_POINT('',(-7.5,1.5,0.));
#818=CARTESIAN_POINT('Origin',(7.5,1.,1.5));
#819=CARTESIAN_POINT('',(8.,1.,1.5));
#820=CARTESIAN_POINT('',(7.5,1.,2.));
#821=CARTESIAN_POINT('Origin',(7.5,1.,1.5));
#822=CARTESIAN_POINT('',(7.5,1.5,1.5));
#823=CARTESIAN_POINT('Origin',(7.5,1.,1.5));
#824=CARTESIAN_POINT('Origin',(7.5,1.,1.5));
#825=CARTESIAN_POINT('Origin',(7.5,1.,0.));
#826=CARTESIAN_POINT('',(7.5,1.5,0.));
#827=CARTESIAN_POINT('',(8.,1.,0.));
#828=CARTESIAN_POINT('Origin',(4.,1.,1.5));
#829=CARTESIAN_POINT('',(4.,1.,2.));
#830=CARTESIAN_POINT('',(4.,1.5,1.5));
#831=CARTESIAN_POINT('Origin',(-7.5,-1.,1.5));
#832=CARTESIAN_POINT('',(-8.,-1.,1.5));
#833=CARTESIAN_POINT('',(-7.5,-1.,2.));
#834=CARTESIAN_POINT('Origin',(-7.5,-1.,1.5));
#835=CARTESIAN_POINT('',(-7.5,-1.5,1.5));
#836=CARTESIAN_POINT('Origin',(-7.5,-1.,1.5));
#837=CARTESIAN_POINT('Origin',(-7.5,-1.,1.5));
#838=CARTESIAN_POINT('Origin',(-7.5,-1.,0.));
#839=CARTESIAN_POINT('',(-7.5,-1.5,0.));
#840=CARTESIAN_POINT('',(-8.,-1.,0.));
#841=CARTESIAN_POINT('Origin',(7.5,-1.,1.5));
#842=CARTESIAN_POINT('',(7.5,-1.5,1.5));
#843=CARTESIAN_POINT('',(7.5,-1.,2.));
#844=CARTESIAN_POINT('Origin',(7.5,-1.,1.5));
#845=CARTESIAN_POINT('',(8.,-0.999999999999999,1.5));
#846=CARTESIAN_POINT('Origin',(7.5,-1.,1.5));
#847=CARTESIAN_POINT('Origin',(7.5,-1.,1.5));
#848=CARTESIAN_POINT('Origin',(7.5,-1.,0.));
#849=CARTESIAN_POINT('',(8.,-0.999999999999999,0.));
#850=CARTESIAN_POINT('',(7.5,-1.5,0.));
#851=CARTESIAN_POINT('Origin',(7.5,-0.749999999999995,1.5));
#852=CARTESIAN_POINT('',(7.5,-0.749999999999995,2.));
#853=CARTESIAN_POINT('',(8.,-0.749999999999994,1.5));
#854=CARTESIAN_POINT('Origin',(-4.,-1.,1.5));
#855=CARTESIAN_POINT('',(-4.,-1.,2.));
#856=CARTESIAN_POINT('',(-4.,-1.5,1.5));
#857=CARTESIAN_POINT('Origin',(-7.5,0.749999999999999,1.5));
#858=CARTESIAN_POINT('',(-7.5,0.749999999999999,2.));
#859=CARTESIAN_POINT('',(-8.,0.749999999999999,1.5));
#860=CARTESIAN_POINT('Origin',(8.,1.5,0.));
#861=CARTESIAN_POINT('Origin',(8.,-1.5,0.));
#862=CARTESIAN_POINT('Origin',(0.,0.,2.));
#863=CARTESIAN_POINT('Origin',(-8.,-1.5,0.));
#864=CARTESIAN_POINT('Origin',(-8.,1.5,0.));
#865=CARTESIAN_POINT('Origin',(0.,0.,-1.1));
#866=CARTESIAN_POINT('',(-7.5,1.5,-1.1));
#867=CARTESIAN_POINT('',(-8.,1.,-1.1));
#868=CARTESIAN_POINT('Origin',(-7.5,1.,-1.1));
#869=CARTESIAN_POINT('',(-8.,-1.,-1.1));
#870=CARTESIAN_POINT('',(-8.,-1.5,-1.1));
#871=CARTESIAN_POINT('',(-7.5,-1.5,-1.1));
#872=CARTESIAN_POINT('Origin',(-7.5,-1.,-1.1));
#873=CARTESIAN_POINT('',(7.5,-1.5,-1.1));
#874=CARTESIAN_POINT('',(8.,-1.5,-1.1));
#875=CARTESIAN_POINT('',(8.,-0.999999999999999,-1.1));
#876=CARTESIAN_POINT('Origin',(7.5,-1.,-1.1));
#877=CARTESIAN_POINT('',(8.,1.,-1.1));
#878=CARTESIAN_POINT('',(8.,1.5,-1.1));
#879=CARTESIAN_POINT('',(7.5,1.5,-1.1));
#880=CARTESIAN_POINT('Origin',(7.5,1.,-1.1));
#881=CARTESIAN_POINT('',(-8.,1.5,-1.1));
#882=CARTESIAN_POINT('Origin',(-7.5,1.,-3.1));
#883=CARTESIAN_POINT('',(-7.5,1.5,-3.1));
#884=CARTESIAN_POINT('',(-7.5,1.,-3.6));
#885=CARTESIAN_POINT('Origin',(-7.5,1.,-3.1));
#886=CARTESIAN_POINT('',(-8.,1.,-3.1));
#887=CARTESIAN_POINT('Origin',(-7.5,1.,-3.1));
#888=CARTESIAN_POINT('Origin',(-7.5,1.,-3.1));
#889=CARTESIAN_POINT('Origin',(-7.5,1.,-1.6));
#890=CARTESIAN_POINT('',(-7.5,1.5,-1.6));
#891=CARTESIAN_POINT('',(-8.,1.,-1.6));
#892=CARTESIAN_POINT('Origin',(7.5,1.,-3.1));
#893=CARTESIAN_POINT('',(8.,1.,-3.1));
#894=CARTESIAN_POINT('',(7.5,1.,-3.6));
#895=CARTESIAN_POINT('Origin',(7.5,1.,-3.1));
#896=CARTESIAN_POINT('',(7.5,1.5,-3.1));
#897=CARTESIAN_POINT('Origin',(7.5,1.,-3.1));
#898=CARTESIAN_POINT('Origin',(7.5,1.,-3.1));
#899=CARTESIAN_POINT('Origin',(7.5,1.,-1.6));
#900=CARTESIAN_POINT('',(8.,1.,-1.6));
#901=CARTESIAN_POINT('',(7.5,1.5,-1.6));
#902=CARTESIAN_POINT('Origin',(4.,1.,-3.1));
#903=CARTESIAN_POINT('',(4.,1.5,-3.1));
#904=CARTESIAN_POINT('',(4.,1.,-3.6));
#905=CARTESIAN_POINT('Origin',(-7.5,-1.,-3.1));
#906=CARTESIAN_POINT('',(-8.,-1.,-3.1));
#907=CARTESIAN_POINT('',(-7.5,-1.,-3.6));
#908=CARTESIAN_POINT('Origin',(-7.5,-1.,-3.1));
#909=CARTESIAN_POINT('',(-7.5,-1.5,-3.1));
#910=CARTESIAN_POINT('Origin',(-7.5,-1.,-3.1));
#911=CARTESIAN_POINT('Origin',(-7.5,-1.,-3.1));
#912=CARTESIAN_POINT('Origin',(-7.5,-1.,-1.6));
#913=CARTESIAN_POINT('',(-8.,-1.,-1.6));
#914=CARTESIAN_POINT('',(-7.5,-1.5,-1.6));
#915=CARTESIAN_POINT('Origin',(7.5,-1.,-3.1));
#916=CARTESIAN_POINT('',(7.5,-1.5,-3.1));
#917=CARTESIAN_POINT('',(7.5,-1.,-3.6));
#918=CARTESIAN_POINT('Origin',(7.5,-1.,-3.1));
#919=CARTESIAN_POINT('',(8.,-0.999999999999999,-3.1));
#920=CARTESIAN_POINT('Origin',(7.5,-1.,-3.1));
#921=CARTESIAN_POINT('Origin',(7.5,-1.,-3.1));
#922=CARTESIAN_POINT('Origin',(7.5,-1.,-1.6));
#923=CARTESIAN_POINT('',(7.5,-1.5,-1.6));
#924=CARTESIAN_POINT('',(8.,-0.999999999999999,-1.6));
#925=CARTESIAN_POINT('Origin',(7.5,-0.749999999999995,-3.1));
#926=CARTESIAN_POINT('',(8.,-0.749999999999994,-3.1));
#927=CARTESIAN_POINT('',(7.5,-0.749999999999995,-3.6));
#928=CARTESIAN_POINT('Origin',(-4.,-1.,-3.1));
#929=CARTESIAN_POINT('',(-4.,-1.5,-3.1));
#930=CARTESIAN_POINT('',(-4.,-1.,-3.6));
#931=CARTESIAN_POINT('Origin',(-7.5,0.749999999999999,-3.1));
#932=CARTESIAN_POINT('',(-8.,0.749999999999999,-3.1));
#933=CARTESIAN_POINT('',(-7.5,0.749999999999999,-3.6));
#934=CARTESIAN_POINT('Origin',(8.,1.5,-1.6));
#935=CARTESIAN_POINT('Origin',(8.,-1.5,-1.6));
#936=CARTESIAN_POINT('Origin',(0.,0.,-3.6));
#937=CARTESIAN_POINT('Origin',(-8.,-1.5,-1.6));
#938=CARTESIAN_POINT('Origin',(-8.,1.5,-1.6));
#939=UNCERTAINTY_MEASURE_WITH_UNIT(LENGTH_MEASURE(0.01),#943,
'DISTANCE_ACCURACY_VALUE',
'Maximum model space distance between geometric entities at asserted c
onnectivities');
#940=UNCERTAINTY_MEASURE_WITH_UNIT(LENGTH_MEASURE(0.01),#943,
'DISTANCE_ACCURACY_VALUE',
'Maximum model space distance between geometric entities at asserted c
onnectivities');
#941=(
GEOMETRIC_REPRESENTATION_CONTEXT(3)
GLOBAL_UNCERTAINTY_ASSIGNED_CONTEXT((#939))
GLOBAL_UNIT_ASSIGNED_CONTEXT((#943,#945,#946))
REPRESENTATION_CONTEXT('','3D')
);
#942=(
GEOMETRIC_REPRESENTATION_CONTEXT(3)
GLOBAL_UNCERTAINTY_ASSIGNED_CONTEXT((#940))
GLOBAL_UNIT_ASSIGNED_CONTEXT((#943,#945,#946))
REPRESENTATION_CONTEXT('','3D')
);
#943=(
LENGTH_UNIT()
NAMED_UNIT(*)
SI_UNIT(.MILLI.,.METRE.)
);
#944=(
LENGTH_UNIT()
NAMED_UNIT(*)
SI_UNIT($,.METRE.)
);
#945=(
NAMED_UNIT(*)
PLANE_ANGLE_UNIT()
SI_UNIT($,.RADIAN.)
);
#946=(
NAMED_UNIT(*)
SI_UNIT($,.STERADIAN.)
SOLID_ANGLE_UNIT()
);
#947=SHAPE_DEFINITION_REPRESENTATION(#948,#949);
#948=PRODUCT_DEFINITION_SHAPE('',$,#951);
#949=SHAPE_REPRESENTATION('',(#543),#941);
#950=PRODUCT_DEFINITION_CONTEXT('part definition',#955,'design');
#951=PRODUCT_DEFINITION('ThumbSolo-attache','ThumbSolo-attache v2',#952,
#950);
#952=PRODUCT_DEFINITION_FORMATION('',$,#957);
#953=PRODUCT_RELATED_PRODUCT_CATEGORY('ThumbSolo-attache v2',
'ThumbSolo-attache v2',(#957));
#954=APPLICATION_PROTOCOL_DEFINITION('international standard',
'automotive_design',2009,#955);
#955=APPLICATION_CONTEXT(
'Core Data for Automotive Mechanical Design Process');
#956=PRODUCT_CONTEXT('part definition',#955,'mechanical');
#957=PRODUCT('ThumbSolo-attache','ThumbSolo-attache v2',$,(#956));
#958=PRESENTATION_STYLE_ASSIGNMENT((#960));
#959=PRESENTATION_STYLE_ASSIGNMENT((#961));
#960=SURFACE_STYLE_USAGE(.BOTH.,#962);
#961=SURFACE_STYLE_USAGE(.BOTH.,#963);
#962=SURFACE_SIDE_STYLE('',(#964));
#963=SURFACE_SIDE_STYLE('',(#965));
#964=SURFACE_STYLE_FILL_AREA(#966);
#965=SURFACE_STYLE_FILL_AREA(#967);
#966=FILL_AREA_STYLE('ABS (blanc)',(#968));
#967=FILL_AREA_STYLE('ABS (blanc)',(#969));
#968=FILL_AREA_STYLE_COLOUR('ABS (blanc)',#970);
#969=FILL_AREA_STYLE_COLOUR('ABS (blanc)',#971);
#970=COLOUR_RGB('ABS (blanc)',0.964705882352941,0.964705882352941,0.952941176470588);
#971=COLOUR_RGB('ABS (blanc)',0.407843137254902,0.215686274509804,0.690196078431373);
ENDSEC;
END-ISO-10303-21;
