ISO-10303-21;
HEADER;
/* Generated by software containing ST-Developer
 * from STEP Tools, Inc. (www.steptools.com) 
 */

FILE_DESCRIPTION(
/* description */ ('STEP AP214'),
/* implementation_level */ '2;1');

FILE_NAME(
/* name */ 'TRRS-PJ320A-FINAL.step',
/* time_stamp */ '2025-09-01T16:46:12+02:00',
/* author */ (''),
/* organization */ (''),
/* preprocessor_version */ 'ST-DEVELOPER v20.1',
/* originating_system */ 'Autodesk Translation Framework v14.10.0.0',
/* authorisation */ '');

FILE_SCHEMA (('AUTOMOTIVE_DESIGN { 1 0 10303 214 3 1 1 }'));
ENDSEC;

DATA;
#10=MECHANICAL_DESIGN_GEOMETRIC_PRESENTATION_REPRESENTATION('',(#14,#15),
#563);
#11=SHAPE_REPRESENTATION_RELATIONSHIP('SRR','None',#570,#12);
#12=ADVANCED_BREP_SHAPE_REPRESENTATION('',(#13),#562);
#13=MANIFOLD_SOLID_BREP('Corps1',#293);
#14=STYLED_ITEM('',(#580),#286);
#15=STYLED_ITEM('',(#580),#13);
#16=FACE_BOUND('',#105,.T.);
#17=FACE_BOUND('',#106,.T.);
#18=PLANE('',#313);
#19=PLANE('',#320);
#20=PLANE('',#321);
#21=PLANE('',#323);
#22=PLANE('',#326);
#23=PLANE('',#327);
#24=PLANE('',#332);
#25=PLANE('',#333);
#26=PLANE('',#334);
#27=PLANE('',#335);
#28=PLANE('',#336);
#29=PLANE('',#337);
#30=LINE('',#462,#53);
#31=LINE('',#501,#54);
#32=LINE('',#507,#55);
#33=LINE('',#512,#56);
#34=LINE('',#518,#57);
#35=LINE('',#519,#58);
#36=LINE('',#522,#59);
#37=LINE('',#524,#60);
#38=LINE('',#525,#61);
#39=LINE('',#528,#62);
#40=LINE('',#530,#63);
#41=LINE('',#532,#64);
#42=LINE('',#533,#65);
#43=LINE('',#537,#66);
#44=LINE('',#539,#67);
#45=LINE('',#542,#68);
#46=LINE('',#544,#69);
#47=LINE('',#549,#70);
#48=LINE('',#550,#71);
#49=LINE('',#552,#72);
#50=LINE('',#555,#73);
#51=LINE('',#556,#74);
#52=LINE('',#558,#75);
#53=VECTOR('',#350,0.750000000000002);
#54=VECTOR('',#365,0.750000000000003);
#55=VECTOR('',#372,10.);
#56=VECTOR('',#377,10.);
#57=VECTOR('',#382,10.);
#58=VECTOR('',#383,10.);
#59=VECTOR('',#386,10.);
#60=VECTOR('',#387,10.);
#61=VECTOR('',#388,10.);
#62=VECTOR('',#391,10.);
#63=VECTOR('',#392,10.);
#64=VECTOR('',#393,10.);
#65=VECTOR('',#394,10.);
#66=VECTOR('',#399,4.5);
#67=VECTOR('',#400,10.);
#68=VECTOR('',#403,10.);
#69=VECTOR('',#404,10.);
#70=VECTOR('',#411,10.);
#71=VECTOR('',#412,10.);
#72=VECTOR('',#415,10.);
#73=VECTOR('',#418,10.);
#74=VECTOR('',#419,10.);
#75=VECTOR('',#422,10.);
#76=CYLINDRICAL_SURFACE('',#311,0.750000000000002);
#77=CYLINDRICAL_SURFACE('',#318,0.750000000000003);
#78=CYLINDRICAL_SURFACE('',#328,4.5);
#79=FACE_OUTER_BOUND('',#96,.T.);
#80=FACE_OUTER_BOUND('',#97,.T.);
#81=FACE_OUTER_BOUND('',#98,.T.);
#82=FACE_OUTER_BOUND('',#99,.T.);
#83=FACE_OUTER_BOUND('',#100,.T.);
#84=FACE_OUTER_BOUND('',#101,.T.);
#85=FACE_OUTER_BOUND('',#102,.T.);
#86=FACE_OUTER_BOUND('',#103,.T.);
#87=FACE_OUTER_BOUND('',#104,.T.);
#88=FACE_OUTER_BOUND('',#107,.T.);
#89=FACE_OUTER_BOUND('',#108,.T.);
#90=FACE_OUTER_BOUND('',#109,.T.);
#91=FACE_OUTER_BOUND('',#110,.T.);
#92=FACE_OUTER_BOUND('',#111,.T.);
#93=FACE_OUTER_BOUND('',#112,.T.);
#94=FACE_OUTER_BOUND('',#113,.T.);
#95=FACE_OUTER_BOUND('',#114,.T.);
#96=EDGE_LOOP('',(#196,#197,#198,#199,#200));
#97=EDGE_LOOP('',(#201,#202,#203,#204,#205));
#98=EDGE_LOOP('',(#206));
#99=EDGE_LOOP('',(#207,#208,#209,#210,#211));
#100=EDGE_LOOP('',(#212,#213,#214,#215,#216));
#101=EDGE_LOOP('',(#217));
#102=EDGE_LOOP('',(#218,#219));
#103=EDGE_LOOP('',(#220,#221,#222,#223,#224));
#104=EDGE_LOOP('',(#225,#226,#227,#228));
#105=EDGE_LOOP('',(#229));
#106=EDGE_LOOP('',(#230));
#107=EDGE_LOOP('',(#231,#232,#233,#234,#235,#236));
#108=EDGE_LOOP('',(#237,#238,#239,#240,#241,#242,#243,#244,#245,#246,#247,
#248));
#109=EDGE_LOOP('',(#249));
#110=EDGE_LOOP('',(#250,#251,#252));
#111=EDGE_LOOP('',(#253,#254,#255));
#112=EDGE_LOOP('',(#256,#257,#258,#259));
#113=EDGE_LOOP('',(#260,#261,#262,#263,#264,#265));
#114=EDGE_LOOP('',(#266,#267,#268,#269,#270,#271,#272,#273));
#115=CIRCLE('',#307,0.250000000000002);
#116=CIRCLE('',#308,0.5);
#117=CIRCLE('',#309,0.750000000000002);
#118=CIRCLE('',#310,0.750000000000002);
#119=CIRCLE('',#312,0.750000000000002);
#120=CIRCLE('',#314,0.250000000000003);
#121=CIRCLE('',#315,0.5);
#122=CIRCLE('',#316,0.750000000000003);
#123=CIRCLE('',#317,0.750000000000003);
#124=CIRCLE('',#319,0.750000000000003);
#125=CIRCLE('',#322,4.5);
#126=CIRCLE('',#324,4.5);
#127=CIRCLE('',#325,4.5);
#128=CIRCLE('',#329,4.5);
#129=CIRCLE('',#330,4.5);
#130=CIRCLE('',#331,4.5);
#131=VERTEX_POINT('',#453);
#132=VERTEX_POINT('',#455);
#133=VERTEX_POINT('',#457);
#134=VERTEX_POINT('',#461);
#135=VERTEX_POINT('',#492);
#136=VERTEX_POINT('',#494);
#137=VERTEX_POINT('',#496);
#138=VERTEX_POINT('',#500);
#139=VERTEX_POINT('',#505);
#140=VERTEX_POINT('',#506);
#141=VERTEX_POINT('',#510);
#142=VERTEX_POINT('',#511);
#143=VERTEX_POINT('',#513);
#144=VERTEX_POINT('',#515);
#145=VERTEX_POINT('',#517);
#146=VERTEX_POINT('',#521);
#147=VERTEX_POINT('',#523);
#148=VERTEX_POINT('',#527);
#149=VERTEX_POINT('',#529);
#150=VERTEX_POINT('',#531);
#151=VERTEX_POINT('',#535);
#152=VERTEX_POINT('',#538);
#153=VERTEX_POINT('',#540);
#154=VERTEX_POINT('',#543);
#155=VERTEX_POINT('',#548);
#156=VERTEX_POINT('',#554);
#157=EDGE_CURVE('',#131,#131,#115,.T.);
#158=EDGE_CURVE('',#131,#132,#116,.T.);
#159=EDGE_CURVE('',#132,#133,#117,.T.);
#160=EDGE_CURVE('',#133,#132,#118,.T.);
#161=EDGE_CURVE('',#133,#134,#30,.T.);
#162=EDGE_CURVE('',#134,#134,#119,.T.);
#163=EDGE_CURVE('',#135,#135,#120,.T.);
#164=EDGE_CURVE('',#135,#136,#121,.T.);
#165=EDGE_CURVE('',#136,#137,#122,.T.);
#166=EDGE_CURVE('',#137,#136,#123,.T.);
#167=EDGE_CURVE('',#137,#138,#31,.T.);
#168=EDGE_CURVE('',#138,#138,#124,.T.);
#169=EDGE_CURVE('',#139,#140,#32,.T.);
#170=EDGE_CURVE('',#139,#140,#125,.T.);
#171=EDGE_CURVE('',#141,#142,#33,.T.);
#172=EDGE_CURVE('',#141,#143,#126,.T.);
#173=EDGE_CURVE('',#143,#144,#127,.T.);
#174=EDGE_CURVE('',#145,#144,#34,.T.);
#175=EDGE_CURVE('',#142,#145,#35,.T.);
#176=EDGE_CURVE('',#146,#145,#36,.T.);
#177=EDGE_CURVE('',#147,#146,#37,.T.);
#178=EDGE_CURVE('',#142,#147,#38,.T.);
#179=EDGE_CURVE('',#144,#148,#39,.T.);
#180=EDGE_CURVE('',#148,#149,#40,.T.);
#181=EDGE_CURVE('',#149,#150,#41,.F.);
#182=EDGE_CURVE('',#146,#150,#42,.T.);
#183=EDGE_CURVE('',#151,#151,#128,.T.);
#184=EDGE_CURVE('',#151,#143,#43,.T.);
#185=EDGE_CURVE('',#152,#141,#44,.T.);
#186=EDGE_CURVE('',#153,#152,#129,.T.);
#187=EDGE_CURVE('',#140,#153,#45,.T.);
#188=EDGE_CURVE('',#154,#139,#46,.T.);
#189=EDGE_CURVE('',#148,#154,#130,.T.);
#190=EDGE_CURVE('',#152,#155,#47,.T.);
#191=EDGE_CURVE('',#155,#153,#48,.F.);
#192=EDGE_CURVE('',#154,#149,#49,.F.);
#193=EDGE_CURVE('',#150,#156,#50,.F.);
#194=EDGE_CURVE('',#147,#156,#51,.T.);
#195=EDGE_CURVE('',#156,#155,#52,.F.);
#196=ORIENTED_EDGE('',*,*,#157,.T.);
#197=ORIENTED_EDGE('',*,*,#158,.T.);
#198=ORIENTED_EDGE('',*,*,#159,.T.);
#199=ORIENTED_EDGE('',*,*,#160,.T.);
#200=ORIENTED_EDGE('',*,*,#158,.F.);
#201=ORIENTED_EDGE('',*,*,#160,.F.);
#202=ORIENTED_EDGE('',*,*,#161,.T.);
#203=ORIENTED_EDGE('',*,*,#162,.F.);
#204=ORIENTED_EDGE('',*,*,#161,.F.);
#205=ORIENTED_EDGE('',*,*,#159,.F.);
#206=ORIENTED_EDGE('',*,*,#157,.F.);
#207=ORIENTED_EDGE('',*,*,#163,.T.);
#208=ORIENTED_EDGE('',*,*,#164,.T.);
#209=ORIENTED_EDGE('',*,*,#165,.T.);
#210=ORIENTED_EDGE('',*,*,#166,.T.);
#211=ORIENTED_EDGE('',*,*,#164,.F.);
#212=ORIENTED_EDGE('',*,*,#166,.F.);
#213=ORIENTED_EDGE('',*,*,#167,.T.);
#214=ORIENTED_EDGE('',*,*,#168,.F.);
#215=ORIENTED_EDGE('',*,*,#167,.F.);
#216=ORIENTED_EDGE('',*,*,#165,.F.);
#217=ORIENTED_EDGE('',*,*,#163,.F.);
#218=ORIENTED_EDGE('',*,*,#169,.F.);
#219=ORIENTED_EDGE('',*,*,#170,.T.);
#220=ORIENTED_EDGE('',*,*,#171,.F.);
#221=ORIENTED_EDGE('',*,*,#172,.T.);
#222=ORIENTED_EDGE('',*,*,#173,.T.);
#223=ORIENTED_EDGE('',*,*,#174,.F.);
#224=ORIENTED_EDGE('',*,*,#175,.F.);
#225=ORIENTED_EDGE('',*,*,#175,.T.);
#226=ORIENTED_EDGE('',*,*,#176,.F.);
#227=ORIENTED_EDGE('',*,*,#177,.F.);
#228=ORIENTED_EDGE('',*,*,#178,.F.);
#229=ORIENTED_EDGE('',*,*,#162,.T.);
#230=ORIENTED_EDGE('',*,*,#168,.T.);
#231=ORIENTED_EDGE('',*,*,#174,.T.);
#232=ORIENTED_EDGE('',*,*,#179,.T.);
#233=ORIENTED_EDGE('',*,*,#180,.T.);
#234=ORIENTED_EDGE('',*,*,#181,.T.);
#235=ORIENTED_EDGE('',*,*,#182,.F.);
#236=ORIENTED_EDGE('',*,*,#176,.T.);
#237=ORIENTED_EDGE('',*,*,#183,.F.);
#238=ORIENTED_EDGE('',*,*,#184,.T.);
#239=ORIENTED_EDGE('',*,*,#172,.F.);
#240=ORIENTED_EDGE('',*,*,#185,.F.);
#241=ORIENTED_EDGE('',*,*,#186,.F.);
#242=ORIENTED_EDGE('',*,*,#187,.F.);
#243=ORIENTED_EDGE('',*,*,#170,.F.);
#244=ORIENTED_EDGE('',*,*,#188,.F.);
#245=ORIENTED_EDGE('',*,*,#189,.F.);
#246=ORIENTED_EDGE('',*,*,#179,.F.);
#247=ORIENTED_EDGE('',*,*,#173,.F.);
#248=ORIENTED_EDGE('',*,*,#184,.F.);
#249=ORIENTED_EDGE('',*,*,#183,.T.);
#250=ORIENTED_EDGE('',*,*,#186,.T.);
#251=ORIENTED_EDGE('',*,*,#190,.T.);
#252=ORIENTED_EDGE('',*,*,#191,.T.);
#253=ORIENTED_EDGE('',*,*,#189,.T.);
#254=ORIENTED_EDGE('',*,*,#192,.T.);
#255=ORIENTED_EDGE('',*,*,#180,.F.);
#256=ORIENTED_EDGE('',*,*,#193,.T.);
#257=ORIENTED_EDGE('',*,*,#194,.F.);
#258=ORIENTED_EDGE('',*,*,#177,.T.);
#259=ORIENTED_EDGE('',*,*,#182,.T.);
#260=ORIENTED_EDGE('',*,*,#171,.T.);
#261=ORIENTED_EDGE('',*,*,#178,.T.);
#262=ORIENTED_EDGE('',*,*,#194,.T.);
#263=ORIENTED_EDGE('',*,*,#195,.T.);
#264=ORIENTED_EDGE('',*,*,#190,.F.);
#265=ORIENTED_EDGE('',*,*,#185,.T.);
#266=ORIENTED_EDGE('',*,*,#187,.T.);
#267=ORIENTED_EDGE('',*,*,#191,.F.);
#268=ORIENTED_EDGE('',*,*,#195,.F.);
#269=ORIENTED_EDGE('',*,*,#193,.F.);
#270=ORIENTED_EDGE('',*,*,#181,.F.);
#271=ORIENTED_EDGE('',*,*,#192,.F.);
#272=ORIENTED_EDGE('',*,*,#188,.T.);
#273=ORIENTED_EDGE('',*,*,#169,.T.);
#274=(
BOUNDED_SURFACE()
B_SPLINE_SURFACE(2,2,((#426,#427,#428,#429,#430,#431,#432,#433,#434),(#435,
#436,#437,#438,#439,#440,#441,#442,#443),(#444,#445,#446,#447,#448,#449,
#450,#451,#452)),.UNSPECIFIED.,.F.,.T.,.F.)
B_SPLINE_SURFACE_WITH_KNOTS((3,3),(3,2,2,2,3),(-2.66515798651048E-16,1.5707963267949),
(-3.14159265358979,-1.5707963267949,0.,1.5707963267949,3.14159265358979),
 .UNSPECIFIED.)
GEOMETRIC_REPRESENTATION_ITEM()
RATIONAL_B_SPLINE_SURFACE(((1.,0.707106781186548,1.,0.707106781186548,1.,
0.707106781186548,1.,0.707106781186548,1.),(0.70710678118655,0.500000000000001,
0.70710678118655,0.500000000000001,0.70710678118655,0.500000000000001,0.70710678118655,
0.500000000000001,0.70710678118655),(1.,0.707106781186548,1.,0.707106781186548,
1.,0.707106781186548,1.,0.707106781186548,1.)))
REPRESENTATION_ITEM('')
SURFACE()
);
#275=(
BOUNDED_SURFACE()
B_SPLINE_SURFACE(2,2,((#465,#466,#467,#468,#469,#470,#471,#472,#473),(#474,
#475,#476,#477,#478,#479,#480,#481,#482),(#483,#484,#485,#486,#487,#488,
#489,#490,#491)),.UNSPECIFIED.,.F.,.T.,.F.)
B_SPLINE_SURFACE_WITH_KNOTS((3,3),(3,2,2,2,3),(-2.66515798651051E-16,1.5707963267949),
(-3.14159265358979,-1.5707963267949,0.,1.5707963267949,3.14159265358979),
 .UNSPECIFIED.)
GEOMETRIC_REPRESENTATION_ITEM()
RATIONAL_B_SPLINE_SURFACE(((1.,0.707106781186548,1.,0.707106781186548,1.,
0.707106781186548,1.,0.707106781186548,1.),(0.70710678118655,0.500000000000001,
0.70710678118655,0.500000000000001,0.70710678118655,0.500000000000001,0.70710678118655,
0.500000000000001,0.70710678118655),(1.,0.707106781186548,1.,0.707106781186548,
1.,0.707106781186548,1.,0.707106781186548,1.)))
REPRESENTATION_ITEM('')
SURFACE()
);
#276=ADVANCED_FACE('',(#79),#274,.F.);
#277=ADVANCED_FACE('',(#80),#76,.T.);
#278=ADVANCED_FACE('',(#81),#18,.T.);
#279=ADVANCED_FACE('',(#82),#275,.F.);
#280=ADVANCED_FACE('',(#83),#77,.T.);
#281=ADVANCED_FACE('',(#84),#19,.T.);
#282=ADVANCED_FACE('',(#85),#20,.F.);
#283=ADVANCED_FACE('',(#86),#21,.F.);
#284=ADVANCED_FACE('',(#87,#16,#17),#22,.T.);
#285=ADVANCED_FACE('',(#88),#23,.T.);
#286=ADVANCED_FACE('',(#89),#78,.T.);
#287=ADVANCED_FACE('',(#90),#24,.T.);
#288=ADVANCED_FACE('',(#91),#25,.T.);
#289=ADVANCED_FACE('',(#92),#26,.T.);
#290=ADVANCED_FACE('',(#93),#27,.T.);
#291=ADVANCED_FACE('',(#94),#28,.T.);
#292=ADVANCED_FACE('',(#95),#29,.T.);
#293=CLOSED_SHELL('',(#276,#277,#278,#279,#280,#281,#282,#283,#284,#285,
#286,#287,#288,#289,#290,#291,#292));
#294=DERIVED_UNIT_ELEMENT(#296,1.);
#295=DERIVED_UNIT_ELEMENT(#565,-3.);
#296=(
MASS_UNIT()
NAMED_UNIT(*)
SI_UNIT(.KILO.,.GRAM.)
);
#297=DERIVED_UNIT((#294,#295));
#298=MEASURE_REPRESENTATION_ITEM('density measure',
POSITIVE_RATIO_MEASURE(1060.),#297);
#299=PROPERTY_DEFINITION_REPRESENTATION(#304,#301);
#300=PROPERTY_DEFINITION_REPRESENTATION(#305,#302);
#301=REPRESENTATION('material name',(#303),#562);
#302=REPRESENTATION('density',(#298),#562);
#303=DESCRIPTIVE_REPRESENTATION_ITEM('Plastique ABS','Plastique ABS');
#304=PROPERTY_DEFINITION('material property','material name',#572);
#305=PROPERTY_DEFINITION('material property','density of part',#572);
#306=AXIS2_PLACEMENT_3D('',#425,#338,#339);
#307=AXIS2_PLACEMENT_3D('',#454,#340,#341);
#308=AXIS2_PLACEMENT_3D('',#456,#342,#343);
#309=AXIS2_PLACEMENT_3D('',#458,#344,#345);
#310=AXIS2_PLACEMENT_3D('',#459,#346,#347);
#311=AXIS2_PLACEMENT_3D('',#460,#348,#349);
#312=AXIS2_PLACEMENT_3D('',#463,#351,#352);
#313=AXIS2_PLACEMENT_3D('',#464,#353,#354);
#314=AXIS2_PLACEMENT_3D('',#493,#355,#356);
#315=AXIS2_PLACEMENT_3D('',#495,#357,#358);
#316=AXIS2_PLACEMENT_3D('',#497,#359,#360);
#317=AXIS2_PLACEMENT_3D('',#498,#361,#362);
#318=AXIS2_PLACEMENT_3D('',#499,#363,#364);
#319=AXIS2_PLACEMENT_3D('',#502,#366,#367);
#320=AXIS2_PLACEMENT_3D('',#503,#368,#369);
#321=AXIS2_PLACEMENT_3D('',#504,#370,#371);
#322=AXIS2_PLACEMENT_3D('',#508,#373,#374);
#323=AXIS2_PLACEMENT_3D('',#509,#375,#376);
#324=AXIS2_PLACEMENT_3D('',#514,#378,#379);
#325=AXIS2_PLACEMENT_3D('',#516,#380,#381);
#326=AXIS2_PLACEMENT_3D('',#520,#384,#385);
#327=AXIS2_PLACEMENT_3D('',#526,#389,#390);
#328=AXIS2_PLACEMENT_3D('',#534,#395,#396);
#329=AXIS2_PLACEMENT_3D('',#536,#397,#398);
#330=AXIS2_PLACEMENT_3D('',#541,#401,#402);
#331=AXIS2_PLACEMENT_3D('',#545,#405,#406);
#332=AXIS2_PLACEMENT_3D('',#546,#407,#408);
#333=AXIS2_PLACEMENT_3D('',#547,#409,#410);
#334=AXIS2_PLACEMENT_3D('',#551,#413,#414);
#335=AXIS2_PLACEMENT_3D('',#553,#416,#417);
#336=AXIS2_PLACEMENT_3D('',#557,#420,#421);
#337=AXIS2_PLACEMENT_3D('',#559,#423,#424);
#338=DIRECTION('axis',(0.,0.,1.));
#339=DIRECTION('refdir',(1.,0.,0.));
#340=DIRECTION('center_axis',(-5.32907051820074E-15,1.43076884814255E-16,
1.));
#341=DIRECTION('ref_axis',(1.,9.53845898761708E-17,5.32907051820074E-15));
#342=DIRECTION('center_axis',(-1.22464023514027E-16,-1.,1.43076884814254E-16));
#343=DIRECTION('ref_axis',(1.,-1.22464023514026E-16,5.18104078158405E-15));
#344=DIRECTION('center_axis',(5.32907051820074E-15,-1.43076884814255E-16,
-1.));
#345=DIRECTION('ref_axis',(1.,9.53845898761708E-17,5.36607795235493E-15));
#346=DIRECTION('center_axis',(5.32907051820074E-15,-1.43076884814255E-16,
-1.));
#347=DIRECTION('ref_axis',(1.,9.53845898761708E-17,5.36607795235493E-15));
#348=DIRECTION('center_axis',(0.,0.,-1.));
#349=DIRECTION('ref_axis',(1.,0.,0.));
#350=DIRECTION('',(0.,0.,1.));
#351=DIRECTION('center_axis',(-5.32907051820074E-15,1.43076884814255E-16,
1.));
#352=DIRECTION('ref_axis',(1.,0.,0.));
#353=DIRECTION('center_axis',(5.32907051820074E-15,-1.43076884814255E-16,
-1.));
#354=DIRECTION('ref_axis',(-1.,0.,-5.32907051820074E-15));
#355=DIRECTION('center_axis',(-5.32907051820074E-15,1.43076884814255E-16,
1.));
#356=DIRECTION('ref_axis',(1.,9.53845898761707E-17,5.32907051820074E-15));
#357=DIRECTION('center_axis',(-1.22464023514027E-16,-1.,1.43076884814254E-16));
#358=DIRECTION('ref_axis',(1.,-1.22464023514026E-16,5.18104078158404E-15));
#359=DIRECTION('center_axis',(5.32907051820074E-15,-1.43076884814255E-16,
-1.));
#360=DIRECTION('ref_axis',(1.,9.53845898761707E-17,5.36607795235492E-15));
#361=DIRECTION('center_axis',(5.32907051820074E-15,-1.43076884814255E-16,
-1.));
#362=DIRECTION('ref_axis',(1.,9.53845898761707E-17,5.36607795235492E-15));
#363=DIRECTION('center_axis',(0.,0.,-1.));
#364=DIRECTION('ref_axis',(1.,0.,0.));
#365=DIRECTION('',(0.,0.,1.));
#366=DIRECTION('center_axis',(-5.32907051820074E-15,1.43076884814255E-16,
1.));
#367=DIRECTION('ref_axis',(1.,0.,0.));
#368=DIRECTION('center_axis',(5.32907051820074E-15,-1.43076884814255E-16,
-1.));
#369=DIRECTION('ref_axis',(-1.,0.,-5.32907051820074E-15));
#370=DIRECTION('center_axis',(1.,0.,0.));
#371=DIRECTION('ref_axis',(0.,1.,0.));
#372=DIRECTION('',(0.,1.,-1.43076884814255E-16));
#373=DIRECTION('center_axis',(-1.,0.,0.));
#374=DIRECTION('ref_axis',(0.,1.,0.));
#375=DIRECTION('center_axis',(1.,0.,0.));
#376=DIRECTION('ref_axis',(0.,1.,0.));
#377=DIRECTION('',(0.,0.,-1.));
#378=DIRECTION('center_axis',(-1.,0.,0.));
#379=DIRECTION('ref_axis',(0.,1.,0.));
#380=DIRECTION('center_axis',(-1.,0.,0.));
#381=DIRECTION('ref_axis',(0.,1.,0.));
#382=DIRECTION('',(0.,0.,1.));
#383=DIRECTION('',(0.,-1.,1.43076884814255E-16));
#384=DIRECTION('center_axis',(5.32907051820074E-15,-1.43076884814255E-16,
-1.));
#385=DIRECTION('ref_axis',(-1.,0.,-5.32907051820074E-15));
#386=DIRECTION('',(1.,0.,5.32907051820074E-15));
#387=DIRECTION('',(0.,-1.,1.43076884814255E-16));
#388=DIRECTION('',(-1.,0.,-5.32907051820074E-15));
#389=DIRECTION('center_axis',(0.,-1.,0.));
#390=DIRECTION('ref_axis',(1.,0.,5.32907051820074E-15));
#391=DIRECTION('',(1.,0.,0.));
#392=DIRECTION('',(0.,0.,1.));
#393=DIRECTION('',(1.,0.,5.32907051820074E-15));
#394=DIRECTION('',(0.,0.,1.));
#395=DIRECTION('center_axis',(1.,0.,0.));
#396=DIRECTION('ref_axis',(0.,1.,0.));
#397=DIRECTION('center_axis',(1.,0.,0.));
#398=DIRECTION('ref_axis',(0.,1.,0.));
#399=DIRECTION('',(-1.,0.,0.));
#400=DIRECTION('',(-1.,0.,0.));
#401=DIRECTION('center_axis',(-1.,0.,0.));
#402=DIRECTION('ref_axis',(0.,1.,0.));
#403=DIRECTION('',(1.,0.,0.));
#404=DIRECTION('',(-1.,0.,0.));
#405=DIRECTION('center_axis',(-1.,0.,0.));
#406=DIRECTION('ref_axis',(0.,1.,0.));
#407=DIRECTION('center_axis',(1.,0.,0.));
#408=DIRECTION('ref_axis',(0.,1.,0.));
#409=DIRECTION('center_axis',(1.,0.,0.));
#410=DIRECTION('ref_axis',(0.,1.,-1.43076884814255E-16));
#411=DIRECTION('',(0.,0.,1.));
#412=DIRECTION('',(0.,1.,-1.43076884814255E-16));
#413=DIRECTION('center_axis',(1.,0.,0.));
#414=DIRECTION('ref_axis',(0.,1.,-1.43076884814255E-16));
#415=DIRECTION('',(0.,1.,-1.43076884814255E-16));
#416=DIRECTION('center_axis',(-1.,0.,0.));
#417=DIRECTION('ref_axis',(0.,-1.,1.43076884814255E-16));
#418=DIRECTION('',(0.,-1.,1.43076884814255E-16));
#419=DIRECTION('',(0.,0.,1.));
#420=DIRECTION('center_axis',(0.,1.,0.));
#421=DIRECTION('ref_axis',(-1.,0.,-5.32907051820074E-15));
#422=DIRECTION('',(-1.,0.,-5.32907051820074E-15));
#423=DIRECTION('center_axis',(-5.32907051820074E-15,1.43076884814255E-16,
1.));
#424=DIRECTION('ref_axis',(1.,0.,5.32907051820074E-15));
#425=CARTESIAN_POINT('',(0.,0.,0.));
#426=CARTESIAN_POINT('Ctrl Pts',(4.81627264424806,-2.33230217161404E-5,
4.19316530164352));
#427=CARTESIAN_POINT('Ctrl Pts',(4.81627264424806,-0.750023323021718,4.19316530164352));
#428=CARTESIAN_POINT('Ctrl Pts',(4.06627264424806,-0.750023323021718,4.19316530164352));
#429=CARTESIAN_POINT('Ctrl Pts',(3.31627264424806,-0.750023323021718,4.19316530164351));
#430=CARTESIAN_POINT('Ctrl Pts',(3.31627264424806,-2.33230217161404E-5,
4.19316530164351));
#431=CARTESIAN_POINT('Ctrl Pts',(3.31627264424806,0.749976676978286,4.19316530164351));
#432=CARTESIAN_POINT('Ctrl Pts',(4.06627264424806,0.749976676978286,4.19316530164352));
#433=CARTESIAN_POINT('Ctrl Pts',(4.81627264424806,0.749976676978286,4.19316530164352));
#434=CARTESIAN_POINT('Ctrl Pts',(4.81627264424806,-2.33230217161404E-5,
4.19316530164352));
#435=CARTESIAN_POINT('Ctrl Pts',(4.81627264424807,-2.3323021716212E-5,3.69316530164352));
#436=CARTESIAN_POINT('Ctrl Pts',(4.81627264424807,-0.750023323021718,3.69316530164352));
#437=CARTESIAN_POINT('Ctrl Pts',(4.06627264424807,-0.750023323021718,3.69316530164352));
#438=CARTESIAN_POINT('Ctrl Pts',(3.31627264424806,-0.750023323021718,3.69316530164351));
#439=CARTESIAN_POINT('Ctrl Pts',(3.31627264424806,-2.3323021716212E-5,3.69316530164351));
#440=CARTESIAN_POINT('Ctrl Pts',(3.31627264424806,0.749976676978286,3.69316530164351));
#441=CARTESIAN_POINT('Ctrl Pts',(4.06627264424807,0.749976676978286,3.69316530164352));
#442=CARTESIAN_POINT('Ctrl Pts',(4.81627264424807,0.749976676978286,3.69316530164352));
#443=CARTESIAN_POINT('Ctrl Pts',(4.81627264424807,-2.3323021716212E-5,3.69316530164352));
#444=CARTESIAN_POINT('Ctrl Pts',(4.31627264424807,-2.3323021716212E-5,3.69316530164352));
#445=CARTESIAN_POINT('Ctrl Pts',(4.31627264424807,-0.250023323021718,3.69316530164352));
#446=CARTESIAN_POINT('Ctrl Pts',(4.06627264424807,-0.250023323021718,3.69316530164352));
#447=CARTESIAN_POINT('Ctrl Pts',(3.81627264424806,-0.250023323021718,3.69316530164351));
#448=CARTESIAN_POINT('Ctrl Pts',(3.81627264424806,-2.3323021716212E-5,3.69316530164351));
#449=CARTESIAN_POINT('Ctrl Pts',(3.81627264424806,0.249976676978286,3.69316530164351));
#450=CARTESIAN_POINT('Ctrl Pts',(4.06627264424807,0.249976676978286,3.69316530164352));
#451=CARTESIAN_POINT('Ctrl Pts',(4.31627264424807,0.249976676978286,3.69316530164352));
#452=CARTESIAN_POINT('Ctrl Pts',(4.31627264424807,-2.3323021716212E-5,3.69316530164352));
#453=CARTESIAN_POINT('',(4.31627264424807,-2.33230217162426E-5,3.69316530164354));
#454=CARTESIAN_POINT('Origin',(4.06627264424807,-2.3323021716212E-5,3.69316530164353));
#455=CARTESIAN_POINT('',(4.81627264424806,-2.33230217162323E-5,4.19316530164352));
#456=CARTESIAN_POINT('Origin',(4.31627264424806,-2.3323021716171E-5,4.19316530164352));
#457=CARTESIAN_POINT('',(3.31627264424806,-2.33230217161201E-5,4.19316530164351));
#458=CARTESIAN_POINT('Origin',(4.06627264424806,-2.33230217161404E-5,4.19316530164352));
#459=CARTESIAN_POINT('Origin',(4.06627264424806,-2.33230217161404E-5,4.19316530164352));
#460=CARTESIAN_POINT('Origin',(4.06627264424806,-2.33230217161404E-5,4.69316530164352));
#461=CARTESIAN_POINT('',(3.31627264424806,-2.33230217162323E-5,4.69316530164352));
#462=CARTESIAN_POINT('',(3.31627264424806,-2.33230217160486E-5,4.69316530164352));
#463=CARTESIAN_POINT('Origin',(4.06627264424806,-2.33230217161404E-5,4.69316530164352));
#464=CARTESIAN_POINT('Origin',(0.56627264424805,-2.33230217222546E-5,3.69316530164352));
#465=CARTESIAN_POINT('Ctrl Pts',(-2.18372735575196,-2.3323021727312E-5,
4.19316530164352));
#466=CARTESIAN_POINT('Ctrl Pts',(-2.18372735575196,-0.75002332302173,4.19316530164352));
#467=CARTESIAN_POINT('Ctrl Pts',(-2.93372735575196,-0.75002332302173,4.19316530164352));
#468=CARTESIAN_POINT('Ctrl Pts',(-3.68372735575196,-0.75002332302173,4.19316530164351));
#469=CARTESIAN_POINT('Ctrl Pts',(-3.68372735575196,-2.3323021727312E-5,
4.19316530164351));
#470=CARTESIAN_POINT('Ctrl Pts',(-3.68372735575196,0.749976676978276,4.19316530164351));
#471=CARTESIAN_POINT('Ctrl Pts',(-2.93372735575196,0.749976676978276,4.19316530164352));
#472=CARTESIAN_POINT('Ctrl Pts',(-2.18372735575196,0.749976676978276,4.19316530164352));
#473=CARTESIAN_POINT('Ctrl Pts',(-2.18372735575196,-2.3323021727312E-5,
4.19316530164352));
#474=CARTESIAN_POINT('Ctrl Pts',(-2.18372735575195,-2.33230217273836E-5,
3.69316530164352));
#475=CARTESIAN_POINT('Ctrl Pts',(-2.18372735575195,-0.750023323021731,3.69316530164352));
#476=CARTESIAN_POINT('Ctrl Pts',(-2.93372735575196,-0.750023323021731,3.69316530164352));
#477=CARTESIAN_POINT('Ctrl Pts',(-3.68372735575196,-0.750023323021731,3.69316530164351));
#478=CARTESIAN_POINT('Ctrl Pts',(-3.68372735575196,-2.33230217273836E-5,
3.69316530164351));
#479=CARTESIAN_POINT('Ctrl Pts',(-3.68372735575196,0.749976676978276,3.69316530164351));
#480=CARTESIAN_POINT('Ctrl Pts',(-2.93372735575196,0.749976676978276,3.69316530164352));
#481=CARTESIAN_POINT('Ctrl Pts',(-2.18372735575195,0.749976676978276,3.69316530164352));
#482=CARTESIAN_POINT('Ctrl Pts',(-2.18372735575195,-2.33230217273836E-5,
3.69316530164352));
#483=CARTESIAN_POINT('Ctrl Pts',(-2.68372735575195,-2.33230217273836E-5,
3.69316530164352));
#484=CARTESIAN_POINT('Ctrl Pts',(-2.68372735575195,-0.25002332302173,3.69316530164352));
#485=CARTESIAN_POINT('Ctrl Pts',(-2.93372735575196,-0.25002332302173,3.69316530164352));
#486=CARTESIAN_POINT('Ctrl Pts',(-3.18372735575196,-0.25002332302173,3.69316530164351));
#487=CARTESIAN_POINT('Ctrl Pts',(-3.18372735575196,-2.33230217273836E-5,
3.69316530164351));
#488=CARTESIAN_POINT('Ctrl Pts',(-3.18372735575196,0.249976676978276,3.69316530164351));
#489=CARTESIAN_POINT('Ctrl Pts',(-2.93372735575196,0.249976676978276,3.69316530164352));
#490=CARTESIAN_POINT('Ctrl Pts',(-2.68372735575195,0.249976676978276,3.69316530164352));
#491=CARTESIAN_POINT('Ctrl Pts',(-2.68372735575195,-2.33230217273836E-5,
3.69316530164352));
#492=CARTESIAN_POINT('',(-2.68372735575195,-2.33230217274142E-5,3.6931653016435));
#493=CARTESIAN_POINT('Origin',(-2.93372735575196,-2.33230217273836E-5,3.6931653016435));
#494=CARTESIAN_POINT('',(-2.18372735575196,-2.33230217274039E-5,4.19316530164352));
#495=CARTESIAN_POINT('Origin',(-2.68372735575196,-2.33230217273427E-5,4.19316530164352));
#496=CARTESIAN_POINT('',(-3.68372735575196,-2.33230217272917E-5,4.19316530164351));
#497=CARTESIAN_POINT('Origin',(-2.93372735575196,-2.3323021727312E-5,4.19316530164352));
#498=CARTESIAN_POINT('Origin',(-2.93372735575196,-2.3323021727312E-5,4.19316530164352));
#499=CARTESIAN_POINT('Origin',(-2.93372735575196,-2.3323021727312E-5,4.69316530164352));
#500=CARTESIAN_POINT('',(-3.68372735575196,-2.33230217274039E-5,4.69316530164352));
#501=CARTESIAN_POINT('',(-3.68372735575196,-2.33230217272202E-5,4.69316530164352));
#502=CARTESIAN_POINT('Origin',(-2.93372735575196,-2.3323021727312E-5,4.69316530164352));
#503=CARTESIAN_POINT('Origin',(0.56627264424805,-2.33230217222546E-5,3.69316530164352));
#504=CARTESIAN_POINT('Origin',(4.87827507259063,-2.33230217244751E-5,7.19316530164347));
#505=CARTESIAN_POINT('',(4.87827507259063,-2.82845044776782,10.6931653016435));
#506=CARTESIAN_POINT('',(4.87827507259063,2.82840380172437,10.6931653016435));
#507=CARTESIAN_POINT('',(4.87827507259063,-0.0172427265413718,10.6931653016435));
#508=CARTESIAN_POINT('Origin',(4.87827507259063,-2.33230217243976E-5,7.19316530164347));
#509=CARTESIAN_POINT('Origin',(4.87827507259063,-2.33230217244751E-5,7.19316530164347));
#510=CARTESIAN_POINT('',(4.87827507259063,3.21553786993898,10.3412069491324));
#511=CARTESIAN_POINT('',(4.87827507259063,3.21553786993898,4.69316530164354));
#512=CARTESIAN_POINT('',(4.87827507259063,3.21553786993898,5.94316530164351));
#513=CARTESIAN_POINT('',(4.87827507259063,-4.50002332302172,7.19316530164347));
#514=CARTESIAN_POINT('Origin',(4.87827507259063,-2.33230217243976E-5,7.19316530164347));
#515=CARTESIAN_POINT('',(4.87827507259063,-3.28446213006102,10.2692767630204));
#516=CARTESIAN_POINT('Origin',(4.87827507259063,-2.33230217243976E-5,7.19316530164347));
#517=CARTESIAN_POINT('',(4.87827507259063,-3.28446213006102,4.69316530164354));
#518=CARTESIAN_POINT('',(4.87827507259063,-3.28446213006102,5.94316530164347));
#519=CARTESIAN_POINT('',(4.87827507259063,-0.0172427265413723,4.69316530164354));
#520=CARTESIAN_POINT('Origin',(0.878275072590629,-0.0344621300610198,4.69316530164352));
#521=CARTESIAN_POINT('',(-6.62172492740937,-3.28446213006102,4.69316530164348));
#522=CARTESIAN_POINT('',(-2.87172492740938,-3.28446213006102,4.6931653016435));
#523=CARTESIAN_POINT('',(-6.62172492740937,3.21553786993898,4.69316530164348));
#524=CARTESIAN_POINT('',(-6.62172492740937,1.59053786993898,4.69316530164348));
#525=CARTESIAN_POINT('',(4.62827507259062,3.21553786993898,4.69316530164354));
#526=CARTESIAN_POINT('Origin',(-6.62172492740937,-3.28446213006102,4.69316530164348));
#527=CARTESIAN_POINT('',(8.37827507259063,-3.28446213006102,10.2692767630204));
#528=CARTESIAN_POINT('',(8.37827507259063,-3.28446213006102,10.2692767630204));
#529=CARTESIAN_POINT('',(8.37827507259063,-3.28446213006102,10.6931653016436));
#530=CARTESIAN_POINT('',(8.37827507259063,-3.28446213006102,4.69316530164356));
#531=CARTESIAN_POINT('',(-6.62172492740937,-3.28446213006102,10.6931653016435));
#532=CARTESIAN_POINT('',(-2.87172492740939,-3.28446213006102,10.6931653016435));
#533=CARTESIAN_POINT('',(-6.62172492740937,-3.28446213006102,4.69316530164348));
#534=CARTESIAN_POINT('Origin',(8.37827507259063,-2.33230217243976E-5,7.19316530164347));
#535=CARTESIAN_POINT('',(23.8782750725906,-4.50002332302172,7.19316530164347));
#536=CARTESIAN_POINT('Origin',(23.8782750725906,-2.33230217243976E-5,7.19316530164347));
#537=CARTESIAN_POINT('',(8.37827507259063,-4.50002332302172,7.19316530164347));
#538=CARTESIAN_POINT('',(8.37827507259063,3.21553786993898,10.3412069491324));
#539=CARTESIAN_POINT('',(8.37827507259063,3.21553786993898,10.3412069491324));
#540=CARTESIAN_POINT('',(8.37827507259063,2.82840380172435,10.6931653016436));
#541=CARTESIAN_POINT('Origin',(8.37827507259063,-2.33230217243976E-5,7.19316530164347));
#542=CARTESIAN_POINT('',(8.37827507259063,2.82840380172435,10.6931653016436));
#543=CARTESIAN_POINT('',(8.37827507259063,-2.8284504477678,10.6931653016436));
#544=CARTESIAN_POINT('',(8.37827507259063,-2.8284504477678,10.6931653016436));
#545=CARTESIAN_POINT('Origin',(8.37827507259063,-2.33230217243976E-5,7.19316530164347));
#546=CARTESIAN_POINT('Origin',(23.8782750725906,-2.33230217244751E-5,7.19316530164347));
#547=CARTESIAN_POINT('Origin',(8.37827507259063,-3.28446213006102,4.69316530164356));
#548=CARTESIAN_POINT('',(8.37827507259063,3.21553786993898,10.6931653016436));
#549=CARTESIAN_POINT('',(8.37827507259063,3.21553786993898,4.69316530164356));
#550=CARTESIAN_POINT('',(8.37827507259063,-1.65946213006102,10.6931653016436));
#551=CARTESIAN_POINT('Origin',(8.37827507259063,-3.28446213006102,4.69316530164356));
#552=CARTESIAN_POINT('',(8.37827507259063,-1.65946213006102,10.6931653016436));
#553=CARTESIAN_POINT('Origin',(-6.62172492740937,3.21553786993898,4.69316530164348));
#554=CARTESIAN_POINT('',(-6.62172492740937,3.21553786993898,10.6931653016435));
#555=CARTESIAN_POINT('',(-6.62172492740937,1.59053786993898,10.6931653016435));
#556=CARTESIAN_POINT('',(-6.62172492740937,3.21553786993898,4.69316530164348));
#557=CARTESIAN_POINT('Origin',(8.37827507259063,3.21553786993898,4.69316530164356));
#558=CARTESIAN_POINT('',(4.62827507259061,3.21553786993898,10.6931653016435));
#559=CARTESIAN_POINT('Origin',(0.878275072590623,-0.0344621300610197,10.6931653016435));
#560=UNCERTAINTY_MEASURE_WITH_UNIT(LENGTH_MEASURE(0.01),#564,
'DISTANCE_ACCURACY_VALUE',
'Maximum model space distance between geometric entities at asserted c
onnectivities');
#561=UNCERTAINTY_MEASURE_WITH_UNIT(LENGTH_MEASURE(0.01),#564,
'DISTANCE_ACCURACY_VALUE',
'Maximum model space distance between geometric entities at asserted c
onnectivities');
#562=(
GEOMETRIC_REPRESENTATION_CONTEXT(3)
GLOBAL_UNCERTAINTY_ASSIGNED_CONTEXT((#560))
GLOBAL_UNIT_ASSIGNED_CONTEXT((#564,#566,#567))
REPRESENTATION_CONTEXT('','3D')
);
#563=(
GEOMETRIC_REPRESENTATION_CONTEXT(3)
GLOBAL_UNCERTAINTY_ASSIGNED_CONTEXT((#561))
GLOBAL_UNIT_ASSIGNED_CONTEXT((#564,#566,#567))
REPRESENTATION_CONTEXT('','3D')
);
#564=(
LENGTH_UNIT()
NAMED_UNIT(*)
SI_UNIT(.MILLI.,.METRE.)
);
#565=(
LENGTH_UNIT()
NAMED_UNIT(*)
SI_UNIT($,.METRE.)
);
#566=(
NAMED_UNIT(*)
PLANE_ANGLE_UNIT()
SI_UNIT($,.RADIAN.)
);
#567=(
NAMED_UNIT(*)
SI_UNIT($,.STERADIAN.)
SOLID_ANGLE_UNIT()
);
#568=SHAPE_DEFINITION_REPRESENTATION(#569,#570);
#569=PRODUCT_DEFINITION_SHAPE('',$,#572);
#570=SHAPE_REPRESENTATION('',(#306),#562);
#571=PRODUCT_DEFINITION_CONTEXT('part definition',#576,'design');
#572=PRODUCT_DEFINITION('PJ320A','TRRS-PJ320A v4',#573,#571);
#573=PRODUCT_DEFINITION_FORMATION('',$,#578);
#574=PRODUCT_RELATED_PRODUCT_CATEGORY('TRRS-PJ320A v4','TRRS-PJ320A v4',
(#578));
#575=APPLICATION_PROTOCOL_DEFINITION('international standard',
'automotive_design',2009,#576);
#576=APPLICATION_CONTEXT(
'Core Data for Automotive Mechanical Design Process');
#577=PRODUCT_CONTEXT('part definition',#576,'mechanical');
#578=PRODUCT('PJ320A','TRRS-PJ320A v4','STEP AP214',(#577));
#579=PRESENTATION_STYLE_ASSIGNMENT((#581));
#580=PRESENTATION_STYLE_ASSIGNMENT((#582));
#581=SURFACE_STYLE_USAGE(.BOTH.,#583);
#582=SURFACE_STYLE_USAGE(.BOTH.,#584);
#583=SURFACE_SIDE_STYLE('',(#585));
#584=SURFACE_SIDE_STYLE('',(#586));
#585=SURFACE_STYLE_FILL_AREA(#587);
#586=SURFACE_STYLE_FILL_AREA(#588);
#587=FILL_AREA_STYLE('ABS (blanc)',(#589));
#588=FILL_AREA_STYLE('Opaque(217,217,217)',(#590));
#589=FILL_AREA_STYLE_COLOUR('ABS (blanc)',#591);
#590=FILL_AREA_STYLE_COLOUR('Opaque(217,217,217)',#592);
#591=COLOUR_RGB('ABS (blanc)',0.964705882352941,0.964705882352941,0.952941176470588);
#592=COLOUR_RGB('Opaque(217,217,217)',0.898039215686275,0.12156862745098,
0.12156862745098);
ENDSEC;
END-ISO-10303-21;
