ISO-10303-21;
HEADER;
/* Generated by software containing ST-Developer
 * from STEP Tools, Inc. (www.steptools.com) 
 */

FILE_DESCRIPTION(
/* description */ (''),
/* implementation_level */ '2;1');

FILE_NAME(
/* name */ 'TRRS-BOTTOM-FINAL.step',
/* time_stamp */ '2025-08-31T04:38:03+02:00',
/* author */ (''),
/* organization */ (''),
/* preprocessor_version */ 'ST-DEVELOPER v20.1',
/* originating_system */ 'Autodesk Translation Framework v14.10.0.0',
/* authorisation */ '');

FILE_SCHEMA (('AUTOMOTIVE_DESIGN { 1 0 10303 214 3 1 1 }'));
ENDSEC;

DATA;
#10=MECHANICAL_DESIGN_GEOMETRIC_PRESENTATION_REPRESENTATION('',(#13,#14),
#1854);
#11=SHAPE_REPRESENTATION_RELATIONSHIP('SRR','None',#1861,#12);
#12=ADVANCED_BREP_SHAPE_REPRESENTATION('',(#15,#16),#1853);
#13=STYLED_ITEM('',(#1871),#15);
#14=STYLED_ITEM('',(#1871),#16);
#15=MANIFOLD_SOLID_BREP('Corps1',#1045);
#16=MANIFOLD_SOLID_BREP('Corps2',#1046);
#17=SPHERICAL_SURFACE('',#1082,0.5);
#18=SPHERICAL_SURFACE('',#1087,0.5);
#19=SPHERICAL_SURFACE('',#1093,0.5);
#20=SPHERICAL_SURFACE('',#1098,0.5);
#21=SPHERICAL_SURFACE('',#1104,0.5);
#22=SPHERICAL_SURFACE('',#1109,0.5);
#23=SPHERICAL_SURFACE('',#1150,0.5);
#24=SPHERICAL_SURFACE('',#1155,0.5);
#25=SPHERICAL_SURFACE('',#1161,0.5);
#26=SPHERICAL_SURFACE('',#1166,0.5);
#27=SPHERICAL_SURFACE('',#1172,0.5);
#28=SPHERICAL_SURFACE('',#1177,0.5);
#29=CYLINDRICAL_SURFACE('',#1074,0.5);
#30=CYLINDRICAL_SURFACE('',#1080,0.5);
#31=CYLINDRICAL_SURFACE('',#1081,0.5);
#32=CYLINDRICAL_SURFACE('',#1086,0.5);
#33=CYLINDRICAL_SURFACE('',#1091,0.5);
#34=CYLINDRICAL_SURFACE('',#1092,0.5);
#35=CYLINDRICAL_SURFACE('',#1097,0.5);
#36=CYLINDRICAL_SURFACE('',#1102,0.5);
#37=CYLINDRICAL_SURFACE('',#1103,0.5);
#38=CYLINDRICAL_SURFACE('',#1108,0.5);
#39=CYLINDRICAL_SURFACE('',#1113,0.5);
#40=CYLINDRICAL_SURFACE('',#1114,0.5);
#41=CYLINDRICAL_SURFACE('',#1115,0.5);
#42=CYLINDRICAL_SURFACE('',#1116,0.5);
#43=CYLINDRICAL_SURFACE('',#1117,0.5);
#44=CYLINDRICAL_SURFACE('',#1118,0.5);
#45=CYLINDRICAL_SURFACE('',#1142,0.5);
#46=CYLINDRICAL_SURFACE('',#1148,0.5);
#47=CYLINDRICAL_SURFACE('',#1149,0.5);
#48=CYLINDRICAL_SURFACE('',#1154,0.5);
#49=CYLINDRICAL_SURFACE('',#1159,0.5);
#50=CYLINDRICAL_SURFACE('',#1160,0.5);
#51=CYLINDRICAL_SURFACE('',#1165,0.5);
#52=CYLINDRICAL_SURFACE('',#1170,0.5);
#53=CYLINDRICAL_SURFACE('',#1171,0.5);
#54=CYLINDRICAL_SURFACE('',#1176,0.5);
#55=CYLINDRICAL_SURFACE('',#1181,0.5);
#56=CYLINDRICAL_SURFACE('',#1182,0.5);
#57=CYLINDRICAL_SURFACE('',#1183,0.5);
#58=CYLINDRICAL_SURFACE('',#1184,0.5);
#59=CYLINDRICAL_SURFACE('',#1185,0.5);
#60=CYLINDRICAL_SURFACE('',#1186,0.5);
#61=TOROIDAL_SURFACE('',#1069,1.,0.5);
#62=TOROIDAL_SURFACE('',#1075,1.,0.5);
#63=TOROIDAL_SURFACE('',#1137,1.,0.5);
#64=TOROIDAL_SURFACE('',#1143,1.,0.5);
#65=FACE_OUTER_BOUND('',#133,.T.);
#66=FACE_OUTER_BOUND('',#134,.T.);
#67=FACE_OUTER_BOUND('',#135,.T.);
#68=FACE_OUTER_BOUND('',#136,.T.);
#69=FACE_OUTER_BOUND('',#137,.T.);
#70=FACE_OUTER_BOUND('',#138,.T.);
#71=FACE_OUTER_BOUND('',#139,.T.);
#72=FACE_OUTER_BOUND('',#140,.T.);
#73=FACE_OUTER_BOUND('',#141,.T.);
#74=FACE_OUTER_BOUND('',#142,.T.);
#75=FACE_OUTER_BOUND('',#143,.T.);
#76=FACE_OUTER_BOUND('',#144,.T.);
#77=FACE_OUTER_BOUND('',#145,.T.);
#78=FACE_OUTER_BOUND('',#146,.T.);
#79=FACE_OUTER_BOUND('',#147,.T.);
#80=FACE_OUTER_BOUND('',#148,.T.);
#81=FACE_OUTER_BOUND('',#149,.T.);
#82=FACE_OUTER_BOUND('',#150,.T.);
#83=FACE_OUTER_BOUND('',#151,.T.);
#84=FACE_OUTER_BOUND('',#152,.T.);
#85=FACE_OUTER_BOUND('',#153,.T.);
#86=FACE_OUTER_BOUND('',#154,.T.);
#87=FACE_OUTER_BOUND('',#155,.T.);
#88=FACE_OUTER_BOUND('',#156,.T.);
#89=FACE_OUTER_BOUND('',#157,.T.);
#90=FACE_OUTER_BOUND('',#158,.T.);
#91=FACE_OUTER_BOUND('',#159,.T.);
#92=FACE_OUTER_BOUND('',#160,.T.);
#93=FACE_OUTER_BOUND('',#161,.T.);
#94=FACE_OUTER_BOUND('',#162,.T.);
#95=FACE_OUTER_BOUND('',#163,.T.);
#96=FACE_OUTER_BOUND('',#164,.T.);
#97=FACE_OUTER_BOUND('',#165,.T.);
#98=FACE_OUTER_BOUND('',#166,.T.);
#99=FACE_OUTER_BOUND('',#167,.T.);
#100=FACE_OUTER_BOUND('',#168,.T.);
#101=FACE_OUTER_BOUND('',#169,.T.);
#102=FACE_OUTER_BOUND('',#170,.T.);
#103=FACE_OUTER_BOUND('',#171,.T.);
#104=FACE_OUTER_BOUND('',#172,.T.);
#105=FACE_OUTER_BOUND('',#173,.T.);
#106=FACE_OUTER_BOUND('',#174,.T.);
#107=FACE_OUTER_BOUND('',#175,.T.);
#108=FACE_OUTER_BOUND('',#176,.T.);
#109=FACE_OUTER_BOUND('',#177,.T.);
#110=FACE_OUTER_BOUND('',#178,.T.);
#111=FACE_OUTER_BOUND('',#179,.T.);
#112=FACE_OUTER_BOUND('',#180,.T.);
#113=FACE_OUTER_BOUND('',#181,.T.);
#114=FACE_OUTER_BOUND('',#182,.T.);
#115=FACE_OUTER_BOUND('',#183,.T.);
#116=FACE_OUTER_BOUND('',#184,.T.);
#117=FACE_OUTER_BOUND('',#185,.T.);
#118=FACE_OUTER_BOUND('',#186,.T.);
#119=FACE_OUTER_BOUND('',#187,.T.);
#120=FACE_OUTER_BOUND('',#188,.T.);
#121=FACE_OUTER_BOUND('',#189,.T.);
#122=FACE_OUTER_BOUND('',#190,.T.);
#123=FACE_OUTER_BOUND('',#191,.T.);
#124=FACE_OUTER_BOUND('',#192,.T.);
#125=FACE_OUTER_BOUND('',#193,.T.);
#126=FACE_OUTER_BOUND('',#194,.T.);
#127=FACE_OUTER_BOUND('',#195,.T.);
#128=FACE_OUTER_BOUND('',#196,.T.);
#129=FACE_OUTER_BOUND('',#197,.T.);
#130=FACE_OUTER_BOUND('',#198,.T.);
#131=FACE_OUTER_BOUND('',#199,.T.);
#132=FACE_OUTER_BOUND('',#200,.T.);
#133=EDGE_LOOP('',(#661,#662,#663,#664,#665,#666,#667,#668,#669,#670,#671,
#672,#673,#674,#675,#676));
#134=EDGE_LOOP('',(#677,#678,#679,#680));
#135=EDGE_LOOP('',(#681,#682,#683,#684));
#136=EDGE_LOOP('',(#685,#686,#687,#688));
#137=EDGE_LOOP('',(#689,#690,#691,#692));
#138=EDGE_LOOP('',(#693,#694,#695,#696));
#139=EDGE_LOOP('',(#697,#698,#699));
#140=EDGE_LOOP('',(#700,#701,#702,#703));
#141=EDGE_LOOP('',(#704,#705,#706));
#142=EDGE_LOOP('',(#707,#708,#709,#710));
#143=EDGE_LOOP('',(#711,#712,#713,#714));
#144=EDGE_LOOP('',(#715,#716,#717));
#145=EDGE_LOOP('',(#718,#719,#720,#721));
#146=EDGE_LOOP('',(#722,#723,#724));
#147=EDGE_LOOP('',(#725,#726,#727,#728));
#148=EDGE_LOOP('',(#729,#730,#731,#732));
#149=EDGE_LOOP('',(#733,#734,#735));
#150=EDGE_LOOP('',(#736,#737,#738,#739));
#151=EDGE_LOOP('',(#740,#741,#742));
#152=EDGE_LOOP('',(#743,#744,#745,#746));
#153=EDGE_LOOP('',(#747,#748,#749,#750));
#154=EDGE_LOOP('',(#751,#752,#753,#754));
#155=EDGE_LOOP('',(#755,#756,#757,#758));
#156=EDGE_LOOP('',(#759,#760,#761,#762));
#157=EDGE_LOOP('',(#763,#764,#765,#766));
#158=EDGE_LOOP('',(#767,#768,#769,#770));
#159=EDGE_LOOP('',(#771,#772,#773,#774));
#160=EDGE_LOOP('',(#775,#776,#777,#778));
#161=EDGE_LOOP('',(#779,#780,#781,#782));
#162=EDGE_LOOP('',(#783,#784,#785,#786,#787,#788,#789,#790,#791,#792));
#163=EDGE_LOOP('',(#793,#794,#795,#796));
#164=EDGE_LOOP('',(#797,#798,#799,#800));
#165=EDGE_LOOP('',(#801,#802,#803,#804));
#166=EDGE_LOOP('',(#805,#806,#807,#808));
#167=EDGE_LOOP('',(#809,#810,#811,#812,#813,#814,#815,#816,#817,#818,#819,
#820,#821,#822,#823,#824));
#168=EDGE_LOOP('',(#825,#826,#827,#828));
#169=EDGE_LOOP('',(#829,#830,#831,#832));
#170=EDGE_LOOP('',(#833,#834,#835,#836));
#171=EDGE_LOOP('',(#837,#838,#839,#840));
#172=EDGE_LOOP('',(#841,#842,#843,#844));
#173=EDGE_LOOP('',(#845,#846,#847));
#174=EDGE_LOOP('',(#848,#849,#850,#851));
#175=EDGE_LOOP('',(#852,#853,#854));
#176=EDGE_LOOP('',(#855,#856,#857,#858));
#177=EDGE_LOOP('',(#859,#860,#861,#862));
#178=EDGE_LOOP('',(#863,#864,#865));
#179=EDGE_LOOP('',(#866,#867,#868,#869));
#180=EDGE_LOOP('',(#870,#871,#872));
#181=EDGE_LOOP('',(#873,#874,#875,#876));
#182=EDGE_LOOP('',(#877,#878,#879,#880));
#183=EDGE_LOOP('',(#881,#882,#883));
#184=EDGE_LOOP('',(#884,#885,#886,#887));
#185=EDGE_LOOP('',(#888,#889,#890));
#186=EDGE_LOOP('',(#891,#892,#893,#894));
#187=EDGE_LOOP('',(#895,#896,#897,#898));
#188=EDGE_LOOP('',(#899,#900,#901,#902));
#189=EDGE_LOOP('',(#903,#904,#905,#906));
#190=EDGE_LOOP('',(#907,#908,#909,#910));
#191=EDGE_LOOP('',(#911,#912,#913,#914));
#192=EDGE_LOOP('',(#915,#916,#917,#918));
#193=EDGE_LOOP('',(#919,#920,#921,#922));
#194=EDGE_LOOP('',(#923,#924,#925,#926));
#195=EDGE_LOOP('',(#927,#928,#929,#930));
#196=EDGE_LOOP('',(#931,#932,#933,#934,#935,#936,#937,#938,#939,#940));
#197=EDGE_LOOP('',(#941,#942,#943,#944));
#198=EDGE_LOOP('',(#945,#946,#947,#948));
#199=EDGE_LOOP('',(#949,#950,#951,#952));
#200=EDGE_LOOP('',(#953,#954,#955,#956));
#201=LINE('',#1556,#281);
#202=LINE('',#1560,#282);
#203=LINE('',#1564,#283);
#204=LINE('',#1568,#284);
#205=LINE('',#1572,#285);
#206=LINE('',#1576,#286);
#207=LINE('',#1580,#287);
#208=LINE('',#1583,#288);
#209=LINE('',#1594,#289);
#210=LINE('',#1595,#290);
#211=LINE('',#1606,#291);
#212=LINE('',#1607,#292);
#213=LINE('',#1609,#293);
#214=LINE('',#1610,#294);
#215=LINE('',#1619,#295);
#216=LINE('',#1620,#296);
#217=LINE('',#1629,#297);
#218=LINE('',#1630,#298);
#219=LINE('',#1632,#299);
#220=LINE('',#1633,#300);
#221=LINE('',#1642,#301);
#222=LINE('',#1643,#302);
#223=LINE('',#1652,#303);
#224=LINE('',#1653,#304);
#225=LINE('',#1655,#305);
#226=LINE('',#1656,#306);
#227=LINE('',#1665,#307);
#228=LINE('',#1666,#308);
#229=LINE('',#1675,#309);
#230=LINE('',#1676,#310);
#231=LINE('',#1678,#311);
#232=LINE('',#1679,#312);
#233=LINE('',#1681,#313);
#234=LINE('',#1682,#314);
#235=LINE('',#1684,#315);
#236=LINE('',#1685,#316);
#237=LINE('',#1687,#317);
#238=LINE('',#1688,#318);
#239=LINE('',#1690,#319);
#240=LINE('',#1691,#320);
#241=LINE('',#1706,#321);
#242=LINE('',#1710,#322);
#243=LINE('',#1714,#323);
#244=LINE('',#1718,#324);
#245=LINE('',#1722,#325);
#246=LINE('',#1726,#326);
#247=LINE('',#1730,#327);
#248=LINE('',#1733,#328);
#249=LINE('',#1744,#329);
#250=LINE('',#1745,#330);
#251=LINE('',#1756,#331);
#252=LINE('',#1757,#332);
#253=LINE('',#1759,#333);
#254=LINE('',#1760,#334);
#255=LINE('',#1769,#335);
#256=LINE('',#1770,#336);
#257=LINE('',#1779,#337);
#258=LINE('',#1780,#338);
#259=LINE('',#1782,#339);
#260=LINE('',#1783,#340);
#261=LINE('',#1792,#341);
#262=LINE('',#1793,#342);
#263=LINE('',#1802,#343);
#264=LINE('',#1803,#344);
#265=LINE('',#1805,#345);
#266=LINE('',#1806,#346);
#267=LINE('',#1815,#347);
#268=LINE('',#1816,#348);
#269=LINE('',#1825,#349);
#270=LINE('',#1826,#350);
#271=LINE('',#1828,#351);
#272=LINE('',#1829,#352);
#273=LINE('',#1831,#353);
#274=LINE('',#1832,#354);
#275=LINE('',#1834,#355);
#276=LINE('',#1835,#356);
#277=LINE('',#1837,#357);
#278=LINE('',#1838,#358);
#279=LINE('',#1840,#359);
#280=LINE('',#1841,#360);
#281=VECTOR('',#1202,10.);
#282=VECTOR('',#1205,10.);
#283=VECTOR('',#1208,10.);
#284=VECTOR('',#1211,10.);
#285=VECTOR('',#1214,10.);
#286=VECTOR('',#1217,10.);
#287=VECTOR('',#1220,10.);
#288=VECTOR('',#1223,10.);
#289=VECTOR('',#1236,10.);
#290=VECTOR('',#1237,10.);
#291=VECTOR('',#1250,10.);
#292=VECTOR('',#1251,10.);
#293=VECTOR('',#1254,10.);
#294=VECTOR('',#1255,10.);
#295=VECTOR('',#1266,10.);
#296=VECTOR('',#1267,10.);
#297=VECTOR('',#1278,10.);
#298=VECTOR('',#1279,10.);
#299=VECTOR('',#1282,10.);
#300=VECTOR('',#1283,10.);
#301=VECTOR('',#1294,10.);
#302=VECTOR('',#1295,10.);
#303=VECTOR('',#1306,10.);
#304=VECTOR('',#1307,10.);
#305=VECTOR('',#1310,10.);
#306=VECTOR('',#1311,10.);
#307=VECTOR('',#1322,10.);
#308=VECTOR('',#1323,10.);
#309=VECTOR('',#1334,10.);
#310=VECTOR('',#1335,10.);
#311=VECTOR('',#1338,10.);
#312=VECTOR('',#1339,10.);
#313=VECTOR('',#1342,10.);
#314=VECTOR('',#1343,10.);
#315=VECTOR('',#1346,10.);
#316=VECTOR('',#1347,10.);
#317=VECTOR('',#1350,10.);
#318=VECTOR('',#1351,10.);
#319=VECTOR('',#1354,10.);
#320=VECTOR('',#1355,10.);
#321=VECTOR('',#1378,10.);
#322=VECTOR('',#1381,10.);
#323=VECTOR('',#1384,10.);
#324=VECTOR('',#1387,10.);
#325=VECTOR('',#1390,10.);
#326=VECTOR('',#1393,10.);
#327=VECTOR('',#1396,10.);
#328=VECTOR('',#1399,10.);
#329=VECTOR('',#1412,10.);
#330=VECTOR('',#1413,10.);
#331=VECTOR('',#1426,10.);
#332=VECTOR('',#1427,10.);
#333=VECTOR('',#1430,10.);
#334=VECTOR('',#1431,10.);
#335=VECTOR('',#1442,10.);
#336=VECTOR('',#1443,10.);
#337=VECTOR('',#1454,10.);
#338=VECTOR('',#1455,10.);
#339=VECTOR('',#1458,10.);
#340=VECTOR('',#1459,10.);
#341=VECTOR('',#1470,10.);
#342=VECTOR('',#1471,10.);
#343=VECTOR('',#1482,10.);
#344=VECTOR('',#1483,10.);
#345=VECTOR('',#1486,10.);
#346=VECTOR('',#1487,10.);
#347=VECTOR('',#1498,10.);
#348=VECTOR('',#1499,10.);
#349=VECTOR('',#1510,10.);
#350=VECTOR('',#1511,10.);
#351=VECTOR('',#1514,10.);
#352=VECTOR('',#1515,10.);
#353=VECTOR('',#1518,10.);
#354=VECTOR('',#1519,10.);
#355=VECTOR('',#1522,10.);
#356=VECTOR('',#1523,10.);
#357=VECTOR('',#1526,10.);
#358=VECTOR('',#1527,10.);
#359=VECTOR('',#1530,10.);
#360=VECTOR('',#1531,10.);
#361=CIRCLE('',#1061,0.5);
#362=CIRCLE('',#1062,0.5);
#363=CIRCLE('',#1063,0.5);
#364=CIRCLE('',#1064,0.5);
#365=CIRCLE('',#1065,0.5);
#366=CIRCLE('',#1066,0.5);
#367=CIRCLE('',#1067,0.5);
#368=CIRCLE('',#1068,0.5);
#369=CIRCLE('',#1070,0.5);
#370=CIRCLE('',#1071,0.5);
#371=CIRCLE('',#1072,0.5);
#372=CIRCLE('',#1073,1.);
#373=CIRCLE('',#1076,0.5);
#374=CIRCLE('',#1077,0.5);
#375=CIRCLE('',#1078,0.5);
#376=CIRCLE('',#1079,1.);
#377=CIRCLE('',#1083,0.5);
#378=CIRCLE('',#1084,0.5);
#379=CIRCLE('',#1085,0.5);
#380=CIRCLE('',#1088,0.5);
#381=CIRCLE('',#1089,0.5);
#382=CIRCLE('',#1090,0.5);
#383=CIRCLE('',#1094,0.5);
#384=CIRCLE('',#1095,0.5);
#385=CIRCLE('',#1096,0.5);
#386=CIRCLE('',#1099,0.5);
#387=CIRCLE('',#1100,0.5);
#388=CIRCLE('',#1101,0.5);
#389=CIRCLE('',#1105,0.5);
#390=CIRCLE('',#1106,0.5);
#391=CIRCLE('',#1107,0.5);
#392=CIRCLE('',#1110,0.5);
#393=CIRCLE('',#1111,0.5);
#394=CIRCLE('',#1112,0.5);
#395=CIRCLE('',#1129,0.5);
#396=CIRCLE('',#1130,0.5);
#397=CIRCLE('',#1131,0.5);
#398=CIRCLE('',#1132,0.5);
#399=CIRCLE('',#1133,0.5);
#400=CIRCLE('',#1134,0.5);
#401=CIRCLE('',#1135,0.5);
#402=CIRCLE('',#1136,0.5);
#403=CIRCLE('',#1138,0.5);
#404=CIRCLE('',#1139,1.);
#405=CIRCLE('',#1140,0.5);
#406=CIRCLE('',#1141,0.5);
#407=CIRCLE('',#1144,0.5);
#408=CIRCLE('',#1145,1.);
#409=CIRCLE('',#1146,0.5);
#410=CIRCLE('',#1147,0.5);
#411=CIRCLE('',#1151,0.5);
#412=CIRCLE('',#1152,0.5);
#413=CIRCLE('',#1153,0.5);
#414=CIRCLE('',#1156,0.5);
#415=CIRCLE('',#1157,0.5);
#416=CIRCLE('',#1158,0.5);
#417=CIRCLE('',#1162,0.5);
#418=CIRCLE('',#1163,0.5);
#419=CIRCLE('',#1164,0.5);
#420=CIRCLE('',#1167,0.5);
#421=CIRCLE('',#1168,0.5);
#422=CIRCLE('',#1169,0.5);
#423=CIRCLE('',#1173,0.5);
#424=CIRCLE('',#1174,0.5);
#425=CIRCLE('',#1175,0.5);
#426=CIRCLE('',#1178,0.5);
#427=CIRCLE('',#1179,0.5);
#428=CIRCLE('',#1180,0.5);
#429=VERTEX_POINT('',#1552);
#430=VERTEX_POINT('',#1553);
#431=VERTEX_POINT('',#1555);
#432=VERTEX_POINT('',#1557);
#433=VERTEX_POINT('',#1559);
#434=VERTEX_POINT('',#1561);
#435=VERTEX_POINT('',#1563);
#436=VERTEX_POINT('',#1565);
#437=VERTEX_POINT('',#1567);
#438=VERTEX_POINT('',#1569);
#439=VERTEX_POINT('',#1571);
#440=VERTEX_POINT('',#1573);
#441=VERTEX_POINT('',#1575);
#442=VERTEX_POINT('',#1577);
#443=VERTEX_POINT('',#1579);
#444=VERTEX_POINT('',#1581);
#445=VERTEX_POINT('',#1585);
#446=VERTEX_POINT('',#1586);
#447=VERTEX_POINT('',#1588);
#448=VERTEX_POINT('',#1590);
#449=VERTEX_POINT('',#1597);
#450=VERTEX_POINT('',#1598);
#451=VERTEX_POINT('',#1600);
#452=VERTEX_POINT('',#1602);
#453=VERTEX_POINT('',#1612);
#454=VERTEX_POINT('',#1613);
#455=VERTEX_POINT('',#1615);
#456=VERTEX_POINT('',#1622);
#457=VERTEX_POINT('',#1623);
#458=VERTEX_POINT('',#1625);
#459=VERTEX_POINT('',#1635);
#460=VERTEX_POINT('',#1636);
#461=VERTEX_POINT('',#1638);
#462=VERTEX_POINT('',#1645);
#463=VERTEX_POINT('',#1646);
#464=VERTEX_POINT('',#1648);
#465=VERTEX_POINT('',#1658);
#466=VERTEX_POINT('',#1659);
#467=VERTEX_POINT('',#1661);
#468=VERTEX_POINT('',#1668);
#469=VERTEX_POINT('',#1669);
#470=VERTEX_POINT('',#1671);
#471=VERTEX_POINT('',#1702);
#472=VERTEX_POINT('',#1703);
#473=VERTEX_POINT('',#1705);
#474=VERTEX_POINT('',#1707);
#475=VERTEX_POINT('',#1709);
#476=VERTEX_POINT('',#1711);
#477=VERTEX_POINT('',#1713);
#478=VERTEX_POINT('',#1715);
#479=VERTEX_POINT('',#1717);
#480=VERTEX_POINT('',#1719);
#481=VERTEX_POINT('',#1721);
#482=VERTEX_POINT('',#1723);
#483=VERTEX_POINT('',#1725);
#484=VERTEX_POINT('',#1727);
#485=VERTEX_POINT('',#1729);
#486=VERTEX_POINT('',#1731);
#487=VERTEX_POINT('',#1735);
#488=VERTEX_POINT('',#1736);
#489=VERTEX_POINT('',#1738);
#490=VERTEX_POINT('',#1740);
#491=VERTEX_POINT('',#1747);
#492=VERTEX_POINT('',#1748);
#493=VERTEX_POINT('',#1750);
#494=VERTEX_POINT('',#1752);
#495=VERTEX_POINT('',#1762);
#496=VERTEX_POINT('',#1763);
#497=VERTEX_POINT('',#1765);
#498=VERTEX_POINT('',#1772);
#499=VERTEX_POINT('',#1773);
#500=VERTEX_POINT('',#1775);
#501=VERTEX_POINT('',#1785);
#502=VERTEX_POINT('',#1786);
#503=VERTEX_POINT('',#1788);
#504=VERTEX_POINT('',#1795);
#505=VERTEX_POINT('',#1796);
#506=VERTEX_POINT('',#1798);
#507=VERTEX_POINT('',#1808);
#508=VERTEX_POINT('',#1809);
#509=VERTEX_POINT('',#1811);
#510=VERTEX_POINT('',#1818);
#511=VERTEX_POINT('',#1819);
#512=VERTEX_POINT('',#1821);
#513=EDGE_CURVE('',#429,#430,#361,.T.);
#514=EDGE_CURVE('',#430,#431,#201,.T.);
#515=EDGE_CURVE('',#431,#432,#362,.T.);
#516=EDGE_CURVE('',#432,#433,#202,.T.);
#517=EDGE_CURVE('',#433,#434,#363,.T.);
#518=EDGE_CURVE('',#434,#435,#203,.T.);
#519=EDGE_CURVE('',#435,#436,#364,.T.);
#520=EDGE_CURVE('',#436,#437,#204,.T.);
#521=EDGE_CURVE('',#437,#438,#365,.T.);
#522=EDGE_CURVE('',#438,#439,#205,.T.);
#523=EDGE_CURVE('',#439,#440,#366,.T.);
#524=EDGE_CURVE('',#440,#441,#206,.T.);
#525=EDGE_CURVE('',#441,#442,#367,.T.);
#526=EDGE_CURVE('',#442,#443,#207,.T.);
#527=EDGE_CURVE('',#443,#444,#368,.T.);
#528=EDGE_CURVE('',#444,#429,#208,.T.);
#529=EDGE_CURVE('',#445,#446,#369,.T.);
#530=EDGE_CURVE('',#447,#445,#370,.F.);
#531=EDGE_CURVE('',#448,#447,#371,.T.);
#532=EDGE_CURVE('',#448,#446,#372,.T.);
#533=EDGE_CURVE('',#431,#447,#209,.T.);
#534=EDGE_CURVE('',#445,#432,#210,.T.);
#535=EDGE_CURVE('',#449,#450,#373,.T.);
#536=EDGE_CURVE('',#451,#449,#374,.F.);
#537=EDGE_CURVE('',#452,#451,#375,.T.);
#538=EDGE_CURVE('',#452,#450,#376,.T.);
#539=EDGE_CURVE('',#433,#451,#211,.T.);
#540=EDGE_CURVE('',#449,#434,#212,.T.);
#541=EDGE_CURVE('',#446,#452,#213,.T.);
#542=EDGE_CURVE('',#451,#445,#214,.T.);
#543=EDGE_CURVE('',#453,#454,#377,.F.);
#544=EDGE_CURVE('',#455,#453,#378,.F.);
#545=EDGE_CURVE('',#454,#455,#379,.F.);
#546=EDGE_CURVE('',#429,#455,#215,.T.);
#547=EDGE_CURVE('',#453,#430,#216,.T.);
#548=EDGE_CURVE('',#456,#457,#380,.F.);
#549=EDGE_CURVE('',#458,#456,#381,.F.);
#550=EDGE_CURVE('',#457,#458,#382,.F.);
#551=EDGE_CURVE('',#458,#435,#217,.T.);
#552=EDGE_CURVE('',#456,#436,#218,.T.);
#553=EDGE_CURVE('',#450,#457,#219,.T.);
#554=EDGE_CURVE('',#458,#449,#220,.T.);
#555=EDGE_CURVE('',#459,#460,#383,.F.);
#556=EDGE_CURVE('',#461,#459,#384,.F.);
#557=EDGE_CURVE('',#460,#461,#385,.F.);
#558=EDGE_CURVE('',#443,#461,#221,.T.);
#559=EDGE_CURVE('',#459,#444,#222,.T.);
#560=EDGE_CURVE('',#462,#463,#386,.F.);
#561=EDGE_CURVE('',#464,#462,#387,.F.);
#562=EDGE_CURVE('',#463,#464,#388,.F.);
#563=EDGE_CURVE('',#437,#464,#223,.T.);
#564=EDGE_CURVE('',#462,#438,#224,.T.);
#565=EDGE_CURVE('',#457,#463,#225,.T.);
#566=EDGE_CURVE('',#464,#456,#226,.T.);
#567=EDGE_CURVE('',#465,#466,#389,.F.);
#568=EDGE_CURVE('',#467,#465,#390,.F.);
#569=EDGE_CURVE('',#466,#467,#391,.F.);
#570=EDGE_CURVE('',#441,#467,#227,.T.);
#571=EDGE_CURVE('',#465,#442,#228,.T.);
#572=EDGE_CURVE('',#468,#469,#392,.F.);
#573=EDGE_CURVE('',#470,#468,#393,.F.);
#574=EDGE_CURVE('',#469,#470,#394,.F.);
#575=EDGE_CURVE('',#439,#470,#229,.T.);
#576=EDGE_CURVE('',#468,#440,#230,.T.);
#577=EDGE_CURVE('',#463,#469,#231,.T.);
#578=EDGE_CURVE('',#470,#462,#232,.T.);
#579=EDGE_CURVE('',#469,#466,#233,.T.);
#580=EDGE_CURVE('',#467,#468,#234,.T.);
#581=EDGE_CURVE('',#466,#460,#235,.T.);
#582=EDGE_CURVE('',#461,#465,#236,.T.);
#583=EDGE_CURVE('',#460,#454,#237,.T.);
#584=EDGE_CURVE('',#455,#459,#238,.T.);
#585=EDGE_CURVE('',#454,#448,#239,.T.);
#586=EDGE_CURVE('',#447,#453,#240,.T.);
#587=EDGE_CURVE('',#471,#472,#395,.T.);
#588=EDGE_CURVE('',#472,#473,#241,.T.);
#589=EDGE_CURVE('',#473,#474,#396,.T.);
#590=EDGE_CURVE('',#474,#475,#242,.T.);
#591=EDGE_CURVE('',#475,#476,#397,.T.);
#592=EDGE_CURVE('',#476,#477,#243,.T.);
#593=EDGE_CURVE('',#477,#478,#398,.T.);
#594=EDGE_CURVE('',#478,#479,#244,.T.);
#595=EDGE_CURVE('',#479,#480,#399,.T.);
#596=EDGE_CURVE('',#480,#481,#245,.T.);
#597=EDGE_CURVE('',#481,#482,#400,.T.);
#598=EDGE_CURVE('',#482,#483,#246,.T.);
#599=EDGE_CURVE('',#483,#484,#401,.T.);
#600=EDGE_CURVE('',#484,#485,#247,.T.);
#601=EDGE_CURVE('',#485,#486,#402,.T.);
#602=EDGE_CURVE('',#486,#471,#248,.T.);
#603=EDGE_CURVE('',#487,#488,#403,.T.);
#604=EDGE_CURVE('',#489,#488,#404,.T.);
#605=EDGE_CURVE('',#489,#490,#405,.T.);
#606=EDGE_CURVE('',#490,#487,#406,.F.);
#607=EDGE_CURVE('',#487,#485,#249,.T.);
#608=EDGE_CURVE('',#486,#490,#250,.T.);
#609=EDGE_CURVE('',#491,#492,#407,.T.);
#610=EDGE_CURVE('',#493,#492,#408,.T.);
#611=EDGE_CURVE('',#493,#494,#409,.T.);
#612=EDGE_CURVE('',#494,#491,#410,.F.);
#613=EDGE_CURVE('',#491,#483,#251,.T.);
#614=EDGE_CURVE('',#484,#494,#252,.T.);
#615=EDGE_CURVE('',#494,#487,#253,.T.);
#616=EDGE_CURVE('',#488,#493,#254,.T.);
#617=EDGE_CURVE('',#495,#496,#411,.F.);
#618=EDGE_CURVE('',#496,#497,#412,.F.);
#619=EDGE_CURVE('',#497,#495,#413,.F.);
#620=EDGE_CURVE('',#495,#471,#255,.T.);
#621=EDGE_CURVE('',#497,#472,#256,.T.);
#622=EDGE_CURVE('',#498,#499,#414,.F.);
#623=EDGE_CURVE('',#499,#500,#415,.F.);
#624=EDGE_CURVE('',#500,#498,#416,.F.);
#625=EDGE_CURVE('',#498,#481,#257,.T.);
#626=EDGE_CURVE('',#482,#500,#258,.T.);
#627=EDGE_CURVE('',#500,#491,#259,.T.);
#628=EDGE_CURVE('',#492,#499,#260,.T.);
#629=EDGE_CURVE('',#501,#502,#417,.F.);
#630=EDGE_CURVE('',#502,#503,#418,.F.);
#631=EDGE_CURVE('',#503,#501,#419,.F.);
#632=EDGE_CURVE('',#501,#473,#261,.T.);
#633=EDGE_CURVE('',#474,#503,#262,.T.);
#634=EDGE_CURVE('',#504,#505,#420,.F.);
#635=EDGE_CURVE('',#505,#506,#421,.F.);
#636=EDGE_CURVE('',#506,#504,#422,.F.);
#637=EDGE_CURVE('',#504,#479,#263,.T.);
#638=EDGE_CURVE('',#480,#506,#264,.T.);
#639=EDGE_CURVE('',#506,#498,#265,.T.);
#640=EDGE_CURVE('',#499,#505,#266,.T.);
#641=EDGE_CURVE('',#507,#508,#423,.F.);
#642=EDGE_CURVE('',#508,#509,#424,.F.);
#643=EDGE_CURVE('',#509,#507,#425,.F.);
#644=EDGE_CURVE('',#507,#475,#267,.T.);
#645=EDGE_CURVE('',#476,#509,#268,.T.);
#646=EDGE_CURVE('',#510,#511,#426,.F.);
#647=EDGE_CURVE('',#511,#512,#427,.F.);
#648=EDGE_CURVE('',#512,#510,#428,.F.);
#649=EDGE_CURVE('',#510,#477,#269,.T.);
#650=EDGE_CURVE('',#478,#512,#270,.T.);
#651=EDGE_CURVE('',#512,#504,#271,.T.);
#652=EDGE_CURVE('',#505,#511,#272,.T.);
#653=EDGE_CURVE('',#509,#510,#273,.T.);
#654=EDGE_CURVE('',#511,#508,#274,.T.);
#655=EDGE_CURVE('',#503,#507,#275,.T.);
#656=EDGE_CURVE('',#508,#502,#276,.T.);
#657=EDGE_CURVE('',#497,#501,#277,.T.);
#658=EDGE_CURVE('',#502,#496,#278,.T.);
#659=EDGE_CURVE('',#490,#495,#279,.T.);
#660=EDGE_CURVE('',#496,#489,#280,.T.);
#661=ORIENTED_EDGE('',*,*,#513,.T.);
#662=ORIENTED_EDGE('',*,*,#514,.T.);
#663=ORIENTED_EDGE('',*,*,#515,.T.);
#664=ORIENTED_EDGE('',*,*,#516,.T.);
#665=ORIENTED_EDGE('',*,*,#517,.T.);
#666=ORIENTED_EDGE('',*,*,#518,.T.);
#667=ORIENTED_EDGE('',*,*,#519,.T.);
#668=ORIENTED_EDGE('',*,*,#520,.T.);
#669=ORIENTED_EDGE('',*,*,#521,.T.);
#670=ORIENTED_EDGE('',*,*,#522,.T.);
#671=ORIENTED_EDGE('',*,*,#523,.T.);
#672=ORIENTED_EDGE('',*,*,#524,.T.);
#673=ORIENTED_EDGE('',*,*,#525,.T.);
#674=ORIENTED_EDGE('',*,*,#526,.T.);
#675=ORIENTED_EDGE('',*,*,#527,.T.);
#676=ORIENTED_EDGE('',*,*,#528,.T.);
#677=ORIENTED_EDGE('',*,*,#529,.F.);
#678=ORIENTED_EDGE('',*,*,#530,.F.);
#679=ORIENTED_EDGE('',*,*,#531,.F.);
#680=ORIENTED_EDGE('',*,*,#532,.T.);
#681=ORIENTED_EDGE('',*,*,#533,.T.);
#682=ORIENTED_EDGE('',*,*,#530,.T.);
#683=ORIENTED_EDGE('',*,*,#534,.T.);
#684=ORIENTED_EDGE('',*,*,#515,.F.);
#685=ORIENTED_EDGE('',*,*,#535,.F.);
#686=ORIENTED_EDGE('',*,*,#536,.F.);
#687=ORIENTED_EDGE('',*,*,#537,.F.);
#688=ORIENTED_EDGE('',*,*,#538,.T.);
#689=ORIENTED_EDGE('',*,*,#539,.T.);
#690=ORIENTED_EDGE('',*,*,#536,.T.);
#691=ORIENTED_EDGE('',*,*,#540,.T.);
#692=ORIENTED_EDGE('',*,*,#517,.F.);
#693=ORIENTED_EDGE('',*,*,#529,.T.);
#694=ORIENTED_EDGE('',*,*,#541,.T.);
#695=ORIENTED_EDGE('',*,*,#537,.T.);
#696=ORIENTED_EDGE('',*,*,#542,.T.);
#697=ORIENTED_EDGE('',*,*,#543,.F.);
#698=ORIENTED_EDGE('',*,*,#544,.F.);
#699=ORIENTED_EDGE('',*,*,#545,.F.);
#700=ORIENTED_EDGE('',*,*,#546,.T.);
#701=ORIENTED_EDGE('',*,*,#544,.T.);
#702=ORIENTED_EDGE('',*,*,#547,.T.);
#703=ORIENTED_EDGE('',*,*,#513,.F.);
#704=ORIENTED_EDGE('',*,*,#548,.F.);
#705=ORIENTED_EDGE('',*,*,#549,.F.);
#706=ORIENTED_EDGE('',*,*,#550,.F.);
#707=ORIENTED_EDGE('',*,*,#551,.F.);
#708=ORIENTED_EDGE('',*,*,#549,.T.);
#709=ORIENTED_EDGE('',*,*,#552,.T.);
#710=ORIENTED_EDGE('',*,*,#519,.F.);
#711=ORIENTED_EDGE('',*,*,#535,.T.);
#712=ORIENTED_EDGE('',*,*,#553,.T.);
#713=ORIENTED_EDGE('',*,*,#550,.T.);
#714=ORIENTED_EDGE('',*,*,#554,.T.);
#715=ORIENTED_EDGE('',*,*,#555,.F.);
#716=ORIENTED_EDGE('',*,*,#556,.F.);
#717=ORIENTED_EDGE('',*,*,#557,.F.);
#718=ORIENTED_EDGE('',*,*,#558,.T.);
#719=ORIENTED_EDGE('',*,*,#556,.T.);
#720=ORIENTED_EDGE('',*,*,#559,.T.);
#721=ORIENTED_EDGE('',*,*,#527,.F.);
#722=ORIENTED_EDGE('',*,*,#560,.F.);
#723=ORIENTED_EDGE('',*,*,#561,.F.);
#724=ORIENTED_EDGE('',*,*,#562,.F.);
#725=ORIENTED_EDGE('',*,*,#563,.T.);
#726=ORIENTED_EDGE('',*,*,#561,.T.);
#727=ORIENTED_EDGE('',*,*,#564,.T.);
#728=ORIENTED_EDGE('',*,*,#521,.F.);
#729=ORIENTED_EDGE('',*,*,#548,.T.);
#730=ORIENTED_EDGE('',*,*,#565,.T.);
#731=ORIENTED_EDGE('',*,*,#562,.T.);
#732=ORIENTED_EDGE('',*,*,#566,.T.);
#733=ORIENTED_EDGE('',*,*,#567,.F.);
#734=ORIENTED_EDGE('',*,*,#568,.F.);
#735=ORIENTED_EDGE('',*,*,#569,.F.);
#736=ORIENTED_EDGE('',*,*,#570,.T.);
#737=ORIENTED_EDGE('',*,*,#568,.T.);
#738=ORIENTED_EDGE('',*,*,#571,.T.);
#739=ORIENTED_EDGE('',*,*,#525,.F.);
#740=ORIENTED_EDGE('',*,*,#572,.F.);
#741=ORIENTED_EDGE('',*,*,#573,.F.);
#742=ORIENTED_EDGE('',*,*,#574,.F.);
#743=ORIENTED_EDGE('',*,*,#575,.T.);
#744=ORIENTED_EDGE('',*,*,#573,.T.);
#745=ORIENTED_EDGE('',*,*,#576,.T.);
#746=ORIENTED_EDGE('',*,*,#523,.F.);
#747=ORIENTED_EDGE('',*,*,#560,.T.);
#748=ORIENTED_EDGE('',*,*,#577,.T.);
#749=ORIENTED_EDGE('',*,*,#574,.T.);
#750=ORIENTED_EDGE('',*,*,#578,.T.);
#751=ORIENTED_EDGE('',*,*,#572,.T.);
#752=ORIENTED_EDGE('',*,*,#579,.T.);
#753=ORIENTED_EDGE('',*,*,#569,.T.);
#754=ORIENTED_EDGE('',*,*,#580,.T.);
#755=ORIENTED_EDGE('',*,*,#567,.T.);
#756=ORIENTED_EDGE('',*,*,#581,.T.);
#757=ORIENTED_EDGE('',*,*,#557,.T.);
#758=ORIENTED_EDGE('',*,*,#582,.T.);
#759=ORIENTED_EDGE('',*,*,#555,.T.);
#760=ORIENTED_EDGE('',*,*,#583,.T.);
#761=ORIENTED_EDGE('',*,*,#545,.T.);
#762=ORIENTED_EDGE('',*,*,#584,.T.);
#763=ORIENTED_EDGE('',*,*,#543,.T.);
#764=ORIENTED_EDGE('',*,*,#585,.T.);
#765=ORIENTED_EDGE('',*,*,#531,.T.);
#766=ORIENTED_EDGE('',*,*,#586,.T.);
#767=ORIENTED_EDGE('',*,*,#534,.F.);
#768=ORIENTED_EDGE('',*,*,#542,.F.);
#769=ORIENTED_EDGE('',*,*,#539,.F.);
#770=ORIENTED_EDGE('',*,*,#516,.F.);
#771=ORIENTED_EDGE('',*,*,#540,.F.);
#772=ORIENTED_EDGE('',*,*,#554,.F.);
#773=ORIENTED_EDGE('',*,*,#551,.T.);
#774=ORIENTED_EDGE('',*,*,#518,.F.);
#775=ORIENTED_EDGE('',*,*,#552,.F.);
#776=ORIENTED_EDGE('',*,*,#566,.F.);
#777=ORIENTED_EDGE('',*,*,#563,.F.);
#778=ORIENTED_EDGE('',*,*,#520,.F.);
#779=ORIENTED_EDGE('',*,*,#564,.F.);
#780=ORIENTED_EDGE('',*,*,#578,.F.);
#781=ORIENTED_EDGE('',*,*,#575,.F.);
#782=ORIENTED_EDGE('',*,*,#522,.F.);
#783=ORIENTED_EDGE('',*,*,#538,.F.);
#784=ORIENTED_EDGE('',*,*,#541,.F.);
#785=ORIENTED_EDGE('',*,*,#532,.F.);
#786=ORIENTED_EDGE('',*,*,#585,.F.);
#787=ORIENTED_EDGE('',*,*,#583,.F.);
#788=ORIENTED_EDGE('',*,*,#581,.F.);
#789=ORIENTED_EDGE('',*,*,#579,.F.);
#790=ORIENTED_EDGE('',*,*,#577,.F.);
#791=ORIENTED_EDGE('',*,*,#565,.F.);
#792=ORIENTED_EDGE('',*,*,#553,.F.);
#793=ORIENTED_EDGE('',*,*,#570,.F.);
#794=ORIENTED_EDGE('',*,*,#524,.F.);
#795=ORIENTED_EDGE('',*,*,#576,.F.);
#796=ORIENTED_EDGE('',*,*,#580,.F.);
#797=ORIENTED_EDGE('',*,*,#558,.F.);
#798=ORIENTED_EDGE('',*,*,#526,.F.);
#799=ORIENTED_EDGE('',*,*,#571,.F.);
#800=ORIENTED_EDGE('',*,*,#582,.F.);
#801=ORIENTED_EDGE('',*,*,#546,.F.);
#802=ORIENTED_EDGE('',*,*,#528,.F.);
#803=ORIENTED_EDGE('',*,*,#559,.F.);
#804=ORIENTED_EDGE('',*,*,#584,.F.);
#805=ORIENTED_EDGE('',*,*,#533,.F.);
#806=ORIENTED_EDGE('',*,*,#514,.F.);
#807=ORIENTED_EDGE('',*,*,#547,.F.);
#808=ORIENTED_EDGE('',*,*,#586,.F.);
#809=ORIENTED_EDGE('',*,*,#587,.T.);
#810=ORIENTED_EDGE('',*,*,#588,.T.);
#811=ORIENTED_EDGE('',*,*,#589,.T.);
#812=ORIENTED_EDGE('',*,*,#590,.T.);
#813=ORIENTED_EDGE('',*,*,#591,.T.);
#814=ORIENTED_EDGE('',*,*,#592,.T.);
#815=ORIENTED_EDGE('',*,*,#593,.T.);
#816=ORIENTED_EDGE('',*,*,#594,.T.);
#817=ORIENTED_EDGE('',*,*,#595,.T.);
#818=ORIENTED_EDGE('',*,*,#596,.T.);
#819=ORIENTED_EDGE('',*,*,#597,.T.);
#820=ORIENTED_EDGE('',*,*,#598,.T.);
#821=ORIENTED_EDGE('',*,*,#599,.T.);
#822=ORIENTED_EDGE('',*,*,#600,.T.);
#823=ORIENTED_EDGE('',*,*,#601,.T.);
#824=ORIENTED_EDGE('',*,*,#602,.T.);
#825=ORIENTED_EDGE('',*,*,#603,.T.);
#826=ORIENTED_EDGE('',*,*,#604,.F.);
#827=ORIENTED_EDGE('',*,*,#605,.T.);
#828=ORIENTED_EDGE('',*,*,#606,.T.);
#829=ORIENTED_EDGE('',*,*,#607,.F.);
#830=ORIENTED_EDGE('',*,*,#606,.F.);
#831=ORIENTED_EDGE('',*,*,#608,.F.);
#832=ORIENTED_EDGE('',*,*,#601,.F.);
#833=ORIENTED_EDGE('',*,*,#609,.T.);
#834=ORIENTED_EDGE('',*,*,#610,.F.);
#835=ORIENTED_EDGE('',*,*,#611,.T.);
#836=ORIENTED_EDGE('',*,*,#612,.T.);
#837=ORIENTED_EDGE('',*,*,#613,.F.);
#838=ORIENTED_EDGE('',*,*,#612,.F.);
#839=ORIENTED_EDGE('',*,*,#614,.F.);
#840=ORIENTED_EDGE('',*,*,#599,.F.);
#841=ORIENTED_EDGE('',*,*,#603,.F.);
#842=ORIENTED_EDGE('',*,*,#615,.F.);
#843=ORIENTED_EDGE('',*,*,#611,.F.);
#844=ORIENTED_EDGE('',*,*,#616,.F.);
#845=ORIENTED_EDGE('',*,*,#617,.T.);
#846=ORIENTED_EDGE('',*,*,#618,.T.);
#847=ORIENTED_EDGE('',*,*,#619,.T.);
#848=ORIENTED_EDGE('',*,*,#620,.F.);
#849=ORIENTED_EDGE('',*,*,#619,.F.);
#850=ORIENTED_EDGE('',*,*,#621,.T.);
#851=ORIENTED_EDGE('',*,*,#587,.F.);
#852=ORIENTED_EDGE('',*,*,#622,.T.);
#853=ORIENTED_EDGE('',*,*,#623,.T.);
#854=ORIENTED_EDGE('',*,*,#624,.T.);
#855=ORIENTED_EDGE('',*,*,#625,.F.);
#856=ORIENTED_EDGE('',*,*,#624,.F.);
#857=ORIENTED_EDGE('',*,*,#626,.F.);
#858=ORIENTED_EDGE('',*,*,#597,.F.);
#859=ORIENTED_EDGE('',*,*,#609,.F.);
#860=ORIENTED_EDGE('',*,*,#627,.F.);
#861=ORIENTED_EDGE('',*,*,#623,.F.);
#862=ORIENTED_EDGE('',*,*,#628,.F.);
#863=ORIENTED_EDGE('',*,*,#629,.T.);
#864=ORIENTED_EDGE('',*,*,#630,.T.);
#865=ORIENTED_EDGE('',*,*,#631,.T.);
#866=ORIENTED_EDGE('',*,*,#632,.F.);
#867=ORIENTED_EDGE('',*,*,#631,.F.);
#868=ORIENTED_EDGE('',*,*,#633,.F.);
#869=ORIENTED_EDGE('',*,*,#589,.F.);
#870=ORIENTED_EDGE('',*,*,#634,.T.);
#871=ORIENTED_EDGE('',*,*,#635,.T.);
#872=ORIENTED_EDGE('',*,*,#636,.T.);
#873=ORIENTED_EDGE('',*,*,#637,.F.);
#874=ORIENTED_EDGE('',*,*,#636,.F.);
#875=ORIENTED_EDGE('',*,*,#638,.F.);
#876=ORIENTED_EDGE('',*,*,#595,.F.);
#877=ORIENTED_EDGE('',*,*,#622,.F.);
#878=ORIENTED_EDGE('',*,*,#639,.F.);
#879=ORIENTED_EDGE('',*,*,#635,.F.);
#880=ORIENTED_EDGE('',*,*,#640,.F.);
#881=ORIENTED_EDGE('',*,*,#641,.T.);
#882=ORIENTED_EDGE('',*,*,#642,.T.);
#883=ORIENTED_EDGE('',*,*,#643,.T.);
#884=ORIENTED_EDGE('',*,*,#644,.F.);
#885=ORIENTED_EDGE('',*,*,#643,.F.);
#886=ORIENTED_EDGE('',*,*,#645,.F.);
#887=ORIENTED_EDGE('',*,*,#591,.F.);
#888=ORIENTED_EDGE('',*,*,#646,.T.);
#889=ORIENTED_EDGE('',*,*,#647,.T.);
#890=ORIENTED_EDGE('',*,*,#648,.T.);
#891=ORIENTED_EDGE('',*,*,#649,.F.);
#892=ORIENTED_EDGE('',*,*,#648,.F.);
#893=ORIENTED_EDGE('',*,*,#650,.F.);
#894=ORIENTED_EDGE('',*,*,#593,.F.);
#895=ORIENTED_EDGE('',*,*,#634,.F.);
#896=ORIENTED_EDGE('',*,*,#651,.F.);
#897=ORIENTED_EDGE('',*,*,#647,.F.);
#898=ORIENTED_EDGE('',*,*,#652,.F.);
#899=ORIENTED_EDGE('',*,*,#646,.F.);
#900=ORIENTED_EDGE('',*,*,#653,.F.);
#901=ORIENTED_EDGE('',*,*,#642,.F.);
#902=ORIENTED_EDGE('',*,*,#654,.F.);
#903=ORIENTED_EDGE('',*,*,#641,.F.);
#904=ORIENTED_EDGE('',*,*,#655,.F.);
#905=ORIENTED_EDGE('',*,*,#630,.F.);
#906=ORIENTED_EDGE('',*,*,#656,.F.);
#907=ORIENTED_EDGE('',*,*,#629,.F.);
#908=ORIENTED_EDGE('',*,*,#657,.F.);
#909=ORIENTED_EDGE('',*,*,#618,.F.);
#910=ORIENTED_EDGE('',*,*,#658,.F.);
#911=ORIENTED_EDGE('',*,*,#617,.F.);
#912=ORIENTED_EDGE('',*,*,#659,.F.);
#913=ORIENTED_EDGE('',*,*,#605,.F.);
#914=ORIENTED_EDGE('',*,*,#660,.F.);
#915=ORIENTED_EDGE('',*,*,#607,.T.);
#916=ORIENTED_EDGE('',*,*,#600,.F.);
#917=ORIENTED_EDGE('',*,*,#614,.T.);
#918=ORIENTED_EDGE('',*,*,#615,.T.);
#919=ORIENTED_EDGE('',*,*,#613,.T.);
#920=ORIENTED_EDGE('',*,*,#598,.F.);
#921=ORIENTED_EDGE('',*,*,#626,.T.);
#922=ORIENTED_EDGE('',*,*,#627,.T.);
#923=ORIENTED_EDGE('',*,*,#625,.T.);
#924=ORIENTED_EDGE('',*,*,#596,.F.);
#925=ORIENTED_EDGE('',*,*,#638,.T.);
#926=ORIENTED_EDGE('',*,*,#639,.T.);
#927=ORIENTED_EDGE('',*,*,#637,.T.);
#928=ORIENTED_EDGE('',*,*,#594,.F.);
#929=ORIENTED_EDGE('',*,*,#650,.T.);
#930=ORIENTED_EDGE('',*,*,#651,.T.);
#931=ORIENTED_EDGE('',*,*,#610,.T.);
#932=ORIENTED_EDGE('',*,*,#628,.T.);
#933=ORIENTED_EDGE('',*,*,#640,.T.);
#934=ORIENTED_EDGE('',*,*,#652,.T.);
#935=ORIENTED_EDGE('',*,*,#654,.T.);
#936=ORIENTED_EDGE('',*,*,#656,.T.);
#937=ORIENTED_EDGE('',*,*,#658,.T.);
#938=ORIENTED_EDGE('',*,*,#660,.T.);
#939=ORIENTED_EDGE('',*,*,#604,.T.);
#940=ORIENTED_EDGE('',*,*,#616,.T.);
#941=ORIENTED_EDGE('',*,*,#645,.T.);
#942=ORIENTED_EDGE('',*,*,#653,.T.);
#943=ORIENTED_EDGE('',*,*,#649,.T.);
#944=ORIENTED_EDGE('',*,*,#592,.F.);
#945=ORIENTED_EDGE('',*,*,#633,.T.);
#946=ORIENTED_EDGE('',*,*,#655,.T.);
#947=ORIENTED_EDGE('',*,*,#644,.T.);
#948=ORIENTED_EDGE('',*,*,#590,.F.);
#949=ORIENTED_EDGE('',*,*,#621,.F.);
#950=ORIENTED_EDGE('',*,*,#657,.T.);
#951=ORIENTED_EDGE('',*,*,#632,.T.);
#952=ORIENTED_EDGE('',*,*,#588,.F.);
#953=ORIENTED_EDGE('',*,*,#608,.T.);
#954=ORIENTED_EDGE('',*,*,#659,.T.);
#955=ORIENTED_EDGE('',*,*,#620,.T.);
#956=ORIENTED_EDGE('',*,*,#602,.F.);
#957=PLANE('',#1060);
#958=PLANE('',#1119);
#959=PLANE('',#1120);
#960=PLANE('',#1121);
#961=PLANE('',#1122);
#962=PLANE('',#1123);
#963=PLANE('',#1124);
#964=PLANE('',#1125);
#965=PLANE('',#1126);
#966=PLANE('',#1127);
#967=PLANE('',#1128);
#968=PLANE('',#1187);
#969=PLANE('',#1188);
#970=PLANE('',#1189);
#971=PLANE('',#1190);
#972=PLANE('',#1191);
#973=PLANE('',#1192);
#974=PLANE('',#1193);
#975=PLANE('',#1194);
#976=PLANE('',#1195);
#977=ADVANCED_FACE('',(#65),#957,.F.);
#978=ADVANCED_FACE('',(#66),#61,.T.);
#979=ADVANCED_FACE('',(#67),#29,.F.);
#980=ADVANCED_FACE('',(#68),#62,.T.);
#981=ADVANCED_FACE('',(#69),#30,.F.);
#982=ADVANCED_FACE('',(#70),#31,.T.);
#983=ADVANCED_FACE('',(#71),#17,.T.);
#984=ADVANCED_FACE('',(#72),#32,.T.);
#985=ADVANCED_FACE('',(#73),#18,.T.);
#986=ADVANCED_FACE('',(#74),#33,.T.);
#987=ADVANCED_FACE('',(#75),#34,.T.);
#988=ADVANCED_FACE('',(#76),#19,.T.);
#989=ADVANCED_FACE('',(#77),#35,.T.);
#990=ADVANCED_FACE('',(#78),#20,.T.);
#991=ADVANCED_FACE('',(#79),#36,.T.);
#992=ADVANCED_FACE('',(#80),#37,.T.);
#993=ADVANCED_FACE('',(#81),#21,.T.);
#994=ADVANCED_FACE('',(#82),#38,.T.);
#995=ADVANCED_FACE('',(#83),#22,.T.);
#996=ADVANCED_FACE('',(#84),#39,.T.);
#997=ADVANCED_FACE('',(#85),#40,.T.);
#998=ADVANCED_FACE('',(#86),#41,.T.);
#999=ADVANCED_FACE('',(#87),#42,.T.);
#1000=ADVANCED_FACE('',(#88),#43,.T.);
#1001=ADVANCED_FACE('',(#89),#44,.T.);
#1002=ADVANCED_FACE('',(#90),#958,.T.);
#1003=ADVANCED_FACE('',(#91),#959,.T.);
#1004=ADVANCED_FACE('',(#92),#960,.T.);
#1005=ADVANCED_FACE('',(#93),#961,.T.);
#1006=ADVANCED_FACE('',(#94),#962,.T.);
#1007=ADVANCED_FACE('',(#95),#963,.T.);
#1008=ADVANCED_FACE('',(#96),#964,.T.);
#1009=ADVANCED_FACE('',(#97),#965,.T.);
#1010=ADVANCED_FACE('',(#98),#966,.T.);
#1011=ADVANCED_FACE('',(#99),#967,.T.);
#1012=ADVANCED_FACE('',(#100),#63,.T.);
#1013=ADVANCED_FACE('',(#101),#45,.F.);
#1014=ADVANCED_FACE('',(#102),#64,.T.);
#1015=ADVANCED_FACE('',(#103),#46,.F.);
#1016=ADVANCED_FACE('',(#104),#47,.T.);
#1017=ADVANCED_FACE('',(#105),#23,.T.);
#1018=ADVANCED_FACE('',(#106),#48,.T.);
#1019=ADVANCED_FACE('',(#107),#24,.T.);
#1020=ADVANCED_FACE('',(#108),#49,.T.);
#1021=ADVANCED_FACE('',(#109),#50,.T.);
#1022=ADVANCED_FACE('',(#110),#25,.T.);
#1023=ADVANCED_FACE('',(#111),#51,.T.);
#1024=ADVANCED_FACE('',(#112),#26,.T.);
#1025=ADVANCED_FACE('',(#113),#52,.T.);
#1026=ADVANCED_FACE('',(#114),#53,.T.);
#1027=ADVANCED_FACE('',(#115),#27,.T.);
#1028=ADVANCED_FACE('',(#116),#54,.T.);
#1029=ADVANCED_FACE('',(#117),#28,.T.);
#1030=ADVANCED_FACE('',(#118),#55,.T.);
#1031=ADVANCED_FACE('',(#119),#56,.T.);
#1032=ADVANCED_FACE('',(#120),#57,.T.);
#1033=ADVANCED_FACE('',(#121),#58,.T.);
#1034=ADVANCED_FACE('',(#122),#59,.T.);
#1035=ADVANCED_FACE('',(#123),#60,.T.);
#1036=ADVANCED_FACE('',(#124),#968,.F.);
#1037=ADVANCED_FACE('',(#125),#969,.F.);
#1038=ADVANCED_FACE('',(#126),#970,.F.);
#1039=ADVANCED_FACE('',(#127),#971,.F.);
#1040=ADVANCED_FACE('',(#128),#972,.F.);
#1041=ADVANCED_FACE('',(#129),#973,.F.);
#1042=ADVANCED_FACE('',(#130),#974,.F.);
#1043=ADVANCED_FACE('',(#131),#975,.F.);
#1044=ADVANCED_FACE('',(#132),#976,.F.);
#1045=CLOSED_SHELL('',(#977,#978,#979,#980,#981,#982,#983,#984,#985,#986,
#987,#988,#989,#990,#991,#992,#993,#994,#995,#996,#997,#998,#999,#1000,
#1001,#1002,#1003,#1004,#1005,#1006,#1007,#1008,#1009,#1010));
#1046=CLOSED_SHELL('',(#1011,#1012,#1013,#1014,#1015,#1016,#1017,#1018,
#1019,#1020,#1021,#1022,#1023,#1024,#1025,#1026,#1027,#1028,#1029,#1030,
#1031,#1032,#1033,#1034,#1035,#1036,#1037,#1038,#1039,#1040,#1041,#1042,
#1043,#1044));
#1047=DERIVED_UNIT_ELEMENT(#1049,1.);
#1048=DERIVED_UNIT_ELEMENT(#1856,-3.);
#1049=(
MASS_UNIT()
NAMED_UNIT(*)
SI_UNIT(.KILO.,.GRAM.)
);
#1050=DERIVED_UNIT((#1047,#1048));
#1051=MEASURE_REPRESENTATION_ITEM('density measure',
POSITIVE_RATIO_MEASURE(1060.),#1050);
#1052=PROPERTY_DEFINITION_REPRESENTATION(#1057,#1054);
#1053=PROPERTY_DEFINITION_REPRESENTATION(#1058,#1055);
#1054=REPRESENTATION('material name',(#1056),#1853);
#1055=REPRESENTATION('density',(#1051),#1853);
#1056=DESCRIPTIVE_REPRESENTATION_ITEM('Plastique ABS','Plastique ABS');
#1057=PROPERTY_DEFINITION('material property','material name',#1863);
#1058=PROPERTY_DEFINITION('material property','density of part',#1863);
#1059=AXIS2_PLACEMENT_3D('',#1550,#1196,#1197);
#1060=AXIS2_PLACEMENT_3D('',#1551,#1198,#1199);
#1061=AXIS2_PLACEMENT_3D('',#1554,#1200,#1201);
#1062=AXIS2_PLACEMENT_3D('',#1558,#1203,#1204);
#1063=AXIS2_PLACEMENT_3D('',#1562,#1206,#1207);
#1064=AXIS2_PLACEMENT_3D('',#1566,#1209,#1210);
#1065=AXIS2_PLACEMENT_3D('',#1570,#1212,#1213);
#1066=AXIS2_PLACEMENT_3D('',#1574,#1215,#1216);
#1067=AXIS2_PLACEMENT_3D('',#1578,#1218,#1219);
#1068=AXIS2_PLACEMENT_3D('',#1582,#1221,#1222);
#1069=AXIS2_PLACEMENT_3D('',#1584,#1224,#1225);
#1070=AXIS2_PLACEMENT_3D('',#1587,#1226,#1227);
#1071=AXIS2_PLACEMENT_3D('',#1589,#1228,#1229);
#1072=AXIS2_PLACEMENT_3D('',#1591,#1230,#1231);
#1073=AXIS2_PLACEMENT_3D('',#1592,#1232,#1233);
#1074=AXIS2_PLACEMENT_3D('',#1593,#1234,#1235);
#1075=AXIS2_PLACEMENT_3D('',#1596,#1238,#1239);
#1076=AXIS2_PLACEMENT_3D('',#1599,#1240,#1241);
#1077=AXIS2_PLACEMENT_3D('',#1601,#1242,#1243);
#1078=AXIS2_PLACEMENT_3D('',#1603,#1244,#1245);
#1079=AXIS2_PLACEMENT_3D('',#1604,#1246,#1247);
#1080=AXIS2_PLACEMENT_3D('',#1605,#1248,#1249);
#1081=AXIS2_PLACEMENT_3D('',#1608,#1252,#1253);
#1082=AXIS2_PLACEMENT_3D('',#1611,#1256,#1257);
#1083=AXIS2_PLACEMENT_3D('',#1614,#1258,#1259);
#1084=AXIS2_PLACEMENT_3D('',#1616,#1260,#1261);
#1085=AXIS2_PLACEMENT_3D('',#1617,#1262,#1263);
#1086=AXIS2_PLACEMENT_3D('',#1618,#1264,#1265);
#1087=AXIS2_PLACEMENT_3D('',#1621,#1268,#1269);
#1088=AXIS2_PLACEMENT_3D('',#1624,#1270,#1271);
#1089=AXIS2_PLACEMENT_3D('',#1626,#1272,#1273);
#1090=AXIS2_PLACEMENT_3D('',#1627,#1274,#1275);
#1091=AXIS2_PLACEMENT_3D('',#1628,#1276,#1277);
#1092=AXIS2_PLACEMENT_3D('',#1631,#1280,#1281);
#1093=AXIS2_PLACEMENT_3D('',#1634,#1284,#1285);
#1094=AXIS2_PLACEMENT_3D('',#1637,#1286,#1287);
#1095=AXIS2_PLACEMENT_3D('',#1639,#1288,#1289);
#1096=AXIS2_PLACEMENT_3D('',#1640,#1290,#1291);
#1097=AXIS2_PLACEMENT_3D('',#1641,#1292,#1293);
#1098=AXIS2_PLACEMENT_3D('',#1644,#1296,#1297);
#1099=AXIS2_PLACEMENT_3D('',#1647,#1298,#1299);
#1100=AXIS2_PLACEMENT_3D('',#1649,#1300,#1301);
#1101=AXIS2_PLACEMENT_3D('',#1650,#1302,#1303);
#1102=AXIS2_PLACEMENT_3D('',#1651,#1304,#1305);
#1103=AXIS2_PLACEMENT_3D('',#1654,#1308,#1309);
#1104=AXIS2_PLACEMENT_3D('',#1657,#1312,#1313);
#1105=AXIS2_PLACEMENT_3D('',#1660,#1314,#1315);
#1106=AXIS2_PLACEMENT_3D('',#1662,#1316,#1317);
#1107=AXIS2_PLACEMENT_3D('',#1663,#1318,#1319);
#1108=AXIS2_PLACEMENT_3D('',#1664,#1320,#1321);
#1109=AXIS2_PLACEMENT_3D('',#1667,#1324,#1325);
#1110=AXIS2_PLACEMENT_3D('',#1670,#1326,#1327);
#1111=AXIS2_PLACEMENT_3D('',#1672,#1328,#1329);
#1112=AXIS2_PLACEMENT_3D('',#1673,#1330,#1331);
#1113=AXIS2_PLACEMENT_3D('',#1674,#1332,#1333);
#1114=AXIS2_PLACEMENT_3D('',#1677,#1336,#1337);
#1115=AXIS2_PLACEMENT_3D('',#1680,#1340,#1341);
#1116=AXIS2_PLACEMENT_3D('',#1683,#1344,#1345);
#1117=AXIS2_PLACEMENT_3D('',#1686,#1348,#1349);
#1118=AXIS2_PLACEMENT_3D('',#1689,#1352,#1353);
#1119=AXIS2_PLACEMENT_3D('',#1692,#1356,#1357);
#1120=AXIS2_PLACEMENT_3D('',#1693,#1358,#1359);
#1121=AXIS2_PLACEMENT_3D('',#1694,#1360,#1361);
#1122=AXIS2_PLACEMENT_3D('',#1695,#1362,#1363);
#1123=AXIS2_PLACEMENT_3D('',#1696,#1364,#1365);
#1124=AXIS2_PLACEMENT_3D('',#1697,#1366,#1367);
#1125=AXIS2_PLACEMENT_3D('',#1698,#1368,#1369);
#1126=AXIS2_PLACEMENT_3D('',#1699,#1370,#1371);
#1127=AXIS2_PLACEMENT_3D('',#1700,#1372,#1373);
#1128=AXIS2_PLACEMENT_3D('',#1701,#1374,#1375);
#1129=AXIS2_PLACEMENT_3D('',#1704,#1376,#1377);
#1130=AXIS2_PLACEMENT_3D('',#1708,#1379,#1380);
#1131=AXIS2_PLACEMENT_3D('',#1712,#1382,#1383);
#1132=AXIS2_PLACEMENT_3D('',#1716,#1385,#1386);
#1133=AXIS2_PLACEMENT_3D('',#1720,#1388,#1389);
#1134=AXIS2_PLACEMENT_3D('',#1724,#1391,#1392);
#1135=AXIS2_PLACEMENT_3D('',#1728,#1394,#1395);
#1136=AXIS2_PLACEMENT_3D('',#1732,#1397,#1398);
#1137=AXIS2_PLACEMENT_3D('',#1734,#1400,#1401);
#1138=AXIS2_PLACEMENT_3D('',#1737,#1402,#1403);
#1139=AXIS2_PLACEMENT_3D('',#1739,#1404,#1405);
#1140=AXIS2_PLACEMENT_3D('',#1741,#1406,#1407);
#1141=AXIS2_PLACEMENT_3D('',#1742,#1408,#1409);
#1142=AXIS2_PLACEMENT_3D('',#1743,#1410,#1411);
#1143=AXIS2_PLACEMENT_3D('',#1746,#1414,#1415);
#1144=AXIS2_PLACEMENT_3D('',#1749,#1416,#1417);
#1145=AXIS2_PLACEMENT_3D('',#1751,#1418,#1419);
#1146=AXIS2_PLACEMENT_3D('',#1753,#1420,#1421);
#1147=AXIS2_PLACEMENT_3D('',#1754,#1422,#1423);
#1148=AXIS2_PLACEMENT_3D('',#1755,#1424,#1425);
#1149=AXIS2_PLACEMENT_3D('',#1758,#1428,#1429);
#1150=AXIS2_PLACEMENT_3D('',#1761,#1432,#1433);
#1151=AXIS2_PLACEMENT_3D('',#1764,#1434,#1435);
#1152=AXIS2_PLACEMENT_3D('',#1766,#1436,#1437);
#1153=AXIS2_PLACEMENT_3D('',#1767,#1438,#1439);
#1154=AXIS2_PLACEMENT_3D('',#1768,#1440,#1441);
#1155=AXIS2_PLACEMENT_3D('',#1771,#1444,#1445);
#1156=AXIS2_PLACEMENT_3D('',#1774,#1446,#1447);
#1157=AXIS2_PLACEMENT_3D('',#1776,#1448,#1449);
#1158=AXIS2_PLACEMENT_3D('',#1777,#1450,#1451);
#1159=AXIS2_PLACEMENT_3D('',#1778,#1452,#1453);
#1160=AXIS2_PLACEMENT_3D('',#1781,#1456,#1457);
#1161=AXIS2_PLACEMENT_3D('',#1784,#1460,#1461);
#1162=AXIS2_PLACEMENT_3D('',#1787,#1462,#1463);
#1163=AXIS2_PLACEMENT_3D('',#1789,#1464,#1465);
#1164=AXIS2_PLACEMENT_3D('',#1790,#1466,#1467);
#1165=AXIS2_PLACEMENT_3D('',#1791,#1468,#1469);
#1166=AXIS2_PLACEMENT_3D('',#1794,#1472,#1473);
#1167=AXIS2_PLACEMENT_3D('',#1797,#1474,#1475);
#1168=AXIS2_PLACEMENT_3D('',#1799,#1476,#1477);
#1169=AXIS2_PLACEMENT_3D('',#1800,#1478,#1479);
#1170=AXIS2_PLACEMENT_3D('',#1801,#1480,#1481);
#1171=AXIS2_PLACEMENT_3D('',#1804,#1484,#1485);
#1172=AXIS2_PLACEMENT_3D('',#1807,#1488,#1489);
#1173=AXIS2_PLACEMENT_3D('',#1810,#1490,#1491);
#1174=AXIS2_PLACEMENT_3D('',#1812,#1492,#1493);
#1175=AXIS2_PLACEMENT_3D('',#1813,#1494,#1495);
#1176=AXIS2_PLACEMENT_3D('',#1814,#1496,#1497);
#1177=AXIS2_PLACEMENT_3D('',#1817,#1500,#1501);
#1178=AXIS2_PLACEMENT_3D('',#1820,#1502,#1503);
#1179=AXIS2_PLACEMENT_3D('',#1822,#1504,#1505);
#1180=AXIS2_PLACEMENT_3D('',#1823,#1506,#1507);
#1181=AXIS2_PLACEMENT_3D('',#1824,#1508,#1509);
#1182=AXIS2_PLACEMENT_3D('',#1827,#1512,#1513);
#1183=AXIS2_PLACEMENT_3D('',#1830,#1516,#1517);
#1184=AXIS2_PLACEMENT_3D('',#1833,#1520,#1521);
#1185=AXIS2_PLACEMENT_3D('',#1836,#1524,#1525);
#1186=AXIS2_PLACEMENT_3D('',#1839,#1528,#1529);
#1187=AXIS2_PLACEMENT_3D('',#1842,#1532,#1533);
#1188=AXIS2_PLACEMENT_3D('',#1843,#1534,#1535);
#1189=AXIS2_PLACEMENT_3D('',#1844,#1536,#1537);
#1190=AXIS2_PLACEMENT_3D('',#1845,#1538,#1539);
#1191=AXIS2_PLACEMENT_3D('',#1846,#1540,#1541);
#1192=AXIS2_PLACEMENT_3D('',#1847,#1542,#1543);
#1193=AXIS2_PLACEMENT_3D('',#1848,#1544,#1545);
#1194=AXIS2_PLACEMENT_3D('',#1849,#1546,#1547);
#1195=AXIS2_PLACEMENT_3D('',#1850,#1548,#1549);
#1196=DIRECTION('axis',(0.,0.,1.));
#1197=DIRECTION('refdir',(1.,0.,0.));
#1198=DIRECTION('center_axis',(0.,0.,1.));
#1199=DIRECTION('ref_axis',(1.,0.,0.));
#1200=DIRECTION('center_axis',(0.,0.,-1.));
#1201=DIRECTION('ref_axis',(0.707106781186547,0.707106781186548,0.));
#1202=DIRECTION('',(0.,-1.,0.));
#1203=DIRECTION('center_axis',(0.,0.,1.));
#1204=DIRECTION('ref_axis',(-0.707106781186548,-0.707106781186548,0.));
#1205=DIRECTION('',(1.,0.,0.));
#1206=DIRECTION('center_axis',(0.,0.,1.));
#1207=DIRECTION('ref_axis',(0.707106781186674,-0.707106781186421,0.));
#1208=DIRECTION('',(-3.59342185637009E-13,1.,0.));
#1209=DIRECTION('center_axis',(0.,0.,-1.));
#1210=DIRECTION('ref_axis',(-0.707106781186675,0.70710678118642,0.));
#1211=DIRECTION('',(1.,0.,0.));
#1212=DIRECTION('center_axis',(0.,0.,-1.));
#1213=DIRECTION('ref_axis',(0.707106781186547,0.707106781186548,0.));
#1214=DIRECTION('',(1.66533453693773E-15,-1.,0.));
#1215=DIRECTION('center_axis',(0.,0.,-1.));
#1216=DIRECTION('ref_axis',(0.707106781186549,-0.707106781186546,0.));
#1217=DIRECTION('',(-1.,0.,0.));
#1218=DIRECTION('center_axis',(0.,0.,-1.));
#1219=DIRECTION('ref_axis',(-0.707106781186548,-0.707106781186548,0.));
#1220=DIRECTION('',(-2.77555756156289E-16,1.,0.));
#1221=DIRECTION('center_axis',(0.,0.,-1.));
#1222=DIRECTION('ref_axis',(-0.707106781186546,0.707106781186549,0.));
#1223=DIRECTION('',(1.,0.,0.));
#1224=DIRECTION('center_axis',(0.,0.,-1.));
#1225=DIRECTION('ref_axis',(-1.,0.,0.));
#1226=DIRECTION('center_axis',(1.,0.,0.));
#1227=DIRECTION('ref_axis',(0.,1.,0.));
#1228=DIRECTION('center_axis',(0.,0.,-1.));
#1229=DIRECTION('ref_axis',(-1.,0.,0.));
#1230=DIRECTION('center_axis',(0.,1.,0.));
#1231=DIRECTION('ref_axis',(0.,0.,1.));
#1232=DIRECTION('center_axis',(0.,0.,1.));
#1233=DIRECTION('ref_axis',(-0.707106781186548,-0.707106781186548,0.));
#1234=DIRECTION('center_axis',(0.,0.,1.));
#1235=DIRECTION('ref_axis',(-0.707106781186548,-0.707106781186548,0.));
#1236=DIRECTION('',(0.,0.,1.));
#1237=DIRECTION('',(0.,0.,-1.));
#1238=DIRECTION('center_axis',(0.,0.,-1.));
#1239=DIRECTION('ref_axis',(-1.,0.,0.));
#1240=DIRECTION('center_axis',(-3.59712259978551E-13,1.,0.));
#1241=DIRECTION('ref_axis',(-1.,-3.59712259978551E-13,0.));
#1242=DIRECTION('center_axis',(0.,0.,-1.));
#1243=DIRECTION('ref_axis',(0.,-1.,0.));
#1244=DIRECTION('center_axis',(-1.,0.,0.));
#1245=DIRECTION('ref_axis',(0.,0.,1.));
#1246=DIRECTION('center_axis',(0.,0.,1.));
#1247=DIRECTION('ref_axis',(0.707106781186674,-0.707106781186421,0.));
#1248=DIRECTION('center_axis',(0.,0.,1.));
#1249=DIRECTION('ref_axis',(0.707106781186674,-0.707106781186421,0.));
#1250=DIRECTION('',(0.,0.,1.));
#1251=DIRECTION('',(0.,0.,-1.));
#1252=DIRECTION('center_axis',(-1.,0.,0.));
#1253=DIRECTION('ref_axis',(0.,0.707106781186547,0.707106781186548));
#1254=DIRECTION('',(1.,0.,0.));
#1255=DIRECTION('',(-1.,0.,0.));
#1256=DIRECTION('center_axis',(-0.816496580927726,0.408248290463863,0.408248290463863));
#1257=DIRECTION('ref_axis',(0.577350269189626,0.577350269189626,0.577350269189626));
#1258=DIRECTION('center_axis',(0.,1.,0.));
#1259=DIRECTION('ref_axis',(1.,0.,0.));
#1260=DIRECTION('center_axis',(0.,0.,1.));
#1261=DIRECTION('ref_axis',(0.,1.,0.));
#1262=DIRECTION('center_axis',(1.,0.,0.));
#1263=DIRECTION('ref_axis',(0.,0.,1.));
#1264=DIRECTION('center_axis',(0.,0.,1.));
#1265=DIRECTION('ref_axis',(0.707106781186547,0.707106781186548,0.));
#1266=DIRECTION('',(0.,0.,1.));
#1267=DIRECTION('',(0.,0.,-1.));
#1268=DIRECTION('center_axis',(-0.408248290463985,0.408248290463838,-0.816496580927677));
#1269=DIRECTION('ref_axis',(-0.577350269189695,0.577350269189487,0.577350269189695));
#1270=DIRECTION('center_axis',(-1.,0.,-5.55111512312578E-16));
#1271=DIRECTION('ref_axis',(0.,1.,0.));
#1272=DIRECTION('center_axis',(0.,0.,1.));
#1273=DIRECTION('ref_axis',(-1.,-3.59712259978551E-13,0.));
#1274=DIRECTION('center_axis',(-3.59712259978551E-13,1.,0.));
#1275=DIRECTION('ref_axis',(0.,0.,1.));
#1276=DIRECTION('center_axis',(0.,0.,1.));
#1277=DIRECTION('ref_axis',(-0.707106781186675,0.70710678118642,0.));
#1278=DIRECTION('',(0.,0.,-1.));
#1279=DIRECTION('',(0.,0.,-1.));
#1280=DIRECTION('center_axis',(3.59342185637009E-13,-1.,0.));
#1281=DIRECTION('ref_axis',(-0.707106781186547,-2.54354978306772E-13,0.707106781186548));
#1282=DIRECTION('',(-3.59342185637009E-13,1.,0.));
#1283=DIRECTION('',(3.59342185637009E-13,-1.,0.));
#1284=DIRECTION('center_axis',(-0.816496580927727,-0.408248290463863,-0.408248290463861));
#1285=DIRECTION('ref_axis',(-0.577350269189625,0.577350269189628,0.577350269189625));
#1286=DIRECTION('center_axis',(-1.,0.,1.11022302462516E-15));
#1287=DIRECTION('ref_axis',(0.,1.,0.));
#1288=DIRECTION('center_axis',(0.,0.,1.));
#1289=DIRECTION('ref_axis',(-1.,0.,0.));
#1290=DIRECTION('center_axis',(-2.22044604925031E-15,1.,0.));
#1291=DIRECTION('ref_axis',(0.,0.,1.));
#1292=DIRECTION('center_axis',(0.,0.,1.));
#1293=DIRECTION('ref_axis',(-0.707106781186546,0.707106781186549,0.));
#1294=DIRECTION('',(0.,0.,1.));
#1295=DIRECTION('',(0.,0.,-1.));
#1296=DIRECTION('center_axis',(-0.816496580927726,0.408248290463863,0.408248290463863));
#1297=DIRECTION('ref_axis',(0.577350269189626,0.577350269189626,0.577350269189626));
#1298=DIRECTION('center_axis',(0.,1.,4.44089209850063E-15));
#1299=DIRECTION('ref_axis',(1.,0.,0.));
#1300=DIRECTION('center_axis',(0.,0.,1.));
#1301=DIRECTION('ref_axis',(0.,1.,0.));
#1302=DIRECTION('center_axis',(1.,-1.11022302462516E-15,0.));
#1303=DIRECTION('ref_axis',(0.,0.,1.));
#1304=DIRECTION('center_axis',(0.,0.,1.));
#1305=DIRECTION('ref_axis',(0.707106781186547,0.707106781186548,0.));
#1306=DIRECTION('',(0.,0.,1.));
#1307=DIRECTION('',(0.,0.,-1.));
#1308=DIRECTION('center_axis',(-1.,0.,0.));
#1309=DIRECTION('ref_axis',(0.,0.707106781186548,0.707106781186547));
#1310=DIRECTION('',(1.,0.,0.));
#1311=DIRECTION('',(-1.,0.,0.));
#1312=DIRECTION('center_axis',(-0.816496580927726,0.408248290463863,-0.408248290463863));
#1313=DIRECTION('ref_axis',(-0.577350269189626,-0.577350269189626,0.577350269189626));
#1314=DIRECTION('center_axis',(0.,-1.,0.));
#1315=DIRECTION('ref_axis',(-1.,0.,0.));
#1316=DIRECTION('center_axis',(0.,0.,1.));
#1317=DIRECTION('ref_axis',(0.,-1.,0.));
#1318=DIRECTION('center_axis',(-1.,0.,0.));
#1319=DIRECTION('ref_axis',(0.,0.,1.));
#1320=DIRECTION('center_axis',(0.,0.,1.));
#1321=DIRECTION('ref_axis',(-0.707106781186548,-0.707106781186548,0.));
#1322=DIRECTION('',(0.,0.,1.));
#1323=DIRECTION('',(0.,0.,-1.));
#1324=DIRECTION('center_axis',(0.408248290463864,-0.408248290463861,-0.816496580927727));
#1325=DIRECTION('ref_axis',(0.577350269189628,-0.577350269189624,0.577350269189625));
#1326=DIRECTION('center_axis',(1.,0.,-2.22044604925031E-15));
#1327=DIRECTION('ref_axis',(0.,-1.,0.));
#1328=DIRECTION('center_axis',(0.,0.,1.));
#1329=DIRECTION('ref_axis',(1.,2.22044604925031E-15,0.));
#1330=DIRECTION('center_axis',(2.22044604925031E-15,-1.,0.));
#1331=DIRECTION('ref_axis',(0.,0.,1.));
#1332=DIRECTION('center_axis',(0.,0.,1.));
#1333=DIRECTION('ref_axis',(0.707106781186549,-0.707106781186546,0.));
#1334=DIRECTION('',(0.,0.,1.));
#1335=DIRECTION('',(0.,0.,-1.));
#1336=DIRECTION('center_axis',(-1.66533453693773E-15,1.,0.));
#1337=DIRECTION('ref_axis',(0.707106781186548,1.57009245868377E-15,0.707106781186547));
#1338=DIRECTION('',(1.66533453693773E-15,-1.,0.));
#1339=DIRECTION('',(-1.66533453693773E-15,1.,0.));
#1340=DIRECTION('center_axis',(1.,0.,0.));
#1341=DIRECTION('ref_axis',(0.,-0.707106781186548,0.707106781186547));
#1342=DIRECTION('',(-1.,0.,0.));
#1343=DIRECTION('',(1.,0.,0.));
#1344=DIRECTION('center_axis',(2.77555756156289E-16,-1.,0.));
#1345=DIRECTION('ref_axis',(-0.707106781186548,0.,0.707106781186547));
#1346=DIRECTION('',(-2.77555756156289E-16,1.,0.));
#1347=DIRECTION('',(2.77555756156289E-16,-1.,0.));
#1348=DIRECTION('center_axis',(-1.,0.,0.));
#1349=DIRECTION('ref_axis',(0.,0.707106781186548,0.707106781186547));
#1350=DIRECTION('',(1.,0.,0.));
#1351=DIRECTION('',(-1.,0.,0.));
#1352=DIRECTION('center_axis',(0.,1.,0.));
#1353=DIRECTION('ref_axis',(0.707106781186547,0.,0.707106781186548));
#1354=DIRECTION('',(0.,-1.,0.));
#1355=DIRECTION('',(0.,1.,0.));
#1356=DIRECTION('center_axis',(0.,1.,0.));
#1357=DIRECTION('ref_axis',(-1.,0.,0.));
#1358=DIRECTION('center_axis',(-1.,-3.59342185637009E-13,0.));
#1359=DIRECTION('ref_axis',(3.59342185637009E-13,-1.,0.));
#1360=DIRECTION('center_axis',(0.,1.,0.));
#1361=DIRECTION('ref_axis',(-1.,0.,0.));
#1362=DIRECTION('center_axis',(1.,1.66533453693773E-15,0.));
#1363=DIRECTION('ref_axis',(-1.66533453693773E-15,1.,0.));
#1364=DIRECTION('center_axis',(0.,0.,1.));
#1365=DIRECTION('ref_axis',(1.,0.,0.));
#1366=DIRECTION('center_axis',(0.,-1.,0.));
#1367=DIRECTION('ref_axis',(1.,0.,0.));
#1368=DIRECTION('center_axis',(-1.,-2.77555756156289E-16,0.));
#1369=DIRECTION('ref_axis',(2.77555756156289E-16,-1.,0.));
#1370=DIRECTION('center_axis',(0.,1.,0.));
#1371=DIRECTION('ref_axis',(-1.,0.,0.));
#1372=DIRECTION('center_axis',(1.,0.,0.));
#1373=DIRECTION('ref_axis',(0.,1.,0.));
#1374=DIRECTION('center_axis',(0.,0.,1.));
#1375=DIRECTION('ref_axis',(1.,0.,0.));
#1376=DIRECTION('center_axis',(0.,0.,1.));
#1377=DIRECTION('ref_axis',(0.707106781186547,0.707106781186548,0.));
#1378=DIRECTION('',(-1.,0.,0.));
#1379=DIRECTION('center_axis',(0.,0.,1.));
#1380=DIRECTION('ref_axis',(-0.707106781186546,0.707106781186549,0.));
#1381=DIRECTION('',(2.77555756156289E-16,-1.,0.));
#1382=DIRECTION('center_axis',(0.,0.,1.));
#1383=DIRECTION('ref_axis',(-0.707106781186548,-0.707106781186548,0.));
#1384=DIRECTION('',(1.,0.,0.));
#1385=DIRECTION('center_axis',(0.,0.,1.));
#1386=DIRECTION('ref_axis',(0.707106781186549,-0.707106781186546,0.));
#1387=DIRECTION('',(-1.66533453693773E-15,1.,0.));
#1388=DIRECTION('center_axis',(0.,0.,1.));
#1389=DIRECTION('ref_axis',(0.707106781186547,0.707106781186548,0.));
#1390=DIRECTION('',(-1.,0.,0.));
#1391=DIRECTION('center_axis',(0.,0.,1.));
#1392=DIRECTION('ref_axis',(-0.707106781186675,0.70710678118642,0.));
#1393=DIRECTION('',(3.59342185637009E-13,-1.,0.));
#1394=DIRECTION('center_axis',(0.,0.,-1.));
#1395=DIRECTION('ref_axis',(0.707106781186674,-0.707106781186421,0.));
#1396=DIRECTION('',(-1.,0.,0.));
#1397=DIRECTION('center_axis',(0.,0.,-1.));
#1398=DIRECTION('ref_axis',(-0.707106781186548,-0.707106781186548,0.));
#1399=DIRECTION('',(0.,1.,0.));
#1400=DIRECTION('center_axis',(0.,0.,1.));
#1401=DIRECTION('ref_axis',(-1.,0.,0.));
#1402=DIRECTION('center_axis',(-1.,0.,0.));
#1403=DIRECTION('ref_axis',(0.,1.,0.));
#1404=DIRECTION('center_axis',(0.,0.,1.));
#1405=DIRECTION('ref_axis',(-0.707106781186548,-0.707106781186548,0.));
#1406=DIRECTION('center_axis',(0.,-1.,0.));
#1407=DIRECTION('ref_axis',(0.,0.,-1.));
#1408=DIRECTION('center_axis',(0.,0.,-1.));
#1409=DIRECTION('ref_axis',(-1.,0.,0.));
#1410=DIRECTION('center_axis',(0.,0.,1.));
#1411=DIRECTION('ref_axis',(-0.707106781186548,-0.707106781186548,0.));
#1412=DIRECTION('',(0.,0.,1.));
#1413=DIRECTION('',(0.,0.,-1.));
#1414=DIRECTION('center_axis',(0.,0.,1.));
#1415=DIRECTION('ref_axis',(-1.,0.,0.));
#1416=DIRECTION('center_axis',(3.59712259978551E-13,-1.,0.));
#1417=DIRECTION('ref_axis',(-1.,-3.59712259978551E-13,0.));
#1418=DIRECTION('center_axis',(0.,0.,1.));
#1419=DIRECTION('ref_axis',(0.707106781186674,-0.707106781186421,0.));
#1420=DIRECTION('center_axis',(1.,0.,0.));
#1421=DIRECTION('ref_axis',(0.,0.,-1.));
#1422=DIRECTION('center_axis',(0.,0.,-1.));
#1423=DIRECTION('ref_axis',(0.,-1.,0.));
#1424=DIRECTION('center_axis',(0.,0.,1.));
#1425=DIRECTION('ref_axis',(0.707106781186674,-0.707106781186421,0.));
#1426=DIRECTION('',(0.,0.,1.));
#1427=DIRECTION('',(0.,0.,-1.));
#1428=DIRECTION('center_axis',(1.,0.,0.));
#1429=DIRECTION('ref_axis',(0.,0.707106781186547,-0.707106781186548));
#1430=DIRECTION('',(-1.,0.,0.));
#1431=DIRECTION('',(1.,0.,0.));
#1432=DIRECTION('center_axis',(-0.816496580927726,0.408248290463863,-0.408248290463863));
#1433=DIRECTION('ref_axis',(0.577350269189626,0.577350269189626,-0.577350269189626));
#1434=DIRECTION('center_axis',(0.,-1.,0.));
#1435=DIRECTION('ref_axis',(1.,0.,0.));
#1436=DIRECTION('center_axis',(-1.,0.,0.));
#1437=DIRECTION('ref_axis',(0.,0.,-1.));
#1438=DIRECTION('center_axis',(0.,0.,1.));
#1439=DIRECTION('ref_axis',(0.,1.,0.));
#1440=DIRECTION('center_axis',(0.,0.,1.));
#1441=DIRECTION('ref_axis',(0.707106781186547,0.707106781186548,0.));
#1442=DIRECTION('',(0.,0.,1.));
#1443=DIRECTION('',(0.,0.,1.));
#1444=DIRECTION('center_axis',(-0.408248290463985,0.408248290463838,0.816496580927677));
#1445=DIRECTION('ref_axis',(-0.577350269189695,0.577350269189488,-0.577350269189694));
#1446=DIRECTION('center_axis',(1.,0.,-5.55111512312578E-16));
#1447=DIRECTION('ref_axis',(0.,1.,0.));
#1448=DIRECTION('center_axis',(3.59712259978551E-13,-1.,0.));
#1449=DIRECTION('ref_axis',(0.,0.,-1.));
#1450=DIRECTION('center_axis',(0.,0.,1.));
#1451=DIRECTION('ref_axis',(-1.,-3.59712259978551E-13,0.));
#1452=DIRECTION('center_axis',(0.,0.,1.));
#1453=DIRECTION('ref_axis',(-0.707106781186675,0.70710678118642,0.));
#1454=DIRECTION('',(0.,0.,1.));
#1455=DIRECTION('',(0.,0.,-1.));
#1456=DIRECTION('center_axis',(-3.59342185637009E-13,1.,0.));
#1457=DIRECTION('ref_axis',(-0.707106781186547,-2.54354978306772E-13,-0.707106781186548));
#1458=DIRECTION('',(3.59342185637009E-13,-1.,0.));
#1459=DIRECTION('',(-3.59342185637009E-13,1.,0.));
#1460=DIRECTION('center_axis',(-0.816496580927727,-0.408248290463864,0.408248290463861));
#1461=DIRECTION('ref_axis',(-0.577350269189624,0.577350269189628,-0.577350269189625));
#1462=DIRECTION('center_axis',(1.,0.,1.11022302462516E-15));
#1463=DIRECTION('ref_axis',(0.,1.,0.));
#1464=DIRECTION('center_axis',(2.22044604925031E-15,-1.,0.));
#1465=DIRECTION('ref_axis',(0.,0.,-1.));
#1466=DIRECTION('center_axis',(0.,0.,1.));
#1467=DIRECTION('ref_axis',(-1.,0.,0.));
#1468=DIRECTION('center_axis',(0.,0.,1.));
#1469=DIRECTION('ref_axis',(-0.707106781186546,0.707106781186549,0.));
#1470=DIRECTION('',(0.,0.,1.));
#1471=DIRECTION('',(0.,0.,-1.));
#1472=DIRECTION('center_axis',(-0.816496580927726,0.408248290463863,-0.408248290463863));
#1473=DIRECTION('ref_axis',(0.577350269189626,0.577350269189626,-0.577350269189626));
#1474=DIRECTION('center_axis',(0.,-1.,4.44089209850063E-15));
#1475=DIRECTION('ref_axis',(1.,0.,0.));
#1476=DIRECTION('center_axis',(-1.,1.11022302462516E-15,0.));
#1477=DIRECTION('ref_axis',(0.,0.,-1.));
#1478=DIRECTION('center_axis',(0.,0.,1.));
#1479=DIRECTION('ref_axis',(0.,1.,0.));
#1480=DIRECTION('center_axis',(0.,0.,1.));
#1481=DIRECTION('ref_axis',(0.707106781186547,0.707106781186548,0.));
#1482=DIRECTION('',(0.,0.,1.));
#1483=DIRECTION('',(0.,0.,-1.));
#1484=DIRECTION('center_axis',(1.,0.,0.));
#1485=DIRECTION('ref_axis',(0.,0.707106781186548,-0.707106781186547));
#1486=DIRECTION('',(-1.,0.,0.));
#1487=DIRECTION('',(1.,0.,0.));
#1488=DIRECTION('center_axis',(-0.816496580927726,0.408248290463863,0.408248290463863));
#1489=DIRECTION('ref_axis',(-0.577350269189626,-0.577350269189626,-0.577350269189626));
#1490=DIRECTION('center_axis',(0.,1.,0.));
#1491=DIRECTION('ref_axis',(-1.,0.,0.));
#1492=DIRECTION('center_axis',(1.,0.,0.));
#1493=DIRECTION('ref_axis',(0.,0.,-1.));
#1494=DIRECTION('center_axis',(0.,0.,1.));
#1495=DIRECTION('ref_axis',(0.,-1.,0.));
#1496=DIRECTION('center_axis',(0.,0.,1.));
#1497=DIRECTION('ref_axis',(-0.707106781186548,-0.707106781186548,0.));
#1498=DIRECTION('',(0.,0.,1.));
#1499=DIRECTION('',(0.,0.,-1.));
#1500=DIRECTION('center_axis',(0.408248290463864,-0.408248290463861,0.816496580927727));
#1501=DIRECTION('ref_axis',(0.577350269189628,-0.577350269189624,-0.577350269189626));
#1502=DIRECTION('center_axis',(-1.,0.,-2.22044604925031E-15));
#1503=DIRECTION('ref_axis',(0.,-1.,0.));
#1504=DIRECTION('center_axis',(-2.22044604925031E-15,1.,0.));
#1505=DIRECTION('ref_axis',(0.,0.,-1.));
#1506=DIRECTION('center_axis',(0.,0.,1.));
#1507=DIRECTION('ref_axis',(1.,2.22044604925031E-15,0.));
#1508=DIRECTION('center_axis',(0.,0.,1.));
#1509=DIRECTION('ref_axis',(0.707106781186549,-0.707106781186546,0.));
#1510=DIRECTION('',(0.,0.,1.));
#1511=DIRECTION('',(0.,0.,-1.));
#1512=DIRECTION('center_axis',(1.66533453693773E-15,-1.,0.));
#1513=DIRECTION('ref_axis',(0.707106781186548,1.57009245868377E-15,-0.707106781186547));
#1514=DIRECTION('',(-1.66533453693773E-15,1.,0.));
#1515=DIRECTION('',(1.66533453693773E-15,-1.,0.));
#1516=DIRECTION('center_axis',(-1.,0.,0.));
#1517=DIRECTION('ref_axis',(0.,-0.707106781186548,-0.707106781186547));
#1518=DIRECTION('',(1.,0.,0.));
#1519=DIRECTION('',(-1.,0.,0.));
#1520=DIRECTION('center_axis',(-2.77555756156289E-16,1.,0.));
#1521=DIRECTION('ref_axis',(-0.707106781186548,0.,-0.707106781186547));
#1522=DIRECTION('',(2.77555756156289E-16,-1.,0.));
#1523=DIRECTION('',(-2.77555756156289E-16,1.,0.));
#1524=DIRECTION('center_axis',(1.,0.,0.));
#1525=DIRECTION('ref_axis',(0.,0.707106781186548,-0.707106781186547));
#1526=DIRECTION('',(-1.,0.,0.));
#1527=DIRECTION('',(1.,0.,0.));
#1528=DIRECTION('center_axis',(0.,-1.,0.));
#1529=DIRECTION('ref_axis',(0.707106781186547,0.,-0.707106781186548));
#1530=DIRECTION('',(0.,1.,0.));
#1531=DIRECTION('',(0.,-1.,0.));
#1532=DIRECTION('center_axis',(0.,-1.,0.));
#1533=DIRECTION('ref_axis',(-1.,0.,0.));
#1534=DIRECTION('center_axis',(1.,3.59342185637009E-13,0.));
#1535=DIRECTION('ref_axis',(3.59342185637009E-13,-1.,0.));
#1536=DIRECTION('center_axis',(0.,-1.,0.));
#1537=DIRECTION('ref_axis',(-1.,0.,0.));
#1538=DIRECTION('center_axis',(-1.,-1.66533453693773E-15,0.));
#1539=DIRECTION('ref_axis',(-1.66533453693773E-15,1.,0.));
#1540=DIRECTION('center_axis',(0.,0.,1.));
#1541=DIRECTION('ref_axis',(1.,0.,0.));
#1542=DIRECTION('center_axis',(0.,1.,0.));
#1543=DIRECTION('ref_axis',(1.,0.,0.));
#1544=DIRECTION('center_axis',(1.,2.77555756156289E-16,0.));
#1545=DIRECTION('ref_axis',(2.77555756156289E-16,-1.,0.));
#1546=DIRECTION('center_axis',(0.,-1.,0.));
#1547=DIRECTION('ref_axis',(-1.,0.,0.));
#1548=DIRECTION('center_axis',(-1.,0.,0.));
#1549=DIRECTION('ref_axis',(0.,1.,0.));
#1550=CARTESIAN_POINT('',(0.,0.,0.));
#1551=CARTESIAN_POINT('Origin',(-1.06414876910321E-12,-8.37219182869831E-12,
-0.5));
#1552=CARTESIAN_POINT('',(-2.00000000000107,5.99999999999136,-0.5));
#1553=CARTESIAN_POINT('',(-1.50000000000107,5.49999999999136,-0.5));
#1554=CARTESIAN_POINT('Origin',(-2.00000000000107,5.49999999999136,-0.5));
#1555=CARTESIAN_POINT('',(-1.50000000000107,-1.50000000000864,-0.5));
#1556=CARTESIAN_POINT('',(-1.50000000000107,5.99999999999136,-0.5));
#1557=CARTESIAN_POINT('',(-1.00000000000107,-2.00000000000864,-0.5));
#1558=CARTESIAN_POINT('Origin',(-1.00000000000107,-1.50000000000864,-0.5));
#1559=CARTESIAN_POINT('',(1.00000000000161,-2.00000000000864,-0.5));
#1560=CARTESIAN_POINT('',(-4.50000000000107,-2.00000000000864,-0.5));
#1561=CARTESIAN_POINT('',(1.50000000000161,-1.50000000000846,-0.5));
#1562=CARTESIAN_POINT('Origin',(1.00000000000161,-1.50000000000864,-0.5));
#1563=CARTESIAN_POINT('',(1.49999999999909,5.49999999999118,-0.5));
#1564=CARTESIAN_POINT('',(1.49999999999892,5.9999999999919,-0.5));
#1565=CARTESIAN_POINT('',(1.9999999999991,5.99999999999136,-0.5));
#1566=CARTESIAN_POINT('Origin',(1.99999999999909,5.49999999999136,-0.5));
#1567=CARTESIAN_POINT('',(3.99999999999893,5.99999999999136,-0.5));
#1568=CARTESIAN_POINT('',(-4.50000000000107,5.99999999999136,-0.5));
#1569=CARTESIAN_POINT('',(4.49999999999893,5.49999999999136,-0.5));
#1570=CARTESIAN_POINT('Origin',(3.99999999999893,5.49999999999136,-0.5));
#1571=CARTESIAN_POINT('',(4.49999999999895,-5.50000000000864,-0.5));
#1572=CARTESIAN_POINT('',(4.49999999999893,5.99999999999136,-0.5));
#1573=CARTESIAN_POINT('',(3.99999999999894,-6.00000000000864,-0.5));
#1574=CARTESIAN_POINT('Origin',(3.99999999999894,-5.50000000000864,-0.5));
#1575=CARTESIAN_POINT('',(-4.00000000000107,-6.00000000000864,-0.5));
#1576=CARTESIAN_POINT('',(4.49999999999895,-6.00000000000864,-0.5));
#1577=CARTESIAN_POINT('',(-4.50000000000107,-5.50000000000864,-0.5));
#1578=CARTESIAN_POINT('Origin',(-4.00000000000107,-5.50000000000864,-0.5));
#1579=CARTESIAN_POINT('',(-4.50000000000107,5.49999999999136,-0.5));
#1580=CARTESIAN_POINT('',(-4.50000000000107,-6.00000000000864,-0.5));
#1581=CARTESIAN_POINT('',(-4.00000000000107,5.99999999999136,-0.5));
#1582=CARTESIAN_POINT('Origin',(-4.00000000000107,5.49999999999136,-0.5));
#1583=CARTESIAN_POINT('',(-4.50000000000107,5.99999999999136,-0.5));
#1584=CARTESIAN_POINT('Origin',(-1.00000000000107,-1.50000000000864,1.1));
#1585=CARTESIAN_POINT('',(-1.00000000000107,-2.00000000000864,1.1));
#1586=CARTESIAN_POINT('',(-1.00000000000107,-2.50000000000864,1.6));
#1587=CARTESIAN_POINT('Origin',(-1.00000000000107,-2.50000000000864,1.1));
#1588=CARTESIAN_POINT('',(-1.50000000000107,-1.50000000000864,1.1));
#1589=CARTESIAN_POINT('Origin',(-1.00000000000107,-1.50000000000864,1.1));
#1590=CARTESIAN_POINT('',(-2.00000000000107,-1.50000000000864,1.6));
#1591=CARTESIAN_POINT('Origin',(-2.00000000000107,-1.50000000000864,1.1));
#1592=CARTESIAN_POINT('Origin',(-1.00000000000107,-1.50000000000864,1.6));
#1593=CARTESIAN_POINT('Origin',(-1.00000000000107,-1.50000000000864,0.));
#1594=CARTESIAN_POINT('',(-1.50000000000107,-1.50000000000864,0.));
#1595=CARTESIAN_POINT('',(-1.00000000000107,-2.00000000000864,0.));
#1596=CARTESIAN_POINT('Origin',(1.00000000000161,-1.50000000000864,1.1));
#1597=CARTESIAN_POINT('',(1.50000000000161,-1.50000000000846,1.1));
#1598=CARTESIAN_POINT('',(2.00000000000161,-1.50000000000828,1.6));
#1599=CARTESIAN_POINT('Origin',(2.00000000000161,-1.50000000000828,1.1));
#1600=CARTESIAN_POINT('',(1.00000000000161,-2.00000000000864,1.1));
#1601=CARTESIAN_POINT('Origin',(1.00000000000161,-1.50000000000864,1.1));
#1602=CARTESIAN_POINT('',(1.00000000000161,-2.50000000000864,1.6));
#1603=CARTESIAN_POINT('Origin',(1.00000000000161,-2.50000000000864,1.1));
#1604=CARTESIAN_POINT('Origin',(1.00000000000161,-1.50000000000864,1.6));
#1605=CARTESIAN_POINT('Origin',(1.00000000000161,-1.50000000000864,0.));
#1606=CARTESIAN_POINT('',(1.00000000000161,-2.00000000000864,0.));
#1607=CARTESIAN_POINT('',(1.50000000000161,-1.50000000000846,0.));
#1608=CARTESIAN_POINT('Origin',(0.750000000000363,-2.50000000000864,1.1));
#1609=CARTESIAN_POINT('',(0.750000000000363,-2.50000000000864,1.6));
#1610=CARTESIAN_POINT('',(0.750000000000363,-2.00000000000864,1.1));
#1611=CARTESIAN_POINT('Origin',(-2.00000000000107,5.49999999999136,1.1));
#1612=CARTESIAN_POINT('',(-1.50000000000107,5.49999999999136,1.1));
#1613=CARTESIAN_POINT('',(-2.00000000000107,5.49999999999136,1.6));
#1614=CARTESIAN_POINT('Origin',(-2.00000000000107,5.49999999999136,1.1));
#1615=CARTESIAN_POINT('',(-2.00000000000107,5.99999999999136,1.1));
#1616=CARTESIAN_POINT('Origin',(-2.00000000000107,5.49999999999136,1.1));
#1617=CARTESIAN_POINT('Origin',(-2.00000000000107,5.49999999999136,1.1));
#1618=CARTESIAN_POINT('Origin',(-2.00000000000107,5.49999999999136,0.));
#1619=CARTESIAN_POINT('',(-2.00000000000107,5.99999999999136,0.));
#1620=CARTESIAN_POINT('',(-1.50000000000107,5.49999999999136,0.));
#1621=CARTESIAN_POINT('Origin',(1.99999999999909,5.49999999999136,1.1));
#1622=CARTESIAN_POINT('',(1.99999999999909,5.99999999999136,1.1));
#1623=CARTESIAN_POINT('',(1.99999999999909,5.49999999999136,1.6));
#1624=CARTESIAN_POINT('Origin',(1.99999999999909,5.49999999999136,1.1));
#1625=CARTESIAN_POINT('',(1.49999999999909,5.49999999999118,1.1));
#1626=CARTESIAN_POINT('Origin',(1.99999999999909,5.49999999999136,1.1));
#1627=CARTESIAN_POINT('Origin',(1.99999999999909,5.49999999999136,1.1));
#1628=CARTESIAN_POINT('Origin',(1.99999999999909,5.49999999999136,0.));
#1629=CARTESIAN_POINT('',(1.49999999999909,5.49999999999118,0.));
#1630=CARTESIAN_POINT('',(1.99999999999909,5.99999999999136,0.));
#1631=CARTESIAN_POINT('Origin',(1.99999999999999,2.99999999999221,1.1));
#1632=CARTESIAN_POINT('',(1.99999999999999,2.99999999999221,1.6));
#1633=CARTESIAN_POINT('',(1.49999999999999,2.99999999999203,1.1));
#1634=CARTESIAN_POINT('Origin',(-4.00000000000107,5.49999999999136,1.1));
#1635=CARTESIAN_POINT('',(-4.00000000000107,5.99999999999136,1.1));
#1636=CARTESIAN_POINT('',(-4.00000000000107,5.49999999999136,1.6));
#1637=CARTESIAN_POINT('Origin',(-4.00000000000107,5.49999999999136,1.1));
#1638=CARTESIAN_POINT('',(-4.50000000000107,5.49999999999136,1.1));
#1639=CARTESIAN_POINT('Origin',(-4.00000000000107,5.49999999999136,1.1));
#1640=CARTESIAN_POINT('Origin',(-4.00000000000107,5.49999999999136,1.1));
#1641=CARTESIAN_POINT('Origin',(-4.00000000000107,5.49999999999136,0.));
#1642=CARTESIAN_POINT('',(-4.50000000000107,5.49999999999136,0.));
#1643=CARTESIAN_POINT('',(-4.00000000000107,5.99999999999136,0.));
#1644=CARTESIAN_POINT('Origin',(3.99999999999893,5.49999999999136,1.1));
#1645=CARTESIAN_POINT('',(4.49999999999893,5.49999999999136,1.1));
#1646=CARTESIAN_POINT('',(3.99999999999893,5.49999999999136,1.6));
#1647=CARTESIAN_POINT('Origin',(3.99999999999893,5.49999999999136,1.1));
#1648=CARTESIAN_POINT('',(3.99999999999893,5.99999999999136,1.1));
#1649=CARTESIAN_POINT('Origin',(3.99999999999893,5.49999999999136,1.1));
#1650=CARTESIAN_POINT('Origin',(3.99999999999893,5.49999999999136,1.1));
#1651=CARTESIAN_POINT('Origin',(3.99999999999893,5.49999999999136,0.));
#1652=CARTESIAN_POINT('',(3.99999999999893,5.99999999999136,0.));
#1653=CARTESIAN_POINT('',(4.49999999999893,5.49999999999136,0.));
#1654=CARTESIAN_POINT('Origin',(2.24999999999893,5.49999999999136,1.1));
#1655=CARTESIAN_POINT('',(2.24999999999893,5.49999999999136,1.6));
#1656=CARTESIAN_POINT('',(2.24999999999893,5.99999999999136,1.1));
#1657=CARTESIAN_POINT('Origin',(-4.00000000000107,-5.50000000000864,1.1));
#1658=CARTESIAN_POINT('',(-4.50000000000107,-5.50000000000864,1.1));
#1659=CARTESIAN_POINT('',(-4.00000000000107,-5.50000000000864,1.6));
#1660=CARTESIAN_POINT('Origin',(-4.00000000000107,-5.50000000000864,1.1));
#1661=CARTESIAN_POINT('',(-4.00000000000107,-6.00000000000864,1.1));
#1662=CARTESIAN_POINT('Origin',(-4.00000000000107,-5.50000000000864,1.1));
#1663=CARTESIAN_POINT('Origin',(-4.00000000000107,-5.50000000000864,1.1));
#1664=CARTESIAN_POINT('Origin',(-4.00000000000107,-5.50000000000864,0.));
#1665=CARTESIAN_POINT('',(-4.00000000000107,-6.00000000000864,0.));
#1666=CARTESIAN_POINT('',(-4.50000000000107,-5.50000000000864,0.));
#1667=CARTESIAN_POINT('Origin',(3.99999999999894,-5.50000000000864,1.1));
#1668=CARTESIAN_POINT('',(3.99999999999894,-6.00000000000864,1.1));
#1669=CARTESIAN_POINT('',(3.99999999999895,-5.50000000000864,1.6));
#1670=CARTESIAN_POINT('Origin',(3.99999999999894,-5.50000000000864,1.1));
#1671=CARTESIAN_POINT('',(4.49999999999895,-5.50000000000864,1.1));
#1672=CARTESIAN_POINT('Origin',(3.99999999999894,-5.50000000000864,1.1));
#1673=CARTESIAN_POINT('Origin',(3.99999999999895,-5.50000000000864,1.1));
#1674=CARTESIAN_POINT('Origin',(3.99999999999894,-5.50000000000864,0.));
#1675=CARTESIAN_POINT('',(4.49999999999894,-5.50000000000864,0.));
#1676=CARTESIAN_POINT('',(3.99999999999894,-6.00000000000864,0.));
#1677=CARTESIAN_POINT('Origin',(3.99999999999894,-3.0000000000085,1.1));
#1678=CARTESIAN_POINT('',(3.99999999999894,-3.0000000000085,1.6));
#1679=CARTESIAN_POINT('',(4.49999999999894,-3.0000000000085,1.1));
#1680=CARTESIAN_POINT('Origin',(-2.25000000000107,-5.50000000000864,1.1));
#1681=CARTESIAN_POINT('',(-2.25000000000107,-5.50000000000864,1.6));
#1682=CARTESIAN_POINT('',(-2.25000000000107,-6.00000000000864,1.1));
#1683=CARTESIAN_POINT('Origin',(-4.00000000000107,2.99999999999149,1.1));
#1684=CARTESIAN_POINT('',(-4.00000000000107,2.99999999999149,1.6));
#1685=CARTESIAN_POINT('',(-4.50000000000107,2.99999999999149,1.1));
#1686=CARTESIAN_POINT('Origin',(-0.750000000001068,5.49999999999136,1.1));
#1687=CARTESIAN_POINT('',(-0.750000000001068,5.49999999999136,1.6));
#1688=CARTESIAN_POINT('',(-0.750000000001068,5.99999999999136,1.1));
#1689=CARTESIAN_POINT('Origin',(-2.00000000000107,-1.00000000000851,1.1));
#1690=CARTESIAN_POINT('',(-2.00000000000107,-1.00000000000851,1.6));
#1691=CARTESIAN_POINT('',(-1.50000000000107,-1.00000000000851,1.1));
#1692=CARTESIAN_POINT('Origin',(1.50000000000179,-2.00000000000864,0.));
#1693=CARTESIAN_POINT('Origin',(1.49999999999892,5.9999999999919,0.));
#1694=CARTESIAN_POINT('Origin',(4.49999999999893,5.99999999999136,0.));
#1695=CARTESIAN_POINT('Origin',(4.49999999999895,-6.00000000000864,0.));
#1696=CARTESIAN_POINT('Origin',(-1.06414876910321E-12,-8.37219182869831E-12,
1.6));
#1697=CARTESIAN_POINT('Origin',(-4.50000000000107,-6.00000000000864,0.));
#1698=CARTESIAN_POINT('Origin',(-4.50000000000107,5.99999999999136,0.));
#1699=CARTESIAN_POINT('Origin',(-1.50000000000107,5.99999999999136,0.));
#1700=CARTESIAN_POINT('Origin',(-1.50000000000107,-2.00000000000864,0.));
#1701=CARTESIAN_POINT('Origin',(-1.06414876910321E-12,-8.37219182869831E-12,
-1.1));
#1702=CARTESIAN_POINT('',(-1.50000000000107,5.49999999999136,-1.1));
#1703=CARTESIAN_POINT('',(-2.00000000000107,5.99999999999136,-1.1));
#1704=CARTESIAN_POINT('Origin',(-2.00000000000107,5.49999999999136,-1.1));
#1705=CARTESIAN_POINT('',(-4.00000000000107,5.99999999999136,-1.1));
#1706=CARTESIAN_POINT('',(-4.50000000000107,5.99999999999136,-1.1));
#1707=CARTESIAN_POINT('',(-4.50000000000107,5.49999999999136,-1.1));
#1708=CARTESIAN_POINT('Origin',(-4.00000000000107,5.49999999999136,-1.1));
#1709=CARTESIAN_POINT('',(-4.50000000000107,-5.50000000000864,-1.1));
#1710=CARTESIAN_POINT('',(-4.50000000000107,-6.00000000000864,-1.1));
#1711=CARTESIAN_POINT('',(-4.00000000000107,-6.00000000000864,-1.1));
#1712=CARTESIAN_POINT('Origin',(-4.00000000000107,-5.50000000000864,-1.1));
#1713=CARTESIAN_POINT('',(3.99999999999894,-6.00000000000864,-1.1));
#1714=CARTESIAN_POINT('',(4.49999999999895,-6.00000000000864,-1.1));
#1715=CARTESIAN_POINT('',(4.49999999999895,-5.50000000000864,-1.1));
#1716=CARTESIAN_POINT('Origin',(3.99999999999894,-5.50000000000864,-1.1));
#1717=CARTESIAN_POINT('',(4.49999999999893,5.49999999999136,-1.1));
#1718=CARTESIAN_POINT('',(4.49999999999893,5.99999999999136,-1.1));
#1719=CARTESIAN_POINT('',(3.99999999999893,5.99999999999136,-1.1));
#1720=CARTESIAN_POINT('Origin',(3.99999999999893,5.49999999999136,-1.1));
#1721=CARTESIAN_POINT('',(1.9999999999991,5.99999999999136,-1.1));
#1722=CARTESIAN_POINT('',(-4.50000000000107,5.99999999999136,-1.1));
#1723=CARTESIAN_POINT('',(1.49999999999909,5.49999999999118,-1.1));
#1724=CARTESIAN_POINT('Origin',(1.99999999999909,5.49999999999136,-1.1));
#1725=CARTESIAN_POINT('',(1.50000000000161,-1.50000000000846,-1.1));
#1726=CARTESIAN_POINT('',(1.49999999999892,5.9999999999919,-1.1));
#1727=CARTESIAN_POINT('',(1.00000000000161,-2.00000000000864,-1.1));
#1728=CARTESIAN_POINT('Origin',(1.00000000000161,-1.50000000000864,-1.1));
#1729=CARTESIAN_POINT('',(-1.00000000000107,-2.00000000000864,-1.1));
#1730=CARTESIAN_POINT('',(-4.50000000000107,-2.00000000000864,-1.1));
#1731=CARTESIAN_POINT('',(-1.50000000000107,-1.50000000000864,-1.1));
#1732=CARTESIAN_POINT('Origin',(-1.00000000000107,-1.50000000000864,-1.1));
#1733=CARTESIAN_POINT('',(-1.50000000000107,5.99999999999136,-1.1));
#1734=CARTESIAN_POINT('Origin',(-1.00000000000107,-1.50000000000864,-2.7));
#1735=CARTESIAN_POINT('',(-1.00000000000107,-2.00000000000864,-2.7));
#1736=CARTESIAN_POINT('',(-1.00000000000107,-2.50000000000864,-3.2));
#1737=CARTESIAN_POINT('Origin',(-1.00000000000107,-2.50000000000864,-2.7));
#1738=CARTESIAN_POINT('',(-2.00000000000107,-1.50000000000864,-3.2));
#1739=CARTESIAN_POINT('Origin',(-1.00000000000107,-1.50000000000864,-3.2));
#1740=CARTESIAN_POINT('',(-1.50000000000107,-1.50000000000864,-2.7));
#1741=CARTESIAN_POINT('Origin',(-2.00000000000107,-1.50000000000864,-2.7));
#1742=CARTESIAN_POINT('Origin',(-1.00000000000107,-1.50000000000864,-2.7));
#1743=CARTESIAN_POINT('Origin',(-1.00000000000107,-1.50000000000864,-1.6));
#1744=CARTESIAN_POINT('',(-1.00000000000107,-2.00000000000864,-1.6));
#1745=CARTESIAN_POINT('',(-1.50000000000107,-1.50000000000864,-1.6));
#1746=CARTESIAN_POINT('Origin',(1.00000000000161,-1.50000000000864,-2.7));
#1747=CARTESIAN_POINT('',(1.50000000000161,-1.50000000000846,-2.7));
#1748=CARTESIAN_POINT('',(2.00000000000161,-1.50000000000828,-3.2));
#1749=CARTESIAN_POINT('Origin',(2.00000000000161,-1.50000000000828,-2.7));
#1750=CARTESIAN_POINT('',(1.00000000000161,-2.50000000000864,-3.2));
#1751=CARTESIAN_POINT('Origin',(1.00000000000161,-1.50000000000864,-3.2));
#1752=CARTESIAN_POINT('',(1.00000000000161,-2.00000000000864,-2.7));
#1753=CARTESIAN_POINT('Origin',(1.00000000000161,-2.50000000000864,-2.7));
#1754=CARTESIAN_POINT('Origin',(1.00000000000161,-1.50000000000864,-2.7));
#1755=CARTESIAN_POINT('Origin',(1.00000000000161,-1.50000000000864,-1.6));
#1756=CARTESIAN_POINT('',(1.50000000000161,-1.50000000000846,-1.6));
#1757=CARTESIAN_POINT('',(1.00000000000161,-2.00000000000864,-1.6));
#1758=CARTESIAN_POINT('Origin',(0.750000000000363,-2.50000000000864,-2.7));
#1759=CARTESIAN_POINT('',(0.750000000000363,-2.00000000000864,-2.7));
#1760=CARTESIAN_POINT('',(0.750000000000363,-2.50000000000864,-3.2));
#1761=CARTESIAN_POINT('Origin',(-2.00000000000107,5.49999999999136,-2.7));
#1762=CARTESIAN_POINT('',(-1.50000000000107,5.49999999999136,-2.7));
#1763=CARTESIAN_POINT('',(-2.00000000000107,5.49999999999136,-3.2));
#1764=CARTESIAN_POINT('Origin',(-2.00000000000107,5.49999999999136,-2.7));
#1765=CARTESIAN_POINT('',(-2.00000000000107,5.99999999999136,-2.7));
#1766=CARTESIAN_POINT('Origin',(-2.00000000000107,5.49999999999136,-2.7));
#1767=CARTESIAN_POINT('Origin',(-2.00000000000107,5.49999999999136,-2.7));
#1768=CARTESIAN_POINT('Origin',(-2.00000000000107,5.49999999999136,-1.6));
#1769=CARTESIAN_POINT('',(-1.50000000000107,5.49999999999136,-1.6));
#1770=CARTESIAN_POINT('',(-2.00000000000107,5.99999999999136,-1.6));
#1771=CARTESIAN_POINT('Origin',(1.99999999999909,5.49999999999136,-2.7));
#1772=CARTESIAN_POINT('',(1.99999999999909,5.99999999999136,-2.7));
#1773=CARTESIAN_POINT('',(1.99999999999909,5.49999999999136,-3.2));
#1774=CARTESIAN_POINT('Origin',(1.99999999999909,5.49999999999136,-2.7));
#1775=CARTESIAN_POINT('',(1.49999999999909,5.49999999999118,-2.7));
#1776=CARTESIAN_POINT('Origin',(1.99999999999909,5.49999999999136,-2.7));
#1777=CARTESIAN_POINT('Origin',(1.99999999999909,5.49999999999136,-2.7));
#1778=CARTESIAN_POINT('Origin',(1.99999999999909,5.49999999999136,-1.6));
#1779=CARTESIAN_POINT('',(1.99999999999909,5.99999999999136,-1.6));
#1780=CARTESIAN_POINT('',(1.49999999999909,5.49999999999118,-1.6));
#1781=CARTESIAN_POINT('Origin',(1.99999999999999,2.99999999999221,-2.7));
#1782=CARTESIAN_POINT('',(1.49999999999999,2.99999999999203,-2.7));
#1783=CARTESIAN_POINT('',(1.99999999999999,2.99999999999221,-3.2));
#1784=CARTESIAN_POINT('Origin',(-4.00000000000107,5.49999999999136,-2.7));
#1785=CARTESIAN_POINT('',(-4.00000000000107,5.99999999999136,-2.7));
#1786=CARTESIAN_POINT('',(-4.00000000000107,5.49999999999136,-3.2));
#1787=CARTESIAN_POINT('Origin',(-4.00000000000107,5.49999999999136,-2.7));
#1788=CARTESIAN_POINT('',(-4.50000000000107,5.49999999999136,-2.7));
#1789=CARTESIAN_POINT('Origin',(-4.00000000000107,5.49999999999136,-2.7));
#1790=CARTESIAN_POINT('Origin',(-4.00000000000107,5.49999999999136,-2.7));
#1791=CARTESIAN_POINT('Origin',(-4.00000000000107,5.49999999999136,-1.6));
#1792=CARTESIAN_POINT('',(-4.00000000000107,5.99999999999136,-1.6));
#1793=CARTESIAN_POINT('',(-4.50000000000107,5.49999999999136,-1.6));
#1794=CARTESIAN_POINT('Origin',(3.99999999999893,5.49999999999136,-2.7));
#1795=CARTESIAN_POINT('',(4.49999999999893,5.49999999999136,-2.7));
#1796=CARTESIAN_POINT('',(3.99999999999893,5.49999999999136,-3.2));
#1797=CARTESIAN_POINT('Origin',(3.99999999999893,5.49999999999136,-2.7));
#1798=CARTESIAN_POINT('',(3.99999999999893,5.99999999999136,-2.7));
#1799=CARTESIAN_POINT('Origin',(3.99999999999893,5.49999999999136,-2.7));
#1800=CARTESIAN_POINT('Origin',(3.99999999999893,5.49999999999136,-2.7));
#1801=CARTESIAN_POINT('Origin',(3.99999999999893,5.49999999999136,-1.6));
#1802=CARTESIAN_POINT('',(4.49999999999893,5.49999999999136,-1.6));
#1803=CARTESIAN_POINT('',(3.99999999999893,5.99999999999136,-1.6));
#1804=CARTESIAN_POINT('Origin',(2.24999999999893,5.49999999999136,-2.7));
#1805=CARTESIAN_POINT('',(2.24999999999893,5.99999999999136,-2.7));
#1806=CARTESIAN_POINT('',(2.24999999999893,5.49999999999136,-3.2));
#1807=CARTESIAN_POINT('Origin',(-4.00000000000107,-5.50000000000864,-2.7));
#1808=CARTESIAN_POINT('',(-4.50000000000107,-5.50000000000864,-2.7));
#1809=CARTESIAN_POINT('',(-4.00000000000107,-5.50000000000864,-3.2));
#1810=CARTESIAN_POINT('Origin',(-4.00000000000107,-5.50000000000864,-2.7));
#1811=CARTESIAN_POINT('',(-4.00000000000107,-6.00000000000864,-2.7));
#1812=CARTESIAN_POINT('Origin',(-4.00000000000107,-5.50000000000864,-2.7));
#1813=CARTESIAN_POINT('Origin',(-4.00000000000107,-5.50000000000864,-2.7));
#1814=CARTESIAN_POINT('Origin',(-4.00000000000107,-5.50000000000864,-1.6));
#1815=CARTESIAN_POINT('',(-4.50000000000107,-5.50000000000864,-1.6));
#1816=CARTESIAN_POINT('',(-4.00000000000107,-6.00000000000864,-1.6));
#1817=CARTESIAN_POINT('Origin',(3.99999999999894,-5.50000000000864,-2.7));
#1818=CARTESIAN_POINT('',(3.99999999999894,-6.00000000000864,-2.7));
#1819=CARTESIAN_POINT('',(3.99999999999895,-5.50000000000864,-3.2));
#1820=CARTESIAN_POINT('Origin',(3.99999999999894,-5.50000000000864,-2.7));
#1821=CARTESIAN_POINT('',(4.49999999999895,-5.50000000000864,-2.7));
#1822=CARTESIAN_POINT('Origin',(3.99999999999895,-5.50000000000864,-2.7));
#1823=CARTESIAN_POINT('Origin',(3.99999999999894,-5.50000000000864,-2.7));
#1824=CARTESIAN_POINT('Origin',(3.99999999999894,-5.50000000000864,-1.6));
#1825=CARTESIAN_POINT('',(3.99999999999894,-6.00000000000864,-1.6));
#1826=CARTESIAN_POINT('',(4.49999999999894,-5.50000000000864,-1.6));
#1827=CARTESIAN_POINT('Origin',(3.99999999999894,-3.0000000000085,-2.7));
#1828=CARTESIAN_POINT('',(4.49999999999894,-3.0000000000085,-2.7));
#1829=CARTESIAN_POINT('',(3.99999999999894,-3.0000000000085,-3.2));
#1830=CARTESIAN_POINT('Origin',(-2.25000000000107,-5.50000000000864,-2.7));
#1831=CARTESIAN_POINT('',(-2.25000000000107,-6.00000000000864,-2.7));
#1832=CARTESIAN_POINT('',(-2.25000000000107,-5.50000000000864,-3.2));
#1833=CARTESIAN_POINT('Origin',(-4.00000000000107,2.99999999999149,-2.7));
#1834=CARTESIAN_POINT('',(-4.50000000000107,2.99999999999149,-2.7));
#1835=CARTESIAN_POINT('',(-4.00000000000107,2.99999999999149,-3.2));
#1836=CARTESIAN_POINT('Origin',(-0.750000000001068,5.49999999999136,-2.7));
#1837=CARTESIAN_POINT('',(-0.750000000001068,5.99999999999136,-2.7));
#1838=CARTESIAN_POINT('',(-0.750000000001068,5.49999999999136,-3.2));
#1839=CARTESIAN_POINT('Origin',(-2.00000000000107,-1.00000000000851,-2.7));
#1840=CARTESIAN_POINT('',(-1.50000000000107,-1.00000000000851,-2.7));
#1841=CARTESIAN_POINT('',(-2.00000000000107,-1.00000000000851,-3.2));
#1842=CARTESIAN_POINT('Origin',(1.50000000000179,-2.00000000000864,-1.6));
#1843=CARTESIAN_POINT('Origin',(1.49999999999892,5.9999999999919,-1.6));
#1844=CARTESIAN_POINT('Origin',(4.49999999999893,5.99999999999136,-1.6));
#1845=CARTESIAN_POINT('Origin',(4.49999999999895,-6.00000000000864,-1.6));
#1846=CARTESIAN_POINT('Origin',(-1.06414876910321E-12,-8.37219182869831E-12,
-3.2));
#1847=CARTESIAN_POINT('Origin',(-4.50000000000107,-6.00000000000864,-1.6));
#1848=CARTESIAN_POINT('Origin',(-4.50000000000107,5.99999999999136,-1.6));
#1849=CARTESIAN_POINT('Origin',(-1.50000000000107,5.99999999999136,-1.6));
#1850=CARTESIAN_POINT('Origin',(-1.50000000000107,-2.00000000000864,-1.6));
#1851=UNCERTAINTY_MEASURE_WITH_UNIT(LENGTH_MEASURE(0.01),#1855,
'DISTANCE_ACCURACY_VALUE',
'Maximum model space distance between geometric entities at asserted c
onnectivities');
#1852=UNCERTAINTY_MEASURE_WITH_UNIT(LENGTH_MEASURE(0.01),#1855,
'DISTANCE_ACCURACY_VALUE',
'Maximum model space distance between geometric entities at asserted c
onnectivities');
#1853=(
GEOMETRIC_REPRESENTATION_CONTEXT(3)
GLOBAL_UNCERTAINTY_ASSIGNED_CONTEXT((#1851))
GLOBAL_UNIT_ASSIGNED_CONTEXT((#1855,#1857,#1858))
REPRESENTATION_CONTEXT('','3D')
);
#1854=(
GEOMETRIC_REPRESENTATION_CONTEXT(3)
GLOBAL_UNCERTAINTY_ASSIGNED_CONTEXT((#1852))
GLOBAL_UNIT_ASSIGNED_CONTEXT((#1855,#1857,#1858))
REPRESENTATION_CONTEXT('','3D')
);
#1855=(
LENGTH_UNIT()
NAMED_UNIT(*)
SI_UNIT(.MILLI.,.METRE.)
);
#1856=(
LENGTH_UNIT()
NAMED_UNIT(*)
SI_UNIT($,.METRE.)
);
#1857=(
NAMED_UNIT(*)
PLANE_ANGLE_UNIT()
SI_UNIT($,.RADIAN.)
);
#1858=(
NAMED_UNIT(*)
SI_UNIT($,.STERADIAN.)
SOLID_ANGLE_UNIT()
);
#1859=SHAPE_DEFINITION_REPRESENTATION(#1860,#1861);
#1860=PRODUCT_DEFINITION_SHAPE('',$,#1863);
#1861=SHAPE_REPRESENTATION('',(#1059),#1853);
#1862=PRODUCT_DEFINITION_CONTEXT('part definition',#1867,'design');
#1863=PRODUCT_DEFINITION('TRRS-BOTTOM','TRRS-BOTTOM v5',#1864,#1862);
#1864=PRODUCT_DEFINITION_FORMATION('',$,#1869);
#1865=PRODUCT_RELATED_PRODUCT_CATEGORY('TRRS-BOTTOM v5',
'TRRS-BOTTOM v5',(#1869));
#1866=APPLICATION_PROTOCOL_DEFINITION('international standard',
'automotive_design',2009,#1867);
#1867=APPLICATION_CONTEXT(
'Core Data for Automotive Mechanical Design Process');
#1868=PRODUCT_CONTEXT('part definition',#1867,'mechanical');
#1869=PRODUCT('TRRS-BOTTOM','TRRS-BOTTOM v5',$,(#1868));
#1870=PRESENTATION_STYLE_ASSIGNMENT((#1872));
#1871=PRESENTATION_STYLE_ASSIGNMENT((#1873));
#1872=SURFACE_STYLE_USAGE(.BOTH.,#1874);
#1873=SURFACE_STYLE_USAGE(.BOTH.,#1875);
#1874=SURFACE_SIDE_STYLE('',(#1876));
#1875=SURFACE_SIDE_STYLE('',(#1877));
#1876=SURFACE_STYLE_FILL_AREA(#1878);
#1877=SURFACE_STYLE_FILL_AREA(#1879);
#1878=FILL_AREA_STYLE('ABS (blanc)',(#1880));
#1879=FILL_AREA_STYLE('ABS (blanc)',(#1881));
#1880=FILL_AREA_STYLE_COLOUR('ABS (blanc)',#1882);
#1881=FILL_AREA_STYLE_COLOUR('ABS (blanc)',#1883);
#1882=COLOUR_RGB('ABS (blanc)',0.964705882352941,0.964705882352941,0.952941176470588);
#1883=COLOUR_RGB('ABS (blanc)',0.407843137254902,0.215686274509804,0.690196078431373);
ENDSEC;
END-ISO-10303-21;
