999
"DXF R12 Output" (www.mydxf.blogspot.com)
 0 
SECTION
 2 
HEADER
 9 
$ACADVER
 1 
AC1009
 9 
$EXTMIN
 10 
 0 
 20 
 0 
 9 
$EXTMAX
 10 
 8.5 
 20 
 11 
 0 
ENDSEC
 0 
SECTION
 2 
ENTITIES
0
LINE
8
Layer 1
10
177.002000
20
43.999800
11
285.002000
21
43.999800
0
LINE
8
Layer 1
10
285.002000
20
43.999800
11
285.002000
21
11.999800
0
LINE
8
Layer 1
10
285.002000
20
11.999800
11
177.002000
21
11.999800
0
LINE
8
Layer 1
10
177.002000
20
11.999800
11
177.002000
21
43.999800
0
LINE
8
Layer 1
10
10.000000
20
200.007000
11
287.002000
21
200.007000
0
LINE
8
Layer 1
10
287.002000
20
200.007000
11
287.002000
21
9.999800
0
LINE
8
Layer 1
10
287.002000
20
9.999800
11
10.000000
21
9.999800
0
LINE
8
Layer 1
10
10.000000
20
9.999800
11
10.000000
21
200.007000
0
LINE
8
Layer 1
10
12.000000
20
198.007000
11
285.002000
21
198.007000
0
LINE
8
Layer 1
10
285.002000
20
198.007000
11
285.002000
21
11.999800
0
LINE
8
Layer 1
10
285.002000
20
11.999800
11
12.000000
21
11.999800
0
LINE
8
Layer 1
10
12.000000
20
11.999800
11
12.000000
21
198.007000
0
LINE
8
Layer 1
10
60.000000
20
198.007000
11
60.000000
21
200.007000
0
LINE
8
Layer 1
10
110.000000
20
198.007000
11
110.000000
21
200.007000
0
LINE
8
Layer 1
10
160.000000
20
198.007000
11
160.000000
21
200.007000
0
LINE
8
Layer 1
10
210.000000
20
198.007000
11
210.000000
21
200.007000
0
LINE
8
Layer 1
10
260.000000
20
198.007000
11
260.000000
21
200.007000
0
LINE
8
Layer 1
10
36.089200
20
198.413000
11
35.346300
21
198.413000
0
LINE
8
Layer 1
10
35.717700
20
198.413000
11
35.717700
21
199.713000
0
LINE
8
Layer 1
10
35.717700
20
199.713000
11
35.593900
21
199.528000
0
LINE
8
Layer 1
10
35.593900
20
199.528000
11
35.470100
21
199.404000
0
LINE
8
Layer 1
10
35.470100
20
199.404000
11
35.346300
21
199.342000
0
LINE
8
Layer 1
10
85.346300
20
199.590000
11
85.408200
21
199.651000
0
LINE
8
Layer 1
10
85.408200
20
199.651000
11
85.532000
21
199.713000
0
LINE
8
Layer 1
10
85.532000
20
199.713000
11
85.841500
21
199.713000
0
LINE
8
Layer 1
10
85.841500
20
199.713000
11
85.965400
21
199.651000
0
LINE
8
Layer 1
10
85.965400
20
199.651000
11
86.027300
21
199.590000
0
LINE
8
Layer 1
10
86.027300
20
199.590000
11
86.089200
21
199.466000
0
LINE
8
Layer 1
10
86.089200
20
199.466000
11
86.089200
21
199.342000
0
LINE
8
Layer 1
10
86.089200
20
199.342000
11
86.027300
21
199.156000
0
LINE
8
Layer 1
10
86.027300
20
199.156000
11
85.284400
21
198.413000
0
LINE
8
Layer 1
10
85.284400
20
198.413000
11
86.089200
21
198.413000
0
LINE
8
Layer 1
10
135.284000
20
199.713000
11
136.089000
21
199.713000
0
LINE
8
Layer 1
10
136.089000
20
199.713000
11
135.656000
21
199.218000
0
LINE
8
Layer 1
10
135.656000
20
199.218000
11
135.841000
21
199.218000
0
LINE
8
Layer 1
10
135.841000
20
199.218000
11
135.965000
21
199.156000
0
LINE
8
Layer 1
10
135.965000
20
199.156000
11
136.027000
21
199.094000
0
LINE
8
Layer 1
10
136.027000
20
199.094000
11
136.089000
21
198.971000
0
LINE
8
Layer 1
10
136.089000
20
198.971000
11
136.089000
21
198.661000
0
LINE
8
Layer 1
10
136.089000
20
198.661000
11
136.027000
21
198.537000
0
LINE
8
Layer 1
10
136.027000
20
198.537000
11
135.965000
21
198.475000
0
LINE
8
Layer 1
10
135.965000
20
198.475000
11
135.841000
21
198.413000
0
LINE
8
Layer 1
10
135.841000
20
198.413000
11
135.470000
21
198.413000
0
LINE
8
Layer 1
10
135.470000
20
198.413000
11
135.346000
21
198.475000
0
LINE
8
Layer 1
10
135.346000
20
198.475000
11
135.284000
21
198.537000
0
LINE
8
Layer 1
10
185.965000
20
199.280000
11
185.965000
21
198.413000
0
LINE
8
Layer 1
10
185.656000
20
199.775000
11
185.346000
21
198.847000
0
LINE
8
Layer 1
10
185.346000
20
198.847000
11
186.151000
21
198.847000
0
LINE
8
Layer 1
10
236.027000
20
199.713000
11
235.408000
21
199.713000
0
LINE
8
Layer 1
10
235.408000
20
199.713000
11
235.346000
21
199.094000
0
LINE
8
Layer 1
10
235.346000
20
199.094000
11
235.408000
21
199.156000
0
LINE
8
Layer 1
10
235.408000
20
199.156000
11
235.532000
21
199.218000
0
LINE
8
Layer 1
10
235.532000
20
199.218000
11
235.841000
21
199.218000
0
LINE
8
Layer 1
10
235.841000
20
199.218000
11
235.965000
21
199.156000
0
LINE
8
Layer 1
10
235.965000
20
199.156000
11
236.027000
21
199.094000
0
LINE
8
Layer 1
10
236.027000
20
199.094000
11
236.089000
21
198.971000
0
LINE
8
Layer 1
10
236.089000
20
198.971000
11
236.089000
21
198.661000
0
LINE
8
Layer 1
10
236.089000
20
198.661000
11
236.027000
21
198.537000
0
LINE
8
Layer 1
10
236.027000
20
198.537000
11
235.965000
21
198.475000
0
LINE
8
Layer 1
10
235.965000
20
198.475000
11
235.841000
21
198.413000
0
LINE
8
Layer 1
10
235.841000
20
198.413000
11
235.532000
21
198.413000
0
LINE
8
Layer 1
10
235.532000
20
198.413000
11
235.408000
21
198.475000
0
LINE
8
Layer 1
10
235.408000
20
198.475000
11
235.346000
21
198.537000
0
LINE
8
Layer 1
10
285.965000
20
199.713000
11
285.718000
21
199.713000
0
LINE
8
Layer 1
10
285.718000
20
199.713000
11
285.594000
21
199.651000
0
LINE
8
Layer 1
10
285.594000
20
199.651000
11
285.532000
21
199.590000
0
LINE
8
Layer 1
10
285.532000
20
199.590000
11
285.408000
21
199.404000
0
LINE
8
Layer 1
10
285.408000
20
199.404000
11
285.346000
21
199.156000
0
LINE
8
Layer 1
10
285.346000
20
199.156000
11
285.346000
21
198.661000
0
LINE
8
Layer 1
10
285.346000
20
198.661000
11
285.408000
21
198.537000
0
LINE
8
Layer 1
10
285.408000
20
198.537000
11
285.470000
21
198.475000
0
LINE
8
Layer 1
10
285.470000
20
198.475000
11
285.594000
21
198.413000
0
LINE
8
Layer 1
10
285.594000
20
198.413000
11
285.841000
21
198.413000
0
LINE
8
Layer 1
10
285.841000
20
198.413000
11
285.965000
21
198.475000
0
LINE
8
Layer 1
10
285.965000
20
198.475000
11
286.027000
21
198.537000
0
LINE
8
Layer 1
10
286.027000
20
198.537000
11
286.089000
21
198.661000
0
LINE
8
Layer 1
10
286.089000
20
198.661000
11
286.089000
21
198.971000
0
LINE
8
Layer 1
10
286.089000
20
198.971000
11
286.027000
21
199.094000
0
LINE
8
Layer 1
10
286.027000
20
199.094000
11
285.965000
21
199.156000
0
LINE
8
Layer 1
10
285.965000
20
199.156000
11
285.841000
21
199.218000
0
LINE
8
Layer 1
10
285.841000
20
199.218000
11
285.594000
21
199.218000
0
LINE
8
Layer 1
10
285.594000
20
199.218000
11
285.470000
21
199.156000
0
LINE
8
Layer 1
10
285.470000
20
199.156000
11
285.408000
21
199.094000
0
LINE
8
Layer 1
10
285.408000
20
199.094000
11
285.346000
21
198.971000
0
LINE
8
Layer 1
10
60.000000
20
11.999800
11
60.000000
21
9.999800
0
LINE
8
Layer 1
10
110.000000
20
11.999800
11
110.000000
21
9.999800
0
LINE
8
Layer 1
10
160.000000
20
11.999800
11
160.000000
21
9.999800
0
LINE
8
Layer 1
10
210.000000
20
11.999800
11
210.000000
21
9.999800
0
LINE
8
Layer 1
10
260.000000
20
11.999800
11
260.000000
21
9.999800
0
LINE
8
Layer 1
10
36.089200
20
10.406200
11
35.346300
21
10.406200
0
LINE
8
Layer 1
10
35.717700
20
10.406200
11
35.717700
21
11.706200
0
LINE
8
Layer 1
10
35.717700
20
11.706200
11
35.593900
21
11.520500
0
LINE
8
Layer 1
10
35.593900
20
11.520500
11
35.470100
21
11.396700
0
LINE
8
Layer 1
10
35.470100
20
11.396700
11
35.346300
21
11.334800
0
LINE
8
Layer 1
10
85.346300
20
11.582400
11
85.408200
21
11.644300
0
LINE
8
Layer 1
10
85.408200
20
11.644300
11
85.532000
21
11.706200
0
LINE
8
Layer 1
10
85.532000
20
11.706200
11
85.841500
21
11.706200
0
LINE
8
Layer 1
10
85.841500
20
11.706200
11
85.965400
21
11.644300
0
LINE
8
Layer 1
10
85.965400
20
11.644300
11
86.027300
21
11.582400
0
LINE
8
Layer 1
10
86.027300
20
11.582400
11
86.089200
21
11.458600
0
LINE
8
Layer 1
10
86.089200
20
11.458600
11
86.089200
21
11.334800
0
LINE
8
Layer 1
10
86.089200
20
11.334800
11
86.027300
21
11.149100
0
LINE
8
Layer 1
10
86.027300
20
11.149100
11
85.284400
21
10.406200
0
LINE
8
Layer 1
10
85.284400
20
10.406200
11
86.089200
21
10.406200
0
LINE
8
Layer 1
10
135.284000
20
11.706200
11
136.089000
21
11.706200
0
LINE
8
Layer 1
10
136.089000
20
11.706200
11
135.656000
21
11.211000
0
LINE
8
Layer 1
10
135.656000
20
11.211000
11
135.841000
21
11.211000
0
LINE
8
Layer 1
10
135.841000
20
11.211000
11
135.965000
21
11.149100
0
LINE
8
Layer 1
10
135.965000
20
11.149100
11
136.027000
21
11.087100
0
LINE
8
Layer 1
10
136.027000
20
11.087100
11
136.089000
21
10.963300
0
LINE
8
Layer 1
10
136.089000
20
10.963300
11
136.089000
21
10.653800
0
LINE
8
Layer 1
10
136.089000
20
10.653800
11
136.027000
21
10.530000
0
LINE
8
Layer 1
10
136.027000
20
10.530000
11
135.965000
21
10.468100
0
LINE
8
Layer 1
10
135.965000
20
10.468100
11
135.841000
21
10.406200
0
LINE
8
Layer 1
10
135.841000
20
10.406200
11
135.470000
21
10.406200
0
LINE
8
Layer 1
10
135.470000
20
10.406200
11
135.346000
21
10.468100
0
LINE
8
Layer 1
10
135.346000
20
10.468100
11
135.284000
21
10.530000
0
LINE
8
Layer 1
10
185.965000
20
11.272900
11
185.965000
21
10.406200
0
LINE
8
Layer 1
10
185.656000
20
11.768100
11
185.346000
21
10.839500
0
LINE
8
Layer 1
10
185.346000
20
10.839500
11
186.151000
21
10.839500
0
LINE
8
Layer 1
10
236.027000
20
11.706200
11
235.408000
21
11.706200
0
LINE
8
Layer 1
10
235.408000
20
11.706200
11
235.346000
21
11.087100
0
LINE
8
Layer 1
10
235.346000
20
11.087100
11
235.408000
21
11.149100
0
LINE
8
Layer 1
10
235.408000
20
11.149100
11
235.532000
21
11.211000
0
LINE
8
Layer 1
10
235.532000
20
11.211000
11
235.841000
21
11.211000
0
LINE
8
Layer 1
10
235.841000
20
11.211000
11
235.965000
21
11.149100
0
LINE
8
Layer 1
10
235.965000
20
11.149100
11
236.027000
21
11.087100
0
LINE
8
Layer 1
10
236.027000
20
11.087100
11
236.089000
21
10.963300
0
LINE
8
Layer 1
10
236.089000
20
10.963300
11
236.089000
21
10.653800
0
LINE
8
Layer 1
10
236.089000
20
10.653800
11
236.027000
21
10.530000
0
LINE
8
Layer 1
10
236.027000
20
10.530000
11
235.965000
21
10.468100
0
LINE
8
Layer 1
10
235.965000
20
10.468100
11
235.841000
21
10.406200
0
LINE
8
Layer 1
10
235.841000
20
10.406200
11
235.532000
21
10.406200
0
LINE
8
Layer 1
10
235.532000
20
10.406200
11
235.408000
21
10.468100
0
LINE
8
Layer 1
10
235.408000
20
10.468100
11
235.346000
21
10.530000
0
LINE
8
Layer 1
10
285.965000
20
11.706200
11
285.718000
21
11.706200
0
LINE
8
Layer 1
10
285.718000
20
11.706200
11
285.594000
21
11.644300
0
LINE
8
Layer 1
10
285.594000
20
11.644300
11
285.532000
21
11.582400
0
LINE
8
Layer 1
10
285.532000
20
11.582400
11
285.408000
21
11.396700
0
LINE
8
Layer 1
10
285.408000
20
11.396700
11
285.346000
21
11.149100
0
LINE
8
Layer 1
10
285.346000
20
11.149100
11
285.346000
21
10.653800
0
LINE
8
Layer 1
10
285.346000
20
10.653800
11
285.408000
21
10.530000
0
LINE
8
Layer 1
10
285.408000
20
10.530000
11
285.470000
21
10.468100
0
LINE
8
Layer 1
10
285.470000
20
10.468100
11
285.594000
21
10.406200
0
LINE
8
Layer 1
10
285.594000
20
10.406200
11
285.841000
21
10.406200
0
LINE
8
Layer 1
10
285.841000
20
10.406200
11
285.965000
21
10.468100
0
LINE
8
Layer 1
10
285.965000
20
10.468100
11
286.027000
21
10.530000
0
LINE
8
Layer 1
10
286.027000
20
10.530000
11
286.089000
21
10.653800
0
LINE
8
Layer 1
10
286.089000
20
10.653800
11
286.089000
21
10.963300
0
LINE
8
Layer 1
10
286.089000
20
10.963300
11
286.027000
21
11.087100
0
LINE
8
Layer 1
10
286.027000
20
11.087100
11
285.965000
21
11.149100
0
LINE
8
Layer 1
10
285.965000
20
11.149100
11
285.841000
21
11.211000
0
LINE
8
Layer 1
10
285.841000
20
11.211000
11
285.594000
21
11.211000
0
LINE
8
Layer 1
10
285.594000
20
11.211000
11
285.470000
21
11.149100
0
LINE
8
Layer 1
10
285.470000
20
11.149100
11
285.408000
21
11.087100
0
LINE
8
Layer 1
10
285.408000
20
11.087100
11
285.346000
21
10.963300
0
LINE
8
Layer 1
10
10.000000
20
150.007000
11
12.000000
21
150.007000
0
LINE
8
Layer 1
10
10.000000
20
100.007000
11
12.000000
21
100.007000
0
LINE
8
Layer 1
10
10.000000
20
50.007000
11
12.000000
21
50.007000
0
LINE
8
Layer 1
10
10.690500
20
174.785000
11
11.309500
21
174.785000
0
LINE
8
Layer 1
10
10.566700
20
174.413000
11
11.000000
21
175.713000
0
LINE
8
Layer 1
10
11.000000
20
175.713000
11
11.433300
21
174.413000
0
LINE
8
Layer 1
10
11.092900
20
125.094000
11
11.278600
21
125.032000
0
LINE
8
Layer 1
10
11.278600
20
125.032000
11
11.340500
21
124.971000
0
LINE
8
Layer 1
10
11.340500
20
124.971000
11
11.402400
21
124.847000
0
LINE
8
Layer 1
10
11.402400
20
124.847000
11
11.402400
21
124.661000
0
LINE
8
Layer 1
10
11.402400
20
124.661000
11
11.340500
21
124.537000
0
LINE
8
Layer 1
10
11.340500
20
124.537000
11
11.278600
21
124.475000
0
LINE
8
Layer 1
10
11.278600
20
124.475000
11
11.154800
21
124.413000
0
LINE
8
Layer 1
10
11.154800
20
124.413000
11
10.659500
21
124.413000
0
LINE
8
Layer 1
10
10.659500
20
124.413000
11
10.659500
21
125.713000
0
LINE
8
Layer 1
10
10.659500
20
125.713000
11
11.092900
21
125.713000
0
LINE
8
Layer 1
10
11.092900
20
125.713000
11
11.216700
21
125.651000
0
LINE
8
Layer 1
10
11.216700
20
125.651000
11
11.278600
21
125.590000
0
LINE
8
Layer 1
10
11.278600
20
125.590000
11
11.340500
21
125.466000
0
LINE
8
Layer 1
10
11.340500
20
125.466000
11
11.340500
21
125.342000
0
LINE
8
Layer 1
10
11.340500
20
125.342000
11
11.278600
21
125.218000
0
LINE
8
Layer 1
10
11.278600
20
125.218000
11
11.216700
21
125.156000
0
LINE
8
Layer 1
10
11.216700
20
125.156000
11
11.092900
21
125.094000
0
LINE
8
Layer 1
10
11.092900
20
125.094000
11
10.659500
21
125.094000
0
LINE
8
Layer 1
10
11.402400
20
74.537200
11
11.340500
21
74.475300
0
LINE
8
Layer 1
10
11.340500
20
74.475300
11
11.154800
21
74.413400
0
LINE
8
Layer 1
10
11.154800
20
74.413400
11
11.031000
21
74.413400
0
LINE
8
Layer 1
10
11.031000
20
74.413400
11
10.845200
21
74.475300
0
LINE
8
Layer 1
10
10.845200
20
74.475300
11
10.721400
21
74.599100
0
LINE
8
Layer 1
10
10.721400
20
74.599100
11
10.659500
21
74.722900
0
LINE
8
Layer 1
10
10.659500
20
74.722900
11
10.597600
21
74.970500
0
LINE
8
Layer 1
10
10.597600
20
74.970500
11
10.597600
21
75.156300
0
LINE
8
Layer 1
10
10.597600
20
75.156300
11
10.659500
21
75.403900
0
LINE
8
Layer 1
10
10.659500
20
75.403900
11
10.721400
21
75.527700
0
LINE
8
Layer 1
10
10.721400
20
75.527700
11
10.845200
21
75.651500
0
LINE
8
Layer 1
10
10.845200
20
75.651500
11
11.031000
21
75.713400
0
LINE
8
Layer 1
10
11.031000
20
75.713400
11
11.154800
21
75.713400
0
LINE
8
Layer 1
10
11.154800
20
75.713400
11
11.340500
21
75.651500
0
LINE
8
Layer 1
10
11.340500
20
75.651500
11
11.402400
21
75.589600
0
LINE
8
Layer 1
10
10.659500
20
24.413400
11
10.659500
21
25.713400
0
LINE
8
Layer 1
10
10.659500
20
25.713400
11
10.969000
21
25.713400
0
LINE
8
Layer 1
10
10.969000
20
25.713400
11
11.154800
21
25.651500
0
LINE
8
Layer 1
10
11.154800
20
25.651500
11
11.278600
21
25.527700
0
LINE
8
Layer 1
10
11.278600
20
25.527700
11
11.340500
21
25.403900
0
LINE
8
Layer 1
10
11.340500
20
25.403900
11
11.402400
21
25.156300
0
LINE
8
Layer 1
10
11.402400
20
25.156300
11
11.402400
21
24.970500
0
LINE
8
Layer 1
10
11.402400
20
24.970500
11
11.340500
21
24.722900
0
LINE
8
Layer 1
10
11.340500
20
24.722900
11
11.278600
21
24.599100
0
LINE
8
Layer 1
10
11.278600
20
24.599100
11
11.154800
21
24.475300
0
LINE
8
Layer 1
10
11.154800
20
24.475300
11
10.969000
21
24.413400
0
LINE
8
Layer 1
10
10.969000
20
24.413400
11
10.659500
21
24.413400
0
LINE
8
Layer 1
10
287.002000
20
150.007000
11
285.002000
21
150.007000
0
LINE
8
Layer 1
10
287.002000
20
100.007000
11
285.002000
21
100.007000
0
LINE
8
Layer 1
10
287.002000
20
50.007000
11
285.002000
21
50.007000
0
LINE
8
Layer 1
10
285.693000
20
174.785000
11
286.312000
21
174.785000
0
LINE
8
Layer 1
10
285.569000
20
174.413000
11
286.002000
21
175.713000
0
LINE
8
Layer 1
10
286.002000
20
175.713000
11
286.435000
21
174.413000
0
LINE
8
Layer 1
10
286.095000
20
125.094000
11
286.281000
21
125.032000
0
LINE
8
Layer 1
10
286.281000
20
125.032000
11
286.343000
21
124.971000
0
LINE
8
Layer 1
10
286.343000
20
124.971000
11
286.405000
21
124.847000
0
LINE
8
Layer 1
10
286.405000
20
124.847000
11
286.405000
21
124.661000
0
LINE
8
Layer 1
10
286.405000
20
124.661000
11
286.343000
21
124.537000
0
LINE
8
Layer 1
10
286.343000
20
124.537000
11
286.281000
21
124.475000
0
LINE
8
Layer 1
10
286.281000
20
124.475000
11
286.157000
21
124.413000
0
LINE
8
Layer 1
10
286.157000
20
124.413000
11
285.662000
21
124.413000
0
LINE
8
Layer 1
10
285.662000
20
124.413000
11
285.662000
21
125.713000
0
LINE
8
Layer 1
10
285.662000
20
125.713000
11
286.095000
21
125.713000
0
LINE
8
Layer 1
10
286.095000
20
125.713000
11
286.219000
21
125.651000
0
LINE
8
Layer 1
10
286.219000
20
125.651000
11
286.281000
21
125.590000
0
LINE
8
Layer 1
10
286.281000
20
125.590000
11
286.343000
21
125.466000
0
LINE
8
Layer 1
10
286.343000
20
125.466000
11
286.343000
21
125.342000
0
LINE
8
Layer 1
10
286.343000
20
125.342000
11
286.281000
21
125.218000
0
LINE
8
Layer 1
10
286.281000
20
125.218000
11
286.219000
21
125.156000
0
LINE
8
Layer 1
10
286.219000
20
125.156000
11
286.095000
21
125.094000
0
LINE
8
Layer 1
10
286.095000
20
125.094000
11
285.662000
21
125.094000
0
LINE
8
Layer 1
10
286.405000
20
74.537200
11
286.343000
21
74.475300
0
LINE
8
Layer 1
10
286.343000
20
74.475300
11
286.157000
21
74.413400
0
LINE
8
Layer 1
10
286.157000
20
74.413400
11
286.033000
21
74.413400
0
LINE
8
Layer 1
10
286.033000
20
74.413400
11
285.847000
21
74.475300
0
LINE
8
Layer 1
10
285.847000
20
74.475300
11
285.724000
21
74.599100
0
LINE
8
Layer 1
10
285.724000
20
74.599100
11
285.662000
21
74.722900
0
LINE
8
Layer 1
10
285.662000
20
74.722900
11
285.600000
21
74.970500
0
LINE
8
Layer 1
10
285.600000
20
74.970500
11
285.600000
21
75.156300
0
LINE
8
Layer 1
10
285.600000
20
75.156300
11
285.662000
21
75.403900
0
LINE
8
Layer 1
10
285.662000
20
75.403900
11
285.724000
21
75.527700
0
LINE
8
Layer 1
10
285.724000
20
75.527700
11
285.847000
21
75.651500
0
LINE
8
Layer 1
10
285.847000
20
75.651500
11
286.033000
21
75.713400
0
LINE
8
Layer 1
10
286.033000
20
75.713400
11
286.157000
21
75.713400
0
LINE
8
Layer 1
10
286.157000
20
75.713400
11
286.343000
21
75.651500
0
LINE
8
Layer 1
10
286.343000
20
75.651500
11
286.405000
21
75.589600
0
LINE
8
Layer 1
10
285.662000
20
24.413400
11
285.662000
21
25.713400
0
LINE
8
Layer 1
10
285.662000
20
25.713400
11
285.971000
21
25.713400
0
LINE
8
Layer 1
10
285.971000
20
25.713400
11
286.157000
21
25.651500
0
LINE
8
Layer 1
10
286.157000
20
25.651500
11
286.281000
21
25.527700
0
LINE
8
Layer 1
10
286.281000
20
25.527700
11
286.343000
21
25.403900
0
LINE
8
Layer 1
10
286.343000
20
25.403900
11
286.405000
21
25.156300
0
LINE
8
Layer 1
10
286.405000
20
25.156300
11
286.405000
21
24.970500
0
LINE
8
Layer 1
10
286.405000
20
24.970500
11
286.343000
21
24.722900
0
LINE
8
Layer 1
10
286.343000
20
24.722900
11
286.281000
21
24.599100
0
LINE
8
Layer 1
10
286.281000
20
24.599100
11
286.157000
21
24.475300
0
LINE
8
Layer 1
10
286.157000
20
24.475300
11
285.971000
21
24.413400
0
LINE
8
Layer 1
10
285.971000
20
24.413400
11
285.662000
21
24.413400
0
LINE
8
Layer 1
10
200.458000
20
16.213700
11
200.458000
21
17.713700
0
LINE
8
Layer 1
10
200.458000
20
17.713700
11
200.815000
21
17.713700
0
LINE
8
Layer 1
10
200.815000
20
17.713700
11
201.030000
21
17.642200
0
LINE
8
Layer 1
10
201.030000
20
17.642200
11
201.172000
21
17.499400
0
LINE
8
Layer 1
10
201.172000
20
17.499400
11
201.244000
21
17.356500
0
LINE
8
Layer 1
10
201.244000
20
17.356500
11
201.315000
21
17.070800
0
LINE
8
Layer 1
10
201.315000
20
17.070800
11
201.315000
21
16.856500
0
LINE
8
Layer 1
10
201.315000
20
16.856500
11
201.244000
21
16.570800
0
LINE
8
Layer 1
10
201.244000
20
16.570800
11
201.172000
21
16.428000
0
LINE
8
Layer 1
10
201.172000
20
16.428000
11
201.030000
21
16.285100
0
LINE
8
Layer 1
10
201.030000
20
16.285100
11
200.815000
21
16.213700
0
LINE
8
Layer 1
10
200.815000
20
16.213700
11
200.458000
21
16.213700
0
LINE
8
Layer 1
10
202.601000
20
16.213700
11
202.601000
21
16.999400
0
LINE
8
Layer 1
10
202.601000
20
16.999400
11
202.530000
21
17.142200
0
LINE
8
Layer 1
10
202.530000
20
17.142200
11
202.387000
21
17.213700
0
LINE
8
Layer 1
10
202.387000
20
17.213700
11
202.101000
21
17.213700
0
LINE
8
Layer 1
10
202.101000
20
17.213700
11
201.958000
21
17.142200
0
LINE
8
Layer 1
10
202.601000
20
16.285100
11
202.458000
21
16.213700
0
LINE
8
Layer 1
10
202.458000
20
16.213700
11
202.101000
21
16.213700
0
LINE
8
Layer 1
10
202.101000
20
16.213700
11
201.958000
21
16.285100
0
LINE
8
Layer 1
10
201.958000
20
16.285100
11
201.887000
21
16.428000
0
LINE
8
Layer 1
10
201.887000
20
16.428000
11
201.887000
21
16.570800
0
LINE
8
Layer 1
10
201.887000
20
16.570800
11
201.958000
21
16.713700
0
LINE
8
Layer 1
10
201.958000
20
16.713700
11
202.101000
21
16.785100
0
LINE
8
Layer 1
10
202.101000
20
16.785100
11
202.458000
21
16.785100
0
LINE
8
Layer 1
10
202.458000
20
16.785100
11
202.601000
21
16.856500
0
LINE
8
Layer 1
10
203.101000
20
17.213700
11
203.672000
21
17.213700
0
LINE
8
Layer 1
10
203.315000
20
17.713700
11
203.315000
21
16.428000
0
LINE
8
Layer 1
10
203.315000
20
16.428000
11
203.387000
21
16.285100
0
LINE
8
Layer 1
10
203.387000
20
16.285100
11
203.530000
21
16.213700
0
LINE
8
Layer 1
10
203.530000
20
16.213700
11
203.672000
21
16.213700
0
LINE
8
Layer 1
10
204.744000
20
16.285100
11
204.601000
21
16.213700
0
LINE
8
Layer 1
10
204.601000
20
16.213700
11
204.315000
21
16.213700
0
LINE
8
Layer 1
10
204.315000
20
16.213700
11
204.172000
21
16.285100
0
LINE
8
Layer 1
10
204.172000
20
16.285100
11
204.101000
21
16.428000
0
LINE
8
Layer 1
10
204.101000
20
16.428000
11
204.101000
21
16.999400
0
LINE
8
Layer 1
10
204.101000
20
16.999400
11
204.172000
21
17.142200
0
LINE
8
Layer 1
10
204.172000
20
17.142200
11
204.315000
21
17.213700
0
LINE
8
Layer 1
10
204.315000
20
17.213700
11
204.601000
21
17.213700
0
LINE
8
Layer 1
10
204.601000
20
17.213700
11
204.744000
21
17.142200
0
LINE
8
Layer 1
10
204.744000
20
17.142200
11
204.815000
21
16.999400
0
LINE
8
Layer 1
10
204.815000
20
16.999400
11
204.815000
21
16.856500
0
LINE
8
Layer 1
10
204.815000
20
16.856500
11
204.101000
21
16.713700
0
LINE
8
Layer 1
10
205.458000
20
16.356500
11
205.530000
21
16.285100
0
LINE
8
Layer 1
10
205.530000
20
16.285100
11
205.458000
21
16.213700
0
LINE
8
Layer 1
10
205.458000
20
16.213700
11
205.387000
21
16.285100
0
LINE
8
Layer 1
10
205.387000
20
16.285100
11
205.458000
21
16.356500
0
LINE
8
Layer 1
10
205.458000
20
16.356500
11
205.458000
21
16.213700
0
LINE
8
Layer 1
10
205.458000
20
17.142200
11
205.530000
21
17.070800
0
LINE
8
Layer 1
10
205.530000
20
17.070800
11
205.458000
21
16.999400
0
LINE
8
Layer 1
10
205.458000
20
16.999400
11
205.387000
21
17.070800
0
LINE
8
Layer 1
10
205.387000
20
17.070800
11
205.458000
21
17.142200
0
LINE
8
Layer 1
10
205.458000
20
17.142200
11
205.458000
21
16.999400
0
LINE
8
Layer 1
10
207.244000
20
17.570800
11
207.315000
21
17.642200
0
LINE
8
Layer 1
10
207.315000
20
17.642200
11
207.458000
21
17.713700
0
LINE
8
Layer 1
10
207.458000
20
17.713700
11
207.815000
21
17.713700
0
LINE
8
Layer 1
10
207.815000
20
17.713700
11
207.958000
21
17.642200
0
LINE
8
Layer 1
10
207.958000
20
17.642200
11
208.030000
21
17.570800
0
LINE
8
Layer 1
10
208.030000
20
17.570800
11
208.101000
21
17.428000
0
LINE
8
Layer 1
10
208.101000
20
17.428000
11
208.101000
21
17.285100
0
LINE
8
Layer 1
10
208.101000
20
17.285100
11
208.030000
21
17.070800
0
LINE
8
Layer 1
10
208.030000
20
17.070800
11
207.172000
21
16.213700
0
LINE
8
Layer 1
10
207.172000
20
16.213700
11
208.101000
21
16.213700
0
LINE
8
Layer 1
10
209.030000
20
17.713700
11
209.172000
21
17.713700
0
LINE
8
Layer 1
10
209.172000
20
17.713700
11
209.315000
21
17.642200
0
LINE
8
Layer 1
10
209.315000
20
17.642200
11
209.387000
21
17.570800
0
LINE
8
Layer 1
10
209.387000
20
17.570800
11
209.458000
21
17.428000
0
LINE
8
Layer 1
10
209.458000
20
17.428000
11
209.530000
21
17.142200
0
LINE
8
Layer 1
10
209.530000
20
17.142200
11
209.530000
21
16.785100
0
LINE
8
Layer 1
10
209.530000
20
16.785100
11
209.458000
21
16.499400
0
LINE
8
Layer 1
10
209.458000
20
16.499400
11
209.387000
21
16.356500
0
LINE
8
Layer 1
10
209.387000
20
16.356500
11
209.315000
21
16.285100
0
LINE
8
Layer 1
10
209.315000
20
16.285100
11
209.172000
21
16.213700
0
LINE
8
Layer 1
10
209.172000
20
16.213700
11
209.030000
21
16.213700
0
LINE
8
Layer 1
10
209.030000
20
16.213700
11
208.887000
21
16.285100
0
LINE
8
Layer 1
10
208.887000
20
16.285100
11
208.815000
21
16.356500
0
LINE
8
Layer 1
10
208.815000
20
16.356500
11
208.744000
21
16.499400
0
LINE
8
Layer 1
10
208.744000
20
16.499400
11
208.672000
21
16.785100
0
LINE
8
Layer 1
10
208.672000
20
16.785100
11
208.672000
21
17.142200
0
LINE
8
Layer 1
10
208.672000
20
17.142200
11
208.744000
21
17.428000
0
LINE
8
Layer 1
10
208.744000
20
17.428000
11
208.815000
21
17.570800
0
LINE
8
Layer 1
10
208.815000
20
17.570800
11
208.887000
21
17.642200
0
LINE
8
Layer 1
10
208.887000
20
17.642200
11
209.030000
21
17.713700
0
LINE
8
Layer 1
10
210.101000
20
17.570800
11
210.172000
21
17.642200
0
LINE
8
Layer 1
10
210.172000
20
17.642200
11
210.315000
21
17.713700
0
LINE
8
Layer 1
10
210.315000
20
17.713700
11
210.672000
21
17.713700
0
LINE
8
Layer 1
10
210.672000
20
17.713700
11
210.815000
21
17.642200
0
LINE
8
Layer 1
10
210.815000
20
17.642200
11
210.887000
21
17.570800
0
LINE
8
Layer 1
10
210.887000
20
17.570800
11
210.958000
21
17.428000
0
LINE
8
Layer 1
10
210.958000
20
17.428000
11
210.958000
21
17.285100
0
LINE
8
Layer 1
10
210.958000
20
17.285100
11
210.887000
21
17.070800
0
LINE
8
Layer 1
10
210.887000
20
17.070800
11
210.030000
21
16.213700
0
LINE
8
Layer 1
10
210.030000
20
16.213700
11
210.958000
21
16.213700
0
LINE
8
Layer 1
10
211.458000
20
17.713700
11
212.387000
21
17.713700
0
LINE
8
Layer 1
10
212.387000
20
17.713700
11
211.887000
21
17.142200
0
LINE
8
Layer 1
10
211.887000
20
17.142200
11
212.101000
21
17.142200
0
LINE
8
Layer 1
10
212.101000
20
17.142200
11
212.244000
21
17.070800
0
LINE
8
Layer 1
10
212.244000
20
17.070800
11
212.315000
21
16.999400
0
LINE
8
Layer 1
10
212.315000
20
16.999400
11
212.387000
21
16.856500
0
LINE
8
Layer 1
10
212.387000
20
16.856500
11
212.387000
21
16.499400
0
LINE
8
Layer 1
10
212.387000
20
16.499400
11
212.315000
21
16.356500
0
LINE
8
Layer 1
10
212.315000
20
16.356500
11
212.244000
21
16.285100
0
LINE
8
Layer 1
10
212.244000
20
16.285100
11
212.101000
21
16.213700
0
LINE
8
Layer 1
10
212.101000
20
16.213700
11
211.672000
21
16.213700
0
LINE
8
Layer 1
10
211.672000
20
16.213700
11
211.530000
21
16.285100
0
LINE
8
Layer 1
10
211.530000
20
16.285100
11
211.458000
21
16.356500
0
LINE
8
Layer 1
10
213.030000
20
16.785100
11
214.172000
21
16.785100
0
LINE
8
Layer 1
10
215.172000
20
17.713700
11
215.315000
21
17.713700
0
LINE
8
Layer 1
10
215.315000
20
17.713700
11
215.458000
21
17.642200
0
LINE
8
Layer 1
10
215.458000
20
17.642200
11
215.530000
21
17.570800
0
LINE
8
Layer 1
10
215.530000
20
17.570800
11
215.601000
21
17.428000
0
LINE
8
Layer 1
10
215.601000
20
17.428000
11
215.672000
21
17.142200
0
LINE
8
Layer 1
10
215.672000
20
17.142200
11
215.672000
21
16.785100
0
LINE
8
Layer 1
10
215.672000
20
16.785100
11
215.601000
21
16.499400
0
LINE
8
Layer 1
10
215.601000
20
16.499400
11
215.530000
21
16.356500
0
LINE
8
Layer 1
10
215.530000
20
16.356500
11
215.458000
21
16.285100
0
LINE
8
Layer 1
10
215.458000
20
16.285100
11
215.315000
21
16.213700
0
LINE
8
Layer 1
10
215.315000
20
16.213700
11
215.172000
21
16.213700
0
LINE
8
Layer 1
10
215.172000
20
16.213700
11
215.030000
21
16.285100
0
LINE
8
Layer 1
10
215.030000
20
16.285100
11
214.958000
21
16.356500
0
LINE
8
Layer 1
10
214.958000
20
16.356500
11
214.887000
21
16.499400
0
LINE
8
Layer 1
10
214.887000
20
16.499400
11
214.815000
21
16.785100
0
LINE
8
Layer 1
10
214.815000
20
16.785100
11
214.815000
21
17.142200
0
LINE
8
Layer 1
10
214.815000
20
17.142200
11
214.887000
21
17.428000
0
LINE
8
Layer 1
10
214.887000
20
17.428000
11
214.958000
21
17.570800
0
LINE
8
Layer 1
10
214.958000
20
17.570800
11
215.030000
21
17.642200
0
LINE
8
Layer 1
10
215.030000
20
17.642200
11
215.172000
21
17.713700
0
LINE
8
Layer 1
10
216.958000
20
17.213700
11
216.958000
21
16.213700
0
LINE
8
Layer 1
10
216.601000
20
17.785100
11
216.244000
21
16.713700
0
LINE
8
Layer 1
10
216.244000
20
16.713700
11
217.172000
21
16.713700
0
LINE
8
Layer 1
10
217.744000
20
16.785100
11
218.887000
21
16.785100
0
LINE
8
Layer 1
10
220.387000
20
16.213700
11
219.530000
21
16.213700
0
LINE
8
Layer 1
10
219.958000
20
16.213700
11
219.958000
21
17.713700
0
LINE
8
Layer 1
10
219.958000
20
17.713700
11
219.815000
21
17.499400
0
LINE
8
Layer 1
10
219.815000
20
17.499400
11
219.672000
21
17.356500
0
LINE
8
Layer 1
10
219.672000
20
17.356500
11
219.530000
21
17.285100
0
LINE
8
Layer 1
10
220.887000
20
17.713700
11
221.887000
21
17.713700
0
LINE
8
Layer 1
10
221.887000
20
17.713700
11
221.244000
21
16.213700
0
LINE
8
Layer 1
10
177.002000
20
15.499800
11
285.002000
21
15.499800
0
LINE
8
Layer 1
10
178.458000
20
13.413700
11
178.458000
21
14.913700
0
LINE
8
Layer 1
10
179.315000
20
13.413700
11
178.672000
21
14.270800
0
LINE
8
Layer 1
10
179.315000
20
14.913700
11
178.458000
21
14.056500
0
LINE
8
Layer 1
10
179.958000
20
13.413700
11
179.958000
21
14.413700
0
LINE
8
Layer 1
10
179.958000
20
14.913700
11
179.887000
21
14.842200
0
LINE
8
Layer 1
10
179.887000
20
14.842200
11
179.958000
21
14.770800
0
LINE
8
Layer 1
10
179.958000
20
14.770800
11
180.030000
21
14.842200
0
LINE
8
Layer 1
10
180.030000
20
14.842200
11
179.958000
21
14.913700
0
LINE
8
Layer 1
10
179.958000
20
14.913700
11
179.958000
21
14.770800
0
LINE
8
Layer 1
10
181.530000
20
13.556500
11
181.458000
21
13.485100
0
LINE
8
Layer 1
10
181.458000
20
13.485100
11
181.244000
21
13.413700
0
LINE
8
Layer 1
10
181.244000
20
13.413700
11
181.101000
21
13.413700
0
LINE
8
Layer 1
10
181.101000
20
13.413700
11
180.887000
21
13.485100
0
LINE
8
Layer 1
10
180.887000
20
13.485100
11
180.744000
21
13.628000
0
LINE
8
Layer 1
10
180.744000
20
13.628000
11
180.672000
21
13.770800
0
LINE
8
Layer 1
10
180.672000
20
13.770800
11
180.601000
21
14.056500
0
LINE
8
Layer 1
10
180.601000
20
14.056500
11
180.601000
21
14.270800
0
LINE
8
Layer 1
10
180.601000
20
14.270800
11
180.672000
21
14.556500
0
LINE
8
Layer 1
10
180.672000
20
14.556500
11
180.744000
21
14.699400
0
LINE
8
Layer 1
10
180.744000
20
14.699400
11
180.887000
21
14.842200
0
LINE
8
Layer 1
10
180.887000
20
14.842200
11
181.101000
21
14.913700
0
LINE
8
Layer 1
10
181.101000
20
14.913700
11
181.244000
21
14.913700
0
LINE
8
Layer 1
10
181.244000
20
14.913700
11
181.458000
21
14.842200
0
LINE
8
Layer 1
10
181.458000
20
14.842200
11
181.530000
21
14.770800
0
LINE
8
Layer 1
10
182.815000
20
13.413700
11
182.815000
21
14.199400
0
LINE
8
Layer 1
10
182.815000
20
14.199400
11
182.744000
21
14.342200
0
LINE
8
Layer 1
10
182.744000
20
14.342200
11
182.601000
21
14.413700
0
LINE
8
Layer 1
10
182.601000
20
14.413700
11
182.315000
21
14.413700
0
LINE
8
Layer 1
10
182.315000
20
14.413700
11
182.172000
21
14.342200
0
LINE
8
Layer 1
10
182.815000
20
13.485100
11
182.672000
21
13.413700
0
LINE
8
Layer 1
10
182.672000
20
13.413700
11
182.315000
21
13.413700
0
LINE
8
Layer 1
10
182.315000
20
13.413700
11
182.172000
21
13.485100
0
LINE
8
Layer 1
10
182.172000
20
13.485100
11
182.101000
21
13.628000
0
LINE
8
Layer 1
10
182.101000
20
13.628000
11
182.101000
21
13.770800
0
LINE
8
Layer 1
10
182.101000
20
13.770800
11
182.172000
21
13.913700
0
LINE
8
Layer 1
10
182.172000
20
13.913700
11
182.315000
21
13.985100
0
LINE
8
Layer 1
10
182.315000
20
13.985100
11
182.672000
21
13.985100
0
LINE
8
Layer 1
10
182.672000
20
13.985100
11
182.815000
21
14.056500
0
LINE
8
Layer 1
10
184.172000
20
13.413700
11
184.172000
21
14.913700
0
LINE
8
Layer 1
10
184.172000
20
13.485100
11
184.030000
21
13.413700
0
LINE
8
Layer 1
10
184.030000
20
13.413700
11
183.744000
21
13.413700
0
LINE
8
Layer 1
10
183.744000
20
13.413700
11
183.601000
21
13.485100
0
LINE
8
Layer 1
10
183.601000
20
13.485100
11
183.530000
21
13.556500
0
LINE
8
Layer 1
10
183.530000
20
13.556500
11
183.458000
21
13.699400
0
LINE
8
Layer 1
10
183.458000
20
13.699400
11
183.458000
21
14.128000
0
LINE
8
Layer 1
10
183.458000
20
14.128000
11
183.530000
21
14.270800
0
LINE
8
Layer 1
10
183.530000
20
14.270800
11
183.601000
21
14.342200
0
LINE
8
Layer 1
10
183.601000
20
14.342200
11
183.744000
21
14.413700
0
LINE
8
Layer 1
10
183.744000
20
14.413700
11
184.030000
21
14.413700
0
LINE
8
Layer 1
10
184.030000
20
14.413700
11
184.172000
21
14.342200
0
LINE
8
Layer 1
10
186.030000
20
14.199400
11
186.530000
21
14.199400
0
LINE
8
Layer 1
10
186.744000
20
13.413700
11
186.030000
21
13.413700
0
LINE
8
Layer 1
10
186.030000
20
13.413700
11
186.030000
21
14.913700
0
LINE
8
Layer 1
10
186.030000
20
14.913700
11
186.744000
21
14.913700
0
LINE
8
Layer 1
10
187.387000
20
13.556500
11
187.458000
21
13.485100
0
LINE
8
Layer 1
10
187.458000
20
13.485100
11
187.387000
21
13.413700
0
LINE
8
Layer 1
10
187.387000
20
13.413700
11
187.315000
21
13.485100
0
LINE
8
Layer 1
10
187.315000
20
13.485100
11
187.387000
21
13.556500
0
LINE
8
Layer 1
10
187.387000
20
13.556500
11
187.387000
21
13.413700
0
LINE
8
Layer 1
10
188.101000
20
13.413700
11
188.101000
21
14.913700
0
LINE
8
Layer 1
10
188.101000
20
14.913700
11
188.458000
21
14.913700
0
LINE
8
Layer 1
10
188.458000
20
14.913700
11
188.672000
21
14.842200
0
LINE
8
Layer 1
10
188.672000
20
14.842200
11
188.815000
21
14.699400
0
LINE
8
Layer 1
10
188.815000
20
14.699400
11
188.887000
21
14.556500
0
LINE
8
Layer 1
10
188.887000
20
14.556500
11
188.958000
21
14.270800
0
LINE
8
Layer 1
10
188.958000
20
14.270800
11
188.958000
21
14.056500
0
LINE
8
Layer 1
10
188.958000
20
14.056500
11
188.887000
21
13.770800
0
LINE
8
Layer 1
10
188.887000
20
13.770800
11
188.815000
21
13.628000
0
LINE
8
Layer 1
10
188.815000
20
13.628000
11
188.672000
21
13.485100
0
LINE
8
Layer 1
10
188.672000
20
13.485100
11
188.458000
21
13.413700
0
LINE
8
Layer 1
10
188.458000
20
13.413700
11
188.101000
21
13.413700
0
LINE
8
Layer 1
10
189.601000
20
13.556500
11
189.672000
21
13.485100
0
LINE
8
Layer 1
10
189.672000
20
13.485100
11
189.601000
21
13.413700
0
LINE
8
Layer 1
10
189.601000
20
13.413700
11
189.530000
21
13.485100
0
LINE
8
Layer 1
10
189.530000
20
13.485100
11
189.601000
21
13.556500
0
LINE
8
Layer 1
10
189.601000
20
13.556500
11
189.601000
21
13.413700
0
LINE
8
Layer 1
10
190.244000
20
13.842200
11
190.958000
21
13.842200
0
LINE
8
Layer 1
10
190.101000
20
13.413700
11
190.601000
21
14.913700
0
LINE
8
Layer 1
10
190.601000
20
14.913700
11
191.101000
21
13.413700
0
LINE
8
Layer 1
10
191.601000
20
13.556500
11
191.672000
21
13.485100
0
LINE
8
Layer 1
10
191.672000
20
13.485100
11
191.601000
21
13.413700
0
LINE
8
Layer 1
10
191.601000
20
13.413700
11
191.530000
21
13.485100
0
LINE
8
Layer 1
10
191.530000
20
13.485100
11
191.601000
21
13.556500
0
LINE
8
Layer 1
10
191.601000
20
13.556500
11
191.601000
21
13.413700
0
LINE
8
Layer 1
10
193.672000
20
14.270800
11
193.530000
21
14.342200
0
LINE
8
Layer 1
10
193.530000
20
14.342200
11
193.458000
21
14.413700
0
LINE
8
Layer 1
10
193.458000
20
14.413700
11
193.387000
21
14.556500
0
LINE
8
Layer 1
10
193.387000
20
14.556500
11
193.387000
21
14.628000
0
LINE
8
Layer 1
10
193.387000
20
14.628000
11
193.458000
21
14.770800
0
LINE
8
Layer 1
10
193.458000
20
14.770800
11
193.530000
21
14.842200
0
LINE
8
Layer 1
10
193.530000
20
14.842200
11
193.672000
21
14.913700
0
LINE
8
Layer 1
10
193.672000
20
14.913700
11
193.958000
21
14.913700
0
LINE
8
Layer 1
10
193.958000
20
14.913700
11
194.101000
21
14.842200
0
LINE
8
Layer 1
10
194.101000
20
14.842200
11
194.172000
21
14.770800
0
LINE
8
Layer 1
10
194.172000
20
14.770800
11
194.244000
21
14.628000
0
LINE
8
Layer 1
10
194.244000
20
14.628000
11
194.244000
21
14.556500
0
LINE
8
Layer 1
10
194.244000
20
14.556500
11
194.172000
21
14.413700
0
LINE
8
Layer 1
10
194.172000
20
14.413700
11
194.101000
21
14.342200
0
LINE
8
Layer 1
10
194.101000
20
14.342200
11
193.958000
21
14.270800
0
LINE
8
Layer 1
10
193.958000
20
14.270800
11
193.672000
21
14.270800
0
LINE
8
Layer 1
10
193.672000
20
14.270800
11
193.530000
21
14.199400
0
LINE
8
Layer 1
10
193.530000
20
14.199400
11
193.458000
21
14.128000
0
LINE
8
Layer 1
10
193.458000
20
14.128000
11
193.387000
21
13.985100
0
LINE
8
Layer 1
10
193.387000
20
13.985100
11
193.387000
21
13.699400
0
LINE
8
Layer 1
10
193.387000
20
13.699400
11
193.458000
21
13.556500
0
LINE
8
Layer 1
10
193.458000
20
13.556500
11
193.530000
21
13.485100
0
LINE
8
Layer 1
10
193.530000
20
13.485100
11
193.672000
21
13.413700
0
LINE
8
Layer 1
10
193.672000
20
13.413700
11
193.958000
21
13.413700
0
LINE
8
Layer 1
10
193.958000
20
13.413700
11
194.101000
21
13.485100
0
LINE
8
Layer 1
10
194.101000
20
13.485100
11
194.172000
21
13.556500
0
LINE
8
Layer 1
10
194.172000
20
13.556500
11
194.244000
21
13.699400
0
LINE
8
Layer 1
10
194.244000
20
13.699400
11
194.244000
21
13.985100
0
LINE
8
Layer 1
10
194.244000
20
13.985100
11
194.172000
21
14.128000
0
LINE
8
Layer 1
10
194.172000
20
14.128000
11
194.101000
21
14.199400
0
LINE
8
Layer 1
10
194.101000
20
14.199400
11
193.958000
21
14.270800
0
LINE
8
Layer 1
10
194.887000
20
13.556500
11
194.958000
21
13.485100
0
LINE
8
Layer 1
10
194.958000
20
13.485100
11
194.887000
21
13.413700
0
LINE
8
Layer 1
10
194.887000
20
13.413700
11
194.815000
21
13.485100
0
LINE
8
Layer 1
10
194.815000
20
13.485100
11
194.887000
21
13.556500
0
LINE
8
Layer 1
10
194.887000
20
13.556500
11
194.887000
21
13.413700
0
LINE
8
Layer 1
10
195.887000
20
14.913700
11
196.030000
21
14.913700
0
LINE
8
Layer 1
10
196.030000
20
14.913700
11
196.172000
21
14.842200
0
LINE
8
Layer 1
10
196.172000
20
14.842200
11
196.244000
21
14.770800
0
LINE
8
Layer 1
10
196.244000
20
14.770800
11
196.315000
21
14.628000
0
LINE
8
Layer 1
10
196.315000
20
14.628000
11
196.387000
21
14.342200
0
LINE
8
Layer 1
10
196.387000
20
14.342200
11
196.387000
21
13.985100
0
LINE
8
Layer 1
10
196.387000
20
13.985100
11
196.315000
21
13.699400
0
LINE
8
Layer 1
10
196.315000
20
13.699400
11
196.244000
21
13.556500
0
LINE
8
Layer 1
10
196.244000
20
13.556500
11
196.172000
21
13.485100
0
LINE
8
Layer 1
10
196.172000
20
13.485100
11
196.030000
21
13.413700
0
LINE
8
Layer 1
10
196.030000
20
13.413700
11
195.887000
21
13.413700
0
LINE
8
Layer 1
10
195.887000
20
13.413700
11
195.744000
21
13.485100
0
LINE
8
Layer 1
10
195.744000
20
13.485100
11
195.672000
21
13.556500
0
LINE
8
Layer 1
10
195.672000
20
13.556500
11
195.601000
21
13.699400
0
LINE
8
Layer 1
10
195.601000
20
13.699400
11
195.530000
21
13.985100
0
LINE
8
Layer 1
10
195.530000
20
13.985100
11
195.530000
21
14.342200
0
LINE
8
Layer 1
10
195.530000
20
14.342200
11
195.601000
21
14.628000
0
LINE
8
Layer 1
10
195.601000
20
14.628000
11
195.672000
21
14.770800
0
LINE
8
Layer 1
10
195.672000
20
14.770800
11
195.744000
21
14.842200
0
LINE
8
Layer 1
10
195.744000
20
14.842200
11
195.887000
21
14.913700
0
LINE
8
Layer 1
10
197.030000
20
13.556500
11
197.101000
21
13.485100
0
LINE
8
Layer 1
10
197.101000
20
13.485100
11
197.030000
21
13.413700
0
LINE
8
Layer 1
10
197.030000
20
13.413700
11
196.958000
21
13.485100
0
LINE
8
Layer 1
10
196.958000
20
13.485100
11
197.030000
21
13.556500
0
LINE
8
Layer 1
10
197.030000
20
13.556500
11
197.030000
21
13.413700
0
LINE
8
Layer 1
10
198.387000
20
14.413700
11
198.387000
21
13.413700
0
LINE
8
Layer 1
10
198.030000
20
14.985100
11
197.672000
21
13.913700
0
LINE
8
Layer 1
10
197.672000
20
13.913700
11
198.601000
21
13.913700
0
LINE
8
Layer 1
10
177.002000
20
18.499800
11
285.002000
21
18.499800
0
LINE
8
Layer 1
10
264.414000
20
16.221500
11
263.914000
21
16.935800
0
LINE
8
Layer 1
10
263.557000
20
16.221500
11
263.557000
21
17.721500
0
LINE
8
Layer 1
10
263.557000
20
17.721500
11
264.128000
21
17.721500
0
LINE
8
Layer 1
10
264.128000
20
17.721500
11
264.271000
21
17.650000
0
LINE
8
Layer 1
10
264.271000
20
17.650000
11
264.342000
21
17.578600
0
LINE
8
Layer 1
10
264.342000
20
17.578600
11
264.414000
21
17.435800
0
LINE
8
Layer 1
10
264.414000
20
17.435800
11
264.414000
21
17.221500
0
LINE
8
Layer 1
10
264.414000
20
17.221500
11
264.342000
21
17.078600
0
LINE
8
Layer 1
10
264.342000
20
17.078600
11
264.271000
21
17.007200
0
LINE
8
Layer 1
10
264.271000
20
17.007200
11
264.128000
21
16.935800
0
LINE
8
Layer 1
10
264.128000
20
16.935800
11
263.557000
21
16.935800
0
LINE
8
Layer 1
10
265.628000
20
16.292900
11
265.485000
21
16.221500
0
LINE
8
Layer 1
10
265.485000
20
16.221500
11
265.200000
21
16.221500
0
LINE
8
Layer 1
10
265.200000
20
16.221500
11
265.057000
21
16.292900
0
LINE
8
Layer 1
10
265.057000
20
16.292900
11
264.985000
21
16.435800
0
LINE
8
Layer 1
10
264.985000
20
16.435800
11
264.985000
21
17.007200
0
LINE
8
Layer 1
10
264.985000
20
17.007200
11
265.057000
21
17.150000
0
LINE
8
Layer 1
10
265.057000
20
17.150000
11
265.200000
21
17.221500
0
LINE
8
Layer 1
10
265.200000
20
17.221500
11
265.485000
21
17.221500
0
LINE
8
Layer 1
10
265.485000
20
17.221500
11
265.628000
21
17.150000
0
LINE
8
Layer 1
10
265.628000
20
17.150000
11
265.700000
21
17.007200
0
LINE
8
Layer 1
10
265.700000
20
17.007200
11
265.700000
21
16.864300
0
LINE
8
Layer 1
10
265.700000
20
16.864300
11
264.985000
21
16.721500
0
LINE
8
Layer 1
10
266.200000
20
17.221500
11
266.557000
21
16.221500
0
LINE
8
Layer 1
10
266.557000
20
16.221500
11
266.914000
21
17.221500
0
LINE
8
Layer 1
10
267.485000
20
16.364300
11
267.557000
21
16.292900
0
LINE
8
Layer 1
10
267.557000
20
16.292900
11
267.485000
21
16.221500
0
LINE
8
Layer 1
10
267.485000
20
16.221500
11
267.414000
21
16.292900
0
LINE
8
Layer 1
10
267.414000
20
16.292900
11
267.485000
21
16.364300
0
LINE
8
Layer 1
10
267.485000
20
16.364300
11
267.485000
21
16.221500
0
LINE
8
Layer 1
10
267.485000
20
17.150000
11
267.557000
21
17.078600
0
LINE
8
Layer 1
10
267.557000
20
17.078600
11
267.485000
21
17.007200
0
LINE
8
Layer 1
10
267.485000
20
17.007200
11
267.414000
21
17.078600
0
LINE
8
Layer 1
10
267.414000
20
17.078600
11
267.485000
21
17.150000
0
LINE
8
Layer 1
10
267.485000
20
17.150000
11
267.485000
21
17.007200
0
LINE
8
Layer 1
10
269.628000
20
17.721500
11
269.771000
21
17.721500
0
LINE
8
Layer 1
10
269.771000
20
17.721500
11
269.914000
21
17.650000
0
LINE
8
Layer 1
10
269.914000
20
17.650000
11
269.985000
21
17.578600
0
LINE
8
Layer 1
10
269.985000
20
17.578600
11
270.057000
21
17.435800
0
LINE
8
Layer 1
10
270.057000
20
17.435800
11
270.128000
21
17.150000
0
LINE
8
Layer 1
10
270.128000
20
17.150000
11
270.128000
21
16.792900
0
LINE
8
Layer 1
10
270.128000
20
16.792900
11
270.057000
21
16.507200
0
LINE
8
Layer 1
10
270.057000
20
16.507200
11
269.985000
21
16.364300
0
LINE
8
Layer 1
10
269.985000
20
16.364300
11
269.914000
21
16.292900
0
LINE
8
Layer 1
10
269.914000
20
16.292900
11
269.771000
21
16.221500
0
LINE
8
Layer 1
10
269.771000
20
16.221500
11
269.628000
21
16.221500
0
LINE
8
Layer 1
10
269.628000
20
16.221500
11
269.485000
21
16.292900
0
LINE
8
Layer 1
10
269.485000
20
16.292900
11
269.414000
21
16.364300
0
LINE
8
Layer 1
10
269.414000
20
16.364300
11
269.342000
21
16.507200
0
LINE
8
Layer 1
10
269.342000
20
16.507200
11
269.271000
21
16.792900
0
LINE
8
Layer 1
10
269.271000
20
16.792900
11
269.271000
21
17.150000
0
LINE
8
Layer 1
10
269.271000
20
17.150000
11
269.342000
21
17.435800
0
LINE
8
Layer 1
10
269.342000
20
17.435800
11
269.414000
21
17.578600
0
LINE
8
Layer 1
10
269.414000
20
17.578600
11
269.485000
21
17.650000
0
LINE
8
Layer 1
10
269.485000
20
17.650000
11
269.628000
21
17.721500
0
LINE
8
Layer 1
10
270.771000
20
16.364300
11
270.842000
21
16.292900
0
LINE
8
Layer 1
10
270.842000
20
16.292900
11
270.771000
21
16.221500
0
LINE
8
Layer 1
10
270.771000
20
16.221500
11
270.700000
21
16.292900
0
LINE
8
Layer 1
10
270.700000
20
16.292900
11
270.771000
21
16.364300
0
LINE
8
Layer 1
10
270.771000
20
16.364300
11
270.771000
21
16.221500
0
LINE
8
Layer 1
10
271.414000
20
17.578600
11
271.485000
21
17.650000
0
LINE
8
Layer 1
10
271.485000
20
17.650000
11
271.628000
21
17.721500
0
LINE
8
Layer 1
10
271.628000
20
17.721500
11
271.985000
21
17.721500
0
LINE
8
Layer 1
10
271.985000
20
17.721500
11
272.128000
21
17.650000
0
LINE
8
Layer 1
10
272.128000
20
17.650000
11
272.200000
21
17.578600
0
LINE
8
Layer 1
10
272.200000
20
17.578600
11
272.271000
21
17.435800
0
LINE
8
Layer 1
10
272.271000
20
17.435800
11
272.271000
21
17.292900
0
LINE
8
Layer 1
10
272.271000
20
17.292900
11
272.200000
21
17.078600
0
LINE
8
Layer 1
10
272.200000
20
17.078600
11
271.342000
21
16.221500
0
LINE
8
Layer 1
10
271.342000
20
16.221500
11
272.271000
21
16.221500
0
LINE
8
Layer 1
10
178.387000
20
16.285100
11
178.601000
21
16.213700
0
LINE
8
Layer 1
10
178.601000
20
16.213700
11
178.958000
21
16.213700
0
LINE
8
Layer 1
10
178.958000
20
16.213700
11
179.101000
21
16.285100
0
LINE
8
Layer 1
10
179.101000
20
16.285100
11
179.172000
21
16.356500
0
LINE
8
Layer 1
10
179.172000
20
16.356500
11
179.244000
21
16.499400
0
LINE
8
Layer 1
10
179.244000
20
16.499400
11
179.244000
21
16.642200
0
LINE
8
Layer 1
10
179.244000
20
16.642200
11
179.172000
21
16.785100
0
LINE
8
Layer 1
10
179.172000
20
16.785100
11
179.101000
21
16.856500
0
LINE
8
Layer 1
10
179.101000
20
16.856500
11
178.958000
21
16.928000
0
LINE
8
Layer 1
10
178.958000
20
16.928000
11
178.672000
21
16.999400
0
LINE
8
Layer 1
10
178.672000
20
16.999400
11
178.530000
21
17.070800
0
LINE
8
Layer 1
10
178.530000
20
17.070800
11
178.458000
21
17.142200
0
LINE
8
Layer 1
10
178.458000
20
17.142200
11
178.387000
21
17.285100
0
LINE
8
Layer 1
10
178.387000
20
17.285100
11
178.387000
21
17.428000
0
LINE
8
Layer 1
10
178.387000
20
17.428000
11
178.458000
21
17.570800
0
LINE
8
Layer 1
10
178.458000
20
17.570800
11
178.530000
21
17.642200
0
LINE
8
Layer 1
10
178.530000
20
17.642200
11
178.672000
21
17.713700
0
LINE
8
Layer 1
10
178.672000
20
17.713700
11
179.030000
21
17.713700
0
LINE
8
Layer 1
10
179.030000
20
17.713700
11
179.244000
21
17.642200
0
LINE
8
Layer 1
10
179.887000
20
16.213700
11
179.887000
21
17.213700
0
LINE
8
Layer 1
10
179.887000
20
17.713700
11
179.815000
21
17.642200
0
LINE
8
Layer 1
10
179.815000
20
17.642200
11
179.887000
21
17.570800
0
LINE
8
Layer 1
10
179.887000
20
17.570800
11
179.958000
21
17.642200
0
LINE
8
Layer 1
10
179.958000
20
17.642200
11
179.887000
21
17.713700
0
LINE
8
Layer 1
10
179.887000
20
17.713700
11
179.887000
21
17.570800
0
LINE
8
Layer 1
10
180.458000
20
17.213700
11
181.244000
21
17.213700
0
LINE
8
Layer 1
10
181.244000
20
17.213700
11
180.458000
21
16.213700
0
LINE
8
Layer 1
10
180.458000
20
16.213700
11
181.244000
21
16.213700
0
LINE
8
Layer 1
10
182.387000
20
16.285100
11
182.244000
21
16.213700
0
LINE
8
Layer 1
10
182.244000
20
16.213700
11
181.958000
21
16.213700
0
LINE
8
Layer 1
10
181.958000
20
16.213700
11
181.815000
21
16.285100
0
LINE
8
Layer 1
10
181.815000
20
16.285100
11
181.744000
21
16.428000
0
LINE
8
Layer 1
10
181.744000
20
16.428000
11
181.744000
21
16.999400
0
LINE
8
Layer 1
10
181.744000
20
16.999400
11
181.815000
21
17.142200
0
LINE
8
Layer 1
10
181.815000
20
17.142200
11
181.958000
21
17.213700
0
LINE
8
Layer 1
10
181.958000
20
17.213700
11
182.244000
21
17.213700
0
LINE
8
Layer 1
10
182.244000
20
17.213700
11
182.387000
21
17.142200
0
LINE
8
Layer 1
10
182.387000
20
17.142200
11
182.458000
21
16.999400
0
LINE
8
Layer 1
10
182.458000
20
16.999400
11
182.458000
21
16.856500
0
LINE
8
Layer 1
10
182.458000
20
16.856500
11
181.744000
21
16.713700
0
LINE
8
Layer 1
10
183.101000
20
16.356500
11
183.172000
21
16.285100
0
LINE
8
Layer 1
10
183.172000
20
16.285100
11
183.101000
21
16.213700
0
LINE
8
Layer 1
10
183.101000
20
16.213700
11
183.030000
21
16.285100
0
LINE
8
Layer 1
10
183.030000
20
16.285100
11
183.101000
21
16.356500
0
LINE
8
Layer 1
10
183.101000
20
16.356500
11
183.101000
21
16.213700
0
LINE
8
Layer 1
10
183.101000
20
17.142200
11
183.172000
21
17.070800
0
LINE
8
Layer 1
10
183.172000
20
17.070800
11
183.101000
21
16.999400
0
LINE
8
Layer 1
10
183.101000
20
16.999400
11
183.030000
21
17.070800
0
LINE
8
Layer 1
10
183.030000
20
17.070800
11
183.101000
21
17.142200
0
LINE
8
Layer 1
10
183.101000
20
17.142200
11
183.101000
21
16.999400
0
LINE
8
Layer 1
10
184.887000
20
16.642200
11
185.601000
21
16.642200
0
LINE
8
Layer 1
10
184.744000
20
16.213700
11
185.244000
21
17.713700
0
LINE
8
Layer 1
10
185.244000
20
17.713700
11
185.744000
21
16.213700
0
LINE
8
Layer 1
10
186.887000
20
17.213700
11
186.887000
21
16.213700
0
LINE
8
Layer 1
10
186.530000
20
17.785100
11
186.172000
21
16.713700
0
LINE
8
Layer 1
10
186.172000
20
16.713700
11
187.101000
21
16.713700
0
LINE
8
Layer 1
10
263.458000
20
13.413700
11
263.458000
21
14.913700
0
LINE
8
Layer 1
10
264.815000
20
13.413700
11
264.815000
21
14.913700
0
LINE
8
Layer 1
10
264.815000
20
13.485100
11
264.672000
21
13.413700
0
LINE
8
Layer 1
10
264.672000
20
13.413700
11
264.387000
21
13.413700
0
LINE
8
Layer 1
10
264.387000
20
13.413700
11
264.244000
21
13.485100
0
LINE
8
Layer 1
10
264.244000
20
13.485100
11
264.172000
21
13.556500
0
LINE
8
Layer 1
10
264.172000
20
13.556500
11
264.101000
21
13.699400
0
LINE
8
Layer 1
10
264.101000
20
13.699400
11
264.101000
21
14.128000
0
LINE
8
Layer 1
10
264.101000
20
14.128000
11
264.172000
21
14.270800
0
LINE
8
Layer 1
10
264.172000
20
14.270800
11
264.244000
21
14.342200
0
LINE
8
Layer 1
10
264.244000
20
14.342200
11
264.387000
21
14.413700
0
LINE
8
Layer 1
10
264.387000
20
14.413700
11
264.672000
21
14.413700
0
LINE
8
Layer 1
10
264.672000
20
14.413700
11
264.815000
21
14.342200
0
LINE
8
Layer 1
10
265.529000
20
13.556500
11
265.601000
21
13.485100
0
LINE
8
Layer 1
10
265.601000
20
13.485100
11
265.529000
21
13.413700
0
LINE
8
Layer 1
10
265.529000
20
13.413700
11
265.458000
21
13.485100
0
LINE
8
Layer 1
10
265.458000
20
13.485100
11
265.529000
21
13.556500
0
LINE
8
Layer 1
10
265.529000
20
13.556500
11
265.529000
21
13.413700
0
LINE
8
Layer 1
10
265.529000
20
14.342200
11
265.601000
21
14.270800
0
LINE
8
Layer 1
10
265.601000
20
14.270800
11
265.529000
21
14.199400
0
LINE
8
Layer 1
10
265.529000
20
14.199400
11
265.458000
21
14.270800
0
LINE
8
Layer 1
10
265.458000
20
14.270800
11
265.529000
21
14.342200
0
LINE
8
Layer 1
10
265.529000
20
14.342200
11
265.529000
21
14.199400
0
LINE
8
Layer 1
10
268.172000
20
13.413700
11
267.315000
21
13.413700
0
LINE
8
Layer 1
10
267.744000
20
13.413700
11
267.744000
21
14.913700
0
LINE
8
Layer 1
10
267.744000
20
14.913700
11
267.601000
21
14.699400
0
LINE
8
Layer 1
10
267.601000
20
14.699400
11
267.458000
21
14.556500
0
LINE
8
Layer 1
10
267.458000
20
14.556500
11
267.315000
21
14.485100
0
LINE
8
Layer 1
10
269.887000
20
14.985100
11
268.601000
21
13.056500
0
LINE
8
Layer 1
10
271.172000
20
13.413700
11
270.315000
21
13.413700
0
LINE
8
Layer 1
10
270.744000
20
13.413700
11
270.744000
21
14.913700
0
LINE
8
Layer 1
10
270.744000
20
14.913700
11
270.601000
21
14.699400
0
LINE
8
Layer 1
10
270.601000
20
14.699400
11
270.458000
21
14.556500
0
LINE
8
Layer 1
10
270.458000
20
14.556500
11
270.315000
21
14.485100
0
LINE
8
Layer 1
10
177.002000
20
22.499800
11
285.002000
21
22.499800
0
LINE
8
Layer 1
10
178.694000
20
21.795400
11
179.837000
21
21.795400
0
LINE
8
Layer 1
10
179.015000
20
19.795400
11
179.265000
21
21.795400
0
LINE
8
Layer 1
10
180.254000
20
19.795400
11
180.420000
21
21.128700
0
LINE
8
Layer 1
10
180.504000
20
21.795400
11
180.396000
21
21.700100
0
LINE
8
Layer 1
10
180.396000
20
21.700100
11
180.480000
21
21.604900
0
LINE
8
Layer 1
10
180.480000
20
21.604900
11
180.587000
21
21.700100
0
LINE
8
Layer 1
10
180.587000
20
21.700100
11
180.504000
21
21.795400
0
LINE
8
Layer 1
10
180.504000
20
21.795400
11
180.480000
21
21.604900
0
LINE
8
Layer 1
10
181.087000
20
21.128700
11
181.849000
21
21.128700
0
LINE
8
Layer 1
10
181.456000
20
21.795400
11
181.242000
21
20.081100
0
LINE
8
Layer 1
10
181.242000
20
20.081100
11
181.313000
21
19.890600
0
LINE
8
Layer 1
10
181.313000
20
19.890600
11
181.492000
21
19.795400
0
LINE
8
Layer 1
10
181.492000
20
19.795400
11
181.682000
21
19.795400
0
LINE
8
Layer 1
10
182.634000
20
19.795400
11
182.456000
21
19.890600
0
LINE
8
Layer 1
10
182.456000
20
19.890600
11
182.384000
21
20.081100
0
LINE
8
Layer 1
10
182.384000
20
20.081100
11
182.599000
21
21.795400
0
LINE
8
Layer 1
10
184.170000
20
19.890600
11
183.968000
21
19.795400
0
LINE
8
Layer 1
10
183.968000
20
19.795400
11
183.587000
21
19.795400
0
LINE
8
Layer 1
10
183.587000
20
19.795400
11
183.408000
21
19.890600
0
LINE
8
Layer 1
10
183.408000
20
19.890600
11
183.337000
21
20.081100
0
LINE
8
Layer 1
10
183.337000
20
20.081100
11
183.432000
21
20.843000
0
LINE
8
Layer 1
10
183.432000
20
20.843000
11
183.551000
21
21.033500
0
LINE
8
Layer 1
10
183.551000
20
21.033500
11
183.754000
21
21.128700
0
LINE
8
Layer 1
10
183.754000
20
21.128700
11
184.134000
21
21.128700
0
LINE
8
Layer 1
10
184.134000
20
21.128700
11
184.313000
21
21.033500
0
LINE
8
Layer 1
10
184.313000
20
21.033500
11
184.384000
21
20.843000
0
LINE
8
Layer 1
10
184.384000
20
20.843000
11
184.361000
21
20.652500
0
LINE
8
Layer 1
10
184.361000
20
20.652500
11
183.384000
21
20.462000
0
LINE
8
Layer 1
10
185.134000
20
19.985800
11
185.218000
21
19.890600
0
LINE
8
Layer 1
10
185.218000
20
19.890600
11
185.111000
21
19.795400
0
LINE
8
Layer 1
10
185.111000
20
19.795400
11
185.027000
21
19.890600
0
LINE
8
Layer 1
10
185.027000
20
19.890600
11
185.134000
21
19.985800
0
LINE
8
Layer 1
10
185.134000
20
19.985800
11
185.111000
21
19.795400
0
LINE
8
Layer 1
10
185.265000
20
21.033500
11
185.349000
21
20.938200
0
LINE
8
Layer 1
10
185.349000
20
20.938200
11
185.242000
21
20.843000
0
LINE
8
Layer 1
10
185.242000
20
20.843000
11
185.158000
21
20.938200
0
LINE
8
Layer 1
10
185.158000
20
20.938200
11
185.265000
21
21.033500
0
LINE
8
Layer 1
10
185.265000
20
21.033500
11
185.242000
21
20.843000
0
LINE
8
Layer 1
10
188.754000
20
19.985800
11
188.646000
21
19.890600
0
LINE
8
Layer 1
10
188.646000
20
19.890600
11
188.349000
21
19.795400
0
LINE
8
Layer 1
10
188.349000
20
19.795400
11
188.158000
21
19.795400
0
LINE
8
Layer 1
10
188.158000
20
19.795400
11
187.884000
21
19.890600
0
LINE
8
Layer 1
10
187.884000
20
19.890600
11
187.718000
21
20.081100
0
LINE
8
Layer 1
10
187.718000
20
20.081100
11
187.646000
21
20.271600
0
LINE
8
Layer 1
10
187.646000
20
20.271600
11
187.599000
21
20.652500
0
LINE
8
Layer 1
10
187.599000
20
20.652500
11
187.634000
21
20.938200
0
LINE
8
Layer 1
10
187.634000
20
20.938200
11
187.777000
21
21.319200
0
LINE
8
Layer 1
10
187.777000
20
21.319200
11
187.896000
21
21.509600
0
LINE
8
Layer 1
10
187.896000
20
21.509600
11
188.111000
21
21.700100
0
LINE
8
Layer 1
10
188.111000
20
21.700100
11
188.408000
21
21.795400
0
LINE
8
Layer 1
10
188.408000
20
21.795400
11
188.599000
21
21.795400
0
LINE
8
Layer 1
10
188.599000
20
21.795400
11
188.873000
21
21.700100
0
LINE
8
Layer 1
10
188.873000
20
21.700100
11
188.956000
21
21.604900
0
LINE
8
Layer 1
10
189.587000
20
19.795400
11
189.837000
21
21.795400
0
LINE
8
Layer 1
10
190.444000
20
19.795400
11
190.575000
21
20.843000
0
LINE
8
Layer 1
10
190.575000
20
20.843000
11
190.504000
21
21.033500
0
LINE
8
Layer 1
10
190.504000
20
21.033500
11
190.325000
21
21.128700
0
LINE
8
Layer 1
10
190.325000
20
21.128700
11
190.039000
21
21.128700
0
LINE
8
Layer 1
10
190.039000
20
21.128700
11
189.837000
21
21.033500
0
LINE
8
Layer 1
10
189.837000
20
21.033500
11
189.730000
21
20.938200
0
LINE
8
Layer 1
10
191.682000
20
19.795400
11
191.504000
21
19.890600
0
LINE
8
Layer 1
10
191.504000
20
19.890600
11
191.420000
21
19.985800
0
LINE
8
Layer 1
10
191.420000
20
19.985800
11
191.349000
21
20.176300
0
LINE
8
Layer 1
10
191.349000
20
20.176300
11
191.420000
21
20.747700
0
LINE
8
Layer 1
10
191.420000
20
20.747700
11
191.539000
21
20.938200
0
LINE
8
Layer 1
10
191.539000
20
20.938200
11
191.646000
21
21.033500
0
LINE
8
Layer 1
10
191.646000
20
21.033500
11
191.849000
21
21.128700
0
LINE
8
Layer 1
10
191.849000
20
21.128700
11
192.134000
21
21.128700
0
LINE
8
Layer 1
10
192.134000
20
21.128700
11
192.313000
21
21.033500
0
LINE
8
Layer 1
10
192.313000
20
21.033500
11
192.396000
21
20.938200
0
LINE
8
Layer 1
10
192.396000
20
20.938200
11
192.468000
21
20.747700
0
LINE
8
Layer 1
10
192.468000
20
20.747700
11
192.396000
21
20.176300
0
LINE
8
Layer 1
10
192.396000
20
20.176300
11
192.277000
21
19.985800
0
LINE
8
Layer 1
10
192.277000
20
19.985800
11
192.170000
21
19.890600
0
LINE
8
Layer 1
10
192.170000
20
19.890600
11
191.968000
21
19.795400
0
LINE
8
Layer 1
10
191.968000
20
19.795400
11
191.682000
21
19.795400
0
LINE
8
Layer 1
10
194.075000
20
19.890600
11
193.873000
21
19.795400
0
LINE
8
Layer 1
10
193.873000
20
19.795400
11
193.492000
21
19.795400
0
LINE
8
Layer 1
10
193.492000
20
19.795400
11
193.313000
21
19.890600
0
LINE
8
Layer 1
10
193.313000
20
19.890600
11
193.230000
21
19.985800
0
LINE
8
Layer 1
10
193.230000
20
19.985800
11
193.158000
21
20.176300
0
LINE
8
Layer 1
10
193.158000
20
20.176300
11
193.230000
21
20.747700
0
LINE
8
Layer 1
10
193.230000
20
20.747700
11
193.349000
21
20.938200
0
LINE
8
Layer 1
10
193.349000
20
20.938200
11
193.456000
21
21.033500
0
LINE
8
Layer 1
10
193.456000
20
21.033500
11
193.658000
21
21.128700
0
LINE
8
Layer 1
10
193.658000
20
21.128700
11
194.039000
21
21.128700
0
LINE
8
Layer 1
10
194.039000
20
21.128700
11
194.218000
21
21.033500
0
LINE
8
Layer 1
10
195.206000
20
19.795400
11
195.027000
21
19.890600
0
LINE
8
Layer 1
10
195.027000
20
19.890600
11
194.944000
21
19.985800
0
LINE
8
Layer 1
10
194.944000
20
19.985800
11
194.873000
21
20.176300
0
LINE
8
Layer 1
10
194.873000
20
20.176300
11
194.944000
21
20.747700
0
LINE
8
Layer 1
10
194.944000
20
20.747700
11
195.063000
21
20.938200
0
LINE
8
Layer 1
10
195.063000
20
20.938200
11
195.170000
21
21.033500
0
LINE
8
Layer 1
10
195.170000
20
21.033500
11
195.373000
21
21.128700
0
LINE
8
Layer 1
10
195.373000
20
21.128700
11
195.658000
21
21.128700
0
LINE
8
Layer 1
10
195.658000
20
21.128700
11
195.837000
21
21.033500
0
LINE
8
Layer 1
10
195.837000
20
21.033500
11
195.920000
21
20.938200
0
LINE
8
Layer 1
10
195.920000
20
20.938200
11
195.992000
21
20.747700
0
LINE
8
Layer 1
10
195.992000
20
20.747700
11
195.920000
21
20.176300
0
LINE
8
Layer 1
10
195.920000
20
20.176300
11
195.801000
21
19.985800
0
LINE
8
Layer 1
10
195.801000
20
19.985800
11
195.694000
21
19.890600
0
LINE
8
Layer 1
10
195.694000
20
19.890600
11
195.492000
21
19.795400
0
LINE
8
Layer 1
10
195.492000
20
19.795400
11
195.206000
21
19.795400
0
LINE
8
Layer 1
10
196.611000
20
21.128700
11
197.373000
21
21.128700
0
LINE
8
Layer 1
10
196.730000
20
19.795400
11
196.944000
21
21.509600
0
LINE
8
Layer 1
10
196.944000
20
21.509600
11
197.063000
21
21.700100
0
LINE
8
Layer 1
10
197.063000
20
21.700100
11
197.265000
21
21.795400
0
LINE
8
Layer 1
10
197.265000
20
21.795400
11
197.456000
21
21.795400
0
LINE
8
Layer 1
10
197.873000
20
19.795400
11
198.039000
21
21.128700
0
LINE
8
Layer 1
10
198.123000
20
21.795400
11
198.015000
21
21.700100
0
LINE
8
Layer 1
10
198.015000
20
21.700100
11
198.099000
21
21.604900
0
LINE
8
Layer 1
10
198.099000
20
21.604900
11
198.206000
21
21.700100
0
LINE
8
Layer 1
10
198.206000
20
21.700100
11
198.123000
21
21.795400
0
LINE
8
Layer 1
10
198.123000
20
21.795400
11
198.099000
21
21.604900
0
LINE
8
Layer 1
10
178.958000
20
24.399400
11
178.458000
21
24.399400
0
LINE
8
Layer 1
10
178.458000
20
23.613700
11
178.458000
21
25.113700
0
LINE
8
Layer 1
10
178.458000
20
25.113700
11
179.172000
21
25.113700
0
LINE
8
Layer 1
10
179.744000
20
23.613700
11
179.744000
21
24.613700
0
LINE
8
Layer 1
10
179.744000
20
25.113700
11
179.672000
21
25.042200
0
LINE
8
Layer 1
10
179.672000
20
25.042200
11
179.744000
21
24.970800
0
LINE
8
Layer 1
10
179.744000
20
24.970800
11
179.815000
21
25.042200
0
LINE
8
Layer 1
10
179.815000
20
25.042200
11
179.744000
21
25.113700
0
LINE
8
Layer 1
10
179.744000
20
25.113700
11
179.744000
21
24.970800
0
LINE
8
Layer 1
10
180.672000
20
23.613700
11
180.530000
21
23.685100
0
LINE
8
Layer 1
10
180.530000
20
23.685100
11
180.458000
21
23.828000
0
LINE
8
Layer 1
10
180.458000
20
23.828000
11
180.458000
21
25.113700
0
LINE
8
Layer 1
10
181.815000
20
23.685100
11
181.672000
21
23.613700
0
LINE
8
Layer 1
10
181.672000
20
23.613700
11
181.387000
21
23.613700
0
LINE
8
Layer 1
10
181.387000
20
23.613700
11
181.244000
21
23.685100
0
LINE
8
Layer 1
10
181.244000
20
23.685100
11
181.172000
21
23.828000
0
LINE
8
Layer 1
10
181.172000
20
23.828000
11
181.172000
21
24.399400
0
LINE
8
Layer 1
10
181.172000
20
24.399400
11
181.244000
21
24.542200
0
LINE
8
Layer 1
10
181.244000
20
24.542200
11
181.387000
21
24.613700
0
LINE
8
Layer 1
10
181.387000
20
24.613700
11
181.672000
21
24.613700
0
LINE
8
Layer 1
10
181.672000
20
24.613700
11
181.815000
21
24.542200
0
LINE
8
Layer 1
10
181.815000
20
24.542200
11
181.887000
21
24.399400
0
LINE
8
Layer 1
10
181.887000
20
24.399400
11
181.887000
21
24.256500
0
LINE
8
Layer 1
10
181.887000
20
24.256500
11
181.172000
21
24.113700
0
LINE
8
Layer 1
10
182.530000
20
23.756500
11
182.601000
21
23.685100
0
LINE
8
Layer 1
10
182.601000
20
23.685100
11
182.530000
21
23.613700
0
LINE
8
Layer 1
10
182.530000
20
23.613700
11
182.458000
21
23.685100
0
LINE
8
Layer 1
10
182.458000
20
23.685100
11
182.530000
21
23.756500
0
LINE
8
Layer 1
10
182.530000
20
23.756500
11
182.530000
21
23.613700
0
LINE
8
Layer 1
10
182.530000
20
24.542200
11
182.601000
21
24.470800
0
LINE
8
Layer 1
10
182.601000
20
24.470800
11
182.530000
21
24.399400
0
LINE
8
Layer 1
10
182.530000
20
24.399400
11
182.458000
21
24.470800
0
LINE
8
Layer 1
10
182.458000
20
24.470800
11
182.530000
21
24.542200
0
LINE
8
Layer 1
10
182.530000
20
24.542200
11
182.530000
21
24.399400
0
LINE
8
Layer 1
10
185.030000
20
23.685100
11
184.887000
21
23.613700
0
LINE
8
Layer 1
10
184.887000
20
23.613700
11
184.601000
21
23.613700
0
LINE
8
Layer 1
10
184.601000
20
23.613700
11
184.458000
21
23.685100
0
LINE
8
Layer 1
10
184.458000
20
23.685100
11
184.387000
21
23.756500
0
LINE
8
Layer 1
10
184.387000
20
23.756500
11
184.315000
21
23.899400
0
LINE
8
Layer 1
10
184.315000
20
23.899400
11
184.315000
21
24.328000
0
LINE
8
Layer 1
10
184.315000
20
24.328000
11
184.387000
21
24.470800
0
LINE
8
Layer 1
10
184.387000
20
24.470800
11
184.458000
21
24.542200
0
LINE
8
Layer 1
10
184.458000
20
24.542200
11
184.601000
21
24.613700
0
LINE
8
Layer 1
10
184.601000
20
24.613700
11
184.887000
21
24.613700
0
LINE
8
Layer 1
10
184.887000
20
24.613700
11
185.030000
21
24.542200
0
LINE
8
Layer 1
10
185.672000
20
23.613700
11
185.672000
21
25.113700
0
LINE
8
Layer 1
10
186.315000
20
23.613700
11
186.315000
21
24.399400
0
LINE
8
Layer 1
10
186.315000
20
24.399400
11
186.244000
21
24.542200
0
LINE
8
Layer 1
10
186.244000
20
24.542200
11
186.101000
21
24.613700
0
LINE
8
Layer 1
10
186.101000
20
24.613700
11
185.887000
21
24.613700
0
LINE
8
Layer 1
10
185.887000
20
24.613700
11
185.744000
21
24.542200
0
LINE
8
Layer 1
10
185.744000
20
24.542200
11
185.672000
21
24.470800
0
LINE
8
Layer 1
10
187.244000
20
23.613700
11
187.101000
21
23.685100
0
LINE
8
Layer 1
10
187.101000
20
23.685100
11
187.030000
21
23.756500
0
LINE
8
Layer 1
10
187.030000
20
23.756500
11
186.958000
21
23.899400
0
LINE
8
Layer 1
10
186.958000
20
23.899400
11
186.958000
21
24.328000
0
LINE
8
Layer 1
10
186.958000
20
24.328000
11
187.030000
21
24.470800
0
LINE
8
Layer 1
10
187.030000
20
24.470800
11
187.101000
21
24.542200
0
LINE
8
Layer 1
10
187.101000
20
24.542200
11
187.244000
21
24.613700
0
LINE
8
Layer 1
10
187.244000
20
24.613700
11
187.458000
21
24.613700
0
LINE
8
Layer 1
10
187.458000
20
24.613700
11
187.601000
21
24.542200
0
LINE
8
Layer 1
10
187.601000
20
24.542200
11
187.672000
21
24.470800
0
LINE
8
Layer 1
10
187.672000
20
24.470800
11
187.744000
21
24.328000
0
LINE
8
Layer 1
10
187.744000
20
24.328000
11
187.744000
21
23.899400
0
LINE
8
Layer 1
10
187.744000
20
23.899400
11
187.672000
21
23.756500
0
LINE
8
Layer 1
10
187.672000
20
23.756500
11
187.601000
21
23.685100
0
LINE
8
Layer 1
10
187.601000
20
23.685100
11
187.458000
21
23.613700
0
LINE
8
Layer 1
10
187.458000
20
23.613700
11
187.244000
21
23.613700
0
LINE
8
Layer 1
10
189.030000
20
23.685100
11
188.887000
21
23.613700
0
LINE
8
Layer 1
10
188.887000
20
23.613700
11
188.601000
21
23.613700
0
LINE
8
Layer 1
10
188.601000
20
23.613700
11
188.458000
21
23.685100
0
LINE
8
Layer 1
10
188.458000
20
23.685100
11
188.387000
21
23.756500
0
LINE
8
Layer 1
10
188.387000
20
23.756500
11
188.315000
21
23.899400
0
LINE
8
Layer 1
10
188.315000
20
23.899400
11
188.315000
21
24.328000
0
LINE
8
Layer 1
10
188.315000
20
24.328000
11
188.387000
21
24.470800
0
LINE
8
Layer 1
10
188.387000
20
24.470800
11
188.458000
21
24.542200
0
LINE
8
Layer 1
10
188.458000
20
24.542200
11
188.601000
21
24.613700
0
LINE
8
Layer 1
10
188.601000
20
24.613700
11
188.887000
21
24.613700
0
LINE
8
Layer 1
10
188.887000
20
24.613700
11
189.030000
21
24.542200
0
LINE
8
Layer 1
10
189.887000
20
23.613700
11
189.744000
21
23.685100
0
LINE
8
Layer 1
10
189.744000
20
23.685100
11
189.672000
21
23.756500
0
LINE
8
Layer 1
10
189.672000
20
23.756500
11
189.601000
21
23.899400
0
LINE
8
Layer 1
10
189.601000
20
23.899400
11
189.601000
21
24.328000
0
LINE
8
Layer 1
10
189.601000
20
24.328000
11
189.672000
21
24.470800
0
LINE
8
Layer 1
10
189.672000
20
24.470800
11
189.744000
21
24.542200
0
LINE
8
Layer 1
10
189.744000
20
24.542200
11
189.887000
21
24.613700
0
LINE
8
Layer 1
10
189.887000
20
24.613700
11
190.101000
21
24.613700
0
LINE
8
Layer 1
10
190.101000
20
24.613700
11
190.244000
21
24.542200
0
LINE
8
Layer 1
10
190.244000
20
24.542200
11
190.315000
21
24.470800
0
LINE
8
Layer 1
10
190.315000
20
24.470800
11
190.387000
21
24.328000
0
LINE
8
Layer 1
10
190.387000
20
24.328000
11
190.387000
21
23.899400
0
LINE
8
Layer 1
10
190.387000
20
23.899400
11
190.315000
21
23.756500
0
LINE
8
Layer 1
10
190.315000
20
23.756500
11
190.244000
21
23.685100
0
LINE
8
Layer 1
10
190.244000
20
23.685100
11
190.101000
21
23.613700
0
LINE
8
Layer 1
10
190.101000
20
23.613700
11
189.887000
21
23.613700
0
LINE
8
Layer 1
10
190.815000
20
24.613700
11
191.387000
21
24.613700
0
LINE
8
Layer 1
10
191.030000
20
23.613700
11
191.030000
21
24.899400
0
LINE
8
Layer 1
10
191.030000
20
24.899400
11
191.101000
21
25.042200
0
LINE
8
Layer 1
10
191.101000
20
25.042200
11
191.244000
21
25.113700
0
LINE
8
Layer 1
10
191.244000
20
25.113700
11
191.387000
21
25.113700
0
LINE
8
Layer 1
10
191.887000
20
23.613700
11
191.887000
21
24.613700
0
LINE
8
Layer 1
10
191.887000
20
25.113700
11
191.815000
21
25.042200
0
LINE
8
Layer 1
10
191.815000
20
25.042200
11
191.887000
21
24.970800
0
LINE
8
Layer 1
10
191.887000
20
24.970800
11
191.958000
21
25.042200
0
LINE
8
Layer 1
10
191.958000
20
25.042200
11
191.887000
21
25.113700
0
LINE
8
Layer 1
10
191.887000
20
25.113700
11
191.887000
21
24.970800
0
LINE
8
Layer 1
10
192.601000
20
24.185100
11
193.744000
21
24.185100
0
LINE
8
Layer 1
10
194.387000
20
23.685100
11
194.530000
21
23.613700
0
LINE
8
Layer 1
10
194.530000
20
23.613700
11
194.815000
21
23.613700
0
LINE
8
Layer 1
10
194.815000
20
23.613700
11
194.958000
21
23.685100
0
LINE
8
Layer 1
10
194.958000
20
23.685100
11
195.030000
21
23.828000
0
LINE
8
Layer 1
10
195.030000
20
23.828000
11
195.030000
21
23.899400
0
LINE
8
Layer 1
10
195.030000
20
23.899400
11
194.958000
21
24.042200
0
LINE
8
Layer 1
10
194.958000
20
24.042200
11
194.815000
21
24.113700
0
LINE
8
Layer 1
10
194.815000
20
24.113700
11
194.601000
21
24.113700
0
LINE
8
Layer 1
10
194.601000
20
24.113700
11
194.458000
21
24.185100
0
LINE
8
Layer 1
10
194.458000
20
24.185100
11
194.387000
21
24.328000
0
LINE
8
Layer 1
10
194.387000
20
24.328000
11
194.387000
21
24.399400
0
LINE
8
Layer 1
10
194.387000
20
24.399400
11
194.458000
21
24.542200
0
LINE
8
Layer 1
10
194.458000
20
24.542200
11
194.601000
21
24.613700
0
LINE
8
Layer 1
10
194.601000
20
24.613700
11
194.815000
21
24.613700
0
LINE
8
Layer 1
10
194.815000
20
24.613700
11
194.958000
21
24.542200
0
LINE
8
Layer 1
10
195.530000
20
24.613700
11
195.815000
21
23.613700
0
LINE
8
Layer 1
10
195.815000
20
23.613700
11
196.101000
21
24.328000
0
LINE
8
Layer 1
10
196.101000
20
24.328000
11
196.387000
21
23.613700
0
LINE
8
Layer 1
10
196.387000
20
23.613700
11
196.672000
21
24.613700
0
LINE
8
Layer 1
10
197.244000
20
23.613700
11
197.244000
21
24.613700
0
LINE
8
Layer 1
10
197.244000
20
25.113700
11
197.172000
21
25.042200
0
LINE
8
Layer 1
10
197.172000
20
25.042200
11
197.244000
21
24.970800
0
LINE
8
Layer 1
10
197.244000
20
24.970800
11
197.315000
21
25.042200
0
LINE
8
Layer 1
10
197.315000
20
25.042200
11
197.244000
21
25.113700
0
LINE
8
Layer 1
10
197.244000
20
25.113700
11
197.244000
21
24.970800
0
LINE
8
Layer 1
10
197.744000
20
24.613700
11
198.315000
21
24.613700
0
LINE
8
Layer 1
10
197.958000
20
25.113700
11
197.958000
21
23.828000
0
LINE
8
Layer 1
10
197.958000
20
23.828000
11
198.030000
21
23.685100
0
LINE
8
Layer 1
10
198.030000
20
23.685100
11
198.172000
21
23.613700
0
LINE
8
Layer 1
10
198.172000
20
23.613700
11
198.315000
21
23.613700
0
LINE
8
Layer 1
10
199.458000
20
23.685100
11
199.315000
21
23.613700
0
LINE
8
Layer 1
10
199.315000
20
23.613700
11
199.030000
21
23.613700
0
LINE
8
Layer 1
10
199.030000
20
23.613700
11
198.887000
21
23.685100
0
LINE
8
Layer 1
10
198.887000
20
23.685100
11
198.815000
21
23.756500
0
LINE
8
Layer 1
10
198.815000
20
23.756500
11
198.744000
21
23.899400
0
LINE
8
Layer 1
10
198.744000
20
23.899400
11
198.744000
21
24.328000
0
LINE
8
Layer 1
10
198.744000
20
24.328000
11
198.815000
21
24.470800
0
LINE
8
Layer 1
10
198.815000
20
24.470800
11
198.887000
21
24.542200
0
LINE
8
Layer 1
10
198.887000
20
24.542200
11
199.030000
21
24.613700
0
LINE
8
Layer 1
10
199.030000
20
24.613700
11
199.315000
21
24.613700
0
LINE
8
Layer 1
10
199.315000
20
24.613700
11
199.458000
21
24.542200
0
LINE
8
Layer 1
10
200.101000
20
23.613700
11
200.101000
21
25.113700
0
LINE
8
Layer 1
10
200.744000
20
23.613700
11
200.744000
21
24.399400
0
LINE
8
Layer 1
10
200.744000
20
24.399400
11
200.672000
21
24.542200
0
LINE
8
Layer 1
10
200.672000
20
24.542200
11
200.530000
21
24.613700
0
LINE
8
Layer 1
10
200.530000
20
24.613700
11
200.315000
21
24.613700
0
LINE
8
Layer 1
10
200.315000
20
24.613700
11
200.172000
21
24.542200
0
LINE
8
Layer 1
10
200.172000
20
24.542200
11
200.101000
21
24.470800
0
LINE
8
Layer 1
10
201.101000
20
23.470800
11
202.244000
21
23.470800
0
LINE
8
Layer 1
10
202.601000
20
24.613700
11
202.601000
21
23.113700
0
LINE
8
Layer 1
10
202.601000
20
24.542200
11
202.744000
21
24.613700
0
LINE
8
Layer 1
10
202.744000
20
24.613700
11
203.030000
21
24.613700
0
LINE
8
Layer 1
10
203.030000
20
24.613700
11
203.172000
21
24.542200
0
LINE
8
Layer 1
10
203.172000
20
24.542200
11
203.244000
21
24.470800
0
LINE
8
Layer 1
10
203.244000
20
24.470800
11
203.315000
21
24.328000
0
LINE
8
Layer 1
10
203.315000
20
24.328000
11
203.315000
21
23.899400
0
LINE
8
Layer 1
10
203.315000
20
23.899400
11
203.244000
21
23.756500
0
LINE
8
Layer 1
10
203.244000
20
23.756500
11
203.172000
21
23.685100
0
LINE
8
Layer 1
10
203.172000
20
23.685100
11
203.030000
21
23.613700
0
LINE
8
Layer 1
10
203.030000
20
23.613700
11
202.744000
21
23.613700
0
LINE
8
Layer 1
10
202.744000
20
23.613700
11
202.601000
21
23.685100
0
LINE
8
Layer 1
10
204.172000
20
23.613700
11
204.030000
21
23.685100
0
LINE
8
Layer 1
10
204.030000
20
23.685100
11
203.958000
21
23.828000
0
LINE
8
Layer 1
10
203.958000
20
23.828000
11
203.958000
21
25.113700
0
LINE
8
Layer 1
10
205.387000
20
23.613700
11
205.387000
21
24.399400
0
LINE
8
Layer 1
10
205.387000
20
24.399400
11
205.315000
21
24.542200
0
LINE
8
Layer 1
10
205.315000
20
24.542200
11
205.172000
21
24.613700
0
LINE
8
Layer 1
10
205.172000
20
24.613700
11
204.887000
21
24.613700
0
LINE
8
Layer 1
10
204.887000
20
24.613700
11
204.744000
21
24.542200
0
LINE
8
Layer 1
10
205.387000
20
23.685100
11
205.244000
21
23.613700
0
LINE
8
Layer 1
10
205.244000
20
23.613700
11
204.887000
21
23.613700
0
LINE
8
Layer 1
10
204.887000
20
23.613700
11
204.744000
21
23.685100
0
LINE
8
Layer 1
10
204.744000
20
23.685100
11
204.672000
21
23.828000
0
LINE
8
Layer 1
10
204.672000
20
23.828000
11
204.672000
21
23.970800
0
LINE
8
Layer 1
10
204.672000
20
23.970800
11
204.744000
21
24.113700
0
LINE
8
Layer 1
10
204.744000
20
24.113700
11
204.887000
21
24.185100
0
LINE
8
Layer 1
10
204.887000
20
24.185100
11
205.244000
21
24.185100
0
LINE
8
Layer 1
10
205.244000
20
24.185100
11
205.387000
21
24.256500
0
LINE
8
Layer 1
10
205.887000
20
24.613700
11
206.458000
21
24.613700
0
LINE
8
Layer 1
10
206.101000
20
25.113700
11
206.101000
21
23.828000
0
LINE
8
Layer 1
10
206.101000
20
23.828000
11
206.172000
21
23.685100
0
LINE
8
Layer 1
10
206.172000
20
23.685100
11
206.315000
21
23.613700
0
LINE
8
Layer 1
10
206.315000
20
23.613700
11
206.458000
21
23.613700
0
LINE
8
Layer 1
10
207.530000
20
23.685100
11
207.387000
21
23.613700
0
LINE
8
Layer 1
10
207.387000
20
23.613700
11
207.101000
21
23.613700
0
LINE
8
Layer 1
10
207.101000
20
23.613700
11
206.958000
21
23.685100
0
LINE
8
Layer 1
10
206.958000
20
23.685100
11
206.887000
21
23.828000
0
LINE
8
Layer 1
10
206.887000
20
23.828000
11
206.887000
21
24.399400
0
LINE
8
Layer 1
10
206.887000
20
24.399400
11
206.958000
21
24.542200
0
LINE
8
Layer 1
10
206.958000
20
24.542200
11
207.101000
21
24.613700
0
LINE
8
Layer 1
10
207.101000
20
24.613700
11
207.387000
21
24.613700
0
LINE
8
Layer 1
10
207.387000
20
24.613700
11
207.530000
21
24.542200
0
LINE
8
Layer 1
10
207.530000
20
24.542200
11
207.601000
21
24.399400
0
LINE
8
Layer 1
10
207.601000
20
24.399400
11
207.601000
21
24.256500
0
LINE
8
Layer 1
10
207.601000
20
24.256500
11
206.887000
21
24.113700
0
LINE
8
Layer 1
10
208.244000
20
23.756500
11
208.315000
21
23.685100
0
LINE
8
Layer 1
10
208.315000
20
23.685100
11
208.244000
21
23.613700
0
LINE
8
Layer 1
10
208.244000
20
23.613700
11
208.172000
21
23.685100
0
LINE
8
Layer 1
10
208.172000
20
23.685100
11
208.244000
21
23.756500
0
LINE
8
Layer 1
10
208.244000
20
23.756500
11
208.244000
21
23.613700
0
LINE
8
Layer 1
10
208.958000
20
23.613700
11
208.958000
21
25.113700
0
LINE
8
Layer 1
10
209.101000
20
24.185100
11
209.530000
21
23.613700
0
LINE
8
Layer 1
10
209.530000
20
24.613700
11
208.958000
21
24.042200
0
LINE
8
Layer 1
10
210.172000
20
23.613700
11
210.172000
21
24.613700
0
LINE
8
Layer 1
10
210.172000
20
25.113700
11
210.101000
21
25.042200
0
LINE
8
Layer 1
10
210.101000
20
25.042200
11
210.172000
21
24.970800
0
LINE
8
Layer 1
10
210.172000
20
24.970800
11
210.244000
21
25.042200
0
LINE
8
Layer 1
10
210.244000
20
25.042200
11
210.172000
21
25.113700
0
LINE
8
Layer 1
10
210.172000
20
25.113700
11
210.172000
21
24.970800
0
LINE
8
Layer 1
10
211.530000
20
23.685100
11
211.387000
21
23.613700
0
LINE
8
Layer 1
10
211.387000
20
23.613700
11
211.101000
21
23.613700
0
LINE
8
Layer 1
10
211.101000
20
23.613700
11
210.958000
21
23.685100
0
LINE
8
Layer 1
10
210.958000
20
23.685100
11
210.887000
21
23.756500
0
LINE
8
Layer 1
10
210.887000
20
23.756500
11
210.815000
21
23.899400
0
LINE
8
Layer 1
10
210.815000
20
23.899400
11
210.815000
21
24.328000
0
LINE
8
Layer 1
10
210.815000
20
24.328000
11
210.887000
21
24.470800
0
LINE
8
Layer 1
10
210.887000
20
24.470800
11
210.958000
21
24.542200
0
LINE
8
Layer 1
10
210.958000
20
24.542200
11
211.101000
21
24.613700
0
LINE
8
Layer 1
10
211.101000
20
24.613700
11
211.387000
21
24.613700
0
LINE
8
Layer 1
10
211.387000
20
24.613700
11
211.530000
21
24.542200
0
LINE
8
Layer 1
10
212.815000
20
23.613700
11
212.815000
21
24.399400
0
LINE
8
Layer 1
10
212.815000
20
24.399400
11
212.744000
21
24.542200
0
LINE
8
Layer 1
10
212.744000
20
24.542200
11
212.601000
21
24.613700
0
LINE
8
Layer 1
10
212.601000
20
24.613700
11
212.315000
21
24.613700
0
LINE
8
Layer 1
10
212.315000
20
24.613700
11
212.172000
21
24.542200
0
LINE
8
Layer 1
10
212.815000
20
23.685100
11
212.672000
21
23.613700
0
LINE
8
Layer 1
10
212.672000
20
23.613700
11
212.315000
21
23.613700
0
LINE
8
Layer 1
10
212.315000
20
23.613700
11
212.172000
21
23.685100
0
LINE
8
Layer 1
10
212.172000
20
23.685100
11
212.101000
21
23.828000
0
LINE
8
Layer 1
10
212.101000
20
23.828000
11
212.101000
21
23.970800
0
LINE
8
Layer 1
10
212.101000
20
23.970800
11
212.172000
21
24.113700
0
LINE
8
Layer 1
10
212.172000
20
24.113700
11
212.315000
21
24.185100
0
LINE
8
Layer 1
10
212.315000
20
24.185100
11
212.672000
21
24.185100
0
LINE
8
Layer 1
10
212.672000
20
24.185100
11
212.815000
21
24.256500
0
LINE
8
Layer 1
10
214.172000
20
23.613700
11
214.172000
21
25.113700
0
LINE
8
Layer 1
10
214.172000
20
23.685100
11
214.030000
21
23.613700
0
LINE
8
Layer 1
10
214.030000
20
23.613700
11
213.744000
21
23.613700
0
LINE
8
Layer 1
10
213.744000
20
23.613700
11
213.601000
21
23.685100
0
LINE
8
Layer 1
10
213.601000
20
23.685100
11
213.530000
21
23.756500
0
LINE
8
Layer 1
10
213.530000
20
23.756500
11
213.458000
21
23.899400
0
LINE
8
Layer 1
10
213.458000
20
23.899400
11
213.458000
21
24.328000
0
LINE
8
Layer 1
10
213.458000
20
24.328000
11
213.530000
21
24.470800
0
LINE
8
Layer 1
10
213.530000
20
24.470800
11
213.601000
21
24.542200
0
LINE
8
Layer 1
10
213.601000
20
24.542200
11
213.744000
21
24.613700
0
LINE
8
Layer 1
10
213.744000
20
24.613700
11
214.030000
21
24.613700
0
LINE
8
Layer 1
10
214.030000
20
24.613700
11
214.172000
21
24.542200
0
LINE
8
Layer 1
10
214.530000
20
23.470800
11
215.672000
21
23.470800
0
LINE
8
Layer 1
10
216.030000
20
24.613700
11
216.030000
21
23.113700
0
LINE
8
Layer 1
10
216.030000
20
24.542200
11
216.172000
21
24.613700
0
LINE
8
Layer 1
10
216.172000
20
24.613700
11
216.458000
21
24.613700
0
LINE
8
Layer 1
10
216.458000
20
24.613700
11
216.601000
21
24.542200
0
LINE
8
Layer 1
10
216.601000
20
24.542200
11
216.672000
21
24.470800
0
LINE
8
Layer 1
10
216.672000
20
24.470800
11
216.744000
21
24.328000
0
LINE
8
Layer 1
10
216.744000
20
24.328000
11
216.744000
21
23.899400
0
LINE
8
Layer 1
10
216.744000
20
23.899400
11
216.672000
21
23.756500
0
LINE
8
Layer 1
10
216.672000
20
23.756500
11
216.601000
21
23.685100
0
LINE
8
Layer 1
10
216.601000
20
23.685100
11
216.458000
21
23.613700
0
LINE
8
Layer 1
10
216.458000
20
23.613700
11
216.172000
21
23.613700
0
LINE
8
Layer 1
10
216.172000
20
23.613700
11
216.030000
21
23.685100
0
LINE
8
Layer 1
10
218.030000
20
23.685100
11
217.887000
21
23.613700
0
LINE
8
Layer 1
10
217.887000
20
23.613700
11
217.601000
21
23.613700
0
LINE
8
Layer 1
10
217.601000
20
23.613700
11
217.458000
21
23.685100
0
LINE
8
Layer 1
10
217.458000
20
23.685100
11
217.387000
21
23.756500
0
LINE
8
Layer 1
10
217.387000
20
23.756500
11
217.315000
21
23.899400
0
LINE
8
Layer 1
10
217.315000
20
23.899400
11
217.315000
21
24.328000
0
LINE
8
Layer 1
10
217.315000
20
24.328000
11
217.387000
21
24.470800
0
LINE
8
Layer 1
10
217.387000
20
24.470800
11
217.458000
21
24.542200
0
LINE
8
Layer 1
10
217.458000
20
24.542200
11
217.601000
21
24.613700
0
LINE
8
Layer 1
10
217.601000
20
24.613700
11
217.887000
21
24.613700
0
LINE
8
Layer 1
10
217.887000
20
24.613700
11
218.030000
21
24.542200
0
LINE
8
Layer 1
10
218.672000
20
23.613700
11
218.672000
21
25.113700
0
LINE
8
Layer 1
10
218.672000
20
24.542200
11
218.815000
21
24.613700
0
LINE
8
Layer 1
10
218.815000
20
24.613700
11
219.101000
21
24.613700
0
LINE
8
Layer 1
10
219.101000
20
24.613700
11
219.244000
21
24.542200
0
LINE
8
Layer 1
10
219.244000
20
24.542200
11
219.315000
21
24.470800
0
LINE
8
Layer 1
10
219.315000
20
24.470800
11
219.387000
21
24.328000
0
LINE
8
Layer 1
10
219.387000
20
24.328000
11
219.387000
21
23.899400
0
LINE
8
Layer 1
10
219.387000
20
23.899400
11
219.315000
21
23.756500
0
LINE
8
Layer 1
10
219.315000
20
23.756500
11
219.244000
21
23.685100
0
LINE
8
Layer 1
10
219.244000
20
23.685100
11
219.101000
21
23.613700
0
LINE
8
Layer 1
10
219.101000
20
23.613700
11
218.815000
21
23.613700
0
LINE
8
Layer 1
10
218.815000
20
23.613700
11
218.672000
21
23.685100
0
LINE
8
Layer 1
10
177.002000
20
28.499800
11
285.002000
21
28.499800
0
LINE
8
Layer 1
10
178.387000
20
26.385100
11
178.601000
21
26.313700
0
LINE
8
Layer 1
10
178.601000
20
26.313700
11
178.958000
21
26.313700
0
LINE
8
Layer 1
10
178.958000
20
26.313700
11
179.101000
21
26.385100
0
LINE
8
Layer 1
10
179.101000
20
26.385100
11
179.172000
21
26.456500
0
LINE
8
Layer 1
10
179.172000
20
26.456500
11
179.244000
21
26.599400
0
LINE
8
Layer 1
10
179.244000
20
26.599400
11
179.244000
21
26.742200
0
LINE
8
Layer 1
10
179.244000
20
26.742200
11
179.172000
21
26.885100
0
LINE
8
Layer 1
10
179.172000
20
26.885100
11
179.101000
21
26.956500
0
LINE
8
Layer 1
10
179.101000
20
26.956500
11
178.958000
21
27.028000
0
LINE
8
Layer 1
10
178.958000
20
27.028000
11
178.672000
21
27.099400
0
LINE
8
Layer 1
10
178.672000
20
27.099400
11
178.530000
21
27.170800
0
LINE
8
Layer 1
10
178.530000
20
27.170800
11
178.458000
21
27.242200
0
LINE
8
Layer 1
10
178.458000
20
27.242200
11
178.387000
21
27.385100
0
LINE
8
Layer 1
10
178.387000
20
27.385100
11
178.387000
21
27.528000
0
LINE
8
Layer 1
10
178.387000
20
27.528000
11
178.458000
21
27.670800
0
LINE
8
Layer 1
10
178.458000
20
27.670800
11
178.530000
21
27.742200
0
LINE
8
Layer 1
10
178.530000
20
27.742200
11
178.672000
21
27.813700
0
LINE
8
Layer 1
10
178.672000
20
27.813700
11
179.030000
21
27.813700
0
LINE
8
Layer 1
10
179.030000
20
27.813700
11
179.244000
21
27.742200
0
LINE
8
Layer 1
10
179.887000
20
26.313700
11
179.887000
21
27.813700
0
LINE
8
Layer 1
10
180.530000
20
26.313700
11
180.530000
21
27.099400
0
LINE
8
Layer 1
10
180.530000
20
27.099400
11
180.458000
21
27.242200
0
LINE
8
Layer 1
10
180.458000
20
27.242200
11
180.315000
21
27.313700
0
LINE
8
Layer 1
10
180.315000
20
27.313700
11
180.101000
21
27.313700
0
LINE
8
Layer 1
10
180.101000
20
27.313700
11
179.958000
21
27.242200
0
LINE
8
Layer 1
10
179.958000
20
27.242200
11
179.887000
21
27.170800
0
LINE
8
Layer 1
10
181.815000
20
26.385100
11
181.672000
21
26.313700
0
LINE
8
Layer 1
10
181.672000
20
26.313700
11
181.387000
21
26.313700
0
LINE
8
Layer 1
10
181.387000
20
26.313700
11
181.244000
21
26.385100
0
LINE
8
Layer 1
10
181.244000
20
26.385100
11
181.172000
21
26.528000
0
LINE
8
Layer 1
10
181.172000
20
26.528000
11
181.172000
21
27.099400
0
LINE
8
Layer 1
10
181.172000
20
27.099400
11
181.244000
21
27.242200
0
LINE
8
Layer 1
10
181.244000
20
27.242200
11
181.387000
21
27.313700
0
LINE
8
Layer 1
10
181.387000
20
27.313700
11
181.672000
21
27.313700
0
LINE
8
Layer 1
10
181.672000
20
27.313700
11
181.815000
21
27.242200
0
LINE
8
Layer 1
10
181.815000
20
27.242200
11
181.887000
21
27.099400
0
LINE
8
Layer 1
10
181.887000
20
27.099400
11
181.887000
21
26.956500
0
LINE
8
Layer 1
10
181.887000
20
26.956500
11
181.172000
21
26.813700
0
LINE
8
Layer 1
10
183.101000
20
26.385100
11
182.958000
21
26.313700
0
LINE
8
Layer 1
10
182.958000
20
26.313700
11
182.672000
21
26.313700
0
LINE
8
Layer 1
10
182.672000
20
26.313700
11
182.530000
21
26.385100
0
LINE
8
Layer 1
10
182.530000
20
26.385100
11
182.458000
21
26.528000
0
LINE
8
Layer 1
10
182.458000
20
26.528000
11
182.458000
21
27.099400
0
LINE
8
Layer 1
10
182.458000
20
27.099400
11
182.530000
21
27.242200
0
LINE
8
Layer 1
10
182.530000
20
27.242200
11
182.672000
21
27.313700
0
LINE
8
Layer 1
10
182.672000
20
27.313700
11
182.958000
21
27.313700
0
LINE
8
Layer 1
10
182.958000
20
27.313700
11
183.101000
21
27.242200
0
LINE
8
Layer 1
10
183.101000
20
27.242200
11
183.172000
21
27.099400
0
LINE
8
Layer 1
10
183.172000
20
27.099400
11
183.172000
21
26.956500
0
LINE
8
Layer 1
10
183.172000
20
26.956500
11
182.458000
21
26.813700
0
LINE
8
Layer 1
10
183.601000
20
27.313700
11
184.172000
21
27.313700
0
LINE
8
Layer 1
10
183.815000
20
27.813700
11
183.815000
21
26.528000
0
LINE
8
Layer 1
10
183.815000
20
26.528000
11
183.887000
21
26.385100
0
LINE
8
Layer 1
10
183.887000
20
26.385100
11
184.030000
21
26.313700
0
LINE
8
Layer 1
10
184.030000
20
26.313700
11
184.172000
21
26.313700
0
LINE
8
Layer 1
10
184.672000
20
26.456500
11
184.744000
21
26.385100
0
LINE
8
Layer 1
10
184.744000
20
26.385100
11
184.672000
21
26.313700
0
LINE
8
Layer 1
10
184.672000
20
26.313700
11
184.601000
21
26.385100
0
LINE
8
Layer 1
10
184.601000
20
26.385100
11
184.672000
21
26.456500
0
LINE
8
Layer 1
10
184.672000
20
26.456500
11
184.672000
21
26.313700
0
LINE
8
Layer 1
10
184.672000
20
27.242200
11
184.744000
21
27.170800
0
LINE
8
Layer 1
10
184.744000
20
27.170800
11
184.672000
21
27.099400
0
LINE
8
Layer 1
10
184.672000
20
27.099400
11
184.601000
21
27.170800
0
LINE
8
Layer 1
10
184.601000
20
27.170800
11
184.672000
21
27.242200
0
LINE
8
Layer 1
10
184.672000
20
27.242200
11
184.672000
21
27.099400
0
LINE
8
Layer 1
10
178.557000
20
30.321500
11
178.557000
21
28.821500
0
LINE
8
Layer 1
10
178.557000
20
30.250000
11
178.700000
21
30.321500
0
LINE
8
Layer 1
10
178.700000
20
30.321500
11
178.985000
21
30.321500
0
LINE
8
Layer 1
10
178.985000
20
30.321500
11
179.128000
21
30.250000
0
LINE
8
Layer 1
10
179.128000
20
30.250000
11
179.200000
21
30.178600
0
LINE
8
Layer 1
10
179.200000
20
30.178600
11
179.271000
21
30.035800
0
LINE
8
Layer 1
10
179.271000
20
30.035800
11
179.271000
21
29.607200
0
LINE
8
Layer 1
10
179.271000
20
29.607200
11
179.200000
21
29.464300
0
LINE
8
Layer 1
10
179.200000
20
29.464300
11
179.128000
21
29.392900
0
LINE
8
Layer 1
10
179.128000
20
29.392900
11
178.985000
21
29.321500
0
LINE
8
Layer 1
10
178.985000
20
29.321500
11
178.700000
21
29.321500
0
LINE
8
Layer 1
10
178.700000
20
29.321500
11
178.557000
21
29.392900
0
LINE
8
Layer 1
10
180.557000
20
29.321500
11
180.557000
21
30.107200
0
LINE
8
Layer 1
10
180.557000
20
30.107200
11
180.485000
21
30.250000
0
LINE
8
Layer 1
10
180.485000
20
30.250000
11
180.342000
21
30.321500
0
LINE
8
Layer 1
10
180.342000
20
30.321500
11
180.057000
21
30.321500
0
LINE
8
Layer 1
10
180.057000
20
30.321500
11
179.914000
21
30.250000
0
LINE
8
Layer 1
10
180.557000
20
29.392900
11
180.414000
21
29.321500
0
LINE
8
Layer 1
10
180.414000
20
29.321500
11
180.057000
21
29.321500
0
LINE
8
Layer 1
10
180.057000
20
29.321500
11
179.914000
21
29.392900
0
LINE
8
Layer 1
10
179.914000
20
29.392900
11
179.842000
21
29.535800
0
LINE
8
Layer 1
10
179.842000
20
29.535800
11
179.842000
21
29.678600
0
LINE
8
Layer 1
10
179.842000
20
29.678600
11
179.914000
21
29.821500
0
LINE
8
Layer 1
10
179.914000
20
29.821500
11
180.057000
21
29.892900
0
LINE
8
Layer 1
10
180.057000
20
29.892900
11
180.414000
21
29.892900
0
LINE
8
Layer 1
10
180.414000
20
29.892900
11
180.557000
21
29.964300
0
LINE
8
Layer 1
10
181.200000
20
29.392900
11
181.342000
21
29.321500
0
LINE
8
Layer 1
10
181.342000
20
29.321500
11
181.628000
21
29.321500
0
LINE
8
Layer 1
10
181.628000
20
29.321500
11
181.771000
21
29.392900
0
LINE
8
Layer 1
10
181.771000
20
29.392900
11
181.842000
21
29.535800
0
LINE
8
Layer 1
10
181.842000
20
29.535800
11
181.842000
21
29.607200
0
LINE
8
Layer 1
10
181.842000
20
29.607200
11
181.771000
21
29.750000
0
LINE
8
Layer 1
10
181.771000
20
29.750000
11
181.628000
21
29.821500
0
LINE
8
Layer 1
10
181.628000
20
29.821500
11
181.414000
21
29.821500
0
LINE
8
Layer 1
10
181.414000
20
29.821500
11
181.271000
21
29.892900
0
LINE
8
Layer 1
10
181.271000
20
29.892900
11
181.200000
21
30.035800
0
LINE
8
Layer 1
10
181.200000
20
30.035800
11
181.200000
21
30.107200
0
LINE
8
Layer 1
10
181.200000
20
30.107200
11
181.271000
21
30.250000
0
LINE
8
Layer 1
10
181.271000
20
30.250000
11
181.414000
21
30.321500
0
LINE
8
Layer 1
10
181.414000
20
30.321500
11
181.628000
21
30.321500
0
LINE
8
Layer 1
10
181.628000
20
30.321500
11
181.771000
21
30.250000
0
LINE
8
Layer 1
10
182.485000
20
29.321500
11
182.485000
21
30.821500
0
LINE
8
Layer 1
10
183.128000
20
29.321500
11
183.128000
21
30.107200
0
LINE
8
Layer 1
10
183.128000
20
30.107200
11
183.057000
21
30.250000
0
LINE
8
Layer 1
10
183.057000
20
30.250000
11
182.914000
21
30.321500
0
LINE
8
Layer 1
10
182.914000
20
30.321500
11
182.700000
21
30.321500
0
LINE
8
Layer 1
10
182.700000
20
30.321500
11
182.557000
21
30.250000
0
LINE
8
Layer 1
10
182.557000
20
30.250000
11
182.485000
21
30.178600
0
LINE
8
Layer 1
10
184.485000
20
30.321500
11
184.485000
21
29.321500
0
LINE
8
Layer 1
10
183.842000
20
30.321500
11
183.842000
21
29.535800
0
LINE
8
Layer 1
10
183.842000
20
29.535800
11
183.914000
21
29.392900
0
LINE
8
Layer 1
10
183.914000
20
29.392900
11
184.057000
21
29.321500
0
LINE
8
Layer 1
10
184.057000
20
29.321500
11
184.271000
21
29.321500
0
LINE
8
Layer 1
10
184.271000
20
29.321500
11
184.414000
21
29.392900
0
LINE
8
Layer 1
10
184.414000
20
29.392900
11
184.485000
21
29.464300
0
LINE
8
Layer 1
10
184.985000
20
30.321500
11
185.557000
21
30.321500
0
LINE
8
Layer 1
10
185.200000
20
30.821500
11
185.200000
21
29.535800
0
LINE
8
Layer 1
10
185.200000
20
29.535800
11
185.271000
21
29.392900
0
LINE
8
Layer 1
10
185.271000
20
29.392900
11
185.414000
21
29.321500
0
LINE
8
Layer 1
10
185.414000
20
29.321500
11
185.557000
21
29.321500
0
LINE
8
Layer 1
10
186.057000
20
29.321500
11
186.057000
21
30.821500
0
LINE
8
Layer 1
10
186.200000
20
29.892900
11
186.628000
21
29.321500
0
LINE
8
Layer 1
10
186.628000
20
30.321500
11
186.057000
21
29.750000
0
LINE
8
Layer 1
10
189.628000
20
29.321500
11
189.557000
21
29.321500
0
LINE
8
Layer 1
10
189.557000
20
29.321500
11
189.414000
21
29.392900
0
LINE
8
Layer 1
10
189.414000
20
29.392900
11
189.200000
21
29.607200
0
LINE
8
Layer 1
10
189.200000
20
29.607200
11
188.842000
21
30.035800
0
LINE
8
Layer 1
10
188.842000
20
30.035800
11
188.700000
21
30.250000
0
LINE
8
Layer 1
10
188.700000
20
30.250000
11
188.628000
21
30.464300
0
LINE
8
Layer 1
10
188.628000
20
30.464300
11
188.628000
21
30.607200
0
LINE
8
Layer 1
10
188.628000
20
30.607200
11
188.700000
21
30.750000
0
LINE
8
Layer 1
10
188.700000
20
30.750000
11
188.842000
21
30.821500
0
LINE
8
Layer 1
10
188.842000
20
30.821500
11
188.914000
21
30.821500
0
LINE
8
Layer 1
10
188.914000
20
30.821500
11
189.057000
21
30.750000
0
LINE
8
Layer 1
10
189.057000
20
30.750000
11
189.128000
21
30.607200
0
LINE
8
Layer 1
10
189.128000
20
30.607200
11
189.128000
21
30.535800
0
LINE
8
Layer 1
10
189.128000
20
30.535800
11
189.057000
21
30.392900
0
LINE
8
Layer 1
10
189.057000
20
30.392900
11
188.985000
21
30.321500
0
LINE
8
Layer 1
10
188.985000
20
30.321500
11
188.557000
21
30.035800
0
LINE
8
Layer 1
10
188.557000
20
30.035800
11
188.485000
21
29.964300
0
LINE
8
Layer 1
10
188.485000
20
29.964300
11
188.414000
21
29.821500
0
LINE
8
Layer 1
10
188.414000
20
29.821500
11
188.414000
21
29.607200
0
LINE
8
Layer 1
10
188.414000
20
29.607200
11
188.485000
21
29.464300
0
LINE
8
Layer 1
10
188.485000
20
29.464300
11
188.557000
21
29.392900
0
LINE
8
Layer 1
10
188.557000
20
29.392900
11
188.700000
21
29.321500
0
LINE
8
Layer 1
10
188.700000
20
29.321500
11
188.914000
21
29.321500
0
LINE
8
Layer 1
10
188.914000
20
29.321500
11
189.057000
21
29.392900
0
LINE
8
Layer 1
10
189.057000
20
29.392900
11
189.128000
21
29.464300
0
LINE
8
Layer 1
10
189.128000
20
29.464300
11
189.342000
21
29.750000
0
LINE
8
Layer 1
10
189.342000
20
29.750000
11
189.414000
21
29.964300
0
LINE
8
Layer 1
10
189.414000
20
29.964300
11
189.414000
21
30.107200
0
LINE
8
Layer 1
10
191.414000
20
29.321500
11
191.414000
21
30.821500
0
LINE
8
Layer 1
10
191.557000
20
29.892900
11
191.985000
21
29.321500
0
LINE
8
Layer 1
10
191.985000
20
30.321500
11
191.414000
21
29.750000
0
LINE
8
Layer 1
10
192.628000
20
29.321500
11
192.628000
21
30.321500
0
LINE
8
Layer 1
10
192.628000
20
30.035800
11
192.700000
21
30.178600
0
LINE
8
Layer 1
10
192.700000
20
30.178600
11
192.771000
21
30.250000
0
LINE
8
Layer 1
10
192.771000
20
30.250000
11
192.914000
21
30.321500
0
LINE
8
Layer 1
10
192.914000
20
30.321500
11
193.057000
21
30.321500
0
LINE
8
Layer 1
10
193.557000
20
29.321500
11
193.557000
21
30.321500
0
LINE
8
Layer 1
10
193.557000
20
30.821500
11
193.485000
21
30.750000
0
LINE
8
Layer 1
10
193.485000
20
30.750000
11
193.557000
21
30.678600
0
LINE
8
Layer 1
10
193.557000
20
30.678600
11
193.628000
21
30.750000
0
LINE
8
Layer 1
10
193.628000
20
30.750000
11
193.557000
21
30.821500
0
LINE
8
Layer 1
10
193.557000
20
30.821500
11
193.557000
21
30.678600
0
LINE
8
Layer 1
10
194.271000
20
29.321500
11
194.271000
21
30.821500
0
LINE
8
Layer 1
10
194.414000
20
29.892900
11
194.842000
21
29.321500
0
LINE
8
Layer 1
10
194.842000
20
30.321500
11
194.271000
21
29.750000
0
LINE
8
Layer 1
10
196.128000
20
30.321500
11
196.128000
21
29.321500
0
LINE
8
Layer 1
10
195.485000
20
30.321500
11
195.485000
21
29.535800
0
LINE
8
Layer 1
10
195.485000
20
29.535800
11
195.557000
21
29.392900
0
LINE
8
Layer 1
10
195.557000
20
29.392900
11
195.700000
21
29.321500
0
LINE
8
Layer 1
10
195.700000
20
29.321500
11
195.914000
21
29.321500
0
LINE
8
Layer 1
10
195.914000
20
29.321500
11
196.057000
21
29.392900
0
LINE
8
Layer 1
10
196.057000
20
29.392900
11
196.128000
21
29.464300
0
LINE
8
Layer 1
10
196.842000
20
30.321500
11
196.842000
21
29.321500
0
LINE
8
Layer 1
10
196.842000
20
30.178600
11
196.914000
21
30.250000
0
LINE
8
Layer 1
10
196.914000
20
30.250000
11
197.057000
21
30.321500
0
LINE
8
Layer 1
10
197.057000
20
30.321500
11
197.271000
21
30.321500
0
LINE
8
Layer 1
10
197.271000
20
30.321500
11
197.414000
21
30.250000
0
LINE
8
Layer 1
10
197.414000
20
30.250000
11
197.485000
21
30.107200
0
LINE
8
Layer 1
10
197.485000
20
30.107200
11
197.485000
21
29.321500
0
LINE
8
Layer 1
10
198.271000
20
29.321500
11
198.557000
21
29.321500
0
LINE
8
Layer 1
10
198.557000
20
29.321500
11
198.700000
21
29.392900
0
LINE
8
Layer 1
10
198.700000
20
29.392900
11
198.771000
21
29.464300
0
LINE
8
Layer 1
10
198.771000
20
29.464300
11
198.914000
21
29.678600
0
LINE
8
Layer 1
10
198.914000
20
29.678600
11
198.985000
21
29.964300
0
LINE
8
Layer 1
10
198.985000
20
29.964300
11
198.985000
21
30.535800
0
LINE
8
Layer 1
10
198.985000
20
30.535800
11
198.914000
21
30.678600
0
LINE
8
Layer 1
10
198.914000
20
30.678600
11
198.842000
21
30.750000
0
LINE
8
Layer 1
10
198.842000
20
30.750000
11
198.700000
21
30.821500
0
LINE
8
Layer 1
10
198.700000
20
30.821500
11
198.414000
21
30.821500
0
LINE
8
Layer 1
10
198.414000
20
30.821500
11
198.271000
21
30.750000
0
LINE
8
Layer 1
10
198.271000
20
30.750000
11
198.200000
21
30.678600
0
LINE
8
Layer 1
10
198.200000
20
30.678600
11
198.128000
21
30.535800
0
LINE
8
Layer 1
10
198.128000
20
30.535800
11
198.128000
21
30.178600
0
LINE
8
Layer 1
10
198.128000
20
30.178600
11
198.200000
21
30.035800
0
LINE
8
Layer 1
10
198.200000
20
30.035800
11
198.271000
21
29.964300
0
LINE
8
Layer 1
10
198.271000
20
29.964300
11
198.414000
21
29.892900
0
LINE
8
Layer 1
10
198.414000
20
29.892900
11
198.700000
21
29.892900
0
LINE
8
Layer 1
10
198.700000
20
29.892900
11
198.842000
21
29.964300
0
LINE
8
Layer 1
10
198.842000
20
29.964300
11
198.914000
21
30.035800
0
LINE
8
Layer 1
10
198.914000
20
30.035800
11
198.985000
21
30.178600
0
LINE
8
Layer 1
10
199.842000
20
30.178600
11
199.700000
21
30.250000
0
LINE
8
Layer 1
10
199.700000
20
30.250000
11
199.628000
21
30.321500
0
LINE
8
Layer 1
10
199.628000
20
30.321500
11
199.557000
21
30.464300
0
LINE
8
Layer 1
10
199.557000
20
30.464300
11
199.557000
21
30.535800
0
LINE
8
Layer 1
10
199.557000
20
30.535800
11
199.628000
21
30.678600
0
LINE
8
Layer 1
10
199.628000
20
30.678600
11
199.700000
21
30.750000
0
LINE
8
Layer 1
10
199.700000
20
30.750000
11
199.842000
21
30.821500
0
LINE
8
Layer 1
10
199.842000
20
30.821500
11
200.128000
21
30.821500
0
LINE
8
Layer 1
10
200.128000
20
30.821500
11
200.271000
21
30.750000
0
LINE
8
Layer 1
10
200.271000
20
30.750000
11
200.342000
21
30.678600
0
LINE
8
Layer 1
10
200.342000
20
30.678600
11
200.414000
21
30.535800
0
LINE
8
Layer 1
10
200.414000
20
30.535800
11
200.414000
21
30.464300
0
LINE
8
Layer 1
10
200.414000
20
30.464300
11
200.342000
21
30.321500
0
LINE
8
Layer 1
10
200.342000
20
30.321500
11
200.271000
21
30.250000
0
LINE
8
Layer 1
10
200.271000
20
30.250000
11
200.128000
21
30.178600
0
LINE
8
Layer 1
10
200.128000
20
30.178600
11
199.842000
21
30.178600
0
LINE
8
Layer 1
10
199.842000
20
30.178600
11
199.700000
21
30.107200
0
LINE
8
Layer 1
10
199.700000
20
30.107200
11
199.628000
21
30.035800
0
LINE
8
Layer 1
10
199.628000
20
30.035800
11
199.557000
21
29.892900
0
LINE
8
Layer 1
10
199.557000
20
29.892900
11
199.557000
21
29.607200
0
LINE
8
Layer 1
10
199.557000
20
29.607200
11
199.628000
21
29.464300
0
LINE
8
Layer 1
10
199.628000
20
29.464300
11
199.700000
21
29.392900
0
LINE
8
Layer 1
10
199.700000
20
29.392900
11
199.842000
21
29.321500
0
LINE
8
Layer 1
10
199.842000
20
29.321500
11
200.128000
21
29.321500
0
LINE
8
Layer 1
10
200.128000
20
29.321500
11
200.271000
21
29.392900
0
LINE
8
Layer 1
10
200.271000
20
29.392900
11
200.342000
21
29.464300
0
LINE
8
Layer 1
10
200.342000
20
29.464300
11
200.414000
21
29.607200
0
LINE
8
Layer 1
10
200.414000
20
29.607200
11
200.414000
21
29.892900
0
LINE
8
Layer 1
10
200.414000
20
29.892900
11
200.342000
21
30.035800
0
LINE
8
Layer 1
10
200.342000
20
30.035800
11
200.271000
21
30.107200
0
LINE
8
Layer 1
10
200.271000
20
30.107200
11
200.128000
21
30.178600
0
LINE
8
Layer 1
10
197.002000
20
18.499800
11
197.002000
21
15.499800
0
LINE
8
Layer 1
10
261.002000
20
18.499800
11
261.002000
21
11.999800
0
LINE
8
Layer 1
10
187.620000
20
156.202000
11
167.330000
21
156.192000
0
LINE
8
Layer 1
10
94.515400
20
147.986000
11
77.846400
21
147.981000
0
LINE
8
Layer 1
10
202.800000
20
63.407000
11
211.759000
21
79.734100
0
LINE
8
Layer 1
10
184.200000
20
72.607000
11
201.600000
21
63.007000
0
LINE
8
Layer 1
10
148.840000
20
82.316900
11
166.359000
21
79.284600
0
LINE
8
Layer 1
10
166.850000
20
156.552000
11
166.676678
21
156.839015
0
LINE
8
Layer 1
10
166.676678
20
156.839015
11
166.361000
21
156.952000
0
LINE
8
Layer 1
10
166.850000
20
156.552000
11
167.030000
21
156.292000
0
LINE
8
Layer 1
10
167.030000
20
156.292000
11
167.330000
21
156.192000
0
LINE
8
Layer 1
10
166.361000
20
156.952000
11
149.293000
21
156.938000
0
LINE
8
Layer 1
10
94.515400
20
147.986000
11
94.868953
21
148.132447
0
LINE
8
Layer 1
10
94.868953
20
148.132447
11
95.015400
21
148.486000
0
LINE
8
Layer 1
10
95.517100
20
160.000000
11
95.163547
21
159.853553
0
LINE
8
Layer 1
10
95.163547
20
159.853553
11
95.017100
21
159.500000
0
LINE
8
Layer 1
10
130.310000
20
165.971000
11
113.530000
21
165.957000
0
LINE
8
Layer 1
10
130.810000
20
159.954000
11
130.810000
21
165.471000
0
LINE
8
Layer 1
10
148.293000
20
159.438000
11
131.310000
21
159.454000
0
LINE
8
Layer 1
10
148.793000
20
157.438000
11
148.793000
21
158.938000
0
LINE
8
Layer 1
10
95.017100
20
159.500000
11
95.015400
21
148.486000
0
LINE
8
Layer 1
10
112.547000
20
160.000000
11
95.517100
21
160.000000
0
LINE
8
Layer 1
10
113.030000
20
165.457000
11
113.047000
21
160.500000
0
LINE
8
Layer 1
10
112.547000
20
160.000000
11
112.900553
21
160.146447
0
LINE
8
Layer 1
10
112.900553
20
160.146447
11
113.047000
21
160.500000
0
LINE
8
Layer 1
10
113.530000
20
165.957000
11
113.176447
21
165.810553
0
LINE
8
Layer 1
10
113.176447
20
165.810553
11
113.030000
21
165.457000
0
LINE
8
Layer 1
10
130.810000
20
165.471000
11
130.663553
21
165.824553
0
LINE
8
Layer 1
10
130.663553
20
165.824553
11
130.310000
21
165.971000
0
LINE
8
Layer 1
10
130.810000
20
159.954000
11
130.956447
21
159.600447
0
LINE
8
Layer 1
10
130.956447
20
159.600447
11
131.310000
21
159.454000
0
LINE
8
Layer 1
10
148.793000
20
158.938000
11
148.646553
21
159.291553
0
LINE
8
Layer 1
10
148.646553
20
159.291553
11
148.293000
21
159.438000
0
LINE
8
Layer 1
10
148.793000
20
157.438000
11
148.939447
21
157.084447
0
LINE
8
Layer 1
10
148.939447
20
157.084447
11
149.293000
21
156.938000
0
LINE
8
Layer 1
10
188.120000
20
155.702000
11
187.973553
21
156.055553
0
LINE
8
Layer 1
10
187.973553
20
156.055553
11
187.620000
21
156.202000
0
LINE
8
Layer 1
10
75.110000
20
144.207000
11
75.110000
21
144.407000
0
LINE
8
Layer 1
10
75.110000
20
143.807000
11
75.373604
21
143.170604
0
LINE
8
Layer 1
10
75.373604
20
143.170604
11
76.010000
21
142.907000
0
LINE
8
Layer 1
10
76.010000
20
142.907000
11
76.646396
21
143.170604
0
LINE
8
Layer 1
10
76.646396
20
143.170604
11
76.910000
21
143.807000
0
LINE
8
Layer 1
10
76.910000
20
102.607000
11
76.646396
21
103.243396
0
LINE
8
Layer 1
10
76.646396
20
103.243396
11
76.010000
21
103.507000
0
LINE
8
Layer 1
10
76.010000
20
103.507000
11
75.373604
21
103.243396
0
LINE
8
Layer 1
10
75.373604
20
103.243396
11
75.110000
21
102.607000
0
LINE
8
Layer 1
10
211.756000
20
79.735500
11
211.804547
21
80.462650
0
LINE
8
Layer 1
10
211.804547
20
80.462650
11
211.320000
21
81.007000
0
LINE
8
Layer 1
10
114.770000
20
91.607900
11
148.840000
21
82.316900
0
LINE
8
Layer 1
10
75.110000
20
109.907000
11
75.373604
21
109.270604
0
LINE
8
Layer 1
10
75.373604
20
109.270604
11
76.010000
21
109.007000
0
LINE
8
Layer 1
10
76.010000
20
109.007000
11
76.646396
21
109.270604
0
LINE
8
Layer 1
10
76.646396
20
109.270604
11
76.910000
21
109.907000
0
LINE
8
Layer 1
10
201.600000
20
63.007000
11
202.282846
21
62.958461
0
LINE
8
Layer 1
10
202.282846
20
62.958461
11
202.800000
21
63.407000
0
LINE
8
Layer 1
10
75.110000
20
144.407000
11
74.904975
21
144.901975
0
LINE
8
Layer 1
10
74.904975
20
144.901975
11
74.410000
21
145.107000
0
LINE
8
Layer 1
10
188.120000
20
155.707000
11
188.134000
21
94.612000
0
LINE
8
Layer 1
10
94.340000
20
91.907000
11
113.040000
21
91.917000
0
LINE
8
Layer 1
10
76.910000
20
109.907000
11
76.910000
21
119.507000
0
LINE
8
Layer 1
10
75.110000
20
102.607000
11
75.110000
21
94.807000
0
LINE
8
Layer 1
10
75.110000
20
109.907000
11
75.110000
21
119.507000
0
LINE
8
Layer 1
10
74.410000
20
94.107000
11
59.410000
21
94.107000
0
LINE
8
Layer 1
10
76.910000
20
147.045000
11
76.910000
21
143.807000
0
LINE
8
Layer 1
10
93.957100
20
96.507000
11
93.950000
21
92.297000
0
LINE
8
Layer 1
10
76.910000
20
102.607000
11
76.916600
21
97.807000
0
LINE
8
Layer 1
10
58.910000
20
94.607000
11
59.056447
21
94.253447
0
LINE
8
Layer 1
10
59.056447
20
94.253447
11
59.410000
21
94.107000
0
LINE
8
Layer 1
10
188.920000
20
93.407000
11
211.320000
21
81.007000
0
LINE
8
Layer 1
10
74.410000
20
145.107000
11
59.410000
21
145.107000
0
LINE
8
Layer 1
10
93.957100
20
96.507000
11
93.733302
21
96.999714
0
LINE
8
Layer 1
10
93.733302
20
96.999714
11
93.220000
21
97.171100
0
LINE
8
Layer 1
10
76.916600
20
97.807000
11
77.090403
21
97.387403
0
LINE
8
Layer 1
10
77.090403
20
97.387403
11
77.510000
21
97.213600
0
LINE
8
Layer 1
10
93.950000
20
92.297000
11
94.064228
21
92.021228
0
LINE
8
Layer 1
10
94.064228
20
92.021228
11
94.340000
21
91.907000
0
LINE
8
Layer 1
10
75.110000
20
126.807000
11
75.110000
21
136.507000
0
LINE
8
Layer 1
10
76.910000
20
119.507000
11
76.646396
21
120.143396
0
LINE
8
Layer 1
10
76.646396
20
120.143396
11
76.010000
21
120.407000
0
LINE
8
Layer 1
10
76.010000
20
120.407000
11
75.373604
21
120.143396
0
LINE
8
Layer 1
10
75.373604
20
120.143396
11
75.110000
21
119.507000
0
LINE
8
Layer 1
10
74.410000
20
94.107000
11
74.904975
21
94.312025
0
LINE
8
Layer 1
10
74.904975
20
94.312025
11
75.110000
21
94.807000
0
LINE
8
Layer 1
10
59.410000
20
145.107000
11
59.056447
21
144.960553
0
LINE
8
Layer 1
10
59.056447
20
144.960553
11
58.910000
21
144.607000
0
LINE
8
Layer 1
10
77.846400
20
147.981000
11
77.184377
21
147.706906
0
LINE
8
Layer 1
10
77.184377
20
147.706906
11
76.910000
21
147.045000
0
LINE
8
Layer 1
10
76.910000
20
136.507000
11
76.646396
21
137.143396
0
LINE
8
Layer 1
10
76.646396
20
137.143396
11
76.010000
21
137.407000
0
LINE
8
Layer 1
10
76.010000
20
137.407000
11
75.373604
21
137.143396
0
LINE
8
Layer 1
10
75.373604
20
137.143396
11
75.110000
21
136.507000
0
LINE
8
Layer 1
10
58.910000
20
144.607000
11
58.910000
21
94.607000
0
LINE
8
Layer 1
10
75.110000
20
144.207000
11
75.110000
21
143.807000
0
LINE
8
Layer 1
10
76.910000
20
126.807000
11
76.910000
21
136.507000
0
LINE
8
Layer 1
10
75.110000
20
126.807000
11
75.373604
21
126.170604
0
LINE
8
Layer 1
10
75.373604
20
126.170604
11
76.010000
21
125.907000
0
LINE
8
Layer 1
10
76.010000
20
125.907000
11
76.646396
21
126.170604
0
LINE
8
Layer 1
10
76.646396
20
126.170604
11
76.910000
21
126.807000
0
LINE
8
Layer 1
10
77.510000
20
97.213600
11
93.210000
21
97.171100
0
LINE
8
Layer 1
10
166.359000
20
79.284600
11
184.200000
21
72.607000
0
LINE
8
Layer 1
10
188.132000
20
94.611900
11
188.357168
21
93.899035
0
LINE
8
Layer 1
10
188.357168
20
93.899035
11
188.920000
21
93.407000
0
LINE
8
Layer 1
10
114.770000
20
91.607900
11
113.918858
21
91.840012
0
LINE
8
Layer 1
10
113.918858
20
91.840012
11
113.040000
21
91.917000
0
LINE
8
Layer 1
10
79.010000
20
146.507000
11
92.810000
21
146.507000
0
LINE
8
Layer 1
10
92.810000
20
146.507000
11
92.810000
21
132.707000
0
LINE
8
Layer 1
10
92.810000
20
132.707000
11
79.010000
21
132.707000
0
LINE
8
Layer 1
10
79.010000
20
132.707000
11
79.010000
21
146.507000
0
LINE
8
Layer 1
10
97.010000
20
158.507000
11
110.810000
21
158.507000
0
LINE
8
Layer 1
10
110.810000
20
158.507000
11
110.810000
21
144.707000
0
LINE
8
Layer 1
10
110.810000
20
144.707000
11
97.010000
21
144.707000
0
LINE
8
Layer 1
10
97.010000
20
144.707000
11
97.010000
21
158.507000
0
LINE
8
Layer 1
10
115.010000
20
164.507000
11
128.810000
21
164.507000
0
LINE
8
Layer 1
10
128.810000
20
164.507000
11
128.810000
21
150.707000
0
LINE
8
Layer 1
10
128.810000
20
150.707000
11
115.010000
21
150.707000
0
LINE
8
Layer 1
10
115.010000
20
150.707000
11
115.010000
21
164.507000
0
LINE
8
Layer 1
10
133.010000
20
157.887000
11
146.810000
21
157.887000
0
LINE
8
Layer 1
10
146.810000
20
157.887000
11
146.810000
21
144.087000
0
LINE
8
Layer 1
10
146.810000
20
144.087000
11
133.010000
21
144.087000
0
LINE
8
Layer 1
10
133.010000
20
144.087000
11
133.010000
21
157.887000
0
LINE
8
Layer 1
10
151.010000
20
155.507000
11
164.810000
21
155.507000
0
LINE
8
Layer 1
10
164.810000
20
155.507000
11
164.810000
21
141.707000
0
LINE
8
Layer 1
10
164.810000
20
141.707000
11
151.010000
21
141.707000
0
LINE
8
Layer 1
10
151.010000
20
141.707000
11
151.010000
21
155.507000
0
LINE
8
Layer 1
10
79.010000
20
129.507000
11
92.810000
21
129.507000
0
LINE
8
Layer 1
10
92.810000
20
129.507000
11
92.810000
21
115.707000
0
LINE
8
Layer 1
10
92.810000
20
115.707000
11
79.010000
21
115.707000
0
LINE
8
Layer 1
10
79.010000
20
115.707000
11
79.010000
21
129.507000
0
LINE
8
Layer 1
10
97.010000
20
141.507000
11
110.810000
21
141.507000
0
LINE
8
Layer 1
10
110.810000
20
141.507000
11
110.810000
21
127.707000
0
LINE
8
Layer 1
10
110.810000
20
127.707000
11
97.010000
21
127.707000
0
LINE
8
Layer 1
10
97.010000
20
127.707000
11
97.010000
21
141.507000
0
LINE
8
Layer 1
10
115.010000
20
147.507000
11
128.810000
21
147.507000
0
LINE
8
Layer 1
10
128.810000
20
147.507000
11
128.810000
21
133.707000
0
LINE
8
Layer 1
10
128.810000
20
133.707000
11
115.010000
21
133.707000
0
LINE
8
Layer 1
10
115.010000
20
133.707000
11
115.010000
21
147.507000
0
LINE
8
Layer 1
10
133.010000
20
140.887000
11
146.810000
21
140.887000
0
LINE
8
Layer 1
10
146.810000
20
140.887000
11
146.810000
21
127.087000
0
LINE
8
Layer 1
10
146.810000
20
127.087000
11
133.010000
21
127.087000
0
LINE
8
Layer 1
10
133.010000
20
127.087000
11
133.010000
21
140.887000
0
LINE
8
Layer 1
10
151.010000
20
138.507000
11
164.810000
21
138.507000
0
LINE
8
Layer 1
10
164.810000
20
138.507000
11
164.810000
21
124.707000
0
LINE
8
Layer 1
10
164.810000
20
124.707000
11
151.010000
21
124.707000
0
LINE
8
Layer 1
10
151.010000
20
124.707000
11
151.010000
21
138.507000
0
LINE
8
Layer 1
10
79.010000
20
112.507000
11
92.810000
21
112.507000
0
LINE
8
Layer 1
10
92.810000
20
112.507000
11
92.810000
21
98.707000
0
LINE
8
Layer 1
10
92.810000
20
98.707000
11
79.010000
21
98.707000
0
LINE
8
Layer 1
10
79.010000
20
98.707000
11
79.010000
21
112.507000
0
LINE
8
Layer 1
10
97.010000
20
124.507000
11
110.810000
21
124.507000
0
LINE
8
Layer 1
10
110.810000
20
124.507000
11
110.810000
21
110.707000
0
LINE
8
Layer 1
10
110.810000
20
110.707000
11
97.010000
21
110.707000
0
LINE
8
Layer 1
10
97.010000
20
110.707000
11
97.010000
21
124.507000
0
LINE
8
Layer 1
10
115.010000
20
130.507000
11
128.810000
21
130.507000
0
LINE
8
Layer 1
10
128.810000
20
130.507000
11
128.810000
21
116.707000
0
LINE
8
Layer 1
10
128.810000
20
116.707000
11
115.010000
21
116.707000
0
LINE
8
Layer 1
10
115.010000
20
116.707000
11
115.010000
21
130.507000
0
LINE
8
Layer 1
10
133.010000
20
123.882000
11
146.810000
21
123.882000
0
LINE
8
Layer 1
10
146.810000
20
123.882000
11
146.810000
21
110.082000
0
LINE
8
Layer 1
10
146.810000
20
110.082000
11
133.010000
21
110.082000
0
LINE
8
Layer 1
10
133.010000
20
110.082000
11
133.010000
21
123.882000
0
LINE
8
Layer 1
10
151.010000
20
121.507000
11
164.810000
21
121.507000
0
LINE
8
Layer 1
10
164.810000
20
121.507000
11
164.810000
21
107.707000
0
LINE
8
Layer 1
10
164.810000
20
107.707000
11
151.010000
21
107.707000
0
LINE
8
Layer 1
10
151.010000
20
107.707000
11
151.010000
21
121.507000
0
LINE
8
Layer 1
10
167.194000
20
95.230500
11
164.845000
21
81.631800
0
LINE
8
Layer 1
10
164.845000
20
81.631800
11
151.246000
21
83.980700
0
LINE
8
Layer 1
10
151.246000
20
83.980700
11
153.595000
21
97.579400
0
LINE
8
Layer 1
10
153.595000
20
97.579400
11
167.194000
21
95.230500
0
LINE
8
Layer 1
10
187.514000
20
88.736800
11
182.931000
21
75.720300
0
LINE
8
Layer 1
10
182.931000
20
75.720300
11
169.914000
21
80.304100
0
LINE
8
Layer 1
10
169.914000
20
80.304100
11
174.498000
21
93.320600
0
LINE
8
Layer 1
10
174.498000
20
93.320600
11
187.514000
21
88.736800
0
LINE
8
Layer 1
10
206.864000
20
78.590600
11
200.174000
21
66.520800
0
LINE
8
Layer 1
10
200.174000
20
66.520800
11
188.104000
21
73.211200
0
LINE
8
Layer 1
10
188.104000
20
73.211200
11
194.795000
21
85.280900
0
LINE
8
Layer 1
10
194.795000
20
85.280900
11
206.864000
21
78.590600
0
LINE
8
Layer 1
10
74.810000
20
112.707000
11
61.010000
21
112.707000
0
LINE
8
Layer 1
10
61.010000
20
112.707000
11
61.010000
21
126.507000
0
LINE
8
Layer 1
10
61.010000
20
126.507000
11
74.810000
21
126.507000
0
LINE
8
Layer 1
10
74.810000
20
126.507000
11
74.810000
21
112.707000
0
LINE
8
Layer 1
10
97.010000
20
107.507000
11
110.810000
21
107.507000
0
LINE
8
Layer 1
10
110.810000
20
107.507000
11
110.810000
21
93.707000
0
LINE
8
Layer 1
10
110.810000
20
93.707000
11
97.010000
21
93.707000
0
LINE
8
Layer 1
10
97.010000
20
93.707000
11
97.010000
21
107.507000
0
LINE
8
Layer 1
10
74.810000
20
129.707000
11
61.010000
21
129.707000
0
LINE
8
Layer 1
10
61.010000
20
129.707000
11
61.010000
21
143.507000
0
LINE
8
Layer 1
10
61.010000
20
143.507000
11
74.810000
21
143.507000
0
LINE
8
Layer 1
10
74.810000
20
143.507000
11
74.810000
21
129.707000
0
LINE
8
Layer 1
10
74.810000
20
95.707000
11
61.010000
21
95.707000
0
LINE
8
Layer 1
10
61.010000
20
95.707000
11
61.010000
21
109.507000
0
LINE
8
Layer 1
10
61.010000
20
109.507000
11
74.810000
21
109.507000
0
LINE
8
Layer 1
10
74.810000
20
109.507000
11
74.810000
21
95.707000
0
LINE
8
Layer 1
10
187.620000
20
156.202000
11
167.330000
21
156.192000
0
LINE
8
Layer 1
10
94.515400
20
147.986000
11
77.846400
21
147.981000
0
LINE
8
Layer 1
10
202.800000
20
63.407000
11
211.759000
21
79.734100
0
LINE
8
Layer 1
10
184.200000
20
72.607000
11
201.600000
21
63.007000
0
LINE
8
Layer 1
10
148.840000
20
82.316900
11
166.359000
21
79.284600
0
LINE
8
Layer 1
10
166.850000
20
156.552000
11
166.676678
21
156.839015
0
LINE
8
Layer 1
10
166.676678
20
156.839015
11
166.361000
21
156.952000
0
LINE
8
Layer 1
10
166.850000
20
156.552000
11
167.030000
21
156.292000
0
LINE
8
Layer 1
10
167.030000
20
156.292000
11
167.330000
21
156.192000
0
LINE
8
Layer 1
10
166.361000
20
156.952000
11
149.293000
21
156.938000
0
LINE
8
Layer 1
10
94.515400
20
147.986000
11
94.868953
21
148.132447
0
LINE
8
Layer 1
10
94.868953
20
148.132447
11
95.015400
21
148.486000
0
LINE
8
Layer 1
10
95.517100
20
160.000000
11
95.163547
21
159.853553
0
LINE
8
Layer 1
10
95.163547
20
159.853553
11
95.017100
21
159.500000
0
LINE
8
Layer 1
10
130.310000
20
165.971000
11
113.530000
21
165.957000
0
LINE
8
Layer 1
10
130.810000
20
159.954000
11
130.810000
21
165.471000
0
LINE
8
Layer 1
10
148.293000
20
159.438000
11
131.310000
21
159.454000
0
LINE
8
Layer 1
10
148.793000
20
157.438000
11
148.793000
21
158.938000
0
LINE
8
Layer 1
10
95.017100
20
159.500000
11
95.015400
21
148.486000
0
LINE
8
Layer 1
10
112.547000
20
160.000000
11
95.517100
21
160.000000
0
LINE
8
Layer 1
10
113.030000
20
165.457000
11
113.047000
21
160.500000
0
LINE
8
Layer 1
10
112.547000
20
160.000000
11
112.900553
21
160.146447
0
LINE
8
Layer 1
10
112.900553
20
160.146447
11
113.047000
21
160.500000
0
LINE
8
Layer 1
10
113.530000
20
165.957000
11
113.176447
21
165.810553
0
LINE
8
Layer 1
10
113.176447
20
165.810553
11
113.030000
21
165.457000
0
LINE
8
Layer 1
10
130.810000
20
165.471000
11
130.663553
21
165.824553
0
LINE
8
Layer 1
10
130.663553
20
165.824553
11
130.310000
21
165.971000
0
LINE
8
Layer 1
10
130.810000
20
159.954000
11
130.956447
21
159.600447
0
LINE
8
Layer 1
10
130.956447
20
159.600447
11
131.310000
21
159.454000
0
LINE
8
Layer 1
10
148.793000
20
158.938000
11
148.646553
21
159.291553
0
LINE
8
Layer 1
10
148.646553
20
159.291553
11
148.293000
21
159.438000
0
LINE
8
Layer 1
10
148.793000
20
157.438000
11
148.939447
21
157.084447
0
LINE
8
Layer 1
10
148.939447
20
157.084447
11
149.293000
21
156.938000
0
LINE
8
Layer 1
10
188.120000
20
155.702000
11
187.973553
21
156.055553
0
LINE
8
Layer 1
10
187.973553
20
156.055553
11
187.620000
21
156.202000
0
LINE
8
Layer 1
10
75.110000
20
144.207000
11
75.110000
21
144.407000
0
LINE
8
Layer 1
10
75.110000
20
143.807000
11
75.373604
21
143.170604
0
LINE
8
Layer 1
10
75.373604
20
143.170604
11
76.010000
21
142.907000
0
LINE
8
Layer 1
10
76.010000
20
142.907000
11
76.646396
21
143.170604
0
LINE
8
Layer 1
10
76.646396
20
143.170604
11
76.910000
21
143.807000
0
LINE
8
Layer 1
10
76.910000
20
102.607000
11
76.646396
21
103.243396
0
LINE
8
Layer 1
10
76.646396
20
103.243396
11
76.010000
21
103.507000
0
LINE
8
Layer 1
10
76.010000
20
103.507000
11
75.373604
21
103.243396
0
LINE
8
Layer 1
10
75.373604
20
103.243396
11
75.110000
21
102.607000
0
LINE
8
Layer 1
10
211.756000
20
79.735500
11
211.804547
21
80.462650
0
LINE
8
Layer 1
10
211.804547
20
80.462650
11
211.320000
21
81.007000
0
LINE
8
Layer 1
10
114.770000
20
91.607900
11
148.840000
21
82.316900
0
LINE
8
Layer 1
10
75.110000
20
109.907000
11
75.373604
21
109.270604
0
LINE
8
Layer 1
10
75.373604
20
109.270604
11
76.010000
21
109.007000
0
LINE
8
Layer 1
10
76.010000
20
109.007000
11
76.646396
21
109.270604
0
LINE
8
Layer 1
10
76.646396
20
109.270604
11
76.910000
21
109.907000
0
LINE
8
Layer 1
10
201.600000
20
63.007000
11
202.282846
21
62.958461
0
LINE
8
Layer 1
10
202.282846
20
62.958461
11
202.800000
21
63.407000
0
LINE
8
Layer 1
10
75.110000
20
144.407000
11
74.904975
21
144.901975
0
LINE
8
Layer 1
10
74.904975
20
144.901975
11
74.410000
21
145.107000
0
LINE
8
Layer 1
10
188.120000
20
155.707000
11
188.134000
21
94.612000
0
LINE
8
Layer 1
10
94.340000
20
91.907000
11
113.040000
21
91.917000
0
LINE
8
Layer 1
10
76.910000
20
109.907000
11
76.910000
21
119.507000
0
LINE
8
Layer 1
10
75.110000
20
102.607000
11
75.110000
21
94.807000
0
LINE
8
Layer 1
10
75.110000
20
109.907000
11
75.110000
21
119.507000
0
LINE
8
Layer 1
10
74.410000
20
94.107000
11
59.410000
21
94.107000
0
LINE
8
Layer 1
10
76.910000
20
147.045000
11
76.910000
21
143.807000
0
LINE
8
Layer 1
10
93.957100
20
96.507000
11
93.950000
21
92.297000
0
LINE
8
Layer 1
10
76.910000
20
102.607000
11
76.916600
21
97.807000
0
LINE
8
Layer 1
10
58.910000
20
94.607000
11
59.056447
21
94.253447
0
LINE
8
Layer 1
10
59.056447
20
94.253447
11
59.410000
21
94.107000
0
LINE
8
Layer 1
10
188.920000
20
93.407000
11
211.320000
21
81.007000
0
LINE
8
Layer 1
10
74.410000
20
145.107000
11
59.410000
21
145.107000
0
LINE
8
Layer 1
10
93.957100
20
96.507000
11
93.733302
21
96.999714
0
LINE
8
Layer 1
10
93.733302
20
96.999714
11
93.220000
21
97.171100
0
LINE
8
Layer 1
10
76.916600
20
97.807000
11
77.090403
21
97.387403
0
LINE
8
Layer 1
10
77.090403
20
97.387403
11
77.510000
21
97.213600
0
LINE
8
Layer 1
10
93.950000
20
92.297000
11
94.064228
21
92.021228
0
LINE
8
Layer 1
10
94.064228
20
92.021228
11
94.340000
21
91.907000
0
LINE
8
Layer 1
10
75.110000
20
126.807000
11
75.110000
21
136.507000
0
LINE
8
Layer 1
10
76.910000
20
119.507000
11
76.646396
21
120.143396
0
LINE
8
Layer 1
10
76.646396
20
120.143396
11
76.010000
21
120.407000
0
LINE
8
Layer 1
10
76.010000
20
120.407000
11
75.373604
21
120.143396
0
LINE
8
Layer 1
10
75.373604
20
120.143396
11
75.110000
21
119.507000
0
LINE
8
Layer 1
10
74.410000
20
94.107000
11
74.904975
21
94.312025
0
LINE
8
Layer 1
10
74.904975
20
94.312025
11
75.110000
21
94.807000
0
LINE
8
Layer 1
10
59.410000
20
145.107000
11
59.056447
21
144.960553
0
LINE
8
Layer 1
10
59.056447
20
144.960553
11
58.910000
21
144.607000
0
LINE
8
Layer 1
10
77.846400
20
147.981000
11
77.184377
21
147.706906
0
LINE
8
Layer 1
10
77.184377
20
147.706906
11
76.910000
21
147.045000
0
LINE
8
Layer 1
10
76.910000
20
136.507000
11
76.646396
21
137.143396
0
LINE
8
Layer 1
10
76.646396
20
137.143396
11
76.010000
21
137.407000
0
LINE
8
Layer 1
10
76.010000
20
137.407000
11
75.373604
21
137.143396
0
LINE
8
Layer 1
10
75.373604
20
137.143396
11
75.110000
21
136.507000
0
LINE
8
Layer 1
10
58.910000
20
144.607000
11
58.910000
21
94.607000
0
LINE
8
Layer 1
10
75.110000
20
144.207000
11
75.110000
21
143.807000
0
LINE
8
Layer 1
10
76.910000
20
126.807000
11
76.910000
21
136.507000
0
LINE
8
Layer 1
10
75.110000
20
126.807000
11
75.373604
21
126.170604
0
LINE
8
Layer 1
10
75.373604
20
126.170604
11
76.010000
21
125.907000
0
LINE
8
Layer 1
10
76.010000
20
125.907000
11
76.646396
21
126.170604
0
LINE
8
Layer 1
10
76.646396
20
126.170604
11
76.910000
21
126.807000
0
LINE
8
Layer 1
10
77.510000
20
97.213600
11
93.210000
21
97.171100
0
LINE
8
Layer 1
10
166.359000
20
79.284600
11
184.200000
21
72.607000
0
LINE
8
Layer 1
10
188.132000
20
94.611900
11
188.357168
21
93.899035
0
LINE
8
Layer 1
10
188.357168
20
93.899035
11
188.920000
21
93.407000
0
LINE
8
Layer 1
10
114.770000
20
91.607900
11
113.918858
21
91.840012
0
LINE
8
Layer 1
10
113.918858
20
91.840012
11
113.040000
21
91.917000
0
LINE
8
Layer 1
10
79.010000
20
146.507000
11
92.810000
21
146.507000
0
LINE
8
Layer 1
10
92.810000
20
146.507000
11
92.810000
21
132.707000
0
LINE
8
Layer 1
10
92.810000
20
132.707000
11
79.010000
21
132.707000
0
LINE
8
Layer 1
10
79.010000
20
132.707000
11
79.010000
21
146.507000
0
LINE
8
Layer 1
10
97.010000
20
158.507000
11
110.810000
21
158.507000
0
LINE
8
Layer 1
10
110.810000
20
158.507000
11
110.810000
21
144.707000
0
LINE
8
Layer 1
10
110.810000
20
144.707000
11
97.010000
21
144.707000
0
LINE
8
Layer 1
10
97.010000
20
144.707000
11
97.010000
21
158.507000
0
LINE
8
Layer 1
10
115.010000
20
164.507000
11
128.810000
21
164.507000
0
LINE
8
Layer 1
10
128.810000
20
164.507000
11
128.810000
21
150.707000
0
LINE
8
Layer 1
10
128.810000
20
150.707000
11
115.010000
21
150.707000
0
LINE
8
Layer 1
10
115.010000
20
150.707000
11
115.010000
21
164.507000
0
LINE
8
Layer 1
10
133.010000
20
157.887000
11
146.810000
21
157.887000
0
LINE
8
Layer 1
10
146.810000
20
157.887000
11
146.810000
21
144.087000
0
LINE
8
Layer 1
10
146.810000
20
144.087000
11
133.010000
21
144.087000
0
LINE
8
Layer 1
10
133.010000
20
144.087000
11
133.010000
21
157.887000
0
LINE
8
Layer 1
10
151.010000
20
155.507000
11
164.810000
21
155.507000
0
LINE
8
Layer 1
10
164.810000
20
155.507000
11
164.810000
21
141.707000
0
LINE
8
Layer 1
10
164.810000
20
141.707000
11
151.010000
21
141.707000
0
LINE
8
Layer 1
10
151.010000
20
141.707000
11
151.010000
21
155.507000
0
LINE
8
Layer 1
10
79.010000
20
129.507000
11
92.810000
21
129.507000
0
LINE
8
Layer 1
10
92.810000
20
129.507000
11
92.810000
21
115.707000
0
LINE
8
Layer 1
10
92.810000
20
115.707000
11
79.010000
21
115.707000
0
LINE
8
Layer 1
10
79.010000
20
115.707000
11
79.010000
21
129.507000
0
LINE
8
Layer 1
10
97.010000
20
141.507000
11
110.810000
21
141.507000
0
LINE
8
Layer 1
10
110.810000
20
141.507000
11
110.810000
21
127.707000
0
LINE
8
Layer 1
10
110.810000
20
127.707000
11
97.010000
21
127.707000
0
LINE
8
Layer 1
10
97.010000
20
127.707000
11
97.010000
21
141.507000
0
LINE
8
Layer 1
10
115.010000
20
147.507000
11
128.810000
21
147.507000
0
LINE
8
Layer 1
10
128.810000
20
147.507000
11
128.810000
21
133.707000
0
LINE
8
Layer 1
10
128.810000
20
133.707000
11
115.010000
21
133.707000
0
LINE
8
Layer 1
10
115.010000
20
133.707000
11
115.010000
21
147.507000
0
LINE
8
Layer 1
10
133.010000
20
140.887000
11
146.810000
21
140.887000
0
LINE
8
Layer 1
10
146.810000
20
140.887000
11
146.810000
21
127.087000
0
LINE
8
Layer 1
10
146.810000
20
127.087000
11
133.010000
21
127.087000
0
LINE
8
Layer 1
10
133.010000
20
127.087000
11
133.010000
21
140.887000
0
LINE
8
Layer 1
10
151.010000
20
138.507000
11
164.810000
21
138.507000
0
LINE
8
Layer 1
10
164.810000
20
138.507000
11
164.810000
21
124.707000
0
LINE
8
Layer 1
10
164.810000
20
124.707000
11
151.010000
21
124.707000
0
LINE
8
Layer 1
10
151.010000
20
124.707000
11
151.010000
21
138.507000
0
LINE
8
Layer 1
10
79.010000
20
112.507000
11
92.810000
21
112.507000
0
LINE
8
Layer 1
10
92.810000
20
112.507000
11
92.810000
21
98.707000
0
LINE
8
Layer 1
10
92.810000
20
98.707000
11
79.010000
21
98.707000
0
LINE
8
Layer 1
10
79.010000
20
98.707000
11
79.010000
21
112.507000
0
LINE
8
Layer 1
10
97.010000
20
124.507000
11
110.810000
21
124.507000
0
LINE
8
Layer 1
10
110.810000
20
124.507000
11
110.810000
21
110.707000
0
LINE
8
Layer 1
10
110.810000
20
110.707000
11
97.010000
21
110.707000
0
LINE
8
Layer 1
10
97.010000
20
110.707000
11
97.010000
21
124.507000
0
LINE
8
Layer 1
10
115.010000
20
130.507000
11
128.810000
21
130.507000
0
LINE
8
Layer 1
10
128.810000
20
130.507000
11
128.810000
21
116.707000
0
LINE
8
Layer 1
10
128.810000
20
116.707000
11
115.010000
21
116.707000
0
LINE
8
Layer 1
10
115.010000
20
116.707000
11
115.010000
21
130.507000
0
LINE
8
Layer 1
10
133.010000
20
123.882000
11
146.810000
21
123.882000
0
LINE
8
Layer 1
10
146.810000
20
123.882000
11
146.810000
21
110.082000
0
LINE
8
Layer 1
10
146.810000
20
110.082000
11
133.010000
21
110.082000
0
LINE
8
Layer 1
10
133.010000
20
110.082000
11
133.010000
21
123.882000
0
LINE
8
Layer 1
10
151.010000
20
121.507000
11
164.810000
21
121.507000
0
LINE
8
Layer 1
10
164.810000
20
121.507000
11
164.810000
21
107.707000
0
LINE
8
Layer 1
10
164.810000
20
107.707000
11
151.010000
21
107.707000
0
LINE
8
Layer 1
10
151.010000
20
107.707000
11
151.010000
21
121.507000
0
LINE
8
Layer 1
10
167.194000
20
95.230500
11
164.845000
21
81.631800
0
LINE
8
Layer 1
10
164.845000
20
81.631800
11
151.246000
21
83.980700
0
LINE
8
Layer 1
10
151.246000
20
83.980700
11
153.595000
21
97.579400
0
LINE
8
Layer 1
10
153.595000
20
97.579400
11
167.194000
21
95.230500
0
LINE
8
Layer 1
10
187.514000
20
88.736800
11
182.931000
21
75.720300
0
LINE
8
Layer 1
10
182.931000
20
75.720300
11
169.914000
21
80.304100
0
LINE
8
Layer 1
10
169.914000
20
80.304100
11
174.498000
21
93.320600
0
LINE
8
Layer 1
10
174.498000
20
93.320600
11
187.514000
21
88.736800
0
LINE
8
Layer 1
10
206.864000
20
78.590600
11
200.174000
21
66.520800
0
LINE
8
Layer 1
10
200.174000
20
66.520800
11
188.104000
21
73.211200
0
LINE
8
Layer 1
10
188.104000
20
73.211200
11
194.795000
21
85.280900
0
LINE
8
Layer 1
10
194.795000
20
85.280900
11
206.864000
21
78.590600
0
LINE
8
Layer 1
10
74.810000
20
112.707000
11
61.010000
21
112.707000
0
LINE
8
Layer 1
10
61.010000
20
112.707000
11
61.010000
21
126.507000
0
LINE
8
Layer 1
10
61.010000
20
126.507000
11
74.810000
21
126.507000
0
LINE
8
Layer 1
10
74.810000
20
126.507000
11
74.810000
21
112.707000
0
LINE
8
Layer 1
10
97.010000
20
107.507000
11
110.810000
21
107.507000
0
LINE
8
Layer 1
10
110.810000
20
107.507000
11
110.810000
21
93.707000
0
LINE
8
Layer 1
10
110.810000
20
93.707000
11
97.010000
21
93.707000
0
LINE
8
Layer 1
10
97.010000
20
93.707000
11
97.010000
21
107.507000
0
LINE
8
Layer 1
10
74.810000
20
129.707000
11
61.010000
21
129.707000
0
LINE
8
Layer 1
10
61.010000
20
129.707000
11
61.010000
21
143.507000
0
LINE
8
Layer 1
10
61.010000
20
143.507000
11
74.810000
21
143.507000
0
LINE
8
Layer 1
10
74.810000
20
143.507000
11
74.810000
21
129.707000
0
LINE
8
Layer 1
10
74.810000
20
95.707000
11
61.010000
21
95.707000
0
LINE
8
Layer 1
10
61.010000
20
95.707000
11
61.010000
21
109.507000
0
LINE
8
Layer 1
10
61.010000
20
109.507000
11
74.810000
21
109.507000
0
LINE
8
Layer 1
10
74.810000
20
109.507000
11
74.810000
21
95.707000
 0 
ENDSEC
 0 
EOF