G04 #@! TF.GenerationSoftware,KiCad,Pcbnew,8.0.4*
G04 #@! TF.CreationDate,2024-08-04T04:37:20+02:00*
G04 #@! TF.ProjectId,chocofi,63686f63-6f66-4692-9e6b-696361645f70,0.2*
G04 #@! TF.SameCoordinates,Original*
G04 #@! TF.FileFunction,Legend,Top*
G04 #@! TF.FilePolarity,Positive*
%FSLAX46Y46*%
G04 Gerber Fmt 4.6, Leading zero omitted, Abs format (unit mm)*
G04 Created by KiCad (PCBNEW 8.0.4) date 2024-08-04 04:37:20*
%MOMM*%
%LPD*%
G01*
G04 APERTURE LIST*
G04 Aperture macros list*
%AMRoundRect*
0 Rectangle with rounded corners*
0 $1 Rounding radius*
0 $2 $3 $4 $5 $6 $7 $8 $9 X,Y pos of 4 corners*
0 Add a 4 corners polygon primitive as box body*
4,1,4,$2,$3,$4,$5,$6,$7,$8,$9,$2,$3,0*
0 Add four circle primitives for the rounded corners*
1,1,$1+$1,$2,$3*
1,1,$1+$1,$4,$5*
1,1,$1+$1,$6,$7*
1,1,$1+$1,$8,$9*
0 Add four rect primitives between the rounded corners*
20,1,$1+$1,$2,$3,$4,$5,0*
20,1,$1+$1,$4,$5,$6,$7,0*
20,1,$1+$1,$6,$7,$8,$9,0*
20,1,$1+$1,$8,$9,$2,$3,0*%
%AMRotRect*
0 Rectangle, with rotation*
0 The origin of the aperture is its center*
0 $1 length*
0 $2 width*
0 $3 Rotation angle, in degrees counterclockwise*
0 Add horizontal line*
21,1,$1,$2,0,0,$3*%
%AMFreePoly0*
4,1,22,1.386777,1.480194,1.456366,1.424698,1.494986,1.344504,1.500000,1.300000,1.500000,-1.300000,1.480194,-1.386777,1.424698,-1.456366,1.344504,-1.494986,1.300000,-1.500000,-1.300000,-1.500000,-1.386777,-1.480194,-1.456366,-1.424698,-1.494986,-1.344504,-1.500000,-1.300000,-1.500000,0.130000,-1.480194,0.216777,-1.441421,0.271421,-0.271421,1.441421,-0.196056,1.488777,-0.130000,1.500000,
1.300000,1.500000,1.386777,1.480194,1.386777,1.480194,$1*%
G04 Aperture macros list end*
%ADD10C,0.150000*%
%ADD11C,0.125000*%
%ADD12C,0.160000*%
%ADD13C,0.120000*%
%ADD14C,0.200000*%
%ADD15R,1.397000X1.397000*%
%ADD16C,1.397000*%
%ADD17RotRect,1.397000X1.397000X350.200000*%
%ADD18RotRect,1.397000X1.397000X340.600000*%
%ADD19RotRect,1.397000X1.397000X331.000000*%
%ADD20C,1.200000*%
%ADD21O,2.500000X1.700000*%
%ADD22C,1.524000*%
%ADD23C,2.000000*%
%ADD24RoundRect,0.200000X-0.698500X-0.698500X0.698500X-0.698500X0.698500X0.698500X-0.698500X0.698500X0*%
%ADD25RoundRect,0.200000X-0.650000X-0.475000X0.650000X-0.475000X0.650000X0.475000X-0.650000X0.475000X0*%
%ADD26C,1.797000*%
%ADD27RoundRect,0.200000X-0.807199X-0.569416X0.569416X-0.807199X0.807199X0.569416X-0.569416X0.807199X0*%
%ADD28RoundRect,0.200000X-0.721365X-0.357433X0.559666X-0.578705X0.721365X0.357433X-0.559666X0.578705X0*%
%ADD29RoundRect,0.200000X-0.890856X-0.426826X0.426826X-0.890856X0.890856X0.426826X-0.426826X0.890856X0*%
%ADD30RoundRect,0.200000X-0.770871X-0.232126X0.455318X-0.663935X0.770871X0.232126X-0.455318X0.663935X0*%
%ADD31RoundRect,0.200000X-0.949561X-0.272282X0.272282X-0.949561X0.949561X0.272282X-0.272282X0.949561X0*%
%ADD32RoundRect,0.200000X-0.798787X-0.100318X0.338218X-0.730571X0.798787X0.100318X-0.338218X0.730571X0*%
%ADD33C,1.600000*%
%ADD34O,2.900000X2.100000*%
%ADD35C,2.101800*%
%ADD36C,1.390600*%
%ADD37C,3.400000*%
%ADD38C,3.829000*%
%ADD39FreePoly0,0.000000*%
%ADD40RoundRect,0.200000X-1.300000X-1.300000X1.300000X-1.300000X1.300000X1.300000X-1.300000X1.300000X0*%
%ADD41RoundRect,0.200000X-0.950000X-1.300000X0.950000X-1.300000X0.950000X1.300000X-0.950000X1.300000X0*%
%ADD42FreePoly0,170.200000*%
%ADD43RoundRect,0.200000X1.502303X1.059758X-1.059758X1.502303X-1.502303X-1.059758X1.059758X-1.502303X0*%
%ADD44FreePoly0,160.600000*%
%ADD45RoundRect,0.200000X1.657999X0.794380X-0.794380X1.657999X-1.657999X-0.794380X0.794380X-1.657999X0*%
%ADD46FreePoly0,151.000000*%
%ADD47RoundRect,0.200000X1.767258X0.506753X-0.506753X1.767258X-1.767258X-0.506753X0.506753X-1.767258X0*%
%ADD48C,1.924000*%
%ADD49RoundRect,0.200000X-0.571500X0.317500X-0.571500X-0.317500X0.571500X-0.317500X0.571500X0.317500X0*%
%ADD50C,2.400000*%
%ADD51C,4.400000*%
%ADD52C,3.629000*%
%ADD53RoundRect,0.200000X0.571500X-0.317500X0.571500X0.317500X-0.571500X0.317500X-0.571500X-0.317500X0*%
%ADD54RoundRect,0.333333X0.466667X0.566667X-0.466667X0.566667X-0.466667X-0.566667X0.466667X-0.566667X0*%
%ADD55C,1.300000*%
%ADD56RoundRect,0.200000X0.450000X0.650000X-0.450000X0.650000X-0.450000X-0.650000X0.450000X-0.650000X0*%
%ADD57RoundRect,0.200000X0.500000X0.500000X-0.500000X0.500000X-0.500000X-0.500000X0.500000X-0.500000X0*%
%ADD58RoundRect,0.200000X-1.224745X-0.707107X0.707107X-1.224745X1.224745X0.707107X-0.707107X1.224745X0*%
%ADD59RoundRect,0.200000X-1.772413X-0.819179X1.125365X-1.595636X1.772413X0.819179X-1.125365X1.595636X0*%
%ADD60RoundRect,0.200000X-0.850000X0.850000X-0.850000X-0.850000X0.850000X-0.850000X0.850000X0.850000X0*%
%ADD61O,2.100000X2.100000*%
%ADD62RoundRect,0.333333X-0.466667X-0.566667X0.466667X-0.566667X0.466667X0.566667X-0.466667X0.566667X0*%
%ADD63RoundRect,0.200000X-0.450000X-0.650000X0.450000X-0.650000X0.450000X0.650000X-0.450000X0.650000X0*%
%ADD64RoundRect,0.200000X-0.500000X-0.500000X0.500000X-0.500000X0.500000X0.500000X-0.500000X0.500000X0*%
G04 APERTURE END LIST*
D10*
X180964819Y-104461904D02*
X180964819Y-103890476D01*
X181964819Y-104176190D02*
X180964819Y-104176190D01*
X181964819Y-102985714D02*
X181488628Y-103319047D01*
X181964819Y-103557142D02*
X180964819Y-103557142D01*
X180964819Y-103557142D02*
X180964819Y-103176190D01*
X180964819Y-103176190D02*
X181012438Y-103080952D01*
X181012438Y-103080952D02*
X181060057Y-103033333D01*
X181060057Y-103033333D02*
X181155295Y-102985714D01*
X181155295Y-102985714D02*
X181298152Y-102985714D01*
X181298152Y-102985714D02*
X181393390Y-103033333D01*
X181393390Y-103033333D02*
X181441009Y-103080952D01*
X181441009Y-103080952D02*
X181488628Y-103176190D01*
X181488628Y-103176190D02*
X181488628Y-103557142D01*
X181964819Y-101985714D02*
X181488628Y-102319047D01*
X181964819Y-102557142D02*
X180964819Y-102557142D01*
X180964819Y-102557142D02*
X180964819Y-102176190D01*
X180964819Y-102176190D02*
X181012438Y-102080952D01*
X181012438Y-102080952D02*
X181060057Y-102033333D01*
X181060057Y-102033333D02*
X181155295Y-101985714D01*
X181155295Y-101985714D02*
X181298152Y-101985714D01*
X181298152Y-101985714D02*
X181393390Y-102033333D01*
X181393390Y-102033333D02*
X181441009Y-102080952D01*
X181441009Y-102080952D02*
X181488628Y-102176190D01*
X181488628Y-102176190D02*
X181488628Y-102557142D01*
X181917200Y-101604761D02*
X181964819Y-101461904D01*
X181964819Y-101461904D02*
X181964819Y-101223809D01*
X181964819Y-101223809D02*
X181917200Y-101128571D01*
X181917200Y-101128571D02*
X181869580Y-101080952D01*
X181869580Y-101080952D02*
X181774342Y-101033333D01*
X181774342Y-101033333D02*
X181679104Y-101033333D01*
X181679104Y-101033333D02*
X181583866Y-101080952D01*
X181583866Y-101080952D02*
X181536247Y-101128571D01*
X181536247Y-101128571D02*
X181488628Y-101223809D01*
X181488628Y-101223809D02*
X181441009Y-101414285D01*
X181441009Y-101414285D02*
X181393390Y-101509523D01*
X181393390Y-101509523D02*
X181345771Y-101557142D01*
X181345771Y-101557142D02*
X181250533Y-101604761D01*
X181250533Y-101604761D02*
X181155295Y-101604761D01*
X181155295Y-101604761D02*
X181060057Y-101557142D01*
X181060057Y-101557142D02*
X181012438Y-101509523D01*
X181012438Y-101509523D02*
X180964819Y-101414285D01*
X180964819Y-101414285D02*
X180964819Y-101176190D01*
X180964819Y-101176190D02*
X181012438Y-101033333D01*
D11*
X168520690Y-63084364D02*
X168354024Y-62727221D01*
X168234976Y-63084364D02*
X168234976Y-62334364D01*
X168234976Y-62334364D02*
X168425452Y-62334364D01*
X168425452Y-62334364D02*
X168473071Y-62370078D01*
X168473071Y-62370078D02*
X168496881Y-62405792D01*
X168496881Y-62405792D02*
X168520690Y-62477221D01*
X168520690Y-62477221D02*
X168520690Y-62584364D01*
X168520690Y-62584364D02*
X168496881Y-62655792D01*
X168496881Y-62655792D02*
X168473071Y-62691507D01*
X168473071Y-62691507D02*
X168425452Y-62727221D01*
X168425452Y-62727221D02*
X168234976Y-62727221D01*
X168711167Y-63048650D02*
X168782595Y-63084364D01*
X168782595Y-63084364D02*
X168901643Y-63084364D01*
X168901643Y-63084364D02*
X168949262Y-63048650D01*
X168949262Y-63048650D02*
X168973071Y-63012935D01*
X168973071Y-63012935D02*
X168996881Y-62941507D01*
X168996881Y-62941507D02*
X168996881Y-62870078D01*
X168996881Y-62870078D02*
X168973071Y-62798650D01*
X168973071Y-62798650D02*
X168949262Y-62762935D01*
X168949262Y-62762935D02*
X168901643Y-62727221D01*
X168901643Y-62727221D02*
X168806405Y-62691507D01*
X168806405Y-62691507D02*
X168758786Y-62655792D01*
X168758786Y-62655792D02*
X168734976Y-62620078D01*
X168734976Y-62620078D02*
X168711167Y-62548650D01*
X168711167Y-62548650D02*
X168711167Y-62477221D01*
X168711167Y-62477221D02*
X168734976Y-62405792D01*
X168734976Y-62405792D02*
X168758786Y-62370078D01*
X168758786Y-62370078D02*
X168806405Y-62334364D01*
X168806405Y-62334364D02*
X168925452Y-62334364D01*
X168925452Y-62334364D02*
X168996881Y-62370078D01*
X169139738Y-62334364D02*
X169425452Y-62334364D01*
X169282595Y-63084364D02*
X169282595Y-62334364D01*
X183129047Y-75720864D02*
X182962381Y-75363721D01*
X182843333Y-75720864D02*
X182843333Y-74970864D01*
X182843333Y-74970864D02*
X183033809Y-74970864D01*
X183033809Y-74970864D02*
X183081428Y-75006578D01*
X183081428Y-75006578D02*
X183105238Y-75042292D01*
X183105238Y-75042292D02*
X183129047Y-75113721D01*
X183129047Y-75113721D02*
X183129047Y-75220864D01*
X183129047Y-75220864D02*
X183105238Y-75292292D01*
X183105238Y-75292292D02*
X183081428Y-75328007D01*
X183081428Y-75328007D02*
X183033809Y-75363721D01*
X183033809Y-75363721D02*
X182843333Y-75363721D01*
X183438571Y-74970864D02*
X183533809Y-74970864D01*
X183533809Y-74970864D02*
X183581428Y-75006578D01*
X183581428Y-75006578D02*
X183629047Y-75078007D01*
X183629047Y-75078007D02*
X183652857Y-75220864D01*
X183652857Y-75220864D02*
X183652857Y-75470864D01*
X183652857Y-75470864D02*
X183629047Y-75613721D01*
X183629047Y-75613721D02*
X183581428Y-75685150D01*
X183581428Y-75685150D02*
X183533809Y-75720864D01*
X183533809Y-75720864D02*
X183438571Y-75720864D01*
X183438571Y-75720864D02*
X183390952Y-75685150D01*
X183390952Y-75685150D02*
X183343333Y-75613721D01*
X183343333Y-75613721D02*
X183319524Y-75470864D01*
X183319524Y-75470864D02*
X183319524Y-75220864D01*
X183319524Y-75220864D02*
X183343333Y-75078007D01*
X183343333Y-75078007D02*
X183390952Y-75006578D01*
X183390952Y-75006578D02*
X183438571Y-74970864D01*
X183819524Y-74970864D02*
X183938572Y-75720864D01*
X183938572Y-75720864D02*
X184033810Y-75185150D01*
X184033810Y-75185150D02*
X184129048Y-75720864D01*
X184129048Y-75720864D02*
X184248096Y-74970864D01*
X184700477Y-75720864D02*
X184414763Y-75720864D01*
X184557620Y-75720864D02*
X184557620Y-74970864D01*
X184557620Y-74970864D02*
X184510001Y-75078007D01*
X184510001Y-75078007D02*
X184462382Y-75149435D01*
X184462382Y-75149435D02*
X184414763Y-75185150D01*
X168012380Y-80792935D02*
X167988571Y-80828650D01*
X167988571Y-80828650D02*
X167917142Y-80864364D01*
X167917142Y-80864364D02*
X167869523Y-80864364D01*
X167869523Y-80864364D02*
X167798095Y-80828650D01*
X167798095Y-80828650D02*
X167750476Y-80757221D01*
X167750476Y-80757221D02*
X167726666Y-80685792D01*
X167726666Y-80685792D02*
X167702857Y-80542935D01*
X167702857Y-80542935D02*
X167702857Y-80435792D01*
X167702857Y-80435792D02*
X167726666Y-80292935D01*
X167726666Y-80292935D02*
X167750476Y-80221507D01*
X167750476Y-80221507D02*
X167798095Y-80150078D01*
X167798095Y-80150078D02*
X167869523Y-80114364D01*
X167869523Y-80114364D02*
X167917142Y-80114364D01*
X167917142Y-80114364D02*
X167988571Y-80150078D01*
X167988571Y-80150078D02*
X168012380Y-80185792D01*
X168321904Y-80114364D02*
X168417142Y-80114364D01*
X168417142Y-80114364D02*
X168464761Y-80150078D01*
X168464761Y-80150078D02*
X168512380Y-80221507D01*
X168512380Y-80221507D02*
X168536190Y-80364364D01*
X168536190Y-80364364D02*
X168536190Y-80614364D01*
X168536190Y-80614364D02*
X168512380Y-80757221D01*
X168512380Y-80757221D02*
X168464761Y-80828650D01*
X168464761Y-80828650D02*
X168417142Y-80864364D01*
X168417142Y-80864364D02*
X168321904Y-80864364D01*
X168321904Y-80864364D02*
X168274285Y-80828650D01*
X168274285Y-80828650D02*
X168226666Y-80757221D01*
X168226666Y-80757221D02*
X168202857Y-80614364D01*
X168202857Y-80614364D02*
X168202857Y-80364364D01*
X168202857Y-80364364D02*
X168226666Y-80221507D01*
X168226666Y-80221507D02*
X168274285Y-80150078D01*
X168274285Y-80150078D02*
X168321904Y-80114364D01*
X168988571Y-80864364D02*
X168750476Y-80864364D01*
X168750476Y-80864364D02*
X168750476Y-80114364D01*
X169393333Y-80114364D02*
X169155238Y-80114364D01*
X169155238Y-80114364D02*
X169131429Y-80471507D01*
X169131429Y-80471507D02*
X169155238Y-80435792D01*
X169155238Y-80435792D02*
X169202857Y-80400078D01*
X169202857Y-80400078D02*
X169321905Y-80400078D01*
X169321905Y-80400078D02*
X169369524Y-80435792D01*
X169369524Y-80435792D02*
X169393333Y-80471507D01*
X169393333Y-80471507D02*
X169417143Y-80542935D01*
X169417143Y-80542935D02*
X169417143Y-80721507D01*
X169417143Y-80721507D02*
X169393333Y-80792935D01*
X169393333Y-80792935D02*
X169369524Y-80828650D01*
X169369524Y-80828650D02*
X169321905Y-80864364D01*
X169321905Y-80864364D02*
X169202857Y-80864364D01*
X169202857Y-80864364D02*
X169155238Y-80828650D01*
X169155238Y-80828650D02*
X169131429Y-80792935D01*
X183079047Y-80864364D02*
X182912381Y-80507221D01*
X182793333Y-80864364D02*
X182793333Y-80114364D01*
X182793333Y-80114364D02*
X182983809Y-80114364D01*
X182983809Y-80114364D02*
X183031428Y-80150078D01*
X183031428Y-80150078D02*
X183055238Y-80185792D01*
X183055238Y-80185792D02*
X183079047Y-80257221D01*
X183079047Y-80257221D02*
X183079047Y-80364364D01*
X183079047Y-80364364D02*
X183055238Y-80435792D01*
X183055238Y-80435792D02*
X183031428Y-80471507D01*
X183031428Y-80471507D02*
X182983809Y-80507221D01*
X182983809Y-80507221D02*
X182793333Y-80507221D01*
X183388571Y-80114364D02*
X183483809Y-80114364D01*
X183483809Y-80114364D02*
X183531428Y-80150078D01*
X183531428Y-80150078D02*
X183579047Y-80221507D01*
X183579047Y-80221507D02*
X183602857Y-80364364D01*
X183602857Y-80364364D02*
X183602857Y-80614364D01*
X183602857Y-80614364D02*
X183579047Y-80757221D01*
X183579047Y-80757221D02*
X183531428Y-80828650D01*
X183531428Y-80828650D02*
X183483809Y-80864364D01*
X183483809Y-80864364D02*
X183388571Y-80864364D01*
X183388571Y-80864364D02*
X183340952Y-80828650D01*
X183340952Y-80828650D02*
X183293333Y-80757221D01*
X183293333Y-80757221D02*
X183269524Y-80614364D01*
X183269524Y-80614364D02*
X183269524Y-80364364D01*
X183269524Y-80364364D02*
X183293333Y-80221507D01*
X183293333Y-80221507D02*
X183340952Y-80150078D01*
X183340952Y-80150078D02*
X183388571Y-80114364D01*
X183769524Y-80114364D02*
X183888572Y-80864364D01*
X183888572Y-80864364D02*
X183983810Y-80328650D01*
X183983810Y-80328650D02*
X184079048Y-80864364D01*
X184079048Y-80864364D02*
X184198096Y-80114364D01*
X184340953Y-80114364D02*
X184650477Y-80114364D01*
X184650477Y-80114364D02*
X184483810Y-80400078D01*
X184483810Y-80400078D02*
X184555239Y-80400078D01*
X184555239Y-80400078D02*
X184602858Y-80435792D01*
X184602858Y-80435792D02*
X184626667Y-80471507D01*
X184626667Y-80471507D02*
X184650477Y-80542935D01*
X184650477Y-80542935D02*
X184650477Y-80721507D01*
X184650477Y-80721507D02*
X184626667Y-80792935D01*
X184626667Y-80792935D02*
X184602858Y-80828650D01*
X184602858Y-80828650D02*
X184555239Y-80864364D01*
X184555239Y-80864364D02*
X184412382Y-80864364D01*
X184412382Y-80864364D02*
X184364763Y-80828650D01*
X184364763Y-80828650D02*
X184340953Y-80792935D01*
X168012380Y-78197435D02*
X167988571Y-78233150D01*
X167988571Y-78233150D02*
X167917142Y-78268864D01*
X167917142Y-78268864D02*
X167869523Y-78268864D01*
X167869523Y-78268864D02*
X167798095Y-78233150D01*
X167798095Y-78233150D02*
X167750476Y-78161721D01*
X167750476Y-78161721D02*
X167726666Y-78090292D01*
X167726666Y-78090292D02*
X167702857Y-77947435D01*
X167702857Y-77947435D02*
X167702857Y-77840292D01*
X167702857Y-77840292D02*
X167726666Y-77697435D01*
X167726666Y-77697435D02*
X167750476Y-77626007D01*
X167750476Y-77626007D02*
X167798095Y-77554578D01*
X167798095Y-77554578D02*
X167869523Y-77518864D01*
X167869523Y-77518864D02*
X167917142Y-77518864D01*
X167917142Y-77518864D02*
X167988571Y-77554578D01*
X167988571Y-77554578D02*
X168012380Y-77590292D01*
X168321904Y-77518864D02*
X168417142Y-77518864D01*
X168417142Y-77518864D02*
X168464761Y-77554578D01*
X168464761Y-77554578D02*
X168512380Y-77626007D01*
X168512380Y-77626007D02*
X168536190Y-77768864D01*
X168536190Y-77768864D02*
X168536190Y-78018864D01*
X168536190Y-78018864D02*
X168512380Y-78161721D01*
X168512380Y-78161721D02*
X168464761Y-78233150D01*
X168464761Y-78233150D02*
X168417142Y-78268864D01*
X168417142Y-78268864D02*
X168321904Y-78268864D01*
X168321904Y-78268864D02*
X168274285Y-78233150D01*
X168274285Y-78233150D02*
X168226666Y-78161721D01*
X168226666Y-78161721D02*
X168202857Y-78018864D01*
X168202857Y-78018864D02*
X168202857Y-77768864D01*
X168202857Y-77768864D02*
X168226666Y-77626007D01*
X168226666Y-77626007D02*
X168274285Y-77554578D01*
X168274285Y-77554578D02*
X168321904Y-77518864D01*
X168988571Y-78268864D02*
X168750476Y-78268864D01*
X168750476Y-78268864D02*
X168750476Y-77518864D01*
X169369524Y-77768864D02*
X169369524Y-78268864D01*
X169250476Y-77483150D02*
X169131429Y-78018864D01*
X169131429Y-78018864D02*
X169440952Y-78018864D01*
X183590047Y-64910078D02*
X183542428Y-64874364D01*
X183542428Y-64874364D02*
X183470999Y-64874364D01*
X183470999Y-64874364D02*
X183399571Y-64910078D01*
X183399571Y-64910078D02*
X183351952Y-64981507D01*
X183351952Y-64981507D02*
X183328142Y-65052935D01*
X183328142Y-65052935D02*
X183304333Y-65195792D01*
X183304333Y-65195792D02*
X183304333Y-65302935D01*
X183304333Y-65302935D02*
X183328142Y-65445792D01*
X183328142Y-65445792D02*
X183351952Y-65517221D01*
X183351952Y-65517221D02*
X183399571Y-65588650D01*
X183399571Y-65588650D02*
X183470999Y-65624364D01*
X183470999Y-65624364D02*
X183518618Y-65624364D01*
X183518618Y-65624364D02*
X183590047Y-65588650D01*
X183590047Y-65588650D02*
X183613856Y-65552935D01*
X183613856Y-65552935D02*
X183613856Y-65302935D01*
X183613856Y-65302935D02*
X183518618Y-65302935D01*
X183828142Y-65624364D02*
X183828142Y-64874364D01*
X183828142Y-64874364D02*
X184113856Y-65624364D01*
X184113856Y-65624364D02*
X184113856Y-64874364D01*
X184351952Y-65624364D02*
X184351952Y-64874364D01*
X184351952Y-64874364D02*
X184471000Y-64874364D01*
X184471000Y-64874364D02*
X184542428Y-64910078D01*
X184542428Y-64910078D02*
X184590047Y-64981507D01*
X184590047Y-64981507D02*
X184613857Y-65052935D01*
X184613857Y-65052935D02*
X184637666Y-65195792D01*
X184637666Y-65195792D02*
X184637666Y-65302935D01*
X184637666Y-65302935D02*
X184613857Y-65445792D01*
X184613857Y-65445792D02*
X184590047Y-65517221D01*
X184590047Y-65517221D02*
X184542428Y-65588650D01*
X184542428Y-65588650D02*
X184471000Y-65624364D01*
X184471000Y-65624364D02*
X184351952Y-65624364D01*
X183110000Y-60468864D02*
X183110000Y-59718864D01*
X183110000Y-59718864D02*
X183229048Y-59718864D01*
X183229048Y-59718864D02*
X183300476Y-59754578D01*
X183300476Y-59754578D02*
X183348095Y-59826007D01*
X183348095Y-59826007D02*
X183371905Y-59897435D01*
X183371905Y-59897435D02*
X183395714Y-60040292D01*
X183395714Y-60040292D02*
X183395714Y-60147435D01*
X183395714Y-60147435D02*
X183371905Y-60290292D01*
X183371905Y-60290292D02*
X183348095Y-60361721D01*
X183348095Y-60361721D02*
X183300476Y-60433150D01*
X183300476Y-60433150D02*
X183229048Y-60468864D01*
X183229048Y-60468864D02*
X183110000Y-60468864D01*
X183586191Y-60254578D02*
X183824286Y-60254578D01*
X183538572Y-60468864D02*
X183705238Y-59718864D01*
X183705238Y-59718864D02*
X183871905Y-60468864D01*
X183967143Y-59718864D02*
X184252857Y-59718864D01*
X184110000Y-60468864D02*
X184110000Y-59718864D01*
X184395714Y-60254578D02*
X184633809Y-60254578D01*
X184348095Y-60468864D02*
X184514761Y-59718864D01*
X184514761Y-59718864D02*
X184681428Y-60468864D01*
X168062380Y-73109435D02*
X168038571Y-73145150D01*
X168038571Y-73145150D02*
X167967142Y-73180864D01*
X167967142Y-73180864D02*
X167919523Y-73180864D01*
X167919523Y-73180864D02*
X167848095Y-73145150D01*
X167848095Y-73145150D02*
X167800476Y-73073721D01*
X167800476Y-73073721D02*
X167776666Y-73002292D01*
X167776666Y-73002292D02*
X167752857Y-72859435D01*
X167752857Y-72859435D02*
X167752857Y-72752292D01*
X167752857Y-72752292D02*
X167776666Y-72609435D01*
X167776666Y-72609435D02*
X167800476Y-72538007D01*
X167800476Y-72538007D02*
X167848095Y-72466578D01*
X167848095Y-72466578D02*
X167919523Y-72430864D01*
X167919523Y-72430864D02*
X167967142Y-72430864D01*
X167967142Y-72430864D02*
X168038571Y-72466578D01*
X168038571Y-72466578D02*
X168062380Y-72502292D01*
X168371904Y-72430864D02*
X168467142Y-72430864D01*
X168467142Y-72430864D02*
X168514761Y-72466578D01*
X168514761Y-72466578D02*
X168562380Y-72538007D01*
X168562380Y-72538007D02*
X168586190Y-72680864D01*
X168586190Y-72680864D02*
X168586190Y-72930864D01*
X168586190Y-72930864D02*
X168562380Y-73073721D01*
X168562380Y-73073721D02*
X168514761Y-73145150D01*
X168514761Y-73145150D02*
X168467142Y-73180864D01*
X168467142Y-73180864D02*
X168371904Y-73180864D01*
X168371904Y-73180864D02*
X168324285Y-73145150D01*
X168324285Y-73145150D02*
X168276666Y-73073721D01*
X168276666Y-73073721D02*
X168252857Y-72930864D01*
X168252857Y-72930864D02*
X168252857Y-72680864D01*
X168252857Y-72680864D02*
X168276666Y-72538007D01*
X168276666Y-72538007D02*
X168324285Y-72466578D01*
X168324285Y-72466578D02*
X168371904Y-72430864D01*
X169038571Y-73180864D02*
X168800476Y-73180864D01*
X168800476Y-73180864D02*
X168800476Y-72430864D01*
X169181429Y-72502292D02*
X169205238Y-72466578D01*
X169205238Y-72466578D02*
X169252857Y-72430864D01*
X169252857Y-72430864D02*
X169371905Y-72430864D01*
X169371905Y-72430864D02*
X169419524Y-72466578D01*
X169419524Y-72466578D02*
X169443333Y-72502292D01*
X169443333Y-72502292D02*
X169467143Y-72573721D01*
X169467143Y-72573721D02*
X169467143Y-72645150D01*
X169467143Y-72645150D02*
X169443333Y-72752292D01*
X169443333Y-72752292D02*
X169157619Y-73180864D01*
X169157619Y-73180864D02*
X169467143Y-73180864D01*
X168127834Y-64810864D02*
X168294500Y-65560864D01*
X168294500Y-65560864D02*
X168461167Y-64810864D01*
X168913547Y-65489435D02*
X168889738Y-65525150D01*
X168889738Y-65525150D02*
X168818309Y-65560864D01*
X168818309Y-65560864D02*
X168770690Y-65560864D01*
X168770690Y-65560864D02*
X168699262Y-65525150D01*
X168699262Y-65525150D02*
X168651643Y-65453721D01*
X168651643Y-65453721D02*
X168627833Y-65382292D01*
X168627833Y-65382292D02*
X168604024Y-65239435D01*
X168604024Y-65239435D02*
X168604024Y-65132292D01*
X168604024Y-65132292D02*
X168627833Y-64989435D01*
X168627833Y-64989435D02*
X168651643Y-64918007D01*
X168651643Y-64918007D02*
X168699262Y-64846578D01*
X168699262Y-64846578D02*
X168770690Y-64810864D01*
X168770690Y-64810864D02*
X168818309Y-64810864D01*
X168818309Y-64810864D02*
X168889738Y-64846578D01*
X168889738Y-64846578D02*
X168913547Y-64882292D01*
X169413547Y-65489435D02*
X169389738Y-65525150D01*
X169389738Y-65525150D02*
X169318309Y-65560864D01*
X169318309Y-65560864D02*
X169270690Y-65560864D01*
X169270690Y-65560864D02*
X169199262Y-65525150D01*
X169199262Y-65525150D02*
X169151643Y-65453721D01*
X169151643Y-65453721D02*
X169127833Y-65382292D01*
X169127833Y-65382292D02*
X169104024Y-65239435D01*
X169104024Y-65239435D02*
X169104024Y-65132292D01*
X169104024Y-65132292D02*
X169127833Y-64989435D01*
X169127833Y-64989435D02*
X169151643Y-64918007D01*
X169151643Y-64918007D02*
X169199262Y-64846578D01*
X169199262Y-64846578D02*
X169270690Y-64810864D01*
X169270690Y-64810864D02*
X169318309Y-64810864D01*
X169318309Y-64810864D02*
X169389738Y-64846578D01*
X169389738Y-64846578D02*
X169413547Y-64882292D01*
X168449261Y-57940864D02*
X168282595Y-57583721D01*
X168163547Y-57940864D02*
X168163547Y-57190864D01*
X168163547Y-57190864D02*
X168354023Y-57190864D01*
X168354023Y-57190864D02*
X168401642Y-57226578D01*
X168401642Y-57226578D02*
X168425452Y-57262292D01*
X168425452Y-57262292D02*
X168449261Y-57333721D01*
X168449261Y-57333721D02*
X168449261Y-57440864D01*
X168449261Y-57440864D02*
X168425452Y-57512292D01*
X168425452Y-57512292D02*
X168401642Y-57548007D01*
X168401642Y-57548007D02*
X168354023Y-57583721D01*
X168354023Y-57583721D02*
X168163547Y-57583721D01*
X168639738Y-57726578D02*
X168877833Y-57726578D01*
X168592119Y-57940864D02*
X168758785Y-57190864D01*
X168758785Y-57190864D02*
X168925452Y-57940864D01*
X169044499Y-57190864D02*
X169163547Y-57940864D01*
X169163547Y-57940864D02*
X169258785Y-57405150D01*
X169258785Y-57405150D02*
X169354023Y-57940864D01*
X169354023Y-57940864D02*
X169473071Y-57190864D01*
X183375762Y-70605150D02*
X183447190Y-70640864D01*
X183447190Y-70640864D02*
X183566238Y-70640864D01*
X183566238Y-70640864D02*
X183613857Y-70605150D01*
X183613857Y-70605150D02*
X183637666Y-70569435D01*
X183637666Y-70569435D02*
X183661476Y-70498007D01*
X183661476Y-70498007D02*
X183661476Y-70426578D01*
X183661476Y-70426578D02*
X183637666Y-70355150D01*
X183637666Y-70355150D02*
X183613857Y-70319435D01*
X183613857Y-70319435D02*
X183566238Y-70283721D01*
X183566238Y-70283721D02*
X183471000Y-70248007D01*
X183471000Y-70248007D02*
X183423381Y-70212292D01*
X183423381Y-70212292D02*
X183399571Y-70176578D01*
X183399571Y-70176578D02*
X183375762Y-70105150D01*
X183375762Y-70105150D02*
X183375762Y-70033721D01*
X183375762Y-70033721D02*
X183399571Y-69962292D01*
X183399571Y-69962292D02*
X183423381Y-69926578D01*
X183423381Y-69926578D02*
X183471000Y-69890864D01*
X183471000Y-69890864D02*
X183590047Y-69890864D01*
X183590047Y-69890864D02*
X183661476Y-69926578D01*
X184161475Y-70569435D02*
X184137666Y-70605150D01*
X184137666Y-70605150D02*
X184066237Y-70640864D01*
X184066237Y-70640864D02*
X184018618Y-70640864D01*
X184018618Y-70640864D02*
X183947190Y-70605150D01*
X183947190Y-70605150D02*
X183899571Y-70533721D01*
X183899571Y-70533721D02*
X183875761Y-70462292D01*
X183875761Y-70462292D02*
X183851952Y-70319435D01*
X183851952Y-70319435D02*
X183851952Y-70212292D01*
X183851952Y-70212292D02*
X183875761Y-70069435D01*
X183875761Y-70069435D02*
X183899571Y-69998007D01*
X183899571Y-69998007D02*
X183947190Y-69926578D01*
X183947190Y-69926578D02*
X184018618Y-69890864D01*
X184018618Y-69890864D02*
X184066237Y-69890864D01*
X184066237Y-69890864D02*
X184137666Y-69926578D01*
X184137666Y-69926578D02*
X184161475Y-69962292D01*
X184613856Y-70640864D02*
X184375761Y-70640864D01*
X184375761Y-70640864D02*
X184375761Y-69890864D01*
X183590047Y-64910078D02*
X183542428Y-64874364D01*
X183542428Y-64874364D02*
X183470999Y-64874364D01*
X183470999Y-64874364D02*
X183399571Y-64910078D01*
X183399571Y-64910078D02*
X183351952Y-64981507D01*
X183351952Y-64981507D02*
X183328142Y-65052935D01*
X183328142Y-65052935D02*
X183304333Y-65195792D01*
X183304333Y-65195792D02*
X183304333Y-65302935D01*
X183304333Y-65302935D02*
X183328142Y-65445792D01*
X183328142Y-65445792D02*
X183351952Y-65517221D01*
X183351952Y-65517221D02*
X183399571Y-65588650D01*
X183399571Y-65588650D02*
X183470999Y-65624364D01*
X183470999Y-65624364D02*
X183518618Y-65624364D01*
X183518618Y-65624364D02*
X183590047Y-65588650D01*
X183590047Y-65588650D02*
X183613856Y-65552935D01*
X183613856Y-65552935D02*
X183613856Y-65302935D01*
X183613856Y-65302935D02*
X183518618Y-65302935D01*
X183828142Y-65624364D02*
X183828142Y-64874364D01*
X183828142Y-64874364D02*
X184113856Y-65624364D01*
X184113856Y-65624364D02*
X184113856Y-64874364D01*
X184351952Y-65624364D02*
X184351952Y-64874364D01*
X184351952Y-64874364D02*
X184471000Y-64874364D01*
X184471000Y-64874364D02*
X184542428Y-64910078D01*
X184542428Y-64910078D02*
X184590047Y-64981507D01*
X184590047Y-64981507D02*
X184613857Y-65052935D01*
X184613857Y-65052935D02*
X184637666Y-65195792D01*
X184637666Y-65195792D02*
X184637666Y-65302935D01*
X184637666Y-65302935D02*
X184613857Y-65445792D01*
X184613857Y-65445792D02*
X184590047Y-65517221D01*
X184590047Y-65517221D02*
X184542428Y-65588650D01*
X184542428Y-65588650D02*
X184471000Y-65624364D01*
X184471000Y-65624364D02*
X184351952Y-65624364D01*
X183363858Y-68065150D02*
X183435286Y-68100864D01*
X183435286Y-68100864D02*
X183554334Y-68100864D01*
X183554334Y-68100864D02*
X183601953Y-68065150D01*
X183601953Y-68065150D02*
X183625762Y-68029435D01*
X183625762Y-68029435D02*
X183649572Y-67958007D01*
X183649572Y-67958007D02*
X183649572Y-67886578D01*
X183649572Y-67886578D02*
X183625762Y-67815150D01*
X183625762Y-67815150D02*
X183601953Y-67779435D01*
X183601953Y-67779435D02*
X183554334Y-67743721D01*
X183554334Y-67743721D02*
X183459096Y-67708007D01*
X183459096Y-67708007D02*
X183411477Y-67672292D01*
X183411477Y-67672292D02*
X183387667Y-67636578D01*
X183387667Y-67636578D02*
X183363858Y-67565150D01*
X183363858Y-67565150D02*
X183363858Y-67493721D01*
X183363858Y-67493721D02*
X183387667Y-67422292D01*
X183387667Y-67422292D02*
X183411477Y-67386578D01*
X183411477Y-67386578D02*
X183459096Y-67350864D01*
X183459096Y-67350864D02*
X183578143Y-67350864D01*
X183578143Y-67350864D02*
X183649572Y-67386578D01*
X183863857Y-68100864D02*
X183863857Y-67350864D01*
X183863857Y-67350864D02*
X183982905Y-67350864D01*
X183982905Y-67350864D02*
X184054333Y-67386578D01*
X184054333Y-67386578D02*
X184101952Y-67458007D01*
X184101952Y-67458007D02*
X184125762Y-67529435D01*
X184125762Y-67529435D02*
X184149571Y-67672292D01*
X184149571Y-67672292D02*
X184149571Y-67779435D01*
X184149571Y-67779435D02*
X184125762Y-67922292D01*
X184125762Y-67922292D02*
X184101952Y-67993721D01*
X184101952Y-67993721D02*
X184054333Y-68065150D01*
X184054333Y-68065150D02*
X183982905Y-68100864D01*
X183982905Y-68100864D02*
X183863857Y-68100864D01*
X184340048Y-67886578D02*
X184578143Y-67886578D01*
X184292429Y-68100864D02*
X184459095Y-67350864D01*
X184459095Y-67350864D02*
X184625762Y-68100864D01*
X168062380Y-68047435D02*
X168038571Y-68083150D01*
X168038571Y-68083150D02*
X167967142Y-68118864D01*
X167967142Y-68118864D02*
X167919523Y-68118864D01*
X167919523Y-68118864D02*
X167848095Y-68083150D01*
X167848095Y-68083150D02*
X167800476Y-68011721D01*
X167800476Y-68011721D02*
X167776666Y-67940292D01*
X167776666Y-67940292D02*
X167752857Y-67797435D01*
X167752857Y-67797435D02*
X167752857Y-67690292D01*
X167752857Y-67690292D02*
X167776666Y-67547435D01*
X167776666Y-67547435D02*
X167800476Y-67476007D01*
X167800476Y-67476007D02*
X167848095Y-67404578D01*
X167848095Y-67404578D02*
X167919523Y-67368864D01*
X167919523Y-67368864D02*
X167967142Y-67368864D01*
X167967142Y-67368864D02*
X168038571Y-67404578D01*
X168038571Y-67404578D02*
X168062380Y-67440292D01*
X168371904Y-67368864D02*
X168467142Y-67368864D01*
X168467142Y-67368864D02*
X168514761Y-67404578D01*
X168514761Y-67404578D02*
X168562380Y-67476007D01*
X168562380Y-67476007D02*
X168586190Y-67618864D01*
X168586190Y-67618864D02*
X168586190Y-67868864D01*
X168586190Y-67868864D02*
X168562380Y-68011721D01*
X168562380Y-68011721D02*
X168514761Y-68083150D01*
X168514761Y-68083150D02*
X168467142Y-68118864D01*
X168467142Y-68118864D02*
X168371904Y-68118864D01*
X168371904Y-68118864D02*
X168324285Y-68083150D01*
X168324285Y-68083150D02*
X168276666Y-68011721D01*
X168276666Y-68011721D02*
X168252857Y-67868864D01*
X168252857Y-67868864D02*
X168252857Y-67618864D01*
X168252857Y-67618864D02*
X168276666Y-67476007D01*
X168276666Y-67476007D02*
X168324285Y-67404578D01*
X168324285Y-67404578D02*
X168371904Y-67368864D01*
X169038571Y-68118864D02*
X168800476Y-68118864D01*
X168800476Y-68118864D02*
X168800476Y-67368864D01*
X169300476Y-67368864D02*
X169348095Y-67368864D01*
X169348095Y-67368864D02*
X169395714Y-67404578D01*
X169395714Y-67404578D02*
X169419524Y-67440292D01*
X169419524Y-67440292D02*
X169443333Y-67511721D01*
X169443333Y-67511721D02*
X169467143Y-67654578D01*
X169467143Y-67654578D02*
X169467143Y-67833150D01*
X169467143Y-67833150D02*
X169443333Y-67976007D01*
X169443333Y-67976007D02*
X169419524Y-68047435D01*
X169419524Y-68047435D02*
X169395714Y-68083150D01*
X169395714Y-68083150D02*
X169348095Y-68118864D01*
X169348095Y-68118864D02*
X169300476Y-68118864D01*
X169300476Y-68118864D02*
X169252857Y-68083150D01*
X169252857Y-68083150D02*
X169229048Y-68047435D01*
X169229048Y-68047435D02*
X169205238Y-67976007D01*
X169205238Y-67976007D02*
X169181429Y-67833150D01*
X169181429Y-67833150D02*
X169181429Y-67654578D01*
X169181429Y-67654578D02*
X169205238Y-67511721D01*
X169205238Y-67511721D02*
X169229048Y-67440292D01*
X169229048Y-67440292D02*
X169252857Y-67404578D01*
X169252857Y-67404578D02*
X169300476Y-67368864D01*
X167962380Y-75697435D02*
X167938571Y-75733150D01*
X167938571Y-75733150D02*
X167867142Y-75768864D01*
X167867142Y-75768864D02*
X167819523Y-75768864D01*
X167819523Y-75768864D02*
X167748095Y-75733150D01*
X167748095Y-75733150D02*
X167700476Y-75661721D01*
X167700476Y-75661721D02*
X167676666Y-75590292D01*
X167676666Y-75590292D02*
X167652857Y-75447435D01*
X167652857Y-75447435D02*
X167652857Y-75340292D01*
X167652857Y-75340292D02*
X167676666Y-75197435D01*
X167676666Y-75197435D02*
X167700476Y-75126007D01*
X167700476Y-75126007D02*
X167748095Y-75054578D01*
X167748095Y-75054578D02*
X167819523Y-75018864D01*
X167819523Y-75018864D02*
X167867142Y-75018864D01*
X167867142Y-75018864D02*
X167938571Y-75054578D01*
X167938571Y-75054578D02*
X167962380Y-75090292D01*
X168271904Y-75018864D02*
X168367142Y-75018864D01*
X168367142Y-75018864D02*
X168414761Y-75054578D01*
X168414761Y-75054578D02*
X168462380Y-75126007D01*
X168462380Y-75126007D02*
X168486190Y-75268864D01*
X168486190Y-75268864D02*
X168486190Y-75518864D01*
X168486190Y-75518864D02*
X168462380Y-75661721D01*
X168462380Y-75661721D02*
X168414761Y-75733150D01*
X168414761Y-75733150D02*
X168367142Y-75768864D01*
X168367142Y-75768864D02*
X168271904Y-75768864D01*
X168271904Y-75768864D02*
X168224285Y-75733150D01*
X168224285Y-75733150D02*
X168176666Y-75661721D01*
X168176666Y-75661721D02*
X168152857Y-75518864D01*
X168152857Y-75518864D02*
X168152857Y-75268864D01*
X168152857Y-75268864D02*
X168176666Y-75126007D01*
X168176666Y-75126007D02*
X168224285Y-75054578D01*
X168224285Y-75054578D02*
X168271904Y-75018864D01*
X168938571Y-75768864D02*
X168700476Y-75768864D01*
X168700476Y-75768864D02*
X168700476Y-75018864D01*
X169057619Y-75018864D02*
X169367143Y-75018864D01*
X169367143Y-75018864D02*
X169200476Y-75304578D01*
X169200476Y-75304578D02*
X169271905Y-75304578D01*
X169271905Y-75304578D02*
X169319524Y-75340292D01*
X169319524Y-75340292D02*
X169343333Y-75376007D01*
X169343333Y-75376007D02*
X169367143Y-75447435D01*
X169367143Y-75447435D02*
X169367143Y-75626007D01*
X169367143Y-75626007D02*
X169343333Y-75697435D01*
X169343333Y-75697435D02*
X169319524Y-75733150D01*
X169319524Y-75733150D02*
X169271905Y-75768864D01*
X169271905Y-75768864D02*
X169129048Y-75768864D01*
X169129048Y-75768864D02*
X169081429Y-75733150D01*
X169081429Y-75733150D02*
X169057619Y-75697435D01*
X183079047Y-78268864D02*
X182912381Y-77911721D01*
X182793333Y-78268864D02*
X182793333Y-77518864D01*
X182793333Y-77518864D02*
X182983809Y-77518864D01*
X182983809Y-77518864D02*
X183031428Y-77554578D01*
X183031428Y-77554578D02*
X183055238Y-77590292D01*
X183055238Y-77590292D02*
X183079047Y-77661721D01*
X183079047Y-77661721D02*
X183079047Y-77768864D01*
X183079047Y-77768864D02*
X183055238Y-77840292D01*
X183055238Y-77840292D02*
X183031428Y-77876007D01*
X183031428Y-77876007D02*
X182983809Y-77911721D01*
X182983809Y-77911721D02*
X182793333Y-77911721D01*
X183388571Y-77518864D02*
X183483809Y-77518864D01*
X183483809Y-77518864D02*
X183531428Y-77554578D01*
X183531428Y-77554578D02*
X183579047Y-77626007D01*
X183579047Y-77626007D02*
X183602857Y-77768864D01*
X183602857Y-77768864D02*
X183602857Y-78018864D01*
X183602857Y-78018864D02*
X183579047Y-78161721D01*
X183579047Y-78161721D02*
X183531428Y-78233150D01*
X183531428Y-78233150D02*
X183483809Y-78268864D01*
X183483809Y-78268864D02*
X183388571Y-78268864D01*
X183388571Y-78268864D02*
X183340952Y-78233150D01*
X183340952Y-78233150D02*
X183293333Y-78161721D01*
X183293333Y-78161721D02*
X183269524Y-78018864D01*
X183269524Y-78018864D02*
X183269524Y-77768864D01*
X183269524Y-77768864D02*
X183293333Y-77626007D01*
X183293333Y-77626007D02*
X183340952Y-77554578D01*
X183340952Y-77554578D02*
X183388571Y-77518864D01*
X183769524Y-77518864D02*
X183888572Y-78268864D01*
X183888572Y-78268864D02*
X183983810Y-77733150D01*
X183983810Y-77733150D02*
X184079048Y-78268864D01*
X184079048Y-78268864D02*
X184198096Y-77518864D01*
X184364763Y-77590292D02*
X184388572Y-77554578D01*
X184388572Y-77554578D02*
X184436191Y-77518864D01*
X184436191Y-77518864D02*
X184555239Y-77518864D01*
X184555239Y-77518864D02*
X184602858Y-77554578D01*
X184602858Y-77554578D02*
X184626667Y-77590292D01*
X184626667Y-77590292D02*
X184650477Y-77661721D01*
X184650477Y-77661721D02*
X184650477Y-77733150D01*
X184650477Y-77733150D02*
X184626667Y-77840292D01*
X184626667Y-77840292D02*
X184340953Y-78268864D01*
X184340953Y-78268864D02*
X184650477Y-78268864D01*
X183079047Y-73218864D02*
X182912381Y-72861721D01*
X182793333Y-73218864D02*
X182793333Y-72468864D01*
X182793333Y-72468864D02*
X182983809Y-72468864D01*
X182983809Y-72468864D02*
X183031428Y-72504578D01*
X183031428Y-72504578D02*
X183055238Y-72540292D01*
X183055238Y-72540292D02*
X183079047Y-72611721D01*
X183079047Y-72611721D02*
X183079047Y-72718864D01*
X183079047Y-72718864D02*
X183055238Y-72790292D01*
X183055238Y-72790292D02*
X183031428Y-72826007D01*
X183031428Y-72826007D02*
X182983809Y-72861721D01*
X182983809Y-72861721D02*
X182793333Y-72861721D01*
X183388571Y-72468864D02*
X183483809Y-72468864D01*
X183483809Y-72468864D02*
X183531428Y-72504578D01*
X183531428Y-72504578D02*
X183579047Y-72576007D01*
X183579047Y-72576007D02*
X183602857Y-72718864D01*
X183602857Y-72718864D02*
X183602857Y-72968864D01*
X183602857Y-72968864D02*
X183579047Y-73111721D01*
X183579047Y-73111721D02*
X183531428Y-73183150D01*
X183531428Y-73183150D02*
X183483809Y-73218864D01*
X183483809Y-73218864D02*
X183388571Y-73218864D01*
X183388571Y-73218864D02*
X183340952Y-73183150D01*
X183340952Y-73183150D02*
X183293333Y-73111721D01*
X183293333Y-73111721D02*
X183269524Y-72968864D01*
X183269524Y-72968864D02*
X183269524Y-72718864D01*
X183269524Y-72718864D02*
X183293333Y-72576007D01*
X183293333Y-72576007D02*
X183340952Y-72504578D01*
X183340952Y-72504578D02*
X183388571Y-72468864D01*
X183769524Y-72468864D02*
X183888572Y-73218864D01*
X183888572Y-73218864D02*
X183983810Y-72683150D01*
X183983810Y-72683150D02*
X184079048Y-73218864D01*
X184079048Y-73218864D02*
X184198096Y-72468864D01*
X184483810Y-72468864D02*
X184531429Y-72468864D01*
X184531429Y-72468864D02*
X184579048Y-72504578D01*
X184579048Y-72504578D02*
X184602858Y-72540292D01*
X184602858Y-72540292D02*
X184626667Y-72611721D01*
X184626667Y-72611721D02*
X184650477Y-72754578D01*
X184650477Y-72754578D02*
X184650477Y-72933150D01*
X184650477Y-72933150D02*
X184626667Y-73076007D01*
X184626667Y-73076007D02*
X184602858Y-73147435D01*
X184602858Y-73147435D02*
X184579048Y-73183150D01*
X184579048Y-73183150D02*
X184531429Y-73218864D01*
X184531429Y-73218864D02*
X184483810Y-73218864D01*
X184483810Y-73218864D02*
X184436191Y-73183150D01*
X184436191Y-73183150D02*
X184412382Y-73147435D01*
X184412382Y-73147435D02*
X184388572Y-73076007D01*
X184388572Y-73076007D02*
X184364763Y-72933150D01*
X184364763Y-72933150D02*
X184364763Y-72754578D01*
X184364763Y-72754578D02*
X184388572Y-72611721D01*
X184388572Y-72611721D02*
X184412382Y-72540292D01*
X184412382Y-72540292D02*
X184436191Y-72504578D01*
X184436191Y-72504578D02*
X184483810Y-72468864D01*
X168112380Y-70569435D02*
X168088571Y-70605150D01*
X168088571Y-70605150D02*
X168017142Y-70640864D01*
X168017142Y-70640864D02*
X167969523Y-70640864D01*
X167969523Y-70640864D02*
X167898095Y-70605150D01*
X167898095Y-70605150D02*
X167850476Y-70533721D01*
X167850476Y-70533721D02*
X167826666Y-70462292D01*
X167826666Y-70462292D02*
X167802857Y-70319435D01*
X167802857Y-70319435D02*
X167802857Y-70212292D01*
X167802857Y-70212292D02*
X167826666Y-70069435D01*
X167826666Y-70069435D02*
X167850476Y-69998007D01*
X167850476Y-69998007D02*
X167898095Y-69926578D01*
X167898095Y-69926578D02*
X167969523Y-69890864D01*
X167969523Y-69890864D02*
X168017142Y-69890864D01*
X168017142Y-69890864D02*
X168088571Y-69926578D01*
X168088571Y-69926578D02*
X168112380Y-69962292D01*
X168421904Y-69890864D02*
X168517142Y-69890864D01*
X168517142Y-69890864D02*
X168564761Y-69926578D01*
X168564761Y-69926578D02*
X168612380Y-69998007D01*
X168612380Y-69998007D02*
X168636190Y-70140864D01*
X168636190Y-70140864D02*
X168636190Y-70390864D01*
X168636190Y-70390864D02*
X168612380Y-70533721D01*
X168612380Y-70533721D02*
X168564761Y-70605150D01*
X168564761Y-70605150D02*
X168517142Y-70640864D01*
X168517142Y-70640864D02*
X168421904Y-70640864D01*
X168421904Y-70640864D02*
X168374285Y-70605150D01*
X168374285Y-70605150D02*
X168326666Y-70533721D01*
X168326666Y-70533721D02*
X168302857Y-70390864D01*
X168302857Y-70390864D02*
X168302857Y-70140864D01*
X168302857Y-70140864D02*
X168326666Y-69998007D01*
X168326666Y-69998007D02*
X168374285Y-69926578D01*
X168374285Y-69926578D02*
X168421904Y-69890864D01*
X169088571Y-70640864D02*
X168850476Y-70640864D01*
X168850476Y-70640864D02*
X168850476Y-69890864D01*
X169517143Y-70640864D02*
X169231429Y-70640864D01*
X169374286Y-70640864D02*
X169374286Y-69890864D01*
X169374286Y-69890864D02*
X169326667Y-69998007D01*
X169326667Y-69998007D02*
X169279048Y-70069435D01*
X169279048Y-70069435D02*
X169231429Y-70105150D01*
X183688571Y-57940864D02*
X183450476Y-57940864D01*
X183450476Y-57940864D02*
X183450476Y-57190864D01*
X183855238Y-57548007D02*
X184021905Y-57548007D01*
X184093333Y-57940864D02*
X183855238Y-57940864D01*
X183855238Y-57940864D02*
X183855238Y-57190864D01*
X183855238Y-57190864D02*
X184093333Y-57190864D01*
X184307619Y-57940864D02*
X184307619Y-57190864D01*
X184307619Y-57190864D02*
X184426667Y-57190864D01*
X184426667Y-57190864D02*
X184498095Y-57226578D01*
X184498095Y-57226578D02*
X184545714Y-57298007D01*
X184545714Y-57298007D02*
X184569524Y-57369435D01*
X184569524Y-57369435D02*
X184593333Y-57512292D01*
X184593333Y-57512292D02*
X184593333Y-57619435D01*
X184593333Y-57619435D02*
X184569524Y-57762292D01*
X184569524Y-57762292D02*
X184545714Y-57833721D01*
X184545714Y-57833721D02*
X184498095Y-57905150D01*
X184498095Y-57905150D02*
X184426667Y-57940864D01*
X184426667Y-57940864D02*
X184307619Y-57940864D01*
X183653547Y-62370078D02*
X183605928Y-62334364D01*
X183605928Y-62334364D02*
X183534499Y-62334364D01*
X183534499Y-62334364D02*
X183463071Y-62370078D01*
X183463071Y-62370078D02*
X183415452Y-62441507D01*
X183415452Y-62441507D02*
X183391642Y-62512935D01*
X183391642Y-62512935D02*
X183367833Y-62655792D01*
X183367833Y-62655792D02*
X183367833Y-62762935D01*
X183367833Y-62762935D02*
X183391642Y-62905792D01*
X183391642Y-62905792D02*
X183415452Y-62977221D01*
X183415452Y-62977221D02*
X183463071Y-63048650D01*
X183463071Y-63048650D02*
X183534499Y-63084364D01*
X183534499Y-63084364D02*
X183582118Y-63084364D01*
X183582118Y-63084364D02*
X183653547Y-63048650D01*
X183653547Y-63048650D02*
X183677356Y-63012935D01*
X183677356Y-63012935D02*
X183677356Y-62762935D01*
X183677356Y-62762935D02*
X183582118Y-62762935D01*
X183891642Y-63084364D02*
X183891642Y-62334364D01*
X183891642Y-62334364D02*
X184177356Y-63084364D01*
X184177356Y-63084364D02*
X184177356Y-62334364D01*
X184415452Y-63084364D02*
X184415452Y-62334364D01*
X184415452Y-62334364D02*
X184534500Y-62334364D01*
X184534500Y-62334364D02*
X184605928Y-62370078D01*
X184605928Y-62370078D02*
X184653547Y-62441507D01*
X184653547Y-62441507D02*
X184677357Y-62512935D01*
X184677357Y-62512935D02*
X184701166Y-62655792D01*
X184701166Y-62655792D02*
X184701166Y-62762935D01*
X184701166Y-62762935D02*
X184677357Y-62905792D01*
X184677357Y-62905792D02*
X184653547Y-62977221D01*
X184653547Y-62977221D02*
X184605928Y-63048650D01*
X184605928Y-63048650D02*
X184534500Y-63084364D01*
X184534500Y-63084364D02*
X184415452Y-63084364D01*
D10*
X174610953Y-90035552D02*
X174610953Y-90702219D01*
X174610953Y-90130790D02*
X174658572Y-90083171D01*
X174658572Y-90083171D02*
X174753810Y-90035552D01*
X174753810Y-90035552D02*
X174896667Y-90035552D01*
X174896667Y-90035552D02*
X174991905Y-90083171D01*
X174991905Y-90083171D02*
X175039524Y-90178409D01*
X175039524Y-90178409D02*
X175039524Y-90702219D01*
X175515715Y-90702219D02*
X175515715Y-90035552D01*
X175515715Y-89702219D02*
X175468096Y-89749838D01*
X175468096Y-89749838D02*
X175515715Y-89797457D01*
X175515715Y-89797457D02*
X175563334Y-89749838D01*
X175563334Y-89749838D02*
X175515715Y-89702219D01*
X175515715Y-89702219D02*
X175515715Y-89797457D01*
X176420476Y-90654600D02*
X176325238Y-90702219D01*
X176325238Y-90702219D02*
X176134762Y-90702219D01*
X176134762Y-90702219D02*
X176039524Y-90654600D01*
X176039524Y-90654600D02*
X175991905Y-90606980D01*
X175991905Y-90606980D02*
X175944286Y-90511742D01*
X175944286Y-90511742D02*
X175944286Y-90226028D01*
X175944286Y-90226028D02*
X175991905Y-90130790D01*
X175991905Y-90130790D02*
X176039524Y-90083171D01*
X176039524Y-90083171D02*
X176134762Y-90035552D01*
X176134762Y-90035552D02*
X176325238Y-90035552D01*
X176325238Y-90035552D02*
X176420476Y-90083171D01*
X177230000Y-90654600D02*
X177134762Y-90702219D01*
X177134762Y-90702219D02*
X176944286Y-90702219D01*
X176944286Y-90702219D02*
X176849048Y-90654600D01*
X176849048Y-90654600D02*
X176801429Y-90559361D01*
X176801429Y-90559361D02*
X176801429Y-90178409D01*
X176801429Y-90178409D02*
X176849048Y-90083171D01*
X176849048Y-90083171D02*
X176944286Y-90035552D01*
X176944286Y-90035552D02*
X177134762Y-90035552D01*
X177134762Y-90035552D02*
X177230000Y-90083171D01*
X177230000Y-90083171D02*
X177277619Y-90178409D01*
X177277619Y-90178409D02*
X177277619Y-90273647D01*
X177277619Y-90273647D02*
X176801429Y-90368885D01*
X177706191Y-90606980D02*
X177753810Y-90654600D01*
X177753810Y-90654600D02*
X177706191Y-90702219D01*
X177706191Y-90702219D02*
X177658572Y-90654600D01*
X177658572Y-90654600D02*
X177706191Y-90606980D01*
X177706191Y-90606980D02*
X177706191Y-90702219D01*
X177706191Y-90321266D02*
X177658572Y-89749838D01*
X177658572Y-89749838D02*
X177706191Y-89702219D01*
X177706191Y-89702219D02*
X177753810Y-89749838D01*
X177753810Y-89749838D02*
X177706191Y-90321266D01*
X177706191Y-90321266D02*
X177706191Y-89702219D01*
X178087143Y-90035552D02*
X178325238Y-90702219D01*
X178325238Y-90702219D02*
X178563333Y-90035552D01*
X178944286Y-90702219D02*
X178944286Y-90035552D01*
X178944286Y-89702219D02*
X178896667Y-89749838D01*
X178896667Y-89749838D02*
X178944286Y-89797457D01*
X178944286Y-89797457D02*
X178991905Y-89749838D01*
X178991905Y-89749838D02*
X178944286Y-89702219D01*
X178944286Y-89702219D02*
X178944286Y-89797457D01*
X179801428Y-90654600D02*
X179706190Y-90702219D01*
X179706190Y-90702219D02*
X179515714Y-90702219D01*
X179515714Y-90702219D02*
X179420476Y-90654600D01*
X179420476Y-90654600D02*
X179372857Y-90559361D01*
X179372857Y-90559361D02*
X179372857Y-90178409D01*
X179372857Y-90178409D02*
X179420476Y-90083171D01*
X179420476Y-90083171D02*
X179515714Y-90035552D01*
X179515714Y-90035552D02*
X179706190Y-90035552D01*
X179706190Y-90035552D02*
X179801428Y-90083171D01*
X179801428Y-90083171D02*
X179849047Y-90178409D01*
X179849047Y-90178409D02*
X179849047Y-90273647D01*
X179849047Y-90273647D02*
X179372857Y-90368885D01*
X180182381Y-90035552D02*
X180372857Y-90702219D01*
X180372857Y-90702219D02*
X180563333Y-90226028D01*
X180563333Y-90226028D02*
X180753809Y-90702219D01*
X180753809Y-90702219D02*
X180944285Y-90035552D01*
X181300618Y-96046819D02*
X180967285Y-95570628D01*
X180729190Y-96046819D02*
X180729190Y-95046819D01*
X180729190Y-95046819D02*
X181110142Y-95046819D01*
X181110142Y-95046819D02*
X181205380Y-95094438D01*
X181205380Y-95094438D02*
X181252999Y-95142057D01*
X181252999Y-95142057D02*
X181300618Y-95237295D01*
X181300618Y-95237295D02*
X181300618Y-95380152D01*
X181300618Y-95380152D02*
X181252999Y-95475390D01*
X181252999Y-95475390D02*
X181205380Y-95523009D01*
X181205380Y-95523009D02*
X181110142Y-95570628D01*
X181110142Y-95570628D02*
X180729190Y-95570628D01*
X181729190Y-95523009D02*
X182062523Y-95523009D01*
X182205380Y-96046819D02*
X181729190Y-96046819D01*
X181729190Y-96046819D02*
X181729190Y-95046819D01*
X181729190Y-95046819D02*
X182205380Y-95046819D01*
X182586333Y-95999200D02*
X182729190Y-96046819D01*
X182729190Y-96046819D02*
X182967285Y-96046819D01*
X182967285Y-96046819D02*
X183062523Y-95999200D01*
X183062523Y-95999200D02*
X183110142Y-95951580D01*
X183110142Y-95951580D02*
X183157761Y-95856342D01*
X183157761Y-95856342D02*
X183157761Y-95761104D01*
X183157761Y-95761104D02*
X183110142Y-95665866D01*
X183110142Y-95665866D02*
X183062523Y-95618247D01*
X183062523Y-95618247D02*
X182967285Y-95570628D01*
X182967285Y-95570628D02*
X182776809Y-95523009D01*
X182776809Y-95523009D02*
X182681571Y-95475390D01*
X182681571Y-95475390D02*
X182633952Y-95427771D01*
X182633952Y-95427771D02*
X182586333Y-95332533D01*
X182586333Y-95332533D02*
X182586333Y-95237295D01*
X182586333Y-95237295D02*
X182633952Y-95142057D01*
X182633952Y-95142057D02*
X182681571Y-95094438D01*
X182681571Y-95094438D02*
X182776809Y-95046819D01*
X182776809Y-95046819D02*
X183014904Y-95046819D01*
X183014904Y-95046819D02*
X183157761Y-95094438D01*
X183586333Y-95523009D02*
X183919666Y-95523009D01*
X184062523Y-96046819D02*
X183586333Y-96046819D01*
X183586333Y-96046819D02*
X183586333Y-95046819D01*
X183586333Y-95046819D02*
X184062523Y-95046819D01*
X184348238Y-95046819D02*
X184919666Y-95046819D01*
X184633952Y-96046819D02*
X184633952Y-95046819D01*
X106545476Y-107902200D02*
X106688333Y-107949819D01*
X106688333Y-107949819D02*
X106926428Y-107949819D01*
X106926428Y-107949819D02*
X107021666Y-107902200D01*
X107021666Y-107902200D02*
X107069285Y-107854580D01*
X107069285Y-107854580D02*
X107116904Y-107759342D01*
X107116904Y-107759342D02*
X107116904Y-107664104D01*
X107116904Y-107664104D02*
X107069285Y-107568866D01*
X107069285Y-107568866D02*
X107021666Y-107521247D01*
X107021666Y-107521247D02*
X106926428Y-107473628D01*
X106926428Y-107473628D02*
X106735952Y-107426009D01*
X106735952Y-107426009D02*
X106640714Y-107378390D01*
X106640714Y-107378390D02*
X106593095Y-107330771D01*
X106593095Y-107330771D02*
X106545476Y-107235533D01*
X106545476Y-107235533D02*
X106545476Y-107140295D01*
X106545476Y-107140295D02*
X106593095Y-107045057D01*
X106593095Y-107045057D02*
X106640714Y-106997438D01*
X106640714Y-106997438D02*
X106735952Y-106949819D01*
X106735952Y-106949819D02*
X106974047Y-106949819D01*
X106974047Y-106949819D02*
X107116904Y-106997438D01*
X107450238Y-106949819D02*
X107688333Y-107949819D01*
X107688333Y-107949819D02*
X107878809Y-107235533D01*
X107878809Y-107235533D02*
X108069285Y-107949819D01*
X108069285Y-107949819D02*
X108307381Y-106949819D01*
X108640714Y-107045057D02*
X108688333Y-106997438D01*
X108688333Y-106997438D02*
X108783571Y-106949819D01*
X108783571Y-106949819D02*
X109021666Y-106949819D01*
X109021666Y-106949819D02*
X109116904Y-106997438D01*
X109116904Y-106997438D02*
X109164523Y-107045057D01*
X109164523Y-107045057D02*
X109212142Y-107140295D01*
X109212142Y-107140295D02*
X109212142Y-107235533D01*
X109212142Y-107235533D02*
X109164523Y-107378390D01*
X109164523Y-107378390D02*
X108593095Y-107949819D01*
X108593095Y-107949819D02*
X109212142Y-107949819D01*
X109593095Y-107045057D02*
X109640714Y-106997438D01*
X109640714Y-106997438D02*
X109735952Y-106949819D01*
X109735952Y-106949819D02*
X109974047Y-106949819D01*
X109974047Y-106949819D02*
X110069285Y-106997438D01*
X110069285Y-106997438D02*
X110116904Y-107045057D01*
X110116904Y-107045057D02*
X110164523Y-107140295D01*
X110164523Y-107140295D02*
X110164523Y-107235533D01*
X110164523Y-107235533D02*
X110116904Y-107378390D01*
X110116904Y-107378390D02*
X109545476Y-107949819D01*
X109545476Y-107949819D02*
X110164523Y-107949819D01*
D12*
X172533333Y-108443299D02*
X172200000Y-107967108D01*
X171961905Y-108443299D02*
X171961905Y-107443299D01*
X171961905Y-107443299D02*
X172342857Y-107443299D01*
X172342857Y-107443299D02*
X172438095Y-107490918D01*
X172438095Y-107490918D02*
X172485714Y-107538537D01*
X172485714Y-107538537D02*
X172533333Y-107633775D01*
X172533333Y-107633775D02*
X172533333Y-107776632D01*
X172533333Y-107776632D02*
X172485714Y-107871870D01*
X172485714Y-107871870D02*
X172438095Y-107919489D01*
X172438095Y-107919489D02*
X172342857Y-107967108D01*
X172342857Y-107967108D02*
X171961905Y-107967108D01*
X173485714Y-108443299D02*
X172914286Y-108443299D01*
X173200000Y-108443299D02*
X173200000Y-107443299D01*
X173200000Y-107443299D02*
X173104762Y-107586156D01*
X173104762Y-107586156D02*
X173009524Y-107681394D01*
X173009524Y-107681394D02*
X172914286Y-107729013D01*
D10*
X180969047Y-59032680D02*
X180778571Y-59032680D01*
X180778571Y-59032680D02*
X180683333Y-58985061D01*
X180683333Y-58985061D02*
X180588095Y-58889823D01*
X180588095Y-58889823D02*
X180540476Y-58699347D01*
X180540476Y-58699347D02*
X180540476Y-58366014D01*
X180540476Y-58366014D02*
X180588095Y-58175538D01*
X180588095Y-58175538D02*
X180683333Y-58080300D01*
X180683333Y-58080300D02*
X180778571Y-58032680D01*
X180778571Y-58032680D02*
X180969047Y-58032680D01*
X180969047Y-58032680D02*
X181064285Y-58080300D01*
X181064285Y-58080300D02*
X181159523Y-58175538D01*
X181159523Y-58175538D02*
X181207142Y-58366014D01*
X181207142Y-58366014D02*
X181207142Y-58699347D01*
X181207142Y-58699347D02*
X181159523Y-58889823D01*
X181159523Y-58889823D02*
X181064285Y-58985061D01*
X181064285Y-58985061D02*
X180969047Y-59032680D01*
X180111904Y-58032680D02*
X180111904Y-59032680D01*
X180111904Y-59032680D02*
X179540476Y-58032680D01*
X179540476Y-58032680D02*
X179540476Y-59032680D01*
X176802380Y-59032680D02*
X176611904Y-59032680D01*
X176611904Y-59032680D02*
X176516666Y-58985061D01*
X176516666Y-58985061D02*
X176421428Y-58889823D01*
X176421428Y-58889823D02*
X176373809Y-58699347D01*
X176373809Y-58699347D02*
X176373809Y-58366014D01*
X176373809Y-58366014D02*
X176421428Y-58175538D01*
X176421428Y-58175538D02*
X176516666Y-58080300D01*
X176516666Y-58080300D02*
X176611904Y-58032680D01*
X176611904Y-58032680D02*
X176802380Y-58032680D01*
X176802380Y-58032680D02*
X176897618Y-58080300D01*
X176897618Y-58080300D02*
X176992856Y-58175538D01*
X176992856Y-58175538D02*
X177040475Y-58366014D01*
X177040475Y-58366014D02*
X177040475Y-58699347D01*
X177040475Y-58699347D02*
X176992856Y-58889823D01*
X176992856Y-58889823D02*
X176897618Y-58985061D01*
X176897618Y-58985061D02*
X176802380Y-59032680D01*
X175611904Y-58556490D02*
X175945237Y-58556490D01*
X175945237Y-58032680D02*
X175945237Y-59032680D01*
X175945237Y-59032680D02*
X175469047Y-59032680D01*
X174754761Y-58556490D02*
X175088094Y-58556490D01*
X175088094Y-58032680D02*
X175088094Y-59032680D01*
X175088094Y-59032680D02*
X174611904Y-59032680D01*
D12*
X172633333Y-110793299D02*
X172300000Y-110317108D01*
X172061905Y-110793299D02*
X172061905Y-109793299D01*
X172061905Y-109793299D02*
X172442857Y-109793299D01*
X172442857Y-109793299D02*
X172538095Y-109840918D01*
X172538095Y-109840918D02*
X172585714Y-109888537D01*
X172585714Y-109888537D02*
X172633333Y-109983775D01*
X172633333Y-109983775D02*
X172633333Y-110126632D01*
X172633333Y-110126632D02*
X172585714Y-110221870D01*
X172585714Y-110221870D02*
X172538095Y-110269489D01*
X172538095Y-110269489D02*
X172442857Y-110317108D01*
X172442857Y-110317108D02*
X172061905Y-110317108D01*
X172966667Y-109793299D02*
X173585714Y-109793299D01*
X173585714Y-109793299D02*
X173252381Y-110174251D01*
X173252381Y-110174251D02*
X173395238Y-110174251D01*
X173395238Y-110174251D02*
X173490476Y-110221870D01*
X173490476Y-110221870D02*
X173538095Y-110269489D01*
X173538095Y-110269489D02*
X173585714Y-110364727D01*
X173585714Y-110364727D02*
X173585714Y-110602822D01*
X173585714Y-110602822D02*
X173538095Y-110698060D01*
X173538095Y-110698060D02*
X173490476Y-110745680D01*
X173490476Y-110745680D02*
X173395238Y-110793299D01*
X173395238Y-110793299D02*
X173109524Y-110793299D01*
X173109524Y-110793299D02*
X173014286Y-110745680D01*
X173014286Y-110745680D02*
X172966667Y-110698060D01*
D10*
X128077466Y-105929081D02*
X128203130Y-106012052D01*
X128203130Y-106012052D02*
X128433113Y-106073675D01*
X128433113Y-106073675D02*
X128537430Y-106052328D01*
X128537430Y-106052328D02*
X128595751Y-106018657D01*
X128595751Y-106018657D02*
X128666397Y-105938988D01*
X128666397Y-105938988D02*
X128691047Y-105846996D01*
X128691047Y-105846996D02*
X128669700Y-105742678D01*
X128669700Y-105742678D02*
X128636028Y-105684357D01*
X128636028Y-105684357D02*
X128556360Y-105613711D01*
X128556360Y-105613711D02*
X128384699Y-105518415D01*
X128384699Y-105518415D02*
X128305030Y-105447770D01*
X128305030Y-105447770D02*
X128271359Y-105389448D01*
X128271359Y-105389448D02*
X128250012Y-105285131D01*
X128250012Y-105285131D02*
X128274661Y-105193138D01*
X128274661Y-105193138D02*
X128345307Y-105113470D01*
X128345307Y-105113470D02*
X128403628Y-105079798D01*
X128403628Y-105079798D02*
X128507946Y-105058451D01*
X128507946Y-105058451D02*
X128737928Y-105120074D01*
X128737928Y-105120074D02*
X128863593Y-105203045D01*
X129197893Y-105243322D02*
X129169056Y-106270871D01*
X129169056Y-106270871D02*
X129537913Y-105630223D01*
X129537913Y-105630223D02*
X129537028Y-106369469D01*
X129537028Y-106369469D02*
X130025829Y-105465166D01*
X130640943Y-106665262D02*
X130088985Y-106517365D01*
X130364964Y-106591314D02*
X130623783Y-105625388D01*
X130623783Y-105625388D02*
X130494816Y-105738728D01*
X130494816Y-105738728D02*
X130378174Y-105806071D01*
X130378174Y-105806071D02*
X130273856Y-105827418D01*
X131221737Y-105785609D02*
X131819691Y-105945830D01*
X131819691Y-105945830D02*
X131399118Y-106227529D01*
X131399118Y-106227529D02*
X131537108Y-106264503D01*
X131537108Y-106264503D02*
X131616776Y-106335149D01*
X131616776Y-106335149D02*
X131650448Y-106393470D01*
X131650448Y-106393470D02*
X131671795Y-106497788D01*
X131671795Y-106497788D02*
X131610171Y-106727770D01*
X131610171Y-106727770D02*
X131539525Y-106807439D01*
X131539525Y-106807439D02*
X131481204Y-106841110D01*
X131481204Y-106841110D02*
X131376887Y-106862457D01*
X131376887Y-106862457D02*
X131100908Y-106788509D01*
X131100908Y-106788509D02*
X131021240Y-106717863D01*
X131021240Y-106717863D02*
X130987568Y-106659542D01*
D12*
X175133333Y-64204299D02*
X174800000Y-63728108D01*
X174561905Y-64204299D02*
X174561905Y-63204299D01*
X174561905Y-63204299D02*
X174942857Y-63204299D01*
X174942857Y-63204299D02*
X175038095Y-63251918D01*
X175038095Y-63251918D02*
X175085714Y-63299537D01*
X175085714Y-63299537D02*
X175133333Y-63394775D01*
X175133333Y-63394775D02*
X175133333Y-63537632D01*
X175133333Y-63537632D02*
X175085714Y-63632870D01*
X175085714Y-63632870D02*
X175038095Y-63680489D01*
X175038095Y-63680489D02*
X174942857Y-63728108D01*
X174942857Y-63728108D02*
X174561905Y-63728108D01*
X176038095Y-63204299D02*
X175561905Y-63204299D01*
X175561905Y-63204299D02*
X175514286Y-63680489D01*
X175514286Y-63680489D02*
X175561905Y-63632870D01*
X175561905Y-63632870D02*
X175657143Y-63585251D01*
X175657143Y-63585251D02*
X175895238Y-63585251D01*
X175895238Y-63585251D02*
X175990476Y-63632870D01*
X175990476Y-63632870D02*
X176038095Y-63680489D01*
X176038095Y-63680489D02*
X176085714Y-63775727D01*
X176085714Y-63775727D02*
X176085714Y-64013822D01*
X176085714Y-64013822D02*
X176038095Y-64109060D01*
X176038095Y-64109060D02*
X175990476Y-64156680D01*
X175990476Y-64156680D02*
X175895238Y-64204299D01*
X175895238Y-64204299D02*
X175657143Y-64204299D01*
X175657143Y-64204299D02*
X175561905Y-64156680D01*
X175561905Y-64156680D02*
X175514286Y-64109060D01*
D10*
X176469047Y-59032680D02*
X176278571Y-59032680D01*
X176278571Y-59032680D02*
X176183333Y-58985061D01*
X176183333Y-58985061D02*
X176088095Y-58889823D01*
X176088095Y-58889823D02*
X176040476Y-58699347D01*
X176040476Y-58699347D02*
X176040476Y-58366014D01*
X176040476Y-58366014D02*
X176088095Y-58175538D01*
X176088095Y-58175538D02*
X176183333Y-58080300D01*
X176183333Y-58080300D02*
X176278571Y-58032680D01*
X176278571Y-58032680D02*
X176469047Y-58032680D01*
X176469047Y-58032680D02*
X176564285Y-58080300D01*
X176564285Y-58080300D02*
X176659523Y-58175538D01*
X176659523Y-58175538D02*
X176707142Y-58366014D01*
X176707142Y-58366014D02*
X176707142Y-58699347D01*
X176707142Y-58699347D02*
X176659523Y-58889823D01*
X176659523Y-58889823D02*
X176564285Y-58985061D01*
X176564285Y-58985061D02*
X176469047Y-59032680D01*
X175611904Y-58032680D02*
X175611904Y-59032680D01*
X175611904Y-59032680D02*
X175040476Y-58032680D01*
X175040476Y-58032680D02*
X175040476Y-59032680D01*
X181302380Y-59032680D02*
X181111904Y-59032680D01*
X181111904Y-59032680D02*
X181016666Y-58985061D01*
X181016666Y-58985061D02*
X180921428Y-58889823D01*
X180921428Y-58889823D02*
X180873809Y-58699347D01*
X180873809Y-58699347D02*
X180873809Y-58366014D01*
X180873809Y-58366014D02*
X180921428Y-58175538D01*
X180921428Y-58175538D02*
X181016666Y-58080300D01*
X181016666Y-58080300D02*
X181111904Y-58032680D01*
X181111904Y-58032680D02*
X181302380Y-58032680D01*
X181302380Y-58032680D02*
X181397618Y-58080300D01*
X181397618Y-58080300D02*
X181492856Y-58175538D01*
X181492856Y-58175538D02*
X181540475Y-58366014D01*
X181540475Y-58366014D02*
X181540475Y-58699347D01*
X181540475Y-58699347D02*
X181492856Y-58889823D01*
X181492856Y-58889823D02*
X181397618Y-58985061D01*
X181397618Y-58985061D02*
X181302380Y-59032680D01*
X180111904Y-58556490D02*
X180445237Y-58556490D01*
X180445237Y-58032680D02*
X180445237Y-59032680D01*
X180445237Y-59032680D02*
X179969047Y-59032680D01*
X179254761Y-58556490D02*
X179588094Y-58556490D01*
X179588094Y-58032680D02*
X179588094Y-59032680D01*
X179588094Y-59032680D02*
X179111904Y-59032680D01*
X83304400Y-63562800D02*
X83304400Y-65062800D01*
X83304400Y-65062800D02*
X88704400Y-65062800D01*
X85504400Y-63812800D02*
X85504400Y-64812800D01*
X85604400Y-64312800D02*
X86504400Y-63812800D01*
X86504400Y-63812800D02*
X86504400Y-64812800D01*
X86504400Y-64812800D02*
X85604400Y-64312800D01*
X88704400Y-63562800D02*
X83304400Y-63562800D01*
X88704400Y-65062800D02*
X88704400Y-63562800D01*
X101389200Y-51523200D02*
X101389200Y-53023200D01*
X101389200Y-53023200D02*
X106789200Y-53023200D01*
X103589200Y-51773200D02*
X103589200Y-52773200D01*
X103689200Y-52273200D02*
X104589200Y-51773200D01*
X104589200Y-51773200D02*
X104589200Y-52773200D01*
X104589200Y-52773200D02*
X103689200Y-52273200D01*
X106789200Y-51523200D02*
X101389200Y-51523200D01*
X106789200Y-53023200D02*
X106789200Y-51523200D01*
X119372400Y-45478000D02*
X119372400Y-46978000D01*
X119372400Y-46978000D02*
X124772400Y-46978000D01*
X121572400Y-45728000D02*
X121572400Y-46728000D01*
X121672400Y-46228000D02*
X122572400Y-45728000D01*
X122572400Y-45728000D02*
X122572400Y-46728000D01*
X122572400Y-46728000D02*
X121672400Y-46228000D01*
X124772400Y-45478000D02*
X119372400Y-45478000D01*
X124772400Y-46978000D02*
X124772400Y-45478000D01*
X137304800Y-52539200D02*
X137304800Y-54039200D01*
X137304800Y-54039200D02*
X142704800Y-54039200D01*
X139504800Y-52789200D02*
X139504800Y-53789200D01*
X139604800Y-53289200D02*
X140504800Y-52789200D01*
X140504800Y-52789200D02*
X140504800Y-53789200D01*
X140504800Y-53789200D02*
X139604800Y-53289200D01*
X142704800Y-52539200D02*
X137304800Y-52539200D01*
X142704800Y-54039200D02*
X142704800Y-52539200D01*
X155288000Y-54672800D02*
X155288000Y-56172800D01*
X155288000Y-56172800D02*
X160688000Y-56172800D01*
X157488000Y-54922800D02*
X157488000Y-55922800D01*
X157588000Y-55422800D02*
X158488000Y-54922800D01*
X158488000Y-54922800D02*
X158488000Y-55922800D01*
X158488000Y-55922800D02*
X157588000Y-55422800D01*
X160688000Y-54672800D02*
X155288000Y-54672800D01*
X160688000Y-56172800D02*
X160688000Y-54672800D01*
X83202800Y-80479200D02*
X83202800Y-81979200D01*
X83202800Y-81979200D02*
X88602800Y-81979200D01*
X85402800Y-80729200D02*
X85402800Y-81729200D01*
X85502800Y-81229200D02*
X86402800Y-80729200D01*
X86402800Y-80729200D02*
X86402800Y-81729200D01*
X86402800Y-81729200D02*
X85502800Y-81229200D01*
X88602800Y-80479200D02*
X83202800Y-80479200D01*
X88602800Y-81979200D02*
X88602800Y-80479200D01*
X101186000Y-68592000D02*
X101186000Y-70092000D01*
X101186000Y-70092000D02*
X106586000Y-70092000D01*
X103386000Y-68842000D02*
X103386000Y-69842000D01*
X103486000Y-69342000D02*
X104386000Y-68842000D01*
X104386000Y-68842000D02*
X104386000Y-69842000D01*
X104386000Y-69842000D02*
X103486000Y-69342000D01*
X106586000Y-68592000D02*
X101186000Y-68592000D01*
X106586000Y-70092000D02*
X106586000Y-68592000D01*
X119270800Y-62597600D02*
X119270800Y-64097600D01*
X119270800Y-64097600D02*
X124670800Y-64097600D01*
X121470800Y-62847600D02*
X121470800Y-63847600D01*
X121570800Y-63347600D02*
X122470800Y-62847600D01*
X122470800Y-62847600D02*
X122470800Y-63847600D01*
X122470800Y-63847600D02*
X121570800Y-63347600D01*
X124670800Y-62597600D02*
X119270800Y-62597600D01*
X124670800Y-64097600D02*
X124670800Y-62597600D01*
X137254000Y-69150800D02*
X137254000Y-70650800D01*
X137254000Y-70650800D02*
X142654000Y-70650800D01*
X139454000Y-69400800D02*
X139454000Y-70400800D01*
X139554000Y-69900800D02*
X140454000Y-69400800D01*
X140454000Y-69400800D02*
X140454000Y-70400800D01*
X140454000Y-70400800D02*
X139554000Y-69900800D01*
X142654000Y-69150800D02*
X137254000Y-69150800D01*
X142654000Y-70650800D02*
X142654000Y-69150800D01*
X155592800Y-71741600D02*
X155592800Y-73241600D01*
X155592800Y-73241600D02*
X160992800Y-73241600D01*
X157792800Y-71991600D02*
X157792800Y-72991600D01*
X157892800Y-72491600D02*
X158792800Y-71991600D01*
X158792800Y-71991600D02*
X158792800Y-72991600D01*
X158792800Y-72991600D02*
X157892800Y-72491600D01*
X160992800Y-71741600D02*
X155592800Y-71741600D01*
X160992800Y-73241600D02*
X160992800Y-71741600D01*
X83202800Y-97497200D02*
X83202800Y-98997200D01*
X83202800Y-98997200D02*
X88602800Y-98997200D01*
X85402800Y-97747200D02*
X85402800Y-98747200D01*
X85502800Y-98247200D02*
X86402800Y-97747200D01*
X86402800Y-97747200D02*
X86402800Y-98747200D01*
X86402800Y-98747200D02*
X85502800Y-98247200D01*
X88602800Y-97497200D02*
X83202800Y-97497200D01*
X88602800Y-98997200D02*
X88602800Y-97497200D01*
X101287600Y-85559200D02*
X101287600Y-87059200D01*
X101287600Y-87059200D02*
X106687600Y-87059200D01*
X103487600Y-85809200D02*
X103487600Y-86809200D01*
X103587600Y-86309200D02*
X104487600Y-85809200D01*
X104487600Y-85809200D02*
X104487600Y-86809200D01*
X104487600Y-86809200D02*
X103587600Y-86309200D01*
X106687600Y-85559200D02*
X101287600Y-85559200D01*
X106687600Y-87059200D02*
X106687600Y-85559200D01*
X119270800Y-79564800D02*
X119270800Y-81064800D01*
X119270800Y-81064800D02*
X124670800Y-81064800D01*
X121470800Y-79814800D02*
X121470800Y-80814800D01*
X121570800Y-80314800D02*
X122470800Y-79814800D01*
X122470800Y-79814800D02*
X122470800Y-80814800D01*
X122470800Y-80814800D02*
X121570800Y-80314800D01*
X124670800Y-79564800D02*
X119270800Y-79564800D01*
X124670800Y-81064800D02*
X124670800Y-79564800D01*
X137355600Y-86219600D02*
X137355600Y-87719600D01*
X137355600Y-87719600D02*
X142755600Y-87719600D01*
X139555600Y-86469600D02*
X139555600Y-87469600D01*
X139655600Y-86969600D02*
X140555600Y-86469600D01*
X140555600Y-86469600D02*
X140555600Y-87469600D01*
X140555600Y-87469600D02*
X139655600Y-86969600D01*
X142755600Y-86219600D02*
X137355600Y-86219600D01*
X142755600Y-87719600D02*
X142755600Y-86219600D01*
X155389600Y-88607200D02*
X155389600Y-90107200D01*
X155389600Y-90107200D02*
X160789600Y-90107200D01*
X157589600Y-88857200D02*
X157589600Y-89857200D01*
X157689600Y-89357200D02*
X158589600Y-88857200D01*
X158589600Y-88857200D02*
X158589600Y-89857200D01*
X158589600Y-89857200D02*
X157689600Y-89357200D01*
X160789600Y-88607200D02*
X155389600Y-88607200D01*
X160789600Y-90107200D02*
X160789600Y-88607200D01*
X155346044Y-126668719D02*
X160667246Y-127587851D01*
X155601358Y-125190607D02*
X155346044Y-126668719D01*
X157726703Y-125811420D02*
X157556493Y-126796828D01*
X157740139Y-126321145D02*
X158712111Y-125981630D01*
X158541901Y-126967038D02*
X157740139Y-126321145D01*
X158712111Y-125981630D02*
X158541901Y-126967038D01*
X160667246Y-127587851D02*
X160922560Y-126109739D01*
X160922560Y-126109739D02*
X155601358Y-125190607D01*
X173926177Y-131041812D02*
X179019579Y-132835482D01*
X174424419Y-129626978D02*
X173926177Y-131041812D01*
X176344710Y-131098366D02*
X177359691Y-130925699D01*
X176416468Y-130593538D02*
X176084307Y-131536761D01*
X177027530Y-131868922D02*
X176344710Y-131098366D01*
X177359691Y-130925699D02*
X177027530Y-131868922D01*
X179019579Y-132835482D02*
X179517821Y-131420648D01*
X179517821Y-131420648D02*
X174424419Y-129626978D01*
X191746810Y-138804671D02*
X196469756Y-141422643D01*
X192474024Y-137492741D02*
X191746810Y-138804671D01*
X194122042Y-139263768D02*
X195151605Y-139262787D01*
X194276985Y-138777977D02*
X193792175Y-139652597D01*
X194666795Y-140137407D02*
X194122042Y-139263768D01*
X195151605Y-139262787D02*
X194666795Y-140137407D01*
X196469756Y-141422643D02*
X197196970Y-140110713D01*
X197196970Y-140110713D02*
X192474024Y-137492741D01*
X175960000Y-100450000D02*
X187960000Y-100450000D01*
X175960000Y-106450000D02*
X175960000Y-100450000D01*
X187960000Y-100450000D02*
X187960000Y-106450000D01*
X187960000Y-106450000D02*
X175960000Y-106450000D01*
X78910000Y-63400000D02*
X79910000Y-63400000D01*
X78910000Y-64400000D02*
X78910000Y-63400000D01*
X78910000Y-77400000D02*
X78910000Y-76400000D01*
X79910000Y-77400000D02*
X78910000Y-77400000D01*
X83910000Y-74600000D02*
X84410000Y-74100000D01*
X83910000Y-78100000D02*
X84410000Y-78600000D01*
X84410000Y-74100000D02*
X86910000Y-74100000D01*
X84410000Y-78600000D02*
X87410000Y-78600000D01*
X87410000Y-78600000D02*
X87910000Y-78100000D01*
X87910000Y-77100000D02*
X87910000Y-78100000D01*
X88410000Y-71900000D02*
X92910000Y-71900000D01*
X88410000Y-72600000D02*
X88410000Y-71900000D01*
X91910000Y-63400000D02*
X92910000Y-63400000D01*
X92910000Y-63400000D02*
X92910000Y-64400000D01*
X92910000Y-71900000D02*
X92910000Y-72400000D01*
X92910000Y-76000000D02*
X92910000Y-76600000D01*
X92910000Y-76400000D02*
X92910000Y-77400000D01*
X92910000Y-76600000D02*
X88410000Y-76600000D01*
X92910000Y-77400000D02*
X91910000Y-77400000D01*
X87910000Y-77100000D02*
G75*
G02*
X88410000Y-76600000I500000J0D01*
G01*
X88410000Y-72600000D02*
G75*
G02*
X86910000Y-74100000I-1500000J0D01*
G01*
X96910000Y-51400000D02*
X97910000Y-51400000D01*
X96910000Y-52400000D02*
X96910000Y-51400000D01*
X96910000Y-65400000D02*
X96910000Y-64400000D01*
X97910000Y-65400000D02*
X96910000Y-65400000D01*
X101910000Y-62600000D02*
X102410000Y-62100000D01*
X101910000Y-66100000D02*
X102410000Y-66600000D01*
X102410000Y-62100000D02*
X104910000Y-62100000D01*
X102410000Y-66600000D02*
X105410000Y-66600000D01*
X105410000Y-66600000D02*
X105910000Y-66100000D01*
X105910000Y-65100000D02*
X105910000Y-66100000D01*
X106410000Y-59900000D02*
X110910000Y-59900000D01*
X106410000Y-60600000D02*
X106410000Y-59900000D01*
X109910000Y-51400000D02*
X110910000Y-51400000D01*
X110910000Y-51400000D02*
X110910000Y-52400000D01*
X110910000Y-59900000D02*
X110910000Y-60400000D01*
X110910000Y-64000000D02*
X110910000Y-64600000D01*
X110910000Y-64400000D02*
X110910000Y-65400000D01*
X110910000Y-64600000D02*
X106410000Y-64600000D01*
X110910000Y-65400000D02*
X109910000Y-65400000D01*
X105910000Y-65100000D02*
G75*
G02*
X106410000Y-64600000I500000J0D01*
G01*
X106410000Y-60600000D02*
G75*
G02*
X104910000Y-62100000I-1500000J0D01*
G01*
X114910000Y-45400000D02*
X115910000Y-45400000D01*
X114910000Y-46400000D02*
X114910000Y-45400000D01*
X114910000Y-59400000D02*
X114910000Y-58400000D01*
X115910000Y-59400000D02*
X114910000Y-59400000D01*
X119910000Y-56600000D02*
X120410000Y-56100000D01*
X119910000Y-60100000D02*
X120410000Y-60600000D01*
X120410000Y-56100000D02*
X122910000Y-56100000D01*
X120410000Y-60600000D02*
X123410000Y-60600000D01*
X123410000Y-60600000D02*
X123910000Y-60100000D01*
X123910000Y-59100000D02*
X123910000Y-60100000D01*
X124410000Y-53900000D02*
X128910000Y-53900000D01*
X124410000Y-54600000D02*
X124410000Y-53900000D01*
X127910000Y-45400000D02*
X128910000Y-45400000D01*
X128910000Y-45400000D02*
X128910000Y-46400000D01*
X128910000Y-53900000D02*
X128910000Y-54400000D01*
X128910000Y-58000000D02*
X128910000Y-58600000D01*
X128910000Y-58400000D02*
X128910000Y-59400000D01*
X128910000Y-58600000D02*
X124410000Y-58600000D01*
X128910000Y-59400000D02*
X127910000Y-59400000D01*
X123910000Y-59100000D02*
G75*
G02*
X124410000Y-58600000I500000J0D01*
G01*
X124410000Y-54600000D02*
G75*
G02*
X122910000Y-56100000I-1500000J0D01*
G01*
X132910000Y-52020000D02*
X133910000Y-52020000D01*
X132910000Y-53020000D02*
X132910000Y-52020000D01*
X132910000Y-66020000D02*
X132910000Y-65020000D01*
X133910000Y-66020000D02*
X132910000Y-66020000D01*
X137910000Y-63220000D02*
X138410000Y-62720000D01*
X137910000Y-66720000D02*
X138410000Y-67220000D01*
X138410000Y-62720000D02*
X140910000Y-62720000D01*
X138410000Y-67220000D02*
X141410000Y-67220000D01*
X141410000Y-67220000D02*
X141910000Y-66720000D01*
X141910000Y-65720000D02*
X141910000Y-66720000D01*
X142410000Y-60520000D02*
X146910000Y-60520000D01*
X142410000Y-61220000D02*
X142410000Y-60520000D01*
X145910000Y-52020000D02*
X146910000Y-52020000D01*
X146910000Y-52020000D02*
X146910000Y-53020000D01*
X146910000Y-60520000D02*
X146910000Y-61020000D01*
X146910000Y-64620000D02*
X146910000Y-65220000D01*
X146910000Y-65020000D02*
X146910000Y-66020000D01*
X146910000Y-65220000D02*
X142410000Y-65220000D01*
X146910000Y-66020000D02*
X145910000Y-66020000D01*
X141910000Y-65720000D02*
G75*
G02*
X142410000Y-65220000I500000J0D01*
G01*
X142410000Y-61220000D02*
G75*
G02*
X140910000Y-62720000I-1500000J0D01*
G01*
X150910000Y-54400000D02*
X151910000Y-54400000D01*
X150910000Y-55400000D02*
X150910000Y-54400000D01*
X150910000Y-68400000D02*
X150910000Y-67400000D01*
X151910000Y-68400000D02*
X150910000Y-68400000D01*
X155910000Y-65600000D02*
X156410000Y-65100000D01*
X155910000Y-69100000D02*
X156410000Y-69600000D01*
X156410000Y-65100000D02*
X158910000Y-65100000D01*
X156410000Y-69600000D02*
X159410000Y-69600000D01*
X159410000Y-69600000D02*
X159910000Y-69100000D01*
X159910000Y-68100000D02*
X159910000Y-69100000D01*
X160410000Y-62900000D02*
X164910000Y-62900000D01*
X160410000Y-63600000D02*
X160410000Y-62900000D01*
X163910000Y-54400000D02*
X164910000Y-54400000D01*
X164910000Y-54400000D02*
X164910000Y-55400000D01*
X164910000Y-62900000D02*
X164910000Y-63400000D01*
X164910000Y-67000000D02*
X164910000Y-67600000D01*
X164910000Y-67400000D02*
X164910000Y-68400000D01*
X164910000Y-67600000D02*
X160410000Y-67600000D01*
X164910000Y-68400000D02*
X163910000Y-68400000D01*
X159910000Y-68100000D02*
G75*
G02*
X160410000Y-67600000I500000J0D01*
G01*
X160410000Y-63600000D02*
G75*
G02*
X158910000Y-65100000I-1500000J0D01*
G01*
X78910000Y-80400000D02*
X79910000Y-80400000D01*
X78910000Y-81400000D02*
X78910000Y-80400000D01*
X78910000Y-94400000D02*
X78910000Y-93400000D01*
X79910000Y-94400000D02*
X78910000Y-94400000D01*
X83910000Y-91600000D02*
X84410000Y-91100000D01*
X83910000Y-95100000D02*
X84410000Y-95600000D01*
X84410000Y-91100000D02*
X86910000Y-91100000D01*
X84410000Y-95600000D02*
X87410000Y-95600000D01*
X87410000Y-95600000D02*
X87910000Y-95100000D01*
X87910000Y-94100000D02*
X87910000Y-95100000D01*
X88410000Y-88900000D02*
X92910000Y-88900000D01*
X88410000Y-89600000D02*
X88410000Y-88900000D01*
X91910000Y-80400000D02*
X92910000Y-80400000D01*
X92910000Y-80400000D02*
X92910000Y-81400000D01*
X92910000Y-88900000D02*
X92910000Y-89400000D01*
X92910000Y-93000000D02*
X92910000Y-93600000D01*
X92910000Y-93400000D02*
X92910000Y-94400000D01*
X92910000Y-93600000D02*
X88410000Y-93600000D01*
X92910000Y-94400000D02*
X91910000Y-94400000D01*
X87910000Y-94100000D02*
G75*
G02*
X88410000Y-93600000I500000J0D01*
G01*
X88410000Y-89600000D02*
G75*
G02*
X86910000Y-91100000I-1500000J0D01*
G01*
X96910000Y-68400000D02*
X97910000Y-68400000D01*
X96910000Y-69400000D02*
X96910000Y-68400000D01*
X96910000Y-82400000D02*
X96910000Y-81400000D01*
X97910000Y-82400000D02*
X96910000Y-82400000D01*
X101910000Y-79600000D02*
X102410000Y-79100000D01*
X101910000Y-83100000D02*
X102410000Y-83600000D01*
X102410000Y-79100000D02*
X104910000Y-79100000D01*
X102410000Y-83600000D02*
X105410000Y-83600000D01*
X105410000Y-83600000D02*
X105910000Y-83100000D01*
X105910000Y-82100000D02*
X105910000Y-83100000D01*
X106410000Y-76900000D02*
X110910000Y-76900000D01*
X106410000Y-77600000D02*
X106410000Y-76900000D01*
X109910000Y-68400000D02*
X110910000Y-68400000D01*
X110910000Y-68400000D02*
X110910000Y-69400000D01*
X110910000Y-76900000D02*
X110910000Y-77400000D01*
X110910000Y-81000000D02*
X110910000Y-81600000D01*
X110910000Y-81400000D02*
X110910000Y-82400000D01*
X110910000Y-81600000D02*
X106410000Y-81600000D01*
X110910000Y-82400000D02*
X109910000Y-82400000D01*
X105910000Y-82100000D02*
G75*
G02*
X106410000Y-81600000I500000J0D01*
G01*
X106410000Y-77600000D02*
G75*
G02*
X104910000Y-79100000I-1500000J0D01*
G01*
X114910000Y-62400000D02*
X115910000Y-62400000D01*
X114910000Y-63400000D02*
X114910000Y-62400000D01*
X114910000Y-76400000D02*
X114910000Y-75400000D01*
X115910000Y-76400000D02*
X114910000Y-76400000D01*
X119910000Y-73600000D02*
X120410000Y-73100000D01*
X119910000Y-77100000D02*
X120410000Y-77600000D01*
X120410000Y-73100000D02*
X122910000Y-73100000D01*
X120410000Y-77600000D02*
X123410000Y-77600000D01*
X123410000Y-77600000D02*
X123910000Y-77100000D01*
X123910000Y-76100000D02*
X123910000Y-77100000D01*
X124410000Y-70900000D02*
X128910000Y-70900000D01*
X124410000Y-71600000D02*
X124410000Y-70900000D01*
X127910000Y-62400000D02*
X128910000Y-62400000D01*
X128910000Y-62400000D02*
X128910000Y-63400000D01*
X128910000Y-70900000D02*
X128910000Y-71400000D01*
X128910000Y-75000000D02*
X128910000Y-75600000D01*
X128910000Y-75400000D02*
X128910000Y-76400000D01*
X128910000Y-75600000D02*
X124410000Y-75600000D01*
X128910000Y-76400000D02*
X127910000Y-76400000D01*
X123910000Y-76100000D02*
G75*
G02*
X124410000Y-75600000I500000J0D01*
G01*
X124410000Y-71600000D02*
G75*
G02*
X122910000Y-73100000I-1500000J0D01*
G01*
X132910000Y-69020000D02*
X133910000Y-69020000D01*
X132910000Y-70020000D02*
X132910000Y-69020000D01*
X132910000Y-83020000D02*
X132910000Y-82020000D01*
X133910000Y-83020000D02*
X132910000Y-83020000D01*
X137910000Y-80220000D02*
X138410000Y-79720000D01*
X137910000Y-83720000D02*
X138410000Y-84220000D01*
X138410000Y-79720000D02*
X140910000Y-79720000D01*
X138410000Y-84220000D02*
X141410000Y-84220000D01*
X141410000Y-84220000D02*
X141910000Y-83720000D01*
X141910000Y-82720000D02*
X141910000Y-83720000D01*
X142410000Y-77520000D02*
X146910000Y-77520000D01*
X142410000Y-78220000D02*
X142410000Y-77520000D01*
X145910000Y-69020000D02*
X146910000Y-69020000D01*
X146910000Y-69020000D02*
X146910000Y-70020000D01*
X146910000Y-77520000D02*
X146910000Y-78020000D01*
X146910000Y-81620000D02*
X146910000Y-82220000D01*
X146910000Y-82020000D02*
X146910000Y-83020000D01*
X146910000Y-82220000D02*
X142410000Y-82220000D01*
X146910000Y-83020000D02*
X145910000Y-83020000D01*
X141910000Y-82720000D02*
G75*
G02*
X142410000Y-82220000I500000J0D01*
G01*
X142410000Y-78220000D02*
G75*
G02*
X140910000Y-79720000I-1500000J0D01*
G01*
X150910000Y-71400000D02*
X151910000Y-71400000D01*
X150910000Y-72400000D02*
X150910000Y-71400000D01*
X150910000Y-85400000D02*
X150910000Y-84400000D01*
X151910000Y-85400000D02*
X150910000Y-85400000D01*
X155910000Y-82600000D02*
X156410000Y-82100000D01*
X155910000Y-86100000D02*
X156410000Y-86600000D01*
X156410000Y-82100000D02*
X158910000Y-82100000D01*
X156410000Y-86600000D02*
X159410000Y-86600000D01*
X159410000Y-86600000D02*
X159910000Y-86100000D01*
X159910000Y-85100000D02*
X159910000Y-86100000D01*
X160410000Y-79900000D02*
X164910000Y-79900000D01*
X160410000Y-80600000D02*
X160410000Y-79900000D01*
X163910000Y-71400000D02*
X164910000Y-71400000D01*
X164910000Y-71400000D02*
X164910000Y-72400000D01*
X164910000Y-79900000D02*
X164910000Y-80400000D01*
X164910000Y-84000000D02*
X164910000Y-84600000D01*
X164910000Y-84400000D02*
X164910000Y-85400000D01*
X164910000Y-84600000D02*
X160410000Y-84600000D01*
X164910000Y-85400000D02*
X163910000Y-85400000D01*
X159910000Y-85100000D02*
G75*
G02*
X160410000Y-84600000I500000J0D01*
G01*
X160410000Y-80600000D02*
G75*
G02*
X158910000Y-82100000I-1500000J0D01*
G01*
X78910000Y-97400000D02*
X79910000Y-97400000D01*
X78910000Y-98400000D02*
X78910000Y-97400000D01*
X78910000Y-111400000D02*
X78910000Y-110400000D01*
X79910000Y-111400000D02*
X78910000Y-111400000D01*
X83910000Y-108600000D02*
X84410000Y-108100000D01*
X83910000Y-112100000D02*
X84410000Y-112600000D01*
X84410000Y-108100000D02*
X86910000Y-108100000D01*
X84410000Y-112600000D02*
X87410000Y-112600000D01*
X87410000Y-112600000D02*
X87910000Y-112100000D01*
X87910000Y-111100000D02*
X87910000Y-112100000D01*
X88410000Y-105900000D02*
X92910000Y-105900000D01*
X88410000Y-106600000D02*
X88410000Y-105900000D01*
X91910000Y-97400000D02*
X92910000Y-97400000D01*
X92910000Y-97400000D02*
X92910000Y-98400000D01*
X92910000Y-105900000D02*
X92910000Y-106400000D01*
X92910000Y-110000000D02*
X92910000Y-110600000D01*
X92910000Y-110400000D02*
X92910000Y-111400000D01*
X92910000Y-110600000D02*
X88410000Y-110600000D01*
X92910000Y-111400000D02*
X91910000Y-111400000D01*
X87910000Y-111100000D02*
G75*
G02*
X88410000Y-110600000I500000J0D01*
G01*
X88410000Y-106600000D02*
G75*
G02*
X86910000Y-108100000I-1500000J0D01*
G01*
X96910000Y-85400000D02*
X97910000Y-85400000D01*
X96910000Y-86400000D02*
X96910000Y-85400000D01*
X96910000Y-99400000D02*
X96910000Y-98400000D01*
X97910000Y-99400000D02*
X96910000Y-99400000D01*
X101910000Y-96600000D02*
X102410000Y-96100000D01*
X101910000Y-100100000D02*
X102410000Y-100600000D01*
X102410000Y-96100000D02*
X104910000Y-96100000D01*
X102410000Y-100600000D02*
X105410000Y-100600000D01*
X105410000Y-100600000D02*
X105910000Y-100100000D01*
X105910000Y-99100000D02*
X105910000Y-100100000D01*
X106410000Y-93900000D02*
X110910000Y-93900000D01*
X106410000Y-94600000D02*
X106410000Y-93900000D01*
X109910000Y-85400000D02*
X110910000Y-85400000D01*
X110910000Y-85400000D02*
X110910000Y-86400000D01*
X110910000Y-93900000D02*
X110910000Y-94400000D01*
X110910000Y-98000000D02*
X110910000Y-98600000D01*
X110910000Y-98400000D02*
X110910000Y-99400000D01*
X110910000Y-98600000D02*
X106410000Y-98600000D01*
X110910000Y-99400000D02*
X109910000Y-99400000D01*
X105910000Y-99100000D02*
G75*
G02*
X106410000Y-98600000I500000J0D01*
G01*
X106410000Y-94600000D02*
G75*
G02*
X104910000Y-96100000I-1500000J0D01*
G01*
X114910000Y-79400000D02*
X115910000Y-79400000D01*
X114910000Y-80400000D02*
X114910000Y-79400000D01*
X114910000Y-93400000D02*
X114910000Y-92400000D01*
X115910000Y-93400000D02*
X114910000Y-93400000D01*
X119910000Y-90600000D02*
X120410000Y-90100000D01*
X119910000Y-94100000D02*
X120410000Y-94600000D01*
X120410000Y-90100000D02*
X122910000Y-90100000D01*
X120410000Y-94600000D02*
X123410000Y-94600000D01*
X123410000Y-94600000D02*
X123910000Y-94100000D01*
X123910000Y-93100000D02*
X123910000Y-94100000D01*
X124410000Y-87900000D02*
X128910000Y-87900000D01*
X124410000Y-88600000D02*
X124410000Y-87900000D01*
X127910000Y-79400000D02*
X128910000Y-79400000D01*
X128910000Y-79400000D02*
X128910000Y-80400000D01*
X128910000Y-87900000D02*
X128910000Y-88400000D01*
X128910000Y-92000000D02*
X128910000Y-92600000D01*
X128910000Y-92400000D02*
X128910000Y-93400000D01*
X128910000Y-92600000D02*
X124410000Y-92600000D01*
X128910000Y-93400000D02*
X127910000Y-93400000D01*
X123910000Y-93100000D02*
G75*
G02*
X124410000Y-92600000I500000J0D01*
G01*
X124410000Y-88600000D02*
G75*
G02*
X122910000Y-90100000I-1500000J0D01*
G01*
X132910000Y-86025000D02*
X133910000Y-86025000D01*
X132910000Y-87025000D02*
X132910000Y-86025000D01*
X132910000Y-100025000D02*
X132910000Y-99025000D01*
X133910000Y-100025000D02*
X132910000Y-100025000D01*
X137910000Y-97225000D02*
X138410000Y-96725000D01*
X137910000Y-100725000D02*
X138410000Y-101225000D01*
X138410000Y-96725000D02*
X140910000Y-96725000D01*
X138410000Y-101225000D02*
X141410000Y-101225000D01*
X141410000Y-101225000D02*
X141910000Y-100725000D01*
X141910000Y-99725000D02*
X141910000Y-100725000D01*
X142410000Y-94525000D02*
X146910000Y-94525000D01*
X142410000Y-95225000D02*
X142410000Y-94525000D01*
X145910000Y-86025000D02*
X146910000Y-86025000D01*
X146910000Y-86025000D02*
X146910000Y-87025000D01*
X146910000Y-94525000D02*
X146910000Y-95025000D01*
X146910000Y-98625000D02*
X146910000Y-99225000D01*
X146910000Y-99025000D02*
X146910000Y-100025000D01*
X146910000Y-99225000D02*
X142410000Y-99225000D01*
X146910000Y-100025000D02*
X145910000Y-100025000D01*
X141910000Y-99725000D02*
G75*
G02*
X142410000Y-99225000I500000J0D01*
G01*
X142410000Y-95225000D02*
G75*
G02*
X140910000Y-96725000I-1500000J0D01*
G01*
X150910000Y-88400000D02*
X151910000Y-88400000D01*
X150910000Y-89400000D02*
X150910000Y-88400000D01*
X150910000Y-102400000D02*
X150910000Y-101400000D01*
X151910000Y-102400000D02*
X150910000Y-102400000D01*
X155910000Y-99600000D02*
X156410000Y-99100000D01*
X155910000Y-103100000D02*
X156410000Y-103600000D01*
X156410000Y-99100000D02*
X158910000Y-99100000D01*
X156410000Y-103600000D02*
X159410000Y-103600000D01*
X159410000Y-103600000D02*
X159910000Y-103100000D01*
X159910000Y-102100000D02*
X159910000Y-103100000D01*
X160410000Y-96900000D02*
X164910000Y-96900000D01*
X160410000Y-97600000D02*
X160410000Y-96900000D01*
X163910000Y-88400000D02*
X164910000Y-88400000D01*
X164910000Y-88400000D02*
X164910000Y-89400000D01*
X164910000Y-96900000D02*
X164910000Y-97400000D01*
X164910000Y-101000000D02*
X164910000Y-101600000D01*
X164910000Y-101400000D02*
X164910000Y-102400000D01*
X164910000Y-101600000D02*
X160410000Y-101600000D01*
X164910000Y-102400000D02*
X163910000Y-102400000D01*
X159910000Y-102100000D02*
G75*
G02*
X160410000Y-101600000I500000J0D01*
G01*
X160410000Y-97600000D02*
G75*
G02*
X158910000Y-99100000I-1500000J0D01*
G01*
X151130403Y-126107792D02*
X151300613Y-125122384D01*
X152115811Y-126278001D02*
X151130403Y-126107792D01*
X152577184Y-117731825D02*
X152662289Y-117239121D01*
X153275043Y-113691652D02*
X153377169Y-113100408D01*
X153343127Y-113297489D02*
X153513336Y-112312081D01*
X153377169Y-113100408D02*
X157811504Y-113866350D01*
X153513336Y-112312081D02*
X154498744Y-112482291D01*
X157011520Y-118497767D02*
X152577184Y-117731825D01*
X157130666Y-117807982D02*
X157011520Y-118497767D01*
X158389313Y-113458751D02*
X158559522Y-112473343D01*
X159137331Y-112065744D02*
X158559522Y-112473343D01*
X161327612Y-117010708D02*
X158864092Y-116585184D01*
X161905421Y-116603109D02*
X161327612Y-117010708D01*
X162093555Y-112576371D02*
X159137331Y-112065744D01*
X162501154Y-113154181D02*
X162093555Y-112576371D01*
X164926114Y-128490725D02*
X163940706Y-128320515D01*
X165096323Y-127505317D02*
X164926114Y-128490725D01*
X166323639Y-114524805D02*
X167309047Y-114695014D01*
X167309047Y-114695014D02*
X167138837Y-115680422D01*
X157130666Y-117807982D02*
G75*
G02*
X158864092Y-116585184I1478112J-255314D01*
G01*
X158389313Y-113458751D02*
G75*
G02*
X157811504Y-113866350I-492704J85105D01*
G01*
X169786629Y-129763982D02*
X170118791Y-128820759D01*
X170729852Y-130096143D02*
X169786629Y-129763982D01*
X172609999Y-121746589D02*
X172776080Y-121274978D01*
X173971860Y-117879376D02*
X174171156Y-117313444D01*
X174104724Y-117502087D02*
X174436885Y-116558864D01*
X174171156Y-117313444D02*
X178415658Y-118808168D01*
X174436885Y-116558864D02*
X175380108Y-116891026D01*
X176854501Y-123241314D02*
X172609999Y-121746589D01*
X177087014Y-122581059D02*
X176854501Y-123241314D01*
X179053350Y-118502637D02*
X179385511Y-117559414D01*
X180023203Y-117253884D02*
X179385511Y-117559414D01*
X181358146Y-122494869D02*
X179000090Y-121664466D01*
X181995838Y-122189338D02*
X181358146Y-122494869D01*
X182852871Y-118250367D02*
X180023203Y-117253884D01*
X182991747Y-134414238D02*
X182048524Y-134082076D01*
X183158402Y-118888059D02*
X182852871Y-118250367D01*
X183323908Y-133471015D02*
X182991747Y-134414238D01*
X186698780Y-120876959D02*
X187642003Y-121209120D01*
X187642003Y-121209120D02*
X187309841Y-122152343D01*
X177087014Y-122581059D02*
G75*
G02*
X179000090Y-121664466I1414834J-498241D01*
G01*
X179053350Y-118502637D02*
G75*
G02*
X178415658Y-118808167I-471611J166081D01*
G01*
X187968382Y-136834806D02*
X188453191Y-135960186D01*
X188843001Y-137319615D02*
X187968382Y-136834806D01*
X192089263Y-129400538D02*
X192331668Y-128963228D01*
X194076983Y-125814597D02*
X194367869Y-125289825D01*
X194270907Y-125464749D02*
X194755716Y-124590130D01*
X194367869Y-125289825D02*
X198303657Y-127471468D01*
X194755716Y-124590130D02*
X195630336Y-125074939D01*
X196025052Y-131582181D02*
X192089263Y-129400538D01*
X196364419Y-130969948D02*
X196025052Y-131582181D01*
X198983372Y-127276564D02*
X199468182Y-126401944D01*
X200147896Y-126207039D02*
X199468182Y-126401944D01*
X200213058Y-143622140D02*
X199338438Y-143137331D01*
X200590112Y-131597257D02*
X198403563Y-130385232D01*
X200697867Y-142747521D02*
X200213058Y-143622140D01*
X201269827Y-131402351D02*
X200590112Y-131597257D01*
X202771755Y-127661468D02*
X200147896Y-126207039D01*
X202966660Y-128341182D02*
X202771755Y-127661468D01*
X206125773Y-130892655D02*
X207000392Y-131377464D01*
X207000392Y-131377464D02*
X206515583Y-132252084D01*
X196364419Y-130969948D02*
G75*
G02*
X198403562Y-130385233I1311929J-727214D01*
G01*
X198983372Y-127276564D02*
G75*
G02*
X198303657Y-127471469I-437310J242405D01*
G01*
X169676400Y-56330400D02*
X172216400Y-56330400D01*
X169676400Y-86810400D02*
X169676400Y-56330400D01*
X172216400Y-56330400D02*
X172216400Y-86810400D01*
X172216400Y-86810400D02*
X169676400Y-86810400D01*
X184896400Y-56330400D02*
X187436400Y-56330400D01*
X184896400Y-86810400D02*
X184896400Y-56330400D01*
X187436400Y-56330400D02*
X187436400Y-86810400D01*
X187436400Y-86810400D02*
X184896400Y-86810400D01*
X176861000Y-88596000D02*
X178639000Y-88596000D01*
X176861000Y-90882000D02*
X176861000Y-88596000D01*
X178639000Y-88596000D02*
X178639000Y-90882000D01*
X178639000Y-90882000D02*
X176861000Y-90882000D01*
X171510000Y-91197400D02*
X183950000Y-91197400D01*
X171510000Y-93497400D02*
X171510000Y-91197400D01*
X171510000Y-93497400D02*
X183950000Y-93497400D01*
X183950000Y-91197400D02*
X183950000Y-93497400D01*
X174311000Y-88596000D02*
X176089000Y-88596000D01*
X174311000Y-90882000D02*
X174311000Y-88596000D01*
X176089000Y-88596000D02*
X176089000Y-90882000D01*
X176089000Y-90882000D02*
X174311000Y-90882000D01*
X171771000Y-88594400D02*
X173549000Y-88594400D01*
X171771000Y-90880400D02*
X171771000Y-88594400D01*
X173549000Y-88594400D02*
X173549000Y-90880400D01*
X173549000Y-90880400D02*
X171771000Y-90880400D01*
X179441000Y-88596000D02*
X181219000Y-88596000D01*
X179441000Y-90882000D02*
X179441000Y-88596000D01*
X181219000Y-88596000D02*
X181219000Y-90882000D01*
X181219000Y-90882000D02*
X179441000Y-90882000D01*
X179753000Y-93842000D02*
X179753000Y-94092000D01*
X179753000Y-93842000D02*
X185753000Y-93842000D01*
X179753000Y-97342000D02*
X179753000Y-97092000D01*
X179753000Y-97342000D02*
X185753000Y-97342000D01*
X185753000Y-93842000D02*
X185753000Y-94092000D01*
X185753000Y-97342000D02*
X185753000Y-97092000D01*
X182021000Y-88596000D02*
X183799000Y-88596000D01*
X182021000Y-90882000D02*
X182021000Y-88596000D01*
X183799000Y-88596000D02*
X183799000Y-90882000D01*
X183799000Y-90882000D02*
X182021000Y-90882000D01*
X101170000Y-102540000D02*
X101170000Y-104040000D01*
X101170000Y-104040000D02*
X106570000Y-104040000D01*
X103370000Y-102790000D02*
X103370000Y-103790000D01*
X103470000Y-103290000D02*
X104370000Y-102790000D01*
X104370000Y-102790000D02*
X104370000Y-103790000D01*
X104370000Y-103790000D02*
X103470000Y-103290000D01*
X106570000Y-102540000D02*
X101170000Y-102540000D01*
X106570000Y-104040000D02*
X106570000Y-102540000D01*
X96910000Y-102400000D02*
X97910000Y-102400000D01*
X96910000Y-103400000D02*
X96910000Y-102400000D01*
X96910000Y-116400000D02*
X96910000Y-115400000D01*
X97910000Y-116400000D02*
X96910000Y-116400000D01*
X101910000Y-113600000D02*
X102410000Y-113100000D01*
X101910000Y-117100000D02*
X102410000Y-117600000D01*
X102410000Y-113100000D02*
X104910000Y-113100000D01*
X102410000Y-117600000D02*
X105410000Y-117600000D01*
X105410000Y-117600000D02*
X105910000Y-117100000D01*
X105910000Y-116100000D02*
X105910000Y-117100000D01*
X106410000Y-110900000D02*
X110910000Y-110900000D01*
X106410000Y-111600000D02*
X106410000Y-110900000D01*
X109910000Y-102400000D02*
X110910000Y-102400000D01*
X110910000Y-102400000D02*
X110910000Y-103400000D01*
X110910000Y-110900000D02*
X110910000Y-111400000D01*
X110910000Y-115000000D02*
X110910000Y-115600000D01*
X110910000Y-115400000D02*
X110910000Y-116400000D01*
X110910000Y-115600000D02*
X106410000Y-115600000D01*
X110910000Y-116400000D02*
X109910000Y-116400000D01*
X105910000Y-116100000D02*
G75*
G02*
X106410000Y-115600000I500000J0D01*
G01*
X106410000Y-111600000D02*
G75*
G02*
X104910000Y-113100000I-1500000J0D01*
G01*
X169461000Y-90946380D02*
X171239000Y-90946380D01*
X169461000Y-93232380D02*
X169461000Y-90946380D01*
X171239000Y-90946380D02*
X171239000Y-93232380D01*
X171239000Y-93232380D02*
X169461000Y-93232380D01*
D13*
X172927064Y-105604000D02*
X172472936Y-105604000D01*
X172927064Y-107074000D02*
X172472936Y-107074000D01*
D10*
X174800000Y-53937500D02*
X181400000Y-53937500D01*
X174800000Y-56637500D02*
X174800000Y-53937500D01*
X178300000Y-53937500D02*
X178300000Y-52437500D01*
X179600000Y-52437500D02*
X178300000Y-52437500D01*
X179600000Y-53937500D02*
X179600000Y-52437500D01*
X181400000Y-53937500D02*
X181400000Y-56637500D01*
X181400000Y-56637500D02*
X174800000Y-56637500D01*
D13*
X173027064Y-107954000D02*
X172572936Y-107954000D01*
X173027064Y-109424000D02*
X172572936Y-109424000D01*
X124504814Y-118526457D02*
X125229507Y-115821865D01*
X126134014Y-108196128D02*
X126713569Y-108351419D01*
X126346146Y-108563550D02*
X126134014Y-108196128D01*
X126713569Y-108351419D02*
X126346146Y-108563550D01*
X127765934Y-106355791D02*
X127118886Y-108770606D01*
X129237851Y-119794670D02*
X124504814Y-118526457D01*
X132124114Y-114045803D02*
X133090040Y-114304622D01*
X132402378Y-107598123D02*
X127765934Y-106355791D01*
X132736487Y-113692248D02*
X132477668Y-114658174D01*
X135976303Y-108555753D02*
X140709340Y-109823966D01*
X137448220Y-121994632D02*
X132715184Y-120726418D01*
X138121149Y-119483224D02*
X137448220Y-121994632D01*
X139415245Y-114653595D02*
X138742315Y-117165003D01*
X140709340Y-109823966D02*
X140036413Y-112335374D01*
X135607078Y-114175212D02*
G75*
G02*
X129607076Y-114175212I-3000001J0D01*
G01*
X129607076Y-114175212D02*
G75*
G02*
X135607078Y-114175212I3000001J0D01*
G01*
D14*
X174325000Y-96351500D02*
X174325000Y-97351500D01*
X174325000Y-97351500D02*
X173325000Y-97351500D01*
X174325000Y-97351500D02*
X174325000Y-98351500D01*
X175325000Y-97351500D02*
X174325000Y-97351500D01*
X176925000Y-97351500D02*
X175925000Y-97351500D01*
X177925000Y-97351500D02*
X176925000Y-97351500D01*
D13*
X175072936Y-64665000D02*
X175527064Y-64665000D01*
X175072936Y-66135000D02*
X175527064Y-66135000D01*
D10*
X174800000Y-53937500D02*
X174800000Y-56637500D01*
X174800000Y-56637500D02*
X181400000Y-56637500D01*
X178300000Y-52437500D02*
X178300000Y-53937500D01*
X178300000Y-52437500D02*
X179600000Y-52437500D01*
X179600000Y-52437500D02*
X179600000Y-53937500D01*
X181400000Y-53937500D02*
X174800000Y-53937500D01*
X181400000Y-56637500D02*
X181400000Y-53937500D01*
D15*
X82194400Y-64312800D03*
D16*
X89814400Y-64312800D03*
D15*
X100279200Y-52273200D03*
D16*
X107899200Y-52273200D03*
D15*
X118262400Y-46228000D03*
D16*
X125882400Y-46228000D03*
D15*
X136194800Y-53289200D03*
D16*
X143814800Y-53289200D03*
D15*
X154178000Y-55422800D03*
D16*
X161798000Y-55422800D03*
D15*
X82092800Y-81229200D03*
D16*
X89712800Y-81229200D03*
D15*
X100076000Y-69342000D03*
D16*
X107696000Y-69342000D03*
D15*
X118160800Y-63347600D03*
D16*
X125780800Y-63347600D03*
D15*
X136144000Y-69900800D03*
D16*
X143764000Y-69900800D03*
D15*
X154482800Y-72491600D03*
D16*
X162102800Y-72491600D03*
D15*
X82092800Y-98247200D03*
D16*
X89712800Y-98247200D03*
D15*
X100177600Y-86309200D03*
D16*
X107797600Y-86309200D03*
D15*
X118160800Y-80314800D03*
D16*
X125780800Y-80314800D03*
D15*
X136245600Y-86969600D03*
D16*
X143865600Y-86969600D03*
D15*
X154279600Y-89357200D03*
D16*
X161899600Y-89357200D03*
D17*
X154379898Y-125740731D03*
D16*
X161888706Y-127037727D03*
D18*
X173128321Y-129965695D03*
D16*
X180315677Y-132496765D03*
D19*
X191139589Y-137610567D03*
D16*
X197804191Y-141304817D03*
D20*
X186460000Y-101700000D03*
X179460000Y-101700000D03*
X186460000Y-103450000D03*
X179460000Y-103450000D03*
D21*
X176160000Y-101350000D03*
X176160000Y-103800000D03*
X184660000Y-99600000D03*
X184660000Y-105550000D03*
X181660000Y-99600000D03*
X181660000Y-105550000D03*
X177660000Y-99600000D03*
X177660000Y-105550000D03*
D22*
X169620000Y-58870400D03*
X186166400Y-57600400D03*
X169620000Y-61410400D03*
X186166400Y-60140400D03*
X169620000Y-63950400D03*
X186166400Y-62680400D03*
X169620000Y-66490400D03*
X186166400Y-65220400D03*
X169620000Y-69030400D03*
X186166400Y-67760400D03*
X169620000Y-71570400D03*
X186166400Y-70300400D03*
X169620000Y-74110400D03*
X186166400Y-72840400D03*
X169620000Y-76650400D03*
X186166400Y-75380400D03*
X169620000Y-79190400D03*
X186166400Y-77920400D03*
X169620000Y-81730400D03*
X186166400Y-80460400D03*
X169620000Y-84270400D03*
X186166400Y-83000400D03*
X169620000Y-86810400D03*
X186166400Y-85540400D03*
X170946400Y-85540400D03*
X184860000Y-86810400D03*
X170946400Y-83000400D03*
X184860000Y-84270400D03*
X170946400Y-80460400D03*
X184860000Y-81730400D03*
X170946400Y-77920400D03*
X184860000Y-79190400D03*
X170946400Y-75380400D03*
X184860000Y-76650400D03*
X170946400Y-72840400D03*
X184860000Y-74110400D03*
X170946400Y-70300400D03*
X184860000Y-71570400D03*
X170946400Y-67760400D03*
X184860000Y-69030400D03*
X170946400Y-65220400D03*
X184860000Y-66490400D03*
X170946400Y-62680400D03*
X184860000Y-63950400D03*
X170946400Y-60140400D03*
X184860000Y-61410400D03*
X170946400Y-57600400D03*
X184860000Y-58870400D03*
D23*
X186003000Y-95592000D03*
X179503000Y-95592000D03*
D15*
X100060000Y-103290000D03*
D16*
X107680000Y-103290000D03*
%LPC*%
D24*
X82194400Y-64312800D03*
D25*
X84229400Y-64312800D03*
X87779400Y-64312800D03*
D26*
X89814400Y-64312800D03*
D24*
X100279200Y-52273200D03*
D25*
X102314200Y-52273200D03*
X105864200Y-52273200D03*
D26*
X107899200Y-52273200D03*
D24*
X118262400Y-46228000D03*
D25*
X120297400Y-46228000D03*
X123847400Y-46228000D03*
D26*
X125882400Y-46228000D03*
D24*
X136194800Y-53289200D03*
D25*
X138229800Y-53289200D03*
X141779800Y-53289200D03*
D26*
X143814800Y-53289200D03*
D24*
X154178000Y-55422800D03*
D25*
X156213000Y-55422800D03*
X159763000Y-55422800D03*
D26*
X161798000Y-55422800D03*
D24*
X82092800Y-81229200D03*
D25*
X84127800Y-81229200D03*
X87677800Y-81229200D03*
D26*
X89712800Y-81229200D03*
D24*
X100076000Y-69342000D03*
D25*
X102111000Y-69342000D03*
X105661000Y-69342000D03*
D26*
X107696000Y-69342000D03*
D24*
X118160800Y-63347600D03*
D25*
X120195800Y-63347600D03*
X123745800Y-63347600D03*
D26*
X125780800Y-63347600D03*
D24*
X136144000Y-69900800D03*
D25*
X138179000Y-69900800D03*
X141729000Y-69900800D03*
D26*
X143764000Y-69900800D03*
D24*
X154482800Y-72491600D03*
D25*
X156517800Y-72491600D03*
X160067800Y-72491600D03*
D26*
X162102800Y-72491600D03*
D24*
X82092800Y-98247200D03*
D25*
X84127800Y-98247200D03*
X87677800Y-98247200D03*
D26*
X89712800Y-98247200D03*
D24*
X100177600Y-86309200D03*
D25*
X102212600Y-86309200D03*
X105762600Y-86309200D03*
D26*
X107797600Y-86309200D03*
D24*
X118160800Y-80314800D03*
D25*
X120195800Y-80314800D03*
X123745800Y-80314800D03*
D26*
X125780800Y-80314800D03*
D24*
X136245600Y-86969600D03*
D25*
X138280600Y-86969600D03*
X141830600Y-86969600D03*
D26*
X143865600Y-86969600D03*
D24*
X154279600Y-89357200D03*
D25*
X156314600Y-89357200D03*
X159864600Y-89357200D03*
D26*
X161899600Y-89357200D03*
D27*
X154379898Y-125740731D03*
D28*
X156385203Y-126087107D03*
X159883401Y-126691351D03*
D26*
X161888706Y-127037727D03*
D29*
X173128321Y-129965695D03*
D30*
X175047779Y-130641644D03*
X178396219Y-131820816D03*
D26*
X180315677Y-132496765D03*
D31*
X191139589Y-137610567D03*
D32*
X192919440Y-138597155D03*
X196024340Y-140318229D03*
D26*
X197804191Y-141304817D03*
D33*
X186460000Y-101700000D03*
X179460000Y-101700000D03*
X186460000Y-103450000D03*
X179460000Y-103450000D03*
D34*
X176160000Y-101350000D03*
X176160000Y-103800000D03*
X184660000Y-99600000D03*
X184660000Y-105550000D03*
X181660000Y-99600000D03*
X181660000Y-105550000D03*
X177660000Y-99600000D03*
X177660000Y-105550000D03*
D35*
X80410000Y-70400000D03*
D36*
X80690000Y-66200000D03*
D37*
X80910000Y-74150000D03*
D38*
X85910000Y-70400000D03*
D37*
X85910000Y-76350000D03*
X90910000Y-74150000D03*
D36*
X91130000Y-66200000D03*
D35*
X91410000Y-70400000D03*
D39*
X82635000Y-76350000D03*
D40*
X94185000Y-74150000D03*
D35*
X98410000Y-58400000D03*
D36*
X98690000Y-54200000D03*
D37*
X98910000Y-62150000D03*
D38*
X103910000Y-58400000D03*
D37*
X103910000Y-64350000D03*
X108910000Y-62150000D03*
D36*
X109130000Y-54200000D03*
D35*
X109410000Y-58400000D03*
D39*
X100635000Y-64350000D03*
D40*
X112185000Y-62150000D03*
D35*
X116410000Y-52400000D03*
D36*
X116690000Y-48200000D03*
D37*
X116910000Y-56150000D03*
D38*
X121910000Y-52400000D03*
D37*
X121910000Y-58350000D03*
X126910000Y-56150000D03*
D36*
X127130000Y-48200000D03*
D35*
X127410000Y-52400000D03*
D39*
X118635000Y-58350000D03*
D40*
X130185000Y-56150000D03*
D35*
X134410000Y-59020000D03*
D36*
X134690000Y-54820000D03*
D37*
X134910000Y-62770000D03*
D38*
X139910000Y-59020000D03*
D37*
X139910000Y-64970000D03*
X144910000Y-62770000D03*
D36*
X145130000Y-54820000D03*
D35*
X145410000Y-59020000D03*
D39*
X136635000Y-64970000D03*
D40*
X148185000Y-62770000D03*
D35*
X152410000Y-61400000D03*
D36*
X152690000Y-57200000D03*
D37*
X152910000Y-65150000D03*
D38*
X157910000Y-61400000D03*
D37*
X157910000Y-67350000D03*
X162910000Y-65150000D03*
D36*
X163130000Y-57200000D03*
D35*
X163410000Y-61400000D03*
D39*
X154635000Y-67350000D03*
D40*
X166185000Y-65150000D03*
D35*
X80410000Y-87400000D03*
D36*
X80690000Y-83200000D03*
D37*
X80910000Y-91150000D03*
D38*
X85910000Y-87400000D03*
D37*
X85910000Y-93350000D03*
X90910000Y-91150000D03*
D36*
X91130000Y-83200000D03*
D35*
X91410000Y-87400000D03*
D39*
X82635000Y-93350000D03*
D40*
X94185000Y-91150000D03*
D35*
X98410000Y-75400000D03*
D36*
X98690000Y-71200000D03*
D37*
X98910000Y-79150000D03*
D38*
X103910000Y-75400000D03*
D37*
X103910000Y-81350000D03*
X108910000Y-79150000D03*
D36*
X109130000Y-71200000D03*
D35*
X109410000Y-75400000D03*
D39*
X100635000Y-81350000D03*
D40*
X112185000Y-79150000D03*
D35*
X116410000Y-69400000D03*
D36*
X116690000Y-65200000D03*
D37*
X116910000Y-73150000D03*
D38*
X121910000Y-69400000D03*
D37*
X121910000Y-75350000D03*
X126910000Y-73150000D03*
D36*
X127130000Y-65200000D03*
D35*
X127410000Y-69400000D03*
D39*
X118635000Y-75350000D03*
D40*
X130185000Y-73150000D03*
D35*
X134410000Y-76020000D03*
D36*
X134690000Y-71820000D03*
D37*
X134910000Y-79770000D03*
D38*
X139910000Y-76020000D03*
D37*
X139910000Y-81970000D03*
X144910000Y-79770000D03*
D36*
X145130000Y-71820000D03*
D35*
X145410000Y-76020000D03*
D39*
X136635000Y-81970000D03*
D40*
X148185000Y-79770000D03*
D35*
X152410000Y-78400000D03*
D36*
X152690000Y-74200000D03*
D37*
X152910000Y-82150000D03*
D38*
X157910000Y-78400000D03*
D37*
X157910000Y-84350000D03*
X162910000Y-82150000D03*
D36*
X163130000Y-74200000D03*
D35*
X163410000Y-78400000D03*
D39*
X154635000Y-84350000D03*
D40*
X166185000Y-82150000D03*
D35*
X80410000Y-104400000D03*
D36*
X80690000Y-100200000D03*
D37*
X80910000Y-108150000D03*
D38*
X85910000Y-104400000D03*
D37*
X85910000Y-110350000D03*
X90910000Y-108150000D03*
D36*
X91130000Y-100200000D03*
D35*
X91410000Y-104400000D03*
D39*
X82635000Y-110350000D03*
D41*
X93810000Y-108150000D03*
D35*
X98410000Y-92400000D03*
D36*
X98690000Y-88200000D03*
D37*
X98910000Y-96150000D03*
D38*
X103910000Y-92400000D03*
D37*
X103910000Y-98350000D03*
X108910000Y-96150000D03*
D36*
X109130000Y-88200000D03*
D35*
X109410000Y-92400000D03*
D39*
X100635000Y-98350000D03*
D40*
X112185000Y-96150000D03*
D35*
X116410000Y-86400000D03*
D36*
X116690000Y-82200000D03*
D37*
X116910000Y-90150000D03*
D38*
X121910000Y-86400000D03*
D37*
X121910000Y-92350000D03*
X126910000Y-90150000D03*
D36*
X127130000Y-82200000D03*
D35*
X127410000Y-86400000D03*
D39*
X118635000Y-92350000D03*
D40*
X130185000Y-90150000D03*
D35*
X134410000Y-93025000D03*
D36*
X134690000Y-88825000D03*
D37*
X134910000Y-96775000D03*
D38*
X139910000Y-93025000D03*
D37*
X139910000Y-98975000D03*
X144910000Y-96775000D03*
D36*
X145130000Y-88825000D03*
D35*
X145410000Y-93025000D03*
D39*
X136635000Y-98975000D03*
D40*
X148185000Y-96775000D03*
D35*
X152410000Y-95400000D03*
D36*
X152690000Y-91200000D03*
D37*
X152910000Y-99150000D03*
D38*
X157910000Y-95400000D03*
D37*
X157910000Y-101350000D03*
X162910000Y-99150000D03*
D36*
X163130000Y-91200000D03*
D35*
X163410000Y-95400000D03*
D39*
X154635000Y-101350000D03*
D40*
X166185000Y-99150000D03*
D35*
X164639468Y-121337555D03*
D36*
X163648674Y-125428610D03*
D37*
X164785050Y-117557171D03*
D38*
X159219725Y-120401403D03*
D37*
X160232472Y-114538226D03*
X154930971Y-115855076D03*
D36*
X153361016Y-123651623D03*
D35*
X153799982Y-119465251D03*
D42*
X163459682Y-115095662D03*
D43*
X151703760Y-115297640D03*
D35*
X183902041Y-127313437D03*
D36*
X182242862Y-131181967D03*
D37*
X184676034Y-123610272D03*
D38*
X178714316Y-125486551D03*
D37*
X180690675Y-119874376D03*
X175243807Y-120288660D03*
D36*
X172395617Y-127714205D03*
D35*
X173526591Y-123659665D03*
D44*
X183779729Y-120962204D03*
D45*
X172154753Y-119200833D03*
D35*
X202294795Y-136772588D03*
D36*
X200013701Y-140310244D03*
D37*
X203675522Y-133250359D03*
D38*
X197484387Y-134106135D03*
D37*
X200369004Y-128902148D03*
X194929325Y-128402263D03*
D36*
X190882672Y-135248832D03*
D35*
X192673979Y-131439682D03*
D46*
X203233384Y-130489899D03*
D47*
X192064945Y-126814511D03*
D48*
X169620000Y-58870400D03*
X186166400Y-57600400D03*
X169620000Y-61410400D03*
X186166400Y-60140400D03*
X169620000Y-63950400D03*
X186166400Y-62680400D03*
X169620000Y-66490400D03*
X186166400Y-65220400D03*
X169620000Y-69030400D03*
X186166400Y-67760400D03*
X169620000Y-71570400D03*
X186166400Y-70300400D03*
X169620000Y-74110400D03*
X186166400Y-72840400D03*
X169620000Y-76650400D03*
X186166400Y-75380400D03*
X169620000Y-79190400D03*
X186166400Y-77920400D03*
X169620000Y-81730400D03*
X186166400Y-80460400D03*
X169620000Y-84270400D03*
X186166400Y-83000400D03*
X169620000Y-86810400D03*
X186166400Y-85540400D03*
X170946400Y-85540400D03*
X184860000Y-86810400D03*
X170946400Y-83000400D03*
X184860000Y-84270400D03*
X170946400Y-80460400D03*
X184860000Y-81730400D03*
X170946400Y-77920400D03*
X184860000Y-79190400D03*
X170946400Y-75380400D03*
X184860000Y-76650400D03*
X170946400Y-72840400D03*
X184860000Y-74110400D03*
X170946400Y-70300400D03*
X184860000Y-71570400D03*
X170946400Y-67760400D03*
X184860000Y-69030400D03*
X170946400Y-65220400D03*
X184860000Y-66490400D03*
X170946400Y-62680400D03*
X184860000Y-63950400D03*
X170946400Y-60140400D03*
X184860000Y-61410400D03*
X170946400Y-57600400D03*
X184860000Y-58870400D03*
D49*
X177750000Y-89238620D03*
X177750000Y-90239380D03*
X175200000Y-89238620D03*
X175200000Y-90239380D03*
X172660000Y-89237020D03*
X172660000Y-90237780D03*
X180330000Y-89238620D03*
X180330000Y-90239380D03*
D50*
X186003000Y-95592000D03*
X179503000Y-95592000D03*
D51*
X112900000Y-66900000D03*
D49*
X182910000Y-89238620D03*
X182910000Y-90239380D03*
D24*
X100060000Y-103290000D03*
D25*
X102095000Y-103290000D03*
X105645000Y-103290000D03*
D26*
X107680000Y-103290000D03*
D35*
X98410000Y-109400000D03*
D36*
X98690000Y-105200000D03*
D37*
X98910000Y-113150000D03*
D52*
X103910000Y-109400000D03*
D37*
X103910000Y-115350000D03*
X108910000Y-113150000D03*
D36*
X109130000Y-105200000D03*
D35*
X109410000Y-109400000D03*
D39*
X100635000Y-115350000D03*
D40*
X112185000Y-113150000D03*
D53*
X170350000Y-92589760D03*
X170350000Y-91589000D03*
D51*
X187000000Y-132200000D03*
X94925000Y-66900000D03*
X149000000Y-86900000D03*
X181700000Y-111700000D03*
D54*
X173700000Y-106339000D03*
X171700000Y-106339000D03*
D55*
X179600000Y-55287500D03*
X176600000Y-55287500D03*
D56*
X180350000Y-57287500D03*
X177350000Y-57287500D03*
X175850000Y-57287500D03*
D57*
X181950000Y-56337500D03*
X181950000Y-54237500D03*
X174250000Y-56337500D03*
X174250000Y-54237500D03*
D54*
X173800000Y-108689000D03*
X171800000Y-108689000D03*
D51*
X119500000Y-107100000D03*
D58*
X126009681Y-109819254D03*
D50*
X124715586Y-114648883D03*
X125362634Y-112234069D03*
D59*
X134056463Y-108766027D03*
X131157690Y-119584396D03*
D50*
X140015605Y-113572130D03*
X138721510Y-118401759D03*
D51*
X113000000Y-83900000D03*
D60*
X176925000Y-95151500D03*
D61*
X174385000Y-95151500D03*
D51*
X148975000Y-69900000D03*
X146600000Y-110100000D03*
D62*
X174300000Y-65400000D03*
X176300000Y-65400000D03*
D51*
X94925000Y-83925000D03*
D55*
X176600000Y-55287500D03*
X179600000Y-55287500D03*
D63*
X175850000Y-57287500D03*
X177350000Y-57287500D03*
X180350000Y-57287500D03*
D64*
X174250000Y-54237500D03*
X174250000Y-56337500D03*
X181950000Y-54237500D03*
X181950000Y-56337500D03*
%LPD*%
M02*
