%TF.GenerationSoftware,KiCad,Pcbnew,8.0.4*%
%TF.CreationDate,2024-08-06T21:25:22+02:00*%
%TF.ProjectId,chocofi,63686f63-6f66-4692-9e6b-696361645f70,0.2*%
%TF.SameCoordinates,Original*%
%TF.FileFunction,Drillmap*%
%TF.FilePolarity,Positive*%
%FSLAX45Y45*%
G04 Gerber Fmt 4.5, Leading zero omitted, Abs format (unit mm)*
G04 Created by KiCad (PCBNEW 8.0.4) date 2024-08-06 21:25:22*
%MOMM*%
%LPD*%
G01*
G04 APERTURE LIST*
%ADD10C,0.150000*%
%ADD11C,0.200000*%
%ADD12C,0.100000*%
%ADD13C,0.120000*%
%ADD14C,0.170180*%
%ADD15C,0.300000*%
%ADD16C,0.342900*%
G04 APERTURE END LIST*
D10*
X18762000Y-5380500D02*
X16733040Y-5381502D01*
X9451545Y-6202085D02*
X7741920Y-6197600D01*
X20280000Y-14660000D02*
X21175870Y-13027287D01*
X18420000Y-13740000D02*
X20160000Y-14700000D01*
X14883977Y-12769009D02*
X16635868Y-13072242D01*
X16636050Y-5305500D02*
G75*
G02*
X16685040Y-5345502I0J-50000D01*
G01*
X16733040Y-5381502D02*
G75*
G02*
X16685039Y-5345502I0J50002D01*
G01*
X16636050Y-5305500D02*
X14929320Y-5306902D01*
X9501545Y-6152085D02*
G75*
G02*
X9451545Y-6202085I-50005J5D01*
G01*
X9501712Y-5050682D02*
G75*
G02*
X9551712Y-5000682I49998J2D01*
G01*
X13031000Y-4403620D02*
X11353000Y-4404955D01*
X13081000Y-5005340D02*
X13081000Y-4453620D01*
X14829320Y-5056902D02*
X13131000Y-5055340D01*
X14879320Y-5256902D02*
X14879320Y-5106902D01*
X9501712Y-5050682D02*
X9501545Y-6152085D01*
X11254712Y-5000682D02*
X9551712Y-5000682D01*
X11303000Y-4454955D02*
X11304712Y-4950682D01*
X11304712Y-4950682D02*
G75*
G02*
X11254712Y-5000682I-50002J2D01*
G01*
X11303000Y-4454955D02*
G75*
G02*
X11353000Y-4404960I50000J-5D01*
G01*
X13031000Y-4403620D02*
G75*
G02*
X13081000Y-4453620I0J-50000D01*
G01*
X13131000Y-5055340D02*
G75*
G02*
X13081000Y-5005340I0J50000D01*
G01*
X14829320Y-5056902D02*
G75*
G02*
X14879318Y-5106902I0J-49998D01*
G01*
X14929320Y-5306902D02*
G75*
G02*
X14879318Y-5256902I0J50002D01*
G01*
X18762000Y-5380500D02*
G75*
G02*
X18812000Y-5430500I0J-50000D01*
G01*
X21132000Y-12900000D02*
G75*
G02*
X21175591Y-13027148I-40700J-85000D01*
G01*
X11476998Y-11839915D02*
X14883977Y-12769009D01*
X20280000Y-14660000D02*
G75*
G02*
X20160000Y-14700000I-80000J40000D01*
G01*
X7701280Y-9377680D02*
X7701280Y-11074400D01*
X7696200Y-6243320D02*
X7701280Y-7670800D01*
X18812000Y-5430000D02*
X18813400Y-11539500D01*
X9434000Y-11810000D02*
X11304000Y-11809000D01*
X9395707Y-11344000D02*
X9395000Y-11771000D01*
X18892000Y-11660000D02*
X21132000Y-12900000D01*
X9321999Y-11277592D02*
G75*
G02*
X9395706Y-11344000I6001J-67448D01*
G01*
X7701280Y-11211560D02*
X7701280Y-11074400D01*
X9434000Y-11810000D02*
G75*
G02*
X9395000Y-11771000I0J39000D01*
G01*
X7701280Y-7670800D02*
X7701280Y-9377680D01*
X7696200Y-6243320D02*
G75*
G02*
X7741920Y-6197600I45720J0D01*
G01*
X7767320Y-11277600D02*
X9320000Y-11277600D01*
X16635868Y-13072242D02*
X18420000Y-13740000D01*
X18892000Y-11660000D02*
G75*
G02*
X18813157Y-11539508I59600J125040D01*
G01*
X11304000Y-11809000D02*
G75*
G02*
X11476999Y-11839914I1000J-493920D01*
G01*
X7767320Y-11277600D02*
G75*
G02*
X7701280Y-11211560I0J66040D01*
G01*
D11*
D12*
X17615000Y-5483750D02*
X17705000Y-5573750D01*
X17705000Y-5483750D02*
X17615000Y-5573750D01*
X17615000Y-5483750D02*
X17705000Y-5573750D01*
X17705000Y-5483750D02*
X17615000Y-5573750D01*
X17915000Y-5483750D02*
X18005000Y-5573750D01*
X18005000Y-5483750D02*
X17915000Y-5573750D01*
X17915000Y-5483750D02*
X18005000Y-5573750D01*
X18005000Y-5483750D02*
X17915000Y-5573750D01*
X8118530Y-6620000D02*
G75*
G02*
X8019470Y-6620000I-49530J0D01*
G01*
X8019470Y-6620000D02*
G75*
G02*
X8118530Y-6620000I49530J0D01*
G01*
X8118530Y-8320000D02*
G75*
G02*
X8019470Y-8320000I-49530J0D01*
G01*
X8019470Y-8320000D02*
G75*
G02*
X8118530Y-8320000I49530J0D01*
G01*
X8118530Y-10020000D02*
G75*
G02*
X8019470Y-10020000I-49530J0D01*
G01*
X8019470Y-10020000D02*
G75*
G02*
X8118530Y-10020000I49530J0D01*
G01*
X9162530Y-6620000D02*
G75*
G02*
X9063470Y-6620000I-49530J0D01*
G01*
X9063470Y-6620000D02*
G75*
G02*
X9162530Y-6620000I49530J0D01*
G01*
X9162530Y-8320000D02*
G75*
G02*
X9063470Y-8320000I-49530J0D01*
G01*
X9063470Y-8320000D02*
G75*
G02*
X9162530Y-8320000I49530J0D01*
G01*
X9162530Y-10020000D02*
G75*
G02*
X9063470Y-10020000I-49530J0D01*
G01*
X9063470Y-10020000D02*
G75*
G02*
X9162530Y-10020000I49530J0D01*
G01*
X9918530Y-5420000D02*
G75*
G02*
X9819470Y-5420000I-49530J0D01*
G01*
X9819470Y-5420000D02*
G75*
G02*
X9918530Y-5420000I49530J0D01*
G01*
X9918530Y-7120000D02*
G75*
G02*
X9819470Y-7120000I-49530J0D01*
G01*
X9819470Y-7120000D02*
G75*
G02*
X9918530Y-7120000I49530J0D01*
G01*
X9918530Y-8820000D02*
G75*
G02*
X9819470Y-8820000I-49530J0D01*
G01*
X9819470Y-8820000D02*
G75*
G02*
X9918530Y-8820000I49530J0D01*
G01*
X9918530Y-10520000D02*
G75*
G02*
X9819470Y-10520000I-49530J0D01*
G01*
X9819470Y-10520000D02*
G75*
G02*
X9918530Y-10520000I49530J0D01*
G01*
X10962530Y-5420000D02*
G75*
G02*
X10863470Y-5420000I-49530J0D01*
G01*
X10863470Y-5420000D02*
G75*
G02*
X10962530Y-5420000I49530J0D01*
G01*
X10962530Y-7120000D02*
G75*
G02*
X10863470Y-7120000I-49530J0D01*
G01*
X10863470Y-7120000D02*
G75*
G02*
X10962530Y-7120000I49530J0D01*
G01*
X10962530Y-8820000D02*
G75*
G02*
X10863470Y-8820000I-49530J0D01*
G01*
X10863470Y-8820000D02*
G75*
G02*
X10962530Y-8820000I49530J0D01*
G01*
X10962530Y-10520000D02*
G75*
G02*
X10863470Y-10520000I-49530J0D01*
G01*
X10863470Y-10520000D02*
G75*
G02*
X10962530Y-10520000I49530J0D01*
G01*
X11718530Y-4820000D02*
G75*
G02*
X11619470Y-4820000I-49530J0D01*
G01*
X11619470Y-4820000D02*
G75*
G02*
X11718530Y-4820000I49530J0D01*
G01*
X11718530Y-6520000D02*
G75*
G02*
X11619470Y-6520000I-49530J0D01*
G01*
X11619470Y-6520000D02*
G75*
G02*
X11718530Y-6520000I49530J0D01*
G01*
X11718530Y-8220000D02*
G75*
G02*
X11619470Y-8220000I-49530J0D01*
G01*
X11619470Y-8220000D02*
G75*
G02*
X11718530Y-8220000I49530J0D01*
G01*
X12762530Y-4820000D02*
G75*
G02*
X12663470Y-4820000I-49530J0D01*
G01*
X12663470Y-4820000D02*
G75*
G02*
X12762530Y-4820000I49530J0D01*
G01*
X12762530Y-6520000D02*
G75*
G02*
X12663470Y-6520000I-49530J0D01*
G01*
X12663470Y-6520000D02*
G75*
G02*
X12762530Y-6520000I49530J0D01*
G01*
X12762530Y-8220000D02*
G75*
G02*
X12663470Y-8220000I-49530J0D01*
G01*
X12663470Y-8220000D02*
G75*
G02*
X12762530Y-8220000I49530J0D01*
G01*
X13518530Y-5482000D02*
G75*
G02*
X13419470Y-5482000I-49530J0D01*
G01*
X13419470Y-5482000D02*
G75*
G02*
X13518530Y-5482000I49530J0D01*
G01*
X13518530Y-7182000D02*
G75*
G02*
X13419470Y-7182000I-49530J0D01*
G01*
X13419470Y-7182000D02*
G75*
G02*
X13518530Y-7182000I49530J0D01*
G01*
X13518530Y-8882500D02*
G75*
G02*
X13419470Y-8882500I-49530J0D01*
G01*
X13419470Y-8882500D02*
G75*
G02*
X13518530Y-8882500I49530J0D01*
G01*
X14562530Y-5482000D02*
G75*
G02*
X14463470Y-5482000I-49530J0D01*
G01*
X14463470Y-5482000D02*
G75*
G02*
X14562530Y-5482000I49530J0D01*
G01*
X14562530Y-7182000D02*
G75*
G02*
X14463470Y-7182000I-49530J0D01*
G01*
X14463470Y-7182000D02*
G75*
G02*
X14562530Y-7182000I49530J0D01*
G01*
X14562530Y-8882500D02*
G75*
G02*
X14463470Y-8882500I-49530J0D01*
G01*
X14463470Y-8882500D02*
G75*
G02*
X14562530Y-8882500I49530J0D01*
G01*
X15318530Y-5720000D02*
G75*
G02*
X15219470Y-5720000I-49530J0D01*
G01*
X15219470Y-5720000D02*
G75*
G02*
X15318530Y-5720000I49530J0D01*
G01*
X15318530Y-7420000D02*
G75*
G02*
X15219470Y-7420000I-49530J0D01*
G01*
X15219470Y-7420000D02*
G75*
G02*
X15318530Y-7420000I49530J0D01*
G01*
X15318530Y-9120000D02*
G75*
G02*
X15219470Y-9120000I-49530J0D01*
G01*
X15219470Y-9120000D02*
G75*
G02*
X15318530Y-9120000I49530J0D01*
G01*
X15385632Y-12365162D02*
G75*
G02*
X15286572Y-12365162I-49530J0D01*
G01*
X15286572Y-12365162D02*
G75*
G02*
X15385632Y-12365162I49530J0D01*
G01*
X16362530Y-5720000D02*
G75*
G02*
X16263470Y-5720000I-49530J0D01*
G01*
X16263470Y-5720000D02*
G75*
G02*
X16362530Y-5720000I49530J0D01*
G01*
X16362530Y-7420000D02*
G75*
G02*
X16263470Y-7420000I-49530J0D01*
G01*
X16263470Y-7420000D02*
G75*
G02*
X16362530Y-7420000I49530J0D01*
G01*
X16362530Y-9120000D02*
G75*
G02*
X16263470Y-9120000I-49530J0D01*
G01*
X16263470Y-9120000D02*
G75*
G02*
X16362530Y-9120000I49530J0D01*
G01*
X16414397Y-12542861D02*
G75*
G02*
X16315337Y-12542861I-49530J0D01*
G01*
X16315337Y-12542861D02*
G75*
G02*
X16414397Y-12542861I49530J0D01*
G01*
X17289092Y-12771420D02*
G75*
G02*
X17190032Y-12771420I-49530J0D01*
G01*
X17190032Y-12771420D02*
G75*
G02*
X17289092Y-12771420I49530J0D01*
G01*
X18273816Y-13118197D02*
G75*
G02*
X18174756Y-13118197I-49530J0D01*
G01*
X18174756Y-13118197D02*
G75*
G02*
X18273816Y-13118197I49530J0D01*
G01*
X19137797Y-13524883D02*
G75*
G02*
X19038737Y-13524883I-49530J0D01*
G01*
X19038737Y-13524883D02*
G75*
G02*
X19137797Y-13524883I49530J0D01*
G01*
X20050900Y-14031024D02*
G75*
G02*
X19951840Y-14031024I-49530J0D01*
G01*
X19951840Y-14031024D02*
G75*
G02*
X20050900Y-14031024I49530J0D01*
G01*
D13*
X17946000Y-10435000D02*
X17946000Y-10555000D01*
X17886000Y-10495000D02*
X18006000Y-10495000D01*
X17946000Y-10610000D02*
X17946000Y-10730000D01*
X17886000Y-10670000D02*
X18006000Y-10670000D01*
X18646000Y-10435000D02*
X18646000Y-10555000D01*
X18586000Y-10495000D02*
X18706000Y-10495000D01*
X18646000Y-10610000D02*
X18646000Y-10730000D01*
X18586000Y-10670000D02*
X18706000Y-10670000D01*
D14*
X8101168Y-7100168D02*
X8101168Y-6979832D01*
X7980832Y-6979832D01*
X7980832Y-7100168D01*
X8101168Y-7100168D01*
X8101168Y-8800168D02*
X8101168Y-8679832D01*
X7980832Y-8679832D01*
X7980832Y-8800168D01*
X8101168Y-8800168D01*
X8101168Y-10500168D02*
X8101168Y-10379832D01*
X7980832Y-10379832D01*
X7980832Y-10500168D01*
X8101168Y-10500168D01*
X9201168Y-7100168D02*
X9201168Y-6979832D01*
X9080832Y-6979832D01*
X9080832Y-7100168D01*
X9201168Y-7100168D01*
X9201168Y-8800168D02*
X9201168Y-8679832D01*
X9080832Y-8679832D01*
X9080832Y-8800168D01*
X9201168Y-8800168D01*
X9201168Y-10500168D02*
X9201168Y-10379832D01*
X9080832Y-10379832D01*
X9080832Y-10500168D01*
X9201168Y-10500168D01*
X9901168Y-5900168D02*
X9901168Y-5779832D01*
X9780832Y-5779832D01*
X9780832Y-5900168D01*
X9901168Y-5900168D01*
X9901168Y-7600168D02*
X9901168Y-7479832D01*
X9780832Y-7479832D01*
X9780832Y-7600168D01*
X9901168Y-7600168D01*
X9901168Y-9300168D02*
X9901168Y-9179832D01*
X9780832Y-9179832D01*
X9780832Y-9300168D01*
X9901168Y-9300168D01*
X9901168Y-11000168D02*
X9901168Y-10879832D01*
X9780832Y-10879832D01*
X9780832Y-11000168D01*
X9901168Y-11000168D01*
X11001168Y-5900168D02*
X11001168Y-5779832D01*
X10880832Y-5779832D01*
X10880832Y-5900168D01*
X11001168Y-5900168D01*
X11001168Y-7600168D02*
X11001168Y-7479832D01*
X10880832Y-7479832D01*
X10880832Y-7600168D01*
X11001168Y-7600168D01*
X11001168Y-9300168D02*
X11001168Y-9179832D01*
X10880832Y-9179832D01*
X10880832Y-9300168D01*
X11001168Y-9300168D01*
X11001168Y-11000168D02*
X11001168Y-10879832D01*
X10880832Y-10879832D01*
X10880832Y-11000168D01*
X11001168Y-11000168D01*
X11701168Y-5300168D02*
X11701168Y-5179832D01*
X11580832Y-5179832D01*
X11580832Y-5300168D01*
X11701168Y-5300168D01*
X11701168Y-7000168D02*
X11701168Y-6879832D01*
X11580832Y-6879832D01*
X11580832Y-7000168D01*
X11701168Y-7000168D01*
X11701168Y-8700168D02*
X11701168Y-8579832D01*
X11580832Y-8579832D01*
X11580832Y-8700168D01*
X11701168Y-8700168D01*
X12801168Y-5300168D02*
X12801168Y-5179832D01*
X12680832Y-5179832D01*
X12680832Y-5300168D01*
X12801168Y-5300168D01*
X12801168Y-7000168D02*
X12801168Y-6879832D01*
X12680832Y-6879832D01*
X12680832Y-7000168D01*
X12801168Y-7000168D01*
X12801168Y-8700168D02*
X12801168Y-8579832D01*
X12680832Y-8579832D01*
X12680832Y-8700168D01*
X12801168Y-8700168D01*
X13501168Y-5962168D02*
X13501168Y-5841832D01*
X13380832Y-5841832D01*
X13380832Y-5962168D01*
X13501168Y-5962168D01*
X13501168Y-7662168D02*
X13501168Y-7541832D01*
X13380832Y-7541832D01*
X13380832Y-7662168D01*
X13501168Y-7662168D01*
X13501168Y-9362668D02*
X13501168Y-9242332D01*
X13380832Y-9242332D01*
X13380832Y-9362668D01*
X13501168Y-9362668D01*
X14601168Y-5962168D02*
X14601168Y-5841832D01*
X14480832Y-5841832D01*
X14480832Y-5962168D01*
X14601168Y-5962168D01*
X14601168Y-7662168D02*
X14601168Y-7541832D01*
X14480832Y-7541832D01*
X14480832Y-7662168D01*
X14601168Y-7662168D01*
X14601168Y-9362668D02*
X14601168Y-9242332D01*
X14480832Y-9242332D01*
X14480832Y-9362668D01*
X14601168Y-9362668D01*
X15301168Y-6200168D02*
X15301168Y-6079832D01*
X15180832Y-6079832D01*
X15180832Y-6200168D01*
X15301168Y-6200168D01*
X15301168Y-7900168D02*
X15301168Y-7779832D01*
X15180832Y-7779832D01*
X15180832Y-7900168D01*
X15301168Y-7900168D01*
X15301168Y-9600168D02*
X15301168Y-9479832D01*
X15180832Y-9479832D01*
X15180832Y-9600168D01*
X15301168Y-9600168D01*
X15440166Y-12006693D02*
X15440166Y-11886357D01*
X15319830Y-11886357D01*
X15319830Y-12006693D01*
X15440166Y-12006693D01*
X16401168Y-6200168D02*
X16401168Y-6079832D01*
X16280832Y-6079832D01*
X16280832Y-6200168D01*
X16401168Y-6200168D01*
X16401168Y-7900168D02*
X16401168Y-7779832D01*
X16280832Y-7779832D01*
X16280832Y-7900168D01*
X16401168Y-7900168D01*
X16401168Y-9600168D02*
X16401168Y-9479832D01*
X16280832Y-9479832D01*
X16280832Y-9600168D01*
X16401168Y-9600168D01*
X16524115Y-12193924D02*
X16524115Y-12073587D01*
X16403778Y-12073587D01*
X16403778Y-12193924D01*
X16524115Y-12193924D01*
X17412827Y-12426135D02*
X17412827Y-12305798D01*
X17292491Y-12305798D01*
X17292491Y-12426135D01*
X17412827Y-12426135D01*
X18450372Y-12791512D02*
X18450372Y-12671175D01*
X18330036Y-12671175D01*
X18330036Y-12791512D01*
X18450372Y-12791512D01*
X19327566Y-13204136D02*
X19327566Y-13083800D01*
X19207230Y-13083800D01*
X19207230Y-13204136D01*
X19327566Y-13204136D01*
X20289648Y-13737427D02*
X20289648Y-13617090D01*
X20169311Y-13617090D01*
X20169311Y-13737427D01*
X20289648Y-13737427D01*
D15*
X8091000Y-7565000D02*
X8241000Y-7415000D01*
X8091000Y-7265000D01*
X7941000Y-7415000D01*
X8091000Y-7565000D01*
X8091000Y-9265000D02*
X8241000Y-9115000D01*
X8091000Y-8965000D01*
X7941000Y-9115000D01*
X8091000Y-9265000D01*
X8091000Y-10965000D02*
X8241000Y-10815000D01*
X8091000Y-10665000D01*
X7941000Y-10815000D01*
X8091000Y-10965000D01*
X8591000Y-7785000D02*
X8741000Y-7635000D01*
X8591000Y-7485000D01*
X8441000Y-7635000D01*
X8591000Y-7785000D01*
X8591000Y-9485000D02*
X8741000Y-9335000D01*
X8591000Y-9185000D01*
X8441000Y-9335000D01*
X8591000Y-9485000D01*
X8591000Y-11185000D02*
X8741000Y-11035000D01*
X8591000Y-10885000D01*
X8441000Y-11035000D01*
X8591000Y-11185000D01*
X9091000Y-7565000D02*
X9241000Y-7415000D01*
X9091000Y-7265000D01*
X8941000Y-7415000D01*
X9091000Y-7565000D01*
X9091000Y-9265000D02*
X9241000Y-9115000D01*
X9091000Y-8965000D01*
X8941000Y-9115000D01*
X9091000Y-9265000D01*
X9091000Y-10965000D02*
X9241000Y-10815000D01*
X9091000Y-10665000D01*
X8941000Y-10815000D01*
X9091000Y-10965000D01*
X9891000Y-6365000D02*
X10041000Y-6215000D01*
X9891000Y-6065000D01*
X9741000Y-6215000D01*
X9891000Y-6365000D01*
X9891000Y-8065000D02*
X10041000Y-7915000D01*
X9891000Y-7765000D01*
X9741000Y-7915000D01*
X9891000Y-8065000D01*
X9891000Y-9765000D02*
X10041000Y-9615000D01*
X9891000Y-9465000D01*
X9741000Y-9615000D01*
X9891000Y-9765000D01*
X9891000Y-11465000D02*
X10041000Y-11315000D01*
X9891000Y-11165000D01*
X9741000Y-11315000D01*
X9891000Y-11465000D01*
X10391000Y-6585000D02*
X10541000Y-6435000D01*
X10391000Y-6285000D01*
X10241000Y-6435000D01*
X10391000Y-6585000D01*
X10391000Y-8285000D02*
X10541000Y-8135000D01*
X10391000Y-7985000D01*
X10241000Y-8135000D01*
X10391000Y-8285000D01*
X10391000Y-9985000D02*
X10541000Y-9835000D01*
X10391000Y-9685000D01*
X10241000Y-9835000D01*
X10391000Y-9985000D01*
X10391000Y-11685000D02*
X10541000Y-11535000D01*
X10391000Y-11385000D01*
X10241000Y-11535000D01*
X10391000Y-11685000D01*
X10891000Y-6365000D02*
X11041000Y-6215000D01*
X10891000Y-6065000D01*
X10741000Y-6215000D01*
X10891000Y-6365000D01*
X10891000Y-8065000D02*
X11041000Y-7915000D01*
X10891000Y-7765000D01*
X10741000Y-7915000D01*
X10891000Y-8065000D01*
X10891000Y-9765000D02*
X11041000Y-9615000D01*
X10891000Y-9465000D01*
X10741000Y-9615000D01*
X10891000Y-9765000D01*
X10891000Y-11465000D02*
X11041000Y-11315000D01*
X10891000Y-11165000D01*
X10741000Y-11315000D01*
X10891000Y-11465000D01*
X11691000Y-5765000D02*
X11841000Y-5615000D01*
X11691000Y-5465000D01*
X11541000Y-5615000D01*
X11691000Y-5765000D01*
X11691000Y-7465000D02*
X11841000Y-7315000D01*
X11691000Y-7165000D01*
X11541000Y-7315000D01*
X11691000Y-7465000D01*
X11691000Y-9165000D02*
X11841000Y-9015000D01*
X11691000Y-8865000D01*
X11541000Y-9015000D01*
X11691000Y-9165000D01*
X12191000Y-5985000D02*
X12341000Y-5835000D01*
X12191000Y-5685000D01*
X12041000Y-5835000D01*
X12191000Y-5985000D01*
X12191000Y-7685000D02*
X12341000Y-7535000D01*
X12191000Y-7385000D01*
X12041000Y-7535000D01*
X12191000Y-7685000D01*
X12191000Y-9385000D02*
X12341000Y-9235000D01*
X12191000Y-9085000D01*
X12041000Y-9235000D01*
X12191000Y-9385000D01*
X12691000Y-5765000D02*
X12841000Y-5615000D01*
X12691000Y-5465000D01*
X12541000Y-5615000D01*
X12691000Y-5765000D01*
X12691000Y-7465000D02*
X12841000Y-7315000D01*
X12691000Y-7165000D01*
X12541000Y-7315000D01*
X12691000Y-7465000D01*
X12691000Y-9165000D02*
X12841000Y-9015000D01*
X12691000Y-8865000D01*
X12541000Y-9015000D01*
X12691000Y-9165000D01*
X13491000Y-6427000D02*
X13641000Y-6277000D01*
X13491000Y-6127000D01*
X13341000Y-6277000D01*
X13491000Y-6427000D01*
X13491000Y-8127000D02*
X13641000Y-7977000D01*
X13491000Y-7827000D01*
X13341000Y-7977000D01*
X13491000Y-8127000D01*
X13491000Y-9827500D02*
X13641000Y-9677500D01*
X13491000Y-9527500D01*
X13341000Y-9677500D01*
X13491000Y-9827500D01*
X13991000Y-6647000D02*
X14141000Y-6497000D01*
X13991000Y-6347000D01*
X13841000Y-6497000D01*
X13991000Y-6647000D01*
X13991000Y-8347000D02*
X14141000Y-8197000D01*
X13991000Y-8047000D01*
X13841000Y-8197000D01*
X13991000Y-8347000D01*
X13991000Y-10047500D02*
X14141000Y-9897500D01*
X13991000Y-9747500D01*
X13841000Y-9897500D01*
X13991000Y-10047500D01*
X14491000Y-6427000D02*
X14641000Y-6277000D01*
X14491000Y-6127000D01*
X14341000Y-6277000D01*
X14491000Y-6427000D01*
X14491000Y-8127000D02*
X14641000Y-7977000D01*
X14491000Y-7827000D01*
X14341000Y-7977000D01*
X14491000Y-8127000D01*
X14491000Y-9827500D02*
X14641000Y-9677500D01*
X14491000Y-9527500D01*
X14341000Y-9677500D01*
X14491000Y-9827500D01*
X15291000Y-6665000D02*
X15441000Y-6515000D01*
X15291000Y-6365000D01*
X15141000Y-6515000D01*
X15291000Y-6665000D01*
X15291000Y-8365000D02*
X15441000Y-8215000D01*
X15291000Y-8065000D01*
X15141000Y-8215000D01*
X15291000Y-8365000D01*
X15291000Y-10065000D02*
X15441000Y-9915000D01*
X15291000Y-9765000D01*
X15141000Y-9915000D01*
X15291000Y-10065000D01*
X15493097Y-11735508D02*
X15643097Y-11585508D01*
X15493097Y-11435508D01*
X15343097Y-11585508D01*
X15493097Y-11735508D01*
X15791000Y-6885000D02*
X15941000Y-6735000D01*
X15791000Y-6585000D01*
X15641000Y-6735000D01*
X15791000Y-6885000D01*
X15791000Y-8585000D02*
X15941000Y-8435000D01*
X15791000Y-8285000D01*
X15641000Y-8435000D01*
X15791000Y-8585000D01*
X15791000Y-10285000D02*
X15941000Y-10135000D01*
X15791000Y-9985000D01*
X15641000Y-10135000D01*
X15791000Y-10285000D01*
X16023247Y-11603823D02*
X16173247Y-11453823D01*
X16023247Y-11303823D01*
X15873247Y-11453823D01*
X16023247Y-11603823D01*
X16291000Y-6665000D02*
X16441000Y-6515000D01*
X16291000Y-6365000D01*
X16141000Y-6515000D01*
X16291000Y-6665000D01*
X16291000Y-8365000D02*
X16441000Y-8215000D01*
X16291000Y-8065000D01*
X16141000Y-8215000D01*
X16291000Y-8365000D01*
X16291000Y-10065000D02*
X16441000Y-9915000D01*
X16291000Y-9765000D01*
X16141000Y-9915000D01*
X16291000Y-10065000D01*
X16478505Y-11905717D02*
X16628505Y-11755717D01*
X16478505Y-11605717D01*
X16328505Y-11755717D01*
X16478505Y-11905717D01*
X17524381Y-12178866D02*
X17674381Y-12028866D01*
X17524381Y-11878866D01*
X17374381Y-12028866D01*
X17524381Y-12178866D01*
X18069068Y-12137438D02*
X18219068Y-11987438D01*
X18069068Y-11837438D01*
X17919068Y-11987438D01*
X18069068Y-12137438D01*
X18467603Y-12511027D02*
X18617603Y-12361027D01*
X18467603Y-12211027D01*
X18317603Y-12361027D01*
X18467603Y-12511027D01*
X19492933Y-12990226D02*
X19642933Y-12840226D01*
X19492933Y-12690226D01*
X19342933Y-12840226D01*
X19492933Y-12990226D01*
X20036900Y-13040215D02*
X20186900Y-12890215D01*
X20036900Y-12740215D01*
X19886900Y-12890215D01*
X20036900Y-13040215D01*
X20367552Y-13475036D02*
X20517552Y-13325036D01*
X20367552Y-13175036D01*
X20217552Y-13325036D01*
X20367552Y-13475036D01*
D16*
X8419550Y-6868550D02*
X8762450Y-7211450D01*
X8762450Y-6868550D02*
X8419550Y-7211450D01*
X8762450Y-7040000D02*
G75*
G02*
X8419550Y-7040000I-171450J0D01*
G01*
X8419550Y-7040000D02*
G75*
G02*
X8762450Y-7040000I171450J0D01*
G01*
X8419550Y-8568550D02*
X8762450Y-8911450D01*
X8762450Y-8568550D02*
X8419550Y-8911450D01*
X8762450Y-8740000D02*
G75*
G02*
X8419550Y-8740000I-171450J0D01*
G01*
X8419550Y-8740000D02*
G75*
G02*
X8762450Y-8740000I171450J0D01*
G01*
X8419550Y-10268550D02*
X8762450Y-10611450D01*
X8762450Y-10268550D02*
X8419550Y-10611450D01*
X8762450Y-10440000D02*
G75*
G02*
X8419550Y-10440000I-171450J0D01*
G01*
X8419550Y-10440000D02*
G75*
G02*
X8762450Y-10440000I171450J0D01*
G01*
X10219550Y-5668550D02*
X10562450Y-6011450D01*
X10562450Y-5668550D02*
X10219550Y-6011450D01*
X10562450Y-5840000D02*
G75*
G02*
X10219550Y-5840000I-171450J0D01*
G01*
X10219550Y-5840000D02*
G75*
G02*
X10562450Y-5840000I171450J0D01*
G01*
X10219550Y-7368550D02*
X10562450Y-7711450D01*
X10562450Y-7368550D02*
X10219550Y-7711450D01*
X10562450Y-7540000D02*
G75*
G02*
X10219550Y-7540000I-171450J0D01*
G01*
X10219550Y-7540000D02*
G75*
G02*
X10562450Y-7540000I171450J0D01*
G01*
X10219550Y-9068550D02*
X10562450Y-9411450D01*
X10562450Y-9068550D02*
X10219550Y-9411450D01*
X10562450Y-9240000D02*
G75*
G02*
X10219550Y-9240000I-171450J0D01*
G01*
X10219550Y-9240000D02*
G75*
G02*
X10562450Y-9240000I171450J0D01*
G01*
X10219550Y-10768550D02*
X10562450Y-11111450D01*
X10562450Y-10768550D02*
X10219550Y-11111450D01*
X10562450Y-10940000D02*
G75*
G02*
X10219550Y-10940000I-171450J0D01*
G01*
X10219550Y-10940000D02*
G75*
G02*
X10562450Y-10940000I171450J0D01*
G01*
X12019550Y-5068550D02*
X12362450Y-5411450D01*
X12362450Y-5068550D02*
X12019550Y-5411450D01*
X12362450Y-5240000D02*
G75*
G02*
X12019550Y-5240000I-171450J0D01*
G01*
X12019550Y-5240000D02*
G75*
G02*
X12362450Y-5240000I171450J0D01*
G01*
X12019550Y-6768550D02*
X12362450Y-7111450D01*
X12362450Y-6768550D02*
X12019550Y-7111450D01*
X12362450Y-6940000D02*
G75*
G02*
X12019550Y-6940000I-171450J0D01*
G01*
X12019550Y-6940000D02*
G75*
G02*
X12362450Y-6940000I171450J0D01*
G01*
X12019550Y-8468550D02*
X12362450Y-8811450D01*
X12362450Y-8468550D02*
X12019550Y-8811450D01*
X12362450Y-8640000D02*
G75*
G02*
X12019550Y-8640000I-171450J0D01*
G01*
X12019550Y-8640000D02*
G75*
G02*
X12362450Y-8640000I171450J0D01*
G01*
X13819550Y-5730550D02*
X14162450Y-6073450D01*
X14162450Y-5730550D02*
X13819550Y-6073450D01*
X14162450Y-5902000D02*
G75*
G02*
X13819550Y-5902000I-171450J0D01*
G01*
X13819550Y-5902000D02*
G75*
G02*
X14162450Y-5902000I171450J0D01*
G01*
X13819550Y-7430550D02*
X14162450Y-7773450D01*
X14162450Y-7430550D02*
X13819550Y-7773450D01*
X14162450Y-7602000D02*
G75*
G02*
X13819550Y-7602000I-171450J0D01*
G01*
X13819550Y-7602000D02*
G75*
G02*
X14162450Y-7602000I171450J0D01*
G01*
X13819550Y-9131050D02*
X14162450Y-9473950D01*
X14162450Y-9131050D02*
X13819550Y-9473950D01*
X14162450Y-9302500D02*
G75*
G02*
X13819550Y-9302500I-171450J0D01*
G01*
X13819550Y-9302500D02*
G75*
G02*
X14162450Y-9302500I171450J0D01*
G01*
X15619550Y-5968550D02*
X15962450Y-6311450D01*
X15962450Y-5968550D02*
X15619550Y-6311450D01*
X15962450Y-6140000D02*
G75*
G02*
X15619550Y-6140000I-171450J0D01*
G01*
X15619550Y-6140000D02*
G75*
G02*
X15962450Y-6140000I171450J0D01*
G01*
X15619550Y-7668550D02*
X15962450Y-8011450D01*
X15962450Y-7668550D02*
X15619550Y-8011450D01*
X15962450Y-7840000D02*
G75*
G02*
X15619550Y-7840000I-171450J0D01*
G01*
X15619550Y-7840000D02*
G75*
G02*
X15962450Y-7840000I171450J0D01*
G01*
X15619550Y-9368550D02*
X15962450Y-9711450D01*
X15962450Y-9368550D02*
X15619550Y-9711450D01*
X15962450Y-9540000D02*
G75*
G02*
X15619550Y-9540000I-171450J0D01*
G01*
X15619550Y-9540000D02*
G75*
G02*
X15962450Y-9540000I171450J0D01*
G01*
X15750522Y-11868690D02*
X16093422Y-12211590D01*
X16093422Y-11868690D02*
X15750522Y-12211590D01*
X16093422Y-12040140D02*
G75*
G02*
X15750522Y-12040140I-171450J0D01*
G01*
X15750522Y-12040140D02*
G75*
G02*
X16093422Y-12040140I171450J0D01*
G01*
X17699982Y-12377205D02*
X18042882Y-12720105D01*
X18042882Y-12377205D02*
X17699982Y-12720105D01*
X18042882Y-12548655D02*
G75*
G02*
X17699982Y-12548655I-171450J0D01*
G01*
X17699982Y-12548655D02*
G75*
G02*
X18042882Y-12548655I171450J0D01*
G01*
X19576989Y-13239163D02*
X19919889Y-13582063D01*
X19919889Y-13239163D02*
X19576989Y-13582063D01*
X19919889Y-13410613D02*
G75*
G02*
X19576989Y-13410613I-171450J0D01*
G01*
X19576989Y-13410613D02*
G75*
G02*
X19919889Y-13410613I171450J0D01*
G01*
D11*
X7949477Y-15028426D02*
X7949477Y-14828426D01*
X7949477Y-14828426D02*
X7997096Y-14828426D01*
X7997096Y-14828426D02*
X8025667Y-14837950D01*
X8025667Y-14837950D02*
X8044715Y-14856998D01*
X8044715Y-14856998D02*
X8054239Y-14876045D01*
X8054239Y-14876045D02*
X8063762Y-14914141D01*
X8063762Y-14914141D02*
X8063762Y-14942712D01*
X8063762Y-14942712D02*
X8054239Y-14980807D01*
X8054239Y-14980807D02*
X8044715Y-14999855D01*
X8044715Y-14999855D02*
X8025667Y-15018903D01*
X8025667Y-15018903D02*
X7997096Y-15028426D01*
X7997096Y-15028426D02*
X7949477Y-15028426D01*
X8149477Y-15028426D02*
X8149477Y-14895093D01*
X8149477Y-14933188D02*
X8159001Y-14914141D01*
X8159001Y-14914141D02*
X8168524Y-14904617D01*
X8168524Y-14904617D02*
X8187572Y-14895093D01*
X8187572Y-14895093D02*
X8206620Y-14895093D01*
X8273286Y-15028426D02*
X8273286Y-14895093D01*
X8273286Y-14828426D02*
X8263762Y-14837950D01*
X8263762Y-14837950D02*
X8273286Y-14847474D01*
X8273286Y-14847474D02*
X8282810Y-14837950D01*
X8282810Y-14837950D02*
X8273286Y-14828426D01*
X8273286Y-14828426D02*
X8273286Y-14847474D01*
X8397096Y-15028426D02*
X8378048Y-15018903D01*
X8378048Y-15018903D02*
X8368524Y-14999855D01*
X8368524Y-14999855D02*
X8368524Y-14828426D01*
X8501858Y-15028426D02*
X8482810Y-15018903D01*
X8482810Y-15018903D02*
X8473286Y-14999855D01*
X8473286Y-14999855D02*
X8473286Y-14828426D01*
X8730429Y-15028426D02*
X8730429Y-14828426D01*
X8730429Y-14828426D02*
X8797096Y-14971284D01*
X8797096Y-14971284D02*
X8863763Y-14828426D01*
X8863763Y-14828426D02*
X8863763Y-15028426D01*
X9044715Y-15028426D02*
X9044715Y-14923665D01*
X9044715Y-14923665D02*
X9035191Y-14904617D01*
X9035191Y-14904617D02*
X9016144Y-14895093D01*
X9016144Y-14895093D02*
X8978048Y-14895093D01*
X8978048Y-14895093D02*
X8959001Y-14904617D01*
X9044715Y-15018903D02*
X9025667Y-15028426D01*
X9025667Y-15028426D02*
X8978048Y-15028426D01*
X8978048Y-15028426D02*
X8959001Y-15018903D01*
X8959001Y-15018903D02*
X8949477Y-14999855D01*
X8949477Y-14999855D02*
X8949477Y-14980807D01*
X8949477Y-14980807D02*
X8959001Y-14961760D01*
X8959001Y-14961760D02*
X8978048Y-14952236D01*
X8978048Y-14952236D02*
X9025667Y-14952236D01*
X9025667Y-14952236D02*
X9044715Y-14942712D01*
X9139953Y-14895093D02*
X9139953Y-15095093D01*
X9139953Y-14904617D02*
X9159001Y-14895093D01*
X9159001Y-14895093D02*
X9197096Y-14895093D01*
X9197096Y-14895093D02*
X9216144Y-14904617D01*
X9216144Y-14904617D02*
X9225667Y-14914141D01*
X9225667Y-14914141D02*
X9235191Y-14933188D01*
X9235191Y-14933188D02*
X9235191Y-14990331D01*
X9235191Y-14990331D02*
X9225667Y-15009379D01*
X9225667Y-15009379D02*
X9216144Y-15018903D01*
X9216144Y-15018903D02*
X9197096Y-15028426D01*
X9197096Y-15028426D02*
X9159001Y-15028426D01*
X9159001Y-15028426D02*
X9139953Y-15018903D01*
X9320905Y-15009379D02*
X9330429Y-15018903D01*
X9330429Y-15018903D02*
X9320905Y-15028426D01*
X9320905Y-15028426D02*
X9311382Y-15018903D01*
X9311382Y-15018903D02*
X9320905Y-15009379D01*
X9320905Y-15009379D02*
X9320905Y-15028426D01*
X9320905Y-14904617D02*
X9330429Y-14914141D01*
X9330429Y-14914141D02*
X9320905Y-14923665D01*
X9320905Y-14923665D02*
X9311382Y-14914141D01*
X9311382Y-14914141D02*
X9320905Y-14904617D01*
X9320905Y-14904617D02*
X9320905Y-14923665D01*
D12*
X7598700Y-15311943D02*
X7688700Y-15401943D01*
X7688700Y-15311943D02*
X7598700Y-15401943D01*
D11*
X7987572Y-15248426D02*
X8006620Y-15248426D01*
X8006620Y-15248426D02*
X8025667Y-15257950D01*
X8025667Y-15257950D02*
X8035191Y-15267474D01*
X8035191Y-15267474D02*
X8044715Y-15286522D01*
X8044715Y-15286522D02*
X8054239Y-15324617D01*
X8054239Y-15324617D02*
X8054239Y-15372236D01*
X8054239Y-15372236D02*
X8044715Y-15410331D01*
X8044715Y-15410331D02*
X8035191Y-15429379D01*
X8035191Y-15429379D02*
X8025667Y-15438903D01*
X8025667Y-15438903D02*
X8006620Y-15448426D01*
X8006620Y-15448426D02*
X7987572Y-15448426D01*
X7987572Y-15448426D02*
X7968524Y-15438903D01*
X7968524Y-15438903D02*
X7959001Y-15429379D01*
X7959001Y-15429379D02*
X7949477Y-15410331D01*
X7949477Y-15410331D02*
X7939953Y-15372236D01*
X7939953Y-15372236D02*
X7939953Y-15324617D01*
X7939953Y-15324617D02*
X7949477Y-15286522D01*
X7949477Y-15286522D02*
X7959001Y-15267474D01*
X7959001Y-15267474D02*
X7968524Y-15257950D01*
X7968524Y-15257950D02*
X7987572Y-15248426D01*
X8139953Y-15429379D02*
X8149477Y-15438903D01*
X8149477Y-15438903D02*
X8139953Y-15448426D01*
X8139953Y-15448426D02*
X8130429Y-15438903D01*
X8130429Y-15438903D02*
X8139953Y-15429379D01*
X8139953Y-15429379D02*
X8139953Y-15448426D01*
X8244715Y-15448426D02*
X8282810Y-15448426D01*
X8282810Y-15448426D02*
X8301858Y-15438903D01*
X8301858Y-15438903D02*
X8311382Y-15429379D01*
X8311382Y-15429379D02*
X8330429Y-15400807D01*
X8330429Y-15400807D02*
X8339953Y-15362712D01*
X8339953Y-15362712D02*
X8339953Y-15286522D01*
X8339953Y-15286522D02*
X8330429Y-15267474D01*
X8330429Y-15267474D02*
X8320905Y-15257950D01*
X8320905Y-15257950D02*
X8301858Y-15248426D01*
X8301858Y-15248426D02*
X8263762Y-15248426D01*
X8263762Y-15248426D02*
X8244715Y-15257950D01*
X8244715Y-15257950D02*
X8235191Y-15267474D01*
X8235191Y-15267474D02*
X8225667Y-15286522D01*
X8225667Y-15286522D02*
X8225667Y-15334141D01*
X8225667Y-15334141D02*
X8235191Y-15353188D01*
X8235191Y-15353188D02*
X8244715Y-15362712D01*
X8244715Y-15362712D02*
X8263762Y-15372236D01*
X8263762Y-15372236D02*
X8301858Y-15372236D01*
X8301858Y-15372236D02*
X8320905Y-15362712D01*
X8320905Y-15362712D02*
X8330429Y-15353188D01*
X8330429Y-15353188D02*
X8339953Y-15334141D01*
X8463763Y-15248426D02*
X8482810Y-15248426D01*
X8482810Y-15248426D02*
X8501858Y-15257950D01*
X8501858Y-15257950D02*
X8511382Y-15267474D01*
X8511382Y-15267474D02*
X8520905Y-15286522D01*
X8520905Y-15286522D02*
X8530429Y-15324617D01*
X8530429Y-15324617D02*
X8530429Y-15372236D01*
X8530429Y-15372236D02*
X8520905Y-15410331D01*
X8520905Y-15410331D02*
X8511382Y-15429379D01*
X8511382Y-15429379D02*
X8501858Y-15438903D01*
X8501858Y-15438903D02*
X8482810Y-15448426D01*
X8482810Y-15448426D02*
X8463763Y-15448426D01*
X8463763Y-15448426D02*
X8444715Y-15438903D01*
X8444715Y-15438903D02*
X8435191Y-15429379D01*
X8435191Y-15429379D02*
X8425667Y-15410331D01*
X8425667Y-15410331D02*
X8416144Y-15372236D01*
X8416144Y-15372236D02*
X8416144Y-15324617D01*
X8416144Y-15324617D02*
X8425667Y-15286522D01*
X8425667Y-15286522D02*
X8435191Y-15267474D01*
X8435191Y-15267474D02*
X8444715Y-15257950D01*
X8444715Y-15257950D02*
X8463763Y-15248426D01*
X8654239Y-15248426D02*
X8673286Y-15248426D01*
X8673286Y-15248426D02*
X8692334Y-15257950D01*
X8692334Y-15257950D02*
X8701858Y-15267474D01*
X8701858Y-15267474D02*
X8711382Y-15286522D01*
X8711382Y-15286522D02*
X8720905Y-15324617D01*
X8720905Y-15324617D02*
X8720905Y-15372236D01*
X8720905Y-15372236D02*
X8711382Y-15410331D01*
X8711382Y-15410331D02*
X8701858Y-15429379D01*
X8701858Y-15429379D02*
X8692334Y-15438903D01*
X8692334Y-15438903D02*
X8673286Y-15448426D01*
X8673286Y-15448426D02*
X8654239Y-15448426D01*
X8654239Y-15448426D02*
X8635191Y-15438903D01*
X8635191Y-15438903D02*
X8625667Y-15429379D01*
X8625667Y-15429379D02*
X8616144Y-15410331D01*
X8616144Y-15410331D02*
X8606620Y-15372236D01*
X8606620Y-15372236D02*
X8606620Y-15324617D01*
X8606620Y-15324617D02*
X8616144Y-15286522D01*
X8616144Y-15286522D02*
X8625667Y-15267474D01*
X8625667Y-15267474D02*
X8635191Y-15257950D01*
X8635191Y-15257950D02*
X8654239Y-15248426D01*
X8806620Y-15448426D02*
X8806620Y-15315093D01*
X8806620Y-15334141D02*
X8816144Y-15324617D01*
X8816144Y-15324617D02*
X8835191Y-15315093D01*
X8835191Y-15315093D02*
X8863763Y-15315093D01*
X8863763Y-15315093D02*
X8882810Y-15324617D01*
X8882810Y-15324617D02*
X8892334Y-15343665D01*
X8892334Y-15343665D02*
X8892334Y-15448426D01*
X8892334Y-15343665D02*
X8901858Y-15324617D01*
X8901858Y-15324617D02*
X8920905Y-15315093D01*
X8920905Y-15315093D02*
X8949477Y-15315093D01*
X8949477Y-15315093D02*
X8968525Y-15324617D01*
X8968525Y-15324617D02*
X8978048Y-15343665D01*
X8978048Y-15343665D02*
X8978048Y-15448426D01*
X9073286Y-15448426D02*
X9073286Y-15315093D01*
X9073286Y-15334141D02*
X9082810Y-15324617D01*
X9082810Y-15324617D02*
X9101858Y-15315093D01*
X9101858Y-15315093D02*
X9130429Y-15315093D01*
X9130429Y-15315093D02*
X9149477Y-15324617D01*
X9149477Y-15324617D02*
X9159001Y-15343665D01*
X9159001Y-15343665D02*
X9159001Y-15448426D01*
X9159001Y-15343665D02*
X9168525Y-15324617D01*
X9168525Y-15324617D02*
X9187572Y-15315093D01*
X9187572Y-15315093D02*
X9216144Y-15315093D01*
X9216144Y-15315093D02*
X9235191Y-15324617D01*
X9235191Y-15324617D02*
X9244715Y-15343665D01*
X9244715Y-15343665D02*
X9244715Y-15448426D01*
X9635191Y-15238903D02*
X9463763Y-15496045D01*
X9892334Y-15248426D02*
X9911382Y-15248426D01*
X9911382Y-15248426D02*
X9930429Y-15257950D01*
X9930429Y-15257950D02*
X9939953Y-15267474D01*
X9939953Y-15267474D02*
X9949477Y-15286522D01*
X9949477Y-15286522D02*
X9959001Y-15324617D01*
X9959001Y-15324617D02*
X9959001Y-15372236D01*
X9959001Y-15372236D02*
X9949477Y-15410331D01*
X9949477Y-15410331D02*
X9939953Y-15429379D01*
X9939953Y-15429379D02*
X9930429Y-15438903D01*
X9930429Y-15438903D02*
X9911382Y-15448426D01*
X9911382Y-15448426D02*
X9892334Y-15448426D01*
X9892334Y-15448426D02*
X9873287Y-15438903D01*
X9873287Y-15438903D02*
X9863763Y-15429379D01*
X9863763Y-15429379D02*
X9854239Y-15410331D01*
X9854239Y-15410331D02*
X9844715Y-15372236D01*
X9844715Y-15372236D02*
X9844715Y-15324617D01*
X9844715Y-15324617D02*
X9854239Y-15286522D01*
X9854239Y-15286522D02*
X9863763Y-15267474D01*
X9863763Y-15267474D02*
X9873287Y-15257950D01*
X9873287Y-15257950D02*
X9892334Y-15248426D01*
X10044715Y-15429379D02*
X10054239Y-15438903D01*
X10054239Y-15438903D02*
X10044715Y-15448426D01*
X10044715Y-15448426D02*
X10035191Y-15438903D01*
X10035191Y-15438903D02*
X10044715Y-15429379D01*
X10044715Y-15429379D02*
X10044715Y-15448426D01*
X10178048Y-15248426D02*
X10197096Y-15248426D01*
X10197096Y-15248426D02*
X10216144Y-15257950D01*
X10216144Y-15257950D02*
X10225668Y-15267474D01*
X10225668Y-15267474D02*
X10235191Y-15286522D01*
X10235191Y-15286522D02*
X10244715Y-15324617D01*
X10244715Y-15324617D02*
X10244715Y-15372236D01*
X10244715Y-15372236D02*
X10235191Y-15410331D01*
X10235191Y-15410331D02*
X10225668Y-15429379D01*
X10225668Y-15429379D02*
X10216144Y-15438903D01*
X10216144Y-15438903D02*
X10197096Y-15448426D01*
X10197096Y-15448426D02*
X10178048Y-15448426D01*
X10178048Y-15448426D02*
X10159001Y-15438903D01*
X10159001Y-15438903D02*
X10149477Y-15429379D01*
X10149477Y-15429379D02*
X10139953Y-15410331D01*
X10139953Y-15410331D02*
X10130429Y-15372236D01*
X10130429Y-15372236D02*
X10130429Y-15324617D01*
X10130429Y-15324617D02*
X10139953Y-15286522D01*
X10139953Y-15286522D02*
X10149477Y-15267474D01*
X10149477Y-15267474D02*
X10159001Y-15257950D01*
X10159001Y-15257950D02*
X10178048Y-15248426D01*
X10311382Y-15248426D02*
X10435191Y-15248426D01*
X10435191Y-15248426D02*
X10368525Y-15324617D01*
X10368525Y-15324617D02*
X10397096Y-15324617D01*
X10397096Y-15324617D02*
X10416144Y-15334141D01*
X10416144Y-15334141D02*
X10425668Y-15343665D01*
X10425668Y-15343665D02*
X10435191Y-15362712D01*
X10435191Y-15362712D02*
X10435191Y-15410331D01*
X10435191Y-15410331D02*
X10425668Y-15429379D01*
X10425668Y-15429379D02*
X10416144Y-15438903D01*
X10416144Y-15438903D02*
X10397096Y-15448426D01*
X10397096Y-15448426D02*
X10339953Y-15448426D01*
X10339953Y-15448426D02*
X10320906Y-15438903D01*
X10320906Y-15438903D02*
X10311382Y-15429379D01*
X10616144Y-15248426D02*
X10520906Y-15248426D01*
X10520906Y-15248426D02*
X10511382Y-15343665D01*
X10511382Y-15343665D02*
X10520906Y-15334141D01*
X10520906Y-15334141D02*
X10539953Y-15324617D01*
X10539953Y-15324617D02*
X10587572Y-15324617D01*
X10587572Y-15324617D02*
X10606620Y-15334141D01*
X10606620Y-15334141D02*
X10616144Y-15343665D01*
X10616144Y-15343665D02*
X10625668Y-15362712D01*
X10625668Y-15362712D02*
X10625668Y-15410331D01*
X10625668Y-15410331D02*
X10616144Y-15429379D01*
X10616144Y-15429379D02*
X10606620Y-15438903D01*
X10606620Y-15438903D02*
X10587572Y-15448426D01*
X10587572Y-15448426D02*
X10539953Y-15448426D01*
X10539953Y-15448426D02*
X10520906Y-15438903D01*
X10520906Y-15438903D02*
X10511382Y-15429379D01*
X10797096Y-15315093D02*
X10797096Y-15448426D01*
X10749477Y-15238903D02*
X10701858Y-15381760D01*
X10701858Y-15381760D02*
X10825668Y-15381760D01*
X10892334Y-15248426D02*
X10892334Y-15286522D01*
X10968525Y-15248426D02*
X10968525Y-15286522D01*
X11263763Y-15524617D02*
X11254239Y-15515093D01*
X11254239Y-15515093D02*
X11235191Y-15486522D01*
X11235191Y-15486522D02*
X11225668Y-15467474D01*
X11225668Y-15467474D02*
X11216144Y-15438903D01*
X11216144Y-15438903D02*
X11206620Y-15391284D01*
X11206620Y-15391284D02*
X11206620Y-15353188D01*
X11206620Y-15353188D02*
X11216144Y-15305569D01*
X11216144Y-15305569D02*
X11225668Y-15276998D01*
X11225668Y-15276998D02*
X11235191Y-15257950D01*
X11235191Y-15257950D02*
X11254239Y-15229379D01*
X11254239Y-15229379D02*
X11263763Y-15219855D01*
X11425668Y-15315093D02*
X11425668Y-15448426D01*
X11378048Y-15238903D02*
X11330429Y-15381760D01*
X11330429Y-15381760D02*
X11454239Y-15381760D01*
X11682810Y-15448426D02*
X11682810Y-15248426D01*
X11768525Y-15448426D02*
X11768525Y-15343665D01*
X11768525Y-15343665D02*
X11759001Y-15324617D01*
X11759001Y-15324617D02*
X11739953Y-15315093D01*
X11739953Y-15315093D02*
X11711382Y-15315093D01*
X11711382Y-15315093D02*
X11692334Y-15324617D01*
X11692334Y-15324617D02*
X11682810Y-15334141D01*
X11892334Y-15448426D02*
X11873287Y-15438903D01*
X11873287Y-15438903D02*
X11863763Y-15429379D01*
X11863763Y-15429379D02*
X11854239Y-15410331D01*
X11854239Y-15410331D02*
X11854239Y-15353188D01*
X11854239Y-15353188D02*
X11863763Y-15334141D01*
X11863763Y-15334141D02*
X11873287Y-15324617D01*
X11873287Y-15324617D02*
X11892334Y-15315093D01*
X11892334Y-15315093D02*
X11920906Y-15315093D01*
X11920906Y-15315093D02*
X11939953Y-15324617D01*
X11939953Y-15324617D02*
X11949477Y-15334141D01*
X11949477Y-15334141D02*
X11959001Y-15353188D01*
X11959001Y-15353188D02*
X11959001Y-15410331D01*
X11959001Y-15410331D02*
X11949477Y-15429379D01*
X11949477Y-15429379D02*
X11939953Y-15438903D01*
X11939953Y-15438903D02*
X11920906Y-15448426D01*
X11920906Y-15448426D02*
X11892334Y-15448426D01*
X12073287Y-15448426D02*
X12054239Y-15438903D01*
X12054239Y-15438903D02*
X12044715Y-15419855D01*
X12044715Y-15419855D02*
X12044715Y-15248426D01*
X12225668Y-15438903D02*
X12206620Y-15448426D01*
X12206620Y-15448426D02*
X12168525Y-15448426D01*
X12168525Y-15448426D02*
X12149477Y-15438903D01*
X12149477Y-15438903D02*
X12139953Y-15419855D01*
X12139953Y-15419855D02*
X12139953Y-15343665D01*
X12139953Y-15343665D02*
X12149477Y-15324617D01*
X12149477Y-15324617D02*
X12168525Y-15315093D01*
X12168525Y-15315093D02*
X12206620Y-15315093D01*
X12206620Y-15315093D02*
X12225668Y-15324617D01*
X12225668Y-15324617D02*
X12235191Y-15343665D01*
X12235191Y-15343665D02*
X12235191Y-15362712D01*
X12235191Y-15362712D02*
X12139953Y-15381760D01*
X12311382Y-15438903D02*
X12330430Y-15448426D01*
X12330430Y-15448426D02*
X12368525Y-15448426D01*
X12368525Y-15448426D02*
X12387572Y-15438903D01*
X12387572Y-15438903D02*
X12397096Y-15419855D01*
X12397096Y-15419855D02*
X12397096Y-15410331D01*
X12397096Y-15410331D02*
X12387572Y-15391284D01*
X12387572Y-15391284D02*
X12368525Y-15381760D01*
X12368525Y-15381760D02*
X12339953Y-15381760D01*
X12339953Y-15381760D02*
X12320906Y-15372236D01*
X12320906Y-15372236D02*
X12311382Y-15353188D01*
X12311382Y-15353188D02*
X12311382Y-15343665D01*
X12311382Y-15343665D02*
X12320906Y-15324617D01*
X12320906Y-15324617D02*
X12339953Y-15315093D01*
X12339953Y-15315093D02*
X12368525Y-15315093D01*
X12368525Y-15315093D02*
X12387572Y-15324617D01*
X12463763Y-15524617D02*
X12473287Y-15515093D01*
X12473287Y-15515093D02*
X12492334Y-15486522D01*
X12492334Y-15486522D02*
X12501858Y-15467474D01*
X12501858Y-15467474D02*
X12511382Y-15438903D01*
X12511382Y-15438903D02*
X12520906Y-15391284D01*
X12520906Y-15391284D02*
X12520906Y-15353188D01*
X12520906Y-15353188D02*
X12511382Y-15305569D01*
X12511382Y-15305569D02*
X12501858Y-15276998D01*
X12501858Y-15276998D02*
X12492334Y-15257950D01*
X12492334Y-15257950D02*
X12473287Y-15229379D01*
X12473287Y-15229379D02*
X12463763Y-15219855D01*
X12825668Y-15524617D02*
X12816144Y-15515093D01*
X12816144Y-15515093D02*
X12797096Y-15486522D01*
X12797096Y-15486522D02*
X12787572Y-15467474D01*
X12787572Y-15467474D02*
X12778049Y-15438903D01*
X12778049Y-15438903D02*
X12768525Y-15391284D01*
X12768525Y-15391284D02*
X12768525Y-15353188D01*
X12768525Y-15353188D02*
X12778049Y-15305569D01*
X12778049Y-15305569D02*
X12787572Y-15276998D01*
X12787572Y-15276998D02*
X12797096Y-15257950D01*
X12797096Y-15257950D02*
X12816144Y-15229379D01*
X12816144Y-15229379D02*
X12825668Y-15219855D01*
X12901858Y-15315093D02*
X12901858Y-15448426D01*
X12901858Y-15334141D02*
X12911382Y-15324617D01*
X12911382Y-15324617D02*
X12930430Y-15315093D01*
X12930430Y-15315093D02*
X12959001Y-15315093D01*
X12959001Y-15315093D02*
X12978049Y-15324617D01*
X12978049Y-15324617D02*
X12987572Y-15343665D01*
X12987572Y-15343665D02*
X12987572Y-15448426D01*
X13111382Y-15448426D02*
X13092334Y-15438903D01*
X13092334Y-15438903D02*
X13082811Y-15429379D01*
X13082811Y-15429379D02*
X13073287Y-15410331D01*
X13073287Y-15410331D02*
X13073287Y-15353188D01*
X13073287Y-15353188D02*
X13082811Y-15334141D01*
X13082811Y-15334141D02*
X13092334Y-15324617D01*
X13092334Y-15324617D02*
X13111382Y-15315093D01*
X13111382Y-15315093D02*
X13139953Y-15315093D01*
X13139953Y-15315093D02*
X13159001Y-15324617D01*
X13159001Y-15324617D02*
X13168525Y-15334141D01*
X13168525Y-15334141D02*
X13178049Y-15353188D01*
X13178049Y-15353188D02*
X13178049Y-15410331D01*
X13178049Y-15410331D02*
X13168525Y-15429379D01*
X13168525Y-15429379D02*
X13159001Y-15438903D01*
X13159001Y-15438903D02*
X13139953Y-15448426D01*
X13139953Y-15448426D02*
X13111382Y-15448426D01*
X13235192Y-15315093D02*
X13311382Y-15315093D01*
X13263763Y-15248426D02*
X13263763Y-15419855D01*
X13263763Y-15419855D02*
X13273287Y-15438903D01*
X13273287Y-15438903D02*
X13292334Y-15448426D01*
X13292334Y-15448426D02*
X13311382Y-15448426D01*
X13530430Y-15315093D02*
X13530430Y-15515093D01*
X13530430Y-15324617D02*
X13549477Y-15315093D01*
X13549477Y-15315093D02*
X13587573Y-15315093D01*
X13587573Y-15315093D02*
X13606620Y-15324617D01*
X13606620Y-15324617D02*
X13616144Y-15334141D01*
X13616144Y-15334141D02*
X13625668Y-15353188D01*
X13625668Y-15353188D02*
X13625668Y-15410331D01*
X13625668Y-15410331D02*
X13616144Y-15429379D01*
X13616144Y-15429379D02*
X13606620Y-15438903D01*
X13606620Y-15438903D02*
X13587573Y-15448426D01*
X13587573Y-15448426D02*
X13549477Y-15448426D01*
X13549477Y-15448426D02*
X13530430Y-15438903D01*
X13739953Y-15448426D02*
X13720906Y-15438903D01*
X13720906Y-15438903D02*
X13711382Y-15419855D01*
X13711382Y-15419855D02*
X13711382Y-15248426D01*
X13901858Y-15448426D02*
X13901858Y-15343665D01*
X13901858Y-15343665D02*
X13892334Y-15324617D01*
X13892334Y-15324617D02*
X13873287Y-15315093D01*
X13873287Y-15315093D02*
X13835192Y-15315093D01*
X13835192Y-15315093D02*
X13816144Y-15324617D01*
X13901858Y-15438903D02*
X13882811Y-15448426D01*
X13882811Y-15448426D02*
X13835192Y-15448426D01*
X13835192Y-15448426D02*
X13816144Y-15438903D01*
X13816144Y-15438903D02*
X13806620Y-15419855D01*
X13806620Y-15419855D02*
X13806620Y-15400807D01*
X13806620Y-15400807D02*
X13816144Y-15381760D01*
X13816144Y-15381760D02*
X13835192Y-15372236D01*
X13835192Y-15372236D02*
X13882811Y-15372236D01*
X13882811Y-15372236D02*
X13901858Y-15362712D01*
X13968525Y-15315093D02*
X14044715Y-15315093D01*
X13997096Y-15248426D02*
X13997096Y-15419855D01*
X13997096Y-15419855D02*
X14006620Y-15438903D01*
X14006620Y-15438903D02*
X14025668Y-15448426D01*
X14025668Y-15448426D02*
X14044715Y-15448426D01*
X14187573Y-15438903D02*
X14168525Y-15448426D01*
X14168525Y-15448426D02*
X14130430Y-15448426D01*
X14130430Y-15448426D02*
X14111382Y-15438903D01*
X14111382Y-15438903D02*
X14101858Y-15419855D01*
X14101858Y-15419855D02*
X14101858Y-15343665D01*
X14101858Y-15343665D02*
X14111382Y-15324617D01*
X14111382Y-15324617D02*
X14130430Y-15315093D01*
X14130430Y-15315093D02*
X14168525Y-15315093D01*
X14168525Y-15315093D02*
X14187573Y-15324617D01*
X14187573Y-15324617D02*
X14197096Y-15343665D01*
X14197096Y-15343665D02*
X14197096Y-15362712D01*
X14197096Y-15362712D02*
X14101858Y-15381760D01*
X14368525Y-15448426D02*
X14368525Y-15248426D01*
X14368525Y-15438903D02*
X14349477Y-15448426D01*
X14349477Y-15448426D02*
X14311382Y-15448426D01*
X14311382Y-15448426D02*
X14292334Y-15438903D01*
X14292334Y-15438903D02*
X14282811Y-15429379D01*
X14282811Y-15429379D02*
X14273287Y-15410331D01*
X14273287Y-15410331D02*
X14273287Y-15353188D01*
X14273287Y-15353188D02*
X14282811Y-15334141D01*
X14282811Y-15334141D02*
X14292334Y-15324617D01*
X14292334Y-15324617D02*
X14311382Y-15315093D01*
X14311382Y-15315093D02*
X14349477Y-15315093D01*
X14349477Y-15315093D02*
X14368525Y-15324617D01*
X14444715Y-15524617D02*
X14454239Y-15515093D01*
X14454239Y-15515093D02*
X14473287Y-15486522D01*
X14473287Y-15486522D02*
X14482811Y-15467474D01*
X14482811Y-15467474D02*
X14492334Y-15438903D01*
X14492334Y-15438903D02*
X14501858Y-15391284D01*
X14501858Y-15391284D02*
X14501858Y-15353188D01*
X14501858Y-15353188D02*
X14492334Y-15305569D01*
X14492334Y-15305569D02*
X14482811Y-15276998D01*
X14482811Y-15276998D02*
X14473287Y-15257950D01*
X14473287Y-15257950D02*
X14454239Y-15229379D01*
X14454239Y-15229379D02*
X14444715Y-15219855D01*
D12*
X7688700Y-15620943D02*
G75*
G02*
X7589640Y-15620943I-49530J0D01*
G01*
X7589640Y-15620943D02*
G75*
G02*
X7688700Y-15620943I49530J0D01*
G01*
D11*
X7987572Y-15512426D02*
X8006620Y-15512426D01*
X8006620Y-15512426D02*
X8025667Y-15521950D01*
X8025667Y-15521950D02*
X8035191Y-15531474D01*
X8035191Y-15531474D02*
X8044715Y-15550522D01*
X8044715Y-15550522D02*
X8054239Y-15588617D01*
X8054239Y-15588617D02*
X8054239Y-15636236D01*
X8054239Y-15636236D02*
X8044715Y-15674331D01*
X8044715Y-15674331D02*
X8035191Y-15693379D01*
X8035191Y-15693379D02*
X8025667Y-15702903D01*
X8025667Y-15702903D02*
X8006620Y-15712426D01*
X8006620Y-15712426D02*
X7987572Y-15712426D01*
X7987572Y-15712426D02*
X7968524Y-15702903D01*
X7968524Y-15702903D02*
X7959001Y-15693379D01*
X7959001Y-15693379D02*
X7949477Y-15674331D01*
X7949477Y-15674331D02*
X7939953Y-15636236D01*
X7939953Y-15636236D02*
X7939953Y-15588617D01*
X7939953Y-15588617D02*
X7949477Y-15550522D01*
X7949477Y-15550522D02*
X7959001Y-15531474D01*
X7959001Y-15531474D02*
X7968524Y-15521950D01*
X7968524Y-15521950D02*
X7987572Y-15512426D01*
X8139953Y-15693379D02*
X8149477Y-15702903D01*
X8149477Y-15702903D02*
X8139953Y-15712426D01*
X8139953Y-15712426D02*
X8130429Y-15702903D01*
X8130429Y-15702903D02*
X8139953Y-15693379D01*
X8139953Y-15693379D02*
X8139953Y-15712426D01*
X8244715Y-15712426D02*
X8282810Y-15712426D01*
X8282810Y-15712426D02*
X8301858Y-15702903D01*
X8301858Y-15702903D02*
X8311382Y-15693379D01*
X8311382Y-15693379D02*
X8330429Y-15664807D01*
X8330429Y-15664807D02*
X8339953Y-15626712D01*
X8339953Y-15626712D02*
X8339953Y-15550522D01*
X8339953Y-15550522D02*
X8330429Y-15531474D01*
X8330429Y-15531474D02*
X8320905Y-15521950D01*
X8320905Y-15521950D02*
X8301858Y-15512426D01*
X8301858Y-15512426D02*
X8263762Y-15512426D01*
X8263762Y-15512426D02*
X8244715Y-15521950D01*
X8244715Y-15521950D02*
X8235191Y-15531474D01*
X8235191Y-15531474D02*
X8225667Y-15550522D01*
X8225667Y-15550522D02*
X8225667Y-15598141D01*
X8225667Y-15598141D02*
X8235191Y-15617188D01*
X8235191Y-15617188D02*
X8244715Y-15626712D01*
X8244715Y-15626712D02*
X8263762Y-15636236D01*
X8263762Y-15636236D02*
X8301858Y-15636236D01*
X8301858Y-15636236D02*
X8320905Y-15626712D01*
X8320905Y-15626712D02*
X8330429Y-15617188D01*
X8330429Y-15617188D02*
X8339953Y-15598141D01*
X8435191Y-15712426D02*
X8473286Y-15712426D01*
X8473286Y-15712426D02*
X8492334Y-15702903D01*
X8492334Y-15702903D02*
X8501858Y-15693379D01*
X8501858Y-15693379D02*
X8520905Y-15664807D01*
X8520905Y-15664807D02*
X8530429Y-15626712D01*
X8530429Y-15626712D02*
X8530429Y-15550522D01*
X8530429Y-15550522D02*
X8520905Y-15531474D01*
X8520905Y-15531474D02*
X8511382Y-15521950D01*
X8511382Y-15521950D02*
X8492334Y-15512426D01*
X8492334Y-15512426D02*
X8454239Y-15512426D01*
X8454239Y-15512426D02*
X8435191Y-15521950D01*
X8435191Y-15521950D02*
X8425667Y-15531474D01*
X8425667Y-15531474D02*
X8416144Y-15550522D01*
X8416144Y-15550522D02*
X8416144Y-15598141D01*
X8416144Y-15598141D02*
X8425667Y-15617188D01*
X8425667Y-15617188D02*
X8435191Y-15626712D01*
X8435191Y-15626712D02*
X8454239Y-15636236D01*
X8454239Y-15636236D02*
X8492334Y-15636236D01*
X8492334Y-15636236D02*
X8511382Y-15626712D01*
X8511382Y-15626712D02*
X8520905Y-15617188D01*
X8520905Y-15617188D02*
X8530429Y-15598141D01*
X8720905Y-15712426D02*
X8606620Y-15712426D01*
X8663763Y-15712426D02*
X8663763Y-15512426D01*
X8663763Y-15512426D02*
X8644715Y-15540998D01*
X8644715Y-15540998D02*
X8625667Y-15560045D01*
X8625667Y-15560045D02*
X8606620Y-15569569D01*
X8806620Y-15712426D02*
X8806620Y-15579093D01*
X8806620Y-15598141D02*
X8816144Y-15588617D01*
X8816144Y-15588617D02*
X8835191Y-15579093D01*
X8835191Y-15579093D02*
X8863763Y-15579093D01*
X8863763Y-15579093D02*
X8882810Y-15588617D01*
X8882810Y-15588617D02*
X8892334Y-15607665D01*
X8892334Y-15607665D02*
X8892334Y-15712426D01*
X8892334Y-15607665D02*
X8901858Y-15588617D01*
X8901858Y-15588617D02*
X8920905Y-15579093D01*
X8920905Y-15579093D02*
X8949477Y-15579093D01*
X8949477Y-15579093D02*
X8968525Y-15588617D01*
X8968525Y-15588617D02*
X8978048Y-15607665D01*
X8978048Y-15607665D02*
X8978048Y-15712426D01*
X9073286Y-15712426D02*
X9073286Y-15579093D01*
X9073286Y-15598141D02*
X9082810Y-15588617D01*
X9082810Y-15588617D02*
X9101858Y-15579093D01*
X9101858Y-15579093D02*
X9130429Y-15579093D01*
X9130429Y-15579093D02*
X9149477Y-15588617D01*
X9149477Y-15588617D02*
X9159001Y-15607665D01*
X9159001Y-15607665D02*
X9159001Y-15712426D01*
X9159001Y-15607665D02*
X9168525Y-15588617D01*
X9168525Y-15588617D02*
X9187572Y-15579093D01*
X9187572Y-15579093D02*
X9216144Y-15579093D01*
X9216144Y-15579093D02*
X9235191Y-15588617D01*
X9235191Y-15588617D02*
X9244715Y-15607665D01*
X9244715Y-15607665D02*
X9244715Y-15712426D01*
X9635191Y-15502903D02*
X9463763Y-15760045D01*
X9892334Y-15512426D02*
X9911382Y-15512426D01*
X9911382Y-15512426D02*
X9930429Y-15521950D01*
X9930429Y-15521950D02*
X9939953Y-15531474D01*
X9939953Y-15531474D02*
X9949477Y-15550522D01*
X9949477Y-15550522D02*
X9959001Y-15588617D01*
X9959001Y-15588617D02*
X9959001Y-15636236D01*
X9959001Y-15636236D02*
X9949477Y-15674331D01*
X9949477Y-15674331D02*
X9939953Y-15693379D01*
X9939953Y-15693379D02*
X9930429Y-15702903D01*
X9930429Y-15702903D02*
X9911382Y-15712426D01*
X9911382Y-15712426D02*
X9892334Y-15712426D01*
X9892334Y-15712426D02*
X9873287Y-15702903D01*
X9873287Y-15702903D02*
X9863763Y-15693379D01*
X9863763Y-15693379D02*
X9854239Y-15674331D01*
X9854239Y-15674331D02*
X9844715Y-15636236D01*
X9844715Y-15636236D02*
X9844715Y-15588617D01*
X9844715Y-15588617D02*
X9854239Y-15550522D01*
X9854239Y-15550522D02*
X9863763Y-15531474D01*
X9863763Y-15531474D02*
X9873287Y-15521950D01*
X9873287Y-15521950D02*
X9892334Y-15512426D01*
X10044715Y-15693379D02*
X10054239Y-15702903D01*
X10054239Y-15702903D02*
X10044715Y-15712426D01*
X10044715Y-15712426D02*
X10035191Y-15702903D01*
X10035191Y-15702903D02*
X10044715Y-15693379D01*
X10044715Y-15693379D02*
X10044715Y-15712426D01*
X10178048Y-15512426D02*
X10197096Y-15512426D01*
X10197096Y-15512426D02*
X10216144Y-15521950D01*
X10216144Y-15521950D02*
X10225668Y-15531474D01*
X10225668Y-15531474D02*
X10235191Y-15550522D01*
X10235191Y-15550522D02*
X10244715Y-15588617D01*
X10244715Y-15588617D02*
X10244715Y-15636236D01*
X10244715Y-15636236D02*
X10235191Y-15674331D01*
X10235191Y-15674331D02*
X10225668Y-15693379D01*
X10225668Y-15693379D02*
X10216144Y-15702903D01*
X10216144Y-15702903D02*
X10197096Y-15712426D01*
X10197096Y-15712426D02*
X10178048Y-15712426D01*
X10178048Y-15712426D02*
X10159001Y-15702903D01*
X10159001Y-15702903D02*
X10149477Y-15693379D01*
X10149477Y-15693379D02*
X10139953Y-15674331D01*
X10139953Y-15674331D02*
X10130429Y-15636236D01*
X10130429Y-15636236D02*
X10130429Y-15588617D01*
X10130429Y-15588617D02*
X10139953Y-15550522D01*
X10139953Y-15550522D02*
X10149477Y-15531474D01*
X10149477Y-15531474D02*
X10159001Y-15521950D01*
X10159001Y-15521950D02*
X10178048Y-15512426D01*
X10311382Y-15512426D02*
X10435191Y-15512426D01*
X10435191Y-15512426D02*
X10368525Y-15588617D01*
X10368525Y-15588617D02*
X10397096Y-15588617D01*
X10397096Y-15588617D02*
X10416144Y-15598141D01*
X10416144Y-15598141D02*
X10425668Y-15607665D01*
X10425668Y-15607665D02*
X10435191Y-15626712D01*
X10435191Y-15626712D02*
X10435191Y-15674331D01*
X10435191Y-15674331D02*
X10425668Y-15693379D01*
X10425668Y-15693379D02*
X10416144Y-15702903D01*
X10416144Y-15702903D02*
X10397096Y-15712426D01*
X10397096Y-15712426D02*
X10339953Y-15712426D01*
X10339953Y-15712426D02*
X10320906Y-15702903D01*
X10320906Y-15702903D02*
X10311382Y-15693379D01*
X10530429Y-15712426D02*
X10568525Y-15712426D01*
X10568525Y-15712426D02*
X10587572Y-15702903D01*
X10587572Y-15702903D02*
X10597096Y-15693379D01*
X10597096Y-15693379D02*
X10616144Y-15664807D01*
X10616144Y-15664807D02*
X10625668Y-15626712D01*
X10625668Y-15626712D02*
X10625668Y-15550522D01*
X10625668Y-15550522D02*
X10616144Y-15531474D01*
X10616144Y-15531474D02*
X10606620Y-15521950D01*
X10606620Y-15521950D02*
X10587572Y-15512426D01*
X10587572Y-15512426D02*
X10549477Y-15512426D01*
X10549477Y-15512426D02*
X10530429Y-15521950D01*
X10530429Y-15521950D02*
X10520906Y-15531474D01*
X10520906Y-15531474D02*
X10511382Y-15550522D01*
X10511382Y-15550522D02*
X10511382Y-15598141D01*
X10511382Y-15598141D02*
X10520906Y-15617188D01*
X10520906Y-15617188D02*
X10530429Y-15626712D01*
X10530429Y-15626712D02*
X10549477Y-15636236D01*
X10549477Y-15636236D02*
X10587572Y-15636236D01*
X10587572Y-15636236D02*
X10606620Y-15626712D01*
X10606620Y-15626712D02*
X10616144Y-15617188D01*
X10616144Y-15617188D02*
X10625668Y-15598141D01*
X10749477Y-15512426D02*
X10768525Y-15512426D01*
X10768525Y-15512426D02*
X10787572Y-15521950D01*
X10787572Y-15521950D02*
X10797096Y-15531474D01*
X10797096Y-15531474D02*
X10806620Y-15550522D01*
X10806620Y-15550522D02*
X10816144Y-15588617D01*
X10816144Y-15588617D02*
X10816144Y-15636236D01*
X10816144Y-15636236D02*
X10806620Y-15674331D01*
X10806620Y-15674331D02*
X10797096Y-15693379D01*
X10797096Y-15693379D02*
X10787572Y-15702903D01*
X10787572Y-15702903D02*
X10768525Y-15712426D01*
X10768525Y-15712426D02*
X10749477Y-15712426D01*
X10749477Y-15712426D02*
X10730429Y-15702903D01*
X10730429Y-15702903D02*
X10720906Y-15693379D01*
X10720906Y-15693379D02*
X10711382Y-15674331D01*
X10711382Y-15674331D02*
X10701858Y-15636236D01*
X10701858Y-15636236D02*
X10701858Y-15588617D01*
X10701858Y-15588617D02*
X10711382Y-15550522D01*
X10711382Y-15550522D02*
X10720906Y-15531474D01*
X10720906Y-15531474D02*
X10730429Y-15521950D01*
X10730429Y-15521950D02*
X10749477Y-15512426D01*
X10892334Y-15512426D02*
X10892334Y-15550522D01*
X10968525Y-15512426D02*
X10968525Y-15550522D01*
X11263763Y-15788617D02*
X11254239Y-15779093D01*
X11254239Y-15779093D02*
X11235191Y-15750522D01*
X11235191Y-15750522D02*
X11225668Y-15731474D01*
X11225668Y-15731474D02*
X11216144Y-15702903D01*
X11216144Y-15702903D02*
X11206620Y-15655284D01*
X11206620Y-15655284D02*
X11206620Y-15617188D01*
X11206620Y-15617188D02*
X11216144Y-15569569D01*
X11216144Y-15569569D02*
X11225668Y-15540998D01*
X11225668Y-15540998D02*
X11235191Y-15521950D01*
X11235191Y-15521950D02*
X11254239Y-15493379D01*
X11254239Y-15493379D02*
X11263763Y-15483855D01*
X11320906Y-15512426D02*
X11444715Y-15512426D01*
X11444715Y-15512426D02*
X11378048Y-15588617D01*
X11378048Y-15588617D02*
X11406620Y-15588617D01*
X11406620Y-15588617D02*
X11425668Y-15598141D01*
X11425668Y-15598141D02*
X11435191Y-15607665D01*
X11435191Y-15607665D02*
X11444715Y-15626712D01*
X11444715Y-15626712D02*
X11444715Y-15674331D01*
X11444715Y-15674331D02*
X11435191Y-15693379D01*
X11435191Y-15693379D02*
X11425668Y-15702903D01*
X11425668Y-15702903D02*
X11406620Y-15712426D01*
X11406620Y-15712426D02*
X11349477Y-15712426D01*
X11349477Y-15712426D02*
X11330429Y-15702903D01*
X11330429Y-15702903D02*
X11320906Y-15693379D01*
X11559001Y-15598141D02*
X11539953Y-15588617D01*
X11539953Y-15588617D02*
X11530429Y-15579093D01*
X11530429Y-15579093D02*
X11520906Y-15560045D01*
X11520906Y-15560045D02*
X11520906Y-15550522D01*
X11520906Y-15550522D02*
X11530429Y-15531474D01*
X11530429Y-15531474D02*
X11539953Y-15521950D01*
X11539953Y-15521950D02*
X11559001Y-15512426D01*
X11559001Y-15512426D02*
X11597096Y-15512426D01*
X11597096Y-15512426D02*
X11616144Y-15521950D01*
X11616144Y-15521950D02*
X11625668Y-15531474D01*
X11625668Y-15531474D02*
X11635191Y-15550522D01*
X11635191Y-15550522D02*
X11635191Y-15560045D01*
X11635191Y-15560045D02*
X11625668Y-15579093D01*
X11625668Y-15579093D02*
X11616144Y-15588617D01*
X11616144Y-15588617D02*
X11597096Y-15598141D01*
X11597096Y-15598141D02*
X11559001Y-15598141D01*
X11559001Y-15598141D02*
X11539953Y-15607665D01*
X11539953Y-15607665D02*
X11530429Y-15617188D01*
X11530429Y-15617188D02*
X11520906Y-15636236D01*
X11520906Y-15636236D02*
X11520906Y-15674331D01*
X11520906Y-15674331D02*
X11530429Y-15693379D01*
X11530429Y-15693379D02*
X11539953Y-15702903D01*
X11539953Y-15702903D02*
X11559001Y-15712426D01*
X11559001Y-15712426D02*
X11597096Y-15712426D01*
X11597096Y-15712426D02*
X11616144Y-15702903D01*
X11616144Y-15702903D02*
X11625668Y-15693379D01*
X11625668Y-15693379D02*
X11635191Y-15674331D01*
X11635191Y-15674331D02*
X11635191Y-15636236D01*
X11635191Y-15636236D02*
X11625668Y-15617188D01*
X11625668Y-15617188D02*
X11616144Y-15607665D01*
X11616144Y-15607665D02*
X11597096Y-15598141D01*
X11873287Y-15712426D02*
X11873287Y-15512426D01*
X11959001Y-15712426D02*
X11959001Y-15607665D01*
X11959001Y-15607665D02*
X11949477Y-15588617D01*
X11949477Y-15588617D02*
X11930430Y-15579093D01*
X11930430Y-15579093D02*
X11901858Y-15579093D01*
X11901858Y-15579093D02*
X11882810Y-15588617D01*
X11882810Y-15588617D02*
X11873287Y-15598141D01*
X12082810Y-15712426D02*
X12063763Y-15702903D01*
X12063763Y-15702903D02*
X12054239Y-15693379D01*
X12054239Y-15693379D02*
X12044715Y-15674331D01*
X12044715Y-15674331D02*
X12044715Y-15617188D01*
X12044715Y-15617188D02*
X12054239Y-15598141D01*
X12054239Y-15598141D02*
X12063763Y-15588617D01*
X12063763Y-15588617D02*
X12082810Y-15579093D01*
X12082810Y-15579093D02*
X12111382Y-15579093D01*
X12111382Y-15579093D02*
X12130430Y-15588617D01*
X12130430Y-15588617D02*
X12139953Y-15598141D01*
X12139953Y-15598141D02*
X12149477Y-15617188D01*
X12149477Y-15617188D02*
X12149477Y-15674331D01*
X12149477Y-15674331D02*
X12139953Y-15693379D01*
X12139953Y-15693379D02*
X12130430Y-15702903D01*
X12130430Y-15702903D02*
X12111382Y-15712426D01*
X12111382Y-15712426D02*
X12082810Y-15712426D01*
X12263763Y-15712426D02*
X12244715Y-15702903D01*
X12244715Y-15702903D02*
X12235191Y-15683855D01*
X12235191Y-15683855D02*
X12235191Y-15512426D01*
X12416144Y-15702903D02*
X12397096Y-15712426D01*
X12397096Y-15712426D02*
X12359001Y-15712426D01*
X12359001Y-15712426D02*
X12339953Y-15702903D01*
X12339953Y-15702903D02*
X12330430Y-15683855D01*
X12330430Y-15683855D02*
X12330430Y-15607665D01*
X12330430Y-15607665D02*
X12339953Y-15588617D01*
X12339953Y-15588617D02*
X12359001Y-15579093D01*
X12359001Y-15579093D02*
X12397096Y-15579093D01*
X12397096Y-15579093D02*
X12416144Y-15588617D01*
X12416144Y-15588617D02*
X12425668Y-15607665D01*
X12425668Y-15607665D02*
X12425668Y-15626712D01*
X12425668Y-15626712D02*
X12330430Y-15645760D01*
X12501858Y-15702903D02*
X12520906Y-15712426D01*
X12520906Y-15712426D02*
X12559001Y-15712426D01*
X12559001Y-15712426D02*
X12578049Y-15702903D01*
X12578049Y-15702903D02*
X12587572Y-15683855D01*
X12587572Y-15683855D02*
X12587572Y-15674331D01*
X12587572Y-15674331D02*
X12578049Y-15655284D01*
X12578049Y-15655284D02*
X12559001Y-15645760D01*
X12559001Y-15645760D02*
X12530430Y-15645760D01*
X12530430Y-15645760D02*
X12511382Y-15636236D01*
X12511382Y-15636236D02*
X12501858Y-15617188D01*
X12501858Y-15617188D02*
X12501858Y-15607665D01*
X12501858Y-15607665D02*
X12511382Y-15588617D01*
X12511382Y-15588617D02*
X12530430Y-15579093D01*
X12530430Y-15579093D02*
X12559001Y-15579093D01*
X12559001Y-15579093D02*
X12578049Y-15588617D01*
X12654239Y-15788617D02*
X12663763Y-15779093D01*
X12663763Y-15779093D02*
X12682811Y-15750522D01*
X12682811Y-15750522D02*
X12692334Y-15731474D01*
X12692334Y-15731474D02*
X12701858Y-15702903D01*
X12701858Y-15702903D02*
X12711382Y-15655284D01*
X12711382Y-15655284D02*
X12711382Y-15617188D01*
X12711382Y-15617188D02*
X12701858Y-15569569D01*
X12701858Y-15569569D02*
X12692334Y-15540998D01*
X12692334Y-15540998D02*
X12682811Y-15521950D01*
X12682811Y-15521950D02*
X12663763Y-15493379D01*
X12663763Y-15493379D02*
X12654239Y-15483855D01*
X13016144Y-15788617D02*
X13006620Y-15779093D01*
X13006620Y-15779093D02*
X12987572Y-15750522D01*
X12987572Y-15750522D02*
X12978049Y-15731474D01*
X12978049Y-15731474D02*
X12968525Y-15702903D01*
X12968525Y-15702903D02*
X12959001Y-15655284D01*
X12959001Y-15655284D02*
X12959001Y-15617188D01*
X12959001Y-15617188D02*
X12968525Y-15569569D01*
X12968525Y-15569569D02*
X12978049Y-15540998D01*
X12978049Y-15540998D02*
X12987572Y-15521950D01*
X12987572Y-15521950D02*
X13006620Y-15493379D01*
X13006620Y-15493379D02*
X13016144Y-15483855D01*
X13092334Y-15579093D02*
X13092334Y-15712426D01*
X13092334Y-15598141D02*
X13101858Y-15588617D01*
X13101858Y-15588617D02*
X13120906Y-15579093D01*
X13120906Y-15579093D02*
X13149477Y-15579093D01*
X13149477Y-15579093D02*
X13168525Y-15588617D01*
X13168525Y-15588617D02*
X13178049Y-15607665D01*
X13178049Y-15607665D02*
X13178049Y-15712426D01*
X13301858Y-15712426D02*
X13282811Y-15702903D01*
X13282811Y-15702903D02*
X13273287Y-15693379D01*
X13273287Y-15693379D02*
X13263763Y-15674331D01*
X13263763Y-15674331D02*
X13263763Y-15617188D01*
X13263763Y-15617188D02*
X13273287Y-15598141D01*
X13273287Y-15598141D02*
X13282811Y-15588617D01*
X13282811Y-15588617D02*
X13301858Y-15579093D01*
X13301858Y-15579093D02*
X13330430Y-15579093D01*
X13330430Y-15579093D02*
X13349477Y-15588617D01*
X13349477Y-15588617D02*
X13359001Y-15598141D01*
X13359001Y-15598141D02*
X13368525Y-15617188D01*
X13368525Y-15617188D02*
X13368525Y-15674331D01*
X13368525Y-15674331D02*
X13359001Y-15693379D01*
X13359001Y-15693379D02*
X13349477Y-15702903D01*
X13349477Y-15702903D02*
X13330430Y-15712426D01*
X13330430Y-15712426D02*
X13301858Y-15712426D01*
X13425668Y-15579093D02*
X13501858Y-15579093D01*
X13454239Y-15512426D02*
X13454239Y-15683855D01*
X13454239Y-15683855D02*
X13463763Y-15702903D01*
X13463763Y-15702903D02*
X13482811Y-15712426D01*
X13482811Y-15712426D02*
X13501858Y-15712426D01*
X13720906Y-15579093D02*
X13720906Y-15779093D01*
X13720906Y-15588617D02*
X13739953Y-15579093D01*
X13739953Y-15579093D02*
X13778049Y-15579093D01*
X13778049Y-15579093D02*
X13797096Y-15588617D01*
X13797096Y-15588617D02*
X13806620Y-15598141D01*
X13806620Y-15598141D02*
X13816144Y-15617188D01*
X13816144Y-15617188D02*
X13816144Y-15674331D01*
X13816144Y-15674331D02*
X13806620Y-15693379D01*
X13806620Y-15693379D02*
X13797096Y-15702903D01*
X13797096Y-15702903D02*
X13778049Y-15712426D01*
X13778049Y-15712426D02*
X13739953Y-15712426D01*
X13739953Y-15712426D02*
X13720906Y-15702903D01*
X13930430Y-15712426D02*
X13911382Y-15702903D01*
X13911382Y-15702903D02*
X13901858Y-15683855D01*
X13901858Y-15683855D02*
X13901858Y-15512426D01*
X14092334Y-15712426D02*
X14092334Y-15607665D01*
X14092334Y-15607665D02*
X14082811Y-15588617D01*
X14082811Y-15588617D02*
X14063763Y-15579093D01*
X14063763Y-15579093D02*
X14025668Y-15579093D01*
X14025668Y-15579093D02*
X14006620Y-15588617D01*
X14092334Y-15702903D02*
X14073287Y-15712426D01*
X14073287Y-15712426D02*
X14025668Y-15712426D01*
X14025668Y-15712426D02*
X14006620Y-15702903D01*
X14006620Y-15702903D02*
X13997096Y-15683855D01*
X13997096Y-15683855D02*
X13997096Y-15664807D01*
X13997096Y-15664807D02*
X14006620Y-15645760D01*
X14006620Y-15645760D02*
X14025668Y-15636236D01*
X14025668Y-15636236D02*
X14073287Y-15636236D01*
X14073287Y-15636236D02*
X14092334Y-15626712D01*
X14159001Y-15579093D02*
X14235192Y-15579093D01*
X14187573Y-15512426D02*
X14187573Y-15683855D01*
X14187573Y-15683855D02*
X14197096Y-15702903D01*
X14197096Y-15702903D02*
X14216144Y-15712426D01*
X14216144Y-15712426D02*
X14235192Y-15712426D01*
X14378049Y-15702903D02*
X14359001Y-15712426D01*
X14359001Y-15712426D02*
X14320906Y-15712426D01*
X14320906Y-15712426D02*
X14301858Y-15702903D01*
X14301858Y-15702903D02*
X14292334Y-15683855D01*
X14292334Y-15683855D02*
X14292334Y-15607665D01*
X14292334Y-15607665D02*
X14301858Y-15588617D01*
X14301858Y-15588617D02*
X14320906Y-15579093D01*
X14320906Y-15579093D02*
X14359001Y-15579093D01*
X14359001Y-15579093D02*
X14378049Y-15588617D01*
X14378049Y-15588617D02*
X14387573Y-15607665D01*
X14387573Y-15607665D02*
X14387573Y-15626712D01*
X14387573Y-15626712D02*
X14292334Y-15645760D01*
X14559001Y-15712426D02*
X14559001Y-15512426D01*
X14559001Y-15702903D02*
X14539954Y-15712426D01*
X14539954Y-15712426D02*
X14501858Y-15712426D01*
X14501858Y-15712426D02*
X14482811Y-15702903D01*
X14482811Y-15702903D02*
X14473287Y-15693379D01*
X14473287Y-15693379D02*
X14463763Y-15674331D01*
X14463763Y-15674331D02*
X14463763Y-15617188D01*
X14463763Y-15617188D02*
X14473287Y-15598141D01*
X14473287Y-15598141D02*
X14482811Y-15588617D01*
X14482811Y-15588617D02*
X14501858Y-15579093D01*
X14501858Y-15579093D02*
X14539954Y-15579093D01*
X14539954Y-15579093D02*
X14559001Y-15588617D01*
X14635192Y-15788617D02*
X14644715Y-15779093D01*
X14644715Y-15779093D02*
X14663763Y-15750522D01*
X14663763Y-15750522D02*
X14673287Y-15731474D01*
X14673287Y-15731474D02*
X14682811Y-15702903D01*
X14682811Y-15702903D02*
X14692334Y-15655284D01*
X14692334Y-15655284D02*
X14692334Y-15617188D01*
X14692334Y-15617188D02*
X14682811Y-15569569D01*
X14682811Y-15569569D02*
X14673287Y-15540998D01*
X14673287Y-15540998D02*
X14663763Y-15521950D01*
X14663763Y-15521950D02*
X14644715Y-15493379D01*
X14644715Y-15493379D02*
X14635192Y-15483855D01*
D13*
X7628700Y-15824943D02*
X7628700Y-15944943D01*
X7568700Y-15884943D02*
X7688700Y-15884943D01*
D11*
X8054239Y-15976426D02*
X7939953Y-15976426D01*
X7997096Y-15976426D02*
X7997096Y-15776426D01*
X7997096Y-15776426D02*
X7978048Y-15804998D01*
X7978048Y-15804998D02*
X7959001Y-15824045D01*
X7959001Y-15824045D02*
X7939953Y-15833569D01*
X8139953Y-15957379D02*
X8149477Y-15966903D01*
X8149477Y-15966903D02*
X8139953Y-15976426D01*
X8139953Y-15976426D02*
X8130429Y-15966903D01*
X8130429Y-15966903D02*
X8139953Y-15957379D01*
X8139953Y-15957379D02*
X8139953Y-15976426D01*
X8225667Y-15795474D02*
X8235191Y-15785950D01*
X8235191Y-15785950D02*
X8254239Y-15776426D01*
X8254239Y-15776426D02*
X8301858Y-15776426D01*
X8301858Y-15776426D02*
X8320905Y-15785950D01*
X8320905Y-15785950D02*
X8330429Y-15795474D01*
X8330429Y-15795474D02*
X8339953Y-15814522D01*
X8339953Y-15814522D02*
X8339953Y-15833569D01*
X8339953Y-15833569D02*
X8330429Y-15862141D01*
X8330429Y-15862141D02*
X8216143Y-15976426D01*
X8216143Y-15976426D02*
X8339953Y-15976426D01*
X8463763Y-15776426D02*
X8482810Y-15776426D01*
X8482810Y-15776426D02*
X8501858Y-15785950D01*
X8501858Y-15785950D02*
X8511382Y-15795474D01*
X8511382Y-15795474D02*
X8520905Y-15814522D01*
X8520905Y-15814522D02*
X8530429Y-15852617D01*
X8530429Y-15852617D02*
X8530429Y-15900236D01*
X8530429Y-15900236D02*
X8520905Y-15938331D01*
X8520905Y-15938331D02*
X8511382Y-15957379D01*
X8511382Y-15957379D02*
X8501858Y-15966903D01*
X8501858Y-15966903D02*
X8482810Y-15976426D01*
X8482810Y-15976426D02*
X8463763Y-15976426D01*
X8463763Y-15976426D02*
X8444715Y-15966903D01*
X8444715Y-15966903D02*
X8435191Y-15957379D01*
X8435191Y-15957379D02*
X8425667Y-15938331D01*
X8425667Y-15938331D02*
X8416144Y-15900236D01*
X8416144Y-15900236D02*
X8416144Y-15852617D01*
X8416144Y-15852617D02*
X8425667Y-15814522D01*
X8425667Y-15814522D02*
X8435191Y-15795474D01*
X8435191Y-15795474D02*
X8444715Y-15785950D01*
X8444715Y-15785950D02*
X8463763Y-15776426D01*
X8654239Y-15776426D02*
X8673286Y-15776426D01*
X8673286Y-15776426D02*
X8692334Y-15785950D01*
X8692334Y-15785950D02*
X8701858Y-15795474D01*
X8701858Y-15795474D02*
X8711382Y-15814522D01*
X8711382Y-15814522D02*
X8720905Y-15852617D01*
X8720905Y-15852617D02*
X8720905Y-15900236D01*
X8720905Y-15900236D02*
X8711382Y-15938331D01*
X8711382Y-15938331D02*
X8701858Y-15957379D01*
X8701858Y-15957379D02*
X8692334Y-15966903D01*
X8692334Y-15966903D02*
X8673286Y-15976426D01*
X8673286Y-15976426D02*
X8654239Y-15976426D01*
X8654239Y-15976426D02*
X8635191Y-15966903D01*
X8635191Y-15966903D02*
X8625667Y-15957379D01*
X8625667Y-15957379D02*
X8616144Y-15938331D01*
X8616144Y-15938331D02*
X8606620Y-15900236D01*
X8606620Y-15900236D02*
X8606620Y-15852617D01*
X8606620Y-15852617D02*
X8616144Y-15814522D01*
X8616144Y-15814522D02*
X8625667Y-15795474D01*
X8625667Y-15795474D02*
X8635191Y-15785950D01*
X8635191Y-15785950D02*
X8654239Y-15776426D01*
X8806620Y-15976426D02*
X8806620Y-15843093D01*
X8806620Y-15862141D02*
X8816144Y-15852617D01*
X8816144Y-15852617D02*
X8835191Y-15843093D01*
X8835191Y-15843093D02*
X8863763Y-15843093D01*
X8863763Y-15843093D02*
X8882810Y-15852617D01*
X8882810Y-15852617D02*
X8892334Y-15871665D01*
X8892334Y-15871665D02*
X8892334Y-15976426D01*
X8892334Y-15871665D02*
X8901858Y-15852617D01*
X8901858Y-15852617D02*
X8920905Y-15843093D01*
X8920905Y-15843093D02*
X8949477Y-15843093D01*
X8949477Y-15843093D02*
X8968525Y-15852617D01*
X8968525Y-15852617D02*
X8978048Y-15871665D01*
X8978048Y-15871665D02*
X8978048Y-15976426D01*
X9073286Y-15976426D02*
X9073286Y-15843093D01*
X9073286Y-15862141D02*
X9082810Y-15852617D01*
X9082810Y-15852617D02*
X9101858Y-15843093D01*
X9101858Y-15843093D02*
X9130429Y-15843093D01*
X9130429Y-15843093D02*
X9149477Y-15852617D01*
X9149477Y-15852617D02*
X9159001Y-15871665D01*
X9159001Y-15871665D02*
X9159001Y-15976426D01*
X9159001Y-15871665D02*
X9168525Y-15852617D01*
X9168525Y-15852617D02*
X9187572Y-15843093D01*
X9187572Y-15843093D02*
X9216144Y-15843093D01*
X9216144Y-15843093D02*
X9235191Y-15852617D01*
X9235191Y-15852617D02*
X9244715Y-15871665D01*
X9244715Y-15871665D02*
X9244715Y-15976426D01*
X9635191Y-15766903D02*
X9463763Y-16024045D01*
X9892334Y-15776426D02*
X9911382Y-15776426D01*
X9911382Y-15776426D02*
X9930429Y-15785950D01*
X9930429Y-15785950D02*
X9939953Y-15795474D01*
X9939953Y-15795474D02*
X9949477Y-15814522D01*
X9949477Y-15814522D02*
X9959001Y-15852617D01*
X9959001Y-15852617D02*
X9959001Y-15900236D01*
X9959001Y-15900236D02*
X9949477Y-15938331D01*
X9949477Y-15938331D02*
X9939953Y-15957379D01*
X9939953Y-15957379D02*
X9930429Y-15966903D01*
X9930429Y-15966903D02*
X9911382Y-15976426D01*
X9911382Y-15976426D02*
X9892334Y-15976426D01*
X9892334Y-15976426D02*
X9873287Y-15966903D01*
X9873287Y-15966903D02*
X9863763Y-15957379D01*
X9863763Y-15957379D02*
X9854239Y-15938331D01*
X9854239Y-15938331D02*
X9844715Y-15900236D01*
X9844715Y-15900236D02*
X9844715Y-15852617D01*
X9844715Y-15852617D02*
X9854239Y-15814522D01*
X9854239Y-15814522D02*
X9863763Y-15795474D01*
X9863763Y-15795474D02*
X9873287Y-15785950D01*
X9873287Y-15785950D02*
X9892334Y-15776426D01*
X10044715Y-15957379D02*
X10054239Y-15966903D01*
X10054239Y-15966903D02*
X10044715Y-15976426D01*
X10044715Y-15976426D02*
X10035191Y-15966903D01*
X10035191Y-15966903D02*
X10044715Y-15957379D01*
X10044715Y-15957379D02*
X10044715Y-15976426D01*
X10178048Y-15776426D02*
X10197096Y-15776426D01*
X10197096Y-15776426D02*
X10216144Y-15785950D01*
X10216144Y-15785950D02*
X10225668Y-15795474D01*
X10225668Y-15795474D02*
X10235191Y-15814522D01*
X10235191Y-15814522D02*
X10244715Y-15852617D01*
X10244715Y-15852617D02*
X10244715Y-15900236D01*
X10244715Y-15900236D02*
X10235191Y-15938331D01*
X10235191Y-15938331D02*
X10225668Y-15957379D01*
X10225668Y-15957379D02*
X10216144Y-15966903D01*
X10216144Y-15966903D02*
X10197096Y-15976426D01*
X10197096Y-15976426D02*
X10178048Y-15976426D01*
X10178048Y-15976426D02*
X10159001Y-15966903D01*
X10159001Y-15966903D02*
X10149477Y-15957379D01*
X10149477Y-15957379D02*
X10139953Y-15938331D01*
X10139953Y-15938331D02*
X10130429Y-15900236D01*
X10130429Y-15900236D02*
X10130429Y-15852617D01*
X10130429Y-15852617D02*
X10139953Y-15814522D01*
X10139953Y-15814522D02*
X10149477Y-15795474D01*
X10149477Y-15795474D02*
X10159001Y-15785950D01*
X10159001Y-15785950D02*
X10178048Y-15776426D01*
X10416144Y-15843093D02*
X10416144Y-15976426D01*
X10368525Y-15766903D02*
X10320906Y-15909760D01*
X10320906Y-15909760D02*
X10444715Y-15909760D01*
X10501858Y-15776426D02*
X10635191Y-15776426D01*
X10635191Y-15776426D02*
X10549477Y-15976426D01*
X10701858Y-15795474D02*
X10711382Y-15785950D01*
X10711382Y-15785950D02*
X10730429Y-15776426D01*
X10730429Y-15776426D02*
X10778049Y-15776426D01*
X10778049Y-15776426D02*
X10797096Y-15785950D01*
X10797096Y-15785950D02*
X10806620Y-15795474D01*
X10806620Y-15795474D02*
X10816144Y-15814522D01*
X10816144Y-15814522D02*
X10816144Y-15833569D01*
X10816144Y-15833569D02*
X10806620Y-15862141D01*
X10806620Y-15862141D02*
X10692334Y-15976426D01*
X10692334Y-15976426D02*
X10816144Y-15976426D01*
X10892334Y-15776426D02*
X10892334Y-15814522D01*
X10968525Y-15776426D02*
X10968525Y-15814522D01*
X11263763Y-16052617D02*
X11254239Y-16043093D01*
X11254239Y-16043093D02*
X11235191Y-16014522D01*
X11235191Y-16014522D02*
X11225668Y-15995474D01*
X11225668Y-15995474D02*
X11216144Y-15966903D01*
X11216144Y-15966903D02*
X11206620Y-15919284D01*
X11206620Y-15919284D02*
X11206620Y-15881188D01*
X11206620Y-15881188D02*
X11216144Y-15833569D01*
X11216144Y-15833569D02*
X11225668Y-15804998D01*
X11225668Y-15804998D02*
X11235191Y-15785950D01*
X11235191Y-15785950D02*
X11254239Y-15757379D01*
X11254239Y-15757379D02*
X11263763Y-15747855D01*
X11425668Y-15843093D02*
X11425668Y-15976426D01*
X11378048Y-15766903D02*
X11330429Y-15909760D01*
X11330429Y-15909760D02*
X11454239Y-15909760D01*
X11682810Y-15976426D02*
X11682810Y-15776426D01*
X11768525Y-15976426D02*
X11768525Y-15871665D01*
X11768525Y-15871665D02*
X11759001Y-15852617D01*
X11759001Y-15852617D02*
X11739953Y-15843093D01*
X11739953Y-15843093D02*
X11711382Y-15843093D01*
X11711382Y-15843093D02*
X11692334Y-15852617D01*
X11692334Y-15852617D02*
X11682810Y-15862141D01*
X11892334Y-15976426D02*
X11873287Y-15966903D01*
X11873287Y-15966903D02*
X11863763Y-15957379D01*
X11863763Y-15957379D02*
X11854239Y-15938331D01*
X11854239Y-15938331D02*
X11854239Y-15881188D01*
X11854239Y-15881188D02*
X11863763Y-15862141D01*
X11863763Y-15862141D02*
X11873287Y-15852617D01*
X11873287Y-15852617D02*
X11892334Y-15843093D01*
X11892334Y-15843093D02*
X11920906Y-15843093D01*
X11920906Y-15843093D02*
X11939953Y-15852617D01*
X11939953Y-15852617D02*
X11949477Y-15862141D01*
X11949477Y-15862141D02*
X11959001Y-15881188D01*
X11959001Y-15881188D02*
X11959001Y-15938331D01*
X11959001Y-15938331D02*
X11949477Y-15957379D01*
X11949477Y-15957379D02*
X11939953Y-15966903D01*
X11939953Y-15966903D02*
X11920906Y-15976426D01*
X11920906Y-15976426D02*
X11892334Y-15976426D01*
X12073287Y-15976426D02*
X12054239Y-15966903D01*
X12054239Y-15966903D02*
X12044715Y-15947855D01*
X12044715Y-15947855D02*
X12044715Y-15776426D01*
X12225668Y-15966903D02*
X12206620Y-15976426D01*
X12206620Y-15976426D02*
X12168525Y-15976426D01*
X12168525Y-15976426D02*
X12149477Y-15966903D01*
X12149477Y-15966903D02*
X12139953Y-15947855D01*
X12139953Y-15947855D02*
X12139953Y-15871665D01*
X12139953Y-15871665D02*
X12149477Y-15852617D01*
X12149477Y-15852617D02*
X12168525Y-15843093D01*
X12168525Y-15843093D02*
X12206620Y-15843093D01*
X12206620Y-15843093D02*
X12225668Y-15852617D01*
X12225668Y-15852617D02*
X12235191Y-15871665D01*
X12235191Y-15871665D02*
X12235191Y-15890712D01*
X12235191Y-15890712D02*
X12139953Y-15909760D01*
X12311382Y-15966903D02*
X12330430Y-15976426D01*
X12330430Y-15976426D02*
X12368525Y-15976426D01*
X12368525Y-15976426D02*
X12387572Y-15966903D01*
X12387572Y-15966903D02*
X12397096Y-15947855D01*
X12397096Y-15947855D02*
X12397096Y-15938331D01*
X12397096Y-15938331D02*
X12387572Y-15919284D01*
X12387572Y-15919284D02*
X12368525Y-15909760D01*
X12368525Y-15909760D02*
X12339953Y-15909760D01*
X12339953Y-15909760D02*
X12320906Y-15900236D01*
X12320906Y-15900236D02*
X12311382Y-15881188D01*
X12311382Y-15881188D02*
X12311382Y-15871665D01*
X12311382Y-15871665D02*
X12320906Y-15852617D01*
X12320906Y-15852617D02*
X12339953Y-15843093D01*
X12339953Y-15843093D02*
X12368525Y-15843093D01*
X12368525Y-15843093D02*
X12387572Y-15852617D01*
X12463763Y-16052617D02*
X12473287Y-16043093D01*
X12473287Y-16043093D02*
X12492334Y-16014522D01*
X12492334Y-16014522D02*
X12501858Y-15995474D01*
X12501858Y-15995474D02*
X12511382Y-15966903D01*
X12511382Y-15966903D02*
X12520906Y-15919284D01*
X12520906Y-15919284D02*
X12520906Y-15881188D01*
X12520906Y-15881188D02*
X12511382Y-15833569D01*
X12511382Y-15833569D02*
X12501858Y-15804998D01*
X12501858Y-15804998D02*
X12492334Y-15785950D01*
X12492334Y-15785950D02*
X12473287Y-15757379D01*
X12473287Y-15757379D02*
X12463763Y-15747855D01*
X12825668Y-16052617D02*
X12816144Y-16043093D01*
X12816144Y-16043093D02*
X12797096Y-16014522D01*
X12797096Y-16014522D02*
X12787572Y-15995474D01*
X12787572Y-15995474D02*
X12778049Y-15966903D01*
X12778049Y-15966903D02*
X12768525Y-15919284D01*
X12768525Y-15919284D02*
X12768525Y-15881188D01*
X12768525Y-15881188D02*
X12778049Y-15833569D01*
X12778049Y-15833569D02*
X12787572Y-15804998D01*
X12787572Y-15804998D02*
X12797096Y-15785950D01*
X12797096Y-15785950D02*
X12816144Y-15757379D01*
X12816144Y-15757379D02*
X12825668Y-15747855D01*
X12901858Y-15843093D02*
X12901858Y-15976426D01*
X12901858Y-15862141D02*
X12911382Y-15852617D01*
X12911382Y-15852617D02*
X12930430Y-15843093D01*
X12930430Y-15843093D02*
X12959001Y-15843093D01*
X12959001Y-15843093D02*
X12978049Y-15852617D01*
X12978049Y-15852617D02*
X12987572Y-15871665D01*
X12987572Y-15871665D02*
X12987572Y-15976426D01*
X13111382Y-15976426D02*
X13092334Y-15966903D01*
X13092334Y-15966903D02*
X13082811Y-15957379D01*
X13082811Y-15957379D02*
X13073287Y-15938331D01*
X13073287Y-15938331D02*
X13073287Y-15881188D01*
X13073287Y-15881188D02*
X13082811Y-15862141D01*
X13082811Y-15862141D02*
X13092334Y-15852617D01*
X13092334Y-15852617D02*
X13111382Y-15843093D01*
X13111382Y-15843093D02*
X13139953Y-15843093D01*
X13139953Y-15843093D02*
X13159001Y-15852617D01*
X13159001Y-15852617D02*
X13168525Y-15862141D01*
X13168525Y-15862141D02*
X13178049Y-15881188D01*
X13178049Y-15881188D02*
X13178049Y-15938331D01*
X13178049Y-15938331D02*
X13168525Y-15957379D01*
X13168525Y-15957379D02*
X13159001Y-15966903D01*
X13159001Y-15966903D02*
X13139953Y-15976426D01*
X13139953Y-15976426D02*
X13111382Y-15976426D01*
X13235192Y-15843093D02*
X13311382Y-15843093D01*
X13263763Y-15776426D02*
X13263763Y-15947855D01*
X13263763Y-15947855D02*
X13273287Y-15966903D01*
X13273287Y-15966903D02*
X13292334Y-15976426D01*
X13292334Y-15976426D02*
X13311382Y-15976426D01*
X13530430Y-15843093D02*
X13530430Y-16043093D01*
X13530430Y-15852617D02*
X13549477Y-15843093D01*
X13549477Y-15843093D02*
X13587573Y-15843093D01*
X13587573Y-15843093D02*
X13606620Y-15852617D01*
X13606620Y-15852617D02*
X13616144Y-15862141D01*
X13616144Y-15862141D02*
X13625668Y-15881188D01*
X13625668Y-15881188D02*
X13625668Y-15938331D01*
X13625668Y-15938331D02*
X13616144Y-15957379D01*
X13616144Y-15957379D02*
X13606620Y-15966903D01*
X13606620Y-15966903D02*
X13587573Y-15976426D01*
X13587573Y-15976426D02*
X13549477Y-15976426D01*
X13549477Y-15976426D02*
X13530430Y-15966903D01*
X13739953Y-15976426D02*
X13720906Y-15966903D01*
X13720906Y-15966903D02*
X13711382Y-15947855D01*
X13711382Y-15947855D02*
X13711382Y-15776426D01*
X13901858Y-15976426D02*
X13901858Y-15871665D01*
X13901858Y-15871665D02*
X13892334Y-15852617D01*
X13892334Y-15852617D02*
X13873287Y-15843093D01*
X13873287Y-15843093D02*
X13835192Y-15843093D01*
X13835192Y-15843093D02*
X13816144Y-15852617D01*
X13901858Y-15966903D02*
X13882811Y-15976426D01*
X13882811Y-15976426D02*
X13835192Y-15976426D01*
X13835192Y-15976426D02*
X13816144Y-15966903D01*
X13816144Y-15966903D02*
X13806620Y-15947855D01*
X13806620Y-15947855D02*
X13806620Y-15928807D01*
X13806620Y-15928807D02*
X13816144Y-15909760D01*
X13816144Y-15909760D02*
X13835192Y-15900236D01*
X13835192Y-15900236D02*
X13882811Y-15900236D01*
X13882811Y-15900236D02*
X13901858Y-15890712D01*
X13968525Y-15843093D02*
X14044715Y-15843093D01*
X13997096Y-15776426D02*
X13997096Y-15947855D01*
X13997096Y-15947855D02*
X14006620Y-15966903D01*
X14006620Y-15966903D02*
X14025668Y-15976426D01*
X14025668Y-15976426D02*
X14044715Y-15976426D01*
X14187573Y-15966903D02*
X14168525Y-15976426D01*
X14168525Y-15976426D02*
X14130430Y-15976426D01*
X14130430Y-15976426D02*
X14111382Y-15966903D01*
X14111382Y-15966903D02*
X14101858Y-15947855D01*
X14101858Y-15947855D02*
X14101858Y-15871665D01*
X14101858Y-15871665D02*
X14111382Y-15852617D01*
X14111382Y-15852617D02*
X14130430Y-15843093D01*
X14130430Y-15843093D02*
X14168525Y-15843093D01*
X14168525Y-15843093D02*
X14187573Y-15852617D01*
X14187573Y-15852617D02*
X14197096Y-15871665D01*
X14197096Y-15871665D02*
X14197096Y-15890712D01*
X14197096Y-15890712D02*
X14101858Y-15909760D01*
X14368525Y-15976426D02*
X14368525Y-15776426D01*
X14368525Y-15966903D02*
X14349477Y-15976426D01*
X14349477Y-15976426D02*
X14311382Y-15976426D01*
X14311382Y-15976426D02*
X14292334Y-15966903D01*
X14292334Y-15966903D02*
X14282811Y-15957379D01*
X14282811Y-15957379D02*
X14273287Y-15938331D01*
X14273287Y-15938331D02*
X14273287Y-15881188D01*
X14273287Y-15881188D02*
X14282811Y-15862141D01*
X14282811Y-15862141D02*
X14292334Y-15852617D01*
X14292334Y-15852617D02*
X14311382Y-15843093D01*
X14311382Y-15843093D02*
X14349477Y-15843093D01*
X14349477Y-15843093D02*
X14368525Y-15852617D01*
X14444715Y-16052617D02*
X14454239Y-16043093D01*
X14454239Y-16043093D02*
X14473287Y-16014522D01*
X14473287Y-16014522D02*
X14482811Y-15995474D01*
X14482811Y-15995474D02*
X14492334Y-15966903D01*
X14492334Y-15966903D02*
X14501858Y-15919284D01*
X14501858Y-15919284D02*
X14501858Y-15881188D01*
X14501858Y-15881188D02*
X14492334Y-15833569D01*
X14492334Y-15833569D02*
X14482811Y-15804998D01*
X14482811Y-15804998D02*
X14473287Y-15785950D01*
X14473287Y-15785950D02*
X14454239Y-15757379D01*
X14454239Y-15757379D02*
X14444715Y-15747855D01*
D14*
X7663778Y-16209111D02*
X7663778Y-16088774D01*
X7543442Y-16088774D01*
X7543442Y-16209111D01*
X7663778Y-16209111D01*
D11*
X8054239Y-16240426D02*
X7939953Y-16240426D01*
X7997096Y-16240426D02*
X7997096Y-16040426D01*
X7997096Y-16040426D02*
X7978048Y-16068998D01*
X7978048Y-16068998D02*
X7959001Y-16088045D01*
X7959001Y-16088045D02*
X7939953Y-16097569D01*
X8139953Y-16221379D02*
X8149477Y-16230903D01*
X8149477Y-16230903D02*
X8139953Y-16240426D01*
X8139953Y-16240426D02*
X8130429Y-16230903D01*
X8130429Y-16230903D02*
X8139953Y-16221379D01*
X8139953Y-16221379D02*
X8139953Y-16240426D01*
X8216143Y-16040426D02*
X8349477Y-16040426D01*
X8349477Y-16040426D02*
X8263762Y-16240426D01*
X8463763Y-16040426D02*
X8482810Y-16040426D01*
X8482810Y-16040426D02*
X8501858Y-16049950D01*
X8501858Y-16049950D02*
X8511382Y-16059474D01*
X8511382Y-16059474D02*
X8520905Y-16078522D01*
X8520905Y-16078522D02*
X8530429Y-16116617D01*
X8530429Y-16116617D02*
X8530429Y-16164236D01*
X8530429Y-16164236D02*
X8520905Y-16202331D01*
X8520905Y-16202331D02*
X8511382Y-16221379D01*
X8511382Y-16221379D02*
X8501858Y-16230903D01*
X8501858Y-16230903D02*
X8482810Y-16240426D01*
X8482810Y-16240426D02*
X8463763Y-16240426D01*
X8463763Y-16240426D02*
X8444715Y-16230903D01*
X8444715Y-16230903D02*
X8435191Y-16221379D01*
X8435191Y-16221379D02*
X8425667Y-16202331D01*
X8425667Y-16202331D02*
X8416144Y-16164236D01*
X8416144Y-16164236D02*
X8416144Y-16116617D01*
X8416144Y-16116617D02*
X8425667Y-16078522D01*
X8425667Y-16078522D02*
X8435191Y-16059474D01*
X8435191Y-16059474D02*
X8444715Y-16049950D01*
X8444715Y-16049950D02*
X8463763Y-16040426D01*
X8606620Y-16059474D02*
X8616144Y-16049950D01*
X8616144Y-16049950D02*
X8635191Y-16040426D01*
X8635191Y-16040426D02*
X8682810Y-16040426D01*
X8682810Y-16040426D02*
X8701858Y-16049950D01*
X8701858Y-16049950D02*
X8711382Y-16059474D01*
X8711382Y-16059474D02*
X8720905Y-16078522D01*
X8720905Y-16078522D02*
X8720905Y-16097569D01*
X8720905Y-16097569D02*
X8711382Y-16126141D01*
X8711382Y-16126141D02*
X8597096Y-16240426D01*
X8597096Y-16240426D02*
X8720905Y-16240426D01*
X8806620Y-16240426D02*
X8806620Y-16107093D01*
X8806620Y-16126141D02*
X8816144Y-16116617D01*
X8816144Y-16116617D02*
X8835191Y-16107093D01*
X8835191Y-16107093D02*
X8863763Y-16107093D01*
X8863763Y-16107093D02*
X8882810Y-16116617D01*
X8882810Y-16116617D02*
X8892334Y-16135665D01*
X8892334Y-16135665D02*
X8892334Y-16240426D01*
X8892334Y-16135665D02*
X8901858Y-16116617D01*
X8901858Y-16116617D02*
X8920905Y-16107093D01*
X8920905Y-16107093D02*
X8949477Y-16107093D01*
X8949477Y-16107093D02*
X8968525Y-16116617D01*
X8968525Y-16116617D02*
X8978048Y-16135665D01*
X8978048Y-16135665D02*
X8978048Y-16240426D01*
X9073286Y-16240426D02*
X9073286Y-16107093D01*
X9073286Y-16126141D02*
X9082810Y-16116617D01*
X9082810Y-16116617D02*
X9101858Y-16107093D01*
X9101858Y-16107093D02*
X9130429Y-16107093D01*
X9130429Y-16107093D02*
X9149477Y-16116617D01*
X9149477Y-16116617D02*
X9159001Y-16135665D01*
X9159001Y-16135665D02*
X9159001Y-16240426D01*
X9159001Y-16135665D02*
X9168525Y-16116617D01*
X9168525Y-16116617D02*
X9187572Y-16107093D01*
X9187572Y-16107093D02*
X9216144Y-16107093D01*
X9216144Y-16107093D02*
X9235191Y-16116617D01*
X9235191Y-16116617D02*
X9244715Y-16135665D01*
X9244715Y-16135665D02*
X9244715Y-16240426D01*
X9635191Y-16030903D02*
X9463763Y-16288045D01*
X9892334Y-16040426D02*
X9911382Y-16040426D01*
X9911382Y-16040426D02*
X9930429Y-16049950D01*
X9930429Y-16049950D02*
X9939953Y-16059474D01*
X9939953Y-16059474D02*
X9949477Y-16078522D01*
X9949477Y-16078522D02*
X9959001Y-16116617D01*
X9959001Y-16116617D02*
X9959001Y-16164236D01*
X9959001Y-16164236D02*
X9949477Y-16202331D01*
X9949477Y-16202331D02*
X9939953Y-16221379D01*
X9939953Y-16221379D02*
X9930429Y-16230903D01*
X9930429Y-16230903D02*
X9911382Y-16240426D01*
X9911382Y-16240426D02*
X9892334Y-16240426D01*
X9892334Y-16240426D02*
X9873287Y-16230903D01*
X9873287Y-16230903D02*
X9863763Y-16221379D01*
X9863763Y-16221379D02*
X9854239Y-16202331D01*
X9854239Y-16202331D02*
X9844715Y-16164236D01*
X9844715Y-16164236D02*
X9844715Y-16116617D01*
X9844715Y-16116617D02*
X9854239Y-16078522D01*
X9854239Y-16078522D02*
X9863763Y-16059474D01*
X9863763Y-16059474D02*
X9873287Y-16049950D01*
X9873287Y-16049950D02*
X9892334Y-16040426D01*
X10044715Y-16221379D02*
X10054239Y-16230903D01*
X10054239Y-16230903D02*
X10044715Y-16240426D01*
X10044715Y-16240426D02*
X10035191Y-16230903D01*
X10035191Y-16230903D02*
X10044715Y-16221379D01*
X10044715Y-16221379D02*
X10044715Y-16240426D01*
X10178048Y-16040426D02*
X10197096Y-16040426D01*
X10197096Y-16040426D02*
X10216144Y-16049950D01*
X10216144Y-16049950D02*
X10225668Y-16059474D01*
X10225668Y-16059474D02*
X10235191Y-16078522D01*
X10235191Y-16078522D02*
X10244715Y-16116617D01*
X10244715Y-16116617D02*
X10244715Y-16164236D01*
X10244715Y-16164236D02*
X10235191Y-16202331D01*
X10235191Y-16202331D02*
X10225668Y-16221379D01*
X10225668Y-16221379D02*
X10216144Y-16230903D01*
X10216144Y-16230903D02*
X10197096Y-16240426D01*
X10197096Y-16240426D02*
X10178048Y-16240426D01*
X10178048Y-16240426D02*
X10159001Y-16230903D01*
X10159001Y-16230903D02*
X10149477Y-16221379D01*
X10149477Y-16221379D02*
X10139953Y-16202331D01*
X10139953Y-16202331D02*
X10130429Y-16164236D01*
X10130429Y-16164236D02*
X10130429Y-16116617D01*
X10130429Y-16116617D02*
X10139953Y-16078522D01*
X10139953Y-16078522D02*
X10149477Y-16059474D01*
X10149477Y-16059474D02*
X10159001Y-16049950D01*
X10159001Y-16049950D02*
X10178048Y-16040426D01*
X10416144Y-16040426D02*
X10378048Y-16040426D01*
X10378048Y-16040426D02*
X10359001Y-16049950D01*
X10359001Y-16049950D02*
X10349477Y-16059474D01*
X10349477Y-16059474D02*
X10330429Y-16088045D01*
X10330429Y-16088045D02*
X10320906Y-16126141D01*
X10320906Y-16126141D02*
X10320906Y-16202331D01*
X10320906Y-16202331D02*
X10330429Y-16221379D01*
X10330429Y-16221379D02*
X10339953Y-16230903D01*
X10339953Y-16230903D02*
X10359001Y-16240426D01*
X10359001Y-16240426D02*
X10397096Y-16240426D01*
X10397096Y-16240426D02*
X10416144Y-16230903D01*
X10416144Y-16230903D02*
X10425668Y-16221379D01*
X10425668Y-16221379D02*
X10435191Y-16202331D01*
X10435191Y-16202331D02*
X10435191Y-16154712D01*
X10435191Y-16154712D02*
X10425668Y-16135665D01*
X10425668Y-16135665D02*
X10416144Y-16126141D01*
X10416144Y-16126141D02*
X10397096Y-16116617D01*
X10397096Y-16116617D02*
X10359001Y-16116617D01*
X10359001Y-16116617D02*
X10339953Y-16126141D01*
X10339953Y-16126141D02*
X10330429Y-16135665D01*
X10330429Y-16135665D02*
X10320906Y-16154712D01*
X10501858Y-16040426D02*
X10635191Y-16040426D01*
X10635191Y-16040426D02*
X10549477Y-16240426D01*
X10749477Y-16040426D02*
X10768525Y-16040426D01*
X10768525Y-16040426D02*
X10787572Y-16049950D01*
X10787572Y-16049950D02*
X10797096Y-16059474D01*
X10797096Y-16059474D02*
X10806620Y-16078522D01*
X10806620Y-16078522D02*
X10816144Y-16116617D01*
X10816144Y-16116617D02*
X10816144Y-16164236D01*
X10816144Y-16164236D02*
X10806620Y-16202331D01*
X10806620Y-16202331D02*
X10797096Y-16221379D01*
X10797096Y-16221379D02*
X10787572Y-16230903D01*
X10787572Y-16230903D02*
X10768525Y-16240426D01*
X10768525Y-16240426D02*
X10749477Y-16240426D01*
X10749477Y-16240426D02*
X10730429Y-16230903D01*
X10730429Y-16230903D02*
X10720906Y-16221379D01*
X10720906Y-16221379D02*
X10711382Y-16202331D01*
X10711382Y-16202331D02*
X10701858Y-16164236D01*
X10701858Y-16164236D02*
X10701858Y-16116617D01*
X10701858Y-16116617D02*
X10711382Y-16078522D01*
X10711382Y-16078522D02*
X10720906Y-16059474D01*
X10720906Y-16059474D02*
X10730429Y-16049950D01*
X10730429Y-16049950D02*
X10749477Y-16040426D01*
X10892334Y-16040426D02*
X10892334Y-16078522D01*
X10968525Y-16040426D02*
X10968525Y-16078522D01*
X11263763Y-16316617D02*
X11254239Y-16307093D01*
X11254239Y-16307093D02*
X11235191Y-16278522D01*
X11235191Y-16278522D02*
X11225668Y-16259474D01*
X11225668Y-16259474D02*
X11216144Y-16230903D01*
X11216144Y-16230903D02*
X11206620Y-16183284D01*
X11206620Y-16183284D02*
X11206620Y-16145188D01*
X11206620Y-16145188D02*
X11216144Y-16097569D01*
X11216144Y-16097569D02*
X11225668Y-16068998D01*
X11225668Y-16068998D02*
X11235191Y-16049950D01*
X11235191Y-16049950D02*
X11254239Y-16021379D01*
X11254239Y-16021379D02*
X11263763Y-16011855D01*
X11320906Y-16040426D02*
X11444715Y-16040426D01*
X11444715Y-16040426D02*
X11378048Y-16116617D01*
X11378048Y-16116617D02*
X11406620Y-16116617D01*
X11406620Y-16116617D02*
X11425668Y-16126141D01*
X11425668Y-16126141D02*
X11435191Y-16135665D01*
X11435191Y-16135665D02*
X11444715Y-16154712D01*
X11444715Y-16154712D02*
X11444715Y-16202331D01*
X11444715Y-16202331D02*
X11435191Y-16221379D01*
X11435191Y-16221379D02*
X11425668Y-16230903D01*
X11425668Y-16230903D02*
X11406620Y-16240426D01*
X11406620Y-16240426D02*
X11349477Y-16240426D01*
X11349477Y-16240426D02*
X11330429Y-16230903D01*
X11330429Y-16230903D02*
X11320906Y-16221379D01*
X11559001Y-16126141D02*
X11539953Y-16116617D01*
X11539953Y-16116617D02*
X11530429Y-16107093D01*
X11530429Y-16107093D02*
X11520906Y-16088045D01*
X11520906Y-16088045D02*
X11520906Y-16078522D01*
X11520906Y-16078522D02*
X11530429Y-16059474D01*
X11530429Y-16059474D02*
X11539953Y-16049950D01*
X11539953Y-16049950D02*
X11559001Y-16040426D01*
X11559001Y-16040426D02*
X11597096Y-16040426D01*
X11597096Y-16040426D02*
X11616144Y-16049950D01*
X11616144Y-16049950D02*
X11625668Y-16059474D01*
X11625668Y-16059474D02*
X11635191Y-16078522D01*
X11635191Y-16078522D02*
X11635191Y-16088045D01*
X11635191Y-16088045D02*
X11625668Y-16107093D01*
X11625668Y-16107093D02*
X11616144Y-16116617D01*
X11616144Y-16116617D02*
X11597096Y-16126141D01*
X11597096Y-16126141D02*
X11559001Y-16126141D01*
X11559001Y-16126141D02*
X11539953Y-16135665D01*
X11539953Y-16135665D02*
X11530429Y-16145188D01*
X11530429Y-16145188D02*
X11520906Y-16164236D01*
X11520906Y-16164236D02*
X11520906Y-16202331D01*
X11520906Y-16202331D02*
X11530429Y-16221379D01*
X11530429Y-16221379D02*
X11539953Y-16230903D01*
X11539953Y-16230903D02*
X11559001Y-16240426D01*
X11559001Y-16240426D02*
X11597096Y-16240426D01*
X11597096Y-16240426D02*
X11616144Y-16230903D01*
X11616144Y-16230903D02*
X11625668Y-16221379D01*
X11625668Y-16221379D02*
X11635191Y-16202331D01*
X11635191Y-16202331D02*
X11635191Y-16164236D01*
X11635191Y-16164236D02*
X11625668Y-16145188D01*
X11625668Y-16145188D02*
X11616144Y-16135665D01*
X11616144Y-16135665D02*
X11597096Y-16126141D01*
X11873287Y-16240426D02*
X11873287Y-16040426D01*
X11959001Y-16240426D02*
X11959001Y-16135665D01*
X11959001Y-16135665D02*
X11949477Y-16116617D01*
X11949477Y-16116617D02*
X11930430Y-16107093D01*
X11930430Y-16107093D02*
X11901858Y-16107093D01*
X11901858Y-16107093D02*
X11882810Y-16116617D01*
X11882810Y-16116617D02*
X11873287Y-16126141D01*
X12082810Y-16240426D02*
X12063763Y-16230903D01*
X12063763Y-16230903D02*
X12054239Y-16221379D01*
X12054239Y-16221379D02*
X12044715Y-16202331D01*
X12044715Y-16202331D02*
X12044715Y-16145188D01*
X12044715Y-16145188D02*
X12054239Y-16126141D01*
X12054239Y-16126141D02*
X12063763Y-16116617D01*
X12063763Y-16116617D02*
X12082810Y-16107093D01*
X12082810Y-16107093D02*
X12111382Y-16107093D01*
X12111382Y-16107093D02*
X12130430Y-16116617D01*
X12130430Y-16116617D02*
X12139953Y-16126141D01*
X12139953Y-16126141D02*
X12149477Y-16145188D01*
X12149477Y-16145188D02*
X12149477Y-16202331D01*
X12149477Y-16202331D02*
X12139953Y-16221379D01*
X12139953Y-16221379D02*
X12130430Y-16230903D01*
X12130430Y-16230903D02*
X12111382Y-16240426D01*
X12111382Y-16240426D02*
X12082810Y-16240426D01*
X12263763Y-16240426D02*
X12244715Y-16230903D01*
X12244715Y-16230903D02*
X12235191Y-16211855D01*
X12235191Y-16211855D02*
X12235191Y-16040426D01*
X12416144Y-16230903D02*
X12397096Y-16240426D01*
X12397096Y-16240426D02*
X12359001Y-16240426D01*
X12359001Y-16240426D02*
X12339953Y-16230903D01*
X12339953Y-16230903D02*
X12330430Y-16211855D01*
X12330430Y-16211855D02*
X12330430Y-16135665D01*
X12330430Y-16135665D02*
X12339953Y-16116617D01*
X12339953Y-16116617D02*
X12359001Y-16107093D01*
X12359001Y-16107093D02*
X12397096Y-16107093D01*
X12397096Y-16107093D02*
X12416144Y-16116617D01*
X12416144Y-16116617D02*
X12425668Y-16135665D01*
X12425668Y-16135665D02*
X12425668Y-16154712D01*
X12425668Y-16154712D02*
X12330430Y-16173760D01*
X12501858Y-16230903D02*
X12520906Y-16240426D01*
X12520906Y-16240426D02*
X12559001Y-16240426D01*
X12559001Y-16240426D02*
X12578049Y-16230903D01*
X12578049Y-16230903D02*
X12587572Y-16211855D01*
X12587572Y-16211855D02*
X12587572Y-16202331D01*
X12587572Y-16202331D02*
X12578049Y-16183284D01*
X12578049Y-16183284D02*
X12559001Y-16173760D01*
X12559001Y-16173760D02*
X12530430Y-16173760D01*
X12530430Y-16173760D02*
X12511382Y-16164236D01*
X12511382Y-16164236D02*
X12501858Y-16145188D01*
X12501858Y-16145188D02*
X12501858Y-16135665D01*
X12501858Y-16135665D02*
X12511382Y-16116617D01*
X12511382Y-16116617D02*
X12530430Y-16107093D01*
X12530430Y-16107093D02*
X12559001Y-16107093D01*
X12559001Y-16107093D02*
X12578049Y-16116617D01*
X12654239Y-16316617D02*
X12663763Y-16307093D01*
X12663763Y-16307093D02*
X12682811Y-16278522D01*
X12682811Y-16278522D02*
X12692334Y-16259474D01*
X12692334Y-16259474D02*
X12701858Y-16230903D01*
X12701858Y-16230903D02*
X12711382Y-16183284D01*
X12711382Y-16183284D02*
X12711382Y-16145188D01*
X12711382Y-16145188D02*
X12701858Y-16097569D01*
X12701858Y-16097569D02*
X12692334Y-16068998D01*
X12692334Y-16068998D02*
X12682811Y-16049950D01*
X12682811Y-16049950D02*
X12663763Y-16021379D01*
X12663763Y-16021379D02*
X12654239Y-16011855D01*
X13016144Y-16316617D02*
X13006620Y-16307093D01*
X13006620Y-16307093D02*
X12987572Y-16278522D01*
X12987572Y-16278522D02*
X12978049Y-16259474D01*
X12978049Y-16259474D02*
X12968525Y-16230903D01*
X12968525Y-16230903D02*
X12959001Y-16183284D01*
X12959001Y-16183284D02*
X12959001Y-16145188D01*
X12959001Y-16145188D02*
X12968525Y-16097569D01*
X12968525Y-16097569D02*
X12978049Y-16068998D01*
X12978049Y-16068998D02*
X12987572Y-16049950D01*
X12987572Y-16049950D02*
X13006620Y-16021379D01*
X13006620Y-16021379D02*
X13016144Y-16011855D01*
X13092334Y-16107093D02*
X13092334Y-16240426D01*
X13092334Y-16126141D02*
X13101858Y-16116617D01*
X13101858Y-16116617D02*
X13120906Y-16107093D01*
X13120906Y-16107093D02*
X13149477Y-16107093D01*
X13149477Y-16107093D02*
X13168525Y-16116617D01*
X13168525Y-16116617D02*
X13178049Y-16135665D01*
X13178049Y-16135665D02*
X13178049Y-16240426D01*
X13301858Y-16240426D02*
X13282811Y-16230903D01*
X13282811Y-16230903D02*
X13273287Y-16221379D01*
X13273287Y-16221379D02*
X13263763Y-16202331D01*
X13263763Y-16202331D02*
X13263763Y-16145188D01*
X13263763Y-16145188D02*
X13273287Y-16126141D01*
X13273287Y-16126141D02*
X13282811Y-16116617D01*
X13282811Y-16116617D02*
X13301858Y-16107093D01*
X13301858Y-16107093D02*
X13330430Y-16107093D01*
X13330430Y-16107093D02*
X13349477Y-16116617D01*
X13349477Y-16116617D02*
X13359001Y-16126141D01*
X13359001Y-16126141D02*
X13368525Y-16145188D01*
X13368525Y-16145188D02*
X13368525Y-16202331D01*
X13368525Y-16202331D02*
X13359001Y-16221379D01*
X13359001Y-16221379D02*
X13349477Y-16230903D01*
X13349477Y-16230903D02*
X13330430Y-16240426D01*
X13330430Y-16240426D02*
X13301858Y-16240426D01*
X13425668Y-16107093D02*
X13501858Y-16107093D01*
X13454239Y-16040426D02*
X13454239Y-16211855D01*
X13454239Y-16211855D02*
X13463763Y-16230903D01*
X13463763Y-16230903D02*
X13482811Y-16240426D01*
X13482811Y-16240426D02*
X13501858Y-16240426D01*
X13720906Y-16107093D02*
X13720906Y-16307093D01*
X13720906Y-16116617D02*
X13739953Y-16107093D01*
X13739953Y-16107093D02*
X13778049Y-16107093D01*
X13778049Y-16107093D02*
X13797096Y-16116617D01*
X13797096Y-16116617D02*
X13806620Y-16126141D01*
X13806620Y-16126141D02*
X13816144Y-16145188D01*
X13816144Y-16145188D02*
X13816144Y-16202331D01*
X13816144Y-16202331D02*
X13806620Y-16221379D01*
X13806620Y-16221379D02*
X13797096Y-16230903D01*
X13797096Y-16230903D02*
X13778049Y-16240426D01*
X13778049Y-16240426D02*
X13739953Y-16240426D01*
X13739953Y-16240426D02*
X13720906Y-16230903D01*
X13930430Y-16240426D02*
X13911382Y-16230903D01*
X13911382Y-16230903D02*
X13901858Y-16211855D01*
X13901858Y-16211855D02*
X13901858Y-16040426D01*
X14092334Y-16240426D02*
X14092334Y-16135665D01*
X14092334Y-16135665D02*
X14082811Y-16116617D01*
X14082811Y-16116617D02*
X14063763Y-16107093D01*
X14063763Y-16107093D02*
X14025668Y-16107093D01*
X14025668Y-16107093D02*
X14006620Y-16116617D01*
X14092334Y-16230903D02*
X14073287Y-16240426D01*
X14073287Y-16240426D02*
X14025668Y-16240426D01*
X14025668Y-16240426D02*
X14006620Y-16230903D01*
X14006620Y-16230903D02*
X13997096Y-16211855D01*
X13997096Y-16211855D02*
X13997096Y-16192807D01*
X13997096Y-16192807D02*
X14006620Y-16173760D01*
X14006620Y-16173760D02*
X14025668Y-16164236D01*
X14025668Y-16164236D02*
X14073287Y-16164236D01*
X14073287Y-16164236D02*
X14092334Y-16154712D01*
X14159001Y-16107093D02*
X14235192Y-16107093D01*
X14187573Y-16040426D02*
X14187573Y-16211855D01*
X14187573Y-16211855D02*
X14197096Y-16230903D01*
X14197096Y-16230903D02*
X14216144Y-16240426D01*
X14216144Y-16240426D02*
X14235192Y-16240426D01*
X14378049Y-16230903D02*
X14359001Y-16240426D01*
X14359001Y-16240426D02*
X14320906Y-16240426D01*
X14320906Y-16240426D02*
X14301858Y-16230903D01*
X14301858Y-16230903D02*
X14292334Y-16211855D01*
X14292334Y-16211855D02*
X14292334Y-16135665D01*
X14292334Y-16135665D02*
X14301858Y-16116617D01*
X14301858Y-16116617D02*
X14320906Y-16107093D01*
X14320906Y-16107093D02*
X14359001Y-16107093D01*
X14359001Y-16107093D02*
X14378049Y-16116617D01*
X14378049Y-16116617D02*
X14387573Y-16135665D01*
X14387573Y-16135665D02*
X14387573Y-16154712D01*
X14387573Y-16154712D02*
X14292334Y-16173760D01*
X14559001Y-16240426D02*
X14559001Y-16040426D01*
X14559001Y-16230903D02*
X14539954Y-16240426D01*
X14539954Y-16240426D02*
X14501858Y-16240426D01*
X14501858Y-16240426D02*
X14482811Y-16230903D01*
X14482811Y-16230903D02*
X14473287Y-16221379D01*
X14473287Y-16221379D02*
X14463763Y-16202331D01*
X14463763Y-16202331D02*
X14463763Y-16145188D01*
X14463763Y-16145188D02*
X14473287Y-16126141D01*
X14473287Y-16126141D02*
X14482811Y-16116617D01*
X14482811Y-16116617D02*
X14501858Y-16107093D01*
X14501858Y-16107093D02*
X14539954Y-16107093D01*
X14539954Y-16107093D02*
X14559001Y-16116617D01*
X14635192Y-16316617D02*
X14644715Y-16307093D01*
X14644715Y-16307093D02*
X14663763Y-16278522D01*
X14663763Y-16278522D02*
X14673287Y-16259474D01*
X14673287Y-16259474D02*
X14682811Y-16230903D01*
X14682811Y-16230903D02*
X14692334Y-16183284D01*
X14692334Y-16183284D02*
X14692334Y-16145188D01*
X14692334Y-16145188D02*
X14682811Y-16097569D01*
X14682811Y-16097569D02*
X14673287Y-16068998D01*
X14673287Y-16068998D02*
X14663763Y-16049950D01*
X14663763Y-16049950D02*
X14644715Y-16021379D01*
X14644715Y-16021379D02*
X14635192Y-16011855D01*
X7588700Y-16539123D02*
X7688700Y-16439123D01*
X7588700Y-16339123D01*
X7488700Y-16439123D01*
X7588700Y-16539123D01*
X7930429Y-16330606D02*
X8054239Y-16330606D01*
X8054239Y-16330606D02*
X7987572Y-16406797D01*
X7987572Y-16406797D02*
X8016143Y-16406797D01*
X8016143Y-16406797D02*
X8035191Y-16416321D01*
X8035191Y-16416321D02*
X8044715Y-16425845D01*
X8044715Y-16425845D02*
X8054239Y-16444892D01*
X8054239Y-16444892D02*
X8054239Y-16492511D01*
X8054239Y-16492511D02*
X8044715Y-16511559D01*
X8044715Y-16511559D02*
X8035191Y-16521083D01*
X8035191Y-16521083D02*
X8016143Y-16530606D01*
X8016143Y-16530606D02*
X7959001Y-16530606D01*
X7959001Y-16530606D02*
X7939953Y-16521083D01*
X7939953Y-16521083D02*
X7930429Y-16511559D01*
X8139953Y-16511559D02*
X8149477Y-16521083D01*
X8149477Y-16521083D02*
X8139953Y-16530606D01*
X8139953Y-16530606D02*
X8130429Y-16521083D01*
X8130429Y-16521083D02*
X8139953Y-16511559D01*
X8139953Y-16511559D02*
X8139953Y-16530606D01*
X8273286Y-16330606D02*
X8292334Y-16330606D01*
X8292334Y-16330606D02*
X8311382Y-16340130D01*
X8311382Y-16340130D02*
X8320905Y-16349654D01*
X8320905Y-16349654D02*
X8330429Y-16368702D01*
X8330429Y-16368702D02*
X8339953Y-16406797D01*
X8339953Y-16406797D02*
X8339953Y-16454416D01*
X8339953Y-16454416D02*
X8330429Y-16492511D01*
X8330429Y-16492511D02*
X8320905Y-16511559D01*
X8320905Y-16511559D02*
X8311382Y-16521083D01*
X8311382Y-16521083D02*
X8292334Y-16530606D01*
X8292334Y-16530606D02*
X8273286Y-16530606D01*
X8273286Y-16530606D02*
X8254239Y-16521083D01*
X8254239Y-16521083D02*
X8244715Y-16511559D01*
X8244715Y-16511559D02*
X8235191Y-16492511D01*
X8235191Y-16492511D02*
X8225667Y-16454416D01*
X8225667Y-16454416D02*
X8225667Y-16406797D01*
X8225667Y-16406797D02*
X8235191Y-16368702D01*
X8235191Y-16368702D02*
X8244715Y-16349654D01*
X8244715Y-16349654D02*
X8254239Y-16340130D01*
X8254239Y-16340130D02*
X8273286Y-16330606D01*
X8463763Y-16330606D02*
X8482810Y-16330606D01*
X8482810Y-16330606D02*
X8501858Y-16340130D01*
X8501858Y-16340130D02*
X8511382Y-16349654D01*
X8511382Y-16349654D02*
X8520905Y-16368702D01*
X8520905Y-16368702D02*
X8530429Y-16406797D01*
X8530429Y-16406797D02*
X8530429Y-16454416D01*
X8530429Y-16454416D02*
X8520905Y-16492511D01*
X8520905Y-16492511D02*
X8511382Y-16511559D01*
X8511382Y-16511559D02*
X8501858Y-16521083D01*
X8501858Y-16521083D02*
X8482810Y-16530606D01*
X8482810Y-16530606D02*
X8463763Y-16530606D01*
X8463763Y-16530606D02*
X8444715Y-16521083D01*
X8444715Y-16521083D02*
X8435191Y-16511559D01*
X8435191Y-16511559D02*
X8425667Y-16492511D01*
X8425667Y-16492511D02*
X8416144Y-16454416D01*
X8416144Y-16454416D02*
X8416144Y-16406797D01*
X8416144Y-16406797D02*
X8425667Y-16368702D01*
X8425667Y-16368702D02*
X8435191Y-16349654D01*
X8435191Y-16349654D02*
X8444715Y-16340130D01*
X8444715Y-16340130D02*
X8463763Y-16330606D01*
X8654239Y-16330606D02*
X8673286Y-16330606D01*
X8673286Y-16330606D02*
X8692334Y-16340130D01*
X8692334Y-16340130D02*
X8701858Y-16349654D01*
X8701858Y-16349654D02*
X8711382Y-16368702D01*
X8711382Y-16368702D02*
X8720905Y-16406797D01*
X8720905Y-16406797D02*
X8720905Y-16454416D01*
X8720905Y-16454416D02*
X8711382Y-16492511D01*
X8711382Y-16492511D02*
X8701858Y-16511559D01*
X8701858Y-16511559D02*
X8692334Y-16521083D01*
X8692334Y-16521083D02*
X8673286Y-16530606D01*
X8673286Y-16530606D02*
X8654239Y-16530606D01*
X8654239Y-16530606D02*
X8635191Y-16521083D01*
X8635191Y-16521083D02*
X8625667Y-16511559D01*
X8625667Y-16511559D02*
X8616144Y-16492511D01*
X8616144Y-16492511D02*
X8606620Y-16454416D01*
X8606620Y-16454416D02*
X8606620Y-16406797D01*
X8606620Y-16406797D02*
X8616144Y-16368702D01*
X8616144Y-16368702D02*
X8625667Y-16349654D01*
X8625667Y-16349654D02*
X8635191Y-16340130D01*
X8635191Y-16340130D02*
X8654239Y-16330606D01*
X8806620Y-16530606D02*
X8806620Y-16397273D01*
X8806620Y-16416321D02*
X8816144Y-16406797D01*
X8816144Y-16406797D02*
X8835191Y-16397273D01*
X8835191Y-16397273D02*
X8863763Y-16397273D01*
X8863763Y-16397273D02*
X8882810Y-16406797D01*
X8882810Y-16406797D02*
X8892334Y-16425845D01*
X8892334Y-16425845D02*
X8892334Y-16530606D01*
X8892334Y-16425845D02*
X8901858Y-16406797D01*
X8901858Y-16406797D02*
X8920905Y-16397273D01*
X8920905Y-16397273D02*
X8949477Y-16397273D01*
X8949477Y-16397273D02*
X8968525Y-16406797D01*
X8968525Y-16406797D02*
X8978048Y-16425845D01*
X8978048Y-16425845D02*
X8978048Y-16530606D01*
X9073286Y-16530606D02*
X9073286Y-16397273D01*
X9073286Y-16416321D02*
X9082810Y-16406797D01*
X9082810Y-16406797D02*
X9101858Y-16397273D01*
X9101858Y-16397273D02*
X9130429Y-16397273D01*
X9130429Y-16397273D02*
X9149477Y-16406797D01*
X9149477Y-16406797D02*
X9159001Y-16425845D01*
X9159001Y-16425845D02*
X9159001Y-16530606D01*
X9159001Y-16425845D02*
X9168525Y-16406797D01*
X9168525Y-16406797D02*
X9187572Y-16397273D01*
X9187572Y-16397273D02*
X9216144Y-16397273D01*
X9216144Y-16397273D02*
X9235191Y-16406797D01*
X9235191Y-16406797D02*
X9244715Y-16425845D01*
X9244715Y-16425845D02*
X9244715Y-16530606D01*
X9635191Y-16321083D02*
X9463763Y-16578225D01*
X9892334Y-16330606D02*
X9911382Y-16330606D01*
X9911382Y-16330606D02*
X9930429Y-16340130D01*
X9930429Y-16340130D02*
X9939953Y-16349654D01*
X9939953Y-16349654D02*
X9949477Y-16368702D01*
X9949477Y-16368702D02*
X9959001Y-16406797D01*
X9959001Y-16406797D02*
X9959001Y-16454416D01*
X9959001Y-16454416D02*
X9949477Y-16492511D01*
X9949477Y-16492511D02*
X9939953Y-16511559D01*
X9939953Y-16511559D02*
X9930429Y-16521083D01*
X9930429Y-16521083D02*
X9911382Y-16530606D01*
X9911382Y-16530606D02*
X9892334Y-16530606D01*
X9892334Y-16530606D02*
X9873287Y-16521083D01*
X9873287Y-16521083D02*
X9863763Y-16511559D01*
X9863763Y-16511559D02*
X9854239Y-16492511D01*
X9854239Y-16492511D02*
X9844715Y-16454416D01*
X9844715Y-16454416D02*
X9844715Y-16406797D01*
X9844715Y-16406797D02*
X9854239Y-16368702D01*
X9854239Y-16368702D02*
X9863763Y-16349654D01*
X9863763Y-16349654D02*
X9873287Y-16340130D01*
X9873287Y-16340130D02*
X9892334Y-16330606D01*
X10044715Y-16511559D02*
X10054239Y-16521083D01*
X10054239Y-16521083D02*
X10044715Y-16530606D01*
X10044715Y-16530606D02*
X10035191Y-16521083D01*
X10035191Y-16521083D02*
X10044715Y-16511559D01*
X10044715Y-16511559D02*
X10044715Y-16530606D01*
X10244715Y-16530606D02*
X10130429Y-16530606D01*
X10187572Y-16530606D02*
X10187572Y-16330606D01*
X10187572Y-16330606D02*
X10168525Y-16359178D01*
X10168525Y-16359178D02*
X10149477Y-16378225D01*
X10149477Y-16378225D02*
X10130429Y-16387749D01*
X10435191Y-16530606D02*
X10320906Y-16530606D01*
X10378048Y-16530606D02*
X10378048Y-16330606D01*
X10378048Y-16330606D02*
X10359001Y-16359178D01*
X10359001Y-16359178D02*
X10339953Y-16378225D01*
X10339953Y-16378225D02*
X10320906Y-16387749D01*
X10549477Y-16416321D02*
X10530429Y-16406797D01*
X10530429Y-16406797D02*
X10520906Y-16397273D01*
X10520906Y-16397273D02*
X10511382Y-16378225D01*
X10511382Y-16378225D02*
X10511382Y-16368702D01*
X10511382Y-16368702D02*
X10520906Y-16349654D01*
X10520906Y-16349654D02*
X10530429Y-16340130D01*
X10530429Y-16340130D02*
X10549477Y-16330606D01*
X10549477Y-16330606D02*
X10587572Y-16330606D01*
X10587572Y-16330606D02*
X10606620Y-16340130D01*
X10606620Y-16340130D02*
X10616144Y-16349654D01*
X10616144Y-16349654D02*
X10625668Y-16368702D01*
X10625668Y-16368702D02*
X10625668Y-16378225D01*
X10625668Y-16378225D02*
X10616144Y-16397273D01*
X10616144Y-16397273D02*
X10606620Y-16406797D01*
X10606620Y-16406797D02*
X10587572Y-16416321D01*
X10587572Y-16416321D02*
X10549477Y-16416321D01*
X10549477Y-16416321D02*
X10530429Y-16425845D01*
X10530429Y-16425845D02*
X10520906Y-16435368D01*
X10520906Y-16435368D02*
X10511382Y-16454416D01*
X10511382Y-16454416D02*
X10511382Y-16492511D01*
X10511382Y-16492511D02*
X10520906Y-16511559D01*
X10520906Y-16511559D02*
X10530429Y-16521083D01*
X10530429Y-16521083D02*
X10549477Y-16530606D01*
X10549477Y-16530606D02*
X10587572Y-16530606D01*
X10587572Y-16530606D02*
X10606620Y-16521083D01*
X10606620Y-16521083D02*
X10616144Y-16511559D01*
X10616144Y-16511559D02*
X10625668Y-16492511D01*
X10625668Y-16492511D02*
X10625668Y-16454416D01*
X10625668Y-16454416D02*
X10616144Y-16435368D01*
X10616144Y-16435368D02*
X10606620Y-16425845D01*
X10606620Y-16425845D02*
X10587572Y-16416321D01*
X10816144Y-16530606D02*
X10701858Y-16530606D01*
X10759001Y-16530606D02*
X10759001Y-16330606D01*
X10759001Y-16330606D02*
X10739953Y-16359178D01*
X10739953Y-16359178D02*
X10720906Y-16378225D01*
X10720906Y-16378225D02*
X10701858Y-16387749D01*
X10892334Y-16330606D02*
X10892334Y-16368702D01*
X10968525Y-16330606D02*
X10968525Y-16368702D01*
X11263763Y-16606797D02*
X11254239Y-16597273D01*
X11254239Y-16597273D02*
X11235191Y-16568702D01*
X11235191Y-16568702D02*
X11225668Y-16549654D01*
X11225668Y-16549654D02*
X11216144Y-16521083D01*
X11216144Y-16521083D02*
X11206620Y-16473464D01*
X11206620Y-16473464D02*
X11206620Y-16435368D01*
X11206620Y-16435368D02*
X11216144Y-16387749D01*
X11216144Y-16387749D02*
X11225668Y-16359178D01*
X11225668Y-16359178D02*
X11235191Y-16340130D01*
X11235191Y-16340130D02*
X11254239Y-16311559D01*
X11254239Y-16311559D02*
X11263763Y-16302035D01*
X11435191Y-16330606D02*
X11339953Y-16330606D01*
X11339953Y-16330606D02*
X11330429Y-16425845D01*
X11330429Y-16425845D02*
X11339953Y-16416321D01*
X11339953Y-16416321D02*
X11359001Y-16406797D01*
X11359001Y-16406797D02*
X11406620Y-16406797D01*
X11406620Y-16406797D02*
X11425668Y-16416321D01*
X11425668Y-16416321D02*
X11435191Y-16425845D01*
X11435191Y-16425845D02*
X11444715Y-16444892D01*
X11444715Y-16444892D02*
X11444715Y-16492511D01*
X11444715Y-16492511D02*
X11435191Y-16511559D01*
X11435191Y-16511559D02*
X11425668Y-16521083D01*
X11425668Y-16521083D02*
X11406620Y-16530606D01*
X11406620Y-16530606D02*
X11359001Y-16530606D01*
X11359001Y-16530606D02*
X11339953Y-16521083D01*
X11339953Y-16521083D02*
X11330429Y-16511559D01*
X11511382Y-16330606D02*
X11644715Y-16330606D01*
X11644715Y-16330606D02*
X11559001Y-16530606D01*
X11873287Y-16530606D02*
X11873287Y-16330606D01*
X11959001Y-16530606D02*
X11959001Y-16425845D01*
X11959001Y-16425845D02*
X11949477Y-16406797D01*
X11949477Y-16406797D02*
X11930430Y-16397273D01*
X11930430Y-16397273D02*
X11901858Y-16397273D01*
X11901858Y-16397273D02*
X11882810Y-16406797D01*
X11882810Y-16406797D02*
X11873287Y-16416321D01*
X12082810Y-16530606D02*
X12063763Y-16521083D01*
X12063763Y-16521083D02*
X12054239Y-16511559D01*
X12054239Y-16511559D02*
X12044715Y-16492511D01*
X12044715Y-16492511D02*
X12044715Y-16435368D01*
X12044715Y-16435368D02*
X12054239Y-16416321D01*
X12054239Y-16416321D02*
X12063763Y-16406797D01*
X12063763Y-16406797D02*
X12082810Y-16397273D01*
X12082810Y-16397273D02*
X12111382Y-16397273D01*
X12111382Y-16397273D02*
X12130430Y-16406797D01*
X12130430Y-16406797D02*
X12139953Y-16416321D01*
X12139953Y-16416321D02*
X12149477Y-16435368D01*
X12149477Y-16435368D02*
X12149477Y-16492511D01*
X12149477Y-16492511D02*
X12139953Y-16511559D01*
X12139953Y-16511559D02*
X12130430Y-16521083D01*
X12130430Y-16521083D02*
X12111382Y-16530606D01*
X12111382Y-16530606D02*
X12082810Y-16530606D01*
X12263763Y-16530606D02*
X12244715Y-16521083D01*
X12244715Y-16521083D02*
X12235191Y-16502035D01*
X12235191Y-16502035D02*
X12235191Y-16330606D01*
X12416144Y-16521083D02*
X12397096Y-16530606D01*
X12397096Y-16530606D02*
X12359001Y-16530606D01*
X12359001Y-16530606D02*
X12339953Y-16521083D01*
X12339953Y-16521083D02*
X12330430Y-16502035D01*
X12330430Y-16502035D02*
X12330430Y-16425845D01*
X12330430Y-16425845D02*
X12339953Y-16406797D01*
X12339953Y-16406797D02*
X12359001Y-16397273D01*
X12359001Y-16397273D02*
X12397096Y-16397273D01*
X12397096Y-16397273D02*
X12416144Y-16406797D01*
X12416144Y-16406797D02*
X12425668Y-16425845D01*
X12425668Y-16425845D02*
X12425668Y-16444892D01*
X12425668Y-16444892D02*
X12330430Y-16463940D01*
X12501858Y-16521083D02*
X12520906Y-16530606D01*
X12520906Y-16530606D02*
X12559001Y-16530606D01*
X12559001Y-16530606D02*
X12578049Y-16521083D01*
X12578049Y-16521083D02*
X12587572Y-16502035D01*
X12587572Y-16502035D02*
X12587572Y-16492511D01*
X12587572Y-16492511D02*
X12578049Y-16473464D01*
X12578049Y-16473464D02*
X12559001Y-16463940D01*
X12559001Y-16463940D02*
X12530430Y-16463940D01*
X12530430Y-16463940D02*
X12511382Y-16454416D01*
X12511382Y-16454416D02*
X12501858Y-16435368D01*
X12501858Y-16435368D02*
X12501858Y-16425845D01*
X12501858Y-16425845D02*
X12511382Y-16406797D01*
X12511382Y-16406797D02*
X12530430Y-16397273D01*
X12530430Y-16397273D02*
X12559001Y-16397273D01*
X12559001Y-16397273D02*
X12578049Y-16406797D01*
X12654239Y-16606797D02*
X12663763Y-16597273D01*
X12663763Y-16597273D02*
X12682811Y-16568702D01*
X12682811Y-16568702D02*
X12692334Y-16549654D01*
X12692334Y-16549654D02*
X12701858Y-16521083D01*
X12701858Y-16521083D02*
X12711382Y-16473464D01*
X12711382Y-16473464D02*
X12711382Y-16435368D01*
X12711382Y-16435368D02*
X12701858Y-16387749D01*
X12701858Y-16387749D02*
X12692334Y-16359178D01*
X12692334Y-16359178D02*
X12682811Y-16340130D01*
X12682811Y-16340130D02*
X12663763Y-16311559D01*
X12663763Y-16311559D02*
X12654239Y-16302035D01*
X13016144Y-16606797D02*
X13006620Y-16597273D01*
X13006620Y-16597273D02*
X12987572Y-16568702D01*
X12987572Y-16568702D02*
X12978049Y-16549654D01*
X12978049Y-16549654D02*
X12968525Y-16521083D01*
X12968525Y-16521083D02*
X12959001Y-16473464D01*
X12959001Y-16473464D02*
X12959001Y-16435368D01*
X12959001Y-16435368D02*
X12968525Y-16387749D01*
X12968525Y-16387749D02*
X12978049Y-16359178D01*
X12978049Y-16359178D02*
X12987572Y-16340130D01*
X12987572Y-16340130D02*
X13006620Y-16311559D01*
X13006620Y-16311559D02*
X13016144Y-16302035D01*
X13092334Y-16397273D02*
X13092334Y-16530606D01*
X13092334Y-16416321D02*
X13101858Y-16406797D01*
X13101858Y-16406797D02*
X13120906Y-16397273D01*
X13120906Y-16397273D02*
X13149477Y-16397273D01*
X13149477Y-16397273D02*
X13168525Y-16406797D01*
X13168525Y-16406797D02*
X13178049Y-16425845D01*
X13178049Y-16425845D02*
X13178049Y-16530606D01*
X13301858Y-16530606D02*
X13282811Y-16521083D01*
X13282811Y-16521083D02*
X13273287Y-16511559D01*
X13273287Y-16511559D02*
X13263763Y-16492511D01*
X13263763Y-16492511D02*
X13263763Y-16435368D01*
X13263763Y-16435368D02*
X13273287Y-16416321D01*
X13273287Y-16416321D02*
X13282811Y-16406797D01*
X13282811Y-16406797D02*
X13301858Y-16397273D01*
X13301858Y-16397273D02*
X13330430Y-16397273D01*
X13330430Y-16397273D02*
X13349477Y-16406797D01*
X13349477Y-16406797D02*
X13359001Y-16416321D01*
X13359001Y-16416321D02*
X13368525Y-16435368D01*
X13368525Y-16435368D02*
X13368525Y-16492511D01*
X13368525Y-16492511D02*
X13359001Y-16511559D01*
X13359001Y-16511559D02*
X13349477Y-16521083D01*
X13349477Y-16521083D02*
X13330430Y-16530606D01*
X13330430Y-16530606D02*
X13301858Y-16530606D01*
X13425668Y-16397273D02*
X13501858Y-16397273D01*
X13454239Y-16330606D02*
X13454239Y-16502035D01*
X13454239Y-16502035D02*
X13463763Y-16521083D01*
X13463763Y-16521083D02*
X13482811Y-16530606D01*
X13482811Y-16530606D02*
X13501858Y-16530606D01*
X13720906Y-16397273D02*
X13720906Y-16597273D01*
X13720906Y-16406797D02*
X13739953Y-16397273D01*
X13739953Y-16397273D02*
X13778049Y-16397273D01*
X13778049Y-16397273D02*
X13797096Y-16406797D01*
X13797096Y-16406797D02*
X13806620Y-16416321D01*
X13806620Y-16416321D02*
X13816144Y-16435368D01*
X13816144Y-16435368D02*
X13816144Y-16492511D01*
X13816144Y-16492511D02*
X13806620Y-16511559D01*
X13806620Y-16511559D02*
X13797096Y-16521083D01*
X13797096Y-16521083D02*
X13778049Y-16530606D01*
X13778049Y-16530606D02*
X13739953Y-16530606D01*
X13739953Y-16530606D02*
X13720906Y-16521083D01*
X13930430Y-16530606D02*
X13911382Y-16521083D01*
X13911382Y-16521083D02*
X13901858Y-16502035D01*
X13901858Y-16502035D02*
X13901858Y-16330606D01*
X14092334Y-16530606D02*
X14092334Y-16425845D01*
X14092334Y-16425845D02*
X14082811Y-16406797D01*
X14082811Y-16406797D02*
X14063763Y-16397273D01*
X14063763Y-16397273D02*
X14025668Y-16397273D01*
X14025668Y-16397273D02*
X14006620Y-16406797D01*
X14092334Y-16521083D02*
X14073287Y-16530606D01*
X14073287Y-16530606D02*
X14025668Y-16530606D01*
X14025668Y-16530606D02*
X14006620Y-16521083D01*
X14006620Y-16521083D02*
X13997096Y-16502035D01*
X13997096Y-16502035D02*
X13997096Y-16482987D01*
X13997096Y-16482987D02*
X14006620Y-16463940D01*
X14006620Y-16463940D02*
X14025668Y-16454416D01*
X14025668Y-16454416D02*
X14073287Y-16454416D01*
X14073287Y-16454416D02*
X14092334Y-16444892D01*
X14159001Y-16397273D02*
X14235192Y-16397273D01*
X14187573Y-16330606D02*
X14187573Y-16502035D01*
X14187573Y-16502035D02*
X14197096Y-16521083D01*
X14197096Y-16521083D02*
X14216144Y-16530606D01*
X14216144Y-16530606D02*
X14235192Y-16530606D01*
X14378049Y-16521083D02*
X14359001Y-16530606D01*
X14359001Y-16530606D02*
X14320906Y-16530606D01*
X14320906Y-16530606D02*
X14301858Y-16521083D01*
X14301858Y-16521083D02*
X14292334Y-16502035D01*
X14292334Y-16502035D02*
X14292334Y-16425845D01*
X14292334Y-16425845D02*
X14301858Y-16406797D01*
X14301858Y-16406797D02*
X14320906Y-16397273D01*
X14320906Y-16397273D02*
X14359001Y-16397273D01*
X14359001Y-16397273D02*
X14378049Y-16406797D01*
X14378049Y-16406797D02*
X14387573Y-16425845D01*
X14387573Y-16425845D02*
X14387573Y-16444892D01*
X14387573Y-16444892D02*
X14292334Y-16463940D01*
X14559001Y-16530606D02*
X14559001Y-16330606D01*
X14559001Y-16521083D02*
X14539954Y-16530606D01*
X14539954Y-16530606D02*
X14501858Y-16530606D01*
X14501858Y-16530606D02*
X14482811Y-16521083D01*
X14482811Y-16521083D02*
X14473287Y-16511559D01*
X14473287Y-16511559D02*
X14463763Y-16492511D01*
X14463763Y-16492511D02*
X14463763Y-16435368D01*
X14463763Y-16435368D02*
X14473287Y-16416321D01*
X14473287Y-16416321D02*
X14482811Y-16406797D01*
X14482811Y-16406797D02*
X14501858Y-16397273D01*
X14501858Y-16397273D02*
X14539954Y-16397273D01*
X14539954Y-16397273D02*
X14559001Y-16406797D01*
X14635192Y-16606797D02*
X14644715Y-16597273D01*
X14644715Y-16597273D02*
X14663763Y-16568702D01*
X14663763Y-16568702D02*
X14673287Y-16549654D01*
X14673287Y-16549654D02*
X14682811Y-16521083D01*
X14682811Y-16521083D02*
X14692334Y-16473464D01*
X14692334Y-16473464D02*
X14692334Y-16435368D01*
X14692334Y-16435368D02*
X14682811Y-16387749D01*
X14682811Y-16387749D02*
X14673287Y-16359178D01*
X14673287Y-16359178D02*
X14663763Y-16340130D01*
X14663763Y-16340130D02*
X14644715Y-16311559D01*
X14644715Y-16311559D02*
X14635192Y-16302035D01*
X7488700Y-16659123D02*
X7688700Y-16859123D01*
X7688700Y-16659123D02*
X7488700Y-16859123D01*
X7688700Y-16759123D02*
G75*
G02*
X7488700Y-16759123I-100000J0D01*
G01*
X7488700Y-16759123D02*
G75*
G02*
X7688700Y-16759123I100000J0D01*
G01*
X7930429Y-16650606D02*
X8054239Y-16650606D01*
X8054239Y-16650606D02*
X7987572Y-16726797D01*
X7987572Y-16726797D02*
X8016143Y-16726797D01*
X8016143Y-16726797D02*
X8035191Y-16736321D01*
X8035191Y-16736321D02*
X8044715Y-16745845D01*
X8044715Y-16745845D02*
X8054239Y-16764892D01*
X8054239Y-16764892D02*
X8054239Y-16812511D01*
X8054239Y-16812511D02*
X8044715Y-16831559D01*
X8044715Y-16831559D02*
X8035191Y-16841083D01*
X8035191Y-16841083D02*
X8016143Y-16850607D01*
X8016143Y-16850607D02*
X7959001Y-16850607D01*
X7959001Y-16850607D02*
X7939953Y-16841083D01*
X7939953Y-16841083D02*
X7930429Y-16831559D01*
X8139953Y-16831559D02*
X8149477Y-16841083D01*
X8149477Y-16841083D02*
X8139953Y-16850607D01*
X8139953Y-16850607D02*
X8130429Y-16841083D01*
X8130429Y-16841083D02*
X8139953Y-16831559D01*
X8139953Y-16831559D02*
X8139953Y-16850607D01*
X8320905Y-16717273D02*
X8320905Y-16850607D01*
X8273286Y-16641083D02*
X8225667Y-16783940D01*
X8225667Y-16783940D02*
X8349477Y-16783940D01*
X8416144Y-16669654D02*
X8425667Y-16660130D01*
X8425667Y-16660130D02*
X8444715Y-16650606D01*
X8444715Y-16650606D02*
X8492334Y-16650606D01*
X8492334Y-16650606D02*
X8511382Y-16660130D01*
X8511382Y-16660130D02*
X8520905Y-16669654D01*
X8520905Y-16669654D02*
X8530429Y-16688702D01*
X8530429Y-16688702D02*
X8530429Y-16707749D01*
X8530429Y-16707749D02*
X8520905Y-16736321D01*
X8520905Y-16736321D02*
X8406620Y-16850607D01*
X8406620Y-16850607D02*
X8530429Y-16850607D01*
X8625667Y-16850607D02*
X8663763Y-16850607D01*
X8663763Y-16850607D02*
X8682810Y-16841083D01*
X8682810Y-16841083D02*
X8692334Y-16831559D01*
X8692334Y-16831559D02*
X8711382Y-16802987D01*
X8711382Y-16802987D02*
X8720905Y-16764892D01*
X8720905Y-16764892D02*
X8720905Y-16688702D01*
X8720905Y-16688702D02*
X8711382Y-16669654D01*
X8711382Y-16669654D02*
X8701858Y-16660130D01*
X8701858Y-16660130D02*
X8682810Y-16650606D01*
X8682810Y-16650606D02*
X8644715Y-16650606D01*
X8644715Y-16650606D02*
X8625667Y-16660130D01*
X8625667Y-16660130D02*
X8616144Y-16669654D01*
X8616144Y-16669654D02*
X8606620Y-16688702D01*
X8606620Y-16688702D02*
X8606620Y-16736321D01*
X8606620Y-16736321D02*
X8616144Y-16755368D01*
X8616144Y-16755368D02*
X8625667Y-16764892D01*
X8625667Y-16764892D02*
X8644715Y-16774416D01*
X8644715Y-16774416D02*
X8682810Y-16774416D01*
X8682810Y-16774416D02*
X8701858Y-16764892D01*
X8701858Y-16764892D02*
X8711382Y-16755368D01*
X8711382Y-16755368D02*
X8720905Y-16736321D01*
X8806620Y-16850607D02*
X8806620Y-16717273D01*
X8806620Y-16736321D02*
X8816144Y-16726797D01*
X8816144Y-16726797D02*
X8835191Y-16717273D01*
X8835191Y-16717273D02*
X8863763Y-16717273D01*
X8863763Y-16717273D02*
X8882810Y-16726797D01*
X8882810Y-16726797D02*
X8892334Y-16745845D01*
X8892334Y-16745845D02*
X8892334Y-16850607D01*
X8892334Y-16745845D02*
X8901858Y-16726797D01*
X8901858Y-16726797D02*
X8920905Y-16717273D01*
X8920905Y-16717273D02*
X8949477Y-16717273D01*
X8949477Y-16717273D02*
X8968525Y-16726797D01*
X8968525Y-16726797D02*
X8978048Y-16745845D01*
X8978048Y-16745845D02*
X8978048Y-16850607D01*
X9073286Y-16850607D02*
X9073286Y-16717273D01*
X9073286Y-16736321D02*
X9082810Y-16726797D01*
X9082810Y-16726797D02*
X9101858Y-16717273D01*
X9101858Y-16717273D02*
X9130429Y-16717273D01*
X9130429Y-16717273D02*
X9149477Y-16726797D01*
X9149477Y-16726797D02*
X9159001Y-16745845D01*
X9159001Y-16745845D02*
X9159001Y-16850607D01*
X9159001Y-16745845D02*
X9168525Y-16726797D01*
X9168525Y-16726797D02*
X9187572Y-16717273D01*
X9187572Y-16717273D02*
X9216144Y-16717273D01*
X9216144Y-16717273D02*
X9235191Y-16726797D01*
X9235191Y-16726797D02*
X9244715Y-16745845D01*
X9244715Y-16745845D02*
X9244715Y-16850607D01*
X9635191Y-16641083D02*
X9463763Y-16898226D01*
X9892334Y-16650606D02*
X9911382Y-16650606D01*
X9911382Y-16650606D02*
X9930429Y-16660130D01*
X9930429Y-16660130D02*
X9939953Y-16669654D01*
X9939953Y-16669654D02*
X9949477Y-16688702D01*
X9949477Y-16688702D02*
X9959001Y-16726797D01*
X9959001Y-16726797D02*
X9959001Y-16774416D01*
X9959001Y-16774416D02*
X9949477Y-16812511D01*
X9949477Y-16812511D02*
X9939953Y-16831559D01*
X9939953Y-16831559D02*
X9930429Y-16841083D01*
X9930429Y-16841083D02*
X9911382Y-16850607D01*
X9911382Y-16850607D02*
X9892334Y-16850607D01*
X9892334Y-16850607D02*
X9873287Y-16841083D01*
X9873287Y-16841083D02*
X9863763Y-16831559D01*
X9863763Y-16831559D02*
X9854239Y-16812511D01*
X9854239Y-16812511D02*
X9844715Y-16774416D01*
X9844715Y-16774416D02*
X9844715Y-16726797D01*
X9844715Y-16726797D02*
X9854239Y-16688702D01*
X9854239Y-16688702D02*
X9863763Y-16669654D01*
X9863763Y-16669654D02*
X9873287Y-16660130D01*
X9873287Y-16660130D02*
X9892334Y-16650606D01*
X10044715Y-16831559D02*
X10054239Y-16841083D01*
X10054239Y-16841083D02*
X10044715Y-16850607D01*
X10044715Y-16850607D02*
X10035191Y-16841083D01*
X10035191Y-16841083D02*
X10044715Y-16831559D01*
X10044715Y-16831559D02*
X10044715Y-16850607D01*
X10244715Y-16850607D02*
X10130429Y-16850607D01*
X10187572Y-16850607D02*
X10187572Y-16650606D01*
X10187572Y-16650606D02*
X10168525Y-16679178D01*
X10168525Y-16679178D02*
X10149477Y-16698225D01*
X10149477Y-16698225D02*
X10130429Y-16707749D01*
X10311382Y-16650606D02*
X10435191Y-16650606D01*
X10435191Y-16650606D02*
X10368525Y-16726797D01*
X10368525Y-16726797D02*
X10397096Y-16726797D01*
X10397096Y-16726797D02*
X10416144Y-16736321D01*
X10416144Y-16736321D02*
X10425668Y-16745845D01*
X10425668Y-16745845D02*
X10435191Y-16764892D01*
X10435191Y-16764892D02*
X10435191Y-16812511D01*
X10435191Y-16812511D02*
X10425668Y-16831559D01*
X10425668Y-16831559D02*
X10416144Y-16841083D01*
X10416144Y-16841083D02*
X10397096Y-16850607D01*
X10397096Y-16850607D02*
X10339953Y-16850607D01*
X10339953Y-16850607D02*
X10320906Y-16841083D01*
X10320906Y-16841083D02*
X10311382Y-16831559D01*
X10616144Y-16650606D02*
X10520906Y-16650606D01*
X10520906Y-16650606D02*
X10511382Y-16745845D01*
X10511382Y-16745845D02*
X10520906Y-16736321D01*
X10520906Y-16736321D02*
X10539953Y-16726797D01*
X10539953Y-16726797D02*
X10587572Y-16726797D01*
X10587572Y-16726797D02*
X10606620Y-16736321D01*
X10606620Y-16736321D02*
X10616144Y-16745845D01*
X10616144Y-16745845D02*
X10625668Y-16764892D01*
X10625668Y-16764892D02*
X10625668Y-16812511D01*
X10625668Y-16812511D02*
X10616144Y-16831559D01*
X10616144Y-16831559D02*
X10606620Y-16841083D01*
X10606620Y-16841083D02*
X10587572Y-16850607D01*
X10587572Y-16850607D02*
X10539953Y-16850607D01*
X10539953Y-16850607D02*
X10520906Y-16841083D01*
X10520906Y-16841083D02*
X10511382Y-16831559D01*
X10749477Y-16650606D02*
X10768525Y-16650606D01*
X10768525Y-16650606D02*
X10787572Y-16660130D01*
X10787572Y-16660130D02*
X10797096Y-16669654D01*
X10797096Y-16669654D02*
X10806620Y-16688702D01*
X10806620Y-16688702D02*
X10816144Y-16726797D01*
X10816144Y-16726797D02*
X10816144Y-16774416D01*
X10816144Y-16774416D02*
X10806620Y-16812511D01*
X10806620Y-16812511D02*
X10797096Y-16831559D01*
X10797096Y-16831559D02*
X10787572Y-16841083D01*
X10787572Y-16841083D02*
X10768525Y-16850607D01*
X10768525Y-16850607D02*
X10749477Y-16850607D01*
X10749477Y-16850607D02*
X10730429Y-16841083D01*
X10730429Y-16841083D02*
X10720906Y-16831559D01*
X10720906Y-16831559D02*
X10711382Y-16812511D01*
X10711382Y-16812511D02*
X10701858Y-16774416D01*
X10701858Y-16774416D02*
X10701858Y-16726797D01*
X10701858Y-16726797D02*
X10711382Y-16688702D01*
X10711382Y-16688702D02*
X10720906Y-16669654D01*
X10720906Y-16669654D02*
X10730429Y-16660130D01*
X10730429Y-16660130D02*
X10749477Y-16650606D01*
X10892334Y-16650606D02*
X10892334Y-16688702D01*
X10968525Y-16650606D02*
X10968525Y-16688702D01*
X11263763Y-16926797D02*
X11254239Y-16917273D01*
X11254239Y-16917273D02*
X11235191Y-16888702D01*
X11235191Y-16888702D02*
X11225668Y-16869654D01*
X11225668Y-16869654D02*
X11216144Y-16841083D01*
X11216144Y-16841083D02*
X11206620Y-16793464D01*
X11206620Y-16793464D02*
X11206620Y-16755368D01*
X11206620Y-16755368D02*
X11216144Y-16707749D01*
X11216144Y-16707749D02*
X11225668Y-16679178D01*
X11225668Y-16679178D02*
X11235191Y-16660130D01*
X11235191Y-16660130D02*
X11254239Y-16631559D01*
X11254239Y-16631559D02*
X11263763Y-16622035D01*
X11444715Y-16850607D02*
X11330429Y-16850607D01*
X11387572Y-16850607D02*
X11387572Y-16650606D01*
X11387572Y-16650606D02*
X11368525Y-16679178D01*
X11368525Y-16679178D02*
X11349477Y-16698225D01*
X11349477Y-16698225D02*
X11330429Y-16707749D01*
X11539953Y-16850607D02*
X11578048Y-16850607D01*
X11578048Y-16850607D02*
X11597096Y-16841083D01*
X11597096Y-16841083D02*
X11606620Y-16831559D01*
X11606620Y-16831559D02*
X11625668Y-16802987D01*
X11625668Y-16802987D02*
X11635191Y-16764892D01*
X11635191Y-16764892D02*
X11635191Y-16688702D01*
X11635191Y-16688702D02*
X11625668Y-16669654D01*
X11625668Y-16669654D02*
X11616144Y-16660130D01*
X11616144Y-16660130D02*
X11597096Y-16650606D01*
X11597096Y-16650606D02*
X11559001Y-16650606D01*
X11559001Y-16650606D02*
X11539953Y-16660130D01*
X11539953Y-16660130D02*
X11530429Y-16669654D01*
X11530429Y-16669654D02*
X11520906Y-16688702D01*
X11520906Y-16688702D02*
X11520906Y-16736321D01*
X11520906Y-16736321D02*
X11530429Y-16755368D01*
X11530429Y-16755368D02*
X11539953Y-16764892D01*
X11539953Y-16764892D02*
X11559001Y-16774416D01*
X11559001Y-16774416D02*
X11597096Y-16774416D01*
X11597096Y-16774416D02*
X11616144Y-16764892D01*
X11616144Y-16764892D02*
X11625668Y-16755368D01*
X11625668Y-16755368D02*
X11635191Y-16736321D01*
X11873287Y-16850607D02*
X11873287Y-16650606D01*
X11959001Y-16850607D02*
X11959001Y-16745845D01*
X11959001Y-16745845D02*
X11949477Y-16726797D01*
X11949477Y-16726797D02*
X11930430Y-16717273D01*
X11930430Y-16717273D02*
X11901858Y-16717273D01*
X11901858Y-16717273D02*
X11882810Y-16726797D01*
X11882810Y-16726797D02*
X11873287Y-16736321D01*
X12082810Y-16850607D02*
X12063763Y-16841083D01*
X12063763Y-16841083D02*
X12054239Y-16831559D01*
X12054239Y-16831559D02*
X12044715Y-16812511D01*
X12044715Y-16812511D02*
X12044715Y-16755368D01*
X12044715Y-16755368D02*
X12054239Y-16736321D01*
X12054239Y-16736321D02*
X12063763Y-16726797D01*
X12063763Y-16726797D02*
X12082810Y-16717273D01*
X12082810Y-16717273D02*
X12111382Y-16717273D01*
X12111382Y-16717273D02*
X12130430Y-16726797D01*
X12130430Y-16726797D02*
X12139953Y-16736321D01*
X12139953Y-16736321D02*
X12149477Y-16755368D01*
X12149477Y-16755368D02*
X12149477Y-16812511D01*
X12149477Y-16812511D02*
X12139953Y-16831559D01*
X12139953Y-16831559D02*
X12130430Y-16841083D01*
X12130430Y-16841083D02*
X12111382Y-16850607D01*
X12111382Y-16850607D02*
X12082810Y-16850607D01*
X12263763Y-16850607D02*
X12244715Y-16841083D01*
X12244715Y-16841083D02*
X12235191Y-16822035D01*
X12235191Y-16822035D02*
X12235191Y-16650606D01*
X12416144Y-16841083D02*
X12397096Y-16850607D01*
X12397096Y-16850607D02*
X12359001Y-16850607D01*
X12359001Y-16850607D02*
X12339953Y-16841083D01*
X12339953Y-16841083D02*
X12330430Y-16822035D01*
X12330430Y-16822035D02*
X12330430Y-16745845D01*
X12330430Y-16745845D02*
X12339953Y-16726797D01*
X12339953Y-16726797D02*
X12359001Y-16717273D01*
X12359001Y-16717273D02*
X12397096Y-16717273D01*
X12397096Y-16717273D02*
X12416144Y-16726797D01*
X12416144Y-16726797D02*
X12425668Y-16745845D01*
X12425668Y-16745845D02*
X12425668Y-16764892D01*
X12425668Y-16764892D02*
X12330430Y-16783940D01*
X12501858Y-16841083D02*
X12520906Y-16850607D01*
X12520906Y-16850607D02*
X12559001Y-16850607D01*
X12559001Y-16850607D02*
X12578049Y-16841083D01*
X12578049Y-16841083D02*
X12587572Y-16822035D01*
X12587572Y-16822035D02*
X12587572Y-16812511D01*
X12587572Y-16812511D02*
X12578049Y-16793464D01*
X12578049Y-16793464D02*
X12559001Y-16783940D01*
X12559001Y-16783940D02*
X12530430Y-16783940D01*
X12530430Y-16783940D02*
X12511382Y-16774416D01*
X12511382Y-16774416D02*
X12501858Y-16755368D01*
X12501858Y-16755368D02*
X12501858Y-16745845D01*
X12501858Y-16745845D02*
X12511382Y-16726797D01*
X12511382Y-16726797D02*
X12530430Y-16717273D01*
X12530430Y-16717273D02*
X12559001Y-16717273D01*
X12559001Y-16717273D02*
X12578049Y-16726797D01*
X12654239Y-16926797D02*
X12663763Y-16917273D01*
X12663763Y-16917273D02*
X12682811Y-16888702D01*
X12682811Y-16888702D02*
X12692334Y-16869654D01*
X12692334Y-16869654D02*
X12701858Y-16841083D01*
X12701858Y-16841083D02*
X12711382Y-16793464D01*
X12711382Y-16793464D02*
X12711382Y-16755368D01*
X12711382Y-16755368D02*
X12701858Y-16707749D01*
X12701858Y-16707749D02*
X12692334Y-16679178D01*
X12692334Y-16679178D02*
X12682811Y-16660130D01*
X12682811Y-16660130D02*
X12663763Y-16631559D01*
X12663763Y-16631559D02*
X12654239Y-16622035D01*
X13016144Y-16926797D02*
X13006620Y-16917273D01*
X13006620Y-16917273D02*
X12987572Y-16888702D01*
X12987572Y-16888702D02*
X12978049Y-16869654D01*
X12978049Y-16869654D02*
X12968525Y-16841083D01*
X12968525Y-16841083D02*
X12959001Y-16793464D01*
X12959001Y-16793464D02*
X12959001Y-16755368D01*
X12959001Y-16755368D02*
X12968525Y-16707749D01*
X12968525Y-16707749D02*
X12978049Y-16679178D01*
X12978049Y-16679178D02*
X12987572Y-16660130D01*
X12987572Y-16660130D02*
X13006620Y-16631559D01*
X13006620Y-16631559D02*
X13016144Y-16622035D01*
X13092334Y-16717273D02*
X13092334Y-16850607D01*
X13092334Y-16736321D02*
X13101858Y-16726797D01*
X13101858Y-16726797D02*
X13120906Y-16717273D01*
X13120906Y-16717273D02*
X13149477Y-16717273D01*
X13149477Y-16717273D02*
X13168525Y-16726797D01*
X13168525Y-16726797D02*
X13178049Y-16745845D01*
X13178049Y-16745845D02*
X13178049Y-16850607D01*
X13301858Y-16850607D02*
X13282811Y-16841083D01*
X13282811Y-16841083D02*
X13273287Y-16831559D01*
X13273287Y-16831559D02*
X13263763Y-16812511D01*
X13263763Y-16812511D02*
X13263763Y-16755368D01*
X13263763Y-16755368D02*
X13273287Y-16736321D01*
X13273287Y-16736321D02*
X13282811Y-16726797D01*
X13282811Y-16726797D02*
X13301858Y-16717273D01*
X13301858Y-16717273D02*
X13330430Y-16717273D01*
X13330430Y-16717273D02*
X13349477Y-16726797D01*
X13349477Y-16726797D02*
X13359001Y-16736321D01*
X13359001Y-16736321D02*
X13368525Y-16755368D01*
X13368525Y-16755368D02*
X13368525Y-16812511D01*
X13368525Y-16812511D02*
X13359001Y-16831559D01*
X13359001Y-16831559D02*
X13349477Y-16841083D01*
X13349477Y-16841083D02*
X13330430Y-16850607D01*
X13330430Y-16850607D02*
X13301858Y-16850607D01*
X13425668Y-16717273D02*
X13501858Y-16717273D01*
X13454239Y-16650606D02*
X13454239Y-16822035D01*
X13454239Y-16822035D02*
X13463763Y-16841083D01*
X13463763Y-16841083D02*
X13482811Y-16850607D01*
X13482811Y-16850607D02*
X13501858Y-16850607D01*
X13720906Y-16717273D02*
X13720906Y-16917273D01*
X13720906Y-16726797D02*
X13739953Y-16717273D01*
X13739953Y-16717273D02*
X13778049Y-16717273D01*
X13778049Y-16717273D02*
X13797096Y-16726797D01*
X13797096Y-16726797D02*
X13806620Y-16736321D01*
X13806620Y-16736321D02*
X13816144Y-16755368D01*
X13816144Y-16755368D02*
X13816144Y-16812511D01*
X13816144Y-16812511D02*
X13806620Y-16831559D01*
X13806620Y-16831559D02*
X13797096Y-16841083D01*
X13797096Y-16841083D02*
X13778049Y-16850607D01*
X13778049Y-16850607D02*
X13739953Y-16850607D01*
X13739953Y-16850607D02*
X13720906Y-16841083D01*
X13930430Y-16850607D02*
X13911382Y-16841083D01*
X13911382Y-16841083D02*
X13901858Y-16822035D01*
X13901858Y-16822035D02*
X13901858Y-16650606D01*
X14092334Y-16850607D02*
X14092334Y-16745845D01*
X14092334Y-16745845D02*
X14082811Y-16726797D01*
X14082811Y-16726797D02*
X14063763Y-16717273D01*
X14063763Y-16717273D02*
X14025668Y-16717273D01*
X14025668Y-16717273D02*
X14006620Y-16726797D01*
X14092334Y-16841083D02*
X14073287Y-16850607D01*
X14073287Y-16850607D02*
X14025668Y-16850607D01*
X14025668Y-16850607D02*
X14006620Y-16841083D01*
X14006620Y-16841083D02*
X13997096Y-16822035D01*
X13997096Y-16822035D02*
X13997096Y-16802987D01*
X13997096Y-16802987D02*
X14006620Y-16783940D01*
X14006620Y-16783940D02*
X14025668Y-16774416D01*
X14025668Y-16774416D02*
X14073287Y-16774416D01*
X14073287Y-16774416D02*
X14092334Y-16764892D01*
X14159001Y-16717273D02*
X14235192Y-16717273D01*
X14187573Y-16650606D02*
X14187573Y-16822035D01*
X14187573Y-16822035D02*
X14197096Y-16841083D01*
X14197096Y-16841083D02*
X14216144Y-16850607D01*
X14216144Y-16850607D02*
X14235192Y-16850607D01*
X14378049Y-16841083D02*
X14359001Y-16850607D01*
X14359001Y-16850607D02*
X14320906Y-16850607D01*
X14320906Y-16850607D02*
X14301858Y-16841083D01*
X14301858Y-16841083D02*
X14292334Y-16822035D01*
X14292334Y-16822035D02*
X14292334Y-16745845D01*
X14292334Y-16745845D02*
X14301858Y-16726797D01*
X14301858Y-16726797D02*
X14320906Y-16717273D01*
X14320906Y-16717273D02*
X14359001Y-16717273D01*
X14359001Y-16717273D02*
X14378049Y-16726797D01*
X14378049Y-16726797D02*
X14387573Y-16745845D01*
X14387573Y-16745845D02*
X14387573Y-16764892D01*
X14387573Y-16764892D02*
X14292334Y-16783940D01*
X14559001Y-16850607D02*
X14559001Y-16650606D01*
X14559001Y-16841083D02*
X14539954Y-16850607D01*
X14539954Y-16850607D02*
X14501858Y-16850607D01*
X14501858Y-16850607D02*
X14482811Y-16841083D01*
X14482811Y-16841083D02*
X14473287Y-16831559D01*
X14473287Y-16831559D02*
X14463763Y-16812511D01*
X14463763Y-16812511D02*
X14463763Y-16755368D01*
X14463763Y-16755368D02*
X14473287Y-16736321D01*
X14473287Y-16736321D02*
X14482811Y-16726797D01*
X14482811Y-16726797D02*
X14501858Y-16717273D01*
X14501858Y-16717273D02*
X14539954Y-16717273D01*
X14539954Y-16717273D02*
X14559001Y-16726797D01*
X14635192Y-16926797D02*
X14644715Y-16917273D01*
X14644715Y-16917273D02*
X14663763Y-16888702D01*
X14663763Y-16888702D02*
X14673287Y-16869654D01*
X14673287Y-16869654D02*
X14682811Y-16841083D01*
X14682811Y-16841083D02*
X14692334Y-16793464D01*
X14692334Y-16793464D02*
X14692334Y-16755368D01*
X14692334Y-16755368D02*
X14682811Y-16707749D01*
X14682811Y-16707749D02*
X14673287Y-16679178D01*
X14673287Y-16679178D02*
X14663763Y-16660130D01*
X14663763Y-16660130D02*
X14644715Y-16631559D01*
X14644715Y-16631559D02*
X14635192Y-16622035D01*
M02*
