G04 #@! TF.GenerationSoftware,KiCad,Pcbnew,8.0.4*
G04 #@! TF.CreationDate,2024-08-05T03:42:23+02:00*
G04 #@! TF.ProjectId,chocofi,63686f63-6f66-4692-9e6b-696361645f70,0.2*
G04 #@! TF.SameCoordinates,Original*
G04 #@! TF.FileFunction,Legend,Top*
G04 #@! TF.FilePolarity,Positive*
%FSLAX46Y46*%
G04 Gerber Fmt 4.6, Leading zero omitted, Abs format (unit mm)*
G04 Created by KiCad (PCBNEW 8.0.4) date 2024-08-05 03:42:23*
%MOMM*%
%LPD*%
G01*
G04 APERTURE LIST*
G04 Aperture macros list*
%AMRoundRect*
0 Rectangle with rounded corners*
0 $1 Rounding radius*
0 $2 $3 $4 $5 $6 $7 $8 $9 X,Y pos of 4 corners*
0 Add a 4 corners polygon primitive as box body*
4,1,4,$2,$3,$4,$5,$6,$7,$8,$9,$2,$3,0*
0 Add four circle primitives for the rounded corners*
1,1,$1+$1,$2,$3*
1,1,$1+$1,$4,$5*
1,1,$1+$1,$6,$7*
1,1,$1+$1,$8,$9*
0 Add four rect primitives between the rounded corners*
20,1,$1+$1,$2,$3,$4,$5,0*
20,1,$1+$1,$4,$5,$6,$7,0*
20,1,$1+$1,$6,$7,$8,$9,0*
20,1,$1+$1,$8,$9,$2,$3,0*%
%AMRotRect*
0 Rectangle, with rotation*
0 The origin of the aperture is its center*
0 $1 length*
0 $2 width*
0 $3 Rotation angle, in degrees counterclockwise*
0 Add horizontal line*
21,1,$1,$2,0,0,$3*%
%AMFreePoly0*
4,1,22,1.386777,1.480194,1.456366,1.424698,1.494986,1.344504,1.500000,1.300000,1.500000,-1.300000,1.480194,-1.386777,1.424698,-1.456366,1.344504,-1.494986,1.300000,-1.500000,-1.300000,-1.500000,-1.386777,-1.480194,-1.456366,-1.424698,-1.494986,-1.344504,-1.500000,-1.300000,-1.500000,0.130000,-1.480194,0.216777,-1.441421,0.271421,-0.271421,1.441421,-0.196056,1.488777,-0.130000,1.500000,
1.300000,1.500000,1.386777,1.480194,1.386777,1.480194,$1*%
G04 Aperture macros list end*
%ADD10C,0.150000*%
%ADD11C,0.100000*%
%ADD12C,0.200000*%
%ADD13C,0.160000*%
%ADD14C,0.120000*%
%ADD15C,0.125000*%
%ADD16R,1.397000X1.397000*%
%ADD17C,1.397000*%
%ADD18RotRect,1.397000X1.397000X350.200000*%
%ADD19RotRect,1.397000X1.397000X340.600000*%
%ADD20RotRect,1.397000X1.397000X331.000000*%
%ADD21C,1.200000*%
%ADD22O,2.500000X1.700000*%
%ADD23C,1.524000*%
%ADD24RoundRect,0.200000X-0.698500X-0.698500X0.698500X-0.698500X0.698500X0.698500X-0.698500X0.698500X0*%
%ADD25RoundRect,0.200000X-0.650000X-0.475000X0.650000X-0.475000X0.650000X0.475000X-0.650000X0.475000X0*%
%ADD26C,1.797000*%
%ADD27RoundRect,0.200000X-0.807199X-0.569416X0.569416X-0.807199X0.807199X0.569416X-0.569416X0.807199X0*%
%ADD28RoundRect,0.200000X-0.721365X-0.357433X0.559666X-0.578705X0.721365X0.357433X-0.559666X0.578705X0*%
%ADD29RoundRect,0.200000X-0.890856X-0.426826X0.426826X-0.890856X0.890856X0.426826X-0.426826X0.890856X0*%
%ADD30RoundRect,0.200000X-0.770871X-0.232126X0.455318X-0.663935X0.770871X0.232126X-0.455318X0.663935X0*%
%ADD31RoundRect,0.200000X-0.949561X-0.272282X0.272282X-0.949561X0.949561X0.272282X-0.272282X0.949561X0*%
%ADD32RoundRect,0.200000X-0.798787X-0.100318X0.338218X-0.730571X0.798787X0.100318X-0.338218X0.730571X0*%
%ADD33C,1.600000*%
%ADD34O,2.900000X2.100000*%
%ADD35C,2.101800*%
%ADD36C,1.390600*%
%ADD37C,3.400000*%
%ADD38C,3.829000*%
%ADD39FreePoly0,0.000000*%
%ADD40RoundRect,0.200000X-1.300000X-1.300000X1.300000X-1.300000X1.300000X1.300000X-1.300000X1.300000X0*%
%ADD41RoundRect,0.200000X-0.950000X-1.300000X0.950000X-1.300000X0.950000X1.300000X-0.950000X1.300000X0*%
%ADD42FreePoly0,170.200000*%
%ADD43RoundRect,0.200000X1.502303X1.059758X-1.059758X1.502303X-1.502303X-1.059758X1.059758X-1.502303X0*%
%ADD44FreePoly0,160.600000*%
%ADD45RoundRect,0.200000X1.657999X0.794380X-0.794380X1.657999X-1.657999X-0.794380X0.794380X-1.657999X0*%
%ADD46FreePoly0,151.000000*%
%ADD47RoundRect,0.200000X1.767258X0.506753X-0.506753X1.767258X-1.767258X-0.506753X0.506753X-1.767258X0*%
%ADD48C,1.924000*%
%ADD49RoundRect,0.200000X-0.571500X0.317500X-0.571500X-0.317500X0.571500X-0.317500X0.571500X0.317500X0*%
%ADD50RoundRect,0.200000X-0.850000X0.450000X-0.850000X-0.450000X0.850000X-0.450000X0.850000X0.450000X0*%
%ADD51C,4.400000*%
%ADD52C,3.629000*%
%ADD53RoundRect,0.200000X0.571500X-0.317500X0.571500X0.317500X-0.571500X0.317500X-0.571500X-0.317500X0*%
%ADD54RoundRect,0.333333X0.466667X0.566667X-0.466667X0.566667X-0.466667X-0.566667X0.466667X-0.566667X0*%
%ADD55C,1.300000*%
%ADD56RoundRect,0.200000X0.450000X0.650000X-0.450000X0.650000X-0.450000X-0.650000X0.450000X-0.650000X0*%
%ADD57RoundRect,0.200000X0.500000X0.500000X-0.500000X0.500000X-0.500000X-0.500000X0.500000X-0.500000X0*%
%ADD58RoundRect,0.200000X-1.224745X-0.707107X0.707107X-1.224745X1.224745X0.707107X-0.707107X1.224745X0*%
%ADD59C,2.400000*%
%ADD60RoundRect,0.200000X-1.772413X-0.819179X1.125365X-1.595636X1.772413X0.819179X-1.125365X1.595636X0*%
%ADD61RoundRect,0.200000X-0.850000X0.850000X-0.850000X-0.850000X0.850000X-0.850000X0.850000X0.850000X0*%
%ADD62O,2.100000X2.100000*%
%ADD63RoundRect,0.333333X-0.466667X-0.566667X0.466667X-0.566667X0.466667X0.566667X-0.466667X0.566667X0*%
%ADD64RoundRect,0.200000X-0.450000X-0.650000X0.450000X-0.650000X0.450000X0.650000X-0.450000X0.650000X0*%
%ADD65RoundRect,0.200000X-0.500000X-0.500000X0.500000X-0.500000X0.500000X0.500000X-0.500000X0.500000X0*%
G04 APERTURE END LIST*
D10*
X181600000Y-91200000D02*
X181600000Y-93500000D01*
X173500000Y-62700000D02*
X181900000Y-62700000D01*
X181900000Y-66800000D01*
X173500000Y-66800000D01*
X173500000Y-62700000D01*
X183147619Y-54854819D02*
X183338095Y-54854819D01*
X183338095Y-54854819D02*
X183433333Y-54902438D01*
X183433333Y-54902438D02*
X183528571Y-54997676D01*
X183528571Y-54997676D02*
X183576190Y-55188152D01*
X183576190Y-55188152D02*
X183576190Y-55521485D01*
X183576190Y-55521485D02*
X183528571Y-55711961D01*
X183528571Y-55711961D02*
X183433333Y-55807200D01*
X183433333Y-55807200D02*
X183338095Y-55854819D01*
X183338095Y-55854819D02*
X183147619Y-55854819D01*
X183147619Y-55854819D02*
X183052381Y-55807200D01*
X183052381Y-55807200D02*
X182957143Y-55711961D01*
X182957143Y-55711961D02*
X182909524Y-55521485D01*
X182909524Y-55521485D02*
X182909524Y-55188152D01*
X182909524Y-55188152D02*
X182957143Y-54997676D01*
X182957143Y-54997676D02*
X183052381Y-54902438D01*
X183052381Y-54902438D02*
X183147619Y-54854819D01*
X184338095Y-55331009D02*
X184004762Y-55331009D01*
X184004762Y-55854819D02*
X184004762Y-54854819D01*
X184004762Y-54854819D02*
X184480952Y-54854819D01*
X185195238Y-55331009D02*
X184861905Y-55331009D01*
X184861905Y-55854819D02*
X184861905Y-54854819D01*
X184861905Y-54854819D02*
X185338095Y-54854819D01*
X176633333Y-110294295D02*
X176900000Y-111094295D01*
X176900000Y-111094295D02*
X177166666Y-110294295D01*
X177890476Y-111018104D02*
X177852380Y-111056200D01*
X177852380Y-111056200D02*
X177738095Y-111094295D01*
X177738095Y-111094295D02*
X177661904Y-111094295D01*
X177661904Y-111094295D02*
X177547618Y-111056200D01*
X177547618Y-111056200D02*
X177471428Y-110980009D01*
X177471428Y-110980009D02*
X177433333Y-110903819D01*
X177433333Y-110903819D02*
X177395237Y-110751438D01*
X177395237Y-110751438D02*
X177395237Y-110637152D01*
X177395237Y-110637152D02*
X177433333Y-110484771D01*
X177433333Y-110484771D02*
X177471428Y-110408580D01*
X177471428Y-110408580D02*
X177547618Y-110332390D01*
X177547618Y-110332390D02*
X177661904Y-110294295D01*
X177661904Y-110294295D02*
X177738095Y-110294295D01*
X177738095Y-110294295D02*
X177852380Y-110332390D01*
X177852380Y-110332390D02*
X177890476Y-110370485D01*
X178690476Y-111018104D02*
X178652380Y-111056200D01*
X178652380Y-111056200D02*
X178538095Y-111094295D01*
X178538095Y-111094295D02*
X178461904Y-111094295D01*
X178461904Y-111094295D02*
X178347618Y-111056200D01*
X178347618Y-111056200D02*
X178271428Y-110980009D01*
X178271428Y-110980009D02*
X178233333Y-110903819D01*
X178233333Y-110903819D02*
X178195237Y-110751438D01*
X178195237Y-110751438D02*
X178195237Y-110637152D01*
X178195237Y-110637152D02*
X178233333Y-110484771D01*
X178233333Y-110484771D02*
X178271428Y-110408580D01*
X178271428Y-110408580D02*
X178347618Y-110332390D01*
X178347618Y-110332390D02*
X178461904Y-110294295D01*
X178461904Y-110294295D02*
X178538095Y-110294295D01*
X178538095Y-110294295D02*
X178652380Y-110332390D01*
X178652380Y-110332390D02*
X178690476Y-110370485D01*
X185701905Y-93922295D02*
X185435238Y-93541342D01*
X185244762Y-93922295D02*
X185244762Y-93122295D01*
X185244762Y-93122295D02*
X185549524Y-93122295D01*
X185549524Y-93122295D02*
X185625714Y-93160390D01*
X185625714Y-93160390D02*
X185663809Y-93198485D01*
X185663809Y-93198485D02*
X185701905Y-93274676D01*
X185701905Y-93274676D02*
X185701905Y-93388961D01*
X185701905Y-93388961D02*
X185663809Y-93465152D01*
X185663809Y-93465152D02*
X185625714Y-93503247D01*
X185625714Y-93503247D02*
X185549524Y-93541342D01*
X185549524Y-93541342D02*
X185244762Y-93541342D01*
X186006666Y-93884200D02*
X186120952Y-93922295D01*
X186120952Y-93922295D02*
X186311428Y-93922295D01*
X186311428Y-93922295D02*
X186387619Y-93884200D01*
X186387619Y-93884200D02*
X186425714Y-93846104D01*
X186425714Y-93846104D02*
X186463809Y-93769914D01*
X186463809Y-93769914D02*
X186463809Y-93693723D01*
X186463809Y-93693723D02*
X186425714Y-93617533D01*
X186425714Y-93617533D02*
X186387619Y-93579438D01*
X186387619Y-93579438D02*
X186311428Y-93541342D01*
X186311428Y-93541342D02*
X186159047Y-93503247D01*
X186159047Y-93503247D02*
X186082857Y-93465152D01*
X186082857Y-93465152D02*
X186044762Y-93427057D01*
X186044762Y-93427057D02*
X186006666Y-93350866D01*
X186006666Y-93350866D02*
X186006666Y-93274676D01*
X186006666Y-93274676D02*
X186044762Y-93198485D01*
X186044762Y-93198485D02*
X186082857Y-93160390D01*
X186082857Y-93160390D02*
X186159047Y-93122295D01*
X186159047Y-93122295D02*
X186349524Y-93122295D01*
X186349524Y-93122295D02*
X186463809Y-93160390D01*
X186692381Y-93122295D02*
X187149524Y-93122295D01*
X186920952Y-93922295D02*
X186920952Y-93122295D01*
G36*
X172715313Y-94397942D02*
G01*
X172770377Y-94453006D01*
X172799347Y-94510945D01*
X172833208Y-94646387D01*
X172833208Y-94742202D01*
X172799347Y-94877643D01*
X172770377Y-94935582D01*
X172715312Y-94990648D01*
X172629371Y-95019295D01*
X172526065Y-95019295D01*
X172526065Y-94369295D01*
X172629371Y-94369295D01*
X172715313Y-94397942D01*
G37*
G36*
X173489865Y-94790723D02*
G01*
X173317026Y-94790723D01*
X173403445Y-94531465D01*
X173489865Y-94790723D01*
G37*
G36*
X173833412Y-95258184D02*
G01*
X171487175Y-95258184D01*
X171487175Y-94446676D01*
X171576064Y-94446676D01*
X171576064Y-94522866D01*
X171577505Y-94537498D01*
X171578535Y-94539986D01*
X171578727Y-94542676D01*
X171583982Y-94556407D01*
X171622078Y-94632598D01*
X171626041Y-94638894D01*
X171626800Y-94640725D01*
X171628491Y-94642786D01*
X171629911Y-94645041D01*
X171631406Y-94646337D01*
X171636127Y-94652090D01*
X171674222Y-94690185D01*
X171679971Y-94694903D01*
X171681271Y-94696402D01*
X171683530Y-94697823D01*
X171685587Y-94699512D01*
X171687414Y-94700269D01*
X171693714Y-94704234D01*
X171769904Y-94742329D01*
X171770973Y-94742738D01*
X171771409Y-94743061D01*
X171777554Y-94745256D01*
X171783636Y-94747584D01*
X171784175Y-94747622D01*
X171785255Y-94748008D01*
X171929649Y-94784106D01*
X171987590Y-94813077D01*
X172008473Y-94833960D01*
X172033207Y-94883428D01*
X172033207Y-94924209D01*
X172008472Y-94973677D01*
X171987589Y-94994561D01*
X171938121Y-95019295D01*
X171777520Y-95019295D01*
X171674781Y-94985049D01*
X171660444Y-94981789D01*
X171631254Y-94983864D01*
X171605081Y-94996950D01*
X171585907Y-95019058D01*
X171576653Y-95046820D01*
X171578728Y-95076010D01*
X171591814Y-95102183D01*
X171613922Y-95121357D01*
X171627347Y-95127351D01*
X171741633Y-95165446D01*
X171748886Y-95167095D01*
X171750718Y-95167854D01*
X171753372Y-95168115D01*
X171755970Y-95168706D01*
X171757944Y-95168565D01*
X171765350Y-95169295D01*
X171955826Y-95169295D01*
X171970458Y-95167854D01*
X171972947Y-95166822D01*
X171975635Y-95166632D01*
X171989367Y-95161377D01*
X172065558Y-95123282D01*
X172071857Y-95119317D01*
X172073685Y-95118560D01*
X172075741Y-95116872D01*
X172078001Y-95115450D01*
X172079301Y-95113950D01*
X172085051Y-95109232D01*
X172123146Y-95071136D01*
X172127863Y-95065387D01*
X172129362Y-95064088D01*
X172130783Y-95061829D01*
X172132473Y-95059771D01*
X172133230Y-95057941D01*
X172137194Y-95051645D01*
X172175289Y-94975455D01*
X172180544Y-94961723D01*
X172180734Y-94959035D01*
X172181766Y-94956546D01*
X172183207Y-94941914D01*
X172183207Y-94865723D01*
X172181766Y-94851091D01*
X172180734Y-94848601D01*
X172180544Y-94845914D01*
X172175289Y-94832182D01*
X172137194Y-94755992D01*
X172133229Y-94749692D01*
X172132472Y-94747865D01*
X172130783Y-94745808D01*
X172129362Y-94743549D01*
X172127863Y-94742249D01*
X172123145Y-94736500D01*
X172085050Y-94698405D01*
X172079297Y-94693684D01*
X172078001Y-94692189D01*
X172075746Y-94690769D01*
X172073685Y-94689078D01*
X172071854Y-94688319D01*
X172065558Y-94684356D01*
X171989367Y-94646260D01*
X171988297Y-94645850D01*
X171987862Y-94645528D01*
X171981725Y-94643335D01*
X171975636Y-94641005D01*
X171975095Y-94640966D01*
X171974016Y-94640581D01*
X171829620Y-94604482D01*
X171771682Y-94575513D01*
X171750799Y-94554630D01*
X171726064Y-94505160D01*
X171726064Y-94464381D01*
X171750799Y-94414911D01*
X171771682Y-94394029D01*
X171821150Y-94369295D01*
X171981752Y-94369295D01*
X172084490Y-94403541D01*
X172098827Y-94406801D01*
X172128017Y-94404726D01*
X172154190Y-94391640D01*
X172173364Y-94369533D01*
X172182618Y-94341770D01*
X172180543Y-94312580D01*
X172171401Y-94294295D01*
X172376065Y-94294295D01*
X172376065Y-95094295D01*
X172377506Y-95108927D01*
X172388705Y-95135963D01*
X172409397Y-95156655D01*
X172436433Y-95167854D01*
X172451065Y-95169295D01*
X172641541Y-95169295D01*
X172648946Y-95168565D01*
X172650921Y-95168706D01*
X172653518Y-95168115D01*
X172656173Y-95167854D01*
X172658004Y-95167095D01*
X172665258Y-95165446D01*
X172779544Y-95127351D01*
X172792969Y-95121357D01*
X172795004Y-95119591D01*
X172797495Y-95118560D01*
X172808860Y-95109233D01*
X172833178Y-95084915D01*
X173062368Y-95084915D01*
X173064443Y-95114105D01*
X173077529Y-95140278D01*
X173099636Y-95159452D01*
X173127399Y-95168706D01*
X173156589Y-95166631D01*
X173182762Y-95153545D01*
X173201936Y-95131438D01*
X173207930Y-95118012D01*
X173267026Y-94940723D01*
X173539865Y-94940723D01*
X173598961Y-95118012D01*
X173604955Y-95131438D01*
X173624129Y-95153545D01*
X173650302Y-95166632D01*
X173679492Y-95168706D01*
X173707255Y-95159452D01*
X173729362Y-95140279D01*
X173742449Y-95114105D01*
X173744523Y-95084915D01*
X173741263Y-95070578D01*
X173474597Y-94270578D01*
X173468603Y-94257153D01*
X173465092Y-94253105D01*
X173462696Y-94248312D01*
X173455590Y-94242148D01*
X173449429Y-94235045D01*
X173444637Y-94232649D01*
X173440589Y-94229138D01*
X173431665Y-94226163D01*
X173423256Y-94221959D01*
X173417911Y-94221579D01*
X173412826Y-94219884D01*
X173403446Y-94220550D01*
X173394066Y-94219884D01*
X173388980Y-94221579D01*
X173383636Y-94221959D01*
X173375225Y-94226164D01*
X173366304Y-94229138D01*
X173362256Y-94232648D01*
X173357463Y-94235045D01*
X173351300Y-94242149D01*
X173344196Y-94248312D01*
X173341799Y-94253105D01*
X173338289Y-94257153D01*
X173332295Y-94270578D01*
X173065628Y-95070578D01*
X173062368Y-95084915D01*
X172833178Y-95084915D01*
X172885051Y-95033041D01*
X172889768Y-95027292D01*
X172891267Y-95025993D01*
X172892688Y-95023734D01*
X172894378Y-95021676D01*
X172895135Y-95019846D01*
X172899099Y-95013550D01*
X172937194Y-94937360D01*
X172937603Y-94936290D01*
X172937926Y-94935855D01*
X172940124Y-94929703D01*
X172942449Y-94923628D01*
X172942487Y-94923089D01*
X172942873Y-94922010D01*
X172980969Y-94769628D01*
X172981344Y-94767091D01*
X172981767Y-94766070D01*
X172982309Y-94760557D01*
X172983119Y-94755084D01*
X172982956Y-94753991D01*
X172983208Y-94751438D01*
X172983208Y-94637152D01*
X172982956Y-94634598D01*
X172983119Y-94633506D01*
X172982309Y-94628032D01*
X172981767Y-94622520D01*
X172981344Y-94621498D01*
X172980969Y-94618962D01*
X172942873Y-94466580D01*
X172942487Y-94465500D01*
X172942449Y-94464962D01*
X172940124Y-94458886D01*
X172937926Y-94452735D01*
X172937603Y-94452299D01*
X172937194Y-94451230D01*
X172899099Y-94375039D01*
X172895136Y-94368744D01*
X172894378Y-94366912D01*
X172892686Y-94364850D01*
X172891267Y-94362596D01*
X172889770Y-94361297D01*
X172885050Y-94355547D01*
X172808860Y-94279357D01*
X172797495Y-94270030D01*
X172795004Y-94268998D01*
X172792969Y-94267233D01*
X172779544Y-94261239D01*
X172665258Y-94223144D01*
X172658004Y-94221494D01*
X172656173Y-94220736D01*
X172653518Y-94220474D01*
X172650921Y-94219884D01*
X172648946Y-94220024D01*
X172641541Y-94219295D01*
X172451065Y-94219295D01*
X172436433Y-94220736D01*
X172409397Y-94231935D01*
X172388705Y-94252627D01*
X172377506Y-94279663D01*
X172376065Y-94294295D01*
X172171401Y-94294295D01*
X172167457Y-94286407D01*
X172145350Y-94267233D01*
X172131924Y-94261239D01*
X172017639Y-94223144D01*
X172010385Y-94221494D01*
X172008554Y-94220736D01*
X172005899Y-94220474D01*
X172003302Y-94219884D01*
X172001327Y-94220024D01*
X171993922Y-94219295D01*
X171803445Y-94219295D01*
X171788813Y-94220736D01*
X171786323Y-94221767D01*
X171783636Y-94221958D01*
X171769904Y-94227213D01*
X171693714Y-94265308D01*
X171687414Y-94269272D01*
X171685587Y-94270030D01*
X171683530Y-94271718D01*
X171681271Y-94273140D01*
X171679971Y-94274638D01*
X171674222Y-94279357D01*
X171636127Y-94317452D01*
X171631406Y-94323204D01*
X171629911Y-94324501D01*
X171628491Y-94326755D01*
X171626800Y-94328817D01*
X171626041Y-94330647D01*
X171622078Y-94336944D01*
X171583982Y-94413135D01*
X171578727Y-94426866D01*
X171578535Y-94429555D01*
X171577505Y-94432044D01*
X171576064Y-94446676D01*
X171487175Y-94446676D01*
X171487175Y-94130406D01*
X173833412Y-94130406D01*
X173833412Y-95258184D01*
G37*
D11*
X168926189Y-88256800D02*
X169040475Y-88294895D01*
X169040475Y-88294895D02*
X169230951Y-88294895D01*
X169230951Y-88294895D02*
X169307142Y-88256800D01*
X169307142Y-88256800D02*
X169345237Y-88218704D01*
X169345237Y-88218704D02*
X169383332Y-88142514D01*
X169383332Y-88142514D02*
X169383332Y-88066323D01*
X169383332Y-88066323D02*
X169345237Y-87990133D01*
X169345237Y-87990133D02*
X169307142Y-87952038D01*
X169307142Y-87952038D02*
X169230951Y-87913942D01*
X169230951Y-87913942D02*
X169078570Y-87875847D01*
X169078570Y-87875847D02*
X169002380Y-87837752D01*
X169002380Y-87837752D02*
X168964285Y-87799657D01*
X168964285Y-87799657D02*
X168926189Y-87723466D01*
X168926189Y-87723466D02*
X168926189Y-87647276D01*
X168926189Y-87647276D02*
X168964285Y-87571085D01*
X168964285Y-87571085D02*
X169002380Y-87532990D01*
X169002380Y-87532990D02*
X169078570Y-87494895D01*
X169078570Y-87494895D02*
X169269047Y-87494895D01*
X169269047Y-87494895D02*
X169383332Y-87532990D01*
X169878571Y-87494895D02*
X170030952Y-87494895D01*
X170030952Y-87494895D02*
X170107142Y-87532990D01*
X170107142Y-87532990D02*
X170183333Y-87609180D01*
X170183333Y-87609180D02*
X170221428Y-87761561D01*
X170221428Y-87761561D02*
X170221428Y-88028228D01*
X170221428Y-88028228D02*
X170183333Y-88180609D01*
X170183333Y-88180609D02*
X170107142Y-88256800D01*
X170107142Y-88256800D02*
X170030952Y-88294895D01*
X170030952Y-88294895D02*
X169878571Y-88294895D01*
X169878571Y-88294895D02*
X169802380Y-88256800D01*
X169802380Y-88256800D02*
X169726190Y-88180609D01*
X169726190Y-88180609D02*
X169688094Y-88028228D01*
X169688094Y-88028228D02*
X169688094Y-87761561D01*
X169688094Y-87761561D02*
X169726190Y-87609180D01*
X169726190Y-87609180D02*
X169802380Y-87532990D01*
X169802380Y-87532990D02*
X169878571Y-87494895D01*
X170945237Y-88294895D02*
X170564285Y-88294895D01*
X170564285Y-88294895D02*
X170564285Y-87494895D01*
X171211904Y-88294895D02*
X171211904Y-87494895D01*
X171211904Y-87494895D02*
X171402380Y-87494895D01*
X171402380Y-87494895D02*
X171516666Y-87532990D01*
X171516666Y-87532990D02*
X171592856Y-87609180D01*
X171592856Y-87609180D02*
X171630951Y-87685371D01*
X171630951Y-87685371D02*
X171669047Y-87837752D01*
X171669047Y-87837752D02*
X171669047Y-87952038D01*
X171669047Y-87952038D02*
X171630951Y-88104419D01*
X171630951Y-88104419D02*
X171592856Y-88180609D01*
X171592856Y-88180609D02*
X171516666Y-88256800D01*
X171516666Y-88256800D02*
X171402380Y-88294895D01*
X171402380Y-88294895D02*
X171211904Y-88294895D01*
X172011904Y-87875847D02*
X172278570Y-87875847D01*
X172392856Y-88294895D02*
X172011904Y-88294895D01*
X172011904Y-88294895D02*
X172011904Y-87494895D01*
X172011904Y-87494895D02*
X172392856Y-87494895D01*
X173192857Y-88294895D02*
X172926190Y-87913942D01*
X172735714Y-88294895D02*
X172735714Y-87494895D01*
X172735714Y-87494895D02*
X173040476Y-87494895D01*
X173040476Y-87494895D02*
X173116666Y-87532990D01*
X173116666Y-87532990D02*
X173154761Y-87571085D01*
X173154761Y-87571085D02*
X173192857Y-87647276D01*
X173192857Y-87647276D02*
X173192857Y-87761561D01*
X173192857Y-87761561D02*
X173154761Y-87837752D01*
X173154761Y-87837752D02*
X173116666Y-87875847D01*
X173116666Y-87875847D02*
X173040476Y-87913942D01*
X173040476Y-87913942D02*
X172735714Y-87913942D01*
X174145238Y-88294895D02*
X174145238Y-87494895D01*
X174145238Y-87875847D02*
X174602381Y-87875847D01*
X174602381Y-88294895D02*
X174602381Y-87494895D01*
X174983333Y-87875847D02*
X175249999Y-87875847D01*
X175364285Y-88294895D02*
X174983333Y-88294895D01*
X174983333Y-88294895D02*
X174983333Y-87494895D01*
X174983333Y-87494895D02*
X175364285Y-87494895D01*
X176164286Y-88294895D02*
X175897619Y-87913942D01*
X175707143Y-88294895D02*
X175707143Y-87494895D01*
X175707143Y-87494895D02*
X176011905Y-87494895D01*
X176011905Y-87494895D02*
X176088095Y-87532990D01*
X176088095Y-87532990D02*
X176126190Y-87571085D01*
X176126190Y-87571085D02*
X176164286Y-87647276D01*
X176164286Y-87647276D02*
X176164286Y-87761561D01*
X176164286Y-87761561D02*
X176126190Y-87837752D01*
X176126190Y-87837752D02*
X176088095Y-87875847D01*
X176088095Y-87875847D02*
X176011905Y-87913942D01*
X176011905Y-87913942D02*
X175707143Y-87913942D01*
X176507143Y-87875847D02*
X176773809Y-87875847D01*
X176888095Y-88294895D02*
X176507143Y-88294895D01*
X176507143Y-88294895D02*
X176507143Y-87494895D01*
X176507143Y-87494895D02*
X176888095Y-87494895D01*
X178107143Y-87875847D02*
X177840477Y-87875847D01*
X177840477Y-88294895D02*
X177840477Y-87494895D01*
X177840477Y-87494895D02*
X178221429Y-87494895D01*
X178678572Y-87494895D02*
X178830953Y-87494895D01*
X178830953Y-87494895D02*
X178907143Y-87532990D01*
X178907143Y-87532990D02*
X178983334Y-87609180D01*
X178983334Y-87609180D02*
X179021429Y-87761561D01*
X179021429Y-87761561D02*
X179021429Y-88028228D01*
X179021429Y-88028228D02*
X178983334Y-88180609D01*
X178983334Y-88180609D02*
X178907143Y-88256800D01*
X178907143Y-88256800D02*
X178830953Y-88294895D01*
X178830953Y-88294895D02*
X178678572Y-88294895D01*
X178678572Y-88294895D02*
X178602381Y-88256800D01*
X178602381Y-88256800D02*
X178526191Y-88180609D01*
X178526191Y-88180609D02*
X178488095Y-88028228D01*
X178488095Y-88028228D02*
X178488095Y-87761561D01*
X178488095Y-87761561D02*
X178526191Y-87609180D01*
X178526191Y-87609180D02*
X178602381Y-87532990D01*
X178602381Y-87532990D02*
X178678572Y-87494895D01*
X179821429Y-88294895D02*
X179554762Y-87913942D01*
X179364286Y-88294895D02*
X179364286Y-87494895D01*
X179364286Y-87494895D02*
X179669048Y-87494895D01*
X179669048Y-87494895D02*
X179745238Y-87532990D01*
X179745238Y-87532990D02*
X179783333Y-87571085D01*
X179783333Y-87571085D02*
X179821429Y-87647276D01*
X179821429Y-87647276D02*
X179821429Y-87761561D01*
X179821429Y-87761561D02*
X179783333Y-87837752D01*
X179783333Y-87837752D02*
X179745238Y-87875847D01*
X179745238Y-87875847D02*
X179669048Y-87913942D01*
X179669048Y-87913942D02*
X179364286Y-87913942D01*
X181154762Y-88294895D02*
X180773810Y-88294895D01*
X180773810Y-88294895D02*
X180773810Y-87494895D01*
X181421429Y-87875847D02*
X181688095Y-87875847D01*
X181802381Y-88294895D02*
X181421429Y-88294895D01*
X181421429Y-88294895D02*
X181421429Y-87494895D01*
X181421429Y-87494895D02*
X181802381Y-87494895D01*
X182411905Y-87875847D02*
X182145239Y-87875847D01*
X182145239Y-88294895D02*
X182145239Y-87494895D01*
X182145239Y-87494895D02*
X182526191Y-87494895D01*
X182716667Y-87494895D02*
X183173810Y-87494895D01*
X182945238Y-88294895D02*
X182945238Y-87494895D01*
X184011905Y-88256800D02*
X184126191Y-88294895D01*
X184126191Y-88294895D02*
X184316667Y-88294895D01*
X184316667Y-88294895D02*
X184392858Y-88256800D01*
X184392858Y-88256800D02*
X184430953Y-88218704D01*
X184430953Y-88218704D02*
X184469048Y-88142514D01*
X184469048Y-88142514D02*
X184469048Y-88066323D01*
X184469048Y-88066323D02*
X184430953Y-87990133D01*
X184430953Y-87990133D02*
X184392858Y-87952038D01*
X184392858Y-87952038D02*
X184316667Y-87913942D01*
X184316667Y-87913942D02*
X184164286Y-87875847D01*
X184164286Y-87875847D02*
X184088096Y-87837752D01*
X184088096Y-87837752D02*
X184050001Y-87799657D01*
X184050001Y-87799657D02*
X184011905Y-87723466D01*
X184011905Y-87723466D02*
X184011905Y-87647276D01*
X184011905Y-87647276D02*
X184050001Y-87571085D01*
X184050001Y-87571085D02*
X184088096Y-87532990D01*
X184088096Y-87532990D02*
X184164286Y-87494895D01*
X184164286Y-87494895D02*
X184354763Y-87494895D01*
X184354763Y-87494895D02*
X184469048Y-87532990D01*
X184811906Y-88294895D02*
X184811906Y-87494895D01*
X185192858Y-88294895D02*
X185192858Y-87494895D01*
X185192858Y-87494895D02*
X185383334Y-87494895D01*
X185383334Y-87494895D02*
X185497620Y-87532990D01*
X185497620Y-87532990D02*
X185573810Y-87609180D01*
X185573810Y-87609180D02*
X185611905Y-87685371D01*
X185611905Y-87685371D02*
X185650001Y-87837752D01*
X185650001Y-87837752D02*
X185650001Y-87952038D01*
X185650001Y-87952038D02*
X185611905Y-88104419D01*
X185611905Y-88104419D02*
X185573810Y-88180609D01*
X185573810Y-88180609D02*
X185497620Y-88256800D01*
X185497620Y-88256800D02*
X185383334Y-88294895D01*
X185383334Y-88294895D02*
X185192858Y-88294895D01*
X185992858Y-87875847D02*
X186259524Y-87875847D01*
X186373810Y-88294895D02*
X185992858Y-88294895D01*
X185992858Y-88294895D02*
X185992858Y-87494895D01*
X185992858Y-87494895D02*
X186373810Y-87494895D01*
D10*
G36*
X181291503Y-94397942D02*
G01*
X181346567Y-94453006D01*
X181375537Y-94510945D01*
X181409398Y-94646387D01*
X181409398Y-94742202D01*
X181375537Y-94877643D01*
X181346567Y-94935582D01*
X181291502Y-94990648D01*
X181205561Y-95019295D01*
X181102255Y-95019295D01*
X181102255Y-94369295D01*
X181205561Y-94369295D01*
X181291503Y-94397942D01*
G37*
G36*
X181648287Y-95258184D02*
G01*
X179187175Y-95258184D01*
X179187175Y-94637152D01*
X179276064Y-94637152D01*
X179276064Y-94751438D01*
X179276315Y-94753991D01*
X179276153Y-94755084D01*
X179276962Y-94760558D01*
X179277505Y-94766070D01*
X179277927Y-94767090D01*
X179278303Y-94769629D01*
X179316399Y-94922010D01*
X179316784Y-94923089D01*
X179316823Y-94923628D01*
X179319147Y-94929703D01*
X179321346Y-94935855D01*
X179321668Y-94936290D01*
X179322078Y-94937360D01*
X179360173Y-95013550D01*
X179364136Y-95019846D01*
X179364894Y-95021676D01*
X179366583Y-95023734D01*
X179368005Y-95025993D01*
X179369503Y-95027292D01*
X179374222Y-95033042D01*
X179450412Y-95109233D01*
X179461777Y-95118560D01*
X179464267Y-95119591D01*
X179466303Y-95121357D01*
X179479728Y-95127351D01*
X179594014Y-95165446D01*
X179601267Y-95167095D01*
X179603099Y-95167854D01*
X179605753Y-95168115D01*
X179608351Y-95168706D01*
X179610325Y-95168565D01*
X179617731Y-95169295D01*
X179693922Y-95169295D01*
X179701327Y-95168565D01*
X179703302Y-95168706D01*
X179705899Y-95168115D01*
X179708554Y-95167854D01*
X179710385Y-95167095D01*
X179717639Y-95165446D01*
X179831924Y-95127351D01*
X179845350Y-95121357D01*
X179847386Y-95119590D01*
X179849875Y-95118560D01*
X179861240Y-95109233D01*
X179899336Y-95071137D01*
X179908664Y-95059772D01*
X179919735Y-95033042D01*
X179919862Y-95032736D01*
X179921303Y-95018104D01*
X179921303Y-94751438D01*
X179919862Y-94736806D01*
X179908663Y-94709770D01*
X179887971Y-94689078D01*
X179860935Y-94677879D01*
X179846303Y-94676438D01*
X179693922Y-94676438D01*
X179679290Y-94677879D01*
X179652254Y-94689078D01*
X179631562Y-94709770D01*
X179620363Y-94736806D01*
X179620363Y-94766070D01*
X179631562Y-94793106D01*
X179652254Y-94813798D01*
X179679290Y-94824997D01*
X179693922Y-94826438D01*
X179771303Y-94826438D01*
X179771303Y-94987038D01*
X179767693Y-94990648D01*
X179681752Y-95019295D01*
X179629901Y-95019295D01*
X179543959Y-94990648D01*
X179488894Y-94935582D01*
X179459924Y-94877642D01*
X179426064Y-94742202D01*
X179426064Y-94646387D01*
X179459924Y-94510946D01*
X179488894Y-94453006D01*
X179543958Y-94397942D01*
X179629901Y-94369295D01*
X179714312Y-94369295D01*
X179774666Y-94399472D01*
X179788398Y-94404727D01*
X179817588Y-94406801D01*
X179845349Y-94397547D01*
X179867457Y-94378374D01*
X179880544Y-94352199D01*
X179882618Y-94323009D01*
X179873364Y-94295248D01*
X179872538Y-94294295D01*
X180114160Y-94294295D01*
X180114160Y-95094295D01*
X180115601Y-95108927D01*
X180126800Y-95135963D01*
X180147492Y-95156655D01*
X180174528Y-95167854D01*
X180203792Y-95167854D01*
X180230828Y-95156655D01*
X180251520Y-95135963D01*
X180262719Y-95108927D01*
X180264160Y-95094295D01*
X180264160Y-94576711D01*
X180581185Y-95131505D01*
X180583373Y-95134588D01*
X180583943Y-95135963D01*
X180585342Y-95137362D01*
X180589695Y-95143495D01*
X180597583Y-95149603D01*
X180604635Y-95156655D01*
X180609053Y-95158485D01*
X180612833Y-95161412D01*
X180622454Y-95164036D01*
X180631671Y-95167854D01*
X180636452Y-95167854D01*
X180641064Y-95169112D01*
X180650961Y-95167854D01*
X180660935Y-95167854D01*
X180665350Y-95166024D01*
X180670094Y-95165422D01*
X180678758Y-95160471D01*
X180687971Y-95156655D01*
X180691349Y-95153276D01*
X180695503Y-95150903D01*
X180701612Y-95143013D01*
X180708663Y-95135963D01*
X180710492Y-95131546D01*
X180713420Y-95127766D01*
X180716044Y-95118142D01*
X180719862Y-95108927D01*
X180720598Y-95101444D01*
X180721120Y-95099534D01*
X180720932Y-95098058D01*
X180721303Y-95094295D01*
X180721303Y-94294295D01*
X180952255Y-94294295D01*
X180952255Y-95094295D01*
X180953696Y-95108927D01*
X180964895Y-95135963D01*
X180985587Y-95156655D01*
X181012623Y-95167854D01*
X181027255Y-95169295D01*
X181217731Y-95169295D01*
X181225136Y-95168565D01*
X181227111Y-95168706D01*
X181229708Y-95168115D01*
X181232363Y-95167854D01*
X181234194Y-95167095D01*
X181241448Y-95165446D01*
X181355734Y-95127351D01*
X181369159Y-95121357D01*
X181371194Y-95119591D01*
X181373685Y-95118560D01*
X181385050Y-95109233D01*
X181461241Y-95033041D01*
X181465958Y-95027292D01*
X181467457Y-95025993D01*
X181468878Y-95023734D01*
X181470568Y-95021676D01*
X181471325Y-95019846D01*
X181475289Y-95013550D01*
X181513384Y-94937360D01*
X181513793Y-94936290D01*
X181514116Y-94935855D01*
X181516314Y-94929703D01*
X181518639Y-94923628D01*
X181518677Y-94923089D01*
X181519063Y-94922010D01*
X181557159Y-94769628D01*
X181557534Y-94767091D01*
X181557957Y-94766070D01*
X181558499Y-94760557D01*
X181559309Y-94755084D01*
X181559146Y-94753991D01*
X181559398Y-94751438D01*
X181559398Y-94637152D01*
X181559146Y-94634598D01*
X181559309Y-94633506D01*
X181558499Y-94628032D01*
X181557957Y-94622520D01*
X181557534Y-94621498D01*
X181557159Y-94618962D01*
X181519063Y-94466580D01*
X181518677Y-94465500D01*
X181518639Y-94464962D01*
X181516314Y-94458886D01*
X181514116Y-94452735D01*
X181513793Y-94452299D01*
X181513384Y-94451230D01*
X181475289Y-94375039D01*
X181471326Y-94368744D01*
X181470568Y-94366912D01*
X181468876Y-94364850D01*
X181467457Y-94362596D01*
X181465960Y-94361297D01*
X181461240Y-94355547D01*
X181385050Y-94279357D01*
X181373685Y-94270030D01*
X181371194Y-94268998D01*
X181369159Y-94267233D01*
X181355734Y-94261239D01*
X181241448Y-94223144D01*
X181234194Y-94221494D01*
X181232363Y-94220736D01*
X181229708Y-94220474D01*
X181227111Y-94219884D01*
X181225136Y-94220024D01*
X181217731Y-94219295D01*
X181027255Y-94219295D01*
X181012623Y-94220736D01*
X180985587Y-94231935D01*
X180964895Y-94252627D01*
X180953696Y-94279663D01*
X180952255Y-94294295D01*
X180721303Y-94294295D01*
X180719862Y-94279663D01*
X180708663Y-94252627D01*
X180687971Y-94231935D01*
X180660935Y-94220736D01*
X180631671Y-94220736D01*
X180604635Y-94231935D01*
X180583943Y-94252627D01*
X180572744Y-94279663D01*
X180571303Y-94294295D01*
X180571303Y-94811878D01*
X180254278Y-94257085D01*
X180252089Y-94254001D01*
X180251520Y-94252627D01*
X180250120Y-94251227D01*
X180245768Y-94245095D01*
X180237878Y-94238985D01*
X180230828Y-94231935D01*
X180226411Y-94230105D01*
X180222631Y-94227178D01*
X180213007Y-94224553D01*
X180203792Y-94220736D01*
X180199011Y-94220736D01*
X180194399Y-94219478D01*
X180184502Y-94220736D01*
X180174528Y-94220736D01*
X180170112Y-94222565D01*
X180165369Y-94223168D01*
X180156704Y-94228118D01*
X180147492Y-94231935D01*
X180144113Y-94235313D01*
X180139960Y-94237687D01*
X180133850Y-94245576D01*
X180126800Y-94252627D01*
X180124970Y-94257043D01*
X180122043Y-94260824D01*
X180119418Y-94270447D01*
X180115601Y-94279663D01*
X180114864Y-94287145D01*
X180114343Y-94289056D01*
X180114530Y-94290531D01*
X180114160Y-94294295D01*
X179872538Y-94294295D01*
X179854191Y-94273140D01*
X179841748Y-94265308D01*
X179765558Y-94227213D01*
X179751826Y-94221958D01*
X179749138Y-94221767D01*
X179746649Y-94220736D01*
X179732017Y-94219295D01*
X179617731Y-94219295D01*
X179610325Y-94220024D01*
X179608351Y-94219884D01*
X179605753Y-94220474D01*
X179603099Y-94220736D01*
X179601267Y-94221494D01*
X179594014Y-94223144D01*
X179479728Y-94261239D01*
X179466303Y-94267233D01*
X179464269Y-94268996D01*
X179461777Y-94270029D01*
X179450412Y-94279357D01*
X179374222Y-94355547D01*
X179369503Y-94361296D01*
X179368005Y-94362596D01*
X179366583Y-94364855D01*
X179364895Y-94366912D01*
X179364137Y-94368739D01*
X179360173Y-94375039D01*
X179322078Y-94451230D01*
X179321668Y-94452299D01*
X179321346Y-94452735D01*
X179319147Y-94458886D01*
X179316823Y-94464962D01*
X179316784Y-94465500D01*
X179316399Y-94466580D01*
X179278303Y-94618961D01*
X179277927Y-94621499D01*
X179277505Y-94622520D01*
X179276962Y-94628031D01*
X179276153Y-94633506D01*
X179276315Y-94634598D01*
X179276064Y-94637152D01*
X179187175Y-94637152D01*
X179187175Y-94130406D01*
X181648287Y-94130406D01*
X181648287Y-95258184D01*
G37*
X178066666Y-64449847D02*
X177733333Y-63973656D01*
X177495238Y-64449847D02*
X177495238Y-63449847D01*
X177495238Y-63449847D02*
X177876190Y-63449847D01*
X177876190Y-63449847D02*
X177971428Y-63497466D01*
X177971428Y-63497466D02*
X178019047Y-63545085D01*
X178019047Y-63545085D02*
X178066666Y-63640323D01*
X178066666Y-63640323D02*
X178066666Y-63783180D01*
X178066666Y-63783180D02*
X178019047Y-63878418D01*
X178019047Y-63878418D02*
X177971428Y-63926037D01*
X177971428Y-63926037D02*
X177876190Y-63973656D01*
X177876190Y-63973656D02*
X177495238Y-63973656D01*
X178495238Y-64449847D02*
X178495238Y-63449847D01*
X179495237Y-63497466D02*
X179399999Y-63449847D01*
X179399999Y-63449847D02*
X179257142Y-63449847D01*
X179257142Y-63449847D02*
X179114285Y-63497466D01*
X179114285Y-63497466D02*
X179019047Y-63592704D01*
X179019047Y-63592704D02*
X178971428Y-63687942D01*
X178971428Y-63687942D02*
X178923809Y-63878418D01*
X178923809Y-63878418D02*
X178923809Y-64021275D01*
X178923809Y-64021275D02*
X178971428Y-64211751D01*
X178971428Y-64211751D02*
X179019047Y-64306989D01*
X179019047Y-64306989D02*
X179114285Y-64402228D01*
X179114285Y-64402228D02*
X179257142Y-64449847D01*
X179257142Y-64449847D02*
X179352380Y-64449847D01*
X179352380Y-64449847D02*
X179495237Y-64402228D01*
X179495237Y-64402228D02*
X179542856Y-64354608D01*
X179542856Y-64354608D02*
X179542856Y-64021275D01*
X179542856Y-64021275D02*
X179352380Y-64021275D01*
X179971428Y-64449847D02*
X179971428Y-63449847D01*
X179971428Y-63926037D02*
X180542856Y-63926037D01*
X180542856Y-64449847D02*
X180542856Y-63449847D01*
X180876190Y-63449847D02*
X181447618Y-63449847D01*
X181161904Y-64449847D02*
X181161904Y-63449847D01*
X177661905Y-66059791D02*
X177661905Y-65059791D01*
X177661905Y-65535981D02*
X178233333Y-65535981D01*
X178233333Y-66059791D02*
X178233333Y-65059791D01*
X178661905Y-65774076D02*
X179138095Y-65774076D01*
X178566667Y-66059791D02*
X178900000Y-65059791D01*
X178900000Y-65059791D02*
X179233333Y-66059791D01*
X179566667Y-66059791D02*
X179566667Y-65059791D01*
X179566667Y-65059791D02*
X180138095Y-66059791D01*
X180138095Y-66059791D02*
X180138095Y-65059791D01*
X180614286Y-66059791D02*
X180614286Y-65059791D01*
X180614286Y-65059791D02*
X180852381Y-65059791D01*
X180852381Y-65059791D02*
X180995238Y-65107410D01*
X180995238Y-65107410D02*
X181090476Y-65202648D01*
X181090476Y-65202648D02*
X181138095Y-65297886D01*
X181138095Y-65297886D02*
X181185714Y-65488362D01*
X181185714Y-65488362D02*
X181185714Y-65631219D01*
X181185714Y-65631219D02*
X181138095Y-65821695D01*
X181138095Y-65821695D02*
X181090476Y-65916933D01*
X181090476Y-65916933D02*
X180995238Y-66012172D01*
X180995238Y-66012172D02*
X180852381Y-66059791D01*
X180852381Y-66059791D02*
X180614286Y-66059791D01*
D12*
X140678327Y-122265712D02*
X140077465Y-122484313D01*
X140515640Y-122872865D02*
X139453122Y-122588164D01*
X139453122Y-122588164D02*
X139561579Y-122183396D01*
X139561579Y-122183396D02*
X139639290Y-122095761D01*
X139639290Y-122095761D02*
X139703443Y-122058722D01*
X139703443Y-122058722D02*
X139818193Y-122035240D01*
X139818193Y-122035240D02*
X139969981Y-122075911D01*
X139969981Y-122075911D02*
X140057616Y-122153622D01*
X140057616Y-122153622D02*
X140094655Y-122217775D01*
X140094655Y-122217775D02*
X140118137Y-122332525D01*
X140118137Y-122332525D02*
X140009679Y-122737294D01*
X140841013Y-121658559D02*
X140763302Y-121746194D01*
X140763302Y-121746194D02*
X140699149Y-121783233D01*
X140699149Y-121783233D02*
X140584400Y-121806714D01*
X140584400Y-121806714D02*
X140280823Y-121725371D01*
X140280823Y-121725371D02*
X140193188Y-121647661D01*
X140193188Y-121647661D02*
X140156149Y-121583507D01*
X140156149Y-121583507D02*
X140132667Y-121468758D01*
X140132667Y-121468758D02*
X140173339Y-121316970D01*
X140173339Y-121316970D02*
X140251049Y-121229335D01*
X140251049Y-121229335D02*
X140315203Y-121192296D01*
X140315203Y-121192296D02*
X140429952Y-121168814D01*
X140429952Y-121168814D02*
X140733529Y-121250157D01*
X140733529Y-121250157D02*
X140821164Y-121327868D01*
X140821164Y-121327868D02*
X140858203Y-121392021D01*
X140858203Y-121392021D02*
X140881684Y-121506770D01*
X140881684Y-121506770D02*
X140841013Y-121658559D01*
X140308911Y-120811009D02*
X140417368Y-120406240D01*
X139995409Y-120564320D02*
X140906140Y-120808349D01*
X140906140Y-120808349D02*
X141020889Y-120784868D01*
X141020889Y-120784868D02*
X141098599Y-120697233D01*
X141098599Y-120697233D02*
X141125714Y-120596040D01*
X141342629Y-119786503D02*
X140786071Y-119637374D01*
X140786071Y-119637374D02*
X140671322Y-119660856D01*
X140671322Y-119660856D02*
X140593612Y-119748491D01*
X140593612Y-119748491D02*
X140539383Y-119950875D01*
X140539383Y-119950875D02*
X140562865Y-120065625D01*
X141292033Y-119772946D02*
X141315514Y-119887695D01*
X141315514Y-119887695D02*
X141247728Y-120140676D01*
X141247728Y-120140676D02*
X141170018Y-120228311D01*
X141170018Y-120228311D02*
X141055268Y-120251793D01*
X141055268Y-120251793D02*
X140954076Y-120224678D01*
X140954076Y-120224678D02*
X140866441Y-120146968D01*
X140866441Y-120146968D02*
X140842959Y-120032218D01*
X140842959Y-120032218D02*
X140910745Y-119779238D01*
X140910745Y-119779238D02*
X140887264Y-119664488D01*
X141478201Y-119280542D02*
X140769855Y-119090741D01*
X140972239Y-119144970D02*
X140884604Y-119067259D01*
X140884604Y-119067259D02*
X140847565Y-119003106D01*
X140847565Y-119003106D02*
X140824084Y-118888357D01*
X140824084Y-118888357D02*
X140851198Y-118787165D01*
X140918984Y-118534184D02*
X141695115Y-118471004D01*
X141054556Y-118028223D02*
X141695115Y-118471004D01*
X141695115Y-118471004D02*
X141920982Y-118639983D01*
X141920982Y-118639983D02*
X141958021Y-118704136D01*
X141958021Y-118704136D02*
X141981502Y-118818885D01*
X141531717Y-116854588D02*
X141626617Y-116500416D01*
X142223846Y-116497756D02*
X142088274Y-117003718D01*
X142088274Y-117003718D02*
X141025755Y-116719017D01*
X141025755Y-116719017D02*
X141161327Y-116213055D01*
X141637515Y-115852591D02*
X142345860Y-116042391D01*
X141738707Y-115879705D02*
X141701668Y-115815552D01*
X141701668Y-115815552D02*
X141678186Y-115700802D01*
X141678186Y-115700802D02*
X141718858Y-115549014D01*
X141718858Y-115549014D02*
X141796568Y-115461379D01*
X141796568Y-115461379D02*
X141911318Y-115437897D01*
X141911318Y-115437897D02*
X142467875Y-115587026D01*
X142674865Y-114612143D02*
X142698347Y-114726893D01*
X142698347Y-114726893D02*
X142644118Y-114929277D01*
X142644118Y-114929277D02*
X142566408Y-115016912D01*
X142566408Y-115016912D02*
X142502255Y-115053951D01*
X142502255Y-115053951D02*
X142387505Y-115077433D01*
X142387505Y-115077433D02*
X142083929Y-114996090D01*
X142083929Y-114996090D02*
X141996294Y-114918379D01*
X141996294Y-114918379D02*
X141959255Y-114854226D01*
X141959255Y-114854226D02*
X141935773Y-114739476D01*
X141935773Y-114739476D02*
X141990002Y-114537092D01*
X141990002Y-114537092D02*
X142067712Y-114449457D01*
X142888148Y-114018547D02*
X142810437Y-114106182D01*
X142810437Y-114106182D02*
X142746284Y-114143221D01*
X142746284Y-114143221D02*
X142631535Y-114166703D01*
X142631535Y-114166703D02*
X142327958Y-114085360D01*
X142327958Y-114085360D02*
X142240323Y-114007649D01*
X142240323Y-114007649D02*
X142203284Y-113943496D01*
X142203284Y-113943496D02*
X142179802Y-113828746D01*
X142179802Y-113828746D02*
X142220474Y-113676958D01*
X142220474Y-113676958D02*
X142298184Y-113589323D01*
X142298184Y-113589323D02*
X142362338Y-113552284D01*
X142362338Y-113552284D02*
X142477087Y-113528802D01*
X142477087Y-113528802D02*
X142780664Y-113610146D01*
X142780664Y-113610146D02*
X142868299Y-113687856D01*
X142868299Y-113687856D02*
X142905338Y-113752009D01*
X142905338Y-113752009D02*
X142928819Y-113866759D01*
X142928819Y-113866759D02*
X142888148Y-114018547D01*
X143227077Y-112753644D02*
X142164559Y-112468943D01*
X143176481Y-112740087D02*
X143199963Y-112854837D01*
X143199963Y-112854837D02*
X143145734Y-113057221D01*
X143145734Y-113057221D02*
X143068024Y-113144856D01*
X143068024Y-113144856D02*
X143003871Y-113181895D01*
X143003871Y-113181895D02*
X142889121Y-113205377D01*
X142889121Y-113205377D02*
X142585544Y-113124034D01*
X142585544Y-113124034D02*
X142497909Y-113046323D01*
X142497909Y-113046323D02*
X142460870Y-112982170D01*
X142460870Y-112982170D02*
X142437389Y-112867420D01*
X142437389Y-112867420D02*
X142491617Y-112665036D01*
X142491617Y-112665036D02*
X142569328Y-112577401D01*
X143420511Y-111829357D02*
X143443992Y-111944107D01*
X143443992Y-111944107D02*
X143389764Y-112146491D01*
X143389764Y-112146491D02*
X143312053Y-112234126D01*
X143312053Y-112234126D02*
X143197304Y-112257608D01*
X143197304Y-112257608D02*
X142792535Y-112149150D01*
X142792535Y-112149150D02*
X142704900Y-112071440D01*
X142704900Y-112071440D02*
X142681418Y-111956690D01*
X142681418Y-111956690D02*
X142735647Y-111754306D01*
X142735647Y-111754306D02*
X142813357Y-111666671D01*
X142813357Y-111666671D02*
X142928107Y-111643189D01*
X142928107Y-111643189D02*
X143029299Y-111670304D01*
X143029299Y-111670304D02*
X142994919Y-112203379D01*
X143606679Y-111336953D02*
X142898333Y-111147153D01*
X143100718Y-111201381D02*
X143013082Y-111123671D01*
X143013082Y-111123671D02*
X142976044Y-111059518D01*
X142976044Y-111059518D02*
X142952562Y-110944768D01*
X142952562Y-110944768D02*
X142979676Y-110843576D01*
D10*
X180990476Y-110332390D02*
X180914286Y-110294295D01*
X180914286Y-110294295D02*
X180800000Y-110294295D01*
X180800000Y-110294295D02*
X180685714Y-110332390D01*
X180685714Y-110332390D02*
X180609524Y-110408580D01*
X180609524Y-110408580D02*
X180571429Y-110484771D01*
X180571429Y-110484771D02*
X180533333Y-110637152D01*
X180533333Y-110637152D02*
X180533333Y-110751438D01*
X180533333Y-110751438D02*
X180571429Y-110903819D01*
X180571429Y-110903819D02*
X180609524Y-110980009D01*
X180609524Y-110980009D02*
X180685714Y-111056200D01*
X180685714Y-111056200D02*
X180800000Y-111094295D01*
X180800000Y-111094295D02*
X180876191Y-111094295D01*
X180876191Y-111094295D02*
X180990476Y-111056200D01*
X180990476Y-111056200D02*
X181028572Y-111018104D01*
X181028572Y-111018104D02*
X181028572Y-110751438D01*
X181028572Y-110751438D02*
X180876191Y-110751438D01*
X181371429Y-111094295D02*
X181371429Y-110294295D01*
X181371429Y-110294295D02*
X181828572Y-111094295D01*
X181828572Y-111094295D02*
X181828572Y-110294295D01*
X182209524Y-111094295D02*
X182209524Y-110294295D01*
X182209524Y-110294295D02*
X182400000Y-110294295D01*
X182400000Y-110294295D02*
X182514286Y-110332390D01*
X182514286Y-110332390D02*
X182590476Y-110408580D01*
X182590476Y-110408580D02*
X182628571Y-110484771D01*
X182628571Y-110484771D02*
X182666667Y-110637152D01*
X182666667Y-110637152D02*
X182666667Y-110751438D01*
X182666667Y-110751438D02*
X182628571Y-110903819D01*
X182628571Y-110903819D02*
X182590476Y-110980009D01*
X182590476Y-110980009D02*
X182514286Y-111056200D01*
X182514286Y-111056200D02*
X182400000Y-111094295D01*
X182400000Y-111094295D02*
X182209524Y-111094295D01*
G36*
X176394465Y-95258184D02*
G01*
X174087175Y-95258184D01*
X174087175Y-94446676D01*
X174176064Y-94446676D01*
X174176064Y-94522866D01*
X174177505Y-94537498D01*
X174178535Y-94539986D01*
X174178727Y-94542676D01*
X174183982Y-94556407D01*
X174222078Y-94632598D01*
X174226041Y-94638894D01*
X174226800Y-94640725D01*
X174228491Y-94642786D01*
X174229911Y-94645041D01*
X174231406Y-94646337D01*
X174236127Y-94652090D01*
X174274222Y-94690185D01*
X174279971Y-94694903D01*
X174281271Y-94696402D01*
X174283530Y-94697823D01*
X174285587Y-94699512D01*
X174287414Y-94700269D01*
X174293714Y-94704234D01*
X174369904Y-94742329D01*
X174370973Y-94742738D01*
X174371409Y-94743061D01*
X174377554Y-94745256D01*
X174383636Y-94747584D01*
X174384175Y-94747622D01*
X174385255Y-94748008D01*
X174529649Y-94784106D01*
X174587590Y-94813077D01*
X174608473Y-94833960D01*
X174633207Y-94883428D01*
X174633207Y-94924209D01*
X174608472Y-94973677D01*
X174587589Y-94994561D01*
X174538121Y-95019295D01*
X174377520Y-95019295D01*
X174274781Y-94985049D01*
X174260444Y-94981789D01*
X174231254Y-94983864D01*
X174205081Y-94996950D01*
X174185907Y-95019058D01*
X174176653Y-95046820D01*
X174178728Y-95076010D01*
X174191814Y-95102183D01*
X174213922Y-95121357D01*
X174227347Y-95127351D01*
X174341633Y-95165446D01*
X174348886Y-95167095D01*
X174350718Y-95167854D01*
X174353372Y-95168115D01*
X174355970Y-95168706D01*
X174357944Y-95168565D01*
X174365350Y-95169295D01*
X174555826Y-95169295D01*
X174570458Y-95167854D01*
X174572947Y-95166822D01*
X174575635Y-95166632D01*
X174589367Y-95161377D01*
X174665558Y-95123282D01*
X174671857Y-95119317D01*
X174673685Y-95118560D01*
X174675741Y-95116872D01*
X174678001Y-95115450D01*
X174679301Y-95113950D01*
X174685051Y-95109232D01*
X174723146Y-95071136D01*
X174727863Y-95065387D01*
X174729362Y-95064088D01*
X174730783Y-95061829D01*
X174732473Y-95059771D01*
X174733230Y-95057941D01*
X174737194Y-95051645D01*
X174775289Y-94975455D01*
X174780544Y-94961723D01*
X174780734Y-94959035D01*
X174781766Y-94956546D01*
X174783207Y-94941914D01*
X174783207Y-94865723D01*
X174781766Y-94851091D01*
X174780734Y-94848601D01*
X174780544Y-94845914D01*
X174775289Y-94832182D01*
X174737194Y-94755992D01*
X174733229Y-94749692D01*
X174732472Y-94747865D01*
X174730783Y-94745808D01*
X174729362Y-94743549D01*
X174727863Y-94742249D01*
X174723145Y-94736500D01*
X174685050Y-94698405D01*
X174679297Y-94693684D01*
X174678001Y-94692189D01*
X174675746Y-94690769D01*
X174673685Y-94689078D01*
X174671854Y-94688319D01*
X174665558Y-94684356D01*
X174589367Y-94646260D01*
X174588297Y-94645850D01*
X174587862Y-94645528D01*
X174581725Y-94643335D01*
X174575636Y-94641005D01*
X174575095Y-94640966D01*
X174574016Y-94640581D01*
X174560300Y-94637152D01*
X174937969Y-94637152D01*
X174937969Y-94751438D01*
X174938220Y-94753991D01*
X174938058Y-94755084D01*
X174938867Y-94760558D01*
X174939410Y-94766070D01*
X174939832Y-94767090D01*
X174940208Y-94769629D01*
X174978304Y-94922010D01*
X174978689Y-94923089D01*
X174978728Y-94923628D01*
X174981052Y-94929703D01*
X174983251Y-94935855D01*
X174983573Y-94936290D01*
X174983983Y-94937360D01*
X175022078Y-95013550D01*
X175026041Y-95019846D01*
X175026799Y-95021676D01*
X175028488Y-95023734D01*
X175029910Y-95025993D01*
X175031408Y-95027292D01*
X175036127Y-95033042D01*
X175112317Y-95109233D01*
X175123682Y-95118560D01*
X175126172Y-95119591D01*
X175128208Y-95121357D01*
X175141633Y-95127351D01*
X175255919Y-95165446D01*
X175263172Y-95167095D01*
X175265004Y-95167854D01*
X175267658Y-95168115D01*
X175270256Y-95168706D01*
X175272230Y-95168565D01*
X175279636Y-95169295D01*
X175355827Y-95169295D01*
X175363232Y-95168565D01*
X175365207Y-95168706D01*
X175367804Y-95168115D01*
X175370459Y-95167854D01*
X175372290Y-95167095D01*
X175379544Y-95165446D01*
X175493829Y-95127351D01*
X175507255Y-95121357D01*
X175509291Y-95119590D01*
X175511780Y-95118560D01*
X175523145Y-95109233D01*
X175561241Y-95071137D01*
X175570569Y-95059772D01*
X175581767Y-95032735D01*
X175581767Y-95003472D01*
X175570569Y-94976436D01*
X175549876Y-94955743D01*
X175522840Y-94944545D01*
X175493577Y-94944545D01*
X175466540Y-94955743D01*
X175455175Y-94965071D01*
X175429598Y-94990648D01*
X175343657Y-95019295D01*
X175291806Y-95019295D01*
X175205864Y-94990648D01*
X175150799Y-94935582D01*
X175121829Y-94877642D01*
X175087969Y-94742202D01*
X175087969Y-94646387D01*
X175121829Y-94510946D01*
X175150799Y-94453006D01*
X175205863Y-94397942D01*
X175291806Y-94369295D01*
X175343657Y-94369295D01*
X175429598Y-94397942D01*
X175455176Y-94423519D01*
X175466541Y-94432846D01*
X175493577Y-94444044D01*
X175522840Y-94444044D01*
X175549876Y-94432845D01*
X175570569Y-94412152D01*
X175581767Y-94385115D01*
X175581767Y-94355852D01*
X175570568Y-94328816D01*
X175561240Y-94317451D01*
X175538083Y-94294295D01*
X175776065Y-94294295D01*
X175776065Y-95094295D01*
X175777506Y-95108927D01*
X175788705Y-95135963D01*
X175809397Y-95156655D01*
X175836433Y-95167854D01*
X175851065Y-95169295D01*
X176232017Y-95169295D01*
X176246649Y-95167854D01*
X176273685Y-95156655D01*
X176294377Y-95135963D01*
X176305576Y-95108927D01*
X176305576Y-95079663D01*
X176294377Y-95052627D01*
X176273685Y-95031935D01*
X176246649Y-95020736D01*
X176232017Y-95019295D01*
X175926065Y-95019295D01*
X175926065Y-94294295D01*
X175924624Y-94279663D01*
X175913425Y-94252627D01*
X175892733Y-94231935D01*
X175865697Y-94220736D01*
X175836433Y-94220736D01*
X175809397Y-94231935D01*
X175788705Y-94252627D01*
X175777506Y-94279663D01*
X175776065Y-94294295D01*
X175538083Y-94294295D01*
X175523144Y-94279356D01*
X175511779Y-94270029D01*
X175509290Y-94268998D01*
X175507255Y-94267233D01*
X175493829Y-94261239D01*
X175379544Y-94223144D01*
X175372290Y-94221494D01*
X175370459Y-94220736D01*
X175367804Y-94220474D01*
X175365207Y-94219884D01*
X175363232Y-94220024D01*
X175355827Y-94219295D01*
X175279636Y-94219295D01*
X175272230Y-94220024D01*
X175270256Y-94219884D01*
X175267658Y-94220474D01*
X175265004Y-94220736D01*
X175263172Y-94221494D01*
X175255919Y-94223144D01*
X175141633Y-94261239D01*
X175128208Y-94267233D01*
X175126174Y-94268996D01*
X175123682Y-94270029D01*
X175112317Y-94279357D01*
X175036127Y-94355547D01*
X175031408Y-94361296D01*
X175029910Y-94362596D01*
X175028488Y-94364855D01*
X175026800Y-94366912D01*
X175026042Y-94368739D01*
X175022078Y-94375039D01*
X174983983Y-94451230D01*
X174983573Y-94452299D01*
X174983251Y-94452735D01*
X174981052Y-94458886D01*
X174978728Y-94464962D01*
X174978689Y-94465500D01*
X174978304Y-94466580D01*
X174940208Y-94618961D01*
X174939832Y-94621499D01*
X174939410Y-94622520D01*
X174938867Y-94628031D01*
X174938058Y-94633506D01*
X174938220Y-94634598D01*
X174937969Y-94637152D01*
X174560300Y-94637152D01*
X174429620Y-94604482D01*
X174371682Y-94575513D01*
X174350799Y-94554630D01*
X174326064Y-94505160D01*
X174326064Y-94464381D01*
X174350799Y-94414911D01*
X174371682Y-94394029D01*
X174421150Y-94369295D01*
X174581752Y-94369295D01*
X174684490Y-94403541D01*
X174698827Y-94406801D01*
X174728017Y-94404726D01*
X174754190Y-94391640D01*
X174773364Y-94369533D01*
X174782618Y-94341770D01*
X174780543Y-94312580D01*
X174767457Y-94286407D01*
X174745350Y-94267233D01*
X174731924Y-94261239D01*
X174617639Y-94223144D01*
X174610385Y-94221494D01*
X174608554Y-94220736D01*
X174605899Y-94220474D01*
X174603302Y-94219884D01*
X174601327Y-94220024D01*
X174593922Y-94219295D01*
X174403445Y-94219295D01*
X174388813Y-94220736D01*
X174386323Y-94221767D01*
X174383636Y-94221958D01*
X174369904Y-94227213D01*
X174293714Y-94265308D01*
X174287414Y-94269272D01*
X174285587Y-94270030D01*
X174283530Y-94271718D01*
X174281271Y-94273140D01*
X174279971Y-94274638D01*
X174274222Y-94279357D01*
X174236127Y-94317452D01*
X174231406Y-94323204D01*
X174229911Y-94324501D01*
X174228491Y-94326755D01*
X174226800Y-94328817D01*
X174226041Y-94330647D01*
X174222078Y-94336944D01*
X174183982Y-94413135D01*
X174178727Y-94426866D01*
X174178535Y-94429555D01*
X174177505Y-94432044D01*
X174176064Y-94446676D01*
X174087175Y-94446676D01*
X174087175Y-94130406D01*
X176394465Y-94130406D01*
X176394465Y-95258184D01*
G37*
G36*
X182253408Y-94397942D02*
G01*
X182308472Y-94453006D01*
X182337442Y-94510945D01*
X182371303Y-94646387D01*
X182371303Y-94742202D01*
X182337442Y-94877643D01*
X182308472Y-94935582D01*
X182253407Y-94990648D01*
X182167466Y-95019295D01*
X182064160Y-95019295D01*
X182064160Y-94369295D01*
X182167466Y-94369295D01*
X182253408Y-94397942D01*
G37*
G36*
X183027960Y-94790723D02*
G01*
X182855121Y-94790723D01*
X182941540Y-94531465D01*
X183027960Y-94790723D01*
G37*
G36*
X184323198Y-94790723D02*
G01*
X184150359Y-94790723D01*
X184236778Y-94531465D01*
X184323198Y-94790723D01*
G37*
G36*
X184666745Y-95258184D02*
G01*
X181825271Y-95258184D01*
X181825271Y-94294295D01*
X181914160Y-94294295D01*
X181914160Y-95094295D01*
X181915601Y-95108927D01*
X181926800Y-95135963D01*
X181947492Y-95156655D01*
X181974528Y-95167854D01*
X181989160Y-95169295D01*
X182179636Y-95169295D01*
X182187041Y-95168565D01*
X182189016Y-95168706D01*
X182191613Y-95168115D01*
X182194268Y-95167854D01*
X182196099Y-95167095D01*
X182203353Y-95165446D01*
X182317639Y-95127351D01*
X182331064Y-95121357D01*
X182333099Y-95119591D01*
X182335590Y-95118560D01*
X182346955Y-95109233D01*
X182371273Y-95084915D01*
X182600463Y-95084915D01*
X182602538Y-95114105D01*
X182615624Y-95140278D01*
X182637731Y-95159452D01*
X182665494Y-95168706D01*
X182694684Y-95166631D01*
X182720857Y-95153545D01*
X182740031Y-95131438D01*
X182746025Y-95118012D01*
X182805121Y-94940723D01*
X183077960Y-94940723D01*
X183137056Y-95118012D01*
X183143050Y-95131438D01*
X183162224Y-95153545D01*
X183188397Y-95166632D01*
X183217587Y-95168706D01*
X183245350Y-95159452D01*
X183267457Y-95140279D01*
X183280544Y-95114105D01*
X183282618Y-95084915D01*
X183279358Y-95070578D01*
X183015720Y-94279663D01*
X183287029Y-94279663D01*
X183287029Y-94308927D01*
X183298228Y-94335963D01*
X183318920Y-94356655D01*
X183345956Y-94367854D01*
X183360588Y-94369295D01*
X183514159Y-94369295D01*
X183514159Y-95094295D01*
X183515600Y-95108927D01*
X183526799Y-95135963D01*
X183547491Y-95156655D01*
X183574527Y-95167854D01*
X183603791Y-95167854D01*
X183630827Y-95156655D01*
X183651519Y-95135963D01*
X183662718Y-95108927D01*
X183664159Y-95094295D01*
X183664159Y-95084915D01*
X183895701Y-95084915D01*
X183897776Y-95114105D01*
X183910862Y-95140278D01*
X183932969Y-95159452D01*
X183960732Y-95168706D01*
X183989922Y-95166631D01*
X184016095Y-95153545D01*
X184035269Y-95131438D01*
X184041263Y-95118012D01*
X184100359Y-94940723D01*
X184373198Y-94940723D01*
X184432294Y-95118012D01*
X184438288Y-95131438D01*
X184457462Y-95153545D01*
X184483635Y-95166632D01*
X184512825Y-95168706D01*
X184540588Y-95159452D01*
X184562695Y-95140279D01*
X184575782Y-95114105D01*
X184577856Y-95084915D01*
X184574596Y-95070578D01*
X184307930Y-94270578D01*
X184301936Y-94257153D01*
X184298425Y-94253105D01*
X184296029Y-94248312D01*
X184288923Y-94242148D01*
X184282762Y-94235045D01*
X184277970Y-94232649D01*
X184273922Y-94229138D01*
X184264998Y-94226163D01*
X184256589Y-94221959D01*
X184251244Y-94221579D01*
X184246159Y-94219884D01*
X184236779Y-94220550D01*
X184227399Y-94219884D01*
X184222313Y-94221579D01*
X184216969Y-94221959D01*
X184208558Y-94226164D01*
X184199637Y-94229138D01*
X184195589Y-94232648D01*
X184190796Y-94235045D01*
X184184633Y-94242149D01*
X184177529Y-94248312D01*
X184175132Y-94253105D01*
X184171622Y-94257153D01*
X184165628Y-94270578D01*
X183898961Y-95070578D01*
X183895701Y-95084915D01*
X183664159Y-95084915D01*
X183664159Y-94369295D01*
X183817731Y-94369295D01*
X183832363Y-94367854D01*
X183859399Y-94356655D01*
X183880091Y-94335963D01*
X183891290Y-94308927D01*
X183891290Y-94279663D01*
X183880091Y-94252627D01*
X183859399Y-94231935D01*
X183832363Y-94220736D01*
X183817731Y-94219295D01*
X183360588Y-94219295D01*
X183345956Y-94220736D01*
X183318920Y-94231935D01*
X183298228Y-94252627D01*
X183287029Y-94279663D01*
X183015720Y-94279663D01*
X183012692Y-94270578D01*
X183006698Y-94257153D01*
X183003187Y-94253105D01*
X183000791Y-94248312D01*
X182993685Y-94242148D01*
X182987524Y-94235045D01*
X182982732Y-94232649D01*
X182978684Y-94229138D01*
X182969760Y-94226163D01*
X182961351Y-94221959D01*
X182956006Y-94221579D01*
X182950921Y-94219884D01*
X182941541Y-94220550D01*
X182932161Y-94219884D01*
X182927075Y-94221579D01*
X182921731Y-94221959D01*
X182913320Y-94226164D01*
X182904399Y-94229138D01*
X182900351Y-94232648D01*
X182895558Y-94235045D01*
X182889395Y-94242149D01*
X182882291Y-94248312D01*
X182879894Y-94253105D01*
X182876384Y-94257153D01*
X182870390Y-94270578D01*
X182603723Y-95070578D01*
X182600463Y-95084915D01*
X182371273Y-95084915D01*
X182423146Y-95033041D01*
X182427863Y-95027292D01*
X182429362Y-95025993D01*
X182430783Y-95023734D01*
X182432473Y-95021676D01*
X182433230Y-95019846D01*
X182437194Y-95013550D01*
X182475289Y-94937360D01*
X182475698Y-94936290D01*
X182476021Y-94935855D01*
X182478219Y-94929703D01*
X182480544Y-94923628D01*
X182480582Y-94923089D01*
X182480968Y-94922010D01*
X182519064Y-94769628D01*
X182519439Y-94767091D01*
X182519862Y-94766070D01*
X182520404Y-94760557D01*
X182521214Y-94755084D01*
X182521051Y-94753991D01*
X182521303Y-94751438D01*
X182521303Y-94637152D01*
X182521051Y-94634598D01*
X182521214Y-94633506D01*
X182520404Y-94628032D01*
X182519862Y-94622520D01*
X182519439Y-94621498D01*
X182519064Y-94618962D01*
X182480968Y-94466580D01*
X182480582Y-94465500D01*
X182480544Y-94464962D01*
X182478219Y-94458886D01*
X182476021Y-94452735D01*
X182475698Y-94452299D01*
X182475289Y-94451230D01*
X182437194Y-94375039D01*
X182433231Y-94368744D01*
X182432473Y-94366912D01*
X182430781Y-94364850D01*
X182429362Y-94362596D01*
X182427865Y-94361297D01*
X182423145Y-94355547D01*
X182346955Y-94279357D01*
X182335590Y-94270030D01*
X182333099Y-94268998D01*
X182331064Y-94267233D01*
X182317639Y-94261239D01*
X182203353Y-94223144D01*
X182196099Y-94221494D01*
X182194268Y-94220736D01*
X182191613Y-94220474D01*
X182189016Y-94219884D01*
X182187041Y-94220024D01*
X182179636Y-94219295D01*
X181989160Y-94219295D01*
X181974528Y-94220736D01*
X181947492Y-94231935D01*
X181926800Y-94252627D01*
X181915601Y-94279663D01*
X181914160Y-94294295D01*
X181825271Y-94294295D01*
X181825271Y-94130406D01*
X184666745Y-94130406D01*
X184666745Y-95258184D01*
G37*
X171880952Y-54854819D02*
X172071428Y-54854819D01*
X172071428Y-54854819D02*
X172166666Y-54902438D01*
X172166666Y-54902438D02*
X172261904Y-54997676D01*
X172261904Y-54997676D02*
X172309523Y-55188152D01*
X172309523Y-55188152D02*
X172309523Y-55521485D01*
X172309523Y-55521485D02*
X172261904Y-55711961D01*
X172261904Y-55711961D02*
X172166666Y-55807200D01*
X172166666Y-55807200D02*
X172071428Y-55854819D01*
X172071428Y-55854819D02*
X171880952Y-55854819D01*
X171880952Y-55854819D02*
X171785714Y-55807200D01*
X171785714Y-55807200D02*
X171690476Y-55711961D01*
X171690476Y-55711961D02*
X171642857Y-55521485D01*
X171642857Y-55521485D02*
X171642857Y-55188152D01*
X171642857Y-55188152D02*
X171690476Y-54997676D01*
X171690476Y-54997676D02*
X171785714Y-54902438D01*
X171785714Y-54902438D02*
X171880952Y-54854819D01*
X172738095Y-55854819D02*
X172738095Y-54854819D01*
X172738095Y-54854819D02*
X173309523Y-55854819D01*
X173309523Y-55854819D02*
X173309523Y-54854819D01*
D13*
X168909523Y-89542727D02*
X169023809Y-89580822D01*
X169023809Y-89580822D02*
X169061904Y-89618918D01*
X169061904Y-89618918D02*
X169100000Y-89695108D01*
X169100000Y-89695108D02*
X169100000Y-89809394D01*
X169100000Y-89809394D02*
X169061904Y-89885584D01*
X169061904Y-89885584D02*
X169023809Y-89923680D01*
X169023809Y-89923680D02*
X168947619Y-89961775D01*
X168947619Y-89961775D02*
X168642857Y-89961775D01*
X168642857Y-89961775D02*
X168642857Y-89161775D01*
X168642857Y-89161775D02*
X168909523Y-89161775D01*
X168909523Y-89161775D02*
X168985714Y-89199870D01*
X168985714Y-89199870D02*
X169023809Y-89237965D01*
X169023809Y-89237965D02*
X169061904Y-89314156D01*
X169061904Y-89314156D02*
X169061904Y-89390346D01*
X169061904Y-89390346D02*
X169023809Y-89466537D01*
X169023809Y-89466537D02*
X168985714Y-89504632D01*
X168985714Y-89504632D02*
X168909523Y-89542727D01*
X168909523Y-89542727D02*
X168642857Y-89542727D01*
X169404761Y-89733203D02*
X169785714Y-89733203D01*
X169328571Y-89961775D02*
X169595238Y-89161775D01*
X169595238Y-89161775D02*
X169861904Y-89961775D01*
X170014285Y-89161775D02*
X170471428Y-89161775D01*
X170242856Y-89961775D02*
X170242856Y-89161775D01*
D10*
X183500000Y-111094295D02*
X183500000Y-110294295D01*
X183500000Y-110294295D02*
X183690476Y-110294295D01*
X183690476Y-110294295D02*
X183804762Y-110332390D01*
X183804762Y-110332390D02*
X183880952Y-110408580D01*
X183880952Y-110408580D02*
X183919047Y-110484771D01*
X183919047Y-110484771D02*
X183957143Y-110637152D01*
X183957143Y-110637152D02*
X183957143Y-110751438D01*
X183957143Y-110751438D02*
X183919047Y-110903819D01*
X183919047Y-110903819D02*
X183880952Y-110980009D01*
X183880952Y-110980009D02*
X183804762Y-111056200D01*
X183804762Y-111056200D02*
X183690476Y-111094295D01*
X183690476Y-111094295D02*
X183500000Y-111094295D01*
X184261904Y-110865723D02*
X184642857Y-110865723D01*
X184185714Y-111094295D02*
X184452381Y-110294295D01*
X184452381Y-110294295D02*
X184719047Y-111094295D01*
X184871428Y-110294295D02*
X185328571Y-110294295D01*
X185099999Y-111094295D02*
X185099999Y-110294295D01*
X185557142Y-110865723D02*
X185938095Y-110865723D01*
X185480952Y-111094295D02*
X185747619Y-110294295D01*
X185747619Y-110294295D02*
X186014285Y-111094295D01*
G36*
X178994465Y-95258184D02*
G01*
X176611574Y-95258184D01*
X176611574Y-94303675D01*
X176700463Y-94303675D01*
X176703723Y-94318012D01*
X176970390Y-95118012D01*
X176976384Y-95131437D01*
X176979894Y-95135484D01*
X176982291Y-95140278D01*
X176989395Y-95146440D01*
X176995558Y-95153545D01*
X177000351Y-95155941D01*
X177004399Y-95159452D01*
X177013320Y-95162425D01*
X177021731Y-95166631D01*
X177027075Y-95167010D01*
X177032161Y-95168706D01*
X177041541Y-95168039D01*
X177050921Y-95168706D01*
X177056006Y-95167010D01*
X177061351Y-95166631D01*
X177069760Y-95162426D01*
X177078684Y-95159452D01*
X177082732Y-95155940D01*
X177087524Y-95153545D01*
X177093685Y-95146441D01*
X177100791Y-95140278D01*
X177103187Y-95135484D01*
X177106698Y-95131437D01*
X177112692Y-95118012D01*
X177272978Y-94637152D01*
X177461778Y-94637152D01*
X177461778Y-94751438D01*
X177462029Y-94753991D01*
X177461867Y-94755084D01*
X177462676Y-94760558D01*
X177463219Y-94766070D01*
X177463641Y-94767090D01*
X177464017Y-94769629D01*
X177502113Y-94922010D01*
X177502498Y-94923089D01*
X177502537Y-94923628D01*
X177504861Y-94929703D01*
X177507060Y-94935855D01*
X177507382Y-94936290D01*
X177507792Y-94937360D01*
X177545887Y-95013550D01*
X177549850Y-95019846D01*
X177550608Y-95021676D01*
X177552297Y-95023734D01*
X177553719Y-95025993D01*
X177555217Y-95027292D01*
X177559936Y-95033042D01*
X177636126Y-95109233D01*
X177647491Y-95118560D01*
X177649981Y-95119591D01*
X177652017Y-95121357D01*
X177665442Y-95127351D01*
X177779728Y-95165446D01*
X177786981Y-95167095D01*
X177788813Y-95167854D01*
X177791467Y-95168115D01*
X177794065Y-95168706D01*
X177796039Y-95168565D01*
X177803445Y-95169295D01*
X177879636Y-95169295D01*
X177887041Y-95168565D01*
X177889016Y-95168706D01*
X177891613Y-95168115D01*
X177894268Y-95167854D01*
X177896099Y-95167095D01*
X177903353Y-95165446D01*
X178017638Y-95127351D01*
X178031064Y-95121357D01*
X178033100Y-95119590D01*
X178035589Y-95118560D01*
X178046954Y-95109233D01*
X178085050Y-95071137D01*
X178094378Y-95059772D01*
X178105576Y-95032735D01*
X178105576Y-95003472D01*
X178094378Y-94976436D01*
X178073685Y-94955743D01*
X178046649Y-94944545D01*
X178017386Y-94944545D01*
X177990349Y-94955743D01*
X177978984Y-94965071D01*
X177953407Y-94990648D01*
X177867466Y-95019295D01*
X177815615Y-95019295D01*
X177729673Y-94990648D01*
X177674608Y-94935582D01*
X177645638Y-94877642D01*
X177611778Y-94742202D01*
X177611778Y-94646387D01*
X177614087Y-94637152D01*
X178261778Y-94637152D01*
X178261778Y-94751438D01*
X178262029Y-94753991D01*
X178261867Y-94755084D01*
X178262676Y-94760558D01*
X178263219Y-94766070D01*
X178263641Y-94767090D01*
X178264017Y-94769629D01*
X178302113Y-94922010D01*
X178302498Y-94923089D01*
X178302537Y-94923628D01*
X178304861Y-94929703D01*
X178307060Y-94935855D01*
X178307382Y-94936290D01*
X178307792Y-94937360D01*
X178345887Y-95013550D01*
X178349850Y-95019846D01*
X178350608Y-95021676D01*
X178352297Y-95023734D01*
X178353719Y-95025993D01*
X178355217Y-95027292D01*
X178359936Y-95033042D01*
X178436126Y-95109233D01*
X178447491Y-95118560D01*
X178449981Y-95119591D01*
X178452017Y-95121357D01*
X178465442Y-95127351D01*
X178579728Y-95165446D01*
X178586981Y-95167095D01*
X178588813Y-95167854D01*
X178591467Y-95168115D01*
X178594065Y-95168706D01*
X178596039Y-95168565D01*
X178603445Y-95169295D01*
X178679636Y-95169295D01*
X178687041Y-95168565D01*
X178689016Y-95168706D01*
X178691613Y-95168115D01*
X178694268Y-95167854D01*
X178696099Y-95167095D01*
X178703353Y-95165446D01*
X178817638Y-95127351D01*
X178831064Y-95121357D01*
X178833100Y-95119590D01*
X178835589Y-95118560D01*
X178846954Y-95109233D01*
X178885050Y-95071137D01*
X178894378Y-95059772D01*
X178905576Y-95032735D01*
X178905576Y-95003472D01*
X178894378Y-94976436D01*
X178873685Y-94955743D01*
X178846649Y-94944545D01*
X178817386Y-94944545D01*
X178790349Y-94955743D01*
X178778984Y-94965071D01*
X178753407Y-94990648D01*
X178667466Y-95019295D01*
X178615615Y-95019295D01*
X178529673Y-94990648D01*
X178474608Y-94935582D01*
X178445638Y-94877642D01*
X178411778Y-94742202D01*
X178411778Y-94646387D01*
X178445638Y-94510946D01*
X178474608Y-94453006D01*
X178529672Y-94397942D01*
X178615615Y-94369295D01*
X178667466Y-94369295D01*
X178753407Y-94397942D01*
X178778985Y-94423519D01*
X178790350Y-94432846D01*
X178817386Y-94444044D01*
X178846649Y-94444044D01*
X178873685Y-94432845D01*
X178894378Y-94412152D01*
X178905576Y-94385115D01*
X178905576Y-94355852D01*
X178894377Y-94328816D01*
X178885049Y-94317451D01*
X178846953Y-94279356D01*
X178835588Y-94270029D01*
X178833099Y-94268998D01*
X178831064Y-94267233D01*
X178817638Y-94261239D01*
X178703353Y-94223144D01*
X178696099Y-94221494D01*
X178694268Y-94220736D01*
X178691613Y-94220474D01*
X178689016Y-94219884D01*
X178687041Y-94220024D01*
X178679636Y-94219295D01*
X178603445Y-94219295D01*
X178596039Y-94220024D01*
X178594065Y-94219884D01*
X178591467Y-94220474D01*
X178588813Y-94220736D01*
X178586981Y-94221494D01*
X178579728Y-94223144D01*
X178465442Y-94261239D01*
X178452017Y-94267233D01*
X178449983Y-94268996D01*
X178447491Y-94270029D01*
X178436126Y-94279357D01*
X178359936Y-94355547D01*
X178355217Y-94361296D01*
X178353719Y-94362596D01*
X178352297Y-94364855D01*
X178350609Y-94366912D01*
X178349851Y-94368739D01*
X178345887Y-94375039D01*
X178307792Y-94451230D01*
X178307382Y-94452299D01*
X178307060Y-94452735D01*
X178304861Y-94458886D01*
X178302537Y-94464962D01*
X178302498Y-94465500D01*
X178302113Y-94466580D01*
X178264017Y-94618961D01*
X178263641Y-94621499D01*
X178263219Y-94622520D01*
X178262676Y-94628031D01*
X178261867Y-94633506D01*
X178262029Y-94634598D01*
X178261778Y-94637152D01*
X177614087Y-94637152D01*
X177645638Y-94510946D01*
X177674608Y-94453006D01*
X177729672Y-94397942D01*
X177815615Y-94369295D01*
X177867466Y-94369295D01*
X177953407Y-94397942D01*
X177978985Y-94423519D01*
X177990350Y-94432846D01*
X178017386Y-94444044D01*
X178046649Y-94444044D01*
X178073685Y-94432845D01*
X178094378Y-94412152D01*
X178105576Y-94385115D01*
X178105576Y-94355852D01*
X178094377Y-94328816D01*
X178085049Y-94317451D01*
X178046953Y-94279356D01*
X178035588Y-94270029D01*
X178033099Y-94268998D01*
X178031064Y-94267233D01*
X178017638Y-94261239D01*
X177903353Y-94223144D01*
X177896099Y-94221494D01*
X177894268Y-94220736D01*
X177891613Y-94220474D01*
X177889016Y-94219884D01*
X177887041Y-94220024D01*
X177879636Y-94219295D01*
X177803445Y-94219295D01*
X177796039Y-94220024D01*
X177794065Y-94219884D01*
X177791467Y-94220474D01*
X177788813Y-94220736D01*
X177786981Y-94221494D01*
X177779728Y-94223144D01*
X177665442Y-94261239D01*
X177652017Y-94267233D01*
X177649983Y-94268996D01*
X177647491Y-94270029D01*
X177636126Y-94279357D01*
X177559936Y-94355547D01*
X177555217Y-94361296D01*
X177553719Y-94362596D01*
X177552297Y-94364855D01*
X177550609Y-94366912D01*
X177549851Y-94368739D01*
X177545887Y-94375039D01*
X177507792Y-94451230D01*
X177507382Y-94452299D01*
X177507060Y-94452735D01*
X177504861Y-94458886D01*
X177502537Y-94464962D01*
X177502498Y-94465500D01*
X177502113Y-94466580D01*
X177464017Y-94618961D01*
X177463641Y-94621499D01*
X177463219Y-94622520D01*
X177462676Y-94628031D01*
X177461867Y-94633506D01*
X177462029Y-94634598D01*
X177461778Y-94637152D01*
X177272978Y-94637152D01*
X177379358Y-94318012D01*
X177382618Y-94303675D01*
X177380544Y-94274485D01*
X177367457Y-94248311D01*
X177345350Y-94229138D01*
X177317587Y-94219884D01*
X177288397Y-94221958D01*
X177262224Y-94235045D01*
X177243050Y-94257152D01*
X177237056Y-94270578D01*
X177041540Y-94857124D01*
X176846025Y-94270578D01*
X176840031Y-94257152D01*
X176820857Y-94235045D01*
X176794684Y-94221959D01*
X176765494Y-94219884D01*
X176737731Y-94229138D01*
X176715624Y-94248312D01*
X176702538Y-94274485D01*
X176700463Y-94303675D01*
X176611574Y-94303675D01*
X176611574Y-94130406D01*
X178994465Y-94130406D01*
X178994465Y-95258184D01*
G37*
X172942857Y-111949847D02*
X173514285Y-111949847D01*
X173228571Y-112949847D02*
X173228571Y-111949847D01*
X174038095Y-111949847D02*
X174228571Y-111949847D01*
X174228571Y-111949847D02*
X174323809Y-111997466D01*
X174323809Y-111997466D02*
X174419047Y-112092704D01*
X174419047Y-112092704D02*
X174466666Y-112283180D01*
X174466666Y-112283180D02*
X174466666Y-112616513D01*
X174466666Y-112616513D02*
X174419047Y-112806989D01*
X174419047Y-112806989D02*
X174323809Y-112902228D01*
X174323809Y-112902228D02*
X174228571Y-112949847D01*
X174228571Y-112949847D02*
X174038095Y-112949847D01*
X174038095Y-112949847D02*
X173942857Y-112902228D01*
X173942857Y-112902228D02*
X173847619Y-112806989D01*
X173847619Y-112806989D02*
X173800000Y-112616513D01*
X173800000Y-112616513D02*
X173800000Y-112283180D01*
X173800000Y-112283180D02*
X173847619Y-112092704D01*
X173847619Y-112092704D02*
X173942857Y-111997466D01*
X173942857Y-111997466D02*
X174038095Y-111949847D01*
X174895238Y-112949847D02*
X174895238Y-111949847D01*
X174895238Y-111949847D02*
X175276190Y-111949847D01*
X175276190Y-111949847D02*
X175371428Y-111997466D01*
X175371428Y-111997466D02*
X175419047Y-112045085D01*
X175419047Y-112045085D02*
X175466666Y-112140323D01*
X175466666Y-112140323D02*
X175466666Y-112283180D01*
X175466666Y-112283180D02*
X175419047Y-112378418D01*
X175419047Y-112378418D02*
X175371428Y-112426037D01*
X175371428Y-112426037D02*
X175276190Y-112473656D01*
X175276190Y-112473656D02*
X174895238Y-112473656D01*
X177133333Y-112949847D02*
X176657143Y-112949847D01*
X176657143Y-112949847D02*
X176657143Y-111949847D01*
X177466667Y-112426037D02*
X177800000Y-112426037D01*
X177942857Y-112949847D02*
X177466667Y-112949847D01*
X177466667Y-112949847D02*
X177466667Y-111949847D01*
X177466667Y-111949847D02*
X177942857Y-111949847D01*
X178704762Y-112426037D02*
X178371429Y-112426037D01*
X178371429Y-112949847D02*
X178371429Y-111949847D01*
X178371429Y-111949847D02*
X178847619Y-111949847D01*
X179085715Y-111949847D02*
X179657143Y-111949847D01*
X179371429Y-112949847D02*
X179371429Y-111949847D01*
X174561905Y-114559791D02*
X174561905Y-113559791D01*
X174561905Y-114035981D02*
X175133333Y-114035981D01*
X175133333Y-114559791D02*
X175133333Y-113559791D01*
X175561905Y-114274076D02*
X176038095Y-114274076D01*
X175466667Y-114559791D02*
X175800000Y-113559791D01*
X175800000Y-113559791D02*
X176133333Y-114559791D01*
X176466667Y-114559791D02*
X176466667Y-113559791D01*
X176466667Y-113559791D02*
X177038095Y-114559791D01*
X177038095Y-114559791D02*
X177038095Y-113559791D01*
X177514286Y-114559791D02*
X177514286Y-113559791D01*
X177514286Y-113559791D02*
X177752381Y-113559791D01*
X177752381Y-113559791D02*
X177895238Y-113607410D01*
X177895238Y-113607410D02*
X177990476Y-113702648D01*
X177990476Y-113702648D02*
X178038095Y-113797886D01*
X178038095Y-113797886D02*
X178085714Y-113988362D01*
X178085714Y-113988362D02*
X178085714Y-114131219D01*
X178085714Y-114131219D02*
X178038095Y-114321695D01*
X178038095Y-114321695D02*
X177990476Y-114416933D01*
X177990476Y-114416933D02*
X177895238Y-114512172D01*
X177895238Y-114512172D02*
X177752381Y-114559791D01*
X177752381Y-114559791D02*
X177514286Y-114559791D01*
D14*
X170756379Y-112738095D02*
X170756379Y-112166667D01*
X171756379Y-112452381D02*
X170756379Y-112452381D01*
X171756379Y-111833333D02*
X171089712Y-111833333D01*
X171280188Y-111833333D02*
X171184950Y-111785714D01*
X171184950Y-111785714D02*
X171137331Y-111738095D01*
X171137331Y-111738095D02*
X171089712Y-111642857D01*
X171089712Y-111642857D02*
X171089712Y-111547619D01*
X171756379Y-110785714D02*
X171232569Y-110785714D01*
X171232569Y-110785714D02*
X171137331Y-110833333D01*
X171137331Y-110833333D02*
X171089712Y-110928571D01*
X171089712Y-110928571D02*
X171089712Y-111119047D01*
X171089712Y-111119047D02*
X171137331Y-111214285D01*
X171708760Y-110785714D02*
X171756379Y-110880952D01*
X171756379Y-110880952D02*
X171756379Y-111119047D01*
X171756379Y-111119047D02*
X171708760Y-111214285D01*
X171708760Y-111214285D02*
X171613521Y-111261904D01*
X171613521Y-111261904D02*
X171518283Y-111261904D01*
X171518283Y-111261904D02*
X171423045Y-111214285D01*
X171423045Y-111214285D02*
X171375426Y-111119047D01*
X171375426Y-111119047D02*
X171375426Y-110880952D01*
X171375426Y-110880952D02*
X171327807Y-110785714D01*
X171708760Y-109880952D02*
X171756379Y-109976190D01*
X171756379Y-109976190D02*
X171756379Y-110166666D01*
X171756379Y-110166666D02*
X171708760Y-110261904D01*
X171708760Y-110261904D02*
X171661140Y-110309523D01*
X171661140Y-110309523D02*
X171565902Y-110357142D01*
X171565902Y-110357142D02*
X171280188Y-110357142D01*
X171280188Y-110357142D02*
X171184950Y-110309523D01*
X171184950Y-110309523D02*
X171137331Y-110261904D01*
X171137331Y-110261904D02*
X171089712Y-110166666D01*
X171089712Y-110166666D02*
X171089712Y-109976190D01*
X171089712Y-109976190D02*
X171137331Y-109880952D01*
X171756379Y-109452380D02*
X170756379Y-109452380D01*
X171375426Y-109357142D02*
X171756379Y-109071428D01*
X171089712Y-109071428D02*
X171470664Y-109452380D01*
X171089712Y-108642856D02*
X172089712Y-108642856D01*
X171137331Y-108642856D02*
X171089712Y-108547618D01*
X171089712Y-108547618D02*
X171089712Y-108357142D01*
X171089712Y-108357142D02*
X171137331Y-108261904D01*
X171137331Y-108261904D02*
X171184950Y-108214285D01*
X171184950Y-108214285D02*
X171280188Y-108166666D01*
X171280188Y-108166666D02*
X171565902Y-108166666D01*
X171565902Y-108166666D02*
X171661140Y-108214285D01*
X171661140Y-108214285D02*
X171708760Y-108261904D01*
X171708760Y-108261904D02*
X171756379Y-108357142D01*
X171756379Y-108357142D02*
X171756379Y-108547618D01*
X171756379Y-108547618D02*
X171708760Y-108642856D01*
X171756379Y-107309523D02*
X171232569Y-107309523D01*
X171232569Y-107309523D02*
X171137331Y-107357142D01*
X171137331Y-107357142D02*
X171089712Y-107452380D01*
X171089712Y-107452380D02*
X171089712Y-107642856D01*
X171089712Y-107642856D02*
X171137331Y-107738094D01*
X171708760Y-107309523D02*
X171756379Y-107404761D01*
X171756379Y-107404761D02*
X171756379Y-107642856D01*
X171756379Y-107642856D02*
X171708760Y-107738094D01*
X171708760Y-107738094D02*
X171613521Y-107785713D01*
X171613521Y-107785713D02*
X171518283Y-107785713D01*
X171518283Y-107785713D02*
X171423045Y-107738094D01*
X171423045Y-107738094D02*
X171375426Y-107642856D01*
X171375426Y-107642856D02*
X171375426Y-107404761D01*
X171375426Y-107404761D02*
X171327807Y-107309523D01*
X171756379Y-106404761D02*
X170756379Y-106404761D01*
X171708760Y-106404761D02*
X171756379Y-106499999D01*
X171756379Y-106499999D02*
X171756379Y-106690475D01*
X171756379Y-106690475D02*
X171708760Y-106785713D01*
X171708760Y-106785713D02*
X171661140Y-106833332D01*
X171661140Y-106833332D02*
X171565902Y-106880951D01*
X171565902Y-106880951D02*
X171280188Y-106880951D01*
X171280188Y-106880951D02*
X171184950Y-106833332D01*
X171184950Y-106833332D02*
X171137331Y-106785713D01*
X171137331Y-106785713D02*
X171089712Y-106690475D01*
X171089712Y-106690475D02*
X171089712Y-106499999D01*
X171089712Y-106499999D02*
X171137331Y-106404761D01*
D10*
X180964819Y-107711904D02*
X180964819Y-107140476D01*
X181964819Y-107426190D02*
X180964819Y-107426190D01*
X181964819Y-106235714D02*
X181488628Y-106569047D01*
X181964819Y-106807142D02*
X180964819Y-106807142D01*
X180964819Y-106807142D02*
X180964819Y-106426190D01*
X180964819Y-106426190D02*
X181012438Y-106330952D01*
X181012438Y-106330952D02*
X181060057Y-106283333D01*
X181060057Y-106283333D02*
X181155295Y-106235714D01*
X181155295Y-106235714D02*
X181298152Y-106235714D01*
X181298152Y-106235714D02*
X181393390Y-106283333D01*
X181393390Y-106283333D02*
X181441009Y-106330952D01*
X181441009Y-106330952D02*
X181488628Y-106426190D01*
X181488628Y-106426190D02*
X181488628Y-106807142D01*
X181964819Y-105235714D02*
X181488628Y-105569047D01*
X181964819Y-105807142D02*
X180964819Y-105807142D01*
X180964819Y-105807142D02*
X180964819Y-105426190D01*
X180964819Y-105426190D02*
X181012438Y-105330952D01*
X181012438Y-105330952D02*
X181060057Y-105283333D01*
X181060057Y-105283333D02*
X181155295Y-105235714D01*
X181155295Y-105235714D02*
X181298152Y-105235714D01*
X181298152Y-105235714D02*
X181393390Y-105283333D01*
X181393390Y-105283333D02*
X181441009Y-105330952D01*
X181441009Y-105330952D02*
X181488628Y-105426190D01*
X181488628Y-105426190D02*
X181488628Y-105807142D01*
X181917200Y-104854761D02*
X181964819Y-104711904D01*
X181964819Y-104711904D02*
X181964819Y-104473809D01*
X181964819Y-104473809D02*
X181917200Y-104378571D01*
X181917200Y-104378571D02*
X181869580Y-104330952D01*
X181869580Y-104330952D02*
X181774342Y-104283333D01*
X181774342Y-104283333D02*
X181679104Y-104283333D01*
X181679104Y-104283333D02*
X181583866Y-104330952D01*
X181583866Y-104330952D02*
X181536247Y-104378571D01*
X181536247Y-104378571D02*
X181488628Y-104473809D01*
X181488628Y-104473809D02*
X181441009Y-104664285D01*
X181441009Y-104664285D02*
X181393390Y-104759523D01*
X181393390Y-104759523D02*
X181345771Y-104807142D01*
X181345771Y-104807142D02*
X181250533Y-104854761D01*
X181250533Y-104854761D02*
X181155295Y-104854761D01*
X181155295Y-104854761D02*
X181060057Y-104807142D01*
X181060057Y-104807142D02*
X181012438Y-104759523D01*
X181012438Y-104759523D02*
X180964819Y-104664285D01*
X180964819Y-104664285D02*
X180964819Y-104426190D01*
X180964819Y-104426190D02*
X181012438Y-104283333D01*
D15*
X168520690Y-63084364D02*
X168354024Y-62727221D01*
X168234976Y-63084364D02*
X168234976Y-62334364D01*
X168234976Y-62334364D02*
X168425452Y-62334364D01*
X168425452Y-62334364D02*
X168473071Y-62370078D01*
X168473071Y-62370078D02*
X168496881Y-62405792D01*
X168496881Y-62405792D02*
X168520690Y-62477221D01*
X168520690Y-62477221D02*
X168520690Y-62584364D01*
X168520690Y-62584364D02*
X168496881Y-62655792D01*
X168496881Y-62655792D02*
X168473071Y-62691507D01*
X168473071Y-62691507D02*
X168425452Y-62727221D01*
X168425452Y-62727221D02*
X168234976Y-62727221D01*
X168711167Y-63048650D02*
X168782595Y-63084364D01*
X168782595Y-63084364D02*
X168901643Y-63084364D01*
X168901643Y-63084364D02*
X168949262Y-63048650D01*
X168949262Y-63048650D02*
X168973071Y-63012935D01*
X168973071Y-63012935D02*
X168996881Y-62941507D01*
X168996881Y-62941507D02*
X168996881Y-62870078D01*
X168996881Y-62870078D02*
X168973071Y-62798650D01*
X168973071Y-62798650D02*
X168949262Y-62762935D01*
X168949262Y-62762935D02*
X168901643Y-62727221D01*
X168901643Y-62727221D02*
X168806405Y-62691507D01*
X168806405Y-62691507D02*
X168758786Y-62655792D01*
X168758786Y-62655792D02*
X168734976Y-62620078D01*
X168734976Y-62620078D02*
X168711167Y-62548650D01*
X168711167Y-62548650D02*
X168711167Y-62477221D01*
X168711167Y-62477221D02*
X168734976Y-62405792D01*
X168734976Y-62405792D02*
X168758786Y-62370078D01*
X168758786Y-62370078D02*
X168806405Y-62334364D01*
X168806405Y-62334364D02*
X168925452Y-62334364D01*
X168925452Y-62334364D02*
X168996881Y-62370078D01*
X169139738Y-62334364D02*
X169425452Y-62334364D01*
X169282595Y-63084364D02*
X169282595Y-62334364D01*
X183129047Y-75720864D02*
X182962381Y-75363721D01*
X182843333Y-75720864D02*
X182843333Y-74970864D01*
X182843333Y-74970864D02*
X183033809Y-74970864D01*
X183033809Y-74970864D02*
X183081428Y-75006578D01*
X183081428Y-75006578D02*
X183105238Y-75042292D01*
X183105238Y-75042292D02*
X183129047Y-75113721D01*
X183129047Y-75113721D02*
X183129047Y-75220864D01*
X183129047Y-75220864D02*
X183105238Y-75292292D01*
X183105238Y-75292292D02*
X183081428Y-75328007D01*
X183081428Y-75328007D02*
X183033809Y-75363721D01*
X183033809Y-75363721D02*
X182843333Y-75363721D01*
X183438571Y-74970864D02*
X183533809Y-74970864D01*
X183533809Y-74970864D02*
X183581428Y-75006578D01*
X183581428Y-75006578D02*
X183629047Y-75078007D01*
X183629047Y-75078007D02*
X183652857Y-75220864D01*
X183652857Y-75220864D02*
X183652857Y-75470864D01*
X183652857Y-75470864D02*
X183629047Y-75613721D01*
X183629047Y-75613721D02*
X183581428Y-75685150D01*
X183581428Y-75685150D02*
X183533809Y-75720864D01*
X183533809Y-75720864D02*
X183438571Y-75720864D01*
X183438571Y-75720864D02*
X183390952Y-75685150D01*
X183390952Y-75685150D02*
X183343333Y-75613721D01*
X183343333Y-75613721D02*
X183319524Y-75470864D01*
X183319524Y-75470864D02*
X183319524Y-75220864D01*
X183319524Y-75220864D02*
X183343333Y-75078007D01*
X183343333Y-75078007D02*
X183390952Y-75006578D01*
X183390952Y-75006578D02*
X183438571Y-74970864D01*
X183819524Y-74970864D02*
X183938572Y-75720864D01*
X183938572Y-75720864D02*
X184033810Y-75185150D01*
X184033810Y-75185150D02*
X184129048Y-75720864D01*
X184129048Y-75720864D02*
X184248096Y-74970864D01*
X184700477Y-75720864D02*
X184414763Y-75720864D01*
X184557620Y-75720864D02*
X184557620Y-74970864D01*
X184557620Y-74970864D02*
X184510001Y-75078007D01*
X184510001Y-75078007D02*
X184462382Y-75149435D01*
X184462382Y-75149435D02*
X184414763Y-75185150D01*
X168012380Y-80792935D02*
X167988571Y-80828650D01*
X167988571Y-80828650D02*
X167917142Y-80864364D01*
X167917142Y-80864364D02*
X167869523Y-80864364D01*
X167869523Y-80864364D02*
X167798095Y-80828650D01*
X167798095Y-80828650D02*
X167750476Y-80757221D01*
X167750476Y-80757221D02*
X167726666Y-80685792D01*
X167726666Y-80685792D02*
X167702857Y-80542935D01*
X167702857Y-80542935D02*
X167702857Y-80435792D01*
X167702857Y-80435792D02*
X167726666Y-80292935D01*
X167726666Y-80292935D02*
X167750476Y-80221507D01*
X167750476Y-80221507D02*
X167798095Y-80150078D01*
X167798095Y-80150078D02*
X167869523Y-80114364D01*
X167869523Y-80114364D02*
X167917142Y-80114364D01*
X167917142Y-80114364D02*
X167988571Y-80150078D01*
X167988571Y-80150078D02*
X168012380Y-80185792D01*
X168321904Y-80114364D02*
X168417142Y-80114364D01*
X168417142Y-80114364D02*
X168464761Y-80150078D01*
X168464761Y-80150078D02*
X168512380Y-80221507D01*
X168512380Y-80221507D02*
X168536190Y-80364364D01*
X168536190Y-80364364D02*
X168536190Y-80614364D01*
X168536190Y-80614364D02*
X168512380Y-80757221D01*
X168512380Y-80757221D02*
X168464761Y-80828650D01*
X168464761Y-80828650D02*
X168417142Y-80864364D01*
X168417142Y-80864364D02*
X168321904Y-80864364D01*
X168321904Y-80864364D02*
X168274285Y-80828650D01*
X168274285Y-80828650D02*
X168226666Y-80757221D01*
X168226666Y-80757221D02*
X168202857Y-80614364D01*
X168202857Y-80614364D02*
X168202857Y-80364364D01*
X168202857Y-80364364D02*
X168226666Y-80221507D01*
X168226666Y-80221507D02*
X168274285Y-80150078D01*
X168274285Y-80150078D02*
X168321904Y-80114364D01*
X168988571Y-80864364D02*
X168750476Y-80864364D01*
X168750476Y-80864364D02*
X168750476Y-80114364D01*
X169393333Y-80114364D02*
X169155238Y-80114364D01*
X169155238Y-80114364D02*
X169131429Y-80471507D01*
X169131429Y-80471507D02*
X169155238Y-80435792D01*
X169155238Y-80435792D02*
X169202857Y-80400078D01*
X169202857Y-80400078D02*
X169321905Y-80400078D01*
X169321905Y-80400078D02*
X169369524Y-80435792D01*
X169369524Y-80435792D02*
X169393333Y-80471507D01*
X169393333Y-80471507D02*
X169417143Y-80542935D01*
X169417143Y-80542935D02*
X169417143Y-80721507D01*
X169417143Y-80721507D02*
X169393333Y-80792935D01*
X169393333Y-80792935D02*
X169369524Y-80828650D01*
X169369524Y-80828650D02*
X169321905Y-80864364D01*
X169321905Y-80864364D02*
X169202857Y-80864364D01*
X169202857Y-80864364D02*
X169155238Y-80828650D01*
X169155238Y-80828650D02*
X169131429Y-80792935D01*
X183079047Y-80864364D02*
X182912381Y-80507221D01*
X182793333Y-80864364D02*
X182793333Y-80114364D01*
X182793333Y-80114364D02*
X182983809Y-80114364D01*
X182983809Y-80114364D02*
X183031428Y-80150078D01*
X183031428Y-80150078D02*
X183055238Y-80185792D01*
X183055238Y-80185792D02*
X183079047Y-80257221D01*
X183079047Y-80257221D02*
X183079047Y-80364364D01*
X183079047Y-80364364D02*
X183055238Y-80435792D01*
X183055238Y-80435792D02*
X183031428Y-80471507D01*
X183031428Y-80471507D02*
X182983809Y-80507221D01*
X182983809Y-80507221D02*
X182793333Y-80507221D01*
X183388571Y-80114364D02*
X183483809Y-80114364D01*
X183483809Y-80114364D02*
X183531428Y-80150078D01*
X183531428Y-80150078D02*
X183579047Y-80221507D01*
X183579047Y-80221507D02*
X183602857Y-80364364D01*
X183602857Y-80364364D02*
X183602857Y-80614364D01*
X183602857Y-80614364D02*
X183579047Y-80757221D01*
X183579047Y-80757221D02*
X183531428Y-80828650D01*
X183531428Y-80828650D02*
X183483809Y-80864364D01*
X183483809Y-80864364D02*
X183388571Y-80864364D01*
X183388571Y-80864364D02*
X183340952Y-80828650D01*
X183340952Y-80828650D02*
X183293333Y-80757221D01*
X183293333Y-80757221D02*
X183269524Y-80614364D01*
X183269524Y-80614364D02*
X183269524Y-80364364D01*
X183269524Y-80364364D02*
X183293333Y-80221507D01*
X183293333Y-80221507D02*
X183340952Y-80150078D01*
X183340952Y-80150078D02*
X183388571Y-80114364D01*
X183769524Y-80114364D02*
X183888572Y-80864364D01*
X183888572Y-80864364D02*
X183983810Y-80328650D01*
X183983810Y-80328650D02*
X184079048Y-80864364D01*
X184079048Y-80864364D02*
X184198096Y-80114364D01*
X184340953Y-80114364D02*
X184650477Y-80114364D01*
X184650477Y-80114364D02*
X184483810Y-80400078D01*
X184483810Y-80400078D02*
X184555239Y-80400078D01*
X184555239Y-80400078D02*
X184602858Y-80435792D01*
X184602858Y-80435792D02*
X184626667Y-80471507D01*
X184626667Y-80471507D02*
X184650477Y-80542935D01*
X184650477Y-80542935D02*
X184650477Y-80721507D01*
X184650477Y-80721507D02*
X184626667Y-80792935D01*
X184626667Y-80792935D02*
X184602858Y-80828650D01*
X184602858Y-80828650D02*
X184555239Y-80864364D01*
X184555239Y-80864364D02*
X184412382Y-80864364D01*
X184412382Y-80864364D02*
X184364763Y-80828650D01*
X184364763Y-80828650D02*
X184340953Y-80792935D01*
X168012380Y-78197435D02*
X167988571Y-78233150D01*
X167988571Y-78233150D02*
X167917142Y-78268864D01*
X167917142Y-78268864D02*
X167869523Y-78268864D01*
X167869523Y-78268864D02*
X167798095Y-78233150D01*
X167798095Y-78233150D02*
X167750476Y-78161721D01*
X167750476Y-78161721D02*
X167726666Y-78090292D01*
X167726666Y-78090292D02*
X167702857Y-77947435D01*
X167702857Y-77947435D02*
X167702857Y-77840292D01*
X167702857Y-77840292D02*
X167726666Y-77697435D01*
X167726666Y-77697435D02*
X167750476Y-77626007D01*
X167750476Y-77626007D02*
X167798095Y-77554578D01*
X167798095Y-77554578D02*
X167869523Y-77518864D01*
X167869523Y-77518864D02*
X167917142Y-77518864D01*
X167917142Y-77518864D02*
X167988571Y-77554578D01*
X167988571Y-77554578D02*
X168012380Y-77590292D01*
X168321904Y-77518864D02*
X168417142Y-77518864D01*
X168417142Y-77518864D02*
X168464761Y-77554578D01*
X168464761Y-77554578D02*
X168512380Y-77626007D01*
X168512380Y-77626007D02*
X168536190Y-77768864D01*
X168536190Y-77768864D02*
X168536190Y-78018864D01*
X168536190Y-78018864D02*
X168512380Y-78161721D01*
X168512380Y-78161721D02*
X168464761Y-78233150D01*
X168464761Y-78233150D02*
X168417142Y-78268864D01*
X168417142Y-78268864D02*
X168321904Y-78268864D01*
X168321904Y-78268864D02*
X168274285Y-78233150D01*
X168274285Y-78233150D02*
X168226666Y-78161721D01*
X168226666Y-78161721D02*
X168202857Y-78018864D01*
X168202857Y-78018864D02*
X168202857Y-77768864D01*
X168202857Y-77768864D02*
X168226666Y-77626007D01*
X168226666Y-77626007D02*
X168274285Y-77554578D01*
X168274285Y-77554578D02*
X168321904Y-77518864D01*
X168988571Y-78268864D02*
X168750476Y-78268864D01*
X168750476Y-78268864D02*
X168750476Y-77518864D01*
X169369524Y-77768864D02*
X169369524Y-78268864D01*
X169250476Y-77483150D02*
X169131429Y-78018864D01*
X169131429Y-78018864D02*
X169440952Y-78018864D01*
X183590047Y-64910078D02*
X183542428Y-64874364D01*
X183542428Y-64874364D02*
X183470999Y-64874364D01*
X183470999Y-64874364D02*
X183399571Y-64910078D01*
X183399571Y-64910078D02*
X183351952Y-64981507D01*
X183351952Y-64981507D02*
X183328142Y-65052935D01*
X183328142Y-65052935D02*
X183304333Y-65195792D01*
X183304333Y-65195792D02*
X183304333Y-65302935D01*
X183304333Y-65302935D02*
X183328142Y-65445792D01*
X183328142Y-65445792D02*
X183351952Y-65517221D01*
X183351952Y-65517221D02*
X183399571Y-65588650D01*
X183399571Y-65588650D02*
X183470999Y-65624364D01*
X183470999Y-65624364D02*
X183518618Y-65624364D01*
X183518618Y-65624364D02*
X183590047Y-65588650D01*
X183590047Y-65588650D02*
X183613856Y-65552935D01*
X183613856Y-65552935D02*
X183613856Y-65302935D01*
X183613856Y-65302935D02*
X183518618Y-65302935D01*
X183828142Y-65624364D02*
X183828142Y-64874364D01*
X183828142Y-64874364D02*
X184113856Y-65624364D01*
X184113856Y-65624364D02*
X184113856Y-64874364D01*
X184351952Y-65624364D02*
X184351952Y-64874364D01*
X184351952Y-64874364D02*
X184471000Y-64874364D01*
X184471000Y-64874364D02*
X184542428Y-64910078D01*
X184542428Y-64910078D02*
X184590047Y-64981507D01*
X184590047Y-64981507D02*
X184613857Y-65052935D01*
X184613857Y-65052935D02*
X184637666Y-65195792D01*
X184637666Y-65195792D02*
X184637666Y-65302935D01*
X184637666Y-65302935D02*
X184613857Y-65445792D01*
X184613857Y-65445792D02*
X184590047Y-65517221D01*
X184590047Y-65517221D02*
X184542428Y-65588650D01*
X184542428Y-65588650D02*
X184471000Y-65624364D01*
X184471000Y-65624364D02*
X184351952Y-65624364D01*
X183110000Y-60468864D02*
X183110000Y-59718864D01*
X183110000Y-59718864D02*
X183229048Y-59718864D01*
X183229048Y-59718864D02*
X183300476Y-59754578D01*
X183300476Y-59754578D02*
X183348095Y-59826007D01*
X183348095Y-59826007D02*
X183371905Y-59897435D01*
X183371905Y-59897435D02*
X183395714Y-60040292D01*
X183395714Y-60040292D02*
X183395714Y-60147435D01*
X183395714Y-60147435D02*
X183371905Y-60290292D01*
X183371905Y-60290292D02*
X183348095Y-60361721D01*
X183348095Y-60361721D02*
X183300476Y-60433150D01*
X183300476Y-60433150D02*
X183229048Y-60468864D01*
X183229048Y-60468864D02*
X183110000Y-60468864D01*
X183586191Y-60254578D02*
X183824286Y-60254578D01*
X183538572Y-60468864D02*
X183705238Y-59718864D01*
X183705238Y-59718864D02*
X183871905Y-60468864D01*
X183967143Y-59718864D02*
X184252857Y-59718864D01*
X184110000Y-60468864D02*
X184110000Y-59718864D01*
X184395714Y-60254578D02*
X184633809Y-60254578D01*
X184348095Y-60468864D02*
X184514761Y-59718864D01*
X184514761Y-59718864D02*
X184681428Y-60468864D01*
X168062380Y-73109435D02*
X168038571Y-73145150D01*
X168038571Y-73145150D02*
X167967142Y-73180864D01*
X167967142Y-73180864D02*
X167919523Y-73180864D01*
X167919523Y-73180864D02*
X167848095Y-73145150D01*
X167848095Y-73145150D02*
X167800476Y-73073721D01*
X167800476Y-73073721D02*
X167776666Y-73002292D01*
X167776666Y-73002292D02*
X167752857Y-72859435D01*
X167752857Y-72859435D02*
X167752857Y-72752292D01*
X167752857Y-72752292D02*
X167776666Y-72609435D01*
X167776666Y-72609435D02*
X167800476Y-72538007D01*
X167800476Y-72538007D02*
X167848095Y-72466578D01*
X167848095Y-72466578D02*
X167919523Y-72430864D01*
X167919523Y-72430864D02*
X167967142Y-72430864D01*
X167967142Y-72430864D02*
X168038571Y-72466578D01*
X168038571Y-72466578D02*
X168062380Y-72502292D01*
X168371904Y-72430864D02*
X168467142Y-72430864D01*
X168467142Y-72430864D02*
X168514761Y-72466578D01*
X168514761Y-72466578D02*
X168562380Y-72538007D01*
X168562380Y-72538007D02*
X168586190Y-72680864D01*
X168586190Y-72680864D02*
X168586190Y-72930864D01*
X168586190Y-72930864D02*
X168562380Y-73073721D01*
X168562380Y-73073721D02*
X168514761Y-73145150D01*
X168514761Y-73145150D02*
X168467142Y-73180864D01*
X168467142Y-73180864D02*
X168371904Y-73180864D01*
X168371904Y-73180864D02*
X168324285Y-73145150D01*
X168324285Y-73145150D02*
X168276666Y-73073721D01*
X168276666Y-73073721D02*
X168252857Y-72930864D01*
X168252857Y-72930864D02*
X168252857Y-72680864D01*
X168252857Y-72680864D02*
X168276666Y-72538007D01*
X168276666Y-72538007D02*
X168324285Y-72466578D01*
X168324285Y-72466578D02*
X168371904Y-72430864D01*
X169038571Y-73180864D02*
X168800476Y-73180864D01*
X168800476Y-73180864D02*
X168800476Y-72430864D01*
X169181429Y-72502292D02*
X169205238Y-72466578D01*
X169205238Y-72466578D02*
X169252857Y-72430864D01*
X169252857Y-72430864D02*
X169371905Y-72430864D01*
X169371905Y-72430864D02*
X169419524Y-72466578D01*
X169419524Y-72466578D02*
X169443333Y-72502292D01*
X169443333Y-72502292D02*
X169467143Y-72573721D01*
X169467143Y-72573721D02*
X169467143Y-72645150D01*
X169467143Y-72645150D02*
X169443333Y-72752292D01*
X169443333Y-72752292D02*
X169157619Y-73180864D01*
X169157619Y-73180864D02*
X169467143Y-73180864D01*
X168127834Y-64810864D02*
X168294500Y-65560864D01*
X168294500Y-65560864D02*
X168461167Y-64810864D01*
X168913547Y-65489435D02*
X168889738Y-65525150D01*
X168889738Y-65525150D02*
X168818309Y-65560864D01*
X168818309Y-65560864D02*
X168770690Y-65560864D01*
X168770690Y-65560864D02*
X168699262Y-65525150D01*
X168699262Y-65525150D02*
X168651643Y-65453721D01*
X168651643Y-65453721D02*
X168627833Y-65382292D01*
X168627833Y-65382292D02*
X168604024Y-65239435D01*
X168604024Y-65239435D02*
X168604024Y-65132292D01*
X168604024Y-65132292D02*
X168627833Y-64989435D01*
X168627833Y-64989435D02*
X168651643Y-64918007D01*
X168651643Y-64918007D02*
X168699262Y-64846578D01*
X168699262Y-64846578D02*
X168770690Y-64810864D01*
X168770690Y-64810864D02*
X168818309Y-64810864D01*
X168818309Y-64810864D02*
X168889738Y-64846578D01*
X168889738Y-64846578D02*
X168913547Y-64882292D01*
X169413547Y-65489435D02*
X169389738Y-65525150D01*
X169389738Y-65525150D02*
X169318309Y-65560864D01*
X169318309Y-65560864D02*
X169270690Y-65560864D01*
X169270690Y-65560864D02*
X169199262Y-65525150D01*
X169199262Y-65525150D02*
X169151643Y-65453721D01*
X169151643Y-65453721D02*
X169127833Y-65382292D01*
X169127833Y-65382292D02*
X169104024Y-65239435D01*
X169104024Y-65239435D02*
X169104024Y-65132292D01*
X169104024Y-65132292D02*
X169127833Y-64989435D01*
X169127833Y-64989435D02*
X169151643Y-64918007D01*
X169151643Y-64918007D02*
X169199262Y-64846578D01*
X169199262Y-64846578D02*
X169270690Y-64810864D01*
X169270690Y-64810864D02*
X169318309Y-64810864D01*
X169318309Y-64810864D02*
X169389738Y-64846578D01*
X169389738Y-64846578D02*
X169413547Y-64882292D01*
X168449261Y-57940864D02*
X168282595Y-57583721D01*
X168163547Y-57940864D02*
X168163547Y-57190864D01*
X168163547Y-57190864D02*
X168354023Y-57190864D01*
X168354023Y-57190864D02*
X168401642Y-57226578D01*
X168401642Y-57226578D02*
X168425452Y-57262292D01*
X168425452Y-57262292D02*
X168449261Y-57333721D01*
X168449261Y-57333721D02*
X168449261Y-57440864D01*
X168449261Y-57440864D02*
X168425452Y-57512292D01*
X168425452Y-57512292D02*
X168401642Y-57548007D01*
X168401642Y-57548007D02*
X168354023Y-57583721D01*
X168354023Y-57583721D02*
X168163547Y-57583721D01*
X168639738Y-57726578D02*
X168877833Y-57726578D01*
X168592119Y-57940864D02*
X168758785Y-57190864D01*
X168758785Y-57190864D02*
X168925452Y-57940864D01*
X169044499Y-57190864D02*
X169163547Y-57940864D01*
X169163547Y-57940864D02*
X169258785Y-57405150D01*
X169258785Y-57405150D02*
X169354023Y-57940864D01*
X169354023Y-57940864D02*
X169473071Y-57190864D01*
X183375762Y-70605150D02*
X183447190Y-70640864D01*
X183447190Y-70640864D02*
X183566238Y-70640864D01*
X183566238Y-70640864D02*
X183613857Y-70605150D01*
X183613857Y-70605150D02*
X183637666Y-70569435D01*
X183637666Y-70569435D02*
X183661476Y-70498007D01*
X183661476Y-70498007D02*
X183661476Y-70426578D01*
X183661476Y-70426578D02*
X183637666Y-70355150D01*
X183637666Y-70355150D02*
X183613857Y-70319435D01*
X183613857Y-70319435D02*
X183566238Y-70283721D01*
X183566238Y-70283721D02*
X183471000Y-70248007D01*
X183471000Y-70248007D02*
X183423381Y-70212292D01*
X183423381Y-70212292D02*
X183399571Y-70176578D01*
X183399571Y-70176578D02*
X183375762Y-70105150D01*
X183375762Y-70105150D02*
X183375762Y-70033721D01*
X183375762Y-70033721D02*
X183399571Y-69962292D01*
X183399571Y-69962292D02*
X183423381Y-69926578D01*
X183423381Y-69926578D02*
X183471000Y-69890864D01*
X183471000Y-69890864D02*
X183590047Y-69890864D01*
X183590047Y-69890864D02*
X183661476Y-69926578D01*
X184161475Y-70569435D02*
X184137666Y-70605150D01*
X184137666Y-70605150D02*
X184066237Y-70640864D01*
X184066237Y-70640864D02*
X184018618Y-70640864D01*
X184018618Y-70640864D02*
X183947190Y-70605150D01*
X183947190Y-70605150D02*
X183899571Y-70533721D01*
X183899571Y-70533721D02*
X183875761Y-70462292D01*
X183875761Y-70462292D02*
X183851952Y-70319435D01*
X183851952Y-70319435D02*
X183851952Y-70212292D01*
X183851952Y-70212292D02*
X183875761Y-70069435D01*
X183875761Y-70069435D02*
X183899571Y-69998007D01*
X183899571Y-69998007D02*
X183947190Y-69926578D01*
X183947190Y-69926578D02*
X184018618Y-69890864D01*
X184018618Y-69890864D02*
X184066237Y-69890864D01*
X184066237Y-69890864D02*
X184137666Y-69926578D01*
X184137666Y-69926578D02*
X184161475Y-69962292D01*
X184613856Y-70640864D02*
X184375761Y-70640864D01*
X184375761Y-70640864D02*
X184375761Y-69890864D01*
X183590047Y-64910078D02*
X183542428Y-64874364D01*
X183542428Y-64874364D02*
X183470999Y-64874364D01*
X183470999Y-64874364D02*
X183399571Y-64910078D01*
X183399571Y-64910078D02*
X183351952Y-64981507D01*
X183351952Y-64981507D02*
X183328142Y-65052935D01*
X183328142Y-65052935D02*
X183304333Y-65195792D01*
X183304333Y-65195792D02*
X183304333Y-65302935D01*
X183304333Y-65302935D02*
X183328142Y-65445792D01*
X183328142Y-65445792D02*
X183351952Y-65517221D01*
X183351952Y-65517221D02*
X183399571Y-65588650D01*
X183399571Y-65588650D02*
X183470999Y-65624364D01*
X183470999Y-65624364D02*
X183518618Y-65624364D01*
X183518618Y-65624364D02*
X183590047Y-65588650D01*
X183590047Y-65588650D02*
X183613856Y-65552935D01*
X183613856Y-65552935D02*
X183613856Y-65302935D01*
X183613856Y-65302935D02*
X183518618Y-65302935D01*
X183828142Y-65624364D02*
X183828142Y-64874364D01*
X183828142Y-64874364D02*
X184113856Y-65624364D01*
X184113856Y-65624364D02*
X184113856Y-64874364D01*
X184351952Y-65624364D02*
X184351952Y-64874364D01*
X184351952Y-64874364D02*
X184471000Y-64874364D01*
X184471000Y-64874364D02*
X184542428Y-64910078D01*
X184542428Y-64910078D02*
X184590047Y-64981507D01*
X184590047Y-64981507D02*
X184613857Y-65052935D01*
X184613857Y-65052935D02*
X184637666Y-65195792D01*
X184637666Y-65195792D02*
X184637666Y-65302935D01*
X184637666Y-65302935D02*
X184613857Y-65445792D01*
X184613857Y-65445792D02*
X184590047Y-65517221D01*
X184590047Y-65517221D02*
X184542428Y-65588650D01*
X184542428Y-65588650D02*
X184471000Y-65624364D01*
X184471000Y-65624364D02*
X184351952Y-65624364D01*
X183363858Y-68065150D02*
X183435286Y-68100864D01*
X183435286Y-68100864D02*
X183554334Y-68100864D01*
X183554334Y-68100864D02*
X183601953Y-68065150D01*
X183601953Y-68065150D02*
X183625762Y-68029435D01*
X183625762Y-68029435D02*
X183649572Y-67958007D01*
X183649572Y-67958007D02*
X183649572Y-67886578D01*
X183649572Y-67886578D02*
X183625762Y-67815150D01*
X183625762Y-67815150D02*
X183601953Y-67779435D01*
X183601953Y-67779435D02*
X183554334Y-67743721D01*
X183554334Y-67743721D02*
X183459096Y-67708007D01*
X183459096Y-67708007D02*
X183411477Y-67672292D01*
X183411477Y-67672292D02*
X183387667Y-67636578D01*
X183387667Y-67636578D02*
X183363858Y-67565150D01*
X183363858Y-67565150D02*
X183363858Y-67493721D01*
X183363858Y-67493721D02*
X183387667Y-67422292D01*
X183387667Y-67422292D02*
X183411477Y-67386578D01*
X183411477Y-67386578D02*
X183459096Y-67350864D01*
X183459096Y-67350864D02*
X183578143Y-67350864D01*
X183578143Y-67350864D02*
X183649572Y-67386578D01*
X183863857Y-68100864D02*
X183863857Y-67350864D01*
X183863857Y-67350864D02*
X183982905Y-67350864D01*
X183982905Y-67350864D02*
X184054333Y-67386578D01*
X184054333Y-67386578D02*
X184101952Y-67458007D01*
X184101952Y-67458007D02*
X184125762Y-67529435D01*
X184125762Y-67529435D02*
X184149571Y-67672292D01*
X184149571Y-67672292D02*
X184149571Y-67779435D01*
X184149571Y-67779435D02*
X184125762Y-67922292D01*
X184125762Y-67922292D02*
X184101952Y-67993721D01*
X184101952Y-67993721D02*
X184054333Y-68065150D01*
X184054333Y-68065150D02*
X183982905Y-68100864D01*
X183982905Y-68100864D02*
X183863857Y-68100864D01*
X184340048Y-67886578D02*
X184578143Y-67886578D01*
X184292429Y-68100864D02*
X184459095Y-67350864D01*
X184459095Y-67350864D02*
X184625762Y-68100864D01*
X168062380Y-68047435D02*
X168038571Y-68083150D01*
X168038571Y-68083150D02*
X167967142Y-68118864D01*
X167967142Y-68118864D02*
X167919523Y-68118864D01*
X167919523Y-68118864D02*
X167848095Y-68083150D01*
X167848095Y-68083150D02*
X167800476Y-68011721D01*
X167800476Y-68011721D02*
X167776666Y-67940292D01*
X167776666Y-67940292D02*
X167752857Y-67797435D01*
X167752857Y-67797435D02*
X167752857Y-67690292D01*
X167752857Y-67690292D02*
X167776666Y-67547435D01*
X167776666Y-67547435D02*
X167800476Y-67476007D01*
X167800476Y-67476007D02*
X167848095Y-67404578D01*
X167848095Y-67404578D02*
X167919523Y-67368864D01*
X167919523Y-67368864D02*
X167967142Y-67368864D01*
X167967142Y-67368864D02*
X168038571Y-67404578D01*
X168038571Y-67404578D02*
X168062380Y-67440292D01*
X168371904Y-67368864D02*
X168467142Y-67368864D01*
X168467142Y-67368864D02*
X168514761Y-67404578D01*
X168514761Y-67404578D02*
X168562380Y-67476007D01*
X168562380Y-67476007D02*
X168586190Y-67618864D01*
X168586190Y-67618864D02*
X168586190Y-67868864D01*
X168586190Y-67868864D02*
X168562380Y-68011721D01*
X168562380Y-68011721D02*
X168514761Y-68083150D01*
X168514761Y-68083150D02*
X168467142Y-68118864D01*
X168467142Y-68118864D02*
X168371904Y-68118864D01*
X168371904Y-68118864D02*
X168324285Y-68083150D01*
X168324285Y-68083150D02*
X168276666Y-68011721D01*
X168276666Y-68011721D02*
X168252857Y-67868864D01*
X168252857Y-67868864D02*
X168252857Y-67618864D01*
X168252857Y-67618864D02*
X168276666Y-67476007D01*
X168276666Y-67476007D02*
X168324285Y-67404578D01*
X168324285Y-67404578D02*
X168371904Y-67368864D01*
X169038571Y-68118864D02*
X168800476Y-68118864D01*
X168800476Y-68118864D02*
X168800476Y-67368864D01*
X169300476Y-67368864D02*
X169348095Y-67368864D01*
X169348095Y-67368864D02*
X169395714Y-67404578D01*
X169395714Y-67404578D02*
X169419524Y-67440292D01*
X169419524Y-67440292D02*
X169443333Y-67511721D01*
X169443333Y-67511721D02*
X169467143Y-67654578D01*
X169467143Y-67654578D02*
X169467143Y-67833150D01*
X169467143Y-67833150D02*
X169443333Y-67976007D01*
X169443333Y-67976007D02*
X169419524Y-68047435D01*
X169419524Y-68047435D02*
X169395714Y-68083150D01*
X169395714Y-68083150D02*
X169348095Y-68118864D01*
X169348095Y-68118864D02*
X169300476Y-68118864D01*
X169300476Y-68118864D02*
X169252857Y-68083150D01*
X169252857Y-68083150D02*
X169229048Y-68047435D01*
X169229048Y-68047435D02*
X169205238Y-67976007D01*
X169205238Y-67976007D02*
X169181429Y-67833150D01*
X169181429Y-67833150D02*
X169181429Y-67654578D01*
X169181429Y-67654578D02*
X169205238Y-67511721D01*
X169205238Y-67511721D02*
X169229048Y-67440292D01*
X169229048Y-67440292D02*
X169252857Y-67404578D01*
X169252857Y-67404578D02*
X169300476Y-67368864D01*
X167962380Y-75697435D02*
X167938571Y-75733150D01*
X167938571Y-75733150D02*
X167867142Y-75768864D01*
X167867142Y-75768864D02*
X167819523Y-75768864D01*
X167819523Y-75768864D02*
X167748095Y-75733150D01*
X167748095Y-75733150D02*
X167700476Y-75661721D01*
X167700476Y-75661721D02*
X167676666Y-75590292D01*
X167676666Y-75590292D02*
X167652857Y-75447435D01*
X167652857Y-75447435D02*
X167652857Y-75340292D01*
X167652857Y-75340292D02*
X167676666Y-75197435D01*
X167676666Y-75197435D02*
X167700476Y-75126007D01*
X167700476Y-75126007D02*
X167748095Y-75054578D01*
X167748095Y-75054578D02*
X167819523Y-75018864D01*
X167819523Y-75018864D02*
X167867142Y-75018864D01*
X167867142Y-75018864D02*
X167938571Y-75054578D01*
X167938571Y-75054578D02*
X167962380Y-75090292D01*
X168271904Y-75018864D02*
X168367142Y-75018864D01*
X168367142Y-75018864D02*
X168414761Y-75054578D01*
X168414761Y-75054578D02*
X168462380Y-75126007D01*
X168462380Y-75126007D02*
X168486190Y-75268864D01*
X168486190Y-75268864D02*
X168486190Y-75518864D01*
X168486190Y-75518864D02*
X168462380Y-75661721D01*
X168462380Y-75661721D02*
X168414761Y-75733150D01*
X168414761Y-75733150D02*
X168367142Y-75768864D01*
X168367142Y-75768864D02*
X168271904Y-75768864D01*
X168271904Y-75768864D02*
X168224285Y-75733150D01*
X168224285Y-75733150D02*
X168176666Y-75661721D01*
X168176666Y-75661721D02*
X168152857Y-75518864D01*
X168152857Y-75518864D02*
X168152857Y-75268864D01*
X168152857Y-75268864D02*
X168176666Y-75126007D01*
X168176666Y-75126007D02*
X168224285Y-75054578D01*
X168224285Y-75054578D02*
X168271904Y-75018864D01*
X168938571Y-75768864D02*
X168700476Y-75768864D01*
X168700476Y-75768864D02*
X168700476Y-75018864D01*
X169057619Y-75018864D02*
X169367143Y-75018864D01*
X169367143Y-75018864D02*
X169200476Y-75304578D01*
X169200476Y-75304578D02*
X169271905Y-75304578D01*
X169271905Y-75304578D02*
X169319524Y-75340292D01*
X169319524Y-75340292D02*
X169343333Y-75376007D01*
X169343333Y-75376007D02*
X169367143Y-75447435D01*
X169367143Y-75447435D02*
X169367143Y-75626007D01*
X169367143Y-75626007D02*
X169343333Y-75697435D01*
X169343333Y-75697435D02*
X169319524Y-75733150D01*
X169319524Y-75733150D02*
X169271905Y-75768864D01*
X169271905Y-75768864D02*
X169129048Y-75768864D01*
X169129048Y-75768864D02*
X169081429Y-75733150D01*
X169081429Y-75733150D02*
X169057619Y-75697435D01*
X183079047Y-78268864D02*
X182912381Y-77911721D01*
X182793333Y-78268864D02*
X182793333Y-77518864D01*
X182793333Y-77518864D02*
X182983809Y-77518864D01*
X182983809Y-77518864D02*
X183031428Y-77554578D01*
X183031428Y-77554578D02*
X183055238Y-77590292D01*
X183055238Y-77590292D02*
X183079047Y-77661721D01*
X183079047Y-77661721D02*
X183079047Y-77768864D01*
X183079047Y-77768864D02*
X183055238Y-77840292D01*
X183055238Y-77840292D02*
X183031428Y-77876007D01*
X183031428Y-77876007D02*
X182983809Y-77911721D01*
X182983809Y-77911721D02*
X182793333Y-77911721D01*
X183388571Y-77518864D02*
X183483809Y-77518864D01*
X183483809Y-77518864D02*
X183531428Y-77554578D01*
X183531428Y-77554578D02*
X183579047Y-77626007D01*
X183579047Y-77626007D02*
X183602857Y-77768864D01*
X183602857Y-77768864D02*
X183602857Y-78018864D01*
X183602857Y-78018864D02*
X183579047Y-78161721D01*
X183579047Y-78161721D02*
X183531428Y-78233150D01*
X183531428Y-78233150D02*
X183483809Y-78268864D01*
X183483809Y-78268864D02*
X183388571Y-78268864D01*
X183388571Y-78268864D02*
X183340952Y-78233150D01*
X183340952Y-78233150D02*
X183293333Y-78161721D01*
X183293333Y-78161721D02*
X183269524Y-78018864D01*
X183269524Y-78018864D02*
X183269524Y-77768864D01*
X183269524Y-77768864D02*
X183293333Y-77626007D01*
X183293333Y-77626007D02*
X183340952Y-77554578D01*
X183340952Y-77554578D02*
X183388571Y-77518864D01*
X183769524Y-77518864D02*
X183888572Y-78268864D01*
X183888572Y-78268864D02*
X183983810Y-77733150D01*
X183983810Y-77733150D02*
X184079048Y-78268864D01*
X184079048Y-78268864D02*
X184198096Y-77518864D01*
X184364763Y-77590292D02*
X184388572Y-77554578D01*
X184388572Y-77554578D02*
X184436191Y-77518864D01*
X184436191Y-77518864D02*
X184555239Y-77518864D01*
X184555239Y-77518864D02*
X184602858Y-77554578D01*
X184602858Y-77554578D02*
X184626667Y-77590292D01*
X184626667Y-77590292D02*
X184650477Y-77661721D01*
X184650477Y-77661721D02*
X184650477Y-77733150D01*
X184650477Y-77733150D02*
X184626667Y-77840292D01*
X184626667Y-77840292D02*
X184340953Y-78268864D01*
X184340953Y-78268864D02*
X184650477Y-78268864D01*
X183079047Y-73218864D02*
X182912381Y-72861721D01*
X182793333Y-73218864D02*
X182793333Y-72468864D01*
X182793333Y-72468864D02*
X182983809Y-72468864D01*
X182983809Y-72468864D02*
X183031428Y-72504578D01*
X183031428Y-72504578D02*
X183055238Y-72540292D01*
X183055238Y-72540292D02*
X183079047Y-72611721D01*
X183079047Y-72611721D02*
X183079047Y-72718864D01*
X183079047Y-72718864D02*
X183055238Y-72790292D01*
X183055238Y-72790292D02*
X183031428Y-72826007D01*
X183031428Y-72826007D02*
X182983809Y-72861721D01*
X182983809Y-72861721D02*
X182793333Y-72861721D01*
X183388571Y-72468864D02*
X183483809Y-72468864D01*
X183483809Y-72468864D02*
X183531428Y-72504578D01*
X183531428Y-72504578D02*
X183579047Y-72576007D01*
X183579047Y-72576007D02*
X183602857Y-72718864D01*
X183602857Y-72718864D02*
X183602857Y-72968864D01*
X183602857Y-72968864D02*
X183579047Y-73111721D01*
X183579047Y-73111721D02*
X183531428Y-73183150D01*
X183531428Y-73183150D02*
X183483809Y-73218864D01*
X183483809Y-73218864D02*
X183388571Y-73218864D01*
X183388571Y-73218864D02*
X183340952Y-73183150D01*
X183340952Y-73183150D02*
X183293333Y-73111721D01*
X183293333Y-73111721D02*
X183269524Y-72968864D01*
X183269524Y-72968864D02*
X183269524Y-72718864D01*
X183269524Y-72718864D02*
X183293333Y-72576007D01*
X183293333Y-72576007D02*
X183340952Y-72504578D01*
X183340952Y-72504578D02*
X183388571Y-72468864D01*
X183769524Y-72468864D02*
X183888572Y-73218864D01*
X183888572Y-73218864D02*
X183983810Y-72683150D01*
X183983810Y-72683150D02*
X184079048Y-73218864D01*
X184079048Y-73218864D02*
X184198096Y-72468864D01*
X184483810Y-72468864D02*
X184531429Y-72468864D01*
X184531429Y-72468864D02*
X184579048Y-72504578D01*
X184579048Y-72504578D02*
X184602858Y-72540292D01*
X184602858Y-72540292D02*
X184626667Y-72611721D01*
X184626667Y-72611721D02*
X184650477Y-72754578D01*
X184650477Y-72754578D02*
X184650477Y-72933150D01*
X184650477Y-72933150D02*
X184626667Y-73076007D01*
X184626667Y-73076007D02*
X184602858Y-73147435D01*
X184602858Y-73147435D02*
X184579048Y-73183150D01*
X184579048Y-73183150D02*
X184531429Y-73218864D01*
X184531429Y-73218864D02*
X184483810Y-73218864D01*
X184483810Y-73218864D02*
X184436191Y-73183150D01*
X184436191Y-73183150D02*
X184412382Y-73147435D01*
X184412382Y-73147435D02*
X184388572Y-73076007D01*
X184388572Y-73076007D02*
X184364763Y-72933150D01*
X184364763Y-72933150D02*
X184364763Y-72754578D01*
X184364763Y-72754578D02*
X184388572Y-72611721D01*
X184388572Y-72611721D02*
X184412382Y-72540292D01*
X184412382Y-72540292D02*
X184436191Y-72504578D01*
X184436191Y-72504578D02*
X184483810Y-72468864D01*
X168112380Y-70569435D02*
X168088571Y-70605150D01*
X168088571Y-70605150D02*
X168017142Y-70640864D01*
X168017142Y-70640864D02*
X167969523Y-70640864D01*
X167969523Y-70640864D02*
X167898095Y-70605150D01*
X167898095Y-70605150D02*
X167850476Y-70533721D01*
X167850476Y-70533721D02*
X167826666Y-70462292D01*
X167826666Y-70462292D02*
X167802857Y-70319435D01*
X167802857Y-70319435D02*
X167802857Y-70212292D01*
X167802857Y-70212292D02*
X167826666Y-70069435D01*
X167826666Y-70069435D02*
X167850476Y-69998007D01*
X167850476Y-69998007D02*
X167898095Y-69926578D01*
X167898095Y-69926578D02*
X167969523Y-69890864D01*
X167969523Y-69890864D02*
X168017142Y-69890864D01*
X168017142Y-69890864D02*
X168088571Y-69926578D01*
X168088571Y-69926578D02*
X168112380Y-69962292D01*
X168421904Y-69890864D02*
X168517142Y-69890864D01*
X168517142Y-69890864D02*
X168564761Y-69926578D01*
X168564761Y-69926578D02*
X168612380Y-69998007D01*
X168612380Y-69998007D02*
X168636190Y-70140864D01*
X168636190Y-70140864D02*
X168636190Y-70390864D01*
X168636190Y-70390864D02*
X168612380Y-70533721D01*
X168612380Y-70533721D02*
X168564761Y-70605150D01*
X168564761Y-70605150D02*
X168517142Y-70640864D01*
X168517142Y-70640864D02*
X168421904Y-70640864D01*
X168421904Y-70640864D02*
X168374285Y-70605150D01*
X168374285Y-70605150D02*
X168326666Y-70533721D01*
X168326666Y-70533721D02*
X168302857Y-70390864D01*
X168302857Y-70390864D02*
X168302857Y-70140864D01*
X168302857Y-70140864D02*
X168326666Y-69998007D01*
X168326666Y-69998007D02*
X168374285Y-69926578D01*
X168374285Y-69926578D02*
X168421904Y-69890864D01*
X169088571Y-70640864D02*
X168850476Y-70640864D01*
X168850476Y-70640864D02*
X168850476Y-69890864D01*
X169517143Y-70640864D02*
X169231429Y-70640864D01*
X169374286Y-70640864D02*
X169374286Y-69890864D01*
X169374286Y-69890864D02*
X169326667Y-69998007D01*
X169326667Y-69998007D02*
X169279048Y-70069435D01*
X169279048Y-70069435D02*
X169231429Y-70105150D01*
X183688571Y-57940864D02*
X183450476Y-57940864D01*
X183450476Y-57940864D02*
X183450476Y-57190864D01*
X183855238Y-57548007D02*
X184021905Y-57548007D01*
X184093333Y-57940864D02*
X183855238Y-57940864D01*
X183855238Y-57940864D02*
X183855238Y-57190864D01*
X183855238Y-57190864D02*
X184093333Y-57190864D01*
X184307619Y-57940864D02*
X184307619Y-57190864D01*
X184307619Y-57190864D02*
X184426667Y-57190864D01*
X184426667Y-57190864D02*
X184498095Y-57226578D01*
X184498095Y-57226578D02*
X184545714Y-57298007D01*
X184545714Y-57298007D02*
X184569524Y-57369435D01*
X184569524Y-57369435D02*
X184593333Y-57512292D01*
X184593333Y-57512292D02*
X184593333Y-57619435D01*
X184593333Y-57619435D02*
X184569524Y-57762292D01*
X184569524Y-57762292D02*
X184545714Y-57833721D01*
X184545714Y-57833721D02*
X184498095Y-57905150D01*
X184498095Y-57905150D02*
X184426667Y-57940864D01*
X184426667Y-57940864D02*
X184307619Y-57940864D01*
X183653547Y-62370078D02*
X183605928Y-62334364D01*
X183605928Y-62334364D02*
X183534499Y-62334364D01*
X183534499Y-62334364D02*
X183463071Y-62370078D01*
X183463071Y-62370078D02*
X183415452Y-62441507D01*
X183415452Y-62441507D02*
X183391642Y-62512935D01*
X183391642Y-62512935D02*
X183367833Y-62655792D01*
X183367833Y-62655792D02*
X183367833Y-62762935D01*
X183367833Y-62762935D02*
X183391642Y-62905792D01*
X183391642Y-62905792D02*
X183415452Y-62977221D01*
X183415452Y-62977221D02*
X183463071Y-63048650D01*
X183463071Y-63048650D02*
X183534499Y-63084364D01*
X183534499Y-63084364D02*
X183582118Y-63084364D01*
X183582118Y-63084364D02*
X183653547Y-63048650D01*
X183653547Y-63048650D02*
X183677356Y-63012935D01*
X183677356Y-63012935D02*
X183677356Y-62762935D01*
X183677356Y-62762935D02*
X183582118Y-62762935D01*
X183891642Y-63084364D02*
X183891642Y-62334364D01*
X183891642Y-62334364D02*
X184177356Y-63084364D01*
X184177356Y-63084364D02*
X184177356Y-62334364D01*
X184415452Y-63084364D02*
X184415452Y-62334364D01*
X184415452Y-62334364D02*
X184534500Y-62334364D01*
X184534500Y-62334364D02*
X184605928Y-62370078D01*
X184605928Y-62370078D02*
X184653547Y-62441507D01*
X184653547Y-62441507D02*
X184677357Y-62512935D01*
X184677357Y-62512935D02*
X184701166Y-62655792D01*
X184701166Y-62655792D02*
X184701166Y-62762935D01*
X184701166Y-62762935D02*
X184677357Y-62905792D01*
X184677357Y-62905792D02*
X184653547Y-62977221D01*
X184653547Y-62977221D02*
X184605928Y-63048650D01*
X184605928Y-63048650D02*
X184534500Y-63084364D01*
X184534500Y-63084364D02*
X184415452Y-63084364D01*
D13*
X168333333Y-106854299D02*
X168000000Y-106378108D01*
X167761905Y-106854299D02*
X167761905Y-105854299D01*
X167761905Y-105854299D02*
X168142857Y-105854299D01*
X168142857Y-105854299D02*
X168238095Y-105901918D01*
X168238095Y-105901918D02*
X168285714Y-105949537D01*
X168285714Y-105949537D02*
X168333333Y-106044775D01*
X168333333Y-106044775D02*
X168333333Y-106187632D01*
X168333333Y-106187632D02*
X168285714Y-106282870D01*
X168285714Y-106282870D02*
X168238095Y-106330489D01*
X168238095Y-106330489D02*
X168142857Y-106378108D01*
X168142857Y-106378108D02*
X167761905Y-106378108D01*
X169285714Y-106854299D02*
X168714286Y-106854299D01*
X169000000Y-106854299D02*
X169000000Y-105854299D01*
X169000000Y-105854299D02*
X168904762Y-105997156D01*
X168904762Y-105997156D02*
X168809524Y-106092394D01*
X168809524Y-106092394D02*
X168714286Y-106140013D01*
X168333333Y-112954299D02*
X168000000Y-112478108D01*
X167761905Y-112954299D02*
X167761905Y-111954299D01*
X167761905Y-111954299D02*
X168142857Y-111954299D01*
X168142857Y-111954299D02*
X168238095Y-112001918D01*
X168238095Y-112001918D02*
X168285714Y-112049537D01*
X168285714Y-112049537D02*
X168333333Y-112144775D01*
X168333333Y-112144775D02*
X168333333Y-112287632D01*
X168333333Y-112287632D02*
X168285714Y-112382870D01*
X168285714Y-112382870D02*
X168238095Y-112430489D01*
X168238095Y-112430489D02*
X168142857Y-112478108D01*
X168142857Y-112478108D02*
X167761905Y-112478108D01*
X168666667Y-111954299D02*
X169285714Y-111954299D01*
X169285714Y-111954299D02*
X168952381Y-112335251D01*
X168952381Y-112335251D02*
X169095238Y-112335251D01*
X169095238Y-112335251D02*
X169190476Y-112382870D01*
X169190476Y-112382870D02*
X169238095Y-112430489D01*
X169238095Y-112430489D02*
X169285714Y-112525727D01*
X169285714Y-112525727D02*
X169285714Y-112763822D01*
X169285714Y-112763822D02*
X169238095Y-112859060D01*
X169238095Y-112859060D02*
X169190476Y-112906680D01*
X169190476Y-112906680D02*
X169095238Y-112954299D01*
X169095238Y-112954299D02*
X168809524Y-112954299D01*
X168809524Y-112954299D02*
X168714286Y-112906680D01*
X168714286Y-112906680D02*
X168666667Y-112859060D01*
X175133333Y-64204299D02*
X174800000Y-63728108D01*
X174561905Y-64204299D02*
X174561905Y-63204299D01*
X174561905Y-63204299D02*
X174942857Y-63204299D01*
X174942857Y-63204299D02*
X175038095Y-63251918D01*
X175038095Y-63251918D02*
X175085714Y-63299537D01*
X175085714Y-63299537D02*
X175133333Y-63394775D01*
X175133333Y-63394775D02*
X175133333Y-63537632D01*
X175133333Y-63537632D02*
X175085714Y-63632870D01*
X175085714Y-63632870D02*
X175038095Y-63680489D01*
X175038095Y-63680489D02*
X174942857Y-63728108D01*
X174942857Y-63728108D02*
X174561905Y-63728108D01*
X176038095Y-63204299D02*
X175561905Y-63204299D01*
X175561905Y-63204299D02*
X175514286Y-63680489D01*
X175514286Y-63680489D02*
X175561905Y-63632870D01*
X175561905Y-63632870D02*
X175657143Y-63585251D01*
X175657143Y-63585251D02*
X175895238Y-63585251D01*
X175895238Y-63585251D02*
X175990476Y-63632870D01*
X175990476Y-63632870D02*
X176038095Y-63680489D01*
X176038095Y-63680489D02*
X176085714Y-63775727D01*
X176085714Y-63775727D02*
X176085714Y-64013822D01*
X176085714Y-64013822D02*
X176038095Y-64109060D01*
X176038095Y-64109060D02*
X175990476Y-64156680D01*
X175990476Y-64156680D02*
X175895238Y-64204299D01*
X175895238Y-64204299D02*
X175657143Y-64204299D01*
X175657143Y-64204299D02*
X175561905Y-64156680D01*
X175561905Y-64156680D02*
X175514286Y-64109060D01*
D10*
X83304400Y-63562800D02*
X83304400Y-65062800D01*
X83304400Y-65062800D02*
X88704400Y-65062800D01*
X85504400Y-63812800D02*
X85504400Y-64812800D01*
X85604400Y-64312800D02*
X86504400Y-63812800D01*
X86504400Y-63812800D02*
X86504400Y-64812800D01*
X86504400Y-64812800D02*
X85604400Y-64312800D01*
X88704400Y-63562800D02*
X83304400Y-63562800D01*
X88704400Y-65062800D02*
X88704400Y-63562800D01*
X101389200Y-51523200D02*
X101389200Y-53023200D01*
X101389200Y-53023200D02*
X106789200Y-53023200D01*
X103589200Y-51773200D02*
X103589200Y-52773200D01*
X103689200Y-52273200D02*
X104589200Y-51773200D01*
X104589200Y-51773200D02*
X104589200Y-52773200D01*
X104589200Y-52773200D02*
X103689200Y-52273200D01*
X106789200Y-51523200D02*
X101389200Y-51523200D01*
X106789200Y-53023200D02*
X106789200Y-51523200D01*
X119372400Y-45478000D02*
X119372400Y-46978000D01*
X119372400Y-46978000D02*
X124772400Y-46978000D01*
X121572400Y-45728000D02*
X121572400Y-46728000D01*
X121672400Y-46228000D02*
X122572400Y-45728000D01*
X122572400Y-45728000D02*
X122572400Y-46728000D01*
X122572400Y-46728000D02*
X121672400Y-46228000D01*
X124772400Y-45478000D02*
X119372400Y-45478000D01*
X124772400Y-46978000D02*
X124772400Y-45478000D01*
X137304800Y-52539200D02*
X137304800Y-54039200D01*
X137304800Y-54039200D02*
X142704800Y-54039200D01*
X139504800Y-52789200D02*
X139504800Y-53789200D01*
X139604800Y-53289200D02*
X140504800Y-52789200D01*
X140504800Y-52789200D02*
X140504800Y-53789200D01*
X140504800Y-53789200D02*
X139604800Y-53289200D01*
X142704800Y-52539200D02*
X137304800Y-52539200D01*
X142704800Y-54039200D02*
X142704800Y-52539200D01*
X155288000Y-54672800D02*
X155288000Y-56172800D01*
X155288000Y-56172800D02*
X160688000Y-56172800D01*
X157488000Y-54922800D02*
X157488000Y-55922800D01*
X157588000Y-55422800D02*
X158488000Y-54922800D01*
X158488000Y-54922800D02*
X158488000Y-55922800D01*
X158488000Y-55922800D02*
X157588000Y-55422800D01*
X160688000Y-54672800D02*
X155288000Y-54672800D01*
X160688000Y-56172800D02*
X160688000Y-54672800D01*
X83202800Y-80479200D02*
X83202800Y-81979200D01*
X83202800Y-81979200D02*
X88602800Y-81979200D01*
X85402800Y-80729200D02*
X85402800Y-81729200D01*
X85502800Y-81229200D02*
X86402800Y-80729200D01*
X86402800Y-80729200D02*
X86402800Y-81729200D01*
X86402800Y-81729200D02*
X85502800Y-81229200D01*
X88602800Y-80479200D02*
X83202800Y-80479200D01*
X88602800Y-81979200D02*
X88602800Y-80479200D01*
X101186000Y-68592000D02*
X101186000Y-70092000D01*
X101186000Y-70092000D02*
X106586000Y-70092000D01*
X103386000Y-68842000D02*
X103386000Y-69842000D01*
X103486000Y-69342000D02*
X104386000Y-68842000D01*
X104386000Y-68842000D02*
X104386000Y-69842000D01*
X104386000Y-69842000D02*
X103486000Y-69342000D01*
X106586000Y-68592000D02*
X101186000Y-68592000D01*
X106586000Y-70092000D02*
X106586000Y-68592000D01*
X119270800Y-62597600D02*
X119270800Y-64097600D01*
X119270800Y-64097600D02*
X124670800Y-64097600D01*
X121470800Y-62847600D02*
X121470800Y-63847600D01*
X121570800Y-63347600D02*
X122470800Y-62847600D01*
X122470800Y-62847600D02*
X122470800Y-63847600D01*
X122470800Y-63847600D02*
X121570800Y-63347600D01*
X124670800Y-62597600D02*
X119270800Y-62597600D01*
X124670800Y-64097600D02*
X124670800Y-62597600D01*
X137254000Y-69150800D02*
X137254000Y-70650800D01*
X137254000Y-70650800D02*
X142654000Y-70650800D01*
X139454000Y-69400800D02*
X139454000Y-70400800D01*
X139554000Y-69900800D02*
X140454000Y-69400800D01*
X140454000Y-69400800D02*
X140454000Y-70400800D01*
X140454000Y-70400800D02*
X139554000Y-69900800D01*
X142654000Y-69150800D02*
X137254000Y-69150800D01*
X142654000Y-70650800D02*
X142654000Y-69150800D01*
X155592800Y-71741600D02*
X155592800Y-73241600D01*
X155592800Y-73241600D02*
X160992800Y-73241600D01*
X157792800Y-71991600D02*
X157792800Y-72991600D01*
X157892800Y-72491600D02*
X158792800Y-71991600D01*
X158792800Y-71991600D02*
X158792800Y-72991600D01*
X158792800Y-72991600D02*
X157892800Y-72491600D01*
X160992800Y-71741600D02*
X155592800Y-71741600D01*
X160992800Y-73241600D02*
X160992800Y-71741600D01*
X83202800Y-97497200D02*
X83202800Y-98997200D01*
X83202800Y-98997200D02*
X88602800Y-98997200D01*
X85402800Y-97747200D02*
X85402800Y-98747200D01*
X85502800Y-98247200D02*
X86402800Y-97747200D01*
X86402800Y-97747200D02*
X86402800Y-98747200D01*
X86402800Y-98747200D02*
X85502800Y-98247200D01*
X88602800Y-97497200D02*
X83202800Y-97497200D01*
X88602800Y-98997200D02*
X88602800Y-97497200D01*
X101287600Y-85559200D02*
X101287600Y-87059200D01*
X101287600Y-87059200D02*
X106687600Y-87059200D01*
X103487600Y-85809200D02*
X103487600Y-86809200D01*
X103587600Y-86309200D02*
X104487600Y-85809200D01*
X104487600Y-85809200D02*
X104487600Y-86809200D01*
X104487600Y-86809200D02*
X103587600Y-86309200D01*
X106687600Y-85559200D02*
X101287600Y-85559200D01*
X106687600Y-87059200D02*
X106687600Y-85559200D01*
X119270800Y-79564800D02*
X119270800Y-81064800D01*
X119270800Y-81064800D02*
X124670800Y-81064800D01*
X121470800Y-79814800D02*
X121470800Y-80814800D01*
X121570800Y-80314800D02*
X122470800Y-79814800D01*
X122470800Y-79814800D02*
X122470800Y-80814800D01*
X122470800Y-80814800D02*
X121570800Y-80314800D01*
X124670800Y-79564800D02*
X119270800Y-79564800D01*
X124670800Y-81064800D02*
X124670800Y-79564800D01*
X137355600Y-86219600D02*
X137355600Y-87719600D01*
X137355600Y-87719600D02*
X142755600Y-87719600D01*
X139555600Y-86469600D02*
X139555600Y-87469600D01*
X139655600Y-86969600D02*
X140555600Y-86469600D01*
X140555600Y-86469600D02*
X140555600Y-87469600D01*
X140555600Y-87469600D02*
X139655600Y-86969600D01*
X142755600Y-86219600D02*
X137355600Y-86219600D01*
X142755600Y-87719600D02*
X142755600Y-86219600D01*
X155389600Y-88607200D02*
X155389600Y-90107200D01*
X155389600Y-90107200D02*
X160789600Y-90107200D01*
X157589600Y-88857200D02*
X157589600Y-89857200D01*
X157689600Y-89357200D02*
X158589600Y-88857200D01*
X158589600Y-88857200D02*
X158589600Y-89857200D01*
X158589600Y-89857200D02*
X157689600Y-89357200D01*
X160789600Y-88607200D02*
X155389600Y-88607200D01*
X160789600Y-90107200D02*
X160789600Y-88607200D01*
X155346044Y-126668719D02*
X160667246Y-127587851D01*
X155601358Y-125190607D02*
X155346044Y-126668719D01*
X157726703Y-125811420D02*
X157556493Y-126796828D01*
X157740139Y-126321145D02*
X158712111Y-125981630D01*
X158541901Y-126967038D02*
X157740139Y-126321145D01*
X158712111Y-125981630D02*
X158541901Y-126967038D01*
X160667246Y-127587851D02*
X160922560Y-126109739D01*
X160922560Y-126109739D02*
X155601358Y-125190607D01*
X173926177Y-131041812D02*
X179019579Y-132835482D01*
X174424419Y-129626978D02*
X173926177Y-131041812D01*
X176344710Y-131098366D02*
X177359691Y-130925699D01*
X176416468Y-130593538D02*
X176084307Y-131536761D01*
X177027530Y-131868922D02*
X176344710Y-131098366D01*
X177359691Y-130925699D02*
X177027530Y-131868922D01*
X179019579Y-132835482D02*
X179517821Y-131420648D01*
X179517821Y-131420648D02*
X174424419Y-129626978D01*
X191746810Y-138804671D02*
X196469756Y-141422643D01*
X192474024Y-137492741D02*
X191746810Y-138804671D01*
X194122042Y-139263768D02*
X195151605Y-139262787D01*
X194276985Y-138777977D02*
X193792175Y-139652597D01*
X194666795Y-140137407D02*
X194122042Y-139263768D01*
X195151605Y-139262787D02*
X194666795Y-140137407D01*
X196469756Y-141422643D02*
X197196970Y-140110713D01*
X197196970Y-140110713D02*
X192474024Y-137492741D01*
X175960000Y-103700000D02*
X187960000Y-103700000D01*
X175960000Y-109700000D02*
X175960000Y-103700000D01*
X187960000Y-103700000D02*
X187960000Y-109700000D01*
X187960000Y-109700000D02*
X175960000Y-109700000D01*
X78910000Y-63400000D02*
X79910000Y-63400000D01*
X78910000Y-64400000D02*
X78910000Y-63400000D01*
X78910000Y-77400000D02*
X78910000Y-76400000D01*
X79910000Y-77400000D02*
X78910000Y-77400000D01*
X83910000Y-74600000D02*
X84410000Y-74100000D01*
X83910000Y-78100000D02*
X84410000Y-78600000D01*
X84410000Y-74100000D02*
X86910000Y-74100000D01*
X84410000Y-78600000D02*
X87410000Y-78600000D01*
X87410000Y-78600000D02*
X87910000Y-78100000D01*
X87910000Y-77100000D02*
X87910000Y-78100000D01*
X88410000Y-71900000D02*
X92910000Y-71900000D01*
X88410000Y-72600000D02*
X88410000Y-71900000D01*
X91910000Y-63400000D02*
X92910000Y-63400000D01*
X92910000Y-63400000D02*
X92910000Y-64400000D01*
X92910000Y-71900000D02*
X92910000Y-72400000D01*
X92910000Y-76000000D02*
X92910000Y-76600000D01*
X92910000Y-76400000D02*
X92910000Y-77400000D01*
X92910000Y-76600000D02*
X88410000Y-76600000D01*
X92910000Y-77400000D02*
X91910000Y-77400000D01*
X87910000Y-77100000D02*
G75*
G02*
X88410000Y-76600000I500000J0D01*
G01*
X88410000Y-72600000D02*
G75*
G02*
X86910000Y-74100000I-1500000J0D01*
G01*
X96910000Y-51400000D02*
X97910000Y-51400000D01*
X96910000Y-52400000D02*
X96910000Y-51400000D01*
X96910000Y-65400000D02*
X96910000Y-64400000D01*
X97910000Y-65400000D02*
X96910000Y-65400000D01*
X101910000Y-62600000D02*
X102410000Y-62100000D01*
X101910000Y-66100000D02*
X102410000Y-66600000D01*
X102410000Y-62100000D02*
X104910000Y-62100000D01*
X102410000Y-66600000D02*
X105410000Y-66600000D01*
X105410000Y-66600000D02*
X105910000Y-66100000D01*
X105910000Y-65100000D02*
X105910000Y-66100000D01*
X106410000Y-59900000D02*
X110910000Y-59900000D01*
X106410000Y-60600000D02*
X106410000Y-59900000D01*
X109910000Y-51400000D02*
X110910000Y-51400000D01*
X110910000Y-51400000D02*
X110910000Y-52400000D01*
X110910000Y-59900000D02*
X110910000Y-60400000D01*
X110910000Y-64000000D02*
X110910000Y-64600000D01*
X110910000Y-64400000D02*
X110910000Y-65400000D01*
X110910000Y-64600000D02*
X106410000Y-64600000D01*
X110910000Y-65400000D02*
X109910000Y-65400000D01*
X105910000Y-65100000D02*
G75*
G02*
X106410000Y-64600000I500000J0D01*
G01*
X106410000Y-60600000D02*
G75*
G02*
X104910000Y-62100000I-1500000J0D01*
G01*
X114910000Y-45400000D02*
X115910000Y-45400000D01*
X114910000Y-46400000D02*
X114910000Y-45400000D01*
X114910000Y-59400000D02*
X114910000Y-58400000D01*
X115910000Y-59400000D02*
X114910000Y-59400000D01*
X119910000Y-56600000D02*
X120410000Y-56100000D01*
X119910000Y-60100000D02*
X120410000Y-60600000D01*
X120410000Y-56100000D02*
X122910000Y-56100000D01*
X120410000Y-60600000D02*
X123410000Y-60600000D01*
X123410000Y-60600000D02*
X123910000Y-60100000D01*
X123910000Y-59100000D02*
X123910000Y-60100000D01*
X124410000Y-53900000D02*
X128910000Y-53900000D01*
X124410000Y-54600000D02*
X124410000Y-53900000D01*
X127910000Y-45400000D02*
X128910000Y-45400000D01*
X128910000Y-45400000D02*
X128910000Y-46400000D01*
X128910000Y-53900000D02*
X128910000Y-54400000D01*
X128910000Y-58000000D02*
X128910000Y-58600000D01*
X128910000Y-58400000D02*
X128910000Y-59400000D01*
X128910000Y-58600000D02*
X124410000Y-58600000D01*
X128910000Y-59400000D02*
X127910000Y-59400000D01*
X123910000Y-59100000D02*
G75*
G02*
X124410000Y-58600000I500000J0D01*
G01*
X124410000Y-54600000D02*
G75*
G02*
X122910000Y-56100000I-1500000J0D01*
G01*
X132910000Y-52020000D02*
X133910000Y-52020000D01*
X132910000Y-53020000D02*
X132910000Y-52020000D01*
X132910000Y-66020000D02*
X132910000Y-65020000D01*
X133910000Y-66020000D02*
X132910000Y-66020000D01*
X137910000Y-63220000D02*
X138410000Y-62720000D01*
X137910000Y-66720000D02*
X138410000Y-67220000D01*
X138410000Y-62720000D02*
X140910000Y-62720000D01*
X138410000Y-67220000D02*
X141410000Y-67220000D01*
X141410000Y-67220000D02*
X141910000Y-66720000D01*
X141910000Y-65720000D02*
X141910000Y-66720000D01*
X142410000Y-60520000D02*
X146910000Y-60520000D01*
X142410000Y-61220000D02*
X142410000Y-60520000D01*
X145910000Y-52020000D02*
X146910000Y-52020000D01*
X146910000Y-52020000D02*
X146910000Y-53020000D01*
X146910000Y-60520000D02*
X146910000Y-61020000D01*
X146910000Y-64620000D02*
X146910000Y-65220000D01*
X146910000Y-65020000D02*
X146910000Y-66020000D01*
X146910000Y-65220000D02*
X142410000Y-65220000D01*
X146910000Y-66020000D02*
X145910000Y-66020000D01*
X141910000Y-65720000D02*
G75*
G02*
X142410000Y-65220000I500000J0D01*
G01*
X142410000Y-61220000D02*
G75*
G02*
X140910000Y-62720000I-1500000J0D01*
G01*
X150910000Y-54400000D02*
X151910000Y-54400000D01*
X150910000Y-55400000D02*
X150910000Y-54400000D01*
X150910000Y-68400000D02*
X150910000Y-67400000D01*
X151910000Y-68400000D02*
X150910000Y-68400000D01*
X155910000Y-65600000D02*
X156410000Y-65100000D01*
X155910000Y-69100000D02*
X156410000Y-69600000D01*
X156410000Y-65100000D02*
X158910000Y-65100000D01*
X156410000Y-69600000D02*
X159410000Y-69600000D01*
X159410000Y-69600000D02*
X159910000Y-69100000D01*
X159910000Y-68100000D02*
X159910000Y-69100000D01*
X160410000Y-62900000D02*
X164910000Y-62900000D01*
X160410000Y-63600000D02*
X160410000Y-62900000D01*
X163910000Y-54400000D02*
X164910000Y-54400000D01*
X164910000Y-54400000D02*
X164910000Y-55400000D01*
X164910000Y-62900000D02*
X164910000Y-63400000D01*
X164910000Y-67000000D02*
X164910000Y-67600000D01*
X164910000Y-67400000D02*
X164910000Y-68400000D01*
X164910000Y-67600000D02*
X160410000Y-67600000D01*
X164910000Y-68400000D02*
X163910000Y-68400000D01*
X159910000Y-68100000D02*
G75*
G02*
X160410000Y-67600000I500000J0D01*
G01*
X160410000Y-63600000D02*
G75*
G02*
X158910000Y-65100000I-1500000J0D01*
G01*
X78910000Y-80400000D02*
X79910000Y-80400000D01*
X78910000Y-81400000D02*
X78910000Y-80400000D01*
X78910000Y-94400000D02*
X78910000Y-93400000D01*
X79910000Y-94400000D02*
X78910000Y-94400000D01*
X83910000Y-91600000D02*
X84410000Y-91100000D01*
X83910000Y-95100000D02*
X84410000Y-95600000D01*
X84410000Y-91100000D02*
X86910000Y-91100000D01*
X84410000Y-95600000D02*
X87410000Y-95600000D01*
X87410000Y-95600000D02*
X87910000Y-95100000D01*
X87910000Y-94100000D02*
X87910000Y-95100000D01*
X88410000Y-88900000D02*
X92910000Y-88900000D01*
X88410000Y-89600000D02*
X88410000Y-88900000D01*
X91910000Y-80400000D02*
X92910000Y-80400000D01*
X92910000Y-80400000D02*
X92910000Y-81400000D01*
X92910000Y-88900000D02*
X92910000Y-89400000D01*
X92910000Y-93000000D02*
X92910000Y-93600000D01*
X92910000Y-93400000D02*
X92910000Y-94400000D01*
X92910000Y-93600000D02*
X88410000Y-93600000D01*
X92910000Y-94400000D02*
X91910000Y-94400000D01*
X87910000Y-94100000D02*
G75*
G02*
X88410000Y-93600000I500000J0D01*
G01*
X88410000Y-89600000D02*
G75*
G02*
X86910000Y-91100000I-1500000J0D01*
G01*
X96910000Y-68400000D02*
X97910000Y-68400000D01*
X96910000Y-69400000D02*
X96910000Y-68400000D01*
X96910000Y-82400000D02*
X96910000Y-81400000D01*
X97910000Y-82400000D02*
X96910000Y-82400000D01*
X101910000Y-79600000D02*
X102410000Y-79100000D01*
X101910000Y-83100000D02*
X102410000Y-83600000D01*
X102410000Y-79100000D02*
X104910000Y-79100000D01*
X102410000Y-83600000D02*
X105410000Y-83600000D01*
X105410000Y-83600000D02*
X105910000Y-83100000D01*
X105910000Y-82100000D02*
X105910000Y-83100000D01*
X106410000Y-76900000D02*
X110910000Y-76900000D01*
X106410000Y-77600000D02*
X106410000Y-76900000D01*
X109910000Y-68400000D02*
X110910000Y-68400000D01*
X110910000Y-68400000D02*
X110910000Y-69400000D01*
X110910000Y-76900000D02*
X110910000Y-77400000D01*
X110910000Y-81000000D02*
X110910000Y-81600000D01*
X110910000Y-81400000D02*
X110910000Y-82400000D01*
X110910000Y-81600000D02*
X106410000Y-81600000D01*
X110910000Y-82400000D02*
X109910000Y-82400000D01*
X105910000Y-82100000D02*
G75*
G02*
X106410000Y-81600000I500000J0D01*
G01*
X106410000Y-77600000D02*
G75*
G02*
X104910000Y-79100000I-1500000J0D01*
G01*
X114910000Y-62400000D02*
X115910000Y-62400000D01*
X114910000Y-63400000D02*
X114910000Y-62400000D01*
X114910000Y-76400000D02*
X114910000Y-75400000D01*
X115910000Y-76400000D02*
X114910000Y-76400000D01*
X119910000Y-73600000D02*
X120410000Y-73100000D01*
X119910000Y-77100000D02*
X120410000Y-77600000D01*
X120410000Y-73100000D02*
X122910000Y-73100000D01*
X120410000Y-77600000D02*
X123410000Y-77600000D01*
X123410000Y-77600000D02*
X123910000Y-77100000D01*
X123910000Y-76100000D02*
X123910000Y-77100000D01*
X124410000Y-70900000D02*
X128910000Y-70900000D01*
X124410000Y-71600000D02*
X124410000Y-70900000D01*
X127910000Y-62400000D02*
X128910000Y-62400000D01*
X128910000Y-62400000D02*
X128910000Y-63400000D01*
X128910000Y-70900000D02*
X128910000Y-71400000D01*
X128910000Y-75000000D02*
X128910000Y-75600000D01*
X128910000Y-75400000D02*
X128910000Y-76400000D01*
X128910000Y-75600000D02*
X124410000Y-75600000D01*
X128910000Y-76400000D02*
X127910000Y-76400000D01*
X123910000Y-76100000D02*
G75*
G02*
X124410000Y-75600000I500000J0D01*
G01*
X124410000Y-71600000D02*
G75*
G02*
X122910000Y-73100000I-1500000J0D01*
G01*
X132910000Y-69020000D02*
X133910000Y-69020000D01*
X132910000Y-70020000D02*
X132910000Y-69020000D01*
X132910000Y-83020000D02*
X132910000Y-82020000D01*
X133910000Y-83020000D02*
X132910000Y-83020000D01*
X137910000Y-80220000D02*
X138410000Y-79720000D01*
X137910000Y-83720000D02*
X138410000Y-84220000D01*
X138410000Y-79720000D02*
X140910000Y-79720000D01*
X138410000Y-84220000D02*
X141410000Y-84220000D01*
X141410000Y-84220000D02*
X141910000Y-83720000D01*
X141910000Y-82720000D02*
X141910000Y-83720000D01*
X142410000Y-77520000D02*
X146910000Y-77520000D01*
X142410000Y-78220000D02*
X142410000Y-77520000D01*
X145910000Y-69020000D02*
X146910000Y-69020000D01*
X146910000Y-69020000D02*
X146910000Y-70020000D01*
X146910000Y-77520000D02*
X146910000Y-78020000D01*
X146910000Y-81620000D02*
X146910000Y-82220000D01*
X146910000Y-82020000D02*
X146910000Y-83020000D01*
X146910000Y-82220000D02*
X142410000Y-82220000D01*
X146910000Y-83020000D02*
X145910000Y-83020000D01*
X141910000Y-82720000D02*
G75*
G02*
X142410000Y-82220000I500000J0D01*
G01*
X142410000Y-78220000D02*
G75*
G02*
X140910000Y-79720000I-1500000J0D01*
G01*
X150910000Y-71400000D02*
X151910000Y-71400000D01*
X150910000Y-72400000D02*
X150910000Y-71400000D01*
X150910000Y-85400000D02*
X150910000Y-84400000D01*
X151910000Y-85400000D02*
X150910000Y-85400000D01*
X155910000Y-82600000D02*
X156410000Y-82100000D01*
X155910000Y-86100000D02*
X156410000Y-86600000D01*
X156410000Y-82100000D02*
X158910000Y-82100000D01*
X156410000Y-86600000D02*
X159410000Y-86600000D01*
X159410000Y-86600000D02*
X159910000Y-86100000D01*
X159910000Y-85100000D02*
X159910000Y-86100000D01*
X160410000Y-79900000D02*
X164910000Y-79900000D01*
X160410000Y-80600000D02*
X160410000Y-79900000D01*
X163910000Y-71400000D02*
X164910000Y-71400000D01*
X164910000Y-71400000D02*
X164910000Y-72400000D01*
X164910000Y-79900000D02*
X164910000Y-80400000D01*
X164910000Y-84000000D02*
X164910000Y-84600000D01*
X164910000Y-84400000D02*
X164910000Y-85400000D01*
X164910000Y-84600000D02*
X160410000Y-84600000D01*
X164910000Y-85400000D02*
X163910000Y-85400000D01*
X159910000Y-85100000D02*
G75*
G02*
X160410000Y-84600000I500000J0D01*
G01*
X160410000Y-80600000D02*
G75*
G02*
X158910000Y-82100000I-1500000J0D01*
G01*
X78910000Y-97400000D02*
X79910000Y-97400000D01*
X78910000Y-98400000D02*
X78910000Y-97400000D01*
X78910000Y-111400000D02*
X78910000Y-110400000D01*
X79910000Y-111400000D02*
X78910000Y-111400000D01*
X83910000Y-108600000D02*
X84410000Y-108100000D01*
X83910000Y-112100000D02*
X84410000Y-112600000D01*
X84410000Y-108100000D02*
X86910000Y-108100000D01*
X84410000Y-112600000D02*
X87410000Y-112600000D01*
X87410000Y-112600000D02*
X87910000Y-112100000D01*
X87910000Y-111100000D02*
X87910000Y-112100000D01*
X88410000Y-105900000D02*
X92910000Y-105900000D01*
X88410000Y-106600000D02*
X88410000Y-105900000D01*
X91910000Y-97400000D02*
X92910000Y-97400000D01*
X92910000Y-97400000D02*
X92910000Y-98400000D01*
X92910000Y-105900000D02*
X92910000Y-106400000D01*
X92910000Y-110000000D02*
X92910000Y-110600000D01*
X92910000Y-110400000D02*
X92910000Y-111400000D01*
X92910000Y-110600000D02*
X88410000Y-110600000D01*
X92910000Y-111400000D02*
X91910000Y-111400000D01*
X87910000Y-111100000D02*
G75*
G02*
X88410000Y-110600000I500000J0D01*
G01*
X88410000Y-106600000D02*
G75*
G02*
X86910000Y-108100000I-1500000J0D01*
G01*
X96910000Y-85400000D02*
X97910000Y-85400000D01*
X96910000Y-86400000D02*
X96910000Y-85400000D01*
X96910000Y-99400000D02*
X96910000Y-98400000D01*
X97910000Y-99400000D02*
X96910000Y-99400000D01*
X101910000Y-96600000D02*
X102410000Y-96100000D01*
X101910000Y-100100000D02*
X102410000Y-100600000D01*
X102410000Y-96100000D02*
X104910000Y-96100000D01*
X102410000Y-100600000D02*
X105410000Y-100600000D01*
X105410000Y-100600000D02*
X105910000Y-100100000D01*
X105910000Y-99100000D02*
X105910000Y-100100000D01*
X106410000Y-93900000D02*
X110910000Y-93900000D01*
X106410000Y-94600000D02*
X106410000Y-93900000D01*
X109910000Y-85400000D02*
X110910000Y-85400000D01*
X110910000Y-85400000D02*
X110910000Y-86400000D01*
X110910000Y-93900000D02*
X110910000Y-94400000D01*
X110910000Y-98000000D02*
X110910000Y-98600000D01*
X110910000Y-98400000D02*
X110910000Y-99400000D01*
X110910000Y-98600000D02*
X106410000Y-98600000D01*
X110910000Y-99400000D02*
X109910000Y-99400000D01*
X105910000Y-99100000D02*
G75*
G02*
X106410000Y-98600000I500000J0D01*
G01*
X106410000Y-94600000D02*
G75*
G02*
X104910000Y-96100000I-1500000J0D01*
G01*
X114910000Y-79400000D02*
X115910000Y-79400000D01*
X114910000Y-80400000D02*
X114910000Y-79400000D01*
X114910000Y-93400000D02*
X114910000Y-92400000D01*
X115910000Y-93400000D02*
X114910000Y-93400000D01*
X119910000Y-90600000D02*
X120410000Y-90100000D01*
X119910000Y-94100000D02*
X120410000Y-94600000D01*
X120410000Y-90100000D02*
X122910000Y-90100000D01*
X120410000Y-94600000D02*
X123410000Y-94600000D01*
X123410000Y-94600000D02*
X123910000Y-94100000D01*
X123910000Y-93100000D02*
X123910000Y-94100000D01*
X124410000Y-87900000D02*
X128910000Y-87900000D01*
X124410000Y-88600000D02*
X124410000Y-87900000D01*
X127910000Y-79400000D02*
X128910000Y-79400000D01*
X128910000Y-79400000D02*
X128910000Y-80400000D01*
X128910000Y-87900000D02*
X128910000Y-88400000D01*
X128910000Y-92000000D02*
X128910000Y-92600000D01*
X128910000Y-92400000D02*
X128910000Y-93400000D01*
X128910000Y-92600000D02*
X124410000Y-92600000D01*
X128910000Y-93400000D02*
X127910000Y-93400000D01*
X123910000Y-93100000D02*
G75*
G02*
X124410000Y-92600000I500000J0D01*
G01*
X124410000Y-88600000D02*
G75*
G02*
X122910000Y-90100000I-1500000J0D01*
G01*
X132910000Y-86025000D02*
X133910000Y-86025000D01*
X132910000Y-87025000D02*
X132910000Y-86025000D01*
X132910000Y-100025000D02*
X132910000Y-99025000D01*
X133910000Y-100025000D02*
X132910000Y-100025000D01*
X137910000Y-97225000D02*
X138410000Y-96725000D01*
X137910000Y-100725000D02*
X138410000Y-101225000D01*
X138410000Y-96725000D02*
X140910000Y-96725000D01*
X138410000Y-101225000D02*
X141410000Y-101225000D01*
X141410000Y-101225000D02*
X141910000Y-100725000D01*
X141910000Y-99725000D02*
X141910000Y-100725000D01*
X142410000Y-94525000D02*
X146910000Y-94525000D01*
X142410000Y-95225000D02*
X142410000Y-94525000D01*
X145910000Y-86025000D02*
X146910000Y-86025000D01*
X146910000Y-86025000D02*
X146910000Y-87025000D01*
X146910000Y-94525000D02*
X146910000Y-95025000D01*
X146910000Y-98625000D02*
X146910000Y-99225000D01*
X146910000Y-99025000D02*
X146910000Y-100025000D01*
X146910000Y-99225000D02*
X142410000Y-99225000D01*
X146910000Y-100025000D02*
X145910000Y-100025000D01*
X141910000Y-99725000D02*
G75*
G02*
X142410000Y-99225000I500000J0D01*
G01*
X142410000Y-95225000D02*
G75*
G02*
X140910000Y-96725000I-1500000J0D01*
G01*
X150910000Y-88400000D02*
X151910000Y-88400000D01*
X150910000Y-89400000D02*
X150910000Y-88400000D01*
X150910000Y-102400000D02*
X150910000Y-101400000D01*
X151910000Y-102400000D02*
X150910000Y-102400000D01*
X155910000Y-99600000D02*
X156410000Y-99100000D01*
X155910000Y-103100000D02*
X156410000Y-103600000D01*
X156410000Y-99100000D02*
X158910000Y-99100000D01*
X156410000Y-103600000D02*
X159410000Y-103600000D01*
X159410000Y-103600000D02*
X159910000Y-103100000D01*
X159910000Y-102100000D02*
X159910000Y-103100000D01*
X160410000Y-96900000D02*
X164910000Y-96900000D01*
X160410000Y-97600000D02*
X160410000Y-96900000D01*
X163910000Y-88400000D02*
X164910000Y-88400000D01*
X164910000Y-88400000D02*
X164910000Y-89400000D01*
X164910000Y-96900000D02*
X164910000Y-97400000D01*
X164910000Y-101000000D02*
X164910000Y-101600000D01*
X164910000Y-101400000D02*
X164910000Y-102400000D01*
X164910000Y-101600000D02*
X160410000Y-101600000D01*
X164910000Y-102400000D02*
X163910000Y-102400000D01*
X159910000Y-102100000D02*
G75*
G02*
X160410000Y-101600000I500000J0D01*
G01*
X160410000Y-97600000D02*
G75*
G02*
X158910000Y-99100000I-1500000J0D01*
G01*
X151130403Y-126107792D02*
X151300613Y-125122384D01*
X152115811Y-126278001D02*
X151130403Y-126107792D01*
X152577184Y-117731825D02*
X152662289Y-117239121D01*
X153275043Y-113691652D02*
X153377169Y-113100408D01*
X153343127Y-113297489D02*
X153513336Y-112312081D01*
X153377169Y-113100408D02*
X157811504Y-113866350D01*
X153513336Y-112312081D02*
X154498744Y-112482291D01*
X157011520Y-118497767D02*
X152577184Y-117731825D01*
X157130666Y-117807982D02*
X157011520Y-118497767D01*
X158389313Y-113458751D02*
X158559522Y-112473343D01*
X159137331Y-112065744D02*
X158559522Y-112473343D01*
X161327612Y-117010708D02*
X158864092Y-116585184D01*
X161905421Y-116603109D02*
X161327612Y-117010708D01*
X162093555Y-112576371D02*
X159137331Y-112065744D01*
X162501154Y-113154181D02*
X162093555Y-112576371D01*
X164926114Y-128490725D02*
X163940706Y-128320515D01*
X165096323Y-127505317D02*
X164926114Y-128490725D01*
X166323639Y-114524805D02*
X167309047Y-114695014D01*
X167309047Y-114695014D02*
X167138837Y-115680422D01*
X157130666Y-117807982D02*
G75*
G02*
X158864092Y-116585184I1478112J-255314D01*
G01*
X158389313Y-113458751D02*
G75*
G02*
X157811504Y-113866350I-492704J85105D01*
G01*
X169786629Y-129763982D02*
X170118791Y-128820759D01*
X170729852Y-130096143D02*
X169786629Y-129763982D01*
X172609999Y-121746589D02*
X172776080Y-121274978D01*
X173971860Y-117879376D02*
X174171156Y-117313444D01*
X174104724Y-117502087D02*
X174436885Y-116558864D01*
X174171156Y-117313444D02*
X178415658Y-118808168D01*
X174436885Y-116558864D02*
X175380108Y-116891026D01*
X176854501Y-123241314D02*
X172609999Y-121746589D01*
X177087014Y-122581059D02*
X176854501Y-123241314D01*
X179053350Y-118502637D02*
X179385511Y-117559414D01*
X180023203Y-117253884D02*
X179385511Y-117559414D01*
X181358146Y-122494869D02*
X179000090Y-121664466D01*
X181995838Y-122189338D02*
X181358146Y-122494869D01*
X182852871Y-118250367D02*
X180023203Y-117253884D01*
X182991747Y-134414238D02*
X182048524Y-134082076D01*
X183158402Y-118888059D02*
X182852871Y-118250367D01*
X183323908Y-133471015D02*
X182991747Y-134414238D01*
X186698780Y-120876959D02*
X187642003Y-121209120D01*
X187642003Y-121209120D02*
X187309841Y-122152343D01*
X177087014Y-122581059D02*
G75*
G02*
X179000090Y-121664466I1414834J-498241D01*
G01*
X179053350Y-118502637D02*
G75*
G02*
X178415658Y-118808167I-471611J166081D01*
G01*
X187968382Y-136834806D02*
X188453191Y-135960186D01*
X188843001Y-137319615D02*
X187968382Y-136834806D01*
X192089263Y-129400538D02*
X192331668Y-128963228D01*
X194076983Y-125814597D02*
X194367869Y-125289825D01*
X194270907Y-125464749D02*
X194755716Y-124590130D01*
X194367869Y-125289825D02*
X198303657Y-127471468D01*
X194755716Y-124590130D02*
X195630336Y-125074939D01*
X196025052Y-131582181D02*
X192089263Y-129400538D01*
X196364419Y-130969948D02*
X196025052Y-131582181D01*
X198983372Y-127276564D02*
X199468182Y-126401944D01*
X200147896Y-126207039D02*
X199468182Y-126401944D01*
X200213058Y-143622140D02*
X199338438Y-143137331D01*
X200590112Y-131597257D02*
X198403563Y-130385232D01*
X200697867Y-142747521D02*
X200213058Y-143622140D01*
X201269827Y-131402351D02*
X200590112Y-131597257D01*
X202771755Y-127661468D02*
X200147896Y-126207039D01*
X202966660Y-128341182D02*
X202771755Y-127661468D01*
X206125773Y-130892655D02*
X207000392Y-131377464D01*
X207000392Y-131377464D02*
X206515583Y-132252084D01*
X196364419Y-130969948D02*
G75*
G02*
X198403562Y-130385233I1311929J-727214D01*
G01*
X198983372Y-127276564D02*
G75*
G02*
X198303657Y-127471469I-437310J242405D01*
G01*
X169676400Y-56330400D02*
X172216400Y-56330400D01*
X169676400Y-86810400D02*
X169676400Y-56330400D01*
X172216400Y-56330400D02*
X172216400Y-86810400D01*
X172216400Y-86810400D02*
X169676400Y-86810400D01*
X184896400Y-56330400D02*
X187436400Y-56330400D01*
X184896400Y-86810400D02*
X184896400Y-56330400D01*
X187436400Y-56330400D02*
X187436400Y-86810400D01*
X187436400Y-86810400D02*
X184896400Y-86810400D01*
X176861000Y-88596000D02*
X178639000Y-88596000D01*
X176861000Y-90882000D02*
X176861000Y-88596000D01*
X178639000Y-88596000D02*
X178639000Y-90882000D01*
X178639000Y-90882000D02*
X176861000Y-90882000D01*
X171510000Y-91197400D02*
X183950000Y-91197400D01*
X171510000Y-93497400D02*
X171510000Y-91197400D01*
X171510000Y-93497400D02*
X183950000Y-93497400D01*
X183950000Y-91197400D02*
X183950000Y-93497400D01*
X174311000Y-88596000D02*
X176089000Y-88596000D01*
X174311000Y-90882000D02*
X174311000Y-88596000D01*
X176089000Y-88596000D02*
X176089000Y-90882000D01*
X176089000Y-90882000D02*
X174311000Y-90882000D01*
X171771000Y-88594400D02*
X173549000Y-88594400D01*
X171771000Y-90880400D02*
X171771000Y-88594400D01*
X173549000Y-88594400D02*
X173549000Y-90880400D01*
X173549000Y-90880400D02*
X171771000Y-90880400D01*
X179441000Y-88596000D02*
X181219000Y-88596000D01*
X179441000Y-90882000D02*
X179441000Y-88596000D01*
X181219000Y-88596000D02*
X181219000Y-90882000D01*
X181219000Y-90882000D02*
X179441000Y-90882000D01*
D14*
X184700000Y-94850000D02*
X184700000Y-98150000D01*
X184700000Y-98150000D02*
X185000000Y-98150000D01*
X185000000Y-94850000D02*
X184700000Y-94850000D01*
X187200000Y-94850000D02*
X187500000Y-94850000D01*
X187500000Y-94850000D02*
X187500000Y-98150000D01*
X187500000Y-98150000D02*
X187200000Y-98150000D01*
D10*
X182021000Y-88596000D02*
X183799000Y-88596000D01*
X182021000Y-90882000D02*
X182021000Y-88596000D01*
X183799000Y-88596000D02*
X183799000Y-90882000D01*
X183799000Y-90882000D02*
X182021000Y-90882000D01*
X101170000Y-102540000D02*
X101170000Y-104040000D01*
X101170000Y-104040000D02*
X106570000Y-104040000D01*
X103370000Y-102790000D02*
X103370000Y-103790000D01*
X103470000Y-103290000D02*
X104370000Y-102790000D01*
X104370000Y-102790000D02*
X104370000Y-103790000D01*
X104370000Y-103790000D02*
X103470000Y-103290000D01*
X106570000Y-102540000D02*
X101170000Y-102540000D01*
X106570000Y-104040000D02*
X106570000Y-102540000D01*
X96910000Y-102400000D02*
X97910000Y-102400000D01*
X96910000Y-103400000D02*
X96910000Y-102400000D01*
X96910000Y-116400000D02*
X96910000Y-115400000D01*
X97910000Y-116400000D02*
X96910000Y-116400000D01*
X101910000Y-113600000D02*
X102410000Y-113100000D01*
X101910000Y-117100000D02*
X102410000Y-117600000D01*
X102410000Y-113100000D02*
X104910000Y-113100000D01*
X102410000Y-117600000D02*
X105410000Y-117600000D01*
X105410000Y-117600000D02*
X105910000Y-117100000D01*
X105910000Y-116100000D02*
X105910000Y-117100000D01*
X106410000Y-110900000D02*
X110910000Y-110900000D01*
X106410000Y-111600000D02*
X106410000Y-110900000D01*
X109910000Y-102400000D02*
X110910000Y-102400000D01*
X110910000Y-102400000D02*
X110910000Y-103400000D01*
X110910000Y-110900000D02*
X110910000Y-111400000D01*
X110910000Y-115000000D02*
X110910000Y-115600000D01*
X110910000Y-115400000D02*
X110910000Y-116400000D01*
X110910000Y-115600000D02*
X106410000Y-115600000D01*
X110910000Y-116400000D02*
X109910000Y-116400000D01*
X105910000Y-116100000D02*
G75*
G02*
X106410000Y-115600000I500000J0D01*
G01*
X106410000Y-111600000D02*
G75*
G02*
X104910000Y-113100000I-1500000J0D01*
G01*
X168611000Y-90157380D02*
X170389000Y-90157380D01*
X168611000Y-92443380D02*
X168611000Y-90157380D01*
X170389000Y-90157380D02*
X170389000Y-92443380D01*
X170389000Y-92443380D02*
X168611000Y-92443380D01*
D14*
X168727064Y-107515000D02*
X168272936Y-107515000D01*
X168727064Y-108985000D02*
X168272936Y-108985000D01*
D10*
X174800000Y-53937500D02*
X181400000Y-53937500D01*
X174800000Y-56637500D02*
X174800000Y-53937500D01*
X178300000Y-53937500D02*
X178300000Y-52437500D01*
X179600000Y-52437500D02*
X178300000Y-52437500D01*
X179600000Y-53937500D02*
X179600000Y-52437500D01*
X181400000Y-53937500D02*
X181400000Y-56637500D01*
X181400000Y-56637500D02*
X174800000Y-56637500D01*
D14*
X168727064Y-109865000D02*
X168272936Y-109865000D01*
X168727064Y-111335000D02*
X168272936Y-111335000D01*
X124504814Y-118526457D02*
X125229507Y-115821865D01*
X126134014Y-108196128D02*
X126713569Y-108351419D01*
X126346146Y-108563550D02*
X126134014Y-108196128D01*
X126713569Y-108351419D02*
X126346146Y-108563550D01*
X127765934Y-106355791D02*
X127118886Y-108770606D01*
X129237851Y-119794670D02*
X124504814Y-118526457D01*
X132124114Y-114045803D02*
X133090040Y-114304622D01*
X132402378Y-107598123D02*
X127765934Y-106355791D01*
X132736487Y-113692248D02*
X132477668Y-114658174D01*
X135976303Y-108555753D02*
X140709340Y-109823966D01*
X137448220Y-121994632D02*
X132715184Y-120726418D01*
X138121149Y-119483224D02*
X137448220Y-121994632D01*
X139415245Y-114653595D02*
X138742315Y-117165003D01*
X140709340Y-109823966D02*
X140036413Y-112335374D01*
X135607078Y-114175212D02*
G75*
G02*
X129607076Y-114175212I-3000001J0D01*
G01*
X129607076Y-114175212D02*
G75*
G02*
X135607078Y-114175212I3000001J0D01*
G01*
D12*
X173140000Y-98400000D02*
X173140000Y-99400000D01*
X173140000Y-99400000D02*
X172140000Y-99400000D01*
X173140000Y-99400000D02*
X173140000Y-100400000D01*
X174140000Y-99400000D02*
X173140000Y-99400000D01*
X175740000Y-99400000D02*
X174740000Y-99400000D01*
X176740000Y-99400000D02*
X175740000Y-99400000D01*
D14*
X175072936Y-64665000D02*
X175527064Y-64665000D01*
X175072936Y-66135000D02*
X175527064Y-66135000D01*
D10*
X174800000Y-53937500D02*
X174800000Y-56637500D01*
X174800000Y-56637500D02*
X181400000Y-56637500D01*
X178300000Y-52437500D02*
X178300000Y-53937500D01*
X178300000Y-52437500D02*
X179600000Y-52437500D01*
X179600000Y-52437500D02*
X179600000Y-53937500D01*
X181400000Y-53937500D02*
X174800000Y-53937500D01*
X181400000Y-56637500D02*
X181400000Y-53937500D01*
D16*
X82194400Y-64312800D03*
D17*
X89814400Y-64312800D03*
D16*
X100279200Y-52273200D03*
D17*
X107899200Y-52273200D03*
D16*
X118262400Y-46228000D03*
D17*
X125882400Y-46228000D03*
D16*
X136194800Y-53289200D03*
D17*
X143814800Y-53289200D03*
D16*
X154178000Y-55422800D03*
D17*
X161798000Y-55422800D03*
D16*
X82092800Y-81229200D03*
D17*
X89712800Y-81229200D03*
D16*
X100076000Y-69342000D03*
D17*
X107696000Y-69342000D03*
D16*
X118160800Y-63347600D03*
D17*
X125780800Y-63347600D03*
D16*
X136144000Y-69900800D03*
D17*
X143764000Y-69900800D03*
D16*
X154482800Y-72491600D03*
D17*
X162102800Y-72491600D03*
D16*
X82092800Y-98247200D03*
D17*
X89712800Y-98247200D03*
D16*
X100177600Y-86309200D03*
D17*
X107797600Y-86309200D03*
D16*
X118160800Y-80314800D03*
D17*
X125780800Y-80314800D03*
D16*
X136245600Y-86969600D03*
D17*
X143865600Y-86969600D03*
D16*
X154279600Y-89357200D03*
D17*
X161899600Y-89357200D03*
D18*
X154379898Y-125740731D03*
D17*
X161888706Y-127037727D03*
D19*
X173128321Y-129965695D03*
D17*
X180315677Y-132496765D03*
D20*
X191139589Y-137610567D03*
D17*
X197804191Y-141304817D03*
D21*
X186460000Y-104950000D03*
X179460000Y-104950000D03*
X186460000Y-106700000D03*
X179460000Y-106700000D03*
D22*
X176160000Y-104600000D03*
X176160000Y-107050000D03*
X184660000Y-102850000D03*
X184660000Y-108800000D03*
X181660000Y-102850000D03*
X181660000Y-108800000D03*
X177660000Y-102850000D03*
X177660000Y-108800000D03*
D23*
X169620000Y-58870400D03*
X186166400Y-57600400D03*
X169620000Y-61410400D03*
X186166400Y-60140400D03*
X169620000Y-63950400D03*
X186166400Y-62680400D03*
X169620000Y-66490400D03*
X186166400Y-65220400D03*
X169620000Y-69030400D03*
X186166400Y-67760400D03*
X169620000Y-71570400D03*
X186166400Y-70300400D03*
X169620000Y-74110400D03*
X186166400Y-72840400D03*
X169620000Y-76650400D03*
X186166400Y-75380400D03*
X169620000Y-79190400D03*
X186166400Y-77920400D03*
X169620000Y-81730400D03*
X186166400Y-80460400D03*
X169620000Y-84270400D03*
X186166400Y-83000400D03*
X169620000Y-86810400D03*
X186166400Y-85540400D03*
X170946400Y-85540400D03*
X184860000Y-86810400D03*
X170946400Y-83000400D03*
X184860000Y-84270400D03*
X170946400Y-80460400D03*
X184860000Y-81730400D03*
X170946400Y-77920400D03*
X184860000Y-79190400D03*
X170946400Y-75380400D03*
X184860000Y-76650400D03*
X170946400Y-72840400D03*
X184860000Y-74110400D03*
X170946400Y-70300400D03*
X184860000Y-71570400D03*
X170946400Y-67760400D03*
X184860000Y-69030400D03*
X170946400Y-65220400D03*
X184860000Y-66490400D03*
X170946400Y-62680400D03*
X184860000Y-63950400D03*
X170946400Y-60140400D03*
X184860000Y-61410400D03*
X170946400Y-57600400D03*
X184860000Y-58870400D03*
D16*
X100060000Y-103290000D03*
D17*
X107680000Y-103290000D03*
%LPC*%
D24*
X82194400Y-64312800D03*
D25*
X84229400Y-64312800D03*
X87779400Y-64312800D03*
D26*
X89814400Y-64312800D03*
D24*
X100279200Y-52273200D03*
D25*
X102314200Y-52273200D03*
X105864200Y-52273200D03*
D26*
X107899200Y-52273200D03*
D24*
X118262400Y-46228000D03*
D25*
X120297400Y-46228000D03*
X123847400Y-46228000D03*
D26*
X125882400Y-46228000D03*
D24*
X136194800Y-53289200D03*
D25*
X138229800Y-53289200D03*
X141779800Y-53289200D03*
D26*
X143814800Y-53289200D03*
D24*
X154178000Y-55422800D03*
D25*
X156213000Y-55422800D03*
X159763000Y-55422800D03*
D26*
X161798000Y-55422800D03*
D24*
X82092800Y-81229200D03*
D25*
X84127800Y-81229200D03*
X87677800Y-81229200D03*
D26*
X89712800Y-81229200D03*
D24*
X100076000Y-69342000D03*
D25*
X102111000Y-69342000D03*
X105661000Y-69342000D03*
D26*
X107696000Y-69342000D03*
D24*
X118160800Y-63347600D03*
D25*
X120195800Y-63347600D03*
X123745800Y-63347600D03*
D26*
X125780800Y-63347600D03*
D24*
X136144000Y-69900800D03*
D25*
X138179000Y-69900800D03*
X141729000Y-69900800D03*
D26*
X143764000Y-69900800D03*
D24*
X154482800Y-72491600D03*
D25*
X156517800Y-72491600D03*
X160067800Y-72491600D03*
D26*
X162102800Y-72491600D03*
D24*
X82092800Y-98247200D03*
D25*
X84127800Y-98247200D03*
X87677800Y-98247200D03*
D26*
X89712800Y-98247200D03*
D24*
X100177600Y-86309200D03*
D25*
X102212600Y-86309200D03*
X105762600Y-86309200D03*
D26*
X107797600Y-86309200D03*
D24*
X118160800Y-80314800D03*
D25*
X120195800Y-80314800D03*
X123745800Y-80314800D03*
D26*
X125780800Y-80314800D03*
D24*
X136245600Y-86969600D03*
D25*
X138280600Y-86969600D03*
X141830600Y-86969600D03*
D26*
X143865600Y-86969600D03*
D24*
X154279600Y-89357200D03*
D25*
X156314600Y-89357200D03*
X159864600Y-89357200D03*
D26*
X161899600Y-89357200D03*
D27*
X154379898Y-125740731D03*
D28*
X156385203Y-126087107D03*
X159883401Y-126691351D03*
D26*
X161888706Y-127037727D03*
D29*
X173128321Y-129965695D03*
D30*
X175047779Y-130641644D03*
X178396219Y-131820816D03*
D26*
X180315677Y-132496765D03*
D31*
X191139589Y-137610567D03*
D32*
X192919440Y-138597155D03*
X196024340Y-140318229D03*
D26*
X197804191Y-141304817D03*
D33*
X186460000Y-104950000D03*
X179460000Y-104950000D03*
X186460000Y-106700000D03*
X179460000Y-106700000D03*
D34*
X176160000Y-104600000D03*
X176160000Y-107050000D03*
X184660000Y-102850000D03*
X184660000Y-108800000D03*
X181660000Y-102850000D03*
X181660000Y-108800000D03*
X177660000Y-102850000D03*
X177660000Y-108800000D03*
D35*
X80410000Y-70400000D03*
D36*
X80690000Y-66200000D03*
D37*
X80910000Y-74150000D03*
D38*
X85910000Y-70400000D03*
D37*
X85910000Y-76350000D03*
X90910000Y-74150000D03*
D36*
X91130000Y-66200000D03*
D35*
X91410000Y-70400000D03*
D39*
X82635000Y-76350000D03*
D40*
X94185000Y-74150000D03*
D35*
X98410000Y-58400000D03*
D36*
X98690000Y-54200000D03*
D37*
X98910000Y-62150000D03*
D38*
X103910000Y-58400000D03*
D37*
X103910000Y-64350000D03*
X108910000Y-62150000D03*
D36*
X109130000Y-54200000D03*
D35*
X109410000Y-58400000D03*
D39*
X100635000Y-64350000D03*
D40*
X112185000Y-62150000D03*
D35*
X116410000Y-52400000D03*
D36*
X116690000Y-48200000D03*
D37*
X116910000Y-56150000D03*
D38*
X121910000Y-52400000D03*
D37*
X121910000Y-58350000D03*
X126910000Y-56150000D03*
D36*
X127130000Y-48200000D03*
D35*
X127410000Y-52400000D03*
D39*
X118635000Y-58350000D03*
D40*
X130185000Y-56150000D03*
D35*
X134410000Y-59020000D03*
D36*
X134690000Y-54820000D03*
D37*
X134910000Y-62770000D03*
D38*
X139910000Y-59020000D03*
D37*
X139910000Y-64970000D03*
X144910000Y-62770000D03*
D36*
X145130000Y-54820000D03*
D35*
X145410000Y-59020000D03*
D39*
X136635000Y-64970000D03*
D40*
X148185000Y-62770000D03*
D35*
X152410000Y-61400000D03*
D36*
X152690000Y-57200000D03*
D37*
X152910000Y-65150000D03*
D38*
X157910000Y-61400000D03*
D37*
X157910000Y-67350000D03*
X162910000Y-65150000D03*
D36*
X163130000Y-57200000D03*
D35*
X163410000Y-61400000D03*
D39*
X154635000Y-67350000D03*
D40*
X166185000Y-65150000D03*
D35*
X80410000Y-87400000D03*
D36*
X80690000Y-83200000D03*
D37*
X80910000Y-91150000D03*
D38*
X85910000Y-87400000D03*
D37*
X85910000Y-93350000D03*
X90910000Y-91150000D03*
D36*
X91130000Y-83200000D03*
D35*
X91410000Y-87400000D03*
D39*
X82635000Y-93350000D03*
D40*
X94185000Y-91150000D03*
D35*
X98410000Y-75400000D03*
D36*
X98690000Y-71200000D03*
D37*
X98910000Y-79150000D03*
D38*
X103910000Y-75400000D03*
D37*
X103910000Y-81350000D03*
X108910000Y-79150000D03*
D36*
X109130000Y-71200000D03*
D35*
X109410000Y-75400000D03*
D39*
X100635000Y-81350000D03*
D40*
X112185000Y-79150000D03*
D35*
X116410000Y-69400000D03*
D36*
X116690000Y-65200000D03*
D37*
X116910000Y-73150000D03*
D38*
X121910000Y-69400000D03*
D37*
X121910000Y-75350000D03*
X126910000Y-73150000D03*
D36*
X127130000Y-65200000D03*
D35*
X127410000Y-69400000D03*
D39*
X118635000Y-75350000D03*
D40*
X130185000Y-73150000D03*
D35*
X134410000Y-76020000D03*
D36*
X134690000Y-71820000D03*
D37*
X134910000Y-79770000D03*
D38*
X139910000Y-76020000D03*
D37*
X139910000Y-81970000D03*
X144910000Y-79770000D03*
D36*
X145130000Y-71820000D03*
D35*
X145410000Y-76020000D03*
D39*
X136635000Y-81970000D03*
D40*
X148185000Y-79770000D03*
D35*
X152410000Y-78400000D03*
D36*
X152690000Y-74200000D03*
D37*
X152910000Y-82150000D03*
D38*
X157910000Y-78400000D03*
D37*
X157910000Y-84350000D03*
X162910000Y-82150000D03*
D36*
X163130000Y-74200000D03*
D35*
X163410000Y-78400000D03*
D39*
X154635000Y-84350000D03*
D40*
X166185000Y-82150000D03*
D35*
X80410000Y-104400000D03*
D36*
X80690000Y-100200000D03*
D37*
X80910000Y-108150000D03*
D38*
X85910000Y-104400000D03*
D37*
X85910000Y-110350000D03*
X90910000Y-108150000D03*
D36*
X91130000Y-100200000D03*
D35*
X91410000Y-104400000D03*
D39*
X82635000Y-110350000D03*
D41*
X93810000Y-108150000D03*
D35*
X98410000Y-92400000D03*
D36*
X98690000Y-88200000D03*
D37*
X98910000Y-96150000D03*
D38*
X103910000Y-92400000D03*
D37*
X103910000Y-98350000D03*
X108910000Y-96150000D03*
D36*
X109130000Y-88200000D03*
D35*
X109410000Y-92400000D03*
D39*
X100635000Y-98350000D03*
D40*
X112185000Y-96150000D03*
D35*
X116410000Y-86400000D03*
D36*
X116690000Y-82200000D03*
D37*
X116910000Y-90150000D03*
D38*
X121910000Y-86400000D03*
D37*
X121910000Y-92350000D03*
X126910000Y-90150000D03*
D36*
X127130000Y-82200000D03*
D35*
X127410000Y-86400000D03*
D39*
X118635000Y-92350000D03*
D40*
X130185000Y-90150000D03*
D35*
X134410000Y-93025000D03*
D36*
X134690000Y-88825000D03*
D37*
X134910000Y-96775000D03*
D38*
X139910000Y-93025000D03*
D37*
X139910000Y-98975000D03*
X144910000Y-96775000D03*
D36*
X145130000Y-88825000D03*
D35*
X145410000Y-93025000D03*
D39*
X136635000Y-98975000D03*
D40*
X148185000Y-96775000D03*
D35*
X152410000Y-95400000D03*
D36*
X152690000Y-91200000D03*
D37*
X152910000Y-99150000D03*
D38*
X157910000Y-95400000D03*
D37*
X157910000Y-101350000D03*
X162910000Y-99150000D03*
D36*
X163130000Y-91200000D03*
D35*
X163410000Y-95400000D03*
D39*
X154635000Y-101350000D03*
D40*
X166185000Y-99150000D03*
D35*
X164639468Y-121337555D03*
D36*
X163648674Y-125428610D03*
D37*
X164785050Y-117557171D03*
D38*
X159219725Y-120401403D03*
D37*
X160232472Y-114538226D03*
X154930971Y-115855076D03*
D36*
X153361016Y-123651623D03*
D35*
X153799982Y-119465251D03*
D42*
X163459682Y-115095662D03*
D43*
X151703760Y-115297640D03*
D35*
X183902041Y-127313437D03*
D36*
X182242862Y-131181967D03*
D37*
X184676034Y-123610272D03*
D38*
X178714316Y-125486551D03*
D37*
X180690675Y-119874376D03*
X175243807Y-120288660D03*
D36*
X172395617Y-127714205D03*
D35*
X173526591Y-123659665D03*
D44*
X183779729Y-120962204D03*
D45*
X172154753Y-119200833D03*
D35*
X202294795Y-136772588D03*
D36*
X200013701Y-140310244D03*
D37*
X203675522Y-133250359D03*
D38*
X197484387Y-134106135D03*
D37*
X200369004Y-128902148D03*
X194929325Y-128402263D03*
D36*
X190882672Y-135248832D03*
D35*
X192673979Y-131439682D03*
D46*
X203233384Y-130489899D03*
D47*
X192064945Y-126814511D03*
D48*
X169620000Y-58870400D03*
X186166400Y-57600400D03*
X169620000Y-61410400D03*
X186166400Y-60140400D03*
X169620000Y-63950400D03*
X186166400Y-62680400D03*
X169620000Y-66490400D03*
X186166400Y-65220400D03*
X169620000Y-69030400D03*
X186166400Y-67760400D03*
X169620000Y-71570400D03*
X186166400Y-70300400D03*
X169620000Y-74110400D03*
X186166400Y-72840400D03*
X169620000Y-76650400D03*
X186166400Y-75380400D03*
X169620000Y-79190400D03*
X186166400Y-77920400D03*
X169620000Y-81730400D03*
X186166400Y-80460400D03*
X169620000Y-84270400D03*
X186166400Y-83000400D03*
X169620000Y-86810400D03*
X186166400Y-85540400D03*
X170946400Y-85540400D03*
X184860000Y-86810400D03*
X170946400Y-83000400D03*
X184860000Y-84270400D03*
X170946400Y-80460400D03*
X184860000Y-81730400D03*
X170946400Y-77920400D03*
X184860000Y-79190400D03*
X170946400Y-75380400D03*
X184860000Y-76650400D03*
X170946400Y-72840400D03*
X184860000Y-74110400D03*
X170946400Y-70300400D03*
X184860000Y-71570400D03*
X170946400Y-67760400D03*
X184860000Y-69030400D03*
X170946400Y-65220400D03*
X184860000Y-66490400D03*
X170946400Y-62680400D03*
X184860000Y-63950400D03*
X170946400Y-60140400D03*
X184860000Y-61410400D03*
X170946400Y-57600400D03*
X184860000Y-58870400D03*
D49*
X177750000Y-89238620D03*
X177750000Y-90239380D03*
X175200000Y-89238620D03*
X175200000Y-90239380D03*
X172660000Y-89237020D03*
X172660000Y-90237780D03*
X180330000Y-89238620D03*
X180330000Y-90239380D03*
D50*
X186100000Y-94800000D03*
X186100000Y-98200000D03*
D51*
X112900000Y-66900000D03*
D49*
X182910000Y-89238620D03*
X182910000Y-90239380D03*
D24*
X100060000Y-103290000D03*
D25*
X102095000Y-103290000D03*
X105645000Y-103290000D03*
D26*
X107680000Y-103290000D03*
D35*
X98410000Y-109400000D03*
D36*
X98690000Y-105200000D03*
D37*
X98910000Y-113150000D03*
D52*
X103910000Y-109400000D03*
D37*
X103910000Y-115350000D03*
X108910000Y-113150000D03*
D36*
X109130000Y-105200000D03*
D35*
X109410000Y-109400000D03*
D39*
X100635000Y-115350000D03*
D40*
X112185000Y-113150000D03*
D53*
X169500000Y-91800760D03*
X169500000Y-90800000D03*
D51*
X187000000Y-132200000D03*
X94925000Y-66900000D03*
X149000000Y-86900000D03*
X183700000Y-114200000D03*
D54*
X169500000Y-108250000D03*
X167500000Y-108250000D03*
D55*
X179600000Y-55287500D03*
X176600000Y-55287500D03*
D56*
X180350000Y-57287500D03*
X177350000Y-57287500D03*
X175850000Y-57287500D03*
D57*
X181950000Y-56337500D03*
X181950000Y-54237500D03*
X174250000Y-56337500D03*
X174250000Y-54237500D03*
D54*
X169500000Y-110600000D03*
X167500000Y-110600000D03*
D51*
X119000000Y-108000000D03*
D58*
X126009681Y-109819254D03*
D59*
X124715586Y-114648883D03*
X125362634Y-112234069D03*
D60*
X134056463Y-108766027D03*
X131157690Y-119584396D03*
D59*
X140015605Y-113572130D03*
X138721510Y-118401759D03*
D51*
X113000000Y-83900000D03*
D61*
X175740000Y-97200000D03*
D62*
X173200000Y-97200000D03*
D51*
X148975000Y-69900000D03*
X172130000Y-102740000D03*
X146200000Y-113400000D03*
D63*
X174300000Y-65400000D03*
X176300000Y-65400000D03*
D51*
X94925000Y-83925000D03*
D55*
X176600000Y-55287500D03*
X179600000Y-55287500D03*
D64*
X175850000Y-57287500D03*
X177350000Y-57287500D03*
X180350000Y-57287500D03*
D65*
X174250000Y-54237500D03*
X174250000Y-56337500D03*
X181950000Y-54237500D03*
X181950000Y-56337500D03*
G36*
X124843039Y-96919685D02*
G01*
X124888794Y-96972489D01*
X124900000Y-97024000D01*
X124900000Y-104276000D01*
X124880315Y-104343039D01*
X124827511Y-104388794D01*
X124776000Y-104400000D01*
X115524000Y-104400000D01*
X115456961Y-104380315D01*
X115411206Y-104327511D01*
X115400000Y-104276000D01*
X115400000Y-97024000D01*
X115419685Y-96956961D01*
X115472489Y-96911206D01*
X115524000Y-96900000D01*
X124776000Y-96900000D01*
X124843039Y-96919685D01*
G37*
%LPD*%
M02*
