M48
; DRILL file {KiCad 8.0.1} date 2024-07-30T22:50:06+0200
; FORMAT={-:-/ absolute / metric / decimal}
; #@! TF.CreationDate,2024-07-30T22:50:06+02:00
; #@! TF.GenerationSoftware,Kicad,Pcbnew,8.0.1
; #@! TF.FileFunction,Plated,1,2,PTH
FMAT,2
METRIC
; #@! TA.AperFunction,Plated,PTH,ViaDrill
T1C0.400
; #@! TA.AperFunction,Plated,PTH,ComponentDrill
T2C0.813
; #@! TA.AperFunction,Plated,PTH,ComponentDrill
T3C1.000
; #@! TA.AperFunction,Plated,PTH,ComponentDrill
T4C1.300
; #@! TA.AperFunction,Plated,PTH,ComponentDrill
T5C2.200
%
G90
G05
T1
X82.635Y-76.35
X82.635Y-93.35
X82.635Y-110.35
X89.662Y-84.455
X92.253Y-93.878
X93.65Y-108.15
X93.878Y-98.603
X94.185Y-74.15
X94.185Y-91.15
X94.59Y-93.777
X100.635Y-64.35
X100.635Y-81.35
X100.635Y-98.35
X111.15Y-52.375
X111.303Y-86.614
X111.76Y-70.206
X112.185Y-62.15
X112.185Y-79.15
X112.185Y-96.15
X118.48Y-96.334
X118.635Y-58.35
X118.635Y-75.35
X118.635Y-92.35
X121.768Y-65.43
X129.083Y-80.874
X129.388Y-46.33
X129.489Y-63.652
X130.185Y-56.15
X130.185Y-73.15
X130.185Y-90.15
X136.635Y-64.97
X136.635Y-81.97
X136.635Y-98.975
X138.532Y-72.746
X147.218Y-100.99
X148.031Y-53.442
X148.133Y-87.071
X148.185Y-62.77
X148.185Y-79.77
X148.185Y-96.775
X154.635Y-67.35
X154.635Y-84.35
X154.635Y-101.35
X163.46Y-115.096
X164.75Y-74.4
X165.913Y-89.408
X166.116Y-55.524
X166.116Y-73.863
X166.185Y-65.15
X166.185Y-82.15
X166.185Y-99.15
X166.4Y-102.89
X166.809Y-57.774
X167.234Y-70.663
X168.2Y-103.2
X168.772Y-91.85
X171.362Y-91.538
X172.125Y-84.35
X172.8Y-77.75
X173.355Y-86.117
X173.95Y-84.45
X174.25Y-54.237
X174.25Y-56.337
X174.7Y-86.05
X174.9Y-57.65
X176.25Y-84.4
X176.717Y-81.731
X176.874Y-86.626
X176.9Y-69.03
X177.0Y-71.57
X177.0Y-79.19
X177.05Y-74.11
X177.05Y-76.65
X177.35Y-57.287
X178.35Y-81.85
X178.425Y-69.655
X178.6Y-77.3
X178.6Y-80.175
X178.65Y-74.9
X178.652Y-72.195
X178.75Y-85.9
X178.8Y-84.75
X179.7Y-104.9
X181.251Y-86.025
X181.95Y-54.237
X181.95Y-56.337
X182.808Y-86.442
X183.305Y-58.005
X183.78Y-120.962
X185.7Y-90.05
X203.233Y-130.49
T2
X82.093Y-81.229
X82.093Y-98.247
X82.194Y-64.313
X89.713Y-81.229
X89.713Y-98.247
X89.814Y-64.313
X100.076Y-69.342
X100.178Y-86.309
X100.279Y-52.273
X107.696Y-69.342
X107.798Y-86.309
X107.899Y-52.273
X118.161Y-63.348
X118.161Y-80.315
X118.262Y-46.228
X125.781Y-63.348
X125.781Y-80.315
X125.882Y-46.228
X136.144Y-69.901
X136.195Y-53.289
X136.246Y-86.97
X143.764Y-69.901
X143.815Y-53.289
X143.866Y-86.97
X154.178Y-55.423
X154.28Y-89.357
X154.38Y-125.741
X154.483Y-72.492
X161.798Y-55.423
X161.889Y-127.038
X161.9Y-89.357
X162.103Y-72.492
X169.62Y-58.87
X169.62Y-61.41
X169.62Y-63.95
X169.62Y-66.49
X169.62Y-69.03
X169.62Y-71.57
X169.62Y-74.11
X169.62Y-76.65
X169.62Y-79.19
X169.62Y-81.73
X169.62Y-84.27
X169.62Y-86.81
X170.946Y-57.6
X170.946Y-60.14
X170.946Y-62.68
X170.946Y-65.22
X170.946Y-67.76
X170.946Y-70.3
X170.946Y-72.84
X170.946Y-75.38
X170.946Y-77.92
X170.946Y-80.46
X170.946Y-83.0
X170.946Y-85.54
X172.66Y-90.608
X173.128Y-129.966
X175.2Y-90.608
X177.74Y-90.608
X180.28Y-90.608
X180.316Y-132.497
X182.82Y-90.608
X184.86Y-58.87
X184.86Y-61.41
X184.86Y-63.95
X184.86Y-66.49
X184.86Y-69.03
X184.86Y-71.57
X184.86Y-74.11
X184.86Y-76.65
X184.86Y-79.19
X184.86Y-81.73
X184.86Y-84.27
X184.86Y-86.81
X186.166Y-57.6
X186.166Y-60.14
X186.166Y-62.68
X186.166Y-65.22
X186.166Y-67.76
X186.166Y-70.3
X186.166Y-72.84
X186.166Y-75.38
X186.166Y-77.92
X186.166Y-80.46
X186.166Y-83.0
X186.166Y-85.54
X191.14Y-137.611
X197.804Y-141.305
T3
X174.385Y-93.412
X176.925Y-93.412
T4
X179.503Y-93.853
X186.003Y-93.853
T5
X95.0Y-66.802
X95.0Y-83.82
X123.952Y-104.14
X148.971Y-69.85
X167.005Y-110.363
X171.323Y-96.901
X185.42Y-106.426
T3
X176.41Y-98.611G85X175.91Y-98.611
G05
X176.41Y-101.061G85X175.91Y-101.061
G05
X177.91Y-96.861G85X177.41Y-96.861
G05
X177.91Y-102.811G85X177.41Y-102.811
G05
X181.91Y-96.861G85X181.41Y-96.861
G05
X181.91Y-102.811G85X181.41Y-102.811
G05
X184.91Y-96.861G85X184.41Y-96.861
G05
X184.91Y-102.811G85X184.41Y-102.811
G05
M30
