M48
; DRILL file {KiCad 8.0.4} date 2024-08-06T21:25:22+0200
; FORMAT={-:-/ absolute / metric / decimal}
; #@! TF.CreationDate,2024-08-06T21:25:22+02:00
; #@! TF.GenerationSoftware,Kicad,Pcbnew,8.0.4
; #@! TF.FileFunction,NonPlated,1,2,NPTH
FMAT,2
METRIC
; #@! TA.AperFunction,NonPlated,NPTH,ComponentDrill
T1C0.900
; #@! TA.AperFunction,NonPlated,NPTH,ComponentDrill
T2C0.991
; #@! TA.AperFunction,NonPlated,NPTH,ComponentDrill
T3C1.200
; #@! TA.AperFunction,NonPlated,NPTH,ComponentDrill
T4C1.702
; #@! TA.AperFunction,NonPlated,NPTH,ComponentDrill
T5C3.000
; #@! TA.AperFunction,NonPlated,NPTH,ComponentDrill
T6C3.429
%
G90
G05
T1
X176.6Y-55.287
X176.6Y-55.287
X179.6Y-55.287
X179.6Y-55.287
T2
X80.69Y-66.2
X80.69Y-83.2
X80.69Y-100.2
X91.13Y-66.2
X91.13Y-83.2
X91.13Y-100.2
X98.69Y-54.2
X98.69Y-71.2
X98.69Y-88.2
X98.69Y-105.2
X109.13Y-54.2
X109.13Y-71.2
X109.13Y-88.2
X109.13Y-105.2
X116.69Y-48.2
X116.69Y-65.2
X116.69Y-82.2
X127.13Y-48.2
X127.13Y-65.2
X127.13Y-82.2
X134.69Y-54.82
X134.69Y-71.82
X134.69Y-88.825
X145.13Y-54.82
X145.13Y-71.82
X145.13Y-88.825
X152.69Y-57.2
X152.69Y-74.2
X152.69Y-91.2
X153.361Y-123.652
X163.13Y-57.2
X163.13Y-74.2
X163.13Y-91.2
X163.649Y-125.429
X172.396Y-127.714
X182.243Y-131.182
X190.883Y-135.249
X200.014Y-140.31
T3
X179.46Y-104.95
X179.46Y-106.7
X186.46Y-104.95
X186.46Y-106.7
T4
X80.41Y-70.4
X80.41Y-87.4
X80.41Y-104.4
X91.41Y-70.4
X91.41Y-87.4
X91.41Y-104.4
X98.41Y-58.4
X98.41Y-75.4
X98.41Y-92.4
X98.41Y-109.4
X109.41Y-58.4
X109.41Y-75.4
X109.41Y-92.4
X109.41Y-109.4
X116.41Y-52.4
X116.41Y-69.4
X116.41Y-86.4
X127.41Y-52.4
X127.41Y-69.4
X127.41Y-86.4
X134.41Y-59.02
X134.41Y-76.02
X134.41Y-93.025
X145.41Y-59.02
X145.41Y-76.02
X145.41Y-93.025
X152.41Y-61.4
X152.41Y-78.4
X152.41Y-95.4
X153.8Y-119.465
X163.41Y-61.4
X163.41Y-78.4
X163.41Y-95.4
X164.639Y-121.338
X173.527Y-123.66
X183.902Y-127.313
X192.674Y-131.44
X202.295Y-136.773
T5
X80.91Y-74.15
X80.91Y-91.15
X80.91Y-108.15
X85.91Y-76.35
X85.91Y-93.35
X85.91Y-110.35
X90.91Y-74.15
X90.91Y-91.15
X90.91Y-108.15
X98.91Y-62.15
X98.91Y-79.15
X98.91Y-96.15
X98.91Y-113.15
X103.91Y-64.35
X103.91Y-81.35
X103.91Y-98.35
X103.91Y-115.35
X108.91Y-62.15
X108.91Y-79.15
X108.91Y-96.15
X108.91Y-113.15
X116.91Y-56.15
X116.91Y-73.15
X116.91Y-90.15
X121.91Y-58.35
X121.91Y-75.35
X121.91Y-92.35
X126.91Y-56.15
X126.91Y-73.15
X126.91Y-90.15
X134.91Y-62.77
X134.91Y-79.77
X134.91Y-96.775
X139.91Y-64.97
X139.91Y-81.97
X139.91Y-98.975
X144.91Y-62.77
X144.91Y-79.77
X144.91Y-96.775
X152.91Y-65.15
X152.91Y-82.15
X152.91Y-99.15
X154.931Y-115.855
X157.91Y-67.35
X157.91Y-84.35
X157.91Y-101.35
X160.232Y-114.538
X162.91Y-65.15
X162.91Y-82.15
X162.91Y-99.15
X164.785Y-117.557
X175.244Y-120.289
X180.691Y-119.874
X184.676Y-123.61
X194.929Y-128.402
X200.369Y-128.902
X203.676Y-133.25
T6
X85.91Y-70.4
X85.91Y-87.4
X85.91Y-104.4
X103.91Y-58.4
X103.91Y-75.4
X103.91Y-92.4
X103.91Y-109.4
X121.91Y-52.4
X121.91Y-69.4
X121.91Y-86.4
X139.91Y-59.02
X139.91Y-76.02
X139.91Y-93.025
X157.91Y-61.4
X157.91Y-78.4
X157.91Y-95.4
X159.22Y-120.401
X178.714Y-125.487
X197.484Y-134.106
M30
