G04 #@! TF.GenerationSoftware,KiCad,Pcbnew,8.0.4*
G04 #@! TF.CreationDate,2024-08-06T21:25:20+02:00*
G04 #@! TF.ProjectId,chocofi,63686f63-6f66-4692-9e6b-696361645f70,0.2*
G04 #@! TF.SameCoordinates,Original*
G04 #@! TF.FileFunction,Legend,Bot*
G04 #@! TF.FilePolarity,Positive*
%FSLAX46Y46*%
G04 Gerber Fmt 4.6, Leading zero omitted, Abs format (unit mm)*
G04 Created by KiCad (PCBNEW 8.0.4) date 2024-08-06 21:25:20*
%MOMM*%
%LPD*%
G01*
G04 APERTURE LIST*
G04 Aperture macros list*
%AMRoundRect*
0 Rectangle with rounded corners*
0 $1 Rounding radius*
0 $2 $3 $4 $5 $6 $7 $8 $9 X,Y pos of 4 corners*
0 Add a 4 corners polygon primitive as box body*
4,1,4,$2,$3,$4,$5,$6,$7,$8,$9,$2,$3,0*
0 Add four circle primitives for the rounded corners*
1,1,$1+$1,$2,$3*
1,1,$1+$1,$4,$5*
1,1,$1+$1,$6,$7*
1,1,$1+$1,$8,$9*
0 Add four rect primitives between the rounded corners*
20,1,$1+$1,$2,$3,$4,$5,0*
20,1,$1+$1,$4,$5,$6,$7,0*
20,1,$1+$1,$6,$7,$8,$9,0*
20,1,$1+$1,$8,$9,$2,$3,0*%
%AMFreePoly0*
4,1,22,0.216777,1.480194,0.271421,1.441421,1.441421,0.271421,1.488777,0.196056,1.500000,0.130000,1.500000,-1.300000,1.480194,-1.386777,1.424698,-1.456366,1.344504,-1.494986,1.300000,-1.500000,-1.300000,-1.500000,-1.386777,-1.480194,-1.456366,-1.424698,-1.494986,-1.344504,-1.500000,-1.300000,-1.500000,1.300000,-1.480194,1.386777,-1.424698,1.456366,-1.344504,1.494986,-1.300000,1.500000,
0.130000,1.500000,0.216777,1.480194,0.216777,1.480194,$1*%
%AMFreePoly1*
4,1,22,1.111777,1.480194,1.181366,1.424698,1.219986,1.344504,1.225000,1.300000,1.225000,-1.300000,1.205194,-1.386777,1.149698,-1.456366,1.069504,-1.494986,1.025000,-1.500000,-1.025000,-1.500000,-1.111777,-1.480194,-1.181366,-1.424698,-1.219986,-1.344504,-1.225000,-1.300000,-1.225000,0.275000,-1.205194,0.361777,-1.166421,0.416421,-0.141421,1.441421,-0.066056,1.488777,0.000000,1.500000,
1.025000,1.500000,1.111777,1.480194,1.111777,1.480194,$1*%
G04 Aperture macros list end*
%ADD10C,0.150000*%
%ADD11C,0.120000*%
%ADD12C,0.160000*%
%ADD13C,0.100000*%
%ADD14C,0.200000*%
%ADD15C,0.125000*%
%ADD16RoundRect,0.200000X-0.698500X-0.698500X0.698500X-0.698500X0.698500X0.698500X-0.698500X0.698500X0*%
%ADD17RoundRect,0.200000X-0.650000X-0.475000X0.650000X-0.475000X0.650000X0.475000X-0.650000X0.475000X0*%
%ADD18C,1.797000*%
%ADD19RoundRect,0.200000X-0.807199X-0.569416X0.569416X-0.807199X0.807199X0.569416X-0.569416X0.807199X0*%
%ADD20RoundRect,0.200000X-0.721365X-0.357433X0.559666X-0.578705X0.721365X0.357433X-0.559666X0.578705X0*%
%ADD21RoundRect,0.200000X-0.890856X-0.426826X0.426826X-0.890856X0.890856X0.426826X-0.426826X0.890856X0*%
%ADD22RoundRect,0.200000X-0.770871X-0.232126X0.455318X-0.663935X0.770871X0.232126X-0.455318X0.663935X0*%
%ADD23RoundRect,0.200000X-0.949561X-0.272282X0.272282X-0.949561X0.949561X0.272282X-0.272282X0.949561X0*%
%ADD24RoundRect,0.200000X-0.798787X-0.100318X0.338218X-0.730571X0.798787X0.100318X-0.338218X0.730571X0*%
%ADD25C,1.600000*%
%ADD26O,2.900000X2.100000*%
%ADD27C,2.101800*%
%ADD28C,1.390600*%
%ADD29C,3.400000*%
%ADD30C,3.829000*%
%ADD31FreePoly0,0.000000*%
%ADD32RoundRect,0.200000X-0.925000X-1.300000X0.925000X-1.300000X0.925000X1.300000X-0.925000X1.300000X0*%
%ADD33FreePoly1,0.000000*%
%ADD34RoundRect,0.200000X-1.300000X-1.300000X1.300000X-1.300000X1.300000X1.300000X-1.300000X1.300000X0*%
%ADD35RoundRect,0.200000X-0.937500X-1.300000X0.937500X-1.300000X0.937500X1.300000X-0.937500X1.300000X0*%
%ADD36FreePoly0,170.200000*%
%ADD37RoundRect,0.200000X1.502303X1.059758X-1.059758X1.502303X-1.502303X-1.059758X1.059758X-1.502303X0*%
%ADD38FreePoly0,160.600000*%
%ADD39RoundRect,0.200000X1.657999X0.794380X-0.794380X1.657999X-1.657999X-0.794380X0.794380X-1.657999X0*%
%ADD40FreePoly0,151.000000*%
%ADD41RoundRect,0.200000X1.767258X0.506753X-0.506753X1.767258X-1.767258X-0.506753X0.506753X-1.767258X0*%
%ADD42C,1.924000*%
%ADD43O,1.797000X2.178000*%
%ADD44C,4.400000*%
%ADD45C,3.629000*%
%ADD46C,1.300000*%
%ADD47RoundRect,0.200000X0.450000X0.650000X-0.450000X0.650000X-0.450000X-0.650000X0.450000X-0.650000X0*%
%ADD48RoundRect,0.200000X0.500000X0.500000X-0.500000X0.500000X-0.500000X-0.500000X0.500000X-0.500000X0*%
%ADD49RoundRect,0.200000X-1.224745X-0.707107X0.707107X-1.224745X1.224745X0.707107X-0.707107X1.224745X0*%
%ADD50C,2.400000*%
%ADD51RoundRect,0.200000X-1.772413X-0.819179X1.125365X-1.595636X1.772413X0.819179X-1.125365X1.595636X0*%
%ADD52RoundRect,0.200000X-0.850000X0.850000X-0.850000X-0.850000X0.850000X-0.850000X0.850000X0.850000X0*%
%ADD53O,2.100000X2.100000*%
%ADD54RoundRect,0.200000X-0.571500X0.317500X-0.571500X-0.317500X0.571500X-0.317500X0.571500X0.317500X0*%
%ADD55RoundRect,0.200000X-0.450000X-0.650000X0.450000X-0.650000X0.450000X0.650000X-0.450000X0.650000X0*%
%ADD56RoundRect,0.200000X-0.500000X-0.500000X0.500000X-0.500000X0.500000X0.500000X-0.500000X0.500000X0*%
%ADD57RoundRect,0.333333X0.466667X0.566667X-0.466667X0.566667X-0.466667X-0.566667X0.466667X-0.566667X0*%
%ADD58RoundRect,0.200000X-0.850000X0.450000X-0.850000X-0.450000X0.850000X-0.450000X0.850000X0.450000X0*%
%ADD59RoundRect,0.200000X0.571500X-0.317500X0.571500X0.317500X-0.571500X0.317500X-0.571500X-0.317500X0*%
G04 APERTURE END LIST*
D10*
X173500000Y-62700000D02*
X181900000Y-62700000D01*
X181900000Y-66800000D01*
X173500000Y-66800000D01*
X173500000Y-62700000D01*
X173900000Y-93500000D02*
X173900000Y-91200000D01*
X171450000Y-91200000D02*
X183950000Y-91200000D01*
X183950000Y-93500000D01*
X171450000Y-93500000D01*
X171450000Y-91200000D01*
G36*
X179018425Y-95258184D02*
G01*
X176635534Y-95258184D01*
X176635534Y-94355853D01*
X176724423Y-94355853D01*
X176724423Y-94385115D01*
X176735621Y-94412152D01*
X176756314Y-94432845D01*
X176783350Y-94444044D01*
X176812612Y-94444044D01*
X176839649Y-94432846D01*
X176851014Y-94423519D01*
X176876591Y-94397942D01*
X176962533Y-94369295D01*
X177014384Y-94369295D01*
X177100326Y-94397942D01*
X177155390Y-94453006D01*
X177184360Y-94510945D01*
X177218221Y-94646387D01*
X177218221Y-94742202D01*
X177184360Y-94877643D01*
X177155390Y-94935582D01*
X177100325Y-94990648D01*
X177014384Y-95019295D01*
X176962533Y-95019295D01*
X176876592Y-94990648D01*
X176851015Y-94965071D01*
X176839650Y-94955744D01*
X176812613Y-94944545D01*
X176783351Y-94944545D01*
X176756314Y-94955744D01*
X176735622Y-94976436D01*
X176724423Y-95003473D01*
X176724423Y-95032735D01*
X176735622Y-95059772D01*
X176744949Y-95071137D01*
X176783045Y-95109233D01*
X176794410Y-95118561D01*
X176796900Y-95119592D01*
X176798935Y-95121357D01*
X176812361Y-95127351D01*
X176926646Y-95165446D01*
X176933899Y-95167095D01*
X176935731Y-95167854D01*
X176938385Y-95168115D01*
X176940983Y-95168706D01*
X176942957Y-95168565D01*
X176950363Y-95169295D01*
X177026554Y-95169295D01*
X177033959Y-95168565D01*
X177035934Y-95168706D01*
X177038531Y-95168115D01*
X177041186Y-95167854D01*
X177043017Y-95167095D01*
X177050271Y-95165446D01*
X177164557Y-95127351D01*
X177177982Y-95121357D01*
X177180017Y-95119591D01*
X177182508Y-95118560D01*
X177193873Y-95109233D01*
X177270064Y-95033041D01*
X177274781Y-95027292D01*
X177276280Y-95025993D01*
X177277701Y-95023734D01*
X177279391Y-95021676D01*
X177280148Y-95019846D01*
X177284112Y-95013550D01*
X177322207Y-94937360D01*
X177322616Y-94936290D01*
X177322939Y-94935855D01*
X177325137Y-94929703D01*
X177327462Y-94923628D01*
X177327500Y-94923089D01*
X177327886Y-94922010D01*
X177365982Y-94769628D01*
X177366357Y-94767091D01*
X177366780Y-94766070D01*
X177367322Y-94760557D01*
X177368132Y-94755084D01*
X177367969Y-94753991D01*
X177368221Y-94751438D01*
X177368221Y-94637152D01*
X177367969Y-94634598D01*
X177368132Y-94633506D01*
X177367322Y-94628032D01*
X177366780Y-94622520D01*
X177366357Y-94621498D01*
X177365982Y-94618962D01*
X177327886Y-94466580D01*
X177327500Y-94465500D01*
X177327462Y-94464962D01*
X177325137Y-94458886D01*
X177322939Y-94452735D01*
X177322616Y-94452299D01*
X177322207Y-94451230D01*
X177284112Y-94375039D01*
X177280149Y-94368744D01*
X177279391Y-94366912D01*
X177277699Y-94364850D01*
X177276280Y-94362596D01*
X177274783Y-94361297D01*
X177270314Y-94355853D01*
X177524423Y-94355853D01*
X177524423Y-94385115D01*
X177535621Y-94412152D01*
X177556314Y-94432845D01*
X177583350Y-94444044D01*
X177612612Y-94444044D01*
X177639649Y-94432846D01*
X177651014Y-94423519D01*
X177676591Y-94397942D01*
X177762533Y-94369295D01*
X177814384Y-94369295D01*
X177900326Y-94397942D01*
X177955390Y-94453006D01*
X177984360Y-94510945D01*
X178018221Y-94646387D01*
X178018221Y-94742202D01*
X177984360Y-94877643D01*
X177955390Y-94935582D01*
X177900325Y-94990648D01*
X177814384Y-95019295D01*
X177762533Y-95019295D01*
X177676592Y-94990648D01*
X177651015Y-94965071D01*
X177639650Y-94955744D01*
X177612613Y-94944545D01*
X177583351Y-94944545D01*
X177556314Y-94955744D01*
X177535622Y-94976436D01*
X177524423Y-95003473D01*
X177524423Y-95032735D01*
X177535622Y-95059772D01*
X177544949Y-95071137D01*
X177583045Y-95109233D01*
X177594410Y-95118561D01*
X177596900Y-95119592D01*
X177598935Y-95121357D01*
X177612361Y-95127351D01*
X177726646Y-95165446D01*
X177733899Y-95167095D01*
X177735731Y-95167854D01*
X177738385Y-95168115D01*
X177740983Y-95168706D01*
X177742957Y-95168565D01*
X177750363Y-95169295D01*
X177826554Y-95169295D01*
X177833959Y-95168565D01*
X177835934Y-95168706D01*
X177838531Y-95168115D01*
X177841186Y-95167854D01*
X177843017Y-95167095D01*
X177850271Y-95165446D01*
X177964557Y-95127351D01*
X177977982Y-95121357D01*
X177980017Y-95119591D01*
X177982508Y-95118560D01*
X177993873Y-95109233D01*
X178070064Y-95033041D01*
X178074781Y-95027292D01*
X178076280Y-95025993D01*
X178077701Y-95023734D01*
X178079391Y-95021676D01*
X178080148Y-95019846D01*
X178084112Y-95013550D01*
X178122207Y-94937360D01*
X178122616Y-94936290D01*
X178122939Y-94935855D01*
X178125137Y-94929703D01*
X178127462Y-94923628D01*
X178127500Y-94923089D01*
X178127886Y-94922010D01*
X178165982Y-94769628D01*
X178166357Y-94767091D01*
X178166780Y-94766070D01*
X178167322Y-94760557D01*
X178168132Y-94755084D01*
X178167969Y-94753991D01*
X178168221Y-94751438D01*
X178168221Y-94637152D01*
X178167969Y-94634598D01*
X178168132Y-94633506D01*
X178167322Y-94628032D01*
X178166780Y-94622520D01*
X178166357Y-94621498D01*
X178165982Y-94618962D01*
X178127886Y-94466580D01*
X178127500Y-94465500D01*
X178127462Y-94464962D01*
X178125137Y-94458886D01*
X178122939Y-94452735D01*
X178122616Y-94452299D01*
X178122207Y-94451230D01*
X178084112Y-94375039D01*
X178080149Y-94368744D01*
X178079391Y-94366912D01*
X178077699Y-94364850D01*
X178076280Y-94362596D01*
X178074783Y-94361297D01*
X178070063Y-94355547D01*
X178018191Y-94303675D01*
X178247381Y-94303675D01*
X178250641Y-94318012D01*
X178517307Y-95118012D01*
X178523301Y-95131438D01*
X178526812Y-95135486D01*
X178529208Y-95140278D01*
X178536312Y-95146440D01*
X178542475Y-95153545D01*
X178547267Y-95155941D01*
X178551315Y-95159452D01*
X178560234Y-95162425D01*
X178568648Y-95166632D01*
X178573995Y-95167011D01*
X178579078Y-95168706D01*
X178588455Y-95168039D01*
X178597838Y-95168706D01*
X178602923Y-95167010D01*
X178608268Y-95166631D01*
X178616677Y-95162426D01*
X178625601Y-95159452D01*
X178629649Y-95155940D01*
X178634441Y-95153545D01*
X178640600Y-95146442D01*
X178647708Y-95140279D01*
X178650105Y-95135484D01*
X178653615Y-95131438D01*
X178659609Y-95118012D01*
X178926276Y-94318012D01*
X178929536Y-94303675D01*
X178927461Y-94274485D01*
X178914375Y-94248312D01*
X178892268Y-94229138D01*
X178864505Y-94219884D01*
X178835315Y-94221959D01*
X178809142Y-94235045D01*
X178789968Y-94257153D01*
X178783974Y-94270578D01*
X178588458Y-94857124D01*
X178392943Y-94270578D01*
X178386949Y-94257153D01*
X178367775Y-94235045D01*
X178341602Y-94221959D01*
X178312412Y-94219884D01*
X178284650Y-94229138D01*
X178262542Y-94248312D01*
X178249456Y-94274485D01*
X178247381Y-94303675D01*
X178018191Y-94303675D01*
X177993873Y-94279357D01*
X177982508Y-94270030D01*
X177980017Y-94268998D01*
X177977982Y-94267233D01*
X177964557Y-94261239D01*
X177850271Y-94223144D01*
X177843017Y-94221494D01*
X177841186Y-94220736D01*
X177838531Y-94220474D01*
X177835934Y-94219884D01*
X177833959Y-94220024D01*
X177826554Y-94219295D01*
X177750363Y-94219295D01*
X177742957Y-94220024D01*
X177740983Y-94219884D01*
X177738385Y-94220474D01*
X177735731Y-94220736D01*
X177733899Y-94221494D01*
X177726646Y-94223144D01*
X177612361Y-94261239D01*
X177598935Y-94267233D01*
X177596899Y-94268998D01*
X177594411Y-94270029D01*
X177583046Y-94279356D01*
X177544950Y-94317451D01*
X177535622Y-94328817D01*
X177524423Y-94355853D01*
X177270314Y-94355853D01*
X177270063Y-94355547D01*
X177193873Y-94279357D01*
X177182508Y-94270030D01*
X177180017Y-94268998D01*
X177177982Y-94267233D01*
X177164557Y-94261239D01*
X177050271Y-94223144D01*
X177043017Y-94221494D01*
X177041186Y-94220736D01*
X177038531Y-94220474D01*
X177035934Y-94219884D01*
X177033959Y-94220024D01*
X177026554Y-94219295D01*
X176950363Y-94219295D01*
X176942957Y-94220024D01*
X176940983Y-94219884D01*
X176938385Y-94220474D01*
X176935731Y-94220736D01*
X176933899Y-94221494D01*
X176926646Y-94223144D01*
X176812361Y-94261239D01*
X176798935Y-94267233D01*
X176796899Y-94268998D01*
X176794411Y-94270029D01*
X176783046Y-94279356D01*
X176744950Y-94317451D01*
X176735622Y-94328817D01*
X176724423Y-94355853D01*
X176635534Y-94355853D01*
X176635534Y-94130406D01*
X179018425Y-94130406D01*
X179018425Y-95258184D01*
G37*
X173119047Y-54854819D02*
X172928571Y-54854819D01*
X172928571Y-54854819D02*
X172833333Y-54902438D01*
X172833333Y-54902438D02*
X172738095Y-54997676D01*
X172738095Y-54997676D02*
X172690476Y-55188152D01*
X172690476Y-55188152D02*
X172690476Y-55521485D01*
X172690476Y-55521485D02*
X172738095Y-55711961D01*
X172738095Y-55711961D02*
X172833333Y-55807200D01*
X172833333Y-55807200D02*
X172928571Y-55854819D01*
X172928571Y-55854819D02*
X173119047Y-55854819D01*
X173119047Y-55854819D02*
X173214285Y-55807200D01*
X173214285Y-55807200D02*
X173309523Y-55711961D01*
X173309523Y-55711961D02*
X173357142Y-55521485D01*
X173357142Y-55521485D02*
X173357142Y-55188152D01*
X173357142Y-55188152D02*
X173309523Y-54997676D01*
X173309523Y-54997676D02*
X173214285Y-54902438D01*
X173214285Y-54902438D02*
X173119047Y-54854819D01*
X172261904Y-55854819D02*
X172261904Y-54854819D01*
X172261904Y-54854819D02*
X171690476Y-55854819D01*
X171690476Y-55854819D02*
X171690476Y-54854819D01*
X180633332Y-111849847D02*
X180061904Y-111849847D01*
X180347618Y-112849847D02*
X180347618Y-111849847D01*
X179538094Y-111849847D02*
X179347618Y-111849847D01*
X179347618Y-111849847D02*
X179252380Y-111897466D01*
X179252380Y-111897466D02*
X179157142Y-111992704D01*
X179157142Y-111992704D02*
X179109523Y-112183180D01*
X179109523Y-112183180D02*
X179109523Y-112516513D01*
X179109523Y-112516513D02*
X179157142Y-112706989D01*
X179157142Y-112706989D02*
X179252380Y-112802228D01*
X179252380Y-112802228D02*
X179347618Y-112849847D01*
X179347618Y-112849847D02*
X179538094Y-112849847D01*
X179538094Y-112849847D02*
X179633332Y-112802228D01*
X179633332Y-112802228D02*
X179728570Y-112706989D01*
X179728570Y-112706989D02*
X179776189Y-112516513D01*
X179776189Y-112516513D02*
X179776189Y-112183180D01*
X179776189Y-112183180D02*
X179728570Y-111992704D01*
X179728570Y-111992704D02*
X179633332Y-111897466D01*
X179633332Y-111897466D02*
X179538094Y-111849847D01*
X178680951Y-112849847D02*
X178680951Y-111849847D01*
X178680951Y-111849847D02*
X178299999Y-111849847D01*
X178299999Y-111849847D02*
X178204761Y-111897466D01*
X178204761Y-111897466D02*
X178157142Y-111945085D01*
X178157142Y-111945085D02*
X178109523Y-112040323D01*
X178109523Y-112040323D02*
X178109523Y-112183180D01*
X178109523Y-112183180D02*
X178157142Y-112278418D01*
X178157142Y-112278418D02*
X178204761Y-112326037D01*
X178204761Y-112326037D02*
X178299999Y-112373656D01*
X178299999Y-112373656D02*
X178680951Y-112373656D01*
X176347618Y-112849847D02*
X176680951Y-112373656D01*
X176919046Y-112849847D02*
X176919046Y-111849847D01*
X176919046Y-111849847D02*
X176538094Y-111849847D01*
X176538094Y-111849847D02*
X176442856Y-111897466D01*
X176442856Y-111897466D02*
X176395237Y-111945085D01*
X176395237Y-111945085D02*
X176347618Y-112040323D01*
X176347618Y-112040323D02*
X176347618Y-112183180D01*
X176347618Y-112183180D02*
X176395237Y-112278418D01*
X176395237Y-112278418D02*
X176442856Y-112326037D01*
X176442856Y-112326037D02*
X176538094Y-112373656D01*
X176538094Y-112373656D02*
X176919046Y-112373656D01*
X175919046Y-112849847D02*
X175919046Y-111849847D01*
X174919047Y-111897466D02*
X175014285Y-111849847D01*
X175014285Y-111849847D02*
X175157142Y-111849847D01*
X175157142Y-111849847D02*
X175299999Y-111897466D01*
X175299999Y-111897466D02*
X175395237Y-111992704D01*
X175395237Y-111992704D02*
X175442856Y-112087942D01*
X175442856Y-112087942D02*
X175490475Y-112278418D01*
X175490475Y-112278418D02*
X175490475Y-112421275D01*
X175490475Y-112421275D02*
X175442856Y-112611751D01*
X175442856Y-112611751D02*
X175395237Y-112706989D01*
X175395237Y-112706989D02*
X175299999Y-112802228D01*
X175299999Y-112802228D02*
X175157142Y-112849847D01*
X175157142Y-112849847D02*
X175061904Y-112849847D01*
X175061904Y-112849847D02*
X174919047Y-112802228D01*
X174919047Y-112802228D02*
X174871428Y-112754608D01*
X174871428Y-112754608D02*
X174871428Y-112421275D01*
X174871428Y-112421275D02*
X175061904Y-112421275D01*
X174442856Y-112849847D02*
X174442856Y-111849847D01*
X174442856Y-112326037D02*
X173871428Y-112326037D01*
X173871428Y-112849847D02*
X173871428Y-111849847D01*
X173538094Y-111849847D02*
X172966666Y-111849847D01*
X173252380Y-112849847D02*
X173252380Y-111849847D01*
X178538094Y-114459791D02*
X178538094Y-113459791D01*
X178538094Y-113935981D02*
X177966666Y-113935981D01*
X177966666Y-114459791D02*
X177966666Y-113459791D01*
X177538094Y-114174076D02*
X177061904Y-114174076D01*
X177633332Y-114459791D02*
X177299999Y-113459791D01*
X177299999Y-113459791D02*
X176966666Y-114459791D01*
X176633332Y-114459791D02*
X176633332Y-113459791D01*
X176633332Y-113459791D02*
X176061904Y-114459791D01*
X176061904Y-114459791D02*
X176061904Y-113459791D01*
X175585713Y-114459791D02*
X175585713Y-113459791D01*
X175585713Y-113459791D02*
X175347618Y-113459791D01*
X175347618Y-113459791D02*
X175204761Y-113507410D01*
X175204761Y-113507410D02*
X175109523Y-113602648D01*
X175109523Y-113602648D02*
X175061904Y-113697886D01*
X175061904Y-113697886D02*
X175014285Y-113888362D01*
X175014285Y-113888362D02*
X175014285Y-114031219D01*
X175014285Y-114031219D02*
X175061904Y-114221695D01*
X175061904Y-114221695D02*
X175109523Y-114316933D01*
X175109523Y-114316933D02*
X175204761Y-114412172D01*
X175204761Y-114412172D02*
X175347618Y-114459791D01*
X175347618Y-114459791D02*
X175585713Y-114459791D01*
D11*
X172043620Y-112738095D02*
X172043620Y-112166667D01*
X171043620Y-112452381D02*
X172043620Y-112452381D01*
X171043620Y-111833333D02*
X171710287Y-111833333D01*
X171519811Y-111833333D02*
X171615049Y-111785714D01*
X171615049Y-111785714D02*
X171662668Y-111738095D01*
X171662668Y-111738095D02*
X171710287Y-111642857D01*
X171710287Y-111642857D02*
X171710287Y-111547619D01*
X171043620Y-110785714D02*
X171567430Y-110785714D01*
X171567430Y-110785714D02*
X171662668Y-110833333D01*
X171662668Y-110833333D02*
X171710287Y-110928571D01*
X171710287Y-110928571D02*
X171710287Y-111119047D01*
X171710287Y-111119047D02*
X171662668Y-111214285D01*
X171091240Y-110785714D02*
X171043620Y-110880952D01*
X171043620Y-110880952D02*
X171043620Y-111119047D01*
X171043620Y-111119047D02*
X171091240Y-111214285D01*
X171091240Y-111214285D02*
X171186478Y-111261904D01*
X171186478Y-111261904D02*
X171281716Y-111261904D01*
X171281716Y-111261904D02*
X171376954Y-111214285D01*
X171376954Y-111214285D02*
X171424573Y-111119047D01*
X171424573Y-111119047D02*
X171424573Y-110880952D01*
X171424573Y-110880952D02*
X171472192Y-110785714D01*
X171091240Y-109880952D02*
X171043620Y-109976190D01*
X171043620Y-109976190D02*
X171043620Y-110166666D01*
X171043620Y-110166666D02*
X171091240Y-110261904D01*
X171091240Y-110261904D02*
X171138859Y-110309523D01*
X171138859Y-110309523D02*
X171234097Y-110357142D01*
X171234097Y-110357142D02*
X171519811Y-110357142D01*
X171519811Y-110357142D02*
X171615049Y-110309523D01*
X171615049Y-110309523D02*
X171662668Y-110261904D01*
X171662668Y-110261904D02*
X171710287Y-110166666D01*
X171710287Y-110166666D02*
X171710287Y-109976190D01*
X171710287Y-109976190D02*
X171662668Y-109880952D01*
X171043620Y-109452380D02*
X172043620Y-109452380D01*
X171424573Y-109357142D02*
X171043620Y-109071428D01*
X171710287Y-109071428D02*
X171329335Y-109452380D01*
X171710287Y-108642856D02*
X170710287Y-108642856D01*
X171662668Y-108642856D02*
X171710287Y-108547618D01*
X171710287Y-108547618D02*
X171710287Y-108357142D01*
X171710287Y-108357142D02*
X171662668Y-108261904D01*
X171662668Y-108261904D02*
X171615049Y-108214285D01*
X171615049Y-108214285D02*
X171519811Y-108166666D01*
X171519811Y-108166666D02*
X171234097Y-108166666D01*
X171234097Y-108166666D02*
X171138859Y-108214285D01*
X171138859Y-108214285D02*
X171091240Y-108261904D01*
X171091240Y-108261904D02*
X171043620Y-108357142D01*
X171043620Y-108357142D02*
X171043620Y-108547618D01*
X171043620Y-108547618D02*
X171091240Y-108642856D01*
X171043620Y-107309523D02*
X171567430Y-107309523D01*
X171567430Y-107309523D02*
X171662668Y-107357142D01*
X171662668Y-107357142D02*
X171710287Y-107452380D01*
X171710287Y-107452380D02*
X171710287Y-107642856D01*
X171710287Y-107642856D02*
X171662668Y-107738094D01*
X171091240Y-107309523D02*
X171043620Y-107404761D01*
X171043620Y-107404761D02*
X171043620Y-107642856D01*
X171043620Y-107642856D02*
X171091240Y-107738094D01*
X171091240Y-107738094D02*
X171186478Y-107785713D01*
X171186478Y-107785713D02*
X171281716Y-107785713D01*
X171281716Y-107785713D02*
X171376954Y-107738094D01*
X171376954Y-107738094D02*
X171424573Y-107642856D01*
X171424573Y-107642856D02*
X171424573Y-107404761D01*
X171424573Y-107404761D02*
X171472192Y-107309523D01*
X171043620Y-106404761D02*
X172043620Y-106404761D01*
X171091240Y-106404761D02*
X171043620Y-106499999D01*
X171043620Y-106499999D02*
X171043620Y-106690475D01*
X171043620Y-106690475D02*
X171091240Y-106785713D01*
X171091240Y-106785713D02*
X171138859Y-106833332D01*
X171138859Y-106833332D02*
X171234097Y-106880951D01*
X171234097Y-106880951D02*
X171519811Y-106880951D01*
X171519811Y-106880951D02*
X171615049Y-106833332D01*
X171615049Y-106833332D02*
X171662668Y-106785713D01*
X171662668Y-106785713D02*
X171710287Y-106690475D01*
X171710287Y-106690475D02*
X171710287Y-106499999D01*
X171710287Y-106499999D02*
X171662668Y-106404761D01*
D10*
X185899999Y-101594295D02*
X185899999Y-100794295D01*
X185899999Y-100794295D02*
X185709523Y-100794295D01*
X185709523Y-100794295D02*
X185595237Y-100832390D01*
X185595237Y-100832390D02*
X185519047Y-100908580D01*
X185519047Y-100908580D02*
X185480952Y-100984771D01*
X185480952Y-100984771D02*
X185442856Y-101137152D01*
X185442856Y-101137152D02*
X185442856Y-101251438D01*
X185442856Y-101251438D02*
X185480952Y-101403819D01*
X185480952Y-101403819D02*
X185519047Y-101480009D01*
X185519047Y-101480009D02*
X185595237Y-101556200D01*
X185595237Y-101556200D02*
X185709523Y-101594295D01*
X185709523Y-101594295D02*
X185899999Y-101594295D01*
X185138095Y-101365723D02*
X184757142Y-101365723D01*
X185214285Y-101594295D02*
X184947618Y-100794295D01*
X184947618Y-100794295D02*
X184680952Y-101594295D01*
X184528571Y-100794295D02*
X184071428Y-100794295D01*
X184300000Y-101594295D02*
X184300000Y-100794295D01*
X183842857Y-101365723D02*
X183461904Y-101365723D01*
X183919047Y-101594295D02*
X183652380Y-100794295D01*
X183652380Y-100794295D02*
X183385714Y-101594295D01*
X186578094Y-93922295D02*
X186844761Y-93541342D01*
X187035237Y-93922295D02*
X187035237Y-93122295D01*
X187035237Y-93122295D02*
X186730475Y-93122295D01*
X186730475Y-93122295D02*
X186654285Y-93160390D01*
X186654285Y-93160390D02*
X186616190Y-93198485D01*
X186616190Y-93198485D02*
X186578094Y-93274676D01*
X186578094Y-93274676D02*
X186578094Y-93388961D01*
X186578094Y-93388961D02*
X186616190Y-93465152D01*
X186616190Y-93465152D02*
X186654285Y-93503247D01*
X186654285Y-93503247D02*
X186730475Y-93541342D01*
X186730475Y-93541342D02*
X187035237Y-93541342D01*
X186273333Y-93884200D02*
X186159047Y-93922295D01*
X186159047Y-93922295D02*
X185968571Y-93922295D01*
X185968571Y-93922295D02*
X185892380Y-93884200D01*
X185892380Y-93884200D02*
X185854285Y-93846104D01*
X185854285Y-93846104D02*
X185816190Y-93769914D01*
X185816190Y-93769914D02*
X185816190Y-93693723D01*
X185816190Y-93693723D02*
X185854285Y-93617533D01*
X185854285Y-93617533D02*
X185892380Y-93579438D01*
X185892380Y-93579438D02*
X185968571Y-93541342D01*
X185968571Y-93541342D02*
X186120952Y-93503247D01*
X186120952Y-93503247D02*
X186197142Y-93465152D01*
X186197142Y-93465152D02*
X186235237Y-93427057D01*
X186235237Y-93427057D02*
X186273333Y-93350866D01*
X186273333Y-93350866D02*
X186273333Y-93274676D01*
X186273333Y-93274676D02*
X186235237Y-93198485D01*
X186235237Y-93198485D02*
X186197142Y-93160390D01*
X186197142Y-93160390D02*
X186120952Y-93122295D01*
X186120952Y-93122295D02*
X185930475Y-93122295D01*
X185930475Y-93122295D02*
X185816190Y-93160390D01*
X185587618Y-93122295D02*
X185130475Y-93122295D01*
X185359047Y-93922295D02*
X185359047Y-93122295D01*
G36*
X173565839Y-95019295D02*
G01*
X173462533Y-95019295D01*
X173376591Y-94990648D01*
X173321526Y-94935582D01*
X173292556Y-94877642D01*
X173258696Y-94742202D01*
X173258696Y-94646387D01*
X173292556Y-94510946D01*
X173321526Y-94453006D01*
X173376590Y-94397942D01*
X173462533Y-94369295D01*
X173565839Y-94369295D01*
X173565839Y-95019295D01*
G37*
G36*
X171479640Y-94790723D02*
G01*
X171306801Y-94790723D01*
X171393220Y-94531465D01*
X171479640Y-94790723D01*
G37*
G36*
X172774878Y-94790723D02*
G01*
X172602039Y-94790723D01*
X172688458Y-94531465D01*
X172774878Y-94790723D01*
G37*
G36*
X173804728Y-95258184D02*
G01*
X170963254Y-95258184D01*
X170963254Y-95084915D01*
X171052143Y-95084915D01*
X171054218Y-95114105D01*
X171067304Y-95140278D01*
X171089412Y-95159452D01*
X171117174Y-95168706D01*
X171146364Y-95166631D01*
X171172537Y-95153545D01*
X171191711Y-95131437D01*
X171197705Y-95118012D01*
X171256801Y-94940723D01*
X171529640Y-94940723D01*
X171588736Y-95118012D01*
X171594730Y-95131437D01*
X171613904Y-95153545D01*
X171640077Y-95166631D01*
X171669267Y-95168706D01*
X171697030Y-95159452D01*
X171719137Y-95140278D01*
X171732223Y-95114105D01*
X171734298Y-95084915D01*
X171731038Y-95070578D01*
X171467399Y-94279663D01*
X171738709Y-94279663D01*
X171738709Y-94308927D01*
X171749908Y-94335963D01*
X171770600Y-94356655D01*
X171797636Y-94367854D01*
X171812268Y-94369295D01*
X171965840Y-94369295D01*
X171965840Y-95094295D01*
X171967281Y-95108927D01*
X171978480Y-95135963D01*
X171999172Y-95156655D01*
X172026208Y-95167854D01*
X172055472Y-95167854D01*
X172082508Y-95156655D01*
X172103200Y-95135963D01*
X172114399Y-95108927D01*
X172115840Y-95094295D01*
X172115840Y-95084915D01*
X172347381Y-95084915D01*
X172349456Y-95114105D01*
X172362542Y-95140278D01*
X172384650Y-95159452D01*
X172412412Y-95168706D01*
X172441602Y-95166631D01*
X172467775Y-95153545D01*
X172486949Y-95131437D01*
X172492943Y-95118012D01*
X172552039Y-94940723D01*
X172824878Y-94940723D01*
X172883974Y-95118012D01*
X172889968Y-95131437D01*
X172909142Y-95153545D01*
X172935315Y-95166631D01*
X172964505Y-95168706D01*
X172992268Y-95159452D01*
X173014375Y-95140278D01*
X173027461Y-95114105D01*
X173029536Y-95084915D01*
X173026276Y-95070578D01*
X172881800Y-94637152D01*
X173108696Y-94637152D01*
X173108696Y-94751438D01*
X173108947Y-94753991D01*
X173108785Y-94755084D01*
X173109594Y-94760558D01*
X173110137Y-94766070D01*
X173110559Y-94767090D01*
X173110935Y-94769629D01*
X173149031Y-94922010D01*
X173149416Y-94923089D01*
X173149455Y-94923628D01*
X173151779Y-94929703D01*
X173153978Y-94935855D01*
X173154300Y-94936290D01*
X173154710Y-94937360D01*
X173192805Y-95013550D01*
X173196768Y-95019846D01*
X173197526Y-95021676D01*
X173199215Y-95023734D01*
X173200637Y-95025993D01*
X173202135Y-95027292D01*
X173206854Y-95033042D01*
X173283044Y-95109233D01*
X173294409Y-95118560D01*
X173296899Y-95119591D01*
X173298935Y-95121357D01*
X173312360Y-95127351D01*
X173426646Y-95165446D01*
X173433899Y-95167095D01*
X173435731Y-95167854D01*
X173438385Y-95168115D01*
X173440983Y-95168706D01*
X173442957Y-95168565D01*
X173450363Y-95169295D01*
X173640839Y-95169295D01*
X173655471Y-95167854D01*
X173682507Y-95156655D01*
X173703199Y-95135963D01*
X173714398Y-95108927D01*
X173715839Y-95094295D01*
X173715839Y-94294295D01*
X173714398Y-94279663D01*
X173703199Y-94252627D01*
X173682507Y-94231935D01*
X173655471Y-94220736D01*
X173640839Y-94219295D01*
X173450363Y-94219295D01*
X173442957Y-94220024D01*
X173440983Y-94219884D01*
X173438385Y-94220474D01*
X173435731Y-94220736D01*
X173433899Y-94221494D01*
X173426646Y-94223144D01*
X173312360Y-94261239D01*
X173298935Y-94267233D01*
X173296901Y-94268996D01*
X173294409Y-94270029D01*
X173283044Y-94279357D01*
X173206854Y-94355547D01*
X173202135Y-94361296D01*
X173200637Y-94362596D01*
X173199215Y-94364855D01*
X173197527Y-94366912D01*
X173196769Y-94368739D01*
X173192805Y-94375039D01*
X173154710Y-94451230D01*
X173154300Y-94452299D01*
X173153978Y-94452735D01*
X173151779Y-94458886D01*
X173149455Y-94464962D01*
X173149416Y-94465500D01*
X173149031Y-94466580D01*
X173110935Y-94618961D01*
X173110559Y-94621499D01*
X173110137Y-94622520D01*
X173109594Y-94628031D01*
X173108785Y-94633506D01*
X173108947Y-94634598D01*
X173108696Y-94637152D01*
X172881800Y-94637152D01*
X172759609Y-94270578D01*
X172753615Y-94257152D01*
X172750105Y-94253105D01*
X172747708Y-94248311D01*
X172740600Y-94242147D01*
X172734441Y-94235045D01*
X172729649Y-94232649D01*
X172725601Y-94229138D01*
X172716677Y-94226163D01*
X172708268Y-94221959D01*
X172702923Y-94221579D01*
X172697838Y-94219884D01*
X172688455Y-94220550D01*
X172679078Y-94219884D01*
X172673995Y-94221578D01*
X172668648Y-94221958D01*
X172660234Y-94226164D01*
X172651315Y-94229138D01*
X172647267Y-94232648D01*
X172642475Y-94235045D01*
X172636312Y-94242149D01*
X172629208Y-94248312D01*
X172626812Y-94253103D01*
X172623301Y-94257152D01*
X172617307Y-94270578D01*
X172350641Y-95070578D01*
X172347381Y-95084915D01*
X172115840Y-95084915D01*
X172115840Y-94369295D01*
X172269411Y-94369295D01*
X172284043Y-94367854D01*
X172311079Y-94356655D01*
X172331771Y-94335963D01*
X172342970Y-94308927D01*
X172342970Y-94279663D01*
X172331771Y-94252627D01*
X172311079Y-94231935D01*
X172284043Y-94220736D01*
X172269411Y-94219295D01*
X171812268Y-94219295D01*
X171797636Y-94220736D01*
X171770600Y-94231935D01*
X171749908Y-94252627D01*
X171738709Y-94279663D01*
X171467399Y-94279663D01*
X171464371Y-94270578D01*
X171458377Y-94257152D01*
X171454867Y-94253105D01*
X171452470Y-94248311D01*
X171445362Y-94242147D01*
X171439203Y-94235045D01*
X171434411Y-94232649D01*
X171430363Y-94229138D01*
X171421439Y-94226163D01*
X171413030Y-94221959D01*
X171407685Y-94221579D01*
X171402600Y-94219884D01*
X171393217Y-94220550D01*
X171383840Y-94219884D01*
X171378757Y-94221578D01*
X171373410Y-94221958D01*
X171364996Y-94226164D01*
X171356077Y-94229138D01*
X171352029Y-94232648D01*
X171347237Y-94235045D01*
X171341074Y-94242149D01*
X171333970Y-94248312D01*
X171331574Y-94253103D01*
X171328063Y-94257152D01*
X171322069Y-94270578D01*
X171055403Y-95070578D01*
X171052143Y-95084915D01*
X170963254Y-95084915D01*
X170963254Y-94130406D01*
X173804728Y-94130406D01*
X173804728Y-95258184D01*
G37*
X185052380Y-54854819D02*
X184861904Y-54854819D01*
X184861904Y-54854819D02*
X184766666Y-54902438D01*
X184766666Y-54902438D02*
X184671428Y-54997676D01*
X184671428Y-54997676D02*
X184623809Y-55188152D01*
X184623809Y-55188152D02*
X184623809Y-55521485D01*
X184623809Y-55521485D02*
X184671428Y-55711961D01*
X184671428Y-55711961D02*
X184766666Y-55807200D01*
X184766666Y-55807200D02*
X184861904Y-55854819D01*
X184861904Y-55854819D02*
X185052380Y-55854819D01*
X185052380Y-55854819D02*
X185147618Y-55807200D01*
X185147618Y-55807200D02*
X185242856Y-55711961D01*
X185242856Y-55711961D02*
X185290475Y-55521485D01*
X185290475Y-55521485D02*
X185290475Y-55188152D01*
X185290475Y-55188152D02*
X185242856Y-54997676D01*
X185242856Y-54997676D02*
X185147618Y-54902438D01*
X185147618Y-54902438D02*
X185052380Y-54854819D01*
X183861904Y-55331009D02*
X184195237Y-55331009D01*
X184195237Y-55854819D02*
X184195237Y-54854819D01*
X184195237Y-54854819D02*
X183719047Y-54854819D01*
X183004761Y-55331009D02*
X183338094Y-55331009D01*
X183338094Y-55854819D02*
X183338094Y-54854819D01*
X183338094Y-54854819D02*
X182861904Y-54854819D01*
X180252381Y-64349847D02*
X180728571Y-64349847D01*
X180728571Y-64349847D02*
X180728571Y-63349847D01*
X179919047Y-63826037D02*
X179585714Y-63826037D01*
X179442857Y-64349847D02*
X179919047Y-64349847D01*
X179919047Y-64349847D02*
X179919047Y-63349847D01*
X179919047Y-63349847D02*
X179442857Y-63349847D01*
X178680952Y-63826037D02*
X179014285Y-63826037D01*
X179014285Y-64349847D02*
X179014285Y-63349847D01*
X179014285Y-63349847D02*
X178538095Y-63349847D01*
X178299999Y-63349847D02*
X177728571Y-63349847D01*
X178014285Y-64349847D02*
X178014285Y-63349847D01*
X181038094Y-65959791D02*
X181038094Y-64959791D01*
X181038094Y-65435981D02*
X180466666Y-65435981D01*
X180466666Y-65959791D02*
X180466666Y-64959791D01*
X180038094Y-65674076D02*
X179561904Y-65674076D01*
X180133332Y-65959791D02*
X179799999Y-64959791D01*
X179799999Y-64959791D02*
X179466666Y-65959791D01*
X179133332Y-65959791D02*
X179133332Y-64959791D01*
X179133332Y-64959791D02*
X178561904Y-65959791D01*
X178561904Y-65959791D02*
X178561904Y-64959791D01*
X178085713Y-65959791D02*
X178085713Y-64959791D01*
X178085713Y-64959791D02*
X177847618Y-64959791D01*
X177847618Y-64959791D02*
X177704761Y-65007410D01*
X177704761Y-65007410D02*
X177609523Y-65102648D01*
X177609523Y-65102648D02*
X177561904Y-65197886D01*
X177561904Y-65197886D02*
X177514285Y-65388362D01*
X177514285Y-65388362D02*
X177514285Y-65531219D01*
X177514285Y-65531219D02*
X177561904Y-65721695D01*
X177561904Y-65721695D02*
X177609523Y-65816933D01*
X177609523Y-65816933D02*
X177704761Y-65912172D01*
X177704761Y-65912172D02*
X177847618Y-65959791D01*
X177847618Y-65959791D02*
X178085713Y-65959791D01*
D12*
X170090476Y-89542727D02*
X169976190Y-89580822D01*
X169976190Y-89580822D02*
X169938095Y-89618918D01*
X169938095Y-89618918D02*
X169899999Y-89695108D01*
X169899999Y-89695108D02*
X169899999Y-89809394D01*
X169899999Y-89809394D02*
X169938095Y-89885584D01*
X169938095Y-89885584D02*
X169976190Y-89923680D01*
X169976190Y-89923680D02*
X170052380Y-89961775D01*
X170052380Y-89961775D02*
X170357142Y-89961775D01*
X170357142Y-89961775D02*
X170357142Y-89161775D01*
X170357142Y-89161775D02*
X170090476Y-89161775D01*
X170090476Y-89161775D02*
X170014285Y-89199870D01*
X170014285Y-89199870D02*
X169976190Y-89237965D01*
X169976190Y-89237965D02*
X169938095Y-89314156D01*
X169938095Y-89314156D02*
X169938095Y-89390346D01*
X169938095Y-89390346D02*
X169976190Y-89466537D01*
X169976190Y-89466537D02*
X170014285Y-89504632D01*
X170014285Y-89504632D02*
X170090476Y-89542727D01*
X170090476Y-89542727D02*
X170357142Y-89542727D01*
X169595238Y-89733203D02*
X169214285Y-89733203D01*
X169671428Y-89961775D02*
X169404761Y-89161775D01*
X169404761Y-89161775D02*
X169138095Y-89961775D01*
X168985714Y-89161775D02*
X168528571Y-89161775D01*
X168757143Y-89961775D02*
X168757143Y-89161775D01*
D10*
G36*
X174527744Y-95019295D02*
G01*
X174424438Y-95019295D01*
X174338496Y-94990648D01*
X174283431Y-94935582D01*
X174254461Y-94877642D01*
X174220601Y-94742202D01*
X174220601Y-94646387D01*
X174254461Y-94510946D01*
X174283431Y-94453006D01*
X174338495Y-94397942D01*
X174424438Y-94369295D01*
X174527744Y-94369295D01*
X174527744Y-95019295D01*
G37*
G36*
X176442824Y-95258184D02*
G01*
X173981712Y-95258184D01*
X173981712Y-94637152D01*
X174070601Y-94637152D01*
X174070601Y-94751438D01*
X174070852Y-94753991D01*
X174070690Y-94755084D01*
X174071499Y-94760558D01*
X174072042Y-94766070D01*
X174072464Y-94767090D01*
X174072840Y-94769629D01*
X174110936Y-94922010D01*
X174111321Y-94923089D01*
X174111360Y-94923628D01*
X174113684Y-94929703D01*
X174115883Y-94935855D01*
X174116205Y-94936290D01*
X174116615Y-94937360D01*
X174154710Y-95013550D01*
X174158673Y-95019846D01*
X174159431Y-95021676D01*
X174161120Y-95023734D01*
X174162542Y-95025993D01*
X174164040Y-95027292D01*
X174168759Y-95033042D01*
X174244949Y-95109233D01*
X174256314Y-95118560D01*
X174258804Y-95119591D01*
X174260840Y-95121357D01*
X174274265Y-95127351D01*
X174388551Y-95165446D01*
X174395804Y-95167095D01*
X174397636Y-95167854D01*
X174400290Y-95168115D01*
X174402888Y-95168706D01*
X174404862Y-95168565D01*
X174412268Y-95169295D01*
X174602744Y-95169295D01*
X174617376Y-95167854D01*
X174644412Y-95156655D01*
X174665104Y-95135963D01*
X174676303Y-95108927D01*
X174677744Y-95094295D01*
X174677744Y-94294295D01*
X174908696Y-94294295D01*
X174908696Y-95094295D01*
X174909066Y-95098058D01*
X174908879Y-95099534D01*
X174909400Y-95101444D01*
X174910137Y-95108927D01*
X174913954Y-95118142D01*
X174916579Y-95127766D01*
X174919506Y-95131546D01*
X174921336Y-95135963D01*
X174928386Y-95143013D01*
X174934496Y-95150903D01*
X174938649Y-95153276D01*
X174942028Y-95156655D01*
X174951240Y-95160471D01*
X174959905Y-95165422D01*
X174964648Y-95166024D01*
X174969064Y-95167854D01*
X174979038Y-95167854D01*
X174988935Y-95169112D01*
X174993547Y-95167854D01*
X174998328Y-95167854D01*
X175007543Y-95164036D01*
X175017167Y-95161412D01*
X175020947Y-95158484D01*
X175025364Y-95156655D01*
X175032414Y-95149604D01*
X175040304Y-95143495D01*
X175044656Y-95137362D01*
X175046056Y-95135963D01*
X175046625Y-95134588D01*
X175048814Y-95131505D01*
X175365839Y-94576711D01*
X175365839Y-95094295D01*
X175367280Y-95108927D01*
X175378479Y-95135963D01*
X175399171Y-95156655D01*
X175426207Y-95167854D01*
X175455471Y-95167854D01*
X175482507Y-95156655D01*
X175503199Y-95135963D01*
X175514398Y-95108927D01*
X175515839Y-95094295D01*
X175515839Y-94751438D01*
X175708696Y-94751438D01*
X175708696Y-95018104D01*
X175710137Y-95032736D01*
X175710264Y-95033042D01*
X175721336Y-95059772D01*
X175730663Y-95071137D01*
X175768759Y-95109233D01*
X175780124Y-95118561D01*
X175782614Y-95119592D01*
X175784649Y-95121357D01*
X175798075Y-95127351D01*
X175912360Y-95165446D01*
X175919613Y-95167095D01*
X175921445Y-95167854D01*
X175924099Y-95168115D01*
X175926697Y-95168706D01*
X175928671Y-95168565D01*
X175936077Y-95169295D01*
X176012268Y-95169295D01*
X176019673Y-95168565D01*
X176021648Y-95168706D01*
X176024245Y-95168115D01*
X176026900Y-95167854D01*
X176028731Y-95167095D01*
X176035985Y-95165446D01*
X176150271Y-95127351D01*
X176163696Y-95121357D01*
X176165731Y-95119591D01*
X176168222Y-95118560D01*
X176179587Y-95109233D01*
X176255778Y-95033041D01*
X176260495Y-95027292D01*
X176261994Y-95025993D01*
X176263415Y-95023734D01*
X176265105Y-95021676D01*
X176265862Y-95019846D01*
X176269826Y-95013550D01*
X176307921Y-94937360D01*
X176308330Y-94936290D01*
X176308653Y-94935855D01*
X176310851Y-94929703D01*
X176313176Y-94923628D01*
X176313214Y-94923089D01*
X176313600Y-94922010D01*
X176351696Y-94769628D01*
X176352071Y-94767091D01*
X176352494Y-94766070D01*
X176353036Y-94760557D01*
X176353846Y-94755084D01*
X176353683Y-94753991D01*
X176353935Y-94751438D01*
X176353935Y-94637152D01*
X176353683Y-94634598D01*
X176353846Y-94633506D01*
X176353036Y-94628032D01*
X176352494Y-94622520D01*
X176352071Y-94621498D01*
X176351696Y-94618962D01*
X176313600Y-94466580D01*
X176313214Y-94465500D01*
X176313176Y-94464962D01*
X176310851Y-94458886D01*
X176308653Y-94452735D01*
X176308330Y-94452299D01*
X176307921Y-94451230D01*
X176269826Y-94375039D01*
X176265863Y-94368744D01*
X176265105Y-94366912D01*
X176263413Y-94364850D01*
X176261994Y-94362596D01*
X176260497Y-94361297D01*
X176255777Y-94355547D01*
X176179587Y-94279357D01*
X176168222Y-94270030D01*
X176165731Y-94268998D01*
X176163696Y-94267233D01*
X176150271Y-94261239D01*
X176035985Y-94223144D01*
X176028731Y-94221494D01*
X176026900Y-94220736D01*
X176024245Y-94220474D01*
X176021648Y-94219884D01*
X176019673Y-94220024D01*
X176012268Y-94219295D01*
X175897982Y-94219295D01*
X175883350Y-94220736D01*
X175880860Y-94221767D01*
X175878173Y-94221958D01*
X175864441Y-94227213D01*
X175788251Y-94265308D01*
X175775808Y-94273140D01*
X175756635Y-94295248D01*
X175747381Y-94323009D01*
X175749455Y-94352199D01*
X175762542Y-94378374D01*
X175784650Y-94397547D01*
X175812411Y-94406801D01*
X175841601Y-94404727D01*
X175855333Y-94399472D01*
X175915687Y-94369295D01*
X176000098Y-94369295D01*
X176086040Y-94397942D01*
X176141104Y-94453006D01*
X176170074Y-94510945D01*
X176203935Y-94646387D01*
X176203935Y-94742202D01*
X176170074Y-94877643D01*
X176141104Y-94935582D01*
X176086039Y-94990648D01*
X176000098Y-95019295D01*
X175948247Y-95019295D01*
X175862306Y-94990648D01*
X175858696Y-94987038D01*
X175858696Y-94826438D01*
X175936077Y-94826438D01*
X175950709Y-94824997D01*
X175977745Y-94813798D01*
X175998437Y-94793106D01*
X176009636Y-94766070D01*
X176009636Y-94736806D01*
X175998437Y-94709770D01*
X175977745Y-94689078D01*
X175950709Y-94677879D01*
X175936077Y-94676438D01*
X175783696Y-94676438D01*
X175769064Y-94677879D01*
X175742028Y-94689078D01*
X175721336Y-94709770D01*
X175710137Y-94736806D01*
X175708696Y-94751438D01*
X175515839Y-94751438D01*
X175515839Y-94294295D01*
X175515468Y-94290531D01*
X175515656Y-94289056D01*
X175515134Y-94287145D01*
X175514398Y-94279663D01*
X175510580Y-94270447D01*
X175507956Y-94260824D01*
X175505028Y-94257043D01*
X175503199Y-94252627D01*
X175496148Y-94245576D01*
X175490039Y-94237687D01*
X175485885Y-94235313D01*
X175482507Y-94231935D01*
X175473294Y-94228118D01*
X175464630Y-94223168D01*
X175459886Y-94222565D01*
X175455471Y-94220736D01*
X175445497Y-94220736D01*
X175435600Y-94219478D01*
X175430988Y-94220736D01*
X175426207Y-94220736D01*
X175416990Y-94224553D01*
X175407369Y-94227178D01*
X175403589Y-94230104D01*
X175399171Y-94231935D01*
X175392119Y-94238986D01*
X175384231Y-94245095D01*
X175379878Y-94251227D01*
X175378479Y-94252627D01*
X175377909Y-94254001D01*
X175375721Y-94257085D01*
X175058696Y-94811878D01*
X175058696Y-94294295D01*
X175057255Y-94279663D01*
X175046056Y-94252627D01*
X175025364Y-94231935D01*
X174998328Y-94220736D01*
X174969064Y-94220736D01*
X174942028Y-94231935D01*
X174921336Y-94252627D01*
X174910137Y-94279663D01*
X174908696Y-94294295D01*
X174677744Y-94294295D01*
X174676303Y-94279663D01*
X174665104Y-94252627D01*
X174644412Y-94231935D01*
X174617376Y-94220736D01*
X174602744Y-94219295D01*
X174412268Y-94219295D01*
X174404862Y-94220024D01*
X174402888Y-94219884D01*
X174400290Y-94220474D01*
X174397636Y-94220736D01*
X174395804Y-94221494D01*
X174388551Y-94223144D01*
X174274265Y-94261239D01*
X174260840Y-94267233D01*
X174258806Y-94268996D01*
X174256314Y-94270029D01*
X174244949Y-94279357D01*
X174168759Y-94355547D01*
X174164040Y-94361296D01*
X174162542Y-94362596D01*
X174161120Y-94364855D01*
X174159432Y-94366912D01*
X174158674Y-94368739D01*
X174154710Y-94375039D01*
X174116615Y-94451230D01*
X174116205Y-94452299D01*
X174115883Y-94452735D01*
X174113684Y-94458886D01*
X174111360Y-94464962D01*
X174111321Y-94465500D01*
X174110936Y-94466580D01*
X174072840Y-94618961D01*
X174072464Y-94621499D01*
X174072042Y-94622520D01*
X174071499Y-94628031D01*
X174070690Y-94633506D01*
X174070852Y-94634598D01*
X174070601Y-94637152D01*
X173981712Y-94637152D01*
X173981712Y-94130406D01*
X176442824Y-94130406D01*
X176442824Y-95258184D01*
G37*
X182309523Y-100732390D02*
X182385713Y-100694295D01*
X182385713Y-100694295D02*
X182499999Y-100694295D01*
X182499999Y-100694295D02*
X182614285Y-100732390D01*
X182614285Y-100732390D02*
X182690475Y-100808580D01*
X182690475Y-100808580D02*
X182728570Y-100884771D01*
X182728570Y-100884771D02*
X182766666Y-101037152D01*
X182766666Y-101037152D02*
X182766666Y-101151438D01*
X182766666Y-101151438D02*
X182728570Y-101303819D01*
X182728570Y-101303819D02*
X182690475Y-101380009D01*
X182690475Y-101380009D02*
X182614285Y-101456200D01*
X182614285Y-101456200D02*
X182499999Y-101494295D01*
X182499999Y-101494295D02*
X182423808Y-101494295D01*
X182423808Y-101494295D02*
X182309523Y-101456200D01*
X182309523Y-101456200D02*
X182271427Y-101418104D01*
X182271427Y-101418104D02*
X182271427Y-101151438D01*
X182271427Y-101151438D02*
X182423808Y-101151438D01*
X181928570Y-101494295D02*
X181928570Y-100694295D01*
X181928570Y-100694295D02*
X181471427Y-101494295D01*
X181471427Y-101494295D02*
X181471427Y-100694295D01*
X181090475Y-101494295D02*
X181090475Y-100694295D01*
X181090475Y-100694295D02*
X180899999Y-100694295D01*
X180899999Y-100694295D02*
X180785713Y-100732390D01*
X180785713Y-100732390D02*
X180709523Y-100808580D01*
X180709523Y-100808580D02*
X180671428Y-100884771D01*
X180671428Y-100884771D02*
X180633332Y-101037152D01*
X180633332Y-101037152D02*
X180633332Y-101151438D01*
X180633332Y-101151438D02*
X180671428Y-101303819D01*
X180671428Y-101303819D02*
X180709523Y-101380009D01*
X180709523Y-101380009D02*
X180785713Y-101456200D01*
X180785713Y-101456200D02*
X180899999Y-101494295D01*
X180899999Y-101494295D02*
X181090475Y-101494295D01*
D13*
X186754762Y-88256800D02*
X186640476Y-88294895D01*
X186640476Y-88294895D02*
X186450000Y-88294895D01*
X186450000Y-88294895D02*
X186373809Y-88256800D01*
X186373809Y-88256800D02*
X186335714Y-88218704D01*
X186335714Y-88218704D02*
X186297619Y-88142514D01*
X186297619Y-88142514D02*
X186297619Y-88066323D01*
X186297619Y-88066323D02*
X186335714Y-87990133D01*
X186335714Y-87990133D02*
X186373809Y-87952038D01*
X186373809Y-87952038D02*
X186450000Y-87913942D01*
X186450000Y-87913942D02*
X186602381Y-87875847D01*
X186602381Y-87875847D02*
X186678571Y-87837752D01*
X186678571Y-87837752D02*
X186716666Y-87799657D01*
X186716666Y-87799657D02*
X186754762Y-87723466D01*
X186754762Y-87723466D02*
X186754762Y-87647276D01*
X186754762Y-87647276D02*
X186716666Y-87571085D01*
X186716666Y-87571085D02*
X186678571Y-87532990D01*
X186678571Y-87532990D02*
X186602381Y-87494895D01*
X186602381Y-87494895D02*
X186411904Y-87494895D01*
X186411904Y-87494895D02*
X186297619Y-87532990D01*
X185802380Y-87494895D02*
X185649999Y-87494895D01*
X185649999Y-87494895D02*
X185573809Y-87532990D01*
X185573809Y-87532990D02*
X185497618Y-87609180D01*
X185497618Y-87609180D02*
X185459523Y-87761561D01*
X185459523Y-87761561D02*
X185459523Y-88028228D01*
X185459523Y-88028228D02*
X185497618Y-88180609D01*
X185497618Y-88180609D02*
X185573809Y-88256800D01*
X185573809Y-88256800D02*
X185649999Y-88294895D01*
X185649999Y-88294895D02*
X185802380Y-88294895D01*
X185802380Y-88294895D02*
X185878571Y-88256800D01*
X185878571Y-88256800D02*
X185954761Y-88180609D01*
X185954761Y-88180609D02*
X185992857Y-88028228D01*
X185992857Y-88028228D02*
X185992857Y-87761561D01*
X185992857Y-87761561D02*
X185954761Y-87609180D01*
X185954761Y-87609180D02*
X185878571Y-87532990D01*
X185878571Y-87532990D02*
X185802380Y-87494895D01*
X184735714Y-88294895D02*
X185116666Y-88294895D01*
X185116666Y-88294895D02*
X185116666Y-87494895D01*
X184469047Y-88294895D02*
X184469047Y-87494895D01*
X184469047Y-87494895D02*
X184278571Y-87494895D01*
X184278571Y-87494895D02*
X184164285Y-87532990D01*
X184164285Y-87532990D02*
X184088095Y-87609180D01*
X184088095Y-87609180D02*
X184050000Y-87685371D01*
X184050000Y-87685371D02*
X184011904Y-87837752D01*
X184011904Y-87837752D02*
X184011904Y-87952038D01*
X184011904Y-87952038D02*
X184050000Y-88104419D01*
X184050000Y-88104419D02*
X184088095Y-88180609D01*
X184088095Y-88180609D02*
X184164285Y-88256800D01*
X184164285Y-88256800D02*
X184278571Y-88294895D01*
X184278571Y-88294895D02*
X184469047Y-88294895D01*
X183669047Y-87875847D02*
X183402381Y-87875847D01*
X183288095Y-88294895D02*
X183669047Y-88294895D01*
X183669047Y-88294895D02*
X183669047Y-87494895D01*
X183669047Y-87494895D02*
X183288095Y-87494895D01*
X182488094Y-88294895D02*
X182754761Y-87913942D01*
X182945237Y-88294895D02*
X182945237Y-87494895D01*
X182945237Y-87494895D02*
X182640475Y-87494895D01*
X182640475Y-87494895D02*
X182564285Y-87532990D01*
X182564285Y-87532990D02*
X182526190Y-87571085D01*
X182526190Y-87571085D02*
X182488094Y-87647276D01*
X182488094Y-87647276D02*
X182488094Y-87761561D01*
X182488094Y-87761561D02*
X182526190Y-87837752D01*
X182526190Y-87837752D02*
X182564285Y-87875847D01*
X182564285Y-87875847D02*
X182640475Y-87913942D01*
X182640475Y-87913942D02*
X182945237Y-87913942D01*
X181535713Y-88294895D02*
X181535713Y-87494895D01*
X181535713Y-87875847D02*
X181078570Y-87875847D01*
X181078570Y-88294895D02*
X181078570Y-87494895D01*
X180697618Y-87875847D02*
X180430952Y-87875847D01*
X180316666Y-88294895D02*
X180697618Y-88294895D01*
X180697618Y-88294895D02*
X180697618Y-87494895D01*
X180697618Y-87494895D02*
X180316666Y-87494895D01*
X179516665Y-88294895D02*
X179783332Y-87913942D01*
X179973808Y-88294895D02*
X179973808Y-87494895D01*
X179973808Y-87494895D02*
X179669046Y-87494895D01*
X179669046Y-87494895D02*
X179592856Y-87532990D01*
X179592856Y-87532990D02*
X179554761Y-87571085D01*
X179554761Y-87571085D02*
X179516665Y-87647276D01*
X179516665Y-87647276D02*
X179516665Y-87761561D01*
X179516665Y-87761561D02*
X179554761Y-87837752D01*
X179554761Y-87837752D02*
X179592856Y-87875847D01*
X179592856Y-87875847D02*
X179669046Y-87913942D01*
X179669046Y-87913942D02*
X179973808Y-87913942D01*
X179173808Y-87875847D02*
X178907142Y-87875847D01*
X178792856Y-88294895D02*
X179173808Y-88294895D01*
X179173808Y-88294895D02*
X179173808Y-87494895D01*
X179173808Y-87494895D02*
X178792856Y-87494895D01*
X177573808Y-87875847D02*
X177840474Y-87875847D01*
X177840474Y-88294895D02*
X177840474Y-87494895D01*
X177840474Y-87494895D02*
X177459522Y-87494895D01*
X177002379Y-87494895D02*
X176849998Y-87494895D01*
X176849998Y-87494895D02*
X176773808Y-87532990D01*
X176773808Y-87532990D02*
X176697617Y-87609180D01*
X176697617Y-87609180D02*
X176659522Y-87761561D01*
X176659522Y-87761561D02*
X176659522Y-88028228D01*
X176659522Y-88028228D02*
X176697617Y-88180609D01*
X176697617Y-88180609D02*
X176773808Y-88256800D01*
X176773808Y-88256800D02*
X176849998Y-88294895D01*
X176849998Y-88294895D02*
X177002379Y-88294895D01*
X177002379Y-88294895D02*
X177078570Y-88256800D01*
X177078570Y-88256800D02*
X177154760Y-88180609D01*
X177154760Y-88180609D02*
X177192856Y-88028228D01*
X177192856Y-88028228D02*
X177192856Y-87761561D01*
X177192856Y-87761561D02*
X177154760Y-87609180D01*
X177154760Y-87609180D02*
X177078570Y-87532990D01*
X177078570Y-87532990D02*
X177002379Y-87494895D01*
X175859522Y-88294895D02*
X176126189Y-87913942D01*
X176316665Y-88294895D02*
X176316665Y-87494895D01*
X176316665Y-87494895D02*
X176011903Y-87494895D01*
X176011903Y-87494895D02*
X175935713Y-87532990D01*
X175935713Y-87532990D02*
X175897618Y-87571085D01*
X175897618Y-87571085D02*
X175859522Y-87647276D01*
X175859522Y-87647276D02*
X175859522Y-87761561D01*
X175859522Y-87761561D02*
X175897618Y-87837752D01*
X175897618Y-87837752D02*
X175935713Y-87875847D01*
X175935713Y-87875847D02*
X176011903Y-87913942D01*
X176011903Y-87913942D02*
X176316665Y-87913942D01*
X174449998Y-88294895D02*
X174716665Y-87913942D01*
X174907141Y-88294895D02*
X174907141Y-87494895D01*
X174907141Y-87494895D02*
X174602379Y-87494895D01*
X174602379Y-87494895D02*
X174526189Y-87532990D01*
X174526189Y-87532990D02*
X174488094Y-87571085D01*
X174488094Y-87571085D02*
X174449998Y-87647276D01*
X174449998Y-87647276D02*
X174449998Y-87761561D01*
X174449998Y-87761561D02*
X174488094Y-87837752D01*
X174488094Y-87837752D02*
X174526189Y-87875847D01*
X174526189Y-87875847D02*
X174602379Y-87913942D01*
X174602379Y-87913942D02*
X174907141Y-87913942D01*
X174107141Y-88294895D02*
X174107141Y-87494895D01*
X173307142Y-87532990D02*
X173383332Y-87494895D01*
X173383332Y-87494895D02*
X173497618Y-87494895D01*
X173497618Y-87494895D02*
X173611904Y-87532990D01*
X173611904Y-87532990D02*
X173688094Y-87609180D01*
X173688094Y-87609180D02*
X173726189Y-87685371D01*
X173726189Y-87685371D02*
X173764285Y-87837752D01*
X173764285Y-87837752D02*
X173764285Y-87952038D01*
X173764285Y-87952038D02*
X173726189Y-88104419D01*
X173726189Y-88104419D02*
X173688094Y-88180609D01*
X173688094Y-88180609D02*
X173611904Y-88256800D01*
X173611904Y-88256800D02*
X173497618Y-88294895D01*
X173497618Y-88294895D02*
X173421427Y-88294895D01*
X173421427Y-88294895D02*
X173307142Y-88256800D01*
X173307142Y-88256800D02*
X173269046Y-88218704D01*
X173269046Y-88218704D02*
X173269046Y-87952038D01*
X173269046Y-87952038D02*
X173421427Y-87952038D01*
X172926189Y-88294895D02*
X172926189Y-87494895D01*
X172926189Y-87875847D02*
X172469046Y-87875847D01*
X172469046Y-88294895D02*
X172469046Y-87494895D01*
X172202380Y-87494895D02*
X171745237Y-87494895D01*
X171973809Y-88294895D02*
X171973809Y-87494895D01*
X170907142Y-88256800D02*
X170792856Y-88294895D01*
X170792856Y-88294895D02*
X170602380Y-88294895D01*
X170602380Y-88294895D02*
X170526189Y-88256800D01*
X170526189Y-88256800D02*
X170488094Y-88218704D01*
X170488094Y-88218704D02*
X170449999Y-88142514D01*
X170449999Y-88142514D02*
X170449999Y-88066323D01*
X170449999Y-88066323D02*
X170488094Y-87990133D01*
X170488094Y-87990133D02*
X170526189Y-87952038D01*
X170526189Y-87952038D02*
X170602380Y-87913942D01*
X170602380Y-87913942D02*
X170754761Y-87875847D01*
X170754761Y-87875847D02*
X170830951Y-87837752D01*
X170830951Y-87837752D02*
X170869046Y-87799657D01*
X170869046Y-87799657D02*
X170907142Y-87723466D01*
X170907142Y-87723466D02*
X170907142Y-87647276D01*
X170907142Y-87647276D02*
X170869046Y-87571085D01*
X170869046Y-87571085D02*
X170830951Y-87532990D01*
X170830951Y-87532990D02*
X170754761Y-87494895D01*
X170754761Y-87494895D02*
X170564284Y-87494895D01*
X170564284Y-87494895D02*
X170449999Y-87532990D01*
X170107141Y-88294895D02*
X170107141Y-87494895D01*
X169726189Y-88294895D02*
X169726189Y-87494895D01*
X169726189Y-87494895D02*
X169535713Y-87494895D01*
X169535713Y-87494895D02*
X169421427Y-87532990D01*
X169421427Y-87532990D02*
X169345237Y-87609180D01*
X169345237Y-87609180D02*
X169307142Y-87685371D01*
X169307142Y-87685371D02*
X169269046Y-87837752D01*
X169269046Y-87837752D02*
X169269046Y-87952038D01*
X169269046Y-87952038D02*
X169307142Y-88104419D01*
X169307142Y-88104419D02*
X169345237Y-88180609D01*
X169345237Y-88180609D02*
X169421427Y-88256800D01*
X169421427Y-88256800D02*
X169535713Y-88294895D01*
X169535713Y-88294895D02*
X169726189Y-88294895D01*
X168926189Y-87875847D02*
X168659523Y-87875847D01*
X168545237Y-88294895D02*
X168926189Y-88294895D01*
X168926189Y-88294895D02*
X168926189Y-87494895D01*
X168926189Y-87494895D02*
X168545237Y-87494895D01*
D10*
X178766666Y-100794295D02*
X178499999Y-101594295D01*
X178499999Y-101594295D02*
X178233333Y-100794295D01*
X177509523Y-101518104D02*
X177547619Y-101556200D01*
X177547619Y-101556200D02*
X177661904Y-101594295D01*
X177661904Y-101594295D02*
X177738095Y-101594295D01*
X177738095Y-101594295D02*
X177852381Y-101556200D01*
X177852381Y-101556200D02*
X177928571Y-101480009D01*
X177928571Y-101480009D02*
X177966666Y-101403819D01*
X177966666Y-101403819D02*
X178004762Y-101251438D01*
X178004762Y-101251438D02*
X178004762Y-101137152D01*
X178004762Y-101137152D02*
X177966666Y-100984771D01*
X177966666Y-100984771D02*
X177928571Y-100908580D01*
X177928571Y-100908580D02*
X177852381Y-100832390D01*
X177852381Y-100832390D02*
X177738095Y-100794295D01*
X177738095Y-100794295D02*
X177661904Y-100794295D01*
X177661904Y-100794295D02*
X177547619Y-100832390D01*
X177547619Y-100832390D02*
X177509523Y-100870485D01*
X176709523Y-101518104D02*
X176747619Y-101556200D01*
X176747619Y-101556200D02*
X176861904Y-101594295D01*
X176861904Y-101594295D02*
X176938095Y-101594295D01*
X176938095Y-101594295D02*
X177052381Y-101556200D01*
X177052381Y-101556200D02*
X177128571Y-101480009D01*
X177128571Y-101480009D02*
X177166666Y-101403819D01*
X177166666Y-101403819D02*
X177204762Y-101251438D01*
X177204762Y-101251438D02*
X177204762Y-101137152D01*
X177204762Y-101137152D02*
X177166666Y-100984771D01*
X177166666Y-100984771D02*
X177128571Y-100908580D01*
X177128571Y-100908580D02*
X177052381Y-100832390D01*
X177052381Y-100832390D02*
X176938095Y-100794295D01*
X176938095Y-100794295D02*
X176861904Y-100794295D01*
X176861904Y-100794295D02*
X176747619Y-100832390D01*
X176747619Y-100832390D02*
X176709523Y-100870485D01*
D14*
X143484664Y-111792320D02*
X143073603Y-111302575D01*
X143647350Y-111185166D02*
X142584831Y-110900465D01*
X142584831Y-110900465D02*
X142476374Y-111305234D01*
X142476374Y-111305234D02*
X142499856Y-111419984D01*
X142499856Y-111419984D02*
X142536895Y-111484137D01*
X142536895Y-111484137D02*
X142624530Y-111561847D01*
X142624530Y-111561847D02*
X142776318Y-111602519D01*
X142776318Y-111602519D02*
X142891067Y-111579037D01*
X142891067Y-111579037D02*
X142955221Y-111541998D01*
X142955221Y-111541998D02*
X143032931Y-111454363D01*
X143032931Y-111454363D02*
X143141389Y-111049594D01*
X143321977Y-112399473D02*
X143298496Y-112284724D01*
X143298496Y-112284724D02*
X143261457Y-112220570D01*
X143261457Y-112220570D02*
X143173822Y-112142860D01*
X143173822Y-112142860D02*
X142870245Y-112061517D01*
X142870245Y-112061517D02*
X142755496Y-112084998D01*
X142755496Y-112084998D02*
X142691342Y-112122037D01*
X142691342Y-112122037D02*
X142613632Y-112209672D01*
X142613632Y-112209672D02*
X142572960Y-112361461D01*
X142572960Y-112361461D02*
X142596442Y-112476210D01*
X142596442Y-112476210D02*
X142633481Y-112540364D01*
X142633481Y-112540364D02*
X142721116Y-112618074D01*
X142721116Y-112618074D02*
X143024693Y-112699417D01*
X143024693Y-112699417D02*
X143139442Y-112675935D01*
X143139442Y-112675935D02*
X143203595Y-112638896D01*
X143203595Y-112638896D02*
X143281306Y-112551261D01*
X143281306Y-112551261D02*
X143321977Y-112399473D01*
X142437388Y-112867422D02*
X142328931Y-113272191D01*
X142042544Y-112924310D02*
X142953274Y-113168339D01*
X142953274Y-113168339D02*
X143040909Y-113246050D01*
X143040909Y-113246050D02*
X143064391Y-113360799D01*
X143064391Y-113360799D02*
X143037276Y-113461991D01*
X142820362Y-114271529D02*
X142263804Y-114122400D01*
X142263804Y-114122400D02*
X142176169Y-114044689D01*
X142176169Y-114044689D02*
X142152688Y-113929940D01*
X142152688Y-113929940D02*
X142206916Y-113727555D01*
X142206916Y-113727555D02*
X142284627Y-113639920D01*
X142769765Y-114257972D02*
X142847476Y-114170337D01*
X142847476Y-114170337D02*
X142915262Y-113917356D01*
X142915262Y-113917356D02*
X142891780Y-113802607D01*
X142891780Y-113802607D02*
X142804145Y-113724896D01*
X142804145Y-113724896D02*
X142702953Y-113697782D01*
X142702953Y-113697782D02*
X142588203Y-113721263D01*
X142588203Y-113721263D02*
X142510493Y-113808899D01*
X142510493Y-113808899D02*
X142442707Y-114061879D01*
X142442707Y-114061879D02*
X142364997Y-114149514D01*
X142684790Y-114777490D02*
X141976444Y-114587689D01*
X142178829Y-114641918D02*
X142064079Y-114665400D01*
X142064079Y-114665400D02*
X141999926Y-114702439D01*
X141999926Y-114702439D02*
X141922215Y-114790074D01*
X141922215Y-114790074D02*
X141895101Y-114891266D01*
X141827315Y-115144246D02*
X142467875Y-115587027D01*
X141691743Y-115650207D02*
X142467875Y-115587027D01*
X142467875Y-115587027D02*
X142747970Y-115553621D01*
X142747970Y-115553621D02*
X142812123Y-115516582D01*
X142812123Y-115516582D02*
X142889834Y-115428947D01*
X141518159Y-116905185D02*
X141423259Y-117259358D01*
X141939145Y-117560275D02*
X142074716Y-117054314D01*
X142074716Y-117054314D02*
X141012198Y-116769613D01*
X141012198Y-116769613D02*
X140876626Y-117275574D01*
X141108784Y-117825840D02*
X141817130Y-118015640D01*
X141209977Y-117852954D02*
X141145823Y-117889993D01*
X141145823Y-117889993D02*
X141068113Y-117977628D01*
X141068113Y-117977628D02*
X141027441Y-118129416D01*
X141027441Y-118129416D02*
X141050923Y-118244166D01*
X141050923Y-118244166D02*
X141138558Y-118321876D01*
X141138558Y-118321876D02*
X141695115Y-118471005D01*
X141386933Y-119418774D02*
X141464643Y-119331139D01*
X141464643Y-119331139D02*
X141518872Y-119128755D01*
X141518872Y-119128755D02*
X141495390Y-119014005D01*
X141495390Y-119014005D02*
X141458351Y-118949852D01*
X141458351Y-118949852D02*
X141370716Y-118872142D01*
X141370716Y-118872142D02*
X141067139Y-118790798D01*
X141067139Y-118790798D02*
X140952390Y-118814280D01*
X140952390Y-118814280D02*
X140888237Y-118851319D01*
X140888237Y-118851319D02*
X140810526Y-118938954D01*
X140810526Y-118938954D02*
X140756297Y-119141339D01*
X140756297Y-119141339D02*
X140779779Y-119256088D01*
X141274842Y-120039485D02*
X141251361Y-119924735D01*
X141251361Y-119924735D02*
X141214322Y-119860582D01*
X141214322Y-119860582D02*
X141126687Y-119782871D01*
X141126687Y-119782871D02*
X140823110Y-119701528D01*
X140823110Y-119701528D02*
X140708361Y-119725010D01*
X140708361Y-119725010D02*
X140644207Y-119762049D01*
X140644207Y-119762049D02*
X140566497Y-119849684D01*
X140566497Y-119849684D02*
X140525825Y-120001472D01*
X140525825Y-120001472D02*
X140549307Y-120116222D01*
X140549307Y-120116222D02*
X140586346Y-120180375D01*
X140586346Y-120180375D02*
X140673981Y-120258086D01*
X140673981Y-120258086D02*
X140977558Y-120339429D01*
X140977558Y-120339429D02*
X141092307Y-120315947D01*
X141092307Y-120315947D02*
X141156460Y-120278908D01*
X141156460Y-120278908D02*
X141234171Y-120191273D01*
X141234171Y-120191273D02*
X141274842Y-120039485D01*
X140935913Y-121304387D02*
X139873394Y-121019686D01*
X140885317Y-121290830D02*
X140963027Y-121203195D01*
X140963027Y-121203195D02*
X141017256Y-121000811D01*
X141017256Y-121000811D02*
X140993774Y-120886061D01*
X140993774Y-120886061D02*
X140956735Y-120821908D01*
X140956735Y-120821908D02*
X140869100Y-120744198D01*
X140869100Y-120744198D02*
X140565524Y-120662854D01*
X140565524Y-120662854D02*
X140450774Y-120686336D01*
X140450774Y-120686336D02*
X140386621Y-120723375D01*
X140386621Y-120723375D02*
X140308910Y-120811010D01*
X140308910Y-120811010D02*
X140254682Y-121013395D01*
X140254682Y-121013395D02*
X140278163Y-121128144D01*
X140641287Y-122201560D02*
X140718998Y-122113925D01*
X140718998Y-122113925D02*
X140773227Y-121911541D01*
X140773227Y-121911541D02*
X140749745Y-121796791D01*
X140749745Y-121796791D02*
X140662110Y-121719081D01*
X140662110Y-121719081D02*
X140257341Y-121610623D01*
X140257341Y-121610623D02*
X140142591Y-121634105D01*
X140142591Y-121634105D02*
X140064881Y-121721740D01*
X140064881Y-121721740D02*
X140010652Y-121924125D01*
X140010652Y-121924125D02*
X140034134Y-122038874D01*
X140034134Y-122038874D02*
X140121769Y-122116584D01*
X140121769Y-122116584D02*
X140222961Y-122143699D01*
X140222961Y-122143699D02*
X140459725Y-121664852D01*
X140556312Y-122721078D02*
X139847966Y-122531278D01*
X140050350Y-122585507D02*
X139935601Y-122608988D01*
X139935601Y-122608988D02*
X139871448Y-122646027D01*
X139871448Y-122646027D02*
X139793737Y-122733662D01*
X139793737Y-122733662D02*
X139766623Y-122834854D01*
D10*
G36*
X183103934Y-95019295D02*
G01*
X183000628Y-95019295D01*
X182914686Y-94990648D01*
X182859621Y-94935582D01*
X182830651Y-94877642D01*
X182796791Y-94742202D01*
X182796791Y-94646387D01*
X182830651Y-94510946D01*
X182859621Y-94453006D01*
X182914685Y-94397942D01*
X183000628Y-94369295D01*
X183103934Y-94369295D01*
X183103934Y-95019295D01*
G37*
G36*
X182312973Y-94790723D02*
G01*
X182140134Y-94790723D01*
X182226553Y-94531465D01*
X182312973Y-94790723D01*
G37*
G36*
X184142824Y-95258184D02*
G01*
X181796587Y-95258184D01*
X181796587Y-95084915D01*
X181885476Y-95084915D01*
X181887551Y-95114105D01*
X181900637Y-95140278D01*
X181922745Y-95159452D01*
X181950507Y-95168706D01*
X181979697Y-95166631D01*
X182005870Y-95153545D01*
X182025044Y-95131437D01*
X182031038Y-95118012D01*
X182090134Y-94940723D01*
X182362973Y-94940723D01*
X182422069Y-95118012D01*
X182428063Y-95131437D01*
X182447237Y-95153545D01*
X182473410Y-95166631D01*
X182502600Y-95168706D01*
X182530363Y-95159452D01*
X182552470Y-95140278D01*
X182565556Y-95114105D01*
X182567631Y-95084915D01*
X182564371Y-95070578D01*
X182419895Y-94637152D01*
X182646791Y-94637152D01*
X182646791Y-94751438D01*
X182647042Y-94753991D01*
X182646880Y-94755084D01*
X182647689Y-94760558D01*
X182648232Y-94766070D01*
X182648654Y-94767090D01*
X182649030Y-94769629D01*
X182687126Y-94922010D01*
X182687511Y-94923089D01*
X182687550Y-94923628D01*
X182689874Y-94929703D01*
X182692073Y-94935855D01*
X182692395Y-94936290D01*
X182692805Y-94937360D01*
X182730900Y-95013550D01*
X182734863Y-95019846D01*
X182735621Y-95021676D01*
X182737310Y-95023734D01*
X182738732Y-95025993D01*
X182740230Y-95027292D01*
X182744949Y-95033042D01*
X182821139Y-95109233D01*
X182832504Y-95118560D01*
X182834994Y-95119591D01*
X182837030Y-95121357D01*
X182850455Y-95127351D01*
X182964741Y-95165446D01*
X182971994Y-95167095D01*
X182973826Y-95167854D01*
X182976480Y-95168115D01*
X182979078Y-95168706D01*
X182981052Y-95168565D01*
X182988458Y-95169295D01*
X183178934Y-95169295D01*
X183193566Y-95167854D01*
X183220602Y-95156655D01*
X183241294Y-95135963D01*
X183252493Y-95108927D01*
X183253934Y-95094295D01*
X183253934Y-94865723D01*
X183446792Y-94865723D01*
X183446792Y-94941914D01*
X183448233Y-94956546D01*
X183449264Y-94959035D01*
X183449455Y-94961723D01*
X183454710Y-94975455D01*
X183492805Y-95051645D01*
X183496768Y-95057941D01*
X183497526Y-95059771D01*
X183499215Y-95061829D01*
X183500637Y-95064088D01*
X183502135Y-95065387D01*
X183506853Y-95071136D01*
X183544948Y-95109232D01*
X183550699Y-95113952D01*
X183551998Y-95115450D01*
X183554253Y-95116869D01*
X183556313Y-95118560D01*
X183558143Y-95119318D01*
X183564441Y-95123282D01*
X183640632Y-95161377D01*
X183654364Y-95166632D01*
X183657051Y-95166822D01*
X183659541Y-95167854D01*
X183674173Y-95169295D01*
X183864649Y-95169295D01*
X183872054Y-95168565D01*
X183874029Y-95168706D01*
X183876626Y-95168115D01*
X183879281Y-95167854D01*
X183881112Y-95167095D01*
X183888366Y-95165446D01*
X184002652Y-95127351D01*
X184016077Y-95121357D01*
X184038185Y-95102183D01*
X184051271Y-95076010D01*
X184053346Y-95046820D01*
X184044092Y-95019058D01*
X184024919Y-94996950D01*
X183998745Y-94983864D01*
X183969555Y-94981789D01*
X183955218Y-94985049D01*
X183852479Y-95019295D01*
X183691878Y-95019295D01*
X183642409Y-94994561D01*
X183621526Y-94973677D01*
X183596792Y-94924209D01*
X183596792Y-94883428D01*
X183621526Y-94833960D01*
X183642409Y-94813076D01*
X183700349Y-94784106D01*
X183844744Y-94748008D01*
X183845823Y-94747622D01*
X183846363Y-94747584D01*
X183852444Y-94745256D01*
X183858590Y-94743061D01*
X183859025Y-94742738D01*
X183860095Y-94742329D01*
X183936285Y-94704234D01*
X183942584Y-94700269D01*
X183944412Y-94699512D01*
X183946468Y-94697823D01*
X183948728Y-94696402D01*
X183950027Y-94694903D01*
X183955777Y-94690185D01*
X183993872Y-94652090D01*
X183998592Y-94646337D01*
X184000088Y-94645041D01*
X184001507Y-94642786D01*
X184003199Y-94640725D01*
X184003957Y-94638894D01*
X184007921Y-94632598D01*
X184046017Y-94556408D01*
X184051272Y-94542676D01*
X184051463Y-94539986D01*
X184052494Y-94537498D01*
X184053935Y-94522866D01*
X184053935Y-94446676D01*
X184052494Y-94432044D01*
X184051463Y-94429555D01*
X184051272Y-94426866D01*
X184046017Y-94413134D01*
X184007921Y-94336944D01*
X184003957Y-94330647D01*
X184003199Y-94328817D01*
X184001507Y-94326755D01*
X184000088Y-94324501D01*
X183998592Y-94323204D01*
X183993872Y-94317452D01*
X183955777Y-94279357D01*
X183950027Y-94274638D01*
X183948728Y-94273140D01*
X183946468Y-94271718D01*
X183944412Y-94270030D01*
X183942584Y-94269272D01*
X183936285Y-94265308D01*
X183860095Y-94227213D01*
X183846363Y-94221958D01*
X183843675Y-94221767D01*
X183841186Y-94220736D01*
X183826554Y-94219295D01*
X183636077Y-94219295D01*
X183628671Y-94220024D01*
X183626697Y-94219884D01*
X183624099Y-94220474D01*
X183621445Y-94220736D01*
X183619613Y-94221494D01*
X183612360Y-94223144D01*
X183498075Y-94261239D01*
X183484649Y-94267233D01*
X183462542Y-94286407D01*
X183449456Y-94312580D01*
X183447381Y-94341770D01*
X183456635Y-94369533D01*
X183475809Y-94391640D01*
X183501982Y-94404726D01*
X183531172Y-94406801D01*
X183545509Y-94403541D01*
X183648247Y-94369295D01*
X183808849Y-94369295D01*
X183858317Y-94394029D01*
X183879200Y-94414912D01*
X183903935Y-94464381D01*
X183903935Y-94505160D01*
X183879200Y-94554629D01*
X183858317Y-94575513D01*
X183800378Y-94604482D01*
X183655983Y-94640581D01*
X183654903Y-94640966D01*
X183654363Y-94641005D01*
X183648267Y-94643337D01*
X183642137Y-94645528D01*
X183641702Y-94645849D01*
X183640631Y-94646260D01*
X183564441Y-94684356D01*
X183558144Y-94688319D01*
X183556314Y-94689078D01*
X183554252Y-94690769D01*
X183551998Y-94692189D01*
X183550701Y-94693684D01*
X183544949Y-94698405D01*
X183506854Y-94736500D01*
X183502135Y-94742249D01*
X183500637Y-94743549D01*
X183499215Y-94745808D01*
X183497527Y-94747865D01*
X183496769Y-94749692D01*
X183492805Y-94755992D01*
X183454710Y-94832182D01*
X183449455Y-94845914D01*
X183449264Y-94848601D01*
X183448233Y-94851091D01*
X183446792Y-94865723D01*
X183253934Y-94865723D01*
X183253934Y-94294295D01*
X183252493Y-94279663D01*
X183241294Y-94252627D01*
X183220602Y-94231935D01*
X183193566Y-94220736D01*
X183178934Y-94219295D01*
X182988458Y-94219295D01*
X182981052Y-94220024D01*
X182979078Y-94219884D01*
X182976480Y-94220474D01*
X182973826Y-94220736D01*
X182971994Y-94221494D01*
X182964741Y-94223144D01*
X182850455Y-94261239D01*
X182837030Y-94267233D01*
X182834996Y-94268996D01*
X182832504Y-94270029D01*
X182821139Y-94279357D01*
X182744949Y-94355547D01*
X182740230Y-94361296D01*
X182738732Y-94362596D01*
X182737310Y-94364855D01*
X182735622Y-94366912D01*
X182734864Y-94368739D01*
X182730900Y-94375039D01*
X182692805Y-94451230D01*
X182692395Y-94452299D01*
X182692073Y-94452735D01*
X182689874Y-94458886D01*
X182687550Y-94464962D01*
X182687511Y-94465500D01*
X182687126Y-94466580D01*
X182649030Y-94618961D01*
X182648654Y-94621499D01*
X182648232Y-94622520D01*
X182647689Y-94628031D01*
X182646880Y-94633506D01*
X182647042Y-94634598D01*
X182646791Y-94637152D01*
X182419895Y-94637152D01*
X182297704Y-94270578D01*
X182291710Y-94257152D01*
X182288200Y-94253105D01*
X182285803Y-94248311D01*
X182278695Y-94242147D01*
X182272536Y-94235045D01*
X182267744Y-94232649D01*
X182263696Y-94229138D01*
X182254772Y-94226163D01*
X182246363Y-94221959D01*
X182241018Y-94221579D01*
X182235933Y-94219884D01*
X182226550Y-94220550D01*
X182217173Y-94219884D01*
X182212090Y-94221578D01*
X182206743Y-94221958D01*
X182198329Y-94226164D01*
X182189410Y-94229138D01*
X182185362Y-94232648D01*
X182180570Y-94235045D01*
X182174407Y-94242149D01*
X182167303Y-94248312D01*
X182164907Y-94253103D01*
X182161396Y-94257152D01*
X182155402Y-94270578D01*
X181888736Y-95070578D01*
X181885476Y-95084915D01*
X181796587Y-95084915D01*
X181796587Y-94130406D01*
X184142824Y-94130406D01*
X184142824Y-95258184D01*
G37*
G36*
X181542824Y-95258184D02*
G01*
X179235534Y-95258184D01*
X179235534Y-95079663D01*
X179324423Y-95079663D01*
X179324423Y-95108927D01*
X179335622Y-95135963D01*
X179356314Y-95156655D01*
X179383350Y-95167854D01*
X179397982Y-95169295D01*
X179778934Y-95169295D01*
X179793566Y-95167854D01*
X179820602Y-95156655D01*
X179841294Y-95135963D01*
X179852493Y-95108927D01*
X179853934Y-95094295D01*
X179853934Y-94355853D01*
X180048232Y-94355853D01*
X180048232Y-94385115D01*
X180059430Y-94412152D01*
X180080123Y-94432845D01*
X180107159Y-94444044D01*
X180136421Y-94444044D01*
X180163458Y-94432846D01*
X180174823Y-94423519D01*
X180200400Y-94397942D01*
X180286342Y-94369295D01*
X180338193Y-94369295D01*
X180424135Y-94397942D01*
X180479199Y-94453006D01*
X180508169Y-94510945D01*
X180542030Y-94646387D01*
X180542030Y-94742202D01*
X180508169Y-94877643D01*
X180479199Y-94935582D01*
X180424134Y-94990648D01*
X180338193Y-95019295D01*
X180286342Y-95019295D01*
X180200401Y-94990648D01*
X180174824Y-94965071D01*
X180163459Y-94955744D01*
X180136422Y-94944545D01*
X180107160Y-94944545D01*
X180080123Y-94955744D01*
X180059431Y-94976436D01*
X180048232Y-95003473D01*
X180048232Y-95032735D01*
X180059431Y-95059772D01*
X180068758Y-95071137D01*
X180106854Y-95109233D01*
X180118219Y-95118561D01*
X180120709Y-95119592D01*
X180122744Y-95121357D01*
X180136170Y-95127351D01*
X180250455Y-95165446D01*
X180257708Y-95167095D01*
X180259540Y-95167854D01*
X180262194Y-95168115D01*
X180264792Y-95168706D01*
X180266766Y-95168565D01*
X180274172Y-95169295D01*
X180350363Y-95169295D01*
X180357768Y-95168565D01*
X180359743Y-95168706D01*
X180362340Y-95168115D01*
X180364995Y-95167854D01*
X180366826Y-95167095D01*
X180374080Y-95165446D01*
X180488366Y-95127351D01*
X180501791Y-95121357D01*
X180503826Y-95119591D01*
X180506317Y-95118560D01*
X180517682Y-95109233D01*
X180593873Y-95033041D01*
X180598590Y-95027292D01*
X180600089Y-95025993D01*
X180601510Y-95023734D01*
X180603200Y-95021676D01*
X180603957Y-95019846D01*
X180607921Y-95013550D01*
X180646016Y-94937360D01*
X180646425Y-94936290D01*
X180646748Y-94935855D01*
X180648946Y-94929703D01*
X180651271Y-94923628D01*
X180651309Y-94923089D01*
X180651695Y-94922010D01*
X180665767Y-94865723D01*
X180846792Y-94865723D01*
X180846792Y-94941914D01*
X180848233Y-94956546D01*
X180849264Y-94959035D01*
X180849455Y-94961723D01*
X180854710Y-94975455D01*
X180892805Y-95051645D01*
X180896768Y-95057941D01*
X180897526Y-95059771D01*
X180899215Y-95061829D01*
X180900637Y-95064088D01*
X180902135Y-95065387D01*
X180906853Y-95071136D01*
X180944948Y-95109232D01*
X180950699Y-95113952D01*
X180951998Y-95115450D01*
X180954253Y-95116869D01*
X180956313Y-95118560D01*
X180958143Y-95119318D01*
X180964441Y-95123282D01*
X181040632Y-95161377D01*
X181054364Y-95166632D01*
X181057051Y-95166822D01*
X181059541Y-95167854D01*
X181074173Y-95169295D01*
X181264649Y-95169295D01*
X181272054Y-95168565D01*
X181274029Y-95168706D01*
X181276626Y-95168115D01*
X181279281Y-95167854D01*
X181281112Y-95167095D01*
X181288366Y-95165446D01*
X181402652Y-95127351D01*
X181416077Y-95121357D01*
X181438185Y-95102183D01*
X181451271Y-95076010D01*
X181453346Y-95046820D01*
X181444092Y-95019058D01*
X181424919Y-94996950D01*
X181398745Y-94983864D01*
X181369555Y-94981789D01*
X181355218Y-94985049D01*
X181252479Y-95019295D01*
X181091878Y-95019295D01*
X181042409Y-94994561D01*
X181021526Y-94973677D01*
X180996792Y-94924209D01*
X180996792Y-94883428D01*
X181021526Y-94833960D01*
X181042409Y-94813076D01*
X181100349Y-94784106D01*
X181244744Y-94748008D01*
X181245823Y-94747622D01*
X181246363Y-94747584D01*
X181252444Y-94745256D01*
X181258590Y-94743061D01*
X181259025Y-94742738D01*
X181260095Y-94742329D01*
X181336285Y-94704234D01*
X181342584Y-94700269D01*
X181344412Y-94699512D01*
X181346468Y-94697823D01*
X181348728Y-94696402D01*
X181350027Y-94694903D01*
X181355777Y-94690185D01*
X181393872Y-94652090D01*
X181398592Y-94646337D01*
X181400088Y-94645041D01*
X181401507Y-94642786D01*
X181403199Y-94640725D01*
X181403957Y-94638894D01*
X181407921Y-94632598D01*
X181446017Y-94556408D01*
X181451272Y-94542676D01*
X181451463Y-94539986D01*
X181452494Y-94537498D01*
X181453935Y-94522866D01*
X181453935Y-94446676D01*
X181452494Y-94432044D01*
X181451463Y-94429555D01*
X181451272Y-94426866D01*
X181446017Y-94413134D01*
X181407921Y-94336944D01*
X181403957Y-94330647D01*
X181403199Y-94328817D01*
X181401507Y-94326755D01*
X181400088Y-94324501D01*
X181398592Y-94323204D01*
X181393872Y-94317452D01*
X181355777Y-94279357D01*
X181350027Y-94274638D01*
X181348728Y-94273140D01*
X181346468Y-94271718D01*
X181344412Y-94270030D01*
X181342584Y-94269272D01*
X181336285Y-94265308D01*
X181260095Y-94227213D01*
X181246363Y-94221958D01*
X181243675Y-94221767D01*
X181241186Y-94220736D01*
X181226554Y-94219295D01*
X181036077Y-94219295D01*
X181028671Y-94220024D01*
X181026697Y-94219884D01*
X181024099Y-94220474D01*
X181021445Y-94220736D01*
X181019613Y-94221494D01*
X181012360Y-94223144D01*
X180898075Y-94261239D01*
X180884649Y-94267233D01*
X180862542Y-94286407D01*
X180849456Y-94312580D01*
X180847381Y-94341770D01*
X180856635Y-94369533D01*
X180875809Y-94391640D01*
X180901982Y-94404726D01*
X180931172Y-94406801D01*
X180945509Y-94403541D01*
X181048247Y-94369295D01*
X181208849Y-94369295D01*
X181258317Y-94394029D01*
X181279200Y-94414912D01*
X181303935Y-94464381D01*
X181303935Y-94505160D01*
X181279200Y-94554629D01*
X181258317Y-94575513D01*
X181200378Y-94604482D01*
X181055983Y-94640581D01*
X181054903Y-94640966D01*
X181054363Y-94641005D01*
X181048267Y-94643337D01*
X181042137Y-94645528D01*
X181041702Y-94645849D01*
X181040631Y-94646260D01*
X180964441Y-94684356D01*
X180958144Y-94688319D01*
X180956314Y-94689078D01*
X180954252Y-94690769D01*
X180951998Y-94692189D01*
X180950701Y-94693684D01*
X180944949Y-94698405D01*
X180906854Y-94736500D01*
X180902135Y-94742249D01*
X180900637Y-94743549D01*
X180899215Y-94745808D01*
X180897527Y-94747865D01*
X180896769Y-94749692D01*
X180892805Y-94755992D01*
X180854710Y-94832182D01*
X180849455Y-94845914D01*
X180849264Y-94848601D01*
X180848233Y-94851091D01*
X180846792Y-94865723D01*
X180665767Y-94865723D01*
X180689791Y-94769628D01*
X180690166Y-94767091D01*
X180690589Y-94766070D01*
X180691131Y-94760557D01*
X180691941Y-94755084D01*
X180691778Y-94753991D01*
X180692030Y-94751438D01*
X180692030Y-94637152D01*
X180691778Y-94634598D01*
X180691941Y-94633506D01*
X180691131Y-94628032D01*
X180690589Y-94622520D01*
X180690166Y-94621498D01*
X180689791Y-94618962D01*
X180651695Y-94466580D01*
X180651309Y-94465500D01*
X180651271Y-94464962D01*
X180648946Y-94458886D01*
X180646748Y-94452735D01*
X180646425Y-94452299D01*
X180646016Y-94451230D01*
X180607921Y-94375039D01*
X180603958Y-94368744D01*
X180603200Y-94366912D01*
X180601508Y-94364850D01*
X180600089Y-94362596D01*
X180598592Y-94361297D01*
X180593872Y-94355547D01*
X180517682Y-94279357D01*
X180506317Y-94270030D01*
X180503826Y-94268998D01*
X180501791Y-94267233D01*
X180488366Y-94261239D01*
X180374080Y-94223144D01*
X180366826Y-94221494D01*
X180364995Y-94220736D01*
X180362340Y-94220474D01*
X180359743Y-94219884D01*
X180357768Y-94220024D01*
X180350363Y-94219295D01*
X180274172Y-94219295D01*
X180266766Y-94220024D01*
X180264792Y-94219884D01*
X180262194Y-94220474D01*
X180259540Y-94220736D01*
X180257708Y-94221494D01*
X180250455Y-94223144D01*
X180136170Y-94261239D01*
X180122744Y-94267233D01*
X180120708Y-94268998D01*
X180118220Y-94270029D01*
X180106855Y-94279356D01*
X180068759Y-94317451D01*
X180059431Y-94328817D01*
X180048232Y-94355853D01*
X179853934Y-94355853D01*
X179853934Y-94294295D01*
X179852493Y-94279663D01*
X179841294Y-94252627D01*
X179820602Y-94231935D01*
X179793566Y-94220736D01*
X179764302Y-94220736D01*
X179737266Y-94231935D01*
X179716574Y-94252627D01*
X179705375Y-94279663D01*
X179703934Y-94294295D01*
X179703934Y-95019295D01*
X179397982Y-95019295D01*
X179383350Y-95020736D01*
X179356314Y-95031935D01*
X179335622Y-95052627D01*
X179324423Y-95079663D01*
X179235534Y-95079663D01*
X179235534Y-94130406D01*
X181542824Y-94130406D01*
X181542824Y-95258184D01*
G37*
X181001319Y-104112595D02*
X181001319Y-104684023D01*
X182001319Y-104398309D02*
X181001319Y-104398309D01*
X182001319Y-105588785D02*
X181525128Y-105255452D01*
X182001319Y-105017357D02*
X181001319Y-105017357D01*
X181001319Y-105017357D02*
X181001319Y-105398309D01*
X181001319Y-105398309D02*
X181048938Y-105493547D01*
X181048938Y-105493547D02*
X181096557Y-105541166D01*
X181096557Y-105541166D02*
X181191795Y-105588785D01*
X181191795Y-105588785D02*
X181334652Y-105588785D01*
X181334652Y-105588785D02*
X181429890Y-105541166D01*
X181429890Y-105541166D02*
X181477509Y-105493547D01*
X181477509Y-105493547D02*
X181525128Y-105398309D01*
X181525128Y-105398309D02*
X181525128Y-105017357D01*
X182001319Y-106588785D02*
X181525128Y-106255452D01*
X182001319Y-106017357D02*
X181001319Y-106017357D01*
X181001319Y-106017357D02*
X181001319Y-106398309D01*
X181001319Y-106398309D02*
X181048938Y-106493547D01*
X181048938Y-106493547D02*
X181096557Y-106541166D01*
X181096557Y-106541166D02*
X181191795Y-106588785D01*
X181191795Y-106588785D02*
X181334652Y-106588785D01*
X181334652Y-106588785D02*
X181429890Y-106541166D01*
X181429890Y-106541166D02*
X181477509Y-106493547D01*
X181477509Y-106493547D02*
X181525128Y-106398309D01*
X181525128Y-106398309D02*
X181525128Y-106017357D01*
X181953700Y-106969738D02*
X182001319Y-107112595D01*
X182001319Y-107112595D02*
X182001319Y-107350690D01*
X182001319Y-107350690D02*
X181953700Y-107445928D01*
X181953700Y-107445928D02*
X181906080Y-107493547D01*
X181906080Y-107493547D02*
X181810842Y-107541166D01*
X181810842Y-107541166D02*
X181715604Y-107541166D01*
X181715604Y-107541166D02*
X181620366Y-107493547D01*
X181620366Y-107493547D02*
X181572747Y-107445928D01*
X181572747Y-107445928D02*
X181525128Y-107350690D01*
X181525128Y-107350690D02*
X181477509Y-107160214D01*
X181477509Y-107160214D02*
X181429890Y-107064976D01*
X181429890Y-107064976D02*
X181382271Y-107017357D01*
X181382271Y-107017357D02*
X181287033Y-106969738D01*
X181287033Y-106969738D02*
X181191795Y-106969738D01*
X181191795Y-106969738D02*
X181096557Y-107017357D01*
X181096557Y-107017357D02*
X181048938Y-107064976D01*
X181048938Y-107064976D02*
X181001319Y-107160214D01*
X181001319Y-107160214D02*
X181001319Y-107398309D01*
X181001319Y-107398309D02*
X181048938Y-107541166D01*
D15*
X167840952Y-79657864D02*
X168007618Y-79300721D01*
X168126666Y-79657864D02*
X168126666Y-78907864D01*
X168126666Y-78907864D02*
X167936190Y-78907864D01*
X167936190Y-78907864D02*
X167888571Y-78943578D01*
X167888571Y-78943578D02*
X167864761Y-78979292D01*
X167864761Y-78979292D02*
X167840952Y-79050721D01*
X167840952Y-79050721D02*
X167840952Y-79157864D01*
X167840952Y-79157864D02*
X167864761Y-79229292D01*
X167864761Y-79229292D02*
X167888571Y-79265007D01*
X167888571Y-79265007D02*
X167936190Y-79300721D01*
X167936190Y-79300721D02*
X168126666Y-79300721D01*
X167531428Y-78907864D02*
X167436190Y-78907864D01*
X167436190Y-78907864D02*
X167388571Y-78943578D01*
X167388571Y-78943578D02*
X167340952Y-79015007D01*
X167340952Y-79015007D02*
X167317142Y-79157864D01*
X167317142Y-79157864D02*
X167317142Y-79407864D01*
X167317142Y-79407864D02*
X167340952Y-79550721D01*
X167340952Y-79550721D02*
X167388571Y-79622150D01*
X167388571Y-79622150D02*
X167436190Y-79657864D01*
X167436190Y-79657864D02*
X167531428Y-79657864D01*
X167531428Y-79657864D02*
X167579047Y-79622150D01*
X167579047Y-79622150D02*
X167626666Y-79550721D01*
X167626666Y-79550721D02*
X167650475Y-79407864D01*
X167650475Y-79407864D02*
X167650475Y-79157864D01*
X167650475Y-79157864D02*
X167626666Y-79015007D01*
X167626666Y-79015007D02*
X167579047Y-78943578D01*
X167579047Y-78943578D02*
X167531428Y-78907864D01*
X167150475Y-78907864D02*
X167031427Y-79657864D01*
X167031427Y-79657864D02*
X166936189Y-79122150D01*
X166936189Y-79122150D02*
X166840951Y-79657864D01*
X166840951Y-79657864D02*
X166721904Y-78907864D01*
X166555236Y-78979292D02*
X166531427Y-78943578D01*
X166531427Y-78943578D02*
X166483808Y-78907864D01*
X166483808Y-78907864D02*
X166364760Y-78907864D01*
X166364760Y-78907864D02*
X166317141Y-78943578D01*
X166317141Y-78943578D02*
X166293332Y-78979292D01*
X166293332Y-78979292D02*
X166269522Y-79050721D01*
X166269522Y-79050721D02*
X166269522Y-79122150D01*
X166269522Y-79122150D02*
X166293332Y-79229292D01*
X166293332Y-79229292D02*
X166579046Y-79657864D01*
X166579046Y-79657864D02*
X166269522Y-79657864D01*
X183057619Y-76947435D02*
X183081428Y-76983150D01*
X183081428Y-76983150D02*
X183152857Y-77018864D01*
X183152857Y-77018864D02*
X183200476Y-77018864D01*
X183200476Y-77018864D02*
X183271904Y-76983150D01*
X183271904Y-76983150D02*
X183319523Y-76911721D01*
X183319523Y-76911721D02*
X183343333Y-76840292D01*
X183343333Y-76840292D02*
X183367142Y-76697435D01*
X183367142Y-76697435D02*
X183367142Y-76590292D01*
X183367142Y-76590292D02*
X183343333Y-76447435D01*
X183343333Y-76447435D02*
X183319523Y-76376007D01*
X183319523Y-76376007D02*
X183271904Y-76304578D01*
X183271904Y-76304578D02*
X183200476Y-76268864D01*
X183200476Y-76268864D02*
X183152857Y-76268864D01*
X183152857Y-76268864D02*
X183081428Y-76304578D01*
X183081428Y-76304578D02*
X183057619Y-76340292D01*
X182748095Y-76268864D02*
X182652857Y-76268864D01*
X182652857Y-76268864D02*
X182605238Y-76304578D01*
X182605238Y-76304578D02*
X182557619Y-76376007D01*
X182557619Y-76376007D02*
X182533809Y-76518864D01*
X182533809Y-76518864D02*
X182533809Y-76768864D01*
X182533809Y-76768864D02*
X182557619Y-76911721D01*
X182557619Y-76911721D02*
X182605238Y-76983150D01*
X182605238Y-76983150D02*
X182652857Y-77018864D01*
X182652857Y-77018864D02*
X182748095Y-77018864D01*
X182748095Y-77018864D02*
X182795714Y-76983150D01*
X182795714Y-76983150D02*
X182843333Y-76911721D01*
X182843333Y-76911721D02*
X182867142Y-76768864D01*
X182867142Y-76768864D02*
X182867142Y-76518864D01*
X182867142Y-76518864D02*
X182843333Y-76376007D01*
X182843333Y-76376007D02*
X182795714Y-76304578D01*
X182795714Y-76304578D02*
X182748095Y-76268864D01*
X182081428Y-77018864D02*
X182319523Y-77018864D01*
X182319523Y-77018864D02*
X182319523Y-76268864D01*
X181962380Y-76268864D02*
X181652856Y-76268864D01*
X181652856Y-76268864D02*
X181819523Y-76554578D01*
X181819523Y-76554578D02*
X181748094Y-76554578D01*
X181748094Y-76554578D02*
X181700475Y-76590292D01*
X181700475Y-76590292D02*
X181676666Y-76626007D01*
X181676666Y-76626007D02*
X181652856Y-76697435D01*
X181652856Y-76697435D02*
X181652856Y-76876007D01*
X181652856Y-76876007D02*
X181676666Y-76947435D01*
X181676666Y-76947435D02*
X181700475Y-76983150D01*
X181700475Y-76983150D02*
X181748094Y-77018864D01*
X181748094Y-77018864D02*
X181890951Y-77018864D01*
X181890951Y-77018864D02*
X181938570Y-76983150D01*
X181938570Y-76983150D02*
X181962380Y-76947435D01*
X183046238Y-59274364D02*
X183212904Y-58917221D01*
X183331952Y-59274364D02*
X183331952Y-58524364D01*
X183331952Y-58524364D02*
X183141476Y-58524364D01*
X183141476Y-58524364D02*
X183093857Y-58560078D01*
X183093857Y-58560078D02*
X183070047Y-58595792D01*
X183070047Y-58595792D02*
X183046238Y-58667221D01*
X183046238Y-58667221D02*
X183046238Y-58774364D01*
X183046238Y-58774364D02*
X183070047Y-58845792D01*
X183070047Y-58845792D02*
X183093857Y-58881507D01*
X183093857Y-58881507D02*
X183141476Y-58917221D01*
X183141476Y-58917221D02*
X183331952Y-58917221D01*
X182855761Y-59060078D02*
X182617666Y-59060078D01*
X182903380Y-59274364D02*
X182736714Y-58524364D01*
X182736714Y-58524364D02*
X182570047Y-59274364D01*
X182451000Y-58524364D02*
X182331952Y-59274364D01*
X182331952Y-59274364D02*
X182236714Y-58738650D01*
X182236714Y-58738650D02*
X182141476Y-59274364D01*
X182141476Y-59274364D02*
X182022429Y-58524364D01*
X167782428Y-59274364D02*
X168020523Y-59274364D01*
X168020523Y-59274364D02*
X168020523Y-58524364D01*
X167615761Y-58881507D02*
X167449094Y-58881507D01*
X167377666Y-59274364D02*
X167615761Y-59274364D01*
X167615761Y-59274364D02*
X167615761Y-58524364D01*
X167615761Y-58524364D02*
X167377666Y-58524364D01*
X167163380Y-59274364D02*
X167163380Y-58524364D01*
X167163380Y-58524364D02*
X167044332Y-58524364D01*
X167044332Y-58524364D02*
X166972904Y-58560078D01*
X166972904Y-58560078D02*
X166925285Y-58631507D01*
X166925285Y-58631507D02*
X166901475Y-58702935D01*
X166901475Y-58702935D02*
X166877666Y-58845792D01*
X166877666Y-58845792D02*
X166877666Y-58952935D01*
X166877666Y-58952935D02*
X166901475Y-59095792D01*
X166901475Y-59095792D02*
X166925285Y-59167221D01*
X166925285Y-59167221D02*
X166972904Y-59238650D01*
X166972904Y-59238650D02*
X167044332Y-59274364D01*
X167044332Y-59274364D02*
X167163380Y-59274364D01*
X168056237Y-71938650D02*
X167984809Y-71974364D01*
X167984809Y-71974364D02*
X167865761Y-71974364D01*
X167865761Y-71974364D02*
X167818142Y-71938650D01*
X167818142Y-71938650D02*
X167794333Y-71902935D01*
X167794333Y-71902935D02*
X167770523Y-71831507D01*
X167770523Y-71831507D02*
X167770523Y-71760078D01*
X167770523Y-71760078D02*
X167794333Y-71688650D01*
X167794333Y-71688650D02*
X167818142Y-71652935D01*
X167818142Y-71652935D02*
X167865761Y-71617221D01*
X167865761Y-71617221D02*
X167960999Y-71581507D01*
X167960999Y-71581507D02*
X168008618Y-71545792D01*
X168008618Y-71545792D02*
X168032428Y-71510078D01*
X168032428Y-71510078D02*
X168056237Y-71438650D01*
X168056237Y-71438650D02*
X168056237Y-71367221D01*
X168056237Y-71367221D02*
X168032428Y-71295792D01*
X168032428Y-71295792D02*
X168008618Y-71260078D01*
X168008618Y-71260078D02*
X167960999Y-71224364D01*
X167960999Y-71224364D02*
X167841952Y-71224364D01*
X167841952Y-71224364D02*
X167770523Y-71260078D01*
X167270524Y-71902935D02*
X167294333Y-71938650D01*
X167294333Y-71938650D02*
X167365762Y-71974364D01*
X167365762Y-71974364D02*
X167413381Y-71974364D01*
X167413381Y-71974364D02*
X167484809Y-71938650D01*
X167484809Y-71938650D02*
X167532428Y-71867221D01*
X167532428Y-71867221D02*
X167556238Y-71795792D01*
X167556238Y-71795792D02*
X167580047Y-71652935D01*
X167580047Y-71652935D02*
X167580047Y-71545792D01*
X167580047Y-71545792D02*
X167556238Y-71402935D01*
X167556238Y-71402935D02*
X167532428Y-71331507D01*
X167532428Y-71331507D02*
X167484809Y-71260078D01*
X167484809Y-71260078D02*
X167413381Y-71224364D01*
X167413381Y-71224364D02*
X167365762Y-71224364D01*
X167365762Y-71224364D02*
X167294333Y-71260078D01*
X167294333Y-71260078D02*
X167270524Y-71295792D01*
X166818143Y-71974364D02*
X167056238Y-71974364D01*
X167056238Y-71974364D02*
X167056238Y-71224364D01*
X167840952Y-74450864D02*
X168007618Y-74093721D01*
X168126666Y-74450864D02*
X168126666Y-73700864D01*
X168126666Y-73700864D02*
X167936190Y-73700864D01*
X167936190Y-73700864D02*
X167888571Y-73736578D01*
X167888571Y-73736578D02*
X167864761Y-73772292D01*
X167864761Y-73772292D02*
X167840952Y-73843721D01*
X167840952Y-73843721D02*
X167840952Y-73950864D01*
X167840952Y-73950864D02*
X167864761Y-74022292D01*
X167864761Y-74022292D02*
X167888571Y-74058007D01*
X167888571Y-74058007D02*
X167936190Y-74093721D01*
X167936190Y-74093721D02*
X168126666Y-74093721D01*
X167531428Y-73700864D02*
X167436190Y-73700864D01*
X167436190Y-73700864D02*
X167388571Y-73736578D01*
X167388571Y-73736578D02*
X167340952Y-73808007D01*
X167340952Y-73808007D02*
X167317142Y-73950864D01*
X167317142Y-73950864D02*
X167317142Y-74200864D01*
X167317142Y-74200864D02*
X167340952Y-74343721D01*
X167340952Y-74343721D02*
X167388571Y-74415150D01*
X167388571Y-74415150D02*
X167436190Y-74450864D01*
X167436190Y-74450864D02*
X167531428Y-74450864D01*
X167531428Y-74450864D02*
X167579047Y-74415150D01*
X167579047Y-74415150D02*
X167626666Y-74343721D01*
X167626666Y-74343721D02*
X167650475Y-74200864D01*
X167650475Y-74200864D02*
X167650475Y-73950864D01*
X167650475Y-73950864D02*
X167626666Y-73808007D01*
X167626666Y-73808007D02*
X167579047Y-73736578D01*
X167579047Y-73736578D02*
X167531428Y-73700864D01*
X167150475Y-73700864D02*
X167031427Y-74450864D01*
X167031427Y-74450864D02*
X166936189Y-73915150D01*
X166936189Y-73915150D02*
X166840951Y-74450864D01*
X166840951Y-74450864D02*
X166721904Y-73700864D01*
X166436189Y-73700864D02*
X166388570Y-73700864D01*
X166388570Y-73700864D02*
X166340951Y-73736578D01*
X166340951Y-73736578D02*
X166317141Y-73772292D01*
X166317141Y-73772292D02*
X166293332Y-73843721D01*
X166293332Y-73843721D02*
X166269522Y-73986578D01*
X166269522Y-73986578D02*
X166269522Y-74165150D01*
X166269522Y-74165150D02*
X166293332Y-74308007D01*
X166293332Y-74308007D02*
X166317141Y-74379435D01*
X166317141Y-74379435D02*
X166340951Y-74415150D01*
X166340951Y-74415150D02*
X166388570Y-74450864D01*
X166388570Y-74450864D02*
X166436189Y-74450864D01*
X166436189Y-74450864D02*
X166483808Y-74415150D01*
X166483808Y-74415150D02*
X166507617Y-74379435D01*
X166507617Y-74379435D02*
X166531427Y-74308007D01*
X166531427Y-74308007D02*
X166555236Y-74165150D01*
X166555236Y-74165150D02*
X166555236Y-73986578D01*
X166555236Y-73986578D02*
X166531427Y-73843721D01*
X166531427Y-73843721D02*
X166507617Y-73772292D01*
X166507617Y-73772292D02*
X166483808Y-73736578D01*
X166483808Y-73736578D02*
X166436189Y-73700864D01*
X183057619Y-82097435D02*
X183081428Y-82133150D01*
X183081428Y-82133150D02*
X183152857Y-82168864D01*
X183152857Y-82168864D02*
X183200476Y-82168864D01*
X183200476Y-82168864D02*
X183271904Y-82133150D01*
X183271904Y-82133150D02*
X183319523Y-82061721D01*
X183319523Y-82061721D02*
X183343333Y-81990292D01*
X183343333Y-81990292D02*
X183367142Y-81847435D01*
X183367142Y-81847435D02*
X183367142Y-81740292D01*
X183367142Y-81740292D02*
X183343333Y-81597435D01*
X183343333Y-81597435D02*
X183319523Y-81526007D01*
X183319523Y-81526007D02*
X183271904Y-81454578D01*
X183271904Y-81454578D02*
X183200476Y-81418864D01*
X183200476Y-81418864D02*
X183152857Y-81418864D01*
X183152857Y-81418864D02*
X183081428Y-81454578D01*
X183081428Y-81454578D02*
X183057619Y-81490292D01*
X182748095Y-81418864D02*
X182652857Y-81418864D01*
X182652857Y-81418864D02*
X182605238Y-81454578D01*
X182605238Y-81454578D02*
X182557619Y-81526007D01*
X182557619Y-81526007D02*
X182533809Y-81668864D01*
X182533809Y-81668864D02*
X182533809Y-81918864D01*
X182533809Y-81918864D02*
X182557619Y-82061721D01*
X182557619Y-82061721D02*
X182605238Y-82133150D01*
X182605238Y-82133150D02*
X182652857Y-82168864D01*
X182652857Y-82168864D02*
X182748095Y-82168864D01*
X182748095Y-82168864D02*
X182795714Y-82133150D01*
X182795714Y-82133150D02*
X182843333Y-82061721D01*
X182843333Y-82061721D02*
X182867142Y-81918864D01*
X182867142Y-81918864D02*
X182867142Y-81668864D01*
X182867142Y-81668864D02*
X182843333Y-81526007D01*
X182843333Y-81526007D02*
X182795714Y-81454578D01*
X182795714Y-81454578D02*
X182748095Y-81418864D01*
X182081428Y-82168864D02*
X182319523Y-82168864D01*
X182319523Y-82168864D02*
X182319523Y-81418864D01*
X181676666Y-81418864D02*
X181914761Y-81418864D01*
X181914761Y-81418864D02*
X181938570Y-81776007D01*
X181938570Y-81776007D02*
X181914761Y-81740292D01*
X181914761Y-81740292D02*
X181867142Y-81704578D01*
X181867142Y-81704578D02*
X181748094Y-81704578D01*
X181748094Y-81704578D02*
X181700475Y-81740292D01*
X181700475Y-81740292D02*
X181676666Y-81776007D01*
X181676666Y-81776007D02*
X181652856Y-81847435D01*
X181652856Y-81847435D02*
X181652856Y-82026007D01*
X181652856Y-82026007D02*
X181676666Y-82097435D01*
X181676666Y-82097435D02*
X181700475Y-82133150D01*
X181700475Y-82133150D02*
X181748094Y-82168864D01*
X181748094Y-82168864D02*
X181867142Y-82168864D01*
X181867142Y-82168864D02*
X181914761Y-82133150D01*
X181914761Y-82133150D02*
X181938570Y-82097435D01*
X168059999Y-61918864D02*
X168059999Y-61168864D01*
X168059999Y-61168864D02*
X167940951Y-61168864D01*
X167940951Y-61168864D02*
X167869523Y-61204578D01*
X167869523Y-61204578D02*
X167821904Y-61276007D01*
X167821904Y-61276007D02*
X167798094Y-61347435D01*
X167798094Y-61347435D02*
X167774285Y-61490292D01*
X167774285Y-61490292D02*
X167774285Y-61597435D01*
X167774285Y-61597435D02*
X167798094Y-61740292D01*
X167798094Y-61740292D02*
X167821904Y-61811721D01*
X167821904Y-61811721D02*
X167869523Y-61883150D01*
X167869523Y-61883150D02*
X167940951Y-61918864D01*
X167940951Y-61918864D02*
X168059999Y-61918864D01*
X167583808Y-61704578D02*
X167345713Y-61704578D01*
X167631427Y-61918864D02*
X167464761Y-61168864D01*
X167464761Y-61168864D02*
X167298094Y-61918864D01*
X167202856Y-61168864D02*
X166917142Y-61168864D01*
X167059999Y-61918864D02*
X167059999Y-61168864D01*
X166774285Y-61704578D02*
X166536190Y-61704578D01*
X166821904Y-61918864D02*
X166655238Y-61168864D01*
X166655238Y-61168864D02*
X166488571Y-61918864D01*
X183304165Y-66144364D02*
X183137499Y-66894364D01*
X183137499Y-66894364D02*
X182970832Y-66144364D01*
X182518452Y-66822935D02*
X182542261Y-66858650D01*
X182542261Y-66858650D02*
X182613690Y-66894364D01*
X182613690Y-66894364D02*
X182661309Y-66894364D01*
X182661309Y-66894364D02*
X182732737Y-66858650D01*
X182732737Y-66858650D02*
X182780356Y-66787221D01*
X182780356Y-66787221D02*
X182804166Y-66715792D01*
X182804166Y-66715792D02*
X182827975Y-66572935D01*
X182827975Y-66572935D02*
X182827975Y-66465792D01*
X182827975Y-66465792D02*
X182804166Y-66322935D01*
X182804166Y-66322935D02*
X182780356Y-66251507D01*
X182780356Y-66251507D02*
X182732737Y-66180078D01*
X182732737Y-66180078D02*
X182661309Y-66144364D01*
X182661309Y-66144364D02*
X182613690Y-66144364D01*
X182613690Y-66144364D02*
X182542261Y-66180078D01*
X182542261Y-66180078D02*
X182518452Y-66215792D01*
X182018452Y-66822935D02*
X182042261Y-66858650D01*
X182042261Y-66858650D02*
X182113690Y-66894364D01*
X182113690Y-66894364D02*
X182161309Y-66894364D01*
X182161309Y-66894364D02*
X182232737Y-66858650D01*
X182232737Y-66858650D02*
X182280356Y-66787221D01*
X182280356Y-66787221D02*
X182304166Y-66715792D01*
X182304166Y-66715792D02*
X182327975Y-66572935D01*
X182327975Y-66572935D02*
X182327975Y-66465792D01*
X182327975Y-66465792D02*
X182304166Y-66322935D01*
X182304166Y-66322935D02*
X182280356Y-66251507D01*
X182280356Y-66251507D02*
X182232737Y-66180078D01*
X182232737Y-66180078D02*
X182161309Y-66144364D01*
X182161309Y-66144364D02*
X182113690Y-66144364D01*
X182113690Y-66144364D02*
X182042261Y-66180078D01*
X182042261Y-66180078D02*
X182018452Y-66215792D01*
X167841952Y-63640078D02*
X167889571Y-63604364D01*
X167889571Y-63604364D02*
X167961000Y-63604364D01*
X167961000Y-63604364D02*
X168032428Y-63640078D01*
X168032428Y-63640078D02*
X168080047Y-63711507D01*
X168080047Y-63711507D02*
X168103857Y-63782935D01*
X168103857Y-63782935D02*
X168127666Y-63925792D01*
X168127666Y-63925792D02*
X168127666Y-64032935D01*
X168127666Y-64032935D02*
X168103857Y-64175792D01*
X168103857Y-64175792D02*
X168080047Y-64247221D01*
X168080047Y-64247221D02*
X168032428Y-64318650D01*
X168032428Y-64318650D02*
X167961000Y-64354364D01*
X167961000Y-64354364D02*
X167913381Y-64354364D01*
X167913381Y-64354364D02*
X167841952Y-64318650D01*
X167841952Y-64318650D02*
X167818143Y-64282935D01*
X167818143Y-64282935D02*
X167818143Y-64032935D01*
X167818143Y-64032935D02*
X167913381Y-64032935D01*
X167603857Y-64354364D02*
X167603857Y-63604364D01*
X167603857Y-63604364D02*
X167318143Y-64354364D01*
X167318143Y-64354364D02*
X167318143Y-63604364D01*
X167080047Y-64354364D02*
X167080047Y-63604364D01*
X167080047Y-63604364D02*
X166960999Y-63604364D01*
X166960999Y-63604364D02*
X166889571Y-63640078D01*
X166889571Y-63640078D02*
X166841952Y-63711507D01*
X166841952Y-63711507D02*
X166818142Y-63782935D01*
X166818142Y-63782935D02*
X166794333Y-63925792D01*
X166794333Y-63925792D02*
X166794333Y-64032935D01*
X166794333Y-64032935D02*
X166818142Y-64175792D01*
X166818142Y-64175792D02*
X166841952Y-64247221D01*
X166841952Y-64247221D02*
X166889571Y-64318650D01*
X166889571Y-64318650D02*
X166960999Y-64354364D01*
X166960999Y-64354364D02*
X167080047Y-64354364D01*
X183007619Y-79459435D02*
X183031428Y-79495150D01*
X183031428Y-79495150D02*
X183102857Y-79530864D01*
X183102857Y-79530864D02*
X183150476Y-79530864D01*
X183150476Y-79530864D02*
X183221904Y-79495150D01*
X183221904Y-79495150D02*
X183269523Y-79423721D01*
X183269523Y-79423721D02*
X183293333Y-79352292D01*
X183293333Y-79352292D02*
X183317142Y-79209435D01*
X183317142Y-79209435D02*
X183317142Y-79102292D01*
X183317142Y-79102292D02*
X183293333Y-78959435D01*
X183293333Y-78959435D02*
X183269523Y-78888007D01*
X183269523Y-78888007D02*
X183221904Y-78816578D01*
X183221904Y-78816578D02*
X183150476Y-78780864D01*
X183150476Y-78780864D02*
X183102857Y-78780864D01*
X183102857Y-78780864D02*
X183031428Y-78816578D01*
X183031428Y-78816578D02*
X183007619Y-78852292D01*
X182698095Y-78780864D02*
X182602857Y-78780864D01*
X182602857Y-78780864D02*
X182555238Y-78816578D01*
X182555238Y-78816578D02*
X182507619Y-78888007D01*
X182507619Y-78888007D02*
X182483809Y-79030864D01*
X182483809Y-79030864D02*
X182483809Y-79280864D01*
X182483809Y-79280864D02*
X182507619Y-79423721D01*
X182507619Y-79423721D02*
X182555238Y-79495150D01*
X182555238Y-79495150D02*
X182602857Y-79530864D01*
X182602857Y-79530864D02*
X182698095Y-79530864D01*
X182698095Y-79530864D02*
X182745714Y-79495150D01*
X182745714Y-79495150D02*
X182793333Y-79423721D01*
X182793333Y-79423721D02*
X182817142Y-79280864D01*
X182817142Y-79280864D02*
X182817142Y-79030864D01*
X182817142Y-79030864D02*
X182793333Y-78888007D01*
X182793333Y-78888007D02*
X182745714Y-78816578D01*
X182745714Y-78816578D02*
X182698095Y-78780864D01*
X182031428Y-79530864D02*
X182269523Y-79530864D01*
X182269523Y-79530864D02*
X182269523Y-78780864D01*
X181650475Y-79030864D02*
X181650475Y-79530864D01*
X181769523Y-78745150D02*
X181888570Y-79280864D01*
X181888570Y-79280864D02*
X181579047Y-79280864D01*
X168068141Y-69398650D02*
X167996713Y-69434364D01*
X167996713Y-69434364D02*
X167877665Y-69434364D01*
X167877665Y-69434364D02*
X167830046Y-69398650D01*
X167830046Y-69398650D02*
X167806237Y-69362935D01*
X167806237Y-69362935D02*
X167782427Y-69291507D01*
X167782427Y-69291507D02*
X167782427Y-69220078D01*
X167782427Y-69220078D02*
X167806237Y-69148650D01*
X167806237Y-69148650D02*
X167830046Y-69112935D01*
X167830046Y-69112935D02*
X167877665Y-69077221D01*
X167877665Y-69077221D02*
X167972903Y-69041507D01*
X167972903Y-69041507D02*
X168020522Y-69005792D01*
X168020522Y-69005792D02*
X168044332Y-68970078D01*
X168044332Y-68970078D02*
X168068141Y-68898650D01*
X168068141Y-68898650D02*
X168068141Y-68827221D01*
X168068141Y-68827221D02*
X168044332Y-68755792D01*
X168044332Y-68755792D02*
X168020522Y-68720078D01*
X168020522Y-68720078D02*
X167972903Y-68684364D01*
X167972903Y-68684364D02*
X167853856Y-68684364D01*
X167853856Y-68684364D02*
X167782427Y-68720078D01*
X167568142Y-69434364D02*
X167568142Y-68684364D01*
X167568142Y-68684364D02*
X167449094Y-68684364D01*
X167449094Y-68684364D02*
X167377666Y-68720078D01*
X167377666Y-68720078D02*
X167330047Y-68791507D01*
X167330047Y-68791507D02*
X167306237Y-68862935D01*
X167306237Y-68862935D02*
X167282428Y-69005792D01*
X167282428Y-69005792D02*
X167282428Y-69112935D01*
X167282428Y-69112935D02*
X167306237Y-69255792D01*
X167306237Y-69255792D02*
X167330047Y-69327221D01*
X167330047Y-69327221D02*
X167377666Y-69398650D01*
X167377666Y-69398650D02*
X167449094Y-69434364D01*
X167449094Y-69434364D02*
X167568142Y-69434364D01*
X167091951Y-69220078D02*
X166853856Y-69220078D01*
X167139570Y-69434364D02*
X166972904Y-68684364D01*
X166972904Y-68684364D02*
X166806237Y-69434364D01*
X182974809Y-64354364D02*
X183141475Y-63997221D01*
X183260523Y-64354364D02*
X183260523Y-63604364D01*
X183260523Y-63604364D02*
X183070047Y-63604364D01*
X183070047Y-63604364D02*
X183022428Y-63640078D01*
X183022428Y-63640078D02*
X182998618Y-63675792D01*
X182998618Y-63675792D02*
X182974809Y-63747221D01*
X182974809Y-63747221D02*
X182974809Y-63854364D01*
X182974809Y-63854364D02*
X182998618Y-63925792D01*
X182998618Y-63925792D02*
X183022428Y-63961507D01*
X183022428Y-63961507D02*
X183070047Y-63997221D01*
X183070047Y-63997221D02*
X183260523Y-63997221D01*
X182784332Y-64318650D02*
X182712904Y-64354364D01*
X182712904Y-64354364D02*
X182593856Y-64354364D01*
X182593856Y-64354364D02*
X182546237Y-64318650D01*
X182546237Y-64318650D02*
X182522428Y-64282935D01*
X182522428Y-64282935D02*
X182498618Y-64211507D01*
X182498618Y-64211507D02*
X182498618Y-64140078D01*
X182498618Y-64140078D02*
X182522428Y-64068650D01*
X182522428Y-64068650D02*
X182546237Y-64032935D01*
X182546237Y-64032935D02*
X182593856Y-63997221D01*
X182593856Y-63997221D02*
X182689094Y-63961507D01*
X182689094Y-63961507D02*
X182736713Y-63925792D01*
X182736713Y-63925792D02*
X182760523Y-63890078D01*
X182760523Y-63890078D02*
X182784332Y-63818650D01*
X182784332Y-63818650D02*
X182784332Y-63747221D01*
X182784332Y-63747221D02*
X182760523Y-63675792D01*
X182760523Y-63675792D02*
X182736713Y-63640078D01*
X182736713Y-63640078D02*
X182689094Y-63604364D01*
X182689094Y-63604364D02*
X182570047Y-63604364D01*
X182570047Y-63604364D02*
X182498618Y-63640078D01*
X182355761Y-63604364D02*
X182070047Y-63604364D01*
X182212904Y-64354364D02*
X182212904Y-63604364D01*
X183057619Y-71902935D02*
X183081428Y-71938650D01*
X183081428Y-71938650D02*
X183152857Y-71974364D01*
X183152857Y-71974364D02*
X183200476Y-71974364D01*
X183200476Y-71974364D02*
X183271904Y-71938650D01*
X183271904Y-71938650D02*
X183319523Y-71867221D01*
X183319523Y-71867221D02*
X183343333Y-71795792D01*
X183343333Y-71795792D02*
X183367142Y-71652935D01*
X183367142Y-71652935D02*
X183367142Y-71545792D01*
X183367142Y-71545792D02*
X183343333Y-71402935D01*
X183343333Y-71402935D02*
X183319523Y-71331507D01*
X183319523Y-71331507D02*
X183271904Y-71260078D01*
X183271904Y-71260078D02*
X183200476Y-71224364D01*
X183200476Y-71224364D02*
X183152857Y-71224364D01*
X183152857Y-71224364D02*
X183081428Y-71260078D01*
X183081428Y-71260078D02*
X183057619Y-71295792D01*
X182748095Y-71224364D02*
X182652857Y-71224364D01*
X182652857Y-71224364D02*
X182605238Y-71260078D01*
X182605238Y-71260078D02*
X182557619Y-71331507D01*
X182557619Y-71331507D02*
X182533809Y-71474364D01*
X182533809Y-71474364D02*
X182533809Y-71724364D01*
X182533809Y-71724364D02*
X182557619Y-71867221D01*
X182557619Y-71867221D02*
X182605238Y-71938650D01*
X182605238Y-71938650D02*
X182652857Y-71974364D01*
X182652857Y-71974364D02*
X182748095Y-71974364D01*
X182748095Y-71974364D02*
X182795714Y-71938650D01*
X182795714Y-71938650D02*
X182843333Y-71867221D01*
X182843333Y-71867221D02*
X182867142Y-71724364D01*
X182867142Y-71724364D02*
X182867142Y-71474364D01*
X182867142Y-71474364D02*
X182843333Y-71331507D01*
X182843333Y-71331507D02*
X182795714Y-71260078D01*
X182795714Y-71260078D02*
X182748095Y-71224364D01*
X182081428Y-71974364D02*
X182319523Y-71974364D01*
X182319523Y-71974364D02*
X182319523Y-71224364D01*
X181652856Y-71974364D02*
X181938570Y-71974364D01*
X181795713Y-71974364D02*
X181795713Y-71224364D01*
X181795713Y-71224364D02*
X181843332Y-71331507D01*
X181843332Y-71331507D02*
X181890951Y-71402935D01*
X181890951Y-71402935D02*
X181938570Y-71438650D01*
X183018452Y-61036578D02*
X183066071Y-61000864D01*
X183066071Y-61000864D02*
X183137500Y-61000864D01*
X183137500Y-61000864D02*
X183208928Y-61036578D01*
X183208928Y-61036578D02*
X183256547Y-61108007D01*
X183256547Y-61108007D02*
X183280357Y-61179435D01*
X183280357Y-61179435D02*
X183304166Y-61322292D01*
X183304166Y-61322292D02*
X183304166Y-61429435D01*
X183304166Y-61429435D02*
X183280357Y-61572292D01*
X183280357Y-61572292D02*
X183256547Y-61643721D01*
X183256547Y-61643721D02*
X183208928Y-61715150D01*
X183208928Y-61715150D02*
X183137500Y-61750864D01*
X183137500Y-61750864D02*
X183089881Y-61750864D01*
X183089881Y-61750864D02*
X183018452Y-61715150D01*
X183018452Y-61715150D02*
X182994643Y-61679435D01*
X182994643Y-61679435D02*
X182994643Y-61429435D01*
X182994643Y-61429435D02*
X183089881Y-61429435D01*
X182780357Y-61750864D02*
X182780357Y-61000864D01*
X182780357Y-61000864D02*
X182494643Y-61750864D01*
X182494643Y-61750864D02*
X182494643Y-61000864D01*
X182256547Y-61750864D02*
X182256547Y-61000864D01*
X182256547Y-61000864D02*
X182137499Y-61000864D01*
X182137499Y-61000864D02*
X182066071Y-61036578D01*
X182066071Y-61036578D02*
X182018452Y-61108007D01*
X182018452Y-61108007D02*
X181994642Y-61179435D01*
X181994642Y-61179435D02*
X181970833Y-61322292D01*
X181970833Y-61322292D02*
X181970833Y-61429435D01*
X181970833Y-61429435D02*
X181994642Y-61572292D01*
X181994642Y-61572292D02*
X182018452Y-61643721D01*
X182018452Y-61643721D02*
X182066071Y-61715150D01*
X182066071Y-61715150D02*
X182137499Y-61750864D01*
X182137499Y-61750864D02*
X182256547Y-61750864D01*
X183057619Y-74447435D02*
X183081428Y-74483150D01*
X183081428Y-74483150D02*
X183152857Y-74518864D01*
X183152857Y-74518864D02*
X183200476Y-74518864D01*
X183200476Y-74518864D02*
X183271904Y-74483150D01*
X183271904Y-74483150D02*
X183319523Y-74411721D01*
X183319523Y-74411721D02*
X183343333Y-74340292D01*
X183343333Y-74340292D02*
X183367142Y-74197435D01*
X183367142Y-74197435D02*
X183367142Y-74090292D01*
X183367142Y-74090292D02*
X183343333Y-73947435D01*
X183343333Y-73947435D02*
X183319523Y-73876007D01*
X183319523Y-73876007D02*
X183271904Y-73804578D01*
X183271904Y-73804578D02*
X183200476Y-73768864D01*
X183200476Y-73768864D02*
X183152857Y-73768864D01*
X183152857Y-73768864D02*
X183081428Y-73804578D01*
X183081428Y-73804578D02*
X183057619Y-73840292D01*
X182748095Y-73768864D02*
X182652857Y-73768864D01*
X182652857Y-73768864D02*
X182605238Y-73804578D01*
X182605238Y-73804578D02*
X182557619Y-73876007D01*
X182557619Y-73876007D02*
X182533809Y-74018864D01*
X182533809Y-74018864D02*
X182533809Y-74268864D01*
X182533809Y-74268864D02*
X182557619Y-74411721D01*
X182557619Y-74411721D02*
X182605238Y-74483150D01*
X182605238Y-74483150D02*
X182652857Y-74518864D01*
X182652857Y-74518864D02*
X182748095Y-74518864D01*
X182748095Y-74518864D02*
X182795714Y-74483150D01*
X182795714Y-74483150D02*
X182843333Y-74411721D01*
X182843333Y-74411721D02*
X182867142Y-74268864D01*
X182867142Y-74268864D02*
X182867142Y-74018864D01*
X182867142Y-74018864D02*
X182843333Y-73876007D01*
X182843333Y-73876007D02*
X182795714Y-73804578D01*
X182795714Y-73804578D02*
X182748095Y-73768864D01*
X182081428Y-74518864D02*
X182319523Y-74518864D01*
X182319523Y-74518864D02*
X182319523Y-73768864D01*
X181938570Y-73840292D02*
X181914761Y-73804578D01*
X181914761Y-73804578D02*
X181867142Y-73768864D01*
X181867142Y-73768864D02*
X181748094Y-73768864D01*
X181748094Y-73768864D02*
X181700475Y-73804578D01*
X181700475Y-73804578D02*
X181676666Y-73840292D01*
X181676666Y-73840292D02*
X181652856Y-73911721D01*
X181652856Y-73911721D02*
X181652856Y-73983150D01*
X181652856Y-73983150D02*
X181676666Y-74090292D01*
X181676666Y-74090292D02*
X181962380Y-74518864D01*
X181962380Y-74518864D02*
X181652856Y-74518864D01*
X167841952Y-66180078D02*
X167889571Y-66144364D01*
X167889571Y-66144364D02*
X167961000Y-66144364D01*
X167961000Y-66144364D02*
X168032428Y-66180078D01*
X168032428Y-66180078D02*
X168080047Y-66251507D01*
X168080047Y-66251507D02*
X168103857Y-66322935D01*
X168103857Y-66322935D02*
X168127666Y-66465792D01*
X168127666Y-66465792D02*
X168127666Y-66572935D01*
X168127666Y-66572935D02*
X168103857Y-66715792D01*
X168103857Y-66715792D02*
X168080047Y-66787221D01*
X168080047Y-66787221D02*
X168032428Y-66858650D01*
X168032428Y-66858650D02*
X167961000Y-66894364D01*
X167961000Y-66894364D02*
X167913381Y-66894364D01*
X167913381Y-66894364D02*
X167841952Y-66858650D01*
X167841952Y-66858650D02*
X167818143Y-66822935D01*
X167818143Y-66822935D02*
X167818143Y-66572935D01*
X167818143Y-66572935D02*
X167913381Y-66572935D01*
X167603857Y-66894364D02*
X167603857Y-66144364D01*
X167603857Y-66144364D02*
X167318143Y-66894364D01*
X167318143Y-66894364D02*
X167318143Y-66144364D01*
X167080047Y-66894364D02*
X167080047Y-66144364D01*
X167080047Y-66144364D02*
X166960999Y-66144364D01*
X166960999Y-66144364D02*
X166889571Y-66180078D01*
X166889571Y-66180078D02*
X166841952Y-66251507D01*
X166841952Y-66251507D02*
X166818142Y-66322935D01*
X166818142Y-66322935D02*
X166794333Y-66465792D01*
X166794333Y-66465792D02*
X166794333Y-66572935D01*
X166794333Y-66572935D02*
X166818142Y-66715792D01*
X166818142Y-66715792D02*
X166841952Y-66787221D01*
X166841952Y-66787221D02*
X166889571Y-66858650D01*
X166889571Y-66858650D02*
X166960999Y-66894364D01*
X166960999Y-66894364D02*
X167080047Y-66894364D01*
X167840952Y-82168864D02*
X168007618Y-81811721D01*
X168126666Y-82168864D02*
X168126666Y-81418864D01*
X168126666Y-81418864D02*
X167936190Y-81418864D01*
X167936190Y-81418864D02*
X167888571Y-81454578D01*
X167888571Y-81454578D02*
X167864761Y-81490292D01*
X167864761Y-81490292D02*
X167840952Y-81561721D01*
X167840952Y-81561721D02*
X167840952Y-81668864D01*
X167840952Y-81668864D02*
X167864761Y-81740292D01*
X167864761Y-81740292D02*
X167888571Y-81776007D01*
X167888571Y-81776007D02*
X167936190Y-81811721D01*
X167936190Y-81811721D02*
X168126666Y-81811721D01*
X167531428Y-81418864D02*
X167436190Y-81418864D01*
X167436190Y-81418864D02*
X167388571Y-81454578D01*
X167388571Y-81454578D02*
X167340952Y-81526007D01*
X167340952Y-81526007D02*
X167317142Y-81668864D01*
X167317142Y-81668864D02*
X167317142Y-81918864D01*
X167317142Y-81918864D02*
X167340952Y-82061721D01*
X167340952Y-82061721D02*
X167388571Y-82133150D01*
X167388571Y-82133150D02*
X167436190Y-82168864D01*
X167436190Y-82168864D02*
X167531428Y-82168864D01*
X167531428Y-82168864D02*
X167579047Y-82133150D01*
X167579047Y-82133150D02*
X167626666Y-82061721D01*
X167626666Y-82061721D02*
X167650475Y-81918864D01*
X167650475Y-81918864D02*
X167650475Y-81668864D01*
X167650475Y-81668864D02*
X167626666Y-81526007D01*
X167626666Y-81526007D02*
X167579047Y-81454578D01*
X167579047Y-81454578D02*
X167531428Y-81418864D01*
X167150475Y-81418864D02*
X167031427Y-82168864D01*
X167031427Y-82168864D02*
X166936189Y-81633150D01*
X166936189Y-81633150D02*
X166840951Y-82168864D01*
X166840951Y-82168864D02*
X166721904Y-81418864D01*
X166579046Y-81418864D02*
X166269522Y-81418864D01*
X166269522Y-81418864D02*
X166436189Y-81704578D01*
X166436189Y-81704578D02*
X166364760Y-81704578D01*
X166364760Y-81704578D02*
X166317141Y-81740292D01*
X166317141Y-81740292D02*
X166293332Y-81776007D01*
X166293332Y-81776007D02*
X166269522Y-81847435D01*
X166269522Y-81847435D02*
X166269522Y-82026007D01*
X166269522Y-82026007D02*
X166293332Y-82097435D01*
X166293332Y-82097435D02*
X166317141Y-82133150D01*
X166317141Y-82133150D02*
X166364760Y-82168864D01*
X166364760Y-82168864D02*
X166507617Y-82168864D01*
X166507617Y-82168864D02*
X166555236Y-82133150D01*
X166555236Y-82133150D02*
X166579046Y-82097435D01*
X183057619Y-69397435D02*
X183081428Y-69433150D01*
X183081428Y-69433150D02*
X183152857Y-69468864D01*
X183152857Y-69468864D02*
X183200476Y-69468864D01*
X183200476Y-69468864D02*
X183271904Y-69433150D01*
X183271904Y-69433150D02*
X183319523Y-69361721D01*
X183319523Y-69361721D02*
X183343333Y-69290292D01*
X183343333Y-69290292D02*
X183367142Y-69147435D01*
X183367142Y-69147435D02*
X183367142Y-69040292D01*
X183367142Y-69040292D02*
X183343333Y-68897435D01*
X183343333Y-68897435D02*
X183319523Y-68826007D01*
X183319523Y-68826007D02*
X183271904Y-68754578D01*
X183271904Y-68754578D02*
X183200476Y-68718864D01*
X183200476Y-68718864D02*
X183152857Y-68718864D01*
X183152857Y-68718864D02*
X183081428Y-68754578D01*
X183081428Y-68754578D02*
X183057619Y-68790292D01*
X182748095Y-68718864D02*
X182652857Y-68718864D01*
X182652857Y-68718864D02*
X182605238Y-68754578D01*
X182605238Y-68754578D02*
X182557619Y-68826007D01*
X182557619Y-68826007D02*
X182533809Y-68968864D01*
X182533809Y-68968864D02*
X182533809Y-69218864D01*
X182533809Y-69218864D02*
X182557619Y-69361721D01*
X182557619Y-69361721D02*
X182605238Y-69433150D01*
X182605238Y-69433150D02*
X182652857Y-69468864D01*
X182652857Y-69468864D02*
X182748095Y-69468864D01*
X182748095Y-69468864D02*
X182795714Y-69433150D01*
X182795714Y-69433150D02*
X182843333Y-69361721D01*
X182843333Y-69361721D02*
X182867142Y-69218864D01*
X182867142Y-69218864D02*
X182867142Y-68968864D01*
X182867142Y-68968864D02*
X182843333Y-68826007D01*
X182843333Y-68826007D02*
X182795714Y-68754578D01*
X182795714Y-68754578D02*
X182748095Y-68718864D01*
X182081428Y-69468864D02*
X182319523Y-69468864D01*
X182319523Y-69468864D02*
X182319523Y-68718864D01*
X181819523Y-68718864D02*
X181771904Y-68718864D01*
X181771904Y-68718864D02*
X181724285Y-68754578D01*
X181724285Y-68754578D02*
X181700475Y-68790292D01*
X181700475Y-68790292D02*
X181676666Y-68861721D01*
X181676666Y-68861721D02*
X181652856Y-69004578D01*
X181652856Y-69004578D02*
X181652856Y-69183150D01*
X181652856Y-69183150D02*
X181676666Y-69326007D01*
X181676666Y-69326007D02*
X181700475Y-69397435D01*
X181700475Y-69397435D02*
X181724285Y-69433150D01*
X181724285Y-69433150D02*
X181771904Y-69468864D01*
X181771904Y-69468864D02*
X181819523Y-69468864D01*
X181819523Y-69468864D02*
X181867142Y-69433150D01*
X181867142Y-69433150D02*
X181890951Y-69397435D01*
X181890951Y-69397435D02*
X181914761Y-69326007D01*
X181914761Y-69326007D02*
X181938570Y-69183150D01*
X181938570Y-69183150D02*
X181938570Y-69004578D01*
X181938570Y-69004578D02*
X181914761Y-68861721D01*
X181914761Y-68861721D02*
X181890951Y-68790292D01*
X181890951Y-68790292D02*
X181867142Y-68754578D01*
X181867142Y-68754578D02*
X181819523Y-68718864D01*
X167840952Y-77054364D02*
X168007618Y-76697221D01*
X168126666Y-77054364D02*
X168126666Y-76304364D01*
X168126666Y-76304364D02*
X167936190Y-76304364D01*
X167936190Y-76304364D02*
X167888571Y-76340078D01*
X167888571Y-76340078D02*
X167864761Y-76375792D01*
X167864761Y-76375792D02*
X167840952Y-76447221D01*
X167840952Y-76447221D02*
X167840952Y-76554364D01*
X167840952Y-76554364D02*
X167864761Y-76625792D01*
X167864761Y-76625792D02*
X167888571Y-76661507D01*
X167888571Y-76661507D02*
X167936190Y-76697221D01*
X167936190Y-76697221D02*
X168126666Y-76697221D01*
X167531428Y-76304364D02*
X167436190Y-76304364D01*
X167436190Y-76304364D02*
X167388571Y-76340078D01*
X167388571Y-76340078D02*
X167340952Y-76411507D01*
X167340952Y-76411507D02*
X167317142Y-76554364D01*
X167317142Y-76554364D02*
X167317142Y-76804364D01*
X167317142Y-76804364D02*
X167340952Y-76947221D01*
X167340952Y-76947221D02*
X167388571Y-77018650D01*
X167388571Y-77018650D02*
X167436190Y-77054364D01*
X167436190Y-77054364D02*
X167531428Y-77054364D01*
X167531428Y-77054364D02*
X167579047Y-77018650D01*
X167579047Y-77018650D02*
X167626666Y-76947221D01*
X167626666Y-76947221D02*
X167650475Y-76804364D01*
X167650475Y-76804364D02*
X167650475Y-76554364D01*
X167650475Y-76554364D02*
X167626666Y-76411507D01*
X167626666Y-76411507D02*
X167579047Y-76340078D01*
X167579047Y-76340078D02*
X167531428Y-76304364D01*
X167150475Y-76304364D02*
X167031427Y-77054364D01*
X167031427Y-77054364D02*
X166936189Y-76518650D01*
X166936189Y-76518650D02*
X166840951Y-77054364D01*
X166840951Y-77054364D02*
X166721904Y-76304364D01*
X166269522Y-77054364D02*
X166555236Y-77054364D01*
X166412379Y-77054364D02*
X166412379Y-76304364D01*
X166412379Y-76304364D02*
X166459998Y-76411507D01*
X166459998Y-76411507D02*
X166507617Y-76482935D01*
X166507617Y-76482935D02*
X166555236Y-76518650D01*
D12*
X168666666Y-112954299D02*
X168999999Y-112478108D01*
X169238094Y-112954299D02*
X169238094Y-111954299D01*
X169238094Y-111954299D02*
X168857142Y-111954299D01*
X168857142Y-111954299D02*
X168761904Y-112001918D01*
X168761904Y-112001918D02*
X168714285Y-112049537D01*
X168714285Y-112049537D02*
X168666666Y-112144775D01*
X168666666Y-112144775D02*
X168666666Y-112287632D01*
X168666666Y-112287632D02*
X168714285Y-112382870D01*
X168714285Y-112382870D02*
X168761904Y-112430489D01*
X168761904Y-112430489D02*
X168857142Y-112478108D01*
X168857142Y-112478108D02*
X169238094Y-112478108D01*
X167809523Y-112287632D02*
X167809523Y-112954299D01*
X168047618Y-111906680D02*
X168285713Y-112620965D01*
X168285713Y-112620965D02*
X167666666Y-112620965D01*
X168666666Y-106854299D02*
X168999999Y-106378108D01*
X169238094Y-106854299D02*
X169238094Y-105854299D01*
X169238094Y-105854299D02*
X168857142Y-105854299D01*
X168857142Y-105854299D02*
X168761904Y-105901918D01*
X168761904Y-105901918D02*
X168714285Y-105949537D01*
X168714285Y-105949537D02*
X168666666Y-106044775D01*
X168666666Y-106044775D02*
X168666666Y-106187632D01*
X168666666Y-106187632D02*
X168714285Y-106282870D01*
X168714285Y-106282870D02*
X168761904Y-106330489D01*
X168761904Y-106330489D02*
X168857142Y-106378108D01*
X168857142Y-106378108D02*
X169238094Y-106378108D01*
X168285713Y-105949537D02*
X168238094Y-105901918D01*
X168238094Y-105901918D02*
X168142856Y-105854299D01*
X168142856Y-105854299D02*
X167904761Y-105854299D01*
X167904761Y-105854299D02*
X167809523Y-105901918D01*
X167809523Y-105901918D02*
X167761904Y-105949537D01*
X167761904Y-105949537D02*
X167714285Y-106044775D01*
X167714285Y-106044775D02*
X167714285Y-106140013D01*
X167714285Y-106140013D02*
X167761904Y-106282870D01*
X167761904Y-106282870D02*
X168333332Y-106854299D01*
X168333332Y-106854299D02*
X167714285Y-106854299D01*
X175466666Y-64204299D02*
X175799999Y-63728108D01*
X176038094Y-64204299D02*
X176038094Y-63204299D01*
X176038094Y-63204299D02*
X175657142Y-63204299D01*
X175657142Y-63204299D02*
X175561904Y-63251918D01*
X175561904Y-63251918D02*
X175514285Y-63299537D01*
X175514285Y-63299537D02*
X175466666Y-63394775D01*
X175466666Y-63394775D02*
X175466666Y-63537632D01*
X175466666Y-63537632D02*
X175514285Y-63632870D01*
X175514285Y-63632870D02*
X175561904Y-63680489D01*
X175561904Y-63680489D02*
X175657142Y-63728108D01*
X175657142Y-63728108D02*
X176038094Y-63728108D01*
X174609523Y-63204299D02*
X174799999Y-63204299D01*
X174799999Y-63204299D02*
X174895237Y-63251918D01*
X174895237Y-63251918D02*
X174942856Y-63299537D01*
X174942856Y-63299537D02*
X175038094Y-63442394D01*
X175038094Y-63442394D02*
X175085713Y-63632870D01*
X175085713Y-63632870D02*
X175085713Y-64013822D01*
X175085713Y-64013822D02*
X175038094Y-64109060D01*
X175038094Y-64109060D02*
X174990475Y-64156680D01*
X174990475Y-64156680D02*
X174895237Y-64204299D01*
X174895237Y-64204299D02*
X174704761Y-64204299D01*
X174704761Y-64204299D02*
X174609523Y-64156680D01*
X174609523Y-64156680D02*
X174561904Y-64109060D01*
X174561904Y-64109060D02*
X174514285Y-64013822D01*
X174514285Y-64013822D02*
X174514285Y-63775727D01*
X174514285Y-63775727D02*
X174561904Y-63680489D01*
X174561904Y-63680489D02*
X174609523Y-63632870D01*
X174609523Y-63632870D02*
X174704761Y-63585251D01*
X174704761Y-63585251D02*
X174895237Y-63585251D01*
X174895237Y-63585251D02*
X174990475Y-63632870D01*
X174990475Y-63632870D02*
X175038094Y-63680489D01*
X175038094Y-63680489D02*
X175085713Y-63775727D01*
D10*
X83304400Y-63562800D02*
X83304400Y-65062800D01*
X83304400Y-65062800D02*
X88704400Y-65062800D01*
X85504400Y-63812800D02*
X85504400Y-64812800D01*
X85604400Y-64312800D02*
X86504400Y-63812800D01*
X86504400Y-63812800D02*
X86504400Y-64812800D01*
X86504400Y-64812800D02*
X85604400Y-64312800D01*
X88704400Y-63562800D02*
X83304400Y-63562800D01*
X88704400Y-65062800D02*
X88704400Y-63562800D01*
X101389200Y-51523200D02*
X101389200Y-53023200D01*
X101389200Y-53023200D02*
X106789200Y-53023200D01*
X103589200Y-51773200D02*
X103589200Y-52773200D01*
X103689200Y-52273200D02*
X104589200Y-51773200D01*
X104589200Y-51773200D02*
X104589200Y-52773200D01*
X104589200Y-52773200D02*
X103689200Y-52273200D01*
X106789200Y-51523200D02*
X101389200Y-51523200D01*
X106789200Y-53023200D02*
X106789200Y-51523200D01*
X119372400Y-45478000D02*
X119372400Y-46978000D01*
X119372400Y-46978000D02*
X124772400Y-46978000D01*
X121572400Y-45728000D02*
X121572400Y-46728000D01*
X121672400Y-46228000D02*
X122572400Y-45728000D01*
X122572400Y-45728000D02*
X122572400Y-46728000D01*
X122572400Y-46728000D02*
X121672400Y-46228000D01*
X124772400Y-45478000D02*
X119372400Y-45478000D01*
X124772400Y-46978000D02*
X124772400Y-45478000D01*
X137304800Y-52539200D02*
X137304800Y-54039200D01*
X137304800Y-54039200D02*
X142704800Y-54039200D01*
X139504800Y-52789200D02*
X139504800Y-53789200D01*
X139604800Y-53289200D02*
X140504800Y-52789200D01*
X140504800Y-52789200D02*
X140504800Y-53789200D01*
X140504800Y-53789200D02*
X139604800Y-53289200D01*
X142704800Y-52539200D02*
X137304800Y-52539200D01*
X142704800Y-54039200D02*
X142704800Y-52539200D01*
X155288000Y-54672800D02*
X155288000Y-56172800D01*
X155288000Y-56172800D02*
X160688000Y-56172800D01*
X157488000Y-54922800D02*
X157488000Y-55922800D01*
X157588000Y-55422800D02*
X158488000Y-54922800D01*
X158488000Y-54922800D02*
X158488000Y-55922800D01*
X158488000Y-55922800D02*
X157588000Y-55422800D01*
X160688000Y-54672800D02*
X155288000Y-54672800D01*
X160688000Y-56172800D02*
X160688000Y-54672800D01*
X83202800Y-80479200D02*
X83202800Y-81979200D01*
X83202800Y-81979200D02*
X88602800Y-81979200D01*
X85402800Y-80729200D02*
X85402800Y-81729200D01*
X85502800Y-81229200D02*
X86402800Y-80729200D01*
X86402800Y-80729200D02*
X86402800Y-81729200D01*
X86402800Y-81729200D02*
X85502800Y-81229200D01*
X88602800Y-80479200D02*
X83202800Y-80479200D01*
X88602800Y-81979200D02*
X88602800Y-80479200D01*
X101186000Y-68592000D02*
X101186000Y-70092000D01*
X101186000Y-70092000D02*
X106586000Y-70092000D01*
X103386000Y-68842000D02*
X103386000Y-69842000D01*
X103486000Y-69342000D02*
X104386000Y-68842000D01*
X104386000Y-68842000D02*
X104386000Y-69842000D01*
X104386000Y-69842000D02*
X103486000Y-69342000D01*
X106586000Y-68592000D02*
X101186000Y-68592000D01*
X106586000Y-70092000D02*
X106586000Y-68592000D01*
X119270800Y-62597600D02*
X119270800Y-64097600D01*
X119270800Y-64097600D02*
X124670800Y-64097600D01*
X121470800Y-62847600D02*
X121470800Y-63847600D01*
X121570800Y-63347600D02*
X122470800Y-62847600D01*
X122470800Y-62847600D02*
X122470800Y-63847600D01*
X122470800Y-63847600D02*
X121570800Y-63347600D01*
X124670800Y-62597600D02*
X119270800Y-62597600D01*
X124670800Y-64097600D02*
X124670800Y-62597600D01*
X137254000Y-69150800D02*
X137254000Y-70650800D01*
X137254000Y-70650800D02*
X142654000Y-70650800D01*
X139454000Y-69400800D02*
X139454000Y-70400800D01*
X139554000Y-69900800D02*
X140454000Y-69400800D01*
X140454000Y-69400800D02*
X140454000Y-70400800D01*
X140454000Y-70400800D02*
X139554000Y-69900800D01*
X142654000Y-69150800D02*
X137254000Y-69150800D01*
X142654000Y-70650800D02*
X142654000Y-69150800D01*
X155592800Y-71741600D02*
X155592800Y-73241600D01*
X155592800Y-73241600D02*
X160992800Y-73241600D01*
X157792800Y-71991600D02*
X157792800Y-72991600D01*
X157892800Y-72491600D02*
X158792800Y-71991600D01*
X158792800Y-71991600D02*
X158792800Y-72991600D01*
X158792800Y-72991600D02*
X157892800Y-72491600D01*
X160992800Y-71741600D02*
X155592800Y-71741600D01*
X160992800Y-73241600D02*
X160992800Y-71741600D01*
X83202800Y-97497200D02*
X83202800Y-98997200D01*
X83202800Y-98997200D02*
X88602800Y-98997200D01*
X85402800Y-97747200D02*
X85402800Y-98747200D01*
X85502800Y-98247200D02*
X86402800Y-97747200D01*
X86402800Y-97747200D02*
X86402800Y-98747200D01*
X86402800Y-98747200D02*
X85502800Y-98247200D01*
X88602800Y-97497200D02*
X83202800Y-97497200D01*
X88602800Y-98997200D02*
X88602800Y-97497200D01*
X101287600Y-85559200D02*
X101287600Y-87059200D01*
X101287600Y-87059200D02*
X106687600Y-87059200D01*
X103487600Y-85809200D02*
X103487600Y-86809200D01*
X103587600Y-86309200D02*
X104487600Y-85809200D01*
X104487600Y-85809200D02*
X104487600Y-86809200D01*
X104487600Y-86809200D02*
X103587600Y-86309200D01*
X106687600Y-85559200D02*
X101287600Y-85559200D01*
X106687600Y-87059200D02*
X106687600Y-85559200D01*
X119270800Y-79564800D02*
X119270800Y-81064800D01*
X119270800Y-81064800D02*
X124670800Y-81064800D01*
X121470800Y-79814800D02*
X121470800Y-80814800D01*
X121570800Y-80314800D02*
X122470800Y-79814800D01*
X122470800Y-79814800D02*
X122470800Y-80814800D01*
X122470800Y-80814800D02*
X121570800Y-80314800D01*
X124670800Y-79564800D02*
X119270800Y-79564800D01*
X124670800Y-81064800D02*
X124670800Y-79564800D01*
X137355600Y-86219600D02*
X137355600Y-87719600D01*
X137355600Y-87719600D02*
X142755600Y-87719600D01*
X139555600Y-86469600D02*
X139555600Y-87469600D01*
X139655600Y-86969600D02*
X140555600Y-86469600D01*
X140555600Y-86469600D02*
X140555600Y-87469600D01*
X140555600Y-87469600D02*
X139655600Y-86969600D01*
X142755600Y-86219600D02*
X137355600Y-86219600D01*
X142755600Y-87719600D02*
X142755600Y-86219600D01*
X155389600Y-88607200D02*
X155389600Y-90107200D01*
X155389600Y-90107200D02*
X160789600Y-90107200D01*
X157589600Y-88857200D02*
X157589600Y-89857200D01*
X157689600Y-89357200D02*
X158589600Y-88857200D01*
X158589600Y-88857200D02*
X158589600Y-89857200D01*
X158589600Y-89857200D02*
X157689600Y-89357200D01*
X160789600Y-88607200D02*
X155389600Y-88607200D01*
X160789600Y-90107200D02*
X160789600Y-88607200D01*
X155346044Y-126668719D02*
X160667246Y-127587851D01*
X155601358Y-125190607D02*
X155346044Y-126668719D01*
X157726703Y-125811420D02*
X157556493Y-126796828D01*
X157740139Y-126321145D02*
X158712111Y-125981630D01*
X158541901Y-126967038D02*
X157740139Y-126321145D01*
X158712111Y-125981630D02*
X158541901Y-126967038D01*
X160667246Y-127587851D02*
X160922560Y-126109739D01*
X160922560Y-126109739D02*
X155601358Y-125190607D01*
X173926177Y-131041812D02*
X179019579Y-132835482D01*
X174424419Y-129626978D02*
X173926177Y-131041812D01*
X176344710Y-131098366D02*
X177359691Y-130925699D01*
X176416468Y-130593538D02*
X176084307Y-131536761D01*
X177027530Y-131868922D02*
X176344710Y-131098366D01*
X177359691Y-130925699D02*
X177027530Y-131868922D01*
X179019579Y-132835482D02*
X179517821Y-131420648D01*
X179517821Y-131420648D02*
X174424419Y-129626978D01*
X191746810Y-138804671D02*
X196469756Y-141422643D01*
X192474024Y-137492741D02*
X191746810Y-138804671D01*
X194122042Y-139263768D02*
X195151605Y-139262787D01*
X194276985Y-138777977D02*
X193792175Y-139652597D01*
X194666795Y-140137407D02*
X194122042Y-139263768D01*
X195151605Y-139262787D02*
X194666795Y-140137407D01*
X196469756Y-141422643D02*
X197196970Y-140110713D01*
X197196970Y-140110713D02*
X192474024Y-137492741D01*
X175960000Y-101950000D02*
X187960000Y-101950000D01*
X175960000Y-107950000D02*
X175960000Y-101950000D01*
X187960000Y-101950000D02*
X187960000Y-107950000D01*
X187960000Y-107950000D02*
X175960000Y-107950000D01*
X78910000Y-63400000D02*
X79910000Y-63400000D01*
X78910000Y-64400000D02*
X78910000Y-63400000D01*
X78910000Y-71900000D02*
X78910000Y-72400000D01*
X78910000Y-76000000D02*
X78910000Y-76600000D01*
X78910000Y-76600000D02*
X83410000Y-76600000D01*
X78910000Y-77400000D02*
X78910000Y-76400000D01*
X79910000Y-77400000D02*
X78910000Y-77400000D01*
X83410000Y-71900000D02*
X78910000Y-71900000D01*
X83410000Y-72600000D02*
X83410000Y-71900000D01*
X83910000Y-77100000D02*
X83910000Y-78100000D01*
X84410000Y-78600000D02*
X83910000Y-78100000D01*
X87410000Y-74100000D02*
X84910000Y-74100000D01*
X87410000Y-78600000D02*
X84410000Y-78600000D01*
X87910000Y-74600000D02*
X87410000Y-74100000D01*
X87910000Y-78100000D02*
X87410000Y-78600000D01*
X91910000Y-63400000D02*
X92910000Y-63400000D01*
X92910000Y-63400000D02*
X92910000Y-64400000D01*
X92910000Y-76400000D02*
X92910000Y-77400000D01*
X92910000Y-77400000D02*
X91910000Y-77400000D01*
X83410000Y-76600000D02*
G75*
G02*
X83910000Y-77100000I-1J-500001D01*
G01*
X84910000Y-74100000D02*
G75*
G02*
X83410000Y-72600000I1J1500001D01*
G01*
X96910000Y-51400000D02*
X97910000Y-51400000D01*
X96910000Y-52400000D02*
X96910000Y-51400000D01*
X96910000Y-59900000D02*
X96910000Y-60400000D01*
X96910000Y-64000000D02*
X96910000Y-64600000D01*
X96910000Y-64600000D02*
X101410000Y-64600000D01*
X96910000Y-65400000D02*
X96910000Y-64400000D01*
X97910000Y-65400000D02*
X96910000Y-65400000D01*
X101410000Y-59900000D02*
X96910000Y-59900000D01*
X101410000Y-60600000D02*
X101410000Y-59900000D01*
X101910000Y-65100000D02*
X101910000Y-66100000D01*
X102410000Y-66600000D02*
X101910000Y-66100000D01*
X105410000Y-62100000D02*
X102910000Y-62100000D01*
X105410000Y-66600000D02*
X102410000Y-66600000D01*
X105910000Y-62600000D02*
X105410000Y-62100000D01*
X105910000Y-66100000D02*
X105410000Y-66600000D01*
X109910000Y-51400000D02*
X110910000Y-51400000D01*
X110910000Y-51400000D02*
X110910000Y-52400000D01*
X110910000Y-64400000D02*
X110910000Y-65400000D01*
X110910000Y-65400000D02*
X109910000Y-65400000D01*
X101410000Y-64600000D02*
G75*
G02*
X101910000Y-65100000I-1J-500001D01*
G01*
X102910000Y-62100000D02*
G75*
G02*
X101410000Y-60600000I1J1500001D01*
G01*
X114910000Y-45400000D02*
X115910000Y-45400000D01*
X114910000Y-46400000D02*
X114910000Y-45400000D01*
X114910000Y-53900000D02*
X114910000Y-54400000D01*
X114910000Y-58000000D02*
X114910000Y-58600000D01*
X114910000Y-58600000D02*
X119410000Y-58600000D01*
X114910000Y-59400000D02*
X114910000Y-58400000D01*
X115910000Y-59400000D02*
X114910000Y-59400000D01*
X119410000Y-53900000D02*
X114910000Y-53900000D01*
X119410000Y-54600000D02*
X119410000Y-53900000D01*
X119910000Y-59100000D02*
X119910000Y-60100000D01*
X120410000Y-60600000D02*
X119910000Y-60100000D01*
X123410000Y-56100000D02*
X120910000Y-56100000D01*
X123410000Y-60600000D02*
X120410000Y-60600000D01*
X123910000Y-56600000D02*
X123410000Y-56100000D01*
X123910000Y-60100000D02*
X123410000Y-60600000D01*
X127910000Y-45400000D02*
X128910000Y-45400000D01*
X128910000Y-45400000D02*
X128910000Y-46400000D01*
X128910000Y-58400000D02*
X128910000Y-59400000D01*
X128910000Y-59400000D02*
X127910000Y-59400000D01*
X119410000Y-58600000D02*
G75*
G02*
X119910000Y-59100000I-1J-500001D01*
G01*
X120910000Y-56100000D02*
G75*
G02*
X119410000Y-54600000I1J1500001D01*
G01*
X132910000Y-52020000D02*
X133910000Y-52020000D01*
X132910000Y-53020000D02*
X132910000Y-52020000D01*
X132910000Y-60520000D02*
X132910000Y-61020000D01*
X132910000Y-64620000D02*
X132910000Y-65220000D01*
X132910000Y-65220000D02*
X137410000Y-65220000D01*
X132910000Y-66020000D02*
X132910000Y-65020000D01*
X133910000Y-66020000D02*
X132910000Y-66020000D01*
X137410000Y-60520000D02*
X132910000Y-60520000D01*
X137410000Y-61220000D02*
X137410000Y-60520000D01*
X137910000Y-65720000D02*
X137910000Y-66720000D01*
X138410000Y-67220000D02*
X137910000Y-66720000D01*
X141410000Y-62720000D02*
X138910000Y-62720000D01*
X141410000Y-67220000D02*
X138410000Y-67220000D01*
X141910000Y-63220000D02*
X141410000Y-62720000D01*
X141910000Y-66720000D02*
X141410000Y-67220000D01*
X145910000Y-52020000D02*
X146910000Y-52020000D01*
X146910000Y-52020000D02*
X146910000Y-53020000D01*
X146910000Y-65020000D02*
X146910000Y-66020000D01*
X146910000Y-66020000D02*
X145910000Y-66020000D01*
X137410000Y-65220000D02*
G75*
G02*
X137910000Y-65720000I-1J-500001D01*
G01*
X138910000Y-62720000D02*
G75*
G02*
X137410000Y-61220000I1J1500001D01*
G01*
X150910000Y-54400000D02*
X151910000Y-54400000D01*
X150910000Y-55400000D02*
X150910000Y-54400000D01*
X150910000Y-62900000D02*
X150910000Y-63400000D01*
X150910000Y-67000000D02*
X150910000Y-67600000D01*
X150910000Y-67600000D02*
X155410000Y-67600000D01*
X150910000Y-68400000D02*
X150910000Y-67400000D01*
X151910000Y-68400000D02*
X150910000Y-68400000D01*
X155410000Y-62900000D02*
X150910000Y-62900000D01*
X155410000Y-63600000D02*
X155410000Y-62900000D01*
X155910000Y-68100000D02*
X155910000Y-69100000D01*
X156410000Y-69600000D02*
X155910000Y-69100000D01*
X159410000Y-65100000D02*
X156910000Y-65100000D01*
X159410000Y-69600000D02*
X156410000Y-69600000D01*
X159910000Y-65600000D02*
X159410000Y-65100000D01*
X159910000Y-69100000D02*
X159410000Y-69600000D01*
X163910000Y-54400000D02*
X164910000Y-54400000D01*
X164910000Y-54400000D02*
X164910000Y-55400000D01*
X164910000Y-67400000D02*
X164910000Y-68400000D01*
X164910000Y-68400000D02*
X163910000Y-68400000D01*
X155410000Y-67600000D02*
G75*
G02*
X155910000Y-68100000I-1J-500001D01*
G01*
X156910000Y-65100000D02*
G75*
G02*
X155410000Y-63600000I1J1500001D01*
G01*
X78910000Y-80400000D02*
X79910000Y-80400000D01*
X78910000Y-81400000D02*
X78910000Y-80400000D01*
X78910000Y-88900000D02*
X78910000Y-89400000D01*
X78910000Y-93000000D02*
X78910000Y-93600000D01*
X78910000Y-93600000D02*
X83410000Y-93600000D01*
X78910000Y-94400000D02*
X78910000Y-93400000D01*
X79910000Y-94400000D02*
X78910000Y-94400000D01*
X83410000Y-88900000D02*
X78910000Y-88900000D01*
X83410000Y-89600000D02*
X83410000Y-88900000D01*
X83910000Y-94100000D02*
X83910000Y-95100000D01*
X84410000Y-95600000D02*
X83910000Y-95100000D01*
X87410000Y-91100000D02*
X84910000Y-91100000D01*
X87410000Y-95600000D02*
X84410000Y-95600000D01*
X87910000Y-91600000D02*
X87410000Y-91100000D01*
X87910000Y-95100000D02*
X87410000Y-95600000D01*
X91910000Y-80400000D02*
X92910000Y-80400000D01*
X92910000Y-80400000D02*
X92910000Y-81400000D01*
X92910000Y-93400000D02*
X92910000Y-94400000D01*
X92910000Y-94400000D02*
X91910000Y-94400000D01*
X83410000Y-93600000D02*
G75*
G02*
X83910000Y-94100000I-1J-500001D01*
G01*
X84910000Y-91100000D02*
G75*
G02*
X83410000Y-89600000I1J1500001D01*
G01*
X96910000Y-68400000D02*
X97910000Y-68400000D01*
X96910000Y-69400000D02*
X96910000Y-68400000D01*
X96910000Y-76900000D02*
X96910000Y-77400000D01*
X96910000Y-81000000D02*
X96910000Y-81600000D01*
X96910000Y-81600000D02*
X101410000Y-81600000D01*
X96910000Y-82400000D02*
X96910000Y-81400000D01*
X97910000Y-82400000D02*
X96910000Y-82400000D01*
X101410000Y-76900000D02*
X96910000Y-76900000D01*
X101410000Y-77600000D02*
X101410000Y-76900000D01*
X101910000Y-82100000D02*
X101910000Y-83100000D01*
X102410000Y-83600000D02*
X101910000Y-83100000D01*
X105410000Y-79100000D02*
X102910000Y-79100000D01*
X105410000Y-83600000D02*
X102410000Y-83600000D01*
X105910000Y-79600000D02*
X105410000Y-79100000D01*
X105910000Y-83100000D02*
X105410000Y-83600000D01*
X109910000Y-68400000D02*
X110910000Y-68400000D01*
X110910000Y-68400000D02*
X110910000Y-69400000D01*
X110910000Y-81400000D02*
X110910000Y-82400000D01*
X110910000Y-82400000D02*
X109910000Y-82400000D01*
X101410000Y-81600000D02*
G75*
G02*
X101910000Y-82100000I-1J-500001D01*
G01*
X102910000Y-79100000D02*
G75*
G02*
X101410000Y-77600000I1J1500001D01*
G01*
X114910000Y-62400000D02*
X115910000Y-62400000D01*
X114910000Y-63400000D02*
X114910000Y-62400000D01*
X114910000Y-70900000D02*
X114910000Y-71400000D01*
X114910000Y-75000000D02*
X114910000Y-75600000D01*
X114910000Y-75600000D02*
X119410000Y-75600000D01*
X114910000Y-76400000D02*
X114910000Y-75400000D01*
X115910000Y-76400000D02*
X114910000Y-76400000D01*
X119410000Y-70900000D02*
X114910000Y-70900000D01*
X119410000Y-71600000D02*
X119410000Y-70900000D01*
X119910000Y-76100000D02*
X119910000Y-77100000D01*
X120410000Y-77600000D02*
X119910000Y-77100000D01*
X123410000Y-73100000D02*
X120910000Y-73100000D01*
X123410000Y-77600000D02*
X120410000Y-77600000D01*
X123910000Y-73600000D02*
X123410000Y-73100000D01*
X123910000Y-77100000D02*
X123410000Y-77600000D01*
X127910000Y-62400000D02*
X128910000Y-62400000D01*
X128910000Y-62400000D02*
X128910000Y-63400000D01*
X128910000Y-75400000D02*
X128910000Y-76400000D01*
X128910000Y-76400000D02*
X127910000Y-76400000D01*
X119410000Y-75600000D02*
G75*
G02*
X119910000Y-76100000I-1J-500001D01*
G01*
X120910000Y-73100000D02*
G75*
G02*
X119410000Y-71600000I1J1500001D01*
G01*
X132910000Y-69020000D02*
X133910000Y-69020000D01*
X132910000Y-70020000D02*
X132910000Y-69020000D01*
X132910000Y-77520000D02*
X132910000Y-78020000D01*
X132910000Y-81620000D02*
X132910000Y-82220000D01*
X132910000Y-82220000D02*
X137410000Y-82220000D01*
X132910000Y-83020000D02*
X132910000Y-82020000D01*
X133910000Y-83020000D02*
X132910000Y-83020000D01*
X137410000Y-77520000D02*
X132910000Y-77520000D01*
X137410000Y-78220000D02*
X137410000Y-77520000D01*
X137910000Y-82720000D02*
X137910000Y-83720000D01*
X138410000Y-84220000D02*
X137910000Y-83720000D01*
X141410000Y-79720000D02*
X138910000Y-79720000D01*
X141410000Y-84220000D02*
X138410000Y-84220000D01*
X141910000Y-80220000D02*
X141410000Y-79720000D01*
X141910000Y-83720000D02*
X141410000Y-84220000D01*
X145910000Y-69020000D02*
X146910000Y-69020000D01*
X146910000Y-69020000D02*
X146910000Y-70020000D01*
X146910000Y-82020000D02*
X146910000Y-83020000D01*
X146910000Y-83020000D02*
X145910000Y-83020000D01*
X137410000Y-82220000D02*
G75*
G02*
X137910000Y-82720000I-1J-500001D01*
G01*
X138910000Y-79720000D02*
G75*
G02*
X137410000Y-78220000I1J1500001D01*
G01*
X150910000Y-71400000D02*
X151910000Y-71400000D01*
X150910000Y-72400000D02*
X150910000Y-71400000D01*
X150910000Y-79900000D02*
X150910000Y-80400000D01*
X150910000Y-84000000D02*
X150910000Y-84600000D01*
X150910000Y-84600000D02*
X155410000Y-84600000D01*
X150910000Y-85400000D02*
X150910000Y-84400000D01*
X151910000Y-85400000D02*
X150910000Y-85400000D01*
X155410000Y-79900000D02*
X150910000Y-79900000D01*
X155410000Y-80600000D02*
X155410000Y-79900000D01*
X155910000Y-85100000D02*
X155910000Y-86100000D01*
X156410000Y-86600000D02*
X155910000Y-86100000D01*
X159410000Y-82100000D02*
X156910000Y-82100000D01*
X159410000Y-86600000D02*
X156410000Y-86600000D01*
X159910000Y-82600000D02*
X159410000Y-82100000D01*
X159910000Y-86100000D02*
X159410000Y-86600000D01*
X163910000Y-71400000D02*
X164910000Y-71400000D01*
X164910000Y-71400000D02*
X164910000Y-72400000D01*
X164910000Y-84400000D02*
X164910000Y-85400000D01*
X164910000Y-85400000D02*
X163910000Y-85400000D01*
X155410000Y-84600000D02*
G75*
G02*
X155910000Y-85100000I-1J-500001D01*
G01*
X156910000Y-82100000D02*
G75*
G02*
X155410000Y-80600000I1J1500001D01*
G01*
X78910000Y-97400000D02*
X79910000Y-97400000D01*
X78910000Y-98400000D02*
X78910000Y-97400000D01*
X78910000Y-105900000D02*
X78910000Y-106400000D01*
X78910000Y-110000000D02*
X78910000Y-110600000D01*
X78910000Y-110600000D02*
X83410000Y-110600000D01*
X78910000Y-111400000D02*
X78910000Y-110400000D01*
X79910000Y-111400000D02*
X78910000Y-111400000D01*
X83410000Y-105900000D02*
X78910000Y-105900000D01*
X83410000Y-106600000D02*
X83410000Y-105900000D01*
X83910000Y-111100000D02*
X83910000Y-112100000D01*
X84410000Y-112600000D02*
X83910000Y-112100000D01*
X87410000Y-108100000D02*
X84910000Y-108100000D01*
X87410000Y-112600000D02*
X84410000Y-112600000D01*
X87910000Y-108600000D02*
X87410000Y-108100000D01*
X87910000Y-112100000D02*
X87410000Y-112600000D01*
X91910000Y-97400000D02*
X92910000Y-97400000D01*
X92910000Y-97400000D02*
X92910000Y-98400000D01*
X92910000Y-110400000D02*
X92910000Y-111400000D01*
X92910000Y-111400000D02*
X91910000Y-111400000D01*
X83410000Y-110600000D02*
G75*
G02*
X83910000Y-111100000I-1J-500001D01*
G01*
X84910000Y-108100000D02*
G75*
G02*
X83410000Y-106600000I1J1500001D01*
G01*
X96910000Y-85400000D02*
X97910000Y-85400000D01*
X96910000Y-86400000D02*
X96910000Y-85400000D01*
X96910000Y-93900000D02*
X96910000Y-94400000D01*
X96910000Y-98000000D02*
X96910000Y-98600000D01*
X96910000Y-98600000D02*
X101410000Y-98600000D01*
X96910000Y-99400000D02*
X96910000Y-98400000D01*
X97910000Y-99400000D02*
X96910000Y-99400000D01*
X101410000Y-93900000D02*
X96910000Y-93900000D01*
X101410000Y-94600000D02*
X101410000Y-93900000D01*
X101910000Y-99100000D02*
X101910000Y-100100000D01*
X102410000Y-100600000D02*
X101910000Y-100100000D01*
X105410000Y-96100000D02*
X102910000Y-96100000D01*
X105410000Y-100600000D02*
X102410000Y-100600000D01*
X105910000Y-96600000D02*
X105410000Y-96100000D01*
X105910000Y-100100000D02*
X105410000Y-100600000D01*
X109910000Y-85400000D02*
X110910000Y-85400000D01*
X110910000Y-85400000D02*
X110910000Y-86400000D01*
X110910000Y-98400000D02*
X110910000Y-99400000D01*
X110910000Y-99400000D02*
X109910000Y-99400000D01*
X101410000Y-98600000D02*
G75*
G02*
X101910000Y-99100000I-1J-500001D01*
G01*
X102910000Y-96100000D02*
G75*
G02*
X101410000Y-94600000I1J1500001D01*
G01*
X114910000Y-79400000D02*
X115910000Y-79400000D01*
X114910000Y-80400000D02*
X114910000Y-79400000D01*
X114910000Y-87900000D02*
X114910000Y-88400000D01*
X114910000Y-92000000D02*
X114910000Y-92600000D01*
X114910000Y-92600000D02*
X119410000Y-92600000D01*
X114910000Y-93400000D02*
X114910000Y-92400000D01*
X115910000Y-93400000D02*
X114910000Y-93400000D01*
X119410000Y-87900000D02*
X114910000Y-87900000D01*
X119410000Y-88600000D02*
X119410000Y-87900000D01*
X119910000Y-93100000D02*
X119910000Y-94100000D01*
X120410000Y-94600000D02*
X119910000Y-94100000D01*
X123410000Y-90100000D02*
X120910000Y-90100000D01*
X123410000Y-94600000D02*
X120410000Y-94600000D01*
X123910000Y-90600000D02*
X123410000Y-90100000D01*
X123910000Y-94100000D02*
X123410000Y-94600000D01*
X127910000Y-79400000D02*
X128910000Y-79400000D01*
X128910000Y-79400000D02*
X128910000Y-80400000D01*
X128910000Y-92400000D02*
X128910000Y-93400000D01*
X128910000Y-93400000D02*
X127910000Y-93400000D01*
X119410000Y-92600000D02*
G75*
G02*
X119910000Y-93100000I-1J-500001D01*
G01*
X120910000Y-90100000D02*
G75*
G02*
X119410000Y-88600000I1J1500001D01*
G01*
X132910000Y-86025000D02*
X133910000Y-86025000D01*
X132910000Y-87025000D02*
X132910000Y-86025000D01*
X132910000Y-94525000D02*
X132910000Y-95025000D01*
X132910000Y-98625000D02*
X132910000Y-99225000D01*
X132910000Y-99225000D02*
X137410000Y-99225000D01*
X132910000Y-100025000D02*
X132910000Y-99025000D01*
X133910000Y-100025000D02*
X132910000Y-100025000D01*
X137410000Y-94525000D02*
X132910000Y-94525000D01*
X137410000Y-95225000D02*
X137410000Y-94525000D01*
X137910000Y-99725000D02*
X137910000Y-100725000D01*
X138410000Y-101225000D02*
X137910000Y-100725000D01*
X141410000Y-96725000D02*
X138910000Y-96725000D01*
X141410000Y-101225000D02*
X138410000Y-101225000D01*
X141910000Y-97225000D02*
X141410000Y-96725000D01*
X141910000Y-100725000D02*
X141410000Y-101225000D01*
X145910000Y-86025000D02*
X146910000Y-86025000D01*
X146910000Y-86025000D02*
X146910000Y-87025000D01*
X146910000Y-99025000D02*
X146910000Y-100025000D01*
X146910000Y-100025000D02*
X145910000Y-100025000D01*
X137410000Y-99225000D02*
G75*
G02*
X137910000Y-99725000I-1J-500001D01*
G01*
X138910000Y-96725000D02*
G75*
G02*
X137410000Y-95225000I1J1500001D01*
G01*
X150910000Y-88400000D02*
X151910000Y-88400000D01*
X150910000Y-89400000D02*
X150910000Y-88400000D01*
X150910000Y-96900000D02*
X150910000Y-97400000D01*
X150910000Y-101000000D02*
X150910000Y-101600000D01*
X150910000Y-101600000D02*
X155410000Y-101600000D01*
X150910000Y-102400000D02*
X150910000Y-101400000D01*
X151910000Y-102400000D02*
X150910000Y-102400000D01*
X155410000Y-96900000D02*
X150910000Y-96900000D01*
X155410000Y-97600000D02*
X155410000Y-96900000D01*
X155910000Y-102100000D02*
X155910000Y-103100000D01*
X156410000Y-103600000D02*
X155910000Y-103100000D01*
X159410000Y-99100000D02*
X156910000Y-99100000D01*
X159410000Y-103600000D02*
X156410000Y-103600000D01*
X159910000Y-99600000D02*
X159410000Y-99100000D01*
X159910000Y-103100000D02*
X159410000Y-103600000D01*
X163910000Y-88400000D02*
X164910000Y-88400000D01*
X164910000Y-88400000D02*
X164910000Y-89400000D01*
X164910000Y-101400000D02*
X164910000Y-102400000D01*
X164910000Y-102400000D02*
X163910000Y-102400000D01*
X155410000Y-101600000D02*
G75*
G02*
X155910000Y-102100000I-1J-500001D01*
G01*
X156910000Y-99100000D02*
G75*
G02*
X155410000Y-97600000I1J1500001D01*
G01*
X151130403Y-126107792D02*
X151300613Y-125122384D01*
X152115811Y-126278001D02*
X151130403Y-126107792D01*
X153343127Y-113297489D02*
X153513336Y-112312081D01*
X153513336Y-112312081D02*
X154498744Y-112482291D01*
X157963789Y-115922271D02*
X158371388Y-116500081D01*
X158371388Y-116500081D02*
X160834908Y-116925603D01*
X158559522Y-112473343D02*
X159137331Y-112065744D01*
X159137331Y-112065744D02*
X162093555Y-112576371D01*
X161938559Y-119348815D02*
X166372897Y-120114758D01*
X162057706Y-118659029D02*
X161938559Y-119348815D01*
X162093555Y-112576371D02*
X162501154Y-113154181D01*
X162330944Y-114139589D02*
X162501154Y-113154181D01*
X164926114Y-128490725D02*
X163940706Y-128320515D01*
X165096323Y-127505317D02*
X164926114Y-128490725D01*
X166323639Y-114524805D02*
X167309047Y-114695014D01*
X166372897Y-120114758D02*
X166457999Y-119622054D01*
X167070752Y-116074585D02*
X167172879Y-115483342D01*
X167172879Y-115483342D02*
X162738544Y-114717398D01*
X167309047Y-114695014D02*
X167138837Y-115680422D01*
X160834908Y-116925603D02*
G75*
G02*
X162057706Y-118659029I-255313J-1478111D01*
G01*
X162738544Y-114717398D02*
G75*
G02*
X162330944Y-114139589I85108J492707D01*
G01*
X169786629Y-129763982D02*
X170118791Y-128820759D01*
X170729852Y-130096143D02*
X169786629Y-129763982D01*
X174104724Y-117502087D02*
X174436885Y-116558864D01*
X174436885Y-116558864D02*
X175380108Y-116891026D01*
X178222947Y-120860695D02*
X178528478Y-121498385D01*
X178528478Y-121498385D02*
X180886535Y-122328788D01*
X179385511Y-117559414D02*
X180023203Y-117253884D01*
X180023203Y-117253884D02*
X182852871Y-118250367D01*
X181570614Y-124902120D02*
X185815116Y-126396846D01*
X181803127Y-124241864D02*
X181570614Y-124902120D01*
X182826241Y-119831281D02*
X183158402Y-118888059D01*
X182852871Y-118250367D02*
X183158402Y-118888059D01*
X182991747Y-134414238D02*
X182048524Y-134082076D01*
X183323908Y-133471015D02*
X182991747Y-134414238D01*
X185815116Y-126396846D02*
X185981197Y-125925234D01*
X186698780Y-120876959D02*
X187642003Y-121209120D01*
X187176977Y-122529632D02*
X187376274Y-121963698D01*
X187376274Y-121963698D02*
X183131772Y-120468972D01*
X187642003Y-121209120D02*
X187309841Y-122152343D01*
X180886535Y-122328788D02*
G75*
G02*
X181803127Y-124241864I-498238J-1414832D01*
G01*
X183131772Y-120468972D02*
G75*
G02*
X182826241Y-119831281I166082J471612D01*
G01*
X187968382Y-136834806D02*
X188453191Y-135960186D01*
X188843001Y-137319615D02*
X187968382Y-136834806D01*
X194270907Y-125464749D02*
X194755716Y-124590130D01*
X194755716Y-124590130D02*
X195630336Y-125074939D01*
X197771348Y-129463113D02*
X197966253Y-130142828D01*
X197966253Y-130142828D02*
X200152802Y-131354852D01*
X199468182Y-126401944D02*
X200147896Y-126207039D01*
X200147896Y-126207039D02*
X202771755Y-127661468D01*
X200213058Y-143622140D02*
X199338438Y-143137331D01*
X200398151Y-134006229D02*
X204333939Y-136187873D01*
X200697867Y-142747521D02*
X200213058Y-143622140D01*
X200737517Y-133393996D02*
X200398151Y-134006229D01*
X202481851Y-129215802D02*
X202966660Y-128341182D01*
X202771755Y-127661468D02*
X202966660Y-128341182D01*
X204333939Y-136187873D02*
X204576344Y-135750563D01*
X206125773Y-130892655D02*
X207000392Y-131377464D01*
X206321659Y-132601932D02*
X206612545Y-132077159D01*
X206612545Y-132077159D02*
X202676756Y-129895516D01*
X207000392Y-131377464D02*
X206515583Y-132252084D01*
X200152802Y-131354852D02*
G75*
G02*
X200737517Y-133393996I-727224J-1311932D01*
G01*
X202676756Y-129895516D02*
G75*
G02*
X202481851Y-129215802I242407J437310D01*
G01*
X168350000Y-57600400D02*
X170890000Y-57600400D01*
X168350000Y-88080400D02*
X168350000Y-57600400D01*
X170890000Y-57600400D02*
X170890000Y-88080400D01*
X170890000Y-88080400D02*
X168350000Y-88080400D01*
X183590000Y-57600400D02*
X186130000Y-57600400D01*
X183590000Y-88080400D02*
X183590000Y-57600400D01*
X186130000Y-57600400D02*
X186130000Y-88080400D01*
X186130000Y-88080400D02*
X183590000Y-88080400D01*
X101170000Y-102540000D02*
X101170000Y-104040000D01*
X101170000Y-104040000D02*
X106570000Y-104040000D01*
X103370000Y-102790000D02*
X103370000Y-103790000D01*
X103470000Y-103290000D02*
X104370000Y-102790000D01*
X104370000Y-102790000D02*
X104370000Y-103790000D01*
X104370000Y-103790000D02*
X103470000Y-103290000D01*
X106570000Y-102540000D02*
X101170000Y-102540000D01*
X106570000Y-104040000D02*
X106570000Y-102540000D01*
X96910000Y-102400000D02*
X97910000Y-102400000D01*
X96910000Y-103400000D02*
X96910000Y-102400000D01*
X96910000Y-110900000D02*
X96910000Y-111400000D01*
X96910000Y-115000000D02*
X96910000Y-115600000D01*
X96910000Y-115600000D02*
X101410000Y-115600000D01*
X96910000Y-116400000D02*
X96910000Y-115400000D01*
X97910000Y-116400000D02*
X96910000Y-116400000D01*
X101410000Y-110900000D02*
X96910000Y-110900000D01*
X101410000Y-111600000D02*
X101410000Y-110900000D01*
X101910000Y-116100000D02*
X101910000Y-117100000D01*
X102410000Y-117600000D02*
X101910000Y-117100000D01*
X105410000Y-113100000D02*
X102910000Y-113100000D01*
X105410000Y-117600000D02*
X102410000Y-117600000D01*
X105910000Y-113600000D02*
X105410000Y-113100000D01*
X105910000Y-117100000D02*
X105410000Y-117600000D01*
X109910000Y-102400000D02*
X110910000Y-102400000D01*
X110910000Y-102400000D02*
X110910000Y-103400000D01*
X110910000Y-115400000D02*
X110910000Y-116400000D01*
X110910000Y-116400000D02*
X109910000Y-116400000D01*
X101410000Y-115600000D02*
G75*
G02*
X101910000Y-116100000I-1J-500001D01*
G01*
X102910000Y-113100000D02*
G75*
G02*
X101410000Y-111600000I1J1500001D01*
G01*
X135775000Y-104475000D02*
X135775000Y-105975000D01*
X135775000Y-105975000D02*
X141175000Y-105975000D01*
X137975000Y-104725000D02*
X137975000Y-105725000D01*
X138075000Y-105225000D02*
X138975000Y-104725000D01*
X138975000Y-104725000D02*
X138975000Y-105725000D01*
X138975000Y-105725000D02*
X138075000Y-105225000D01*
X141175000Y-104475000D02*
X135775000Y-104475000D01*
X141175000Y-105975000D02*
X141175000Y-104475000D01*
X174800000Y-53937500D02*
X174800000Y-56637500D01*
X174800000Y-56637500D02*
X181400000Y-56637500D01*
X176600000Y-52437500D02*
X177900000Y-52437500D01*
X176600000Y-53937500D02*
X176600000Y-52437500D01*
X177900000Y-53937500D02*
X177900000Y-52437500D01*
X181400000Y-53937500D02*
X174800000Y-53937500D01*
X181400000Y-56637500D02*
X181400000Y-53937500D01*
D14*
X173140000Y-99400000D02*
X172140000Y-99400000D01*
X173140000Y-99400000D02*
X173140000Y-98400000D01*
X173140000Y-100400000D02*
X173140000Y-99400000D01*
X174140000Y-99400000D02*
X173140000Y-99400000D01*
X174740000Y-99400000D02*
X175740000Y-99400000D01*
X175740000Y-99400000D02*
X176740000Y-99400000D01*
D10*
X176859500Y-88596380D02*
X176859500Y-90882380D01*
X176859500Y-90882380D02*
X178637500Y-90882380D01*
X178637500Y-88596380D02*
X176859500Y-88596380D01*
X178637500Y-90882380D02*
X178637500Y-88596380D01*
X174311000Y-88604000D02*
X174311000Y-90890000D01*
X174311000Y-90890000D02*
X176089000Y-90890000D01*
X176089000Y-88604000D02*
X174311000Y-88604000D01*
X176089000Y-90890000D02*
X176089000Y-88604000D01*
X182021000Y-88596000D02*
X182021000Y-90882000D01*
X182021000Y-90882000D02*
X183799000Y-90882000D01*
X183799000Y-88596000D02*
X182021000Y-88596000D01*
X183799000Y-90882000D02*
X183799000Y-88596000D01*
X179441000Y-88596000D02*
X179441000Y-90882000D01*
X179441000Y-90882000D02*
X181219000Y-90882000D01*
X181219000Y-88596000D02*
X179441000Y-88596000D01*
X181219000Y-90882000D02*
X181219000Y-88596000D01*
X174800000Y-53937500D02*
X181400000Y-53937500D01*
X174800000Y-56637500D02*
X174800000Y-53937500D01*
X176600000Y-52437500D02*
X176600000Y-53937500D01*
X177900000Y-52437500D02*
X176600000Y-52437500D01*
X177900000Y-52437500D02*
X177900000Y-53937500D01*
X181400000Y-53937500D02*
X181400000Y-56637500D01*
X181400000Y-56637500D02*
X174800000Y-56637500D01*
D11*
X168272936Y-109865000D02*
X168727064Y-109865000D01*
X168272936Y-111335000D02*
X168727064Y-111335000D01*
X184700000Y-94850000D02*
X185000000Y-94850000D01*
X184700000Y-98150000D02*
X184700000Y-94850000D01*
X185000000Y-98150000D02*
X184700000Y-98150000D01*
X187200000Y-98150000D02*
X187500000Y-98150000D01*
X187500000Y-94850000D02*
X187200000Y-94850000D01*
X187500000Y-98150000D02*
X187500000Y-94850000D01*
D10*
X168611000Y-90157000D02*
X168611000Y-92443000D01*
X168611000Y-92443000D02*
X170389000Y-92443000D01*
X170389000Y-90157000D02*
X168611000Y-90157000D01*
X170389000Y-92443000D02*
X170389000Y-90157000D01*
D11*
X168272936Y-107515000D02*
X168727064Y-107515000D01*
X168272936Y-108985000D02*
X168727064Y-108985000D01*
D10*
X171771000Y-88594400D02*
X171771000Y-90880400D01*
X171771000Y-90880400D02*
X173549000Y-90880400D01*
X173549000Y-88594400D02*
X171771000Y-88594400D01*
X173549000Y-90880400D02*
X173549000Y-88594400D01*
D11*
X175072936Y-64665000D02*
X175527064Y-64665000D01*
X175072936Y-66135000D02*
X175527064Y-66135000D01*
%LPC*%
D16*
X82194400Y-64312800D03*
D17*
X84229400Y-64312800D03*
X87779400Y-64312800D03*
D18*
X89814400Y-64312800D03*
D16*
X100279200Y-52273200D03*
D17*
X102314200Y-52273200D03*
X105864200Y-52273200D03*
D18*
X107899200Y-52273200D03*
D16*
X118262400Y-46228000D03*
D17*
X120297400Y-46228000D03*
X123847400Y-46228000D03*
D18*
X125882400Y-46228000D03*
D16*
X136194800Y-53289200D03*
D17*
X138229800Y-53289200D03*
X141779800Y-53289200D03*
D18*
X143814800Y-53289200D03*
D16*
X154178000Y-55422800D03*
D17*
X156213000Y-55422800D03*
X159763000Y-55422800D03*
D18*
X161798000Y-55422800D03*
D16*
X82092800Y-81229200D03*
D17*
X84127800Y-81229200D03*
X87677800Y-81229200D03*
D18*
X89712800Y-81229200D03*
D16*
X100076000Y-69342000D03*
D17*
X102111000Y-69342000D03*
X105661000Y-69342000D03*
D18*
X107696000Y-69342000D03*
D16*
X118160800Y-63347600D03*
D17*
X120195800Y-63347600D03*
X123745800Y-63347600D03*
D18*
X125780800Y-63347600D03*
D16*
X136144000Y-69900800D03*
D17*
X138179000Y-69900800D03*
X141729000Y-69900800D03*
D18*
X143764000Y-69900800D03*
D16*
X154482800Y-72491600D03*
D17*
X156517800Y-72491600D03*
X160067800Y-72491600D03*
D18*
X162102800Y-72491600D03*
D16*
X82092800Y-98247200D03*
D17*
X84127800Y-98247200D03*
X87677800Y-98247200D03*
D18*
X89712800Y-98247200D03*
D16*
X100177600Y-86309200D03*
D17*
X102212600Y-86309200D03*
X105762600Y-86309200D03*
D18*
X107797600Y-86309200D03*
D16*
X118160800Y-80314800D03*
D17*
X120195800Y-80314800D03*
X123745800Y-80314800D03*
D18*
X125780800Y-80314800D03*
D16*
X136245600Y-86969600D03*
D17*
X138280600Y-86969600D03*
X141830600Y-86969600D03*
D18*
X143865600Y-86969600D03*
D16*
X154279600Y-89357200D03*
D17*
X156314600Y-89357200D03*
X159864600Y-89357200D03*
D18*
X161899600Y-89357200D03*
D19*
X154379898Y-125740731D03*
D20*
X156385203Y-126087107D03*
X159883401Y-126691351D03*
D18*
X161888706Y-127037727D03*
D21*
X173128321Y-129965695D03*
D22*
X175047779Y-130641644D03*
X178396219Y-131820816D03*
D18*
X180315677Y-132496765D03*
D23*
X191139589Y-137610567D03*
D24*
X192919440Y-138597155D03*
X196024340Y-140318229D03*
D18*
X197804191Y-141304817D03*
D25*
X186460000Y-104950000D03*
X179460000Y-104950000D03*
X186460000Y-106700000D03*
X179460000Y-106700000D03*
D26*
X176160000Y-104600000D03*
X176160000Y-107050000D03*
X184660000Y-102850000D03*
X184660000Y-108800000D03*
X181660000Y-102850000D03*
X181660000Y-108800000D03*
X177660000Y-102850000D03*
X177660000Y-108800000D03*
D27*
X80410000Y-70400000D03*
D28*
X80690000Y-66200000D03*
D29*
X80910000Y-74150000D03*
D30*
X85910000Y-70400000D03*
D29*
X85910000Y-76350000D03*
X90910000Y-74150000D03*
D28*
X91130000Y-66200000D03*
D27*
X91410000Y-70400000D03*
D31*
X89185000Y-76350000D03*
D32*
X78010000Y-74150000D03*
D27*
X98410000Y-58400000D03*
D28*
X98690000Y-54200000D03*
D29*
X98910000Y-62150000D03*
D30*
X103910000Y-58400000D03*
D29*
X103910000Y-64350000D03*
X108910000Y-62150000D03*
D28*
X109130000Y-54200000D03*
D27*
X109410000Y-58400000D03*
D31*
X107185000Y-64350000D03*
D33*
X95960000Y-62150000D03*
D27*
X116410000Y-52400000D03*
D28*
X116690000Y-48200000D03*
D29*
X116910000Y-56150000D03*
D30*
X121910000Y-52400000D03*
D29*
X121910000Y-58350000D03*
X126910000Y-56150000D03*
D28*
X127130000Y-48200000D03*
D27*
X127410000Y-52400000D03*
D31*
X125185000Y-58350000D03*
D34*
X113635000Y-56150000D03*
D27*
X134410000Y-59020000D03*
D28*
X134690000Y-54820000D03*
D29*
X134910000Y-62770000D03*
D30*
X139910000Y-59020000D03*
D29*
X139910000Y-64970000D03*
X144910000Y-62770000D03*
D28*
X145130000Y-54820000D03*
D27*
X145410000Y-59020000D03*
D31*
X143185000Y-64970000D03*
D34*
X131635000Y-62770000D03*
D27*
X152410000Y-61400000D03*
D28*
X152690000Y-57200000D03*
D29*
X152910000Y-65150000D03*
D30*
X157910000Y-61400000D03*
D29*
X157910000Y-67350000D03*
X162910000Y-65150000D03*
D28*
X163130000Y-57200000D03*
D27*
X163410000Y-61400000D03*
D31*
X161185000Y-67350000D03*
D34*
X149635000Y-65150000D03*
D27*
X80410000Y-87400000D03*
D28*
X80690000Y-83200000D03*
D29*
X80910000Y-91150000D03*
D30*
X85910000Y-87400000D03*
D29*
X85910000Y-93350000D03*
X90910000Y-91150000D03*
D28*
X91130000Y-83200000D03*
D27*
X91410000Y-87400000D03*
D31*
X89185000Y-93350000D03*
D35*
X78010000Y-91150000D03*
D27*
X98410000Y-75400000D03*
D28*
X98690000Y-71200000D03*
D29*
X98910000Y-79150000D03*
D30*
X103910000Y-75400000D03*
D29*
X103910000Y-81350000D03*
X108910000Y-79150000D03*
D28*
X109130000Y-71200000D03*
D27*
X109410000Y-75400000D03*
D31*
X107185000Y-81350000D03*
D34*
X95635000Y-79150000D03*
D27*
X116410000Y-69400000D03*
D28*
X116690000Y-65200000D03*
D29*
X116910000Y-73150000D03*
D30*
X121910000Y-69400000D03*
D29*
X121910000Y-75350000D03*
X126910000Y-73150000D03*
D28*
X127130000Y-65200000D03*
D27*
X127410000Y-69400000D03*
D31*
X125185000Y-75350000D03*
D34*
X113635000Y-73150000D03*
D27*
X134410000Y-76020000D03*
D28*
X134690000Y-71820000D03*
D29*
X134910000Y-79770000D03*
D30*
X139910000Y-76020000D03*
D29*
X139910000Y-81970000D03*
X144910000Y-79770000D03*
D28*
X145130000Y-71820000D03*
D27*
X145410000Y-76020000D03*
D31*
X143185000Y-81970000D03*
D34*
X131635000Y-79770000D03*
D27*
X152410000Y-78400000D03*
D28*
X152690000Y-74200000D03*
D29*
X152910000Y-82150000D03*
D30*
X157910000Y-78400000D03*
D29*
X157910000Y-84350000D03*
X162910000Y-82150000D03*
D28*
X163130000Y-74200000D03*
D27*
X163410000Y-78400000D03*
D31*
X161185000Y-84350000D03*
D34*
X149635000Y-82150000D03*
D27*
X80410000Y-104400000D03*
D28*
X80690000Y-100200000D03*
D29*
X80910000Y-108150000D03*
D30*
X85910000Y-104400000D03*
D29*
X85910000Y-110350000D03*
X90910000Y-108150000D03*
D28*
X91130000Y-100200000D03*
D27*
X91410000Y-104400000D03*
D31*
X89185000Y-110350000D03*
D35*
X78010000Y-108150000D03*
D27*
X98410000Y-92400000D03*
D28*
X98690000Y-88200000D03*
D29*
X98910000Y-96150000D03*
D30*
X103910000Y-92400000D03*
D29*
X103910000Y-98350000D03*
X108910000Y-96150000D03*
D28*
X109130000Y-88200000D03*
D27*
X109410000Y-92400000D03*
D31*
X107185000Y-98350000D03*
D34*
X95635000Y-96150000D03*
D27*
X116410000Y-86400000D03*
D28*
X116690000Y-82200000D03*
D29*
X116910000Y-90150000D03*
D30*
X121910000Y-86400000D03*
D29*
X121910000Y-92350000D03*
X126910000Y-90150000D03*
D28*
X127130000Y-82200000D03*
D27*
X127410000Y-86400000D03*
D31*
X125185000Y-92350000D03*
D34*
X113635000Y-90150000D03*
D27*
X134410000Y-93025000D03*
D28*
X134690000Y-88825000D03*
D29*
X134910000Y-96775000D03*
D30*
X139910000Y-93025000D03*
D29*
X139910000Y-98975000D03*
X144910000Y-96775000D03*
D28*
X145130000Y-88825000D03*
D27*
X145410000Y-93025000D03*
D31*
X143185000Y-98975000D03*
D34*
X131635000Y-96775000D03*
D27*
X152410000Y-95400000D03*
D28*
X152690000Y-91200000D03*
D29*
X152910000Y-99150000D03*
D30*
X157910000Y-95400000D03*
D29*
X157910000Y-101350000D03*
X162910000Y-99150000D03*
D28*
X163130000Y-91200000D03*
D27*
X163410000Y-95400000D03*
D31*
X161185000Y-101350000D03*
D34*
X149635000Y-99150000D03*
D27*
X164639468Y-121337555D03*
D28*
X163648674Y-125428610D03*
D29*
X164785050Y-117557171D03*
D30*
X159219725Y-120401403D03*
D29*
X160232472Y-114538226D03*
X154930971Y-115855076D03*
D28*
X153361016Y-123651623D03*
D27*
X153799982Y-119465251D03*
D36*
X157005261Y-113980790D03*
D37*
X168012261Y-118114607D03*
D27*
X183902041Y-127313437D03*
D28*
X182242862Y-131181967D03*
D29*
X184676034Y-123610272D03*
D30*
X178714316Y-125486551D03*
D29*
X180690675Y-119874376D03*
X175243807Y-120288660D03*
D28*
X172395617Y-127714205D03*
D27*
X173526591Y-123659665D03*
D38*
X177601621Y-118786548D03*
D39*
X187765088Y-124698099D03*
D27*
X202294795Y-136772588D03*
D28*
X200013701Y-140310244D03*
D29*
X203675522Y-133250359D03*
D30*
X197484387Y-134106135D03*
D29*
X200369004Y-128902148D03*
X194929325Y-128402263D03*
D28*
X190882672Y-135248832D03*
D27*
X192673979Y-131439682D03*
D40*
X197504625Y-127314396D03*
D41*
X206539901Y-134838111D03*
D42*
X169620000Y-58870400D03*
X186166400Y-57600400D03*
X169620000Y-61410400D03*
X186166400Y-60140400D03*
X169620000Y-63950400D03*
X186166400Y-62680400D03*
X169620000Y-66490400D03*
X186166400Y-65220400D03*
X169620000Y-69030400D03*
X186166400Y-67760400D03*
X169620000Y-71570400D03*
X186166400Y-70300400D03*
X169620000Y-74110400D03*
X186166400Y-72840400D03*
X169620000Y-76650400D03*
X186166400Y-75380400D03*
X169620000Y-79190400D03*
X186166400Y-77920400D03*
X169620000Y-81730400D03*
X186166400Y-80460400D03*
X169620000Y-84270400D03*
X186166400Y-83000400D03*
X169620000Y-86810400D03*
X186166400Y-85540400D03*
X170946400Y-85540400D03*
X184860000Y-86810400D03*
X170946400Y-83000400D03*
X184860000Y-84270400D03*
X170946400Y-80460400D03*
X184860000Y-81730400D03*
X170946400Y-77920400D03*
X184860000Y-79190400D03*
X170946400Y-75380400D03*
X184860000Y-76650400D03*
X170946400Y-72840400D03*
X184860000Y-74110400D03*
X170946400Y-70300400D03*
X184860000Y-71570400D03*
X170946400Y-67760400D03*
X184860000Y-69030400D03*
X170946400Y-65220400D03*
X184860000Y-66490400D03*
X170946400Y-62680400D03*
X184860000Y-63950400D03*
X170946400Y-60140400D03*
X184860000Y-61410400D03*
X170946400Y-57600400D03*
X184860000Y-58870400D03*
D43*
X172660000Y-92347400D03*
X175200000Y-92347400D03*
X177740000Y-92347400D03*
X180280000Y-92347400D03*
X182820000Y-92347400D03*
D44*
X112900000Y-66900000D03*
D16*
X100060000Y-103290000D03*
D17*
X102095000Y-103290000D03*
X105645000Y-103290000D03*
D18*
X107680000Y-103290000D03*
D27*
X98410000Y-109400000D03*
D28*
X98690000Y-105200000D03*
D29*
X98910000Y-113150000D03*
D45*
X103910000Y-109400000D03*
D29*
X103910000Y-115350000D03*
X108910000Y-113150000D03*
D28*
X109130000Y-105200000D03*
D27*
X109410000Y-109400000D03*
D31*
X107185000Y-115350000D03*
D34*
X95635000Y-113150000D03*
D44*
X187000000Y-132200000D03*
X94925000Y-66900000D03*
D16*
X134665000Y-105225000D03*
D17*
X136700000Y-105225000D03*
X140250000Y-105225000D03*
D18*
X142285000Y-105225000D03*
D44*
X149000000Y-86900000D03*
X183700000Y-114200000D03*
D46*
X179600000Y-55287500D03*
X176600000Y-55287500D03*
D47*
X180350000Y-57287500D03*
X178850000Y-57287500D03*
X175850000Y-57287500D03*
D48*
X181950000Y-56337500D03*
X181950000Y-54237500D03*
X174250000Y-56337500D03*
X174250000Y-54237500D03*
D44*
X119000000Y-108000000D03*
D49*
X126009681Y-109819254D03*
D50*
X124715586Y-114648883D03*
X125362634Y-112234069D03*
D51*
X134056463Y-108766027D03*
X131157690Y-119584396D03*
D50*
X140015605Y-113572130D03*
X138721510Y-118401759D03*
D44*
X113000000Y-83900000D03*
D52*
X175740000Y-97200000D03*
D53*
X173200000Y-97200000D03*
D44*
X148975000Y-69900000D03*
X172130000Y-102740000D03*
X146200000Y-113400000D03*
X94925000Y-83925000D03*
D54*
X177748500Y-89239000D03*
X177748500Y-90239760D03*
X175200000Y-89246620D03*
X175200000Y-90247380D03*
X182910000Y-89238620D03*
X182910000Y-90239380D03*
X180330000Y-89238620D03*
X180330000Y-90239380D03*
D46*
X176600000Y-55287500D03*
X179600000Y-55287500D03*
D55*
X175850000Y-57287500D03*
X178850000Y-57287500D03*
X180350000Y-57287500D03*
D56*
X174250000Y-54237500D03*
X174250000Y-56337500D03*
X181950000Y-54237500D03*
X181950000Y-56337500D03*
D57*
X169500000Y-110600000D03*
X167500000Y-110600000D03*
D58*
X186100000Y-94800000D03*
X186100000Y-98200000D03*
D17*
X105650000Y-103300000D03*
X140250000Y-105225000D03*
D59*
X169500000Y-91800380D03*
X169500000Y-90799620D03*
D17*
X136700000Y-105225000D03*
D57*
X169500000Y-108250000D03*
X167500000Y-108250000D03*
D54*
X172660000Y-89237020D03*
X172660000Y-90237780D03*
D57*
X176300000Y-65400000D03*
X174300000Y-65400000D03*
D17*
X102100000Y-103300000D03*
G36*
X124843039Y-96919685D02*
G01*
X124888794Y-96972489D01*
X124900000Y-97024000D01*
X124900000Y-104276000D01*
X124880315Y-104343039D01*
X124827511Y-104388794D01*
X124776000Y-104400000D01*
X115524000Y-104400000D01*
X115456961Y-104380315D01*
X115411206Y-104327511D01*
X115400000Y-104276000D01*
X115400000Y-97024000D01*
X115419685Y-96956961D01*
X115472489Y-96911206D01*
X115524000Y-96900000D01*
X124776000Y-96900000D01*
X124843039Y-96919685D01*
G37*
%LPD*%
M02*
