G04 #@! TF.GenerationSoftware,KiCad,Pcbnew,8.0.4*
G04 #@! TF.CreationDate,2024-08-05T03:42:23+02:00*
G04 #@! TF.ProjectId,chocofi,63686f63-6f66-4692-9e6b-696361645f70,0.2*
G04 #@! TF.SameCoordinates,Original*
G04 #@! TF.FileFunction,Paste,Top*
G04 #@! TF.FilePolarity,Positive*
%FSLAX46Y46*%
G04 Gerber Fmt 4.6, Leading zero omitted, Abs format (unit mm)*
G04 Created by KiCad (PCBNEW 8.0.4) date 2024-08-05 03:42:23*
%MOMM*%
%LPD*%
G01*
G04 APERTURE LIST*
G04 Aperture macros list*
%AMRoundRect*
0 Rectangle with rounded corners*
0 $1 Rounding radius*
0 $2 $3 $4 $5 $6 $7 $8 $9 X,Y pos of 4 corners*
0 Add a 4 corners polygon primitive as box body*
4,1,4,$2,$3,$4,$5,$6,$7,$8,$9,$2,$3,0*
0 Add four circle primitives for the rounded corners*
1,1,$1+$1,$2,$3*
1,1,$1+$1,$4,$5*
1,1,$1+$1,$6,$7*
1,1,$1+$1,$8,$9*
0 Add four rect primitives between the rounded corners*
20,1,$1+$1,$2,$3,$4,$5,0*
20,1,$1+$1,$4,$5,$6,$7,0*
20,1,$1+$1,$6,$7,$8,$9,0*
20,1,$1+$1,$8,$9,$2,$3,0*%
%AMRotRect*
0 Rectangle, with rotation*
0 The origin of the aperture is its center*
0 $1 length*
0 $2 width*
0 $3 Rotation angle, in degrees counterclockwise*
0 Add horizontal line*
21,1,$1,$2,0,0,$3*%
%AMOutline5P*
0 Free polygon, 5 corners , with rotation*
0 The origin of the aperture is its center*
0 number of corners: always 5*
0 $1 to $10 corner X, Y*
0 $11 Rotation angle, in degrees counterclockwise*
0 create outline with 5 corners*
4,1,5,$1,$2,$3,$4,$5,$6,$7,$8,$9,$10,$1,$2,$11*%
%AMOutline6P*
0 Free polygon, 6 corners , with rotation*
0 The origin of the aperture is its center*
0 number of corners: always 6*
0 $1 to $12 corner X, Y*
0 $13 Rotation angle, in degrees counterclockwise*
0 create outline with 6 corners*
4,1,6,$1,$2,$3,$4,$5,$6,$7,$8,$9,$10,$11,$12,$1,$2,$13*%
%AMOutline7P*
0 Free polygon, 7 corners , with rotation*
0 The origin of the aperture is its center*
0 number of corners: always 7*
0 $1 to $14 corner X, Y*
0 $15 Rotation angle, in degrees counterclockwise*
0 create outline with 7 corners*
4,1,7,$1,$2,$3,$4,$5,$6,$7,$8,$9,$10,$11,$12,$13,$14,$1,$2,$15*%
%AMOutline8P*
0 Free polygon, 8 corners , with rotation*
0 The origin of the aperture is its center*
0 number of corners: always 8*
0 $1 to $16 corner X, Y*
0 $17 Rotation angle, in degrees counterclockwise*
0 create outline with 8 corners*
4,1,8,$1,$2,$3,$4,$5,$6,$7,$8,$9,$10,$11,$12,$13,$14,$15,$16,$1,$2,$17*%
G04 Aperture macros list end*
%ADD10R,1.300000X0.950000*%
%ADD11RotRect,1.300000X0.950000X350.200000*%
%ADD12RotRect,1.300000X0.950000X340.600000*%
%ADD13RotRect,1.300000X0.950000X331.000000*%
%ADD14Outline5P,-1.300000X0.130000X-0.130000X1.300000X1.300000X1.300000X1.300000X-1.300000X-1.300000X-1.300000X0.000000*%
%ADD15R,2.600000X2.600000*%
%ADD16R,1.900000X2.600000*%
%ADD17Outline5P,-1.300000X0.130000X-0.130000X1.300000X1.300000X1.300000X1.300000X-1.300000X-1.300000X-1.300000X170.200000*%
%ADD18RotRect,2.600000X2.600000X170.200000*%
%ADD19Outline5P,-1.300000X0.130000X-0.130000X1.300000X1.300000X1.300000X1.300000X-1.300000X-1.300000X-1.300000X160.600000*%
%ADD20RotRect,2.600000X2.600000X160.600000*%
%ADD21Outline5P,-1.300000X0.130000X-0.130000X1.300000X1.300000X1.300000X1.300000X-1.300000X-1.300000X-1.300000X151.000000*%
%ADD22RotRect,2.600000X2.600000X151.000000*%
%ADD23R,1.143000X0.635000*%
%ADD24R,1.700000X0.900000*%
%ADD25RoundRect,0.250000X0.350000X0.450000X-0.350000X0.450000X-0.350000X-0.450000X0.350000X-0.450000X0*%
%ADD26R,0.900000X1.300000*%
%ADD27R,1.000000X1.000000*%
%ADD28RoundRect,0.250000X-0.350000X-0.450000X0.350000X-0.450000X0.350000X0.450000X-0.350000X0.450000X0*%
G04 APERTURE END LIST*
D10*
X84229400Y-64312800D03*
X87779400Y-64312800D03*
X102314200Y-52273200D03*
X105864200Y-52273200D03*
X120297400Y-46228000D03*
X123847400Y-46228000D03*
X138229800Y-53289200D03*
X141779800Y-53289200D03*
X156213000Y-55422800D03*
X159763000Y-55422800D03*
X84127800Y-81229200D03*
X87677800Y-81229200D03*
X102111000Y-69342000D03*
X105661000Y-69342000D03*
X120195800Y-63347600D03*
X123745800Y-63347600D03*
X138179000Y-69900800D03*
X141729000Y-69900800D03*
X156517800Y-72491600D03*
X160067800Y-72491600D03*
X84127800Y-98247200D03*
X87677800Y-98247200D03*
X102212600Y-86309200D03*
X105762600Y-86309200D03*
X120195800Y-80314800D03*
X123745800Y-80314800D03*
X138280600Y-86969600D03*
X141830600Y-86969600D03*
X156314600Y-89357200D03*
X159864600Y-89357200D03*
D11*
X156385203Y-126087107D03*
X159883401Y-126691351D03*
D12*
X175047779Y-130641644D03*
X178396219Y-131820816D03*
D13*
X192919440Y-138597155D03*
X196024340Y-140318229D03*
D14*
X82635000Y-76350000D03*
D15*
X94185000Y-74150000D03*
D14*
X100635000Y-64350000D03*
D15*
X112185000Y-62150000D03*
D14*
X118635000Y-58350000D03*
D15*
X130185000Y-56150000D03*
D14*
X136635000Y-64970000D03*
D15*
X148185000Y-62770000D03*
D14*
X154635000Y-67350000D03*
D15*
X166185000Y-65150000D03*
D14*
X82635000Y-93350000D03*
D15*
X94185000Y-91150000D03*
D14*
X100635000Y-81350000D03*
D15*
X112185000Y-79150000D03*
D14*
X118635000Y-75350000D03*
D15*
X130185000Y-73150000D03*
D14*
X136635000Y-81970000D03*
D15*
X148185000Y-79770000D03*
D14*
X154635000Y-84350000D03*
D15*
X166185000Y-82150000D03*
D14*
X82635000Y-110350000D03*
D16*
X93810000Y-108150000D03*
D14*
X100635000Y-98350000D03*
D15*
X112185000Y-96150000D03*
D14*
X118635000Y-92350000D03*
D15*
X130185000Y-90150000D03*
D14*
X136635000Y-98975000D03*
D15*
X148185000Y-96775000D03*
D14*
X154635000Y-101350000D03*
D15*
X166185000Y-99150000D03*
D17*
X163459682Y-115095662D03*
D18*
X151703760Y-115297640D03*
D19*
X183779729Y-120962204D03*
D20*
X172154753Y-119200833D03*
D21*
X203233384Y-130489899D03*
D22*
X192064945Y-126814511D03*
D23*
X177750000Y-89238620D03*
X177750000Y-90239380D03*
X175200000Y-89238620D03*
X175200000Y-90239380D03*
X172660000Y-89237020D03*
X172660000Y-90237780D03*
X180330000Y-89238620D03*
X180330000Y-90239380D03*
D24*
X186100000Y-94800000D03*
X186100000Y-98200000D03*
D23*
X182910000Y-89238620D03*
X182910000Y-90239380D03*
D10*
X102095000Y-103290000D03*
X105645000Y-103290000D03*
D14*
X100635000Y-115350000D03*
D15*
X112185000Y-113150000D03*
D23*
X169500000Y-91800760D03*
X169500000Y-90800000D03*
D25*
X169500000Y-108250000D03*
X167500000Y-108250000D03*
D26*
X180350000Y-57287500D03*
X177350000Y-57287500D03*
X175850000Y-57287500D03*
D27*
X181950000Y-56337500D03*
X181950000Y-54237500D03*
X174250000Y-56337500D03*
X174250000Y-54237500D03*
D25*
X169500000Y-110600000D03*
X167500000Y-110600000D03*
D28*
X174300000Y-65400000D03*
X176300000Y-65400000D03*
D26*
X175850000Y-57287500D03*
X177350000Y-57287500D03*
X180350000Y-57287500D03*
D27*
X174250000Y-54237500D03*
X174250000Y-56337500D03*
X181950000Y-54237500D03*
X181950000Y-56337500D03*
M02*
