M48
; DRILL file {KiCad 8.0.4} date 2024-08-04T04:37:22+0200
; FORMAT={-:-/ absolute / metric / decimal}
; #@! TF.CreationDate,2024-08-04T04:37:22+02:00
; #@! TF.GenerationSoftware,Kicad,Pcbnew,8.0.4
; #@! TF.FileFunction,Plated,1,2,PTH
FMAT,2
METRIC
; #@! TA.AperFunction,Plated,PTH,ViaDrill
T1C0.400
; #@! TA.AperFunction,Plated,PTH,ComponentDrill
T2C0.813
; #@! TA.AperFunction,Plated,PTH,ComponentDrill
T3C1.000
; #@! TA.AperFunction,Plated,PTH,ComponentDrill
T4C1.300
; #@! TA.AperFunction,Plated,PTH,ComponentDrill
T5C2.000
; #@! TA.AperFunction,Plated,PTH,ComponentDrill
T6C2.200
%
G90
G05
T1
X78.7Y-79.2
X82.0Y-68.5
X82.635Y-76.35
X82.635Y-93.35
X82.635Y-110.35
X89.2Y-68.6
X89.662Y-84.455
X89.7Y-101.9
X92.253Y-93.878
X93.65Y-108.15
X94.185Y-74.15
X94.185Y-91.15
X94.3Y-100.8
X94.59Y-93.777
X100.635Y-64.35
X100.635Y-81.35
X100.635Y-98.35
X100.74Y-115.57
X102.19Y-105.0
X107.5Y-74.4
X107.8Y-107.0
X109.3Y-99.0
X111.15Y-52.375
X111.303Y-87.2
X111.76Y-70.206
X112.185Y-62.15
X112.185Y-79.15
X112.185Y-96.15
X112.2Y-106.2
X113.6Y-75.8
X113.6Y-87.8
X114.1Y-70.8
X114.9Y-105.7
X117.6Y-113.6
X118.4Y-66.4
X118.5Y-84.3
X118.635Y-58.35
X118.635Y-75.35
X118.635Y-92.35
X119.1Y-95.425
X121.5Y-110.7
X121.768Y-65.43
X125.0Y-104.8
X127.2Y-77.6
X129.083Y-80.874
X129.388Y-46.33
X129.489Y-63.652
X130.185Y-56.15
X130.185Y-73.15
X130.185Y-90.15
X131.5Y-70.8
X131.7Y-85.2
X136.635Y-64.97
X136.635Y-81.97
X136.635Y-98.975
X138.532Y-72.746
X141.3Y-106.4
X144.2Y-122.2
X145.3Y-117.6
X145.725Y-86.97
X147.218Y-100.99
X147.36Y-104.34
X148.031Y-53.442
X148.185Y-62.77
X148.185Y-79.77
X148.185Y-96.775
X151.9Y-106.5
X152.45Y-107.2
X154.635Y-67.35
X154.635Y-84.35
X154.635Y-101.35
X156.0Y-106.5
X156.85Y-107.2
X160.8Y-109.4
X163.0Y-105.225
X163.46Y-115.096
X163.8Y-84.4
X164.3Y-102.89
X164.5Y-86.9
X165.0Y-84.905
X165.913Y-89.408
X166.116Y-55.524
X166.116Y-73.863
X166.185Y-65.15
X166.185Y-82.15
X166.185Y-99.15
X166.4Y-102.5
X166.809Y-57.774
X166.81Y-78.4
X167.234Y-70.5
X167.85Y-94.4
X168.5Y-93.45
X169.4Y-103.1
X170.2Y-95.839
X170.3Y-91.539
X171.1Y-100.439
X171.362Y-93.277
X171.7Y-106.339
X171.8Y-108.689
X172.2Y-95.239
X172.3Y-113.5
X172.85Y-63.95
X172.9Y-98.039
X173.0Y-98.939
X173.175Y-82.358
X173.355Y-86.117
X173.7Y-106.339
X173.7Y-108.689
X173.95Y-84.45
X174.25Y-54.237
X174.25Y-56.337
X174.7Y-86.05
X175.8Y-57.3
X176.25Y-84.4
X176.3Y-65.4
X176.4Y-110.2
X176.44Y-78.025
X176.566Y-81.828
X176.671Y-79.454
X176.685Y-81.037
X176.874Y-86.626
X176.9Y-69.03
X177.0Y-71.57
X177.05Y-74.11
X177.05Y-76.65
X177.2Y-80.425
X177.35Y-57.287
X177.942Y-78.8
X178.3Y-80.425
X178.425Y-69.655
X178.6Y-74.9
X178.6Y-76.525
X178.652Y-72.195
X178.75Y-85.9
X179.375Y-85.325
X179.5Y-82.8
X181.2Y-84.5
X181.5Y-96.239
X181.9Y-96.939
X181.95Y-54.237
X181.95Y-56.337
X182.525Y-83.9
X183.1Y-94.639
X183.3Y-85.5
X183.305Y-58.005
X183.5Y-95.339
X183.78Y-120.962
X185.7Y-91.789
X185.7Y-111.9
X186.2Y-90.339
X193.0Y-121.2
X203.233Y-130.49
X208.4Y-129.6
T2
X82.093Y-81.229
X82.093Y-98.247
X82.194Y-64.313
X89.713Y-81.229
X89.713Y-98.247
X89.814Y-64.313
X100.06Y-103.29
X100.076Y-69.342
X100.178Y-86.309
X100.279Y-52.273
X107.68Y-103.29
X107.696Y-69.342
X107.798Y-86.309
X107.899Y-52.273
X118.161Y-63.348
X118.161Y-80.315
X118.262Y-46.228
X125.781Y-63.348
X125.781Y-80.315
X125.882Y-46.228
X136.144Y-69.901
X136.195Y-53.289
X136.246Y-86.97
X143.764Y-69.901
X143.815Y-53.289
X143.866Y-86.97
X154.178Y-55.423
X154.28Y-89.357
X154.38Y-125.741
X154.483Y-72.492
X161.798Y-55.423
X161.889Y-127.038
X161.9Y-89.357
X162.103Y-72.492
X169.62Y-58.87
X169.62Y-61.41
X169.62Y-63.95
X169.62Y-66.49
X169.62Y-69.03
X169.62Y-71.57
X169.62Y-74.11
X169.62Y-76.65
X169.62Y-79.19
X169.62Y-81.73
X169.62Y-84.27
X169.62Y-86.81
X170.946Y-57.6
X170.946Y-60.14
X170.946Y-62.68
X170.946Y-65.22
X170.946Y-67.76
X170.946Y-70.3
X170.946Y-72.84
X170.946Y-75.38
X170.946Y-77.92
X170.946Y-80.46
X170.946Y-83.0
X170.946Y-85.54
X172.66Y-92.347
X173.128Y-129.966
X175.2Y-92.347
X177.74Y-92.347
X180.28Y-92.347
X180.316Y-132.497
X182.82Y-92.347
X184.86Y-58.87
X184.86Y-61.41
X184.86Y-63.95
X184.86Y-66.49
X184.86Y-69.03
X184.86Y-71.57
X184.86Y-74.11
X184.86Y-76.65
X184.86Y-79.19
X184.86Y-81.73
X184.86Y-84.27
X184.86Y-86.81
X186.166Y-57.6
X186.166Y-60.14
X186.166Y-62.68
X186.166Y-65.22
X186.166Y-67.76
X186.166Y-70.3
X186.166Y-72.84
X186.166Y-75.38
X186.166Y-77.92
X186.166Y-80.46
X186.166Y-83.0
X186.166Y-85.54
X191.14Y-137.611
X197.804Y-141.305
T3
X124.716Y-114.649
X125.363Y-112.234
X126.01Y-109.819
X138.722Y-118.402
X140.016Y-113.572
X174.385Y-95.151
X176.925Y-95.151
T4
X179.503Y-95.592
X186.003Y-95.592
T6
X94.925Y-66.9
X94.925Y-83.925
X112.9Y-66.9
X113.0Y-83.9
X119.5Y-107.1
X146.6Y-110.1
X148.975Y-69.9
X149.0Y-86.9
X181.7Y-111.7
X187.0Y-132.2
T3
X176.41Y-101.35G85X175.91Y-101.35
G05
X176.41Y-103.8G85X175.91Y-103.8
G05
X177.91Y-99.6G85X177.41Y-99.6
G05
X177.91Y-105.55G85X177.41Y-105.55
G05
X181.91Y-99.6G85X181.41Y-99.6
G05
X181.91Y-105.55G85X181.41Y-105.55
G05
X184.91Y-99.6G85X184.41Y-99.6
G05
X184.91Y-105.55G85X184.41Y-105.55
G05
T5
X130.916Y-119.52G85X131.399Y-119.649
G05
X133.815Y-108.701G85X134.298Y-108.831
G05
M30
