%TF.GenerationSoftware,KiCad,Pcbnew,8.0.4*%
%TF.CreationDate,2024-08-04T04:37:22+02:00*%
%TF.ProjectId,chocofi,63686f63-6f66-4692-9e6b-696361645f70,0.2*%
%TF.SameCoordinates,Original*%
%TF.FileFunction,Drillmap*%
%TF.FilePolarity,Positive*%
%FSLAX45Y45*%
G04 Gerber Fmt 4.5, Leading zero omitted, Abs format (unit mm)*
G04 Created by KiCad (PCBNEW 8.0.4) date 2024-08-04 04:37:22*
%MOMM*%
%LPD*%
G01*
G04 APERTURE LIST*
%ADD10C,0.150000*%
%ADD11C,0.200000*%
%ADD12C,0.100000*%
%ADD13C,0.130000*%
%ADD14C,0.220000*%
G04 APERTURE END LIST*
D10*
X18762000Y-5380500D02*
X16733040Y-5381502D01*
X9451545Y-6202085D02*
X7741920Y-6197600D01*
X20280000Y-14660000D02*
X21180000Y-13020000D01*
X18420000Y-13740000D02*
X20160000Y-14700000D01*
X14883977Y-12769009D02*
X16635868Y-13072242D01*
X16636050Y-5305500D02*
G75*
G02*
X16685040Y-5345502I0J-50000D01*
G01*
X16733040Y-5381502D02*
G75*
G02*
X16685039Y-5345502I0J50002D01*
G01*
X16636050Y-5305500D02*
X14929320Y-5306902D01*
X9501545Y-6152085D02*
G75*
G02*
X9451545Y-6202085I-50005J5D01*
G01*
X9501712Y-5050682D02*
G75*
G02*
X9551712Y-5000682I49998J2D01*
G01*
X13031000Y-4403620D02*
X11353000Y-4404955D01*
X13081000Y-5005340D02*
X13081000Y-4453620D01*
X14829320Y-5056902D02*
X13131000Y-5055340D01*
X14879320Y-5256902D02*
X14879320Y-5106902D01*
X9501712Y-5050682D02*
X9501545Y-6152085D01*
X11254712Y-5000682D02*
X9551712Y-5000682D01*
X11303000Y-4454955D02*
X11304712Y-4950682D01*
X11304712Y-4950682D02*
G75*
G02*
X11254712Y-5000682I-50002J2D01*
G01*
X11303000Y-4454955D02*
G75*
G02*
X11353000Y-4404960I50000J-5D01*
G01*
X13031000Y-4403620D02*
G75*
G02*
X13081000Y-4453620I0J-50000D01*
G01*
X13131000Y-5055340D02*
G75*
G02*
X13081000Y-5005340I0J50000D01*
G01*
X14829320Y-5056902D02*
G75*
G02*
X14879318Y-5106902I0J-49998D01*
G01*
X14929320Y-5306902D02*
G75*
G02*
X14879318Y-5256902I0J50002D01*
G01*
X18762000Y-5380500D02*
G75*
G02*
X18812000Y-5430500I0J-50000D01*
G01*
X21140000Y-12900000D02*
G75*
G02*
X21180000Y-13020000I-40000J-80000D01*
G01*
X11476998Y-11839915D02*
X14883977Y-12769009D01*
X20280000Y-14660000D02*
G75*
G02*
X20160000Y-14700000I-80000J40000D01*
G01*
X7701280Y-9377680D02*
X7701280Y-11074400D01*
X7696200Y-6243320D02*
X7701280Y-7670800D01*
X18812000Y-5430500D02*
X18821400Y-11540000D01*
X9434000Y-11810000D02*
X11304000Y-11809000D01*
X9395707Y-11344000D02*
X9395000Y-11771000D01*
X18900000Y-11660000D02*
X21140000Y-12900000D01*
X9321999Y-11277592D02*
G75*
G02*
X9395706Y-11344000I6001J-67448D01*
G01*
X7701280Y-11211560D02*
X7701280Y-11074400D01*
X9434000Y-11810000D02*
G75*
G02*
X9395000Y-11771000I0J39000D01*
G01*
X7701280Y-7670800D02*
X7701280Y-9377680D01*
X7696200Y-6243320D02*
G75*
G02*
X7741920Y-6197600I45720J0D01*
G01*
X7767320Y-11277600D02*
X9320000Y-11277600D01*
X16635868Y-13072242D02*
X18420000Y-13740000D01*
X18900000Y-11660000D02*
G75*
G02*
X18821401Y-11540000I60000J125040D01*
G01*
X11304000Y-11809000D02*
G75*
G02*
X11476999Y-11839914I1000J-493920D01*
G01*
X7767320Y-11277600D02*
G75*
G02*
X7701280Y-11211560I0J66040D01*
G01*
D11*
D12*
X7850000Y-7900000D02*
X7890000Y-7940000D01*
X7890000Y-7900000D02*
X7850000Y-7940000D01*
X8180000Y-6830000D02*
X8220000Y-6870000D01*
X8220000Y-6830000D02*
X8180000Y-6870000D01*
X8243500Y-7615000D02*
X8283500Y-7655000D01*
X8283500Y-7615000D02*
X8243500Y-7655000D01*
X8243500Y-9315000D02*
X8283500Y-9355000D01*
X8283500Y-9315000D02*
X8243500Y-9355000D01*
X8243500Y-11015000D02*
X8283500Y-11055000D01*
X8283500Y-11015000D02*
X8243500Y-11055000D01*
X8900000Y-6840000D02*
X8940000Y-6880000D01*
X8940000Y-6840000D02*
X8900000Y-6880000D01*
X8946200Y-8425500D02*
X8986200Y-8465500D01*
X8986200Y-8425500D02*
X8946200Y-8465500D01*
X8950000Y-10170000D02*
X8990000Y-10210000D01*
X8990000Y-10170000D02*
X8950000Y-10210000D01*
X9205280Y-9367840D02*
X9245280Y-9407840D01*
X9245280Y-9367840D02*
X9205280Y-9407840D01*
X9345000Y-10795000D02*
X9385000Y-10835000D01*
X9385000Y-10795000D02*
X9345000Y-10835000D01*
X9398500Y-7395000D02*
X9438500Y-7435000D01*
X9438500Y-7395000D02*
X9398500Y-7435000D01*
X9398500Y-9095000D02*
X9438500Y-9135000D01*
X9438500Y-9095000D02*
X9398500Y-9135000D01*
X9410000Y-10060000D02*
X9450000Y-10100000D01*
X9450000Y-10060000D02*
X9410000Y-10100000D01*
X9438960Y-9357680D02*
X9478960Y-9397680D01*
X9478960Y-9357680D02*
X9438960Y-9397680D01*
X10043500Y-6415000D02*
X10083500Y-6455000D01*
X10083500Y-6415000D02*
X10043500Y-6455000D01*
X10043500Y-8115000D02*
X10083500Y-8155000D01*
X10083500Y-8115000D02*
X10043500Y-8155000D01*
X10043500Y-9815000D02*
X10083500Y-9855000D01*
X10083500Y-9815000D02*
X10043500Y-9855000D01*
X10054000Y-11537000D02*
X10094000Y-11577000D01*
X10094000Y-11537000D02*
X10054000Y-11577000D01*
X10199000Y-10480000D02*
X10239000Y-10520000D01*
X10239000Y-10480000D02*
X10199000Y-10520000D01*
X10730000Y-7420000D02*
X10770000Y-7460000D01*
X10770000Y-7420000D02*
X10730000Y-7460000D01*
X10760000Y-10680000D02*
X10800000Y-10720000D01*
X10800000Y-10680000D02*
X10760000Y-10720000D01*
X10910000Y-9880000D02*
X10950000Y-9920000D01*
X10950000Y-9880000D02*
X10910000Y-9920000D01*
X11095040Y-5217480D02*
X11135040Y-5257480D01*
X11135040Y-5217480D02*
X11095040Y-5257480D01*
X11110280Y-8700000D02*
X11150280Y-8740000D01*
X11150280Y-8700000D02*
X11110280Y-8740000D01*
X11156000Y-7000560D02*
X11196000Y-7040560D01*
X11196000Y-7000560D02*
X11156000Y-7040560D01*
X11198500Y-6195000D02*
X11238500Y-6235000D01*
X11238500Y-6195000D02*
X11198500Y-6235000D01*
X11198500Y-7895000D02*
X11238500Y-7935000D01*
X11238500Y-7895000D02*
X11198500Y-7935000D01*
X11198500Y-9595000D02*
X11238500Y-9635000D01*
X11238500Y-9595000D02*
X11198500Y-9635000D01*
X11200000Y-10600000D02*
X11240000Y-10640000D01*
X11240000Y-10600000D02*
X11200000Y-10640000D01*
X11340000Y-7560000D02*
X11380000Y-7600000D01*
X11380000Y-7560000D02*
X11340000Y-7600000D01*
X11340000Y-8760000D02*
X11380000Y-8800000D01*
X11380000Y-8760000D02*
X11340000Y-8800000D01*
X11390000Y-7060000D02*
X11430000Y-7100000D01*
X11430000Y-7060000D02*
X11390000Y-7100000D01*
X11470000Y-10550000D02*
X11510000Y-10590000D01*
X11510000Y-10550000D02*
X11470000Y-10590000D01*
X11740000Y-11340000D02*
X11780000Y-11380000D01*
X11780000Y-11340000D02*
X11740000Y-11380000D01*
X11820000Y-6620000D02*
X11860000Y-6660000D01*
X11860000Y-6620000D02*
X11820000Y-6660000D01*
X11830000Y-8410000D02*
X11870000Y-8450000D01*
X11870000Y-8410000D02*
X11830000Y-8450000D01*
X11843500Y-5815000D02*
X11883500Y-5855000D01*
X11883500Y-5815000D02*
X11843500Y-5855000D01*
X11843500Y-7515000D02*
X11883500Y-7555000D01*
X11883500Y-7515000D02*
X11843500Y-7555000D01*
X11843500Y-9215000D02*
X11883500Y-9255000D01*
X11883500Y-9215000D02*
X11843500Y-9255000D01*
X11890000Y-9522500D02*
X11930000Y-9562500D01*
X11930000Y-9522500D02*
X11890000Y-9562500D01*
X12130000Y-11050000D02*
X12170000Y-11090000D01*
X12170000Y-11050000D02*
X12130000Y-11090000D01*
X12156760Y-6523040D02*
X12196760Y-6563040D01*
X12196760Y-6523040D02*
X12156760Y-6563040D01*
X12480000Y-10460000D02*
X12520000Y-10500000D01*
X12520000Y-10460000D02*
X12480000Y-10500000D01*
X12700000Y-7740000D02*
X12740000Y-7780000D01*
X12740000Y-7740000D02*
X12700000Y-7780000D01*
X12888280Y-8067360D02*
X12928280Y-8107360D01*
X12928280Y-8067360D02*
X12888280Y-8107360D01*
X12918760Y-4612960D02*
X12958760Y-4652960D01*
X12958760Y-4612960D02*
X12918760Y-4652960D01*
X12928920Y-6345240D02*
X12968920Y-6385240D01*
X12968920Y-6345240D02*
X12928920Y-6385240D01*
X12998500Y-5595000D02*
X13038500Y-5635000D01*
X13038500Y-5595000D02*
X12998500Y-5635000D01*
X12998500Y-7295000D02*
X13038500Y-7335000D01*
X13038500Y-7295000D02*
X12998500Y-7335000D01*
X12998500Y-8995000D02*
X13038500Y-9035000D01*
X13038500Y-8995000D02*
X12998500Y-9035000D01*
X13130000Y-7060000D02*
X13170000Y-7100000D01*
X13170000Y-7060000D02*
X13130000Y-7100000D01*
X13150000Y-8500000D02*
X13190000Y-8540000D01*
X13190000Y-8500000D02*
X13150000Y-8540000D01*
X13643500Y-6477000D02*
X13683500Y-6517000D01*
X13683500Y-6477000D02*
X13643500Y-6517000D01*
X13643500Y-8177000D02*
X13683500Y-8217000D01*
X13683500Y-8177000D02*
X13643500Y-8217000D01*
X13643500Y-9877500D02*
X13683500Y-9917500D01*
X13683500Y-9877500D02*
X13643500Y-9917500D01*
X13833160Y-7254560D02*
X13873160Y-7294560D01*
X13873160Y-7254560D02*
X13833160Y-7294560D01*
X14110000Y-10620000D02*
X14150000Y-10660000D01*
X14150000Y-10620000D02*
X14110000Y-10660000D01*
X14400000Y-12200000D02*
X14440000Y-12240000D01*
X14440000Y-12200000D02*
X14400000Y-12240000D01*
X14510000Y-11740000D02*
X14550000Y-11780000D01*
X14550000Y-11740000D02*
X14510000Y-11780000D01*
X14552500Y-8676960D02*
X14592500Y-8716960D01*
X14592500Y-8676960D02*
X14552500Y-8716960D01*
X14701840Y-10079040D02*
X14741840Y-10119040D01*
X14741840Y-10079040D02*
X14701840Y-10119040D01*
X14716000Y-10414000D02*
X14756000Y-10454000D01*
X14756000Y-10414000D02*
X14716000Y-10454000D01*
X14783120Y-5324160D02*
X14823120Y-5364160D01*
X14823120Y-5324160D02*
X14783120Y-5364160D01*
X14798500Y-6257000D02*
X14838500Y-6297000D01*
X14838500Y-6257000D02*
X14798500Y-6297000D01*
X14798500Y-7957000D02*
X14838500Y-7997000D01*
X14838500Y-7957000D02*
X14798500Y-7997000D01*
X14798500Y-9657500D02*
X14838500Y-9697500D01*
X14838500Y-9657500D02*
X14798500Y-9697500D01*
X15170000Y-10630000D02*
X15210000Y-10670000D01*
X15210000Y-10630000D02*
X15170000Y-10670000D01*
X15225000Y-10700000D02*
X15265000Y-10740000D01*
X15265000Y-10700000D02*
X15225000Y-10740000D01*
X15443500Y-6715000D02*
X15483500Y-6755000D01*
X15483500Y-6715000D02*
X15443500Y-6755000D01*
X15443500Y-8415000D02*
X15483500Y-8455000D01*
X15483500Y-8415000D02*
X15443500Y-8455000D01*
X15443500Y-10115000D02*
X15483500Y-10155000D01*
X15483500Y-10115000D02*
X15443500Y-10155000D01*
X15580000Y-10630000D02*
X15620000Y-10670000D01*
X15620000Y-10630000D02*
X15580000Y-10670000D01*
X15665000Y-10700000D02*
X15705000Y-10740000D01*
X15705000Y-10700000D02*
X15665000Y-10740000D01*
X16060000Y-10920000D02*
X16100000Y-10960000D01*
X16100000Y-10920000D02*
X16060000Y-10960000D01*
X16280000Y-10502500D02*
X16320000Y-10542500D01*
X16320000Y-10502500D02*
X16280000Y-10542500D01*
X16325968Y-11489566D02*
X16365968Y-11529566D01*
X16365968Y-11489566D02*
X16325968Y-11529566D01*
X16360000Y-8420000D02*
X16400000Y-8460000D01*
X16400000Y-8420000D02*
X16360000Y-8460000D01*
X16410000Y-10269000D02*
X16450000Y-10309000D01*
X16450000Y-10269000D02*
X16410000Y-10309000D01*
X16430000Y-8670000D02*
X16470000Y-8710000D01*
X16470000Y-8670000D02*
X16430000Y-8710000D01*
X16480000Y-8470500D02*
X16520000Y-8510500D01*
X16520000Y-8470500D02*
X16480000Y-8510500D01*
X16571280Y-8920800D02*
X16611280Y-8960800D01*
X16611280Y-8920800D02*
X16571280Y-8960800D01*
X16591600Y-5532440D02*
X16631600Y-5572440D01*
X16631600Y-5532440D02*
X16591600Y-5572440D01*
X16591600Y-7366320D02*
X16631600Y-7406320D01*
X16631600Y-7366320D02*
X16591600Y-7406320D01*
X16598500Y-6495000D02*
X16638500Y-6535000D01*
X16638500Y-6495000D02*
X16598500Y-6535000D01*
X16598500Y-8195000D02*
X16638500Y-8235000D01*
X16638500Y-8195000D02*
X16598500Y-8235000D01*
X16598500Y-9895000D02*
X16638500Y-9935000D01*
X16638500Y-9895000D02*
X16598500Y-9935000D01*
X16620000Y-10230000D02*
X16660000Y-10270000D01*
X16660000Y-10230000D02*
X16620000Y-10270000D01*
X16660950Y-5757400D02*
X16700950Y-5797400D01*
X16700950Y-5757400D02*
X16660950Y-5797400D01*
X16661000Y-7820000D02*
X16701000Y-7860000D01*
X16701000Y-7820000D02*
X16661000Y-7860000D01*
X16703360Y-7030000D02*
X16743360Y-7070000D01*
X16743360Y-7030000D02*
X16703360Y-7070000D01*
X16765000Y-9420000D02*
X16805000Y-9460000D01*
X16805000Y-9420000D02*
X16765000Y-9460000D01*
X16830000Y-9325000D02*
X16870000Y-9365000D01*
X16870000Y-9325000D02*
X16830000Y-9365000D01*
X16920000Y-10290000D02*
X16960000Y-10330000D01*
X16960000Y-10290000D02*
X16920000Y-10330000D01*
X17000000Y-9563900D02*
X17040000Y-9603900D01*
X17040000Y-9563900D02*
X17000000Y-9603900D01*
X17010000Y-9133900D02*
X17050000Y-9173900D01*
X17050000Y-9133900D02*
X17010000Y-9173900D01*
X17090000Y-10023900D02*
X17130000Y-10063900D01*
X17130000Y-10023900D02*
X17090000Y-10063900D01*
X17116156Y-9307744D02*
X17156156Y-9347744D01*
X17156156Y-9307744D02*
X17116156Y-9347744D01*
X17150000Y-10613900D02*
X17190000Y-10653900D01*
X17190000Y-10613900D02*
X17150000Y-10653900D01*
X17160000Y-10848900D02*
X17200000Y-10888900D01*
X17200000Y-10848900D02*
X17160000Y-10888900D01*
X17200000Y-9503900D02*
X17240000Y-9543900D01*
X17240000Y-9503900D02*
X17200000Y-9543900D01*
X17210000Y-11330000D02*
X17250000Y-11370000D01*
X17250000Y-11330000D02*
X17210000Y-11370000D01*
X17265000Y-6375000D02*
X17305000Y-6415000D01*
X17305000Y-6375000D02*
X17265000Y-6415000D01*
X17270000Y-9783900D02*
X17310000Y-9823900D01*
X17310000Y-9783900D02*
X17270000Y-9823900D01*
X17280000Y-9873900D02*
X17320000Y-9913900D01*
X17320000Y-9873900D02*
X17280000Y-9913900D01*
X17297500Y-8215806D02*
X17337500Y-8255806D01*
X17337500Y-8215806D02*
X17297500Y-8255806D01*
X17315500Y-8591659D02*
X17355500Y-8631659D01*
X17355500Y-8591659D02*
X17315500Y-8631659D01*
X17350000Y-10613900D02*
X17390000Y-10653900D01*
X17390000Y-10613900D02*
X17350000Y-10653900D01*
X17350000Y-10848900D02*
X17390000Y-10888900D01*
X17390000Y-10848900D02*
X17350000Y-10888900D01*
X17375000Y-8425000D02*
X17415000Y-8465000D01*
X17415000Y-8425000D02*
X17375000Y-8465000D01*
X17405000Y-5403750D02*
X17445000Y-5443750D01*
X17445000Y-5403750D02*
X17405000Y-5443750D01*
X17405000Y-5613750D02*
X17445000Y-5653750D01*
X17445000Y-5613750D02*
X17405000Y-5653750D01*
X17450000Y-8585000D02*
X17490000Y-8625000D01*
X17490000Y-8585000D02*
X17450000Y-8625000D01*
X17560000Y-5710000D02*
X17600000Y-5750000D01*
X17600000Y-5710000D02*
X17560000Y-5750000D01*
X17605000Y-8420000D02*
X17645000Y-8460000D01*
X17645000Y-8420000D02*
X17605000Y-8460000D01*
X17610000Y-6520000D02*
X17650000Y-6560000D01*
X17650000Y-6520000D02*
X17610000Y-6560000D01*
X17620000Y-11000000D02*
X17660000Y-11040000D01*
X17660000Y-11000000D02*
X17620000Y-11040000D01*
X17624000Y-7782500D02*
X17664000Y-7822500D01*
X17664000Y-7782500D02*
X17624000Y-7822500D01*
X17636570Y-8162803D02*
X17676570Y-8202803D01*
X17676570Y-8162803D02*
X17636570Y-8202803D01*
X17647056Y-7925444D02*
X17687056Y-7965444D01*
X17687056Y-7925444D02*
X17647056Y-7965444D01*
X17648469Y-8083693D02*
X17688469Y-8123693D01*
X17688469Y-8083693D02*
X17648469Y-8123693D01*
X17667425Y-8642575D02*
X17707425Y-8682575D01*
X17707425Y-8642575D02*
X17667425Y-8682575D01*
X17670000Y-6883040D02*
X17710000Y-6923040D01*
X17710000Y-6883040D02*
X17670000Y-6923040D01*
X17680000Y-7137040D02*
X17720000Y-7177040D01*
X17720000Y-7137040D02*
X17680000Y-7177040D01*
X17685000Y-7391040D02*
X17725000Y-7431040D01*
X17725000Y-7391040D02*
X17685000Y-7431040D01*
X17685000Y-7645040D02*
X17725000Y-7685040D01*
X17725000Y-7645040D02*
X17685000Y-7685040D01*
X17700000Y-8022500D02*
X17740000Y-8062500D01*
X17740000Y-8022500D02*
X17700000Y-8062500D01*
X17715000Y-5708750D02*
X17755000Y-5748750D01*
X17755000Y-5708750D02*
X17715000Y-5748750D01*
X17774194Y-7860000D02*
X17814194Y-7900000D01*
X17814194Y-7860000D02*
X17774194Y-7900000D01*
X17810000Y-8022500D02*
X17850000Y-8062500D01*
X17850000Y-8022500D02*
X17810000Y-8062500D01*
X17822500Y-6945490D02*
X17862500Y-6985490D01*
X17862500Y-6945490D02*
X17822500Y-6985490D01*
X17840000Y-7470000D02*
X17880000Y-7510000D01*
X17880000Y-7470000D02*
X17840000Y-7510000D01*
X17840000Y-7632540D02*
X17880000Y-7672540D01*
X17880000Y-7632540D02*
X17840000Y-7672540D01*
X17845152Y-7199490D02*
X17885152Y-7239490D01*
X17885152Y-7199490D02*
X17845152Y-7239490D01*
X17855000Y-8570000D02*
X17895000Y-8610000D01*
X17895000Y-8570000D02*
X17855000Y-8610000D01*
X17917500Y-8512500D02*
X17957500Y-8552500D01*
X17957500Y-8512500D02*
X17917500Y-8552500D01*
X17930000Y-8260000D02*
X17970000Y-8300000D01*
X17970000Y-8260000D02*
X17930000Y-8300000D01*
X18100000Y-8430000D02*
X18140000Y-8470000D01*
X18140000Y-8430000D02*
X18100000Y-8470000D01*
X18130000Y-9603900D02*
X18170000Y-9643900D01*
X18170000Y-9603900D02*
X18130000Y-9643900D01*
X18170000Y-9673900D02*
X18210000Y-9713900D01*
X18210000Y-9673900D02*
X18170000Y-9713900D01*
X18175000Y-5403750D02*
X18215000Y-5443750D01*
X18215000Y-5403750D02*
X18175000Y-5443750D01*
X18175000Y-5613750D02*
X18215000Y-5653750D01*
X18215000Y-5613750D02*
X18175000Y-5653750D01*
X18232500Y-8370000D02*
X18272500Y-8410000D01*
X18272500Y-8370000D02*
X18232500Y-8410000D01*
X18290000Y-9443900D02*
X18330000Y-9483900D01*
X18330000Y-9443900D02*
X18290000Y-9483900D01*
X18310000Y-8530000D02*
X18350000Y-8570000D01*
X18350000Y-8530000D02*
X18310000Y-8570000D01*
X18310499Y-5780499D02*
X18350499Y-5820499D01*
X18350499Y-5780499D02*
X18310499Y-5820499D01*
X18330000Y-9513900D02*
X18370000Y-9553900D01*
X18370000Y-9513900D02*
X18330000Y-9553900D01*
X18357973Y-12076220D02*
X18397973Y-12116220D01*
X18397973Y-12076220D02*
X18357973Y-12116220D01*
X18550000Y-9158900D02*
X18590000Y-9198900D01*
X18590000Y-9158900D02*
X18550000Y-9198900D01*
X18550000Y-11170000D02*
X18590000Y-11210000D01*
X18590000Y-11170000D02*
X18550000Y-11210000D01*
X18600000Y-9013900D02*
X18640000Y-9053900D01*
X18640000Y-9013900D02*
X18600000Y-9053900D01*
X19280000Y-12100000D02*
X19320000Y-12140000D01*
X19320000Y-12100000D02*
X19280000Y-12140000D01*
X20303338Y-13028990D02*
X20343338Y-13068990D01*
X20343338Y-13028990D02*
X20303338Y-13068990D01*
X20820000Y-12940000D02*
X20860000Y-12980000D01*
X20860000Y-12940000D02*
X20820000Y-12980000D01*
X8249920Y-8122920D02*
G75*
G02*
X8168640Y-8122920I-40640J0D01*
G01*
X8168640Y-8122920D02*
G75*
G02*
X8249920Y-8122920I40640J0D01*
G01*
X8249920Y-9824720D02*
G75*
G02*
X8168640Y-9824720I-40640J0D01*
G01*
X8168640Y-9824720D02*
G75*
G02*
X8249920Y-9824720I40640J0D01*
G01*
X8260080Y-6431280D02*
G75*
G02*
X8178800Y-6431280I-40640J0D01*
G01*
X8178800Y-6431280D02*
G75*
G02*
X8260080Y-6431280I40640J0D01*
G01*
X9011920Y-8122920D02*
G75*
G02*
X8930640Y-8122920I-40640J0D01*
G01*
X8930640Y-8122920D02*
G75*
G02*
X9011920Y-8122920I40640J0D01*
G01*
X9011920Y-9824720D02*
G75*
G02*
X8930640Y-9824720I-40640J0D01*
G01*
X8930640Y-9824720D02*
G75*
G02*
X9011920Y-9824720I40640J0D01*
G01*
X9022080Y-6431280D02*
G75*
G02*
X8940800Y-6431280I-40640J0D01*
G01*
X8940800Y-6431280D02*
G75*
G02*
X9022080Y-6431280I40640J0D01*
G01*
X10046640Y-10329000D02*
G75*
G02*
X9965360Y-10329000I-40640J0D01*
G01*
X9965360Y-10329000D02*
G75*
G02*
X10046640Y-10329000I40640J0D01*
G01*
X10048240Y-6934200D02*
G75*
G02*
X9966960Y-6934200I-40640J0D01*
G01*
X9966960Y-6934200D02*
G75*
G02*
X10048240Y-6934200I40640J0D01*
G01*
X10058400Y-8630920D02*
G75*
G02*
X9977120Y-8630920I-40640J0D01*
G01*
X9977120Y-8630920D02*
G75*
G02*
X10058400Y-8630920I40640J0D01*
G01*
X10068560Y-5227320D02*
G75*
G02*
X9987280Y-5227320I-40640J0D01*
G01*
X9987280Y-5227320D02*
G75*
G02*
X10068560Y-5227320I40640J0D01*
G01*
X10808640Y-10329000D02*
G75*
G02*
X10727360Y-10329000I-40640J0D01*
G01*
X10727360Y-10329000D02*
G75*
G02*
X10808640Y-10329000I40640J0D01*
G01*
X10810240Y-6934200D02*
G75*
G02*
X10728960Y-6934200I-40640J0D01*
G01*
X10728960Y-6934200D02*
G75*
G02*
X10810240Y-6934200I40640J0D01*
G01*
X10820400Y-8630920D02*
G75*
G02*
X10739120Y-8630920I-40640J0D01*
G01*
X10739120Y-8630920D02*
G75*
G02*
X10820400Y-8630920I40640J0D01*
G01*
X10830560Y-5227320D02*
G75*
G02*
X10749280Y-5227320I-40640J0D01*
G01*
X10749280Y-5227320D02*
G75*
G02*
X10830560Y-5227320I40640J0D01*
G01*
X11856720Y-6334760D02*
G75*
G02*
X11775440Y-6334760I-40640J0D01*
G01*
X11775440Y-6334760D02*
G75*
G02*
X11856720Y-6334760I40640J0D01*
G01*
X11856720Y-8031480D02*
G75*
G02*
X11775440Y-8031480I-40640J0D01*
G01*
X11775440Y-8031480D02*
G75*
G02*
X11856720Y-8031480I40640J0D01*
G01*
X11866880Y-4622800D02*
G75*
G02*
X11785600Y-4622800I-40640J0D01*
G01*
X11785600Y-4622800D02*
G75*
G02*
X11866880Y-4622800I40640J0D01*
G01*
X12618720Y-6334760D02*
G75*
G02*
X12537440Y-6334760I-40640J0D01*
G01*
X12537440Y-6334760D02*
G75*
G02*
X12618720Y-6334760I40640J0D01*
G01*
X12618720Y-8031480D02*
G75*
G02*
X12537440Y-8031480I-40640J0D01*
G01*
X12537440Y-8031480D02*
G75*
G02*
X12618720Y-8031480I40640J0D01*
G01*
X12628880Y-4622800D02*
G75*
G02*
X12547600Y-4622800I-40640J0D01*
G01*
X12547600Y-4622800D02*
G75*
G02*
X12628880Y-4622800I40640J0D01*
G01*
X13655040Y-6990080D02*
G75*
G02*
X13573760Y-6990080I-40640J0D01*
G01*
X13573760Y-6990080D02*
G75*
G02*
X13655040Y-6990080I40640J0D01*
G01*
X13660120Y-5328920D02*
G75*
G02*
X13578840Y-5328920I-40640J0D01*
G01*
X13578840Y-5328920D02*
G75*
G02*
X13660120Y-5328920I40640J0D01*
G01*
X13665200Y-8696960D02*
G75*
G02*
X13583920Y-8696960I-40640J0D01*
G01*
X13583920Y-8696960D02*
G75*
G02*
X13665200Y-8696960I40640J0D01*
G01*
X14417040Y-6990080D02*
G75*
G02*
X14335760Y-6990080I-40640J0D01*
G01*
X14335760Y-6990080D02*
G75*
G02*
X14417040Y-6990080I40640J0D01*
G01*
X14422120Y-5328920D02*
G75*
G02*
X14340840Y-5328920I-40640J0D01*
G01*
X14340840Y-5328920D02*
G75*
G02*
X14422120Y-5328920I40640J0D01*
G01*
X14427200Y-8696960D02*
G75*
G02*
X14345920Y-8696960I-40640J0D01*
G01*
X14345920Y-8696960D02*
G75*
G02*
X14427200Y-8696960I40640J0D01*
G01*
X15458440Y-5542280D02*
G75*
G02*
X15377160Y-5542280I-40640J0D01*
G01*
X15377160Y-5542280D02*
G75*
G02*
X15458440Y-5542280I40640J0D01*
G01*
X15468600Y-8935720D02*
G75*
G02*
X15387320Y-8935720I-40640J0D01*
G01*
X15387320Y-8935720D02*
G75*
G02*
X15468600Y-8935720I40640J0D01*
G01*
X15478630Y-12574073D02*
G75*
G02*
X15397350Y-12574073I-40640J0D01*
G01*
X15397350Y-12574073D02*
G75*
G02*
X15478630Y-12574073I40640J0D01*
G01*
X15488920Y-7249160D02*
G75*
G02*
X15407640Y-7249160I-40640J0D01*
G01*
X15407640Y-7249160D02*
G75*
G02*
X15488920Y-7249160I40640J0D01*
G01*
X16220440Y-5542280D02*
G75*
G02*
X16139160Y-5542280I-40640J0D01*
G01*
X16139160Y-5542280D02*
G75*
G02*
X16220440Y-5542280I40640J0D01*
G01*
X16229511Y-12703773D02*
G75*
G02*
X16148231Y-12703773I-40640J0D01*
G01*
X16148231Y-12703773D02*
G75*
G02*
X16229511Y-12703773I40640J0D01*
G01*
X16230600Y-8935720D02*
G75*
G02*
X16149320Y-8935720I-40640J0D01*
G01*
X16149320Y-8935720D02*
G75*
G02*
X16230600Y-8935720I40640J0D01*
G01*
X16250920Y-7249160D02*
G75*
G02*
X16169640Y-7249160I-40640J0D01*
G01*
X16169640Y-7249160D02*
G75*
G02*
X16250920Y-7249160I40640J0D01*
G01*
X17002640Y-5887040D02*
G75*
G02*
X16921360Y-5887040I-40640J0D01*
G01*
X16921360Y-5887040D02*
G75*
G02*
X17002640Y-5887040I40640J0D01*
G01*
X17002640Y-6141040D02*
G75*
G02*
X16921360Y-6141040I-40640J0D01*
G01*
X16921360Y-6141040D02*
G75*
G02*
X17002640Y-6141040I40640J0D01*
G01*
X17002640Y-6395040D02*
G75*
G02*
X16921360Y-6395040I-40640J0D01*
G01*
X16921360Y-6395040D02*
G75*
G02*
X17002640Y-6395040I40640J0D01*
G01*
X17002640Y-6649040D02*
G75*
G02*
X16921360Y-6649040I-40640J0D01*
G01*
X16921360Y-6649040D02*
G75*
G02*
X17002640Y-6649040I40640J0D01*
G01*
X17002640Y-6903040D02*
G75*
G02*
X16921360Y-6903040I-40640J0D01*
G01*
X16921360Y-6903040D02*
G75*
G02*
X17002640Y-6903040I40640J0D01*
G01*
X17002640Y-7157040D02*
G75*
G02*
X16921360Y-7157040I-40640J0D01*
G01*
X16921360Y-7157040D02*
G75*
G02*
X17002640Y-7157040I40640J0D01*
G01*
X17002640Y-7411040D02*
G75*
G02*
X16921360Y-7411040I-40640J0D01*
G01*
X16921360Y-7411040D02*
G75*
G02*
X17002640Y-7411040I40640J0D01*
G01*
X17002640Y-7665040D02*
G75*
G02*
X16921360Y-7665040I-40640J0D01*
G01*
X16921360Y-7665040D02*
G75*
G02*
X17002640Y-7665040I40640J0D01*
G01*
X17002640Y-7919040D02*
G75*
G02*
X16921360Y-7919040I-40640J0D01*
G01*
X16921360Y-7919040D02*
G75*
G02*
X17002640Y-7919040I40640J0D01*
G01*
X17002640Y-8173040D02*
G75*
G02*
X16921360Y-8173040I-40640J0D01*
G01*
X16921360Y-8173040D02*
G75*
G02*
X17002640Y-8173040I40640J0D01*
G01*
X17002640Y-8427040D02*
G75*
G02*
X16921360Y-8427040I-40640J0D01*
G01*
X16921360Y-8427040D02*
G75*
G02*
X17002640Y-8427040I40640J0D01*
G01*
X17002640Y-8681040D02*
G75*
G02*
X16921360Y-8681040I-40640J0D01*
G01*
X16921360Y-8681040D02*
G75*
G02*
X17002640Y-8681040I40640J0D01*
G01*
X17135280Y-5760040D02*
G75*
G02*
X17054000Y-5760040I-40640J0D01*
G01*
X17054000Y-5760040D02*
G75*
G02*
X17135280Y-5760040I40640J0D01*
G01*
X17135280Y-6014040D02*
G75*
G02*
X17054000Y-6014040I-40640J0D01*
G01*
X17054000Y-6014040D02*
G75*
G02*
X17135280Y-6014040I40640J0D01*
G01*
X17135280Y-6268040D02*
G75*
G02*
X17054000Y-6268040I-40640J0D01*
G01*
X17054000Y-6268040D02*
G75*
G02*
X17135280Y-6268040I40640J0D01*
G01*
X17135280Y-6522040D02*
G75*
G02*
X17054000Y-6522040I-40640J0D01*
G01*
X17054000Y-6522040D02*
G75*
G02*
X17135280Y-6522040I40640J0D01*
G01*
X17135280Y-6776040D02*
G75*
G02*
X17054000Y-6776040I-40640J0D01*
G01*
X17054000Y-6776040D02*
G75*
G02*
X17135280Y-6776040I40640J0D01*
G01*
X17135280Y-7030040D02*
G75*
G02*
X17054000Y-7030040I-40640J0D01*
G01*
X17054000Y-7030040D02*
G75*
G02*
X17135280Y-7030040I40640J0D01*
G01*
X17135280Y-7284040D02*
G75*
G02*
X17054000Y-7284040I-40640J0D01*
G01*
X17054000Y-7284040D02*
G75*
G02*
X17135280Y-7284040I40640J0D01*
G01*
X17135280Y-7538040D02*
G75*
G02*
X17054000Y-7538040I-40640J0D01*
G01*
X17054000Y-7538040D02*
G75*
G02*
X17135280Y-7538040I40640J0D01*
G01*
X17135280Y-7792040D02*
G75*
G02*
X17054000Y-7792040I-40640J0D01*
G01*
X17054000Y-7792040D02*
G75*
G02*
X17135280Y-7792040I40640J0D01*
G01*
X17135280Y-8046040D02*
G75*
G02*
X17054000Y-8046040I-40640J0D01*
G01*
X17054000Y-8046040D02*
G75*
G02*
X17135280Y-8046040I40640J0D01*
G01*
X17135280Y-8300040D02*
G75*
G02*
X17054000Y-8300040I-40640J0D01*
G01*
X17054000Y-8300040D02*
G75*
G02*
X17135280Y-8300040I40640J0D01*
G01*
X17135280Y-8554040D02*
G75*
G02*
X17054000Y-8554040I-40640J0D01*
G01*
X17054000Y-8554040D02*
G75*
G02*
X17135280Y-8554040I40640J0D01*
G01*
X17306640Y-9234740D02*
G75*
G02*
X17225360Y-9234740I-40640J0D01*
G01*
X17225360Y-9234740D02*
G75*
G02*
X17306640Y-9234740I40640J0D01*
G01*
X17353472Y-12996569D02*
G75*
G02*
X17272192Y-12996569I-40640J0D01*
G01*
X17272192Y-12996569D02*
G75*
G02*
X17353472Y-12996569I40640J0D01*
G01*
X17560640Y-9234740D02*
G75*
G02*
X17479360Y-9234740I-40640J0D01*
G01*
X17479360Y-9234740D02*
G75*
G02*
X17560640Y-9234740I40640J0D01*
G01*
X17814640Y-9234740D02*
G75*
G02*
X17733360Y-9234740I-40640J0D01*
G01*
X17733360Y-9234740D02*
G75*
G02*
X17814640Y-9234740I40640J0D01*
G01*
X18068640Y-9234740D02*
G75*
G02*
X17987360Y-9234740I-40640J0D01*
G01*
X17987360Y-9234740D02*
G75*
G02*
X18068640Y-9234740I40640J0D01*
G01*
X18072208Y-13249676D02*
G75*
G02*
X17990928Y-13249676I-40640J0D01*
G01*
X17990928Y-13249676D02*
G75*
G02*
X18072208Y-13249676I40640J0D01*
G01*
X18322640Y-9234740D02*
G75*
G02*
X18241360Y-9234740I-40640J0D01*
G01*
X18241360Y-9234740D02*
G75*
G02*
X18322640Y-9234740I40640J0D01*
G01*
X18526640Y-5887040D02*
G75*
G02*
X18445360Y-5887040I-40640J0D01*
G01*
X18445360Y-5887040D02*
G75*
G02*
X18526640Y-5887040I40640J0D01*
G01*
X18526640Y-6141040D02*
G75*
G02*
X18445360Y-6141040I-40640J0D01*
G01*
X18445360Y-6141040D02*
G75*
G02*
X18526640Y-6141040I40640J0D01*
G01*
X18526640Y-6395040D02*
G75*
G02*
X18445360Y-6395040I-40640J0D01*
G01*
X18445360Y-6395040D02*
G75*
G02*
X18526640Y-6395040I40640J0D01*
G01*
X18526640Y-6649040D02*
G75*
G02*
X18445360Y-6649040I-40640J0D01*
G01*
X18445360Y-6649040D02*
G75*
G02*
X18526640Y-6649040I40640J0D01*
G01*
X18526640Y-6903040D02*
G75*
G02*
X18445360Y-6903040I-40640J0D01*
G01*
X18445360Y-6903040D02*
G75*
G02*
X18526640Y-6903040I40640J0D01*
G01*
X18526640Y-7157040D02*
G75*
G02*
X18445360Y-7157040I-40640J0D01*
G01*
X18445360Y-7157040D02*
G75*
G02*
X18526640Y-7157040I40640J0D01*
G01*
X18526640Y-7411040D02*
G75*
G02*
X18445360Y-7411040I-40640J0D01*
G01*
X18445360Y-7411040D02*
G75*
G02*
X18526640Y-7411040I40640J0D01*
G01*
X18526640Y-7665040D02*
G75*
G02*
X18445360Y-7665040I-40640J0D01*
G01*
X18445360Y-7665040D02*
G75*
G02*
X18526640Y-7665040I40640J0D01*
G01*
X18526640Y-7919040D02*
G75*
G02*
X18445360Y-7919040I-40640J0D01*
G01*
X18445360Y-7919040D02*
G75*
G02*
X18526640Y-7919040I40640J0D01*
G01*
X18526640Y-8173040D02*
G75*
G02*
X18445360Y-8173040I-40640J0D01*
G01*
X18445360Y-8173040D02*
G75*
G02*
X18526640Y-8173040I40640J0D01*
G01*
X18526640Y-8427040D02*
G75*
G02*
X18445360Y-8427040I-40640J0D01*
G01*
X18445360Y-8427040D02*
G75*
G02*
X18526640Y-8427040I40640J0D01*
G01*
X18526640Y-8681040D02*
G75*
G02*
X18445360Y-8681040I-40640J0D01*
G01*
X18445360Y-8681040D02*
G75*
G02*
X18526640Y-8681040I40640J0D01*
G01*
X18657280Y-5760040D02*
G75*
G02*
X18576000Y-5760040I-40640J0D01*
G01*
X18576000Y-5760040D02*
G75*
G02*
X18657280Y-5760040I40640J0D01*
G01*
X18657280Y-6014040D02*
G75*
G02*
X18576000Y-6014040I-40640J0D01*
G01*
X18576000Y-6014040D02*
G75*
G02*
X18657280Y-6014040I40640J0D01*
G01*
X18657280Y-6268040D02*
G75*
G02*
X18576000Y-6268040I-40640J0D01*
G01*
X18576000Y-6268040D02*
G75*
G02*
X18657280Y-6268040I40640J0D01*
G01*
X18657280Y-6522040D02*
G75*
G02*
X18576000Y-6522040I-40640J0D01*
G01*
X18576000Y-6522040D02*
G75*
G02*
X18657280Y-6522040I40640J0D01*
G01*
X18657280Y-6776040D02*
G75*
G02*
X18576000Y-6776040I-40640J0D01*
G01*
X18576000Y-6776040D02*
G75*
G02*
X18657280Y-6776040I40640J0D01*
G01*
X18657280Y-7030040D02*
G75*
G02*
X18576000Y-7030040I-40640J0D01*
G01*
X18576000Y-7030040D02*
G75*
G02*
X18657280Y-7030040I40640J0D01*
G01*
X18657280Y-7284040D02*
G75*
G02*
X18576000Y-7284040I-40640J0D01*
G01*
X18576000Y-7284040D02*
G75*
G02*
X18657280Y-7284040I40640J0D01*
G01*
X18657280Y-7538040D02*
G75*
G02*
X18576000Y-7538040I-40640J0D01*
G01*
X18576000Y-7538040D02*
G75*
G02*
X18657280Y-7538040I40640J0D01*
G01*
X18657280Y-7792040D02*
G75*
G02*
X18576000Y-7792040I-40640J0D01*
G01*
X18576000Y-7792040D02*
G75*
G02*
X18657280Y-7792040I40640J0D01*
G01*
X18657280Y-8046040D02*
G75*
G02*
X18576000Y-8046040I-40640J0D01*
G01*
X18576000Y-8046040D02*
G75*
G02*
X18657280Y-8046040I40640J0D01*
G01*
X18657280Y-8300040D02*
G75*
G02*
X18576000Y-8300040I-40640J0D01*
G01*
X18576000Y-8300040D02*
G75*
G02*
X18657280Y-8300040I40640J0D01*
G01*
X18657280Y-8554040D02*
G75*
G02*
X18576000Y-8554040I-40640J0D01*
G01*
X18576000Y-8554040D02*
G75*
G02*
X18657280Y-8554040I40640J0D01*
G01*
X19154599Y-13761057D02*
G75*
G02*
X19073319Y-13761057I-40640J0D01*
G01*
X19073319Y-13761057D02*
G75*
G02*
X19154599Y-13761057I40640J0D01*
G01*
X19821059Y-14130482D02*
G75*
G02*
X19739779Y-14130482I-40640J0D01*
G01*
X19739779Y-14130482D02*
G75*
G02*
X19821059Y-14130482I40640J0D01*
G01*
X12471559Y-11414888D02*
X12471559Y-11514888D01*
X12421559Y-11464888D02*
X12521559Y-11464888D01*
X12536263Y-11173407D02*
X12536263Y-11273407D01*
X12486263Y-11223407D02*
X12586263Y-11223407D01*
X12600968Y-10931925D02*
X12600968Y-11031925D01*
X12550968Y-10981925D02*
X12650968Y-10981925D01*
X13872151Y-11790176D02*
X13872151Y-11890176D01*
X13822151Y-11840176D02*
X13922151Y-11840176D01*
X14001560Y-11307213D02*
X14001560Y-11407213D01*
X13951560Y-11357213D02*
X14051560Y-11357213D01*
X17438500Y-9465150D02*
X17438500Y-9565150D01*
X17388500Y-9515150D02*
X17488500Y-9515150D01*
X17616000Y-10085000D02*
X17616000Y-10185000D01*
X17566000Y-10135000D02*
X17666000Y-10135000D01*
X17641000Y-10085000D02*
X17591000Y-10085000D01*
X17591000Y-10185000D02*
G75*
G02*
X17591000Y-10085000I0J50000D01*
G01*
X17591000Y-10185000D02*
X17641000Y-10185000D01*
X17641000Y-10185000D02*
G75*
G03*
X17641000Y-10085000I0J50000D01*
G01*
X17616000Y-10330000D02*
X17616000Y-10430000D01*
X17566000Y-10380000D02*
X17666000Y-10380000D01*
X17641000Y-10330000D02*
X17591000Y-10330000D01*
X17591000Y-10430000D02*
G75*
G02*
X17591000Y-10330000I0J50000D01*
G01*
X17591000Y-10430000D02*
X17641000Y-10430000D01*
X17641000Y-10430000D02*
G75*
G03*
X17641000Y-10330000I0J50000D01*
G01*
X17692500Y-9465150D02*
X17692500Y-9565150D01*
X17642500Y-9515150D02*
X17742500Y-9515150D01*
X17766000Y-9910000D02*
X17766000Y-10010000D01*
X17716000Y-9960000D02*
X17816000Y-9960000D01*
X17791000Y-9910000D02*
X17741000Y-9910000D01*
X17741000Y-10010000D02*
G75*
G02*
X17741000Y-9910000I0J50000D01*
G01*
X17741000Y-10010000D02*
X17791000Y-10010000D01*
X17791000Y-10010000D02*
G75*
G03*
X17791000Y-9910000I0J50000D01*
G01*
X17766000Y-10505000D02*
X17766000Y-10605000D01*
X17716000Y-10555000D02*
X17816000Y-10555000D01*
X17791000Y-10505000D02*
X17741000Y-10505000D01*
X17741000Y-10605000D02*
G75*
G02*
X17741000Y-10505000I0J50000D01*
G01*
X17741000Y-10605000D02*
X17791000Y-10605000D01*
X17791000Y-10605000D02*
G75*
G03*
X17791000Y-10505000I0J50000D01*
G01*
X18166000Y-9910000D02*
X18166000Y-10010000D01*
X18116000Y-9960000D02*
X18216000Y-9960000D01*
X18191000Y-9910000D02*
X18141000Y-9910000D01*
X18141000Y-10010000D02*
G75*
G02*
X18141000Y-9910000I0J50000D01*
G01*
X18141000Y-10010000D02*
X18191000Y-10010000D01*
X18191000Y-10010000D02*
G75*
G03*
X18191000Y-9910000I0J50000D01*
G01*
X18166000Y-10505000D02*
X18166000Y-10605000D01*
X18116000Y-10555000D02*
X18216000Y-10555000D01*
X18191000Y-10505000D02*
X18141000Y-10505000D01*
X18141000Y-10605000D02*
G75*
G02*
X18141000Y-10505000I0J50000D01*
G01*
X18141000Y-10605000D02*
X18191000Y-10605000D01*
X18191000Y-10605000D02*
G75*
G03*
X18191000Y-10505000I0J50000D01*
G01*
X18466000Y-9910000D02*
X18466000Y-10010000D01*
X18416000Y-9960000D02*
X18516000Y-9960000D01*
X18491000Y-9910000D02*
X18441000Y-9910000D01*
X18441000Y-10010000D02*
G75*
G02*
X18441000Y-9910000I0J50000D01*
G01*
X18441000Y-10010000D02*
X18491000Y-10010000D01*
X18491000Y-10010000D02*
G75*
G03*
X18491000Y-9910000I0J50000D01*
G01*
X18466000Y-10505000D02*
X18466000Y-10605000D01*
X18416000Y-10555000D02*
X18516000Y-10555000D01*
X18491000Y-10505000D02*
X18441000Y-10505000D01*
X18441000Y-10605000D02*
G75*
G02*
X18441000Y-10505000I0J50000D01*
G01*
X18441000Y-10605000D02*
X18491000Y-10605000D01*
X18491000Y-10605000D02*
G75*
G03*
X18491000Y-10505000I0J50000D01*
G01*
D13*
X17996262Y-9605162D02*
X17996262Y-9513238D01*
X17904338Y-9513238D01*
X17904338Y-9605162D01*
X17996262Y-9605162D01*
X18646262Y-9605162D02*
X18646262Y-9513238D01*
X18554338Y-9513238D01*
X18554338Y-9605162D01*
X18646262Y-9605162D01*
D11*
X13115769Y-12058440D02*
X13215769Y-11958440D01*
X13115769Y-11858440D01*
X13015769Y-11958440D01*
X13115769Y-12058440D01*
D12*
X13065739Y-12048562D02*
X13114035Y-12061503D01*
X13165799Y-11868317D02*
G75*
G02*
X13114035Y-12061503I-25882J-96593D01*
G01*
X13165799Y-11868317D02*
X13117503Y-11855376D01*
X13117503Y-11855376D02*
G75*
G03*
X13065739Y-12048562I-25882J-96593D01*
G01*
D11*
X13405646Y-10976603D02*
X13505646Y-10876603D01*
X13405646Y-10776603D01*
X13305646Y-10876603D01*
X13405646Y-10976603D01*
D12*
X13355616Y-10966725D02*
X13403912Y-10979666D01*
X13455676Y-10786481D02*
G75*
G02*
X13403912Y-10979666I-25882J-96593D01*
G01*
X13455676Y-10786481D02*
X13407380Y-10773540D01*
X13407380Y-10773540D02*
G75*
G03*
X13355616Y-10966725I-25882J-96593D01*
G01*
D14*
X9382500Y-6580000D02*
X9602500Y-6800000D01*
X9602500Y-6580000D02*
X9382500Y-6800000D01*
X9602500Y-6690000D02*
G75*
G02*
X9382500Y-6690000I-110000J0D01*
G01*
X9382500Y-6690000D02*
G75*
G02*
X9602500Y-6690000I110000J0D01*
G01*
X9382500Y-8282500D02*
X9602500Y-8502500D01*
X9602500Y-8282500D02*
X9382500Y-8502500D01*
X9602500Y-8392500D02*
G75*
G02*
X9382500Y-8392500I-110000J0D01*
G01*
X9382500Y-8392500D02*
G75*
G02*
X9602500Y-8392500I110000J0D01*
G01*
X11180000Y-6580000D02*
X11400000Y-6800000D01*
X11400000Y-6580000D02*
X11180000Y-6800000D01*
X11400000Y-6690000D02*
G75*
G02*
X11180000Y-6690000I-110000J0D01*
G01*
X11180000Y-6690000D02*
G75*
G02*
X11400000Y-6690000I110000J0D01*
G01*
X11190000Y-8280000D02*
X11410000Y-8500000D01*
X11410000Y-8280000D02*
X11190000Y-8500000D01*
X11410000Y-8390000D02*
G75*
G02*
X11190000Y-8390000I-110000J0D01*
G01*
X11190000Y-8390000D02*
G75*
G02*
X11410000Y-8390000I110000J0D01*
G01*
X11840000Y-10600000D02*
X12060000Y-10820000D01*
X12060000Y-10600000D02*
X11840000Y-10820000D01*
X12060000Y-10710000D02*
G75*
G02*
X11840000Y-10710000I-110000J0D01*
G01*
X11840000Y-10710000D02*
G75*
G02*
X12060000Y-10710000I110000J0D01*
G01*
X14550000Y-10900000D02*
X14770000Y-11120000D01*
X14770000Y-10900000D02*
X14550000Y-11120000D01*
X14770000Y-11010000D02*
G75*
G02*
X14550000Y-11010000I-110000J0D01*
G01*
X14550000Y-11010000D02*
G75*
G02*
X14770000Y-11010000I110000J0D01*
G01*
X14787500Y-6880000D02*
X15007500Y-7100000D01*
X15007500Y-6880000D02*
X14787500Y-7100000D01*
X15007500Y-6990000D02*
G75*
G02*
X14787500Y-6990000I-110000J0D01*
G01*
X14787500Y-6990000D02*
G75*
G02*
X15007500Y-6990000I110000J0D01*
G01*
X14790000Y-8580000D02*
X15010000Y-8800000D01*
X15010000Y-8580000D02*
X14790000Y-8800000D01*
X15010000Y-8690000D02*
G75*
G02*
X14790000Y-8690000I-110000J0D01*
G01*
X14790000Y-8690000D02*
G75*
G02*
X15010000Y-8690000I110000J0D01*
G01*
X18060000Y-11060000D02*
X18280000Y-11280000D01*
X18280000Y-11060000D02*
X18060000Y-11280000D01*
X18280000Y-11170000D02*
G75*
G02*
X18060000Y-11170000I-110000J0D01*
G01*
X18060000Y-11170000D02*
G75*
G02*
X18280000Y-11170000I110000J0D01*
G01*
X18590000Y-13110000D02*
X18810000Y-13330000D01*
X18810000Y-13110000D02*
X18590000Y-13330000D01*
X18810000Y-13220000D02*
G75*
G02*
X18590000Y-13220000I-110000J0D01*
G01*
X18590000Y-13220000D02*
G75*
G02*
X18810000Y-13220000I110000J0D01*
G01*
D11*
X7949477Y-15028426D02*
X7949477Y-14828426D01*
X7949477Y-14828426D02*
X7997096Y-14828426D01*
X7997096Y-14828426D02*
X8025667Y-14837950D01*
X8025667Y-14837950D02*
X8044715Y-14856998D01*
X8044715Y-14856998D02*
X8054239Y-14876045D01*
X8054239Y-14876045D02*
X8063762Y-14914141D01*
X8063762Y-14914141D02*
X8063762Y-14942712D01*
X8063762Y-14942712D02*
X8054239Y-14980807D01*
X8054239Y-14980807D02*
X8044715Y-14999855D01*
X8044715Y-14999855D02*
X8025667Y-15018903D01*
X8025667Y-15018903D02*
X7997096Y-15028426D01*
X7997096Y-15028426D02*
X7949477Y-15028426D01*
X8149477Y-15028426D02*
X8149477Y-14895093D01*
X8149477Y-14933188D02*
X8159001Y-14914141D01*
X8159001Y-14914141D02*
X8168524Y-14904617D01*
X8168524Y-14904617D02*
X8187572Y-14895093D01*
X8187572Y-14895093D02*
X8206620Y-14895093D01*
X8273286Y-15028426D02*
X8273286Y-14895093D01*
X8273286Y-14828426D02*
X8263762Y-14837950D01*
X8263762Y-14837950D02*
X8273286Y-14847474D01*
X8273286Y-14847474D02*
X8282810Y-14837950D01*
X8282810Y-14837950D02*
X8273286Y-14828426D01*
X8273286Y-14828426D02*
X8273286Y-14847474D01*
X8397096Y-15028426D02*
X8378048Y-15018903D01*
X8378048Y-15018903D02*
X8368524Y-14999855D01*
X8368524Y-14999855D02*
X8368524Y-14828426D01*
X8501858Y-15028426D02*
X8482810Y-15018903D01*
X8482810Y-15018903D02*
X8473286Y-14999855D01*
X8473286Y-14999855D02*
X8473286Y-14828426D01*
X8730429Y-15028426D02*
X8730429Y-14828426D01*
X8730429Y-14828426D02*
X8797096Y-14971284D01*
X8797096Y-14971284D02*
X8863763Y-14828426D01*
X8863763Y-14828426D02*
X8863763Y-15028426D01*
X9044715Y-15028426D02*
X9044715Y-14923665D01*
X9044715Y-14923665D02*
X9035191Y-14904617D01*
X9035191Y-14904617D02*
X9016144Y-14895093D01*
X9016144Y-14895093D02*
X8978048Y-14895093D01*
X8978048Y-14895093D02*
X8959001Y-14904617D01*
X9044715Y-15018903D02*
X9025667Y-15028426D01*
X9025667Y-15028426D02*
X8978048Y-15028426D01*
X8978048Y-15028426D02*
X8959001Y-15018903D01*
X8959001Y-15018903D02*
X8949477Y-14999855D01*
X8949477Y-14999855D02*
X8949477Y-14980807D01*
X8949477Y-14980807D02*
X8959001Y-14961760D01*
X8959001Y-14961760D02*
X8978048Y-14952236D01*
X8978048Y-14952236D02*
X9025667Y-14952236D01*
X9025667Y-14952236D02*
X9044715Y-14942712D01*
X9139953Y-14895093D02*
X9139953Y-15095093D01*
X9139953Y-14904617D02*
X9159001Y-14895093D01*
X9159001Y-14895093D02*
X9197096Y-14895093D01*
X9197096Y-14895093D02*
X9216144Y-14904617D01*
X9216144Y-14904617D02*
X9225667Y-14914141D01*
X9225667Y-14914141D02*
X9235191Y-14933188D01*
X9235191Y-14933188D02*
X9235191Y-14990331D01*
X9235191Y-14990331D02*
X9225667Y-15009379D01*
X9225667Y-15009379D02*
X9216144Y-15018903D01*
X9216144Y-15018903D02*
X9197096Y-15028426D01*
X9197096Y-15028426D02*
X9159001Y-15028426D01*
X9159001Y-15028426D02*
X9139953Y-15018903D01*
X9320905Y-15009379D02*
X9330429Y-15018903D01*
X9330429Y-15018903D02*
X9320905Y-15028426D01*
X9320905Y-15028426D02*
X9311382Y-15018903D01*
X9311382Y-15018903D02*
X9320905Y-15009379D01*
X9320905Y-15009379D02*
X9320905Y-15028426D01*
X9320905Y-14904617D02*
X9330429Y-14914141D01*
X9330429Y-14914141D02*
X9320905Y-14923665D01*
X9320905Y-14923665D02*
X9311382Y-14914141D01*
X9311382Y-14914141D02*
X9320905Y-14904617D01*
X9320905Y-14904617D02*
X9320905Y-14923665D01*
D12*
X7648700Y-15336943D02*
X7688700Y-15376943D01*
X7688700Y-15336943D02*
X7648700Y-15376943D01*
D11*
X7987572Y-15248426D02*
X8006620Y-15248426D01*
X8006620Y-15248426D02*
X8025667Y-15257950D01*
X8025667Y-15257950D02*
X8035191Y-15267474D01*
X8035191Y-15267474D02*
X8044715Y-15286522D01*
X8044715Y-15286522D02*
X8054239Y-15324617D01*
X8054239Y-15324617D02*
X8054239Y-15372236D01*
X8054239Y-15372236D02*
X8044715Y-15410331D01*
X8044715Y-15410331D02*
X8035191Y-15429379D01*
X8035191Y-15429379D02*
X8025667Y-15438903D01*
X8025667Y-15438903D02*
X8006620Y-15448426D01*
X8006620Y-15448426D02*
X7987572Y-15448426D01*
X7987572Y-15448426D02*
X7968524Y-15438903D01*
X7968524Y-15438903D02*
X7959001Y-15429379D01*
X7959001Y-15429379D02*
X7949477Y-15410331D01*
X7949477Y-15410331D02*
X7939953Y-15372236D01*
X7939953Y-15372236D02*
X7939953Y-15324617D01*
X7939953Y-15324617D02*
X7949477Y-15286522D01*
X7949477Y-15286522D02*
X7959001Y-15267474D01*
X7959001Y-15267474D02*
X7968524Y-15257950D01*
X7968524Y-15257950D02*
X7987572Y-15248426D01*
X8139953Y-15429379D02*
X8149477Y-15438903D01*
X8149477Y-15438903D02*
X8139953Y-15448426D01*
X8139953Y-15448426D02*
X8130429Y-15438903D01*
X8130429Y-15438903D02*
X8139953Y-15429379D01*
X8139953Y-15429379D02*
X8139953Y-15448426D01*
X8320905Y-15315093D02*
X8320905Y-15448426D01*
X8273286Y-15238903D02*
X8225667Y-15381760D01*
X8225667Y-15381760D02*
X8349477Y-15381760D01*
X8463763Y-15248426D02*
X8482810Y-15248426D01*
X8482810Y-15248426D02*
X8501858Y-15257950D01*
X8501858Y-15257950D02*
X8511382Y-15267474D01*
X8511382Y-15267474D02*
X8520905Y-15286522D01*
X8520905Y-15286522D02*
X8530429Y-15324617D01*
X8530429Y-15324617D02*
X8530429Y-15372236D01*
X8530429Y-15372236D02*
X8520905Y-15410331D01*
X8520905Y-15410331D02*
X8511382Y-15429379D01*
X8511382Y-15429379D02*
X8501858Y-15438903D01*
X8501858Y-15438903D02*
X8482810Y-15448426D01*
X8482810Y-15448426D02*
X8463763Y-15448426D01*
X8463763Y-15448426D02*
X8444715Y-15438903D01*
X8444715Y-15438903D02*
X8435191Y-15429379D01*
X8435191Y-15429379D02*
X8425667Y-15410331D01*
X8425667Y-15410331D02*
X8416144Y-15372236D01*
X8416144Y-15372236D02*
X8416144Y-15324617D01*
X8416144Y-15324617D02*
X8425667Y-15286522D01*
X8425667Y-15286522D02*
X8435191Y-15267474D01*
X8435191Y-15267474D02*
X8444715Y-15257950D01*
X8444715Y-15257950D02*
X8463763Y-15248426D01*
X8654239Y-15248426D02*
X8673286Y-15248426D01*
X8673286Y-15248426D02*
X8692334Y-15257950D01*
X8692334Y-15257950D02*
X8701858Y-15267474D01*
X8701858Y-15267474D02*
X8711382Y-15286522D01*
X8711382Y-15286522D02*
X8720905Y-15324617D01*
X8720905Y-15324617D02*
X8720905Y-15372236D01*
X8720905Y-15372236D02*
X8711382Y-15410331D01*
X8711382Y-15410331D02*
X8701858Y-15429379D01*
X8701858Y-15429379D02*
X8692334Y-15438903D01*
X8692334Y-15438903D02*
X8673286Y-15448426D01*
X8673286Y-15448426D02*
X8654239Y-15448426D01*
X8654239Y-15448426D02*
X8635191Y-15438903D01*
X8635191Y-15438903D02*
X8625667Y-15429379D01*
X8625667Y-15429379D02*
X8616144Y-15410331D01*
X8616144Y-15410331D02*
X8606620Y-15372236D01*
X8606620Y-15372236D02*
X8606620Y-15324617D01*
X8606620Y-15324617D02*
X8616144Y-15286522D01*
X8616144Y-15286522D02*
X8625667Y-15267474D01*
X8625667Y-15267474D02*
X8635191Y-15257950D01*
X8635191Y-15257950D02*
X8654239Y-15248426D01*
X8806620Y-15448426D02*
X8806620Y-15315093D01*
X8806620Y-15334141D02*
X8816144Y-15324617D01*
X8816144Y-15324617D02*
X8835191Y-15315093D01*
X8835191Y-15315093D02*
X8863763Y-15315093D01*
X8863763Y-15315093D02*
X8882810Y-15324617D01*
X8882810Y-15324617D02*
X8892334Y-15343665D01*
X8892334Y-15343665D02*
X8892334Y-15448426D01*
X8892334Y-15343665D02*
X8901858Y-15324617D01*
X8901858Y-15324617D02*
X8920905Y-15315093D01*
X8920905Y-15315093D02*
X8949477Y-15315093D01*
X8949477Y-15315093D02*
X8968525Y-15324617D01*
X8968525Y-15324617D02*
X8978048Y-15343665D01*
X8978048Y-15343665D02*
X8978048Y-15448426D01*
X9073286Y-15448426D02*
X9073286Y-15315093D01*
X9073286Y-15334141D02*
X9082810Y-15324617D01*
X9082810Y-15324617D02*
X9101858Y-15315093D01*
X9101858Y-15315093D02*
X9130429Y-15315093D01*
X9130429Y-15315093D02*
X9149477Y-15324617D01*
X9149477Y-15324617D02*
X9159001Y-15343665D01*
X9159001Y-15343665D02*
X9159001Y-15448426D01*
X9159001Y-15343665D02*
X9168525Y-15324617D01*
X9168525Y-15324617D02*
X9187572Y-15315093D01*
X9187572Y-15315093D02*
X9216144Y-15315093D01*
X9216144Y-15315093D02*
X9235191Y-15324617D01*
X9235191Y-15324617D02*
X9244715Y-15343665D01*
X9244715Y-15343665D02*
X9244715Y-15448426D01*
X9635191Y-15238903D02*
X9463763Y-15496045D01*
X9892334Y-15248426D02*
X9911382Y-15248426D01*
X9911382Y-15248426D02*
X9930429Y-15257950D01*
X9930429Y-15257950D02*
X9939953Y-15267474D01*
X9939953Y-15267474D02*
X9949477Y-15286522D01*
X9949477Y-15286522D02*
X9959001Y-15324617D01*
X9959001Y-15324617D02*
X9959001Y-15372236D01*
X9959001Y-15372236D02*
X9949477Y-15410331D01*
X9949477Y-15410331D02*
X9939953Y-15429379D01*
X9939953Y-15429379D02*
X9930429Y-15438903D01*
X9930429Y-15438903D02*
X9911382Y-15448426D01*
X9911382Y-15448426D02*
X9892334Y-15448426D01*
X9892334Y-15448426D02*
X9873287Y-15438903D01*
X9873287Y-15438903D02*
X9863763Y-15429379D01*
X9863763Y-15429379D02*
X9854239Y-15410331D01*
X9854239Y-15410331D02*
X9844715Y-15372236D01*
X9844715Y-15372236D02*
X9844715Y-15324617D01*
X9844715Y-15324617D02*
X9854239Y-15286522D01*
X9854239Y-15286522D02*
X9863763Y-15267474D01*
X9863763Y-15267474D02*
X9873287Y-15257950D01*
X9873287Y-15257950D02*
X9892334Y-15248426D01*
X10044715Y-15429379D02*
X10054239Y-15438903D01*
X10054239Y-15438903D02*
X10044715Y-15448426D01*
X10044715Y-15448426D02*
X10035191Y-15438903D01*
X10035191Y-15438903D02*
X10044715Y-15429379D01*
X10044715Y-15429379D02*
X10044715Y-15448426D01*
X10178048Y-15248426D02*
X10197096Y-15248426D01*
X10197096Y-15248426D02*
X10216144Y-15257950D01*
X10216144Y-15257950D02*
X10225668Y-15267474D01*
X10225668Y-15267474D02*
X10235191Y-15286522D01*
X10235191Y-15286522D02*
X10244715Y-15324617D01*
X10244715Y-15324617D02*
X10244715Y-15372236D01*
X10244715Y-15372236D02*
X10235191Y-15410331D01*
X10235191Y-15410331D02*
X10225668Y-15429379D01*
X10225668Y-15429379D02*
X10216144Y-15438903D01*
X10216144Y-15438903D02*
X10197096Y-15448426D01*
X10197096Y-15448426D02*
X10178048Y-15448426D01*
X10178048Y-15448426D02*
X10159001Y-15438903D01*
X10159001Y-15438903D02*
X10149477Y-15429379D01*
X10149477Y-15429379D02*
X10139953Y-15410331D01*
X10139953Y-15410331D02*
X10130429Y-15372236D01*
X10130429Y-15372236D02*
X10130429Y-15324617D01*
X10130429Y-15324617D02*
X10139953Y-15286522D01*
X10139953Y-15286522D02*
X10149477Y-15267474D01*
X10149477Y-15267474D02*
X10159001Y-15257950D01*
X10159001Y-15257950D02*
X10178048Y-15248426D01*
X10435191Y-15448426D02*
X10320906Y-15448426D01*
X10378048Y-15448426D02*
X10378048Y-15248426D01*
X10378048Y-15248426D02*
X10359001Y-15276998D01*
X10359001Y-15276998D02*
X10339953Y-15296045D01*
X10339953Y-15296045D02*
X10320906Y-15305569D01*
X10616144Y-15248426D02*
X10520906Y-15248426D01*
X10520906Y-15248426D02*
X10511382Y-15343665D01*
X10511382Y-15343665D02*
X10520906Y-15334141D01*
X10520906Y-15334141D02*
X10539953Y-15324617D01*
X10539953Y-15324617D02*
X10587572Y-15324617D01*
X10587572Y-15324617D02*
X10606620Y-15334141D01*
X10606620Y-15334141D02*
X10616144Y-15343665D01*
X10616144Y-15343665D02*
X10625668Y-15362712D01*
X10625668Y-15362712D02*
X10625668Y-15410331D01*
X10625668Y-15410331D02*
X10616144Y-15429379D01*
X10616144Y-15429379D02*
X10606620Y-15438903D01*
X10606620Y-15438903D02*
X10587572Y-15448426D01*
X10587572Y-15448426D02*
X10539953Y-15448426D01*
X10539953Y-15448426D02*
X10520906Y-15438903D01*
X10520906Y-15438903D02*
X10511382Y-15429379D01*
X10692334Y-15248426D02*
X10825668Y-15248426D01*
X10825668Y-15248426D02*
X10739953Y-15448426D01*
X10892334Y-15248426D02*
X10892334Y-15286522D01*
X10968525Y-15248426D02*
X10968525Y-15286522D01*
X11263763Y-15524617D02*
X11254239Y-15515093D01*
X11254239Y-15515093D02*
X11235191Y-15486522D01*
X11235191Y-15486522D02*
X11225668Y-15467474D01*
X11225668Y-15467474D02*
X11216144Y-15438903D01*
X11216144Y-15438903D02*
X11206620Y-15391284D01*
X11206620Y-15391284D02*
X11206620Y-15353188D01*
X11206620Y-15353188D02*
X11216144Y-15305569D01*
X11216144Y-15305569D02*
X11225668Y-15276998D01*
X11225668Y-15276998D02*
X11235191Y-15257950D01*
X11235191Y-15257950D02*
X11254239Y-15229379D01*
X11254239Y-15229379D02*
X11263763Y-15219855D01*
X11444715Y-15448426D02*
X11330429Y-15448426D01*
X11387572Y-15448426D02*
X11387572Y-15248426D01*
X11387572Y-15248426D02*
X11368525Y-15276998D01*
X11368525Y-15276998D02*
X11349477Y-15296045D01*
X11349477Y-15296045D02*
X11330429Y-15305569D01*
X11625668Y-15248426D02*
X11530429Y-15248426D01*
X11530429Y-15248426D02*
X11520906Y-15343665D01*
X11520906Y-15343665D02*
X11530429Y-15334141D01*
X11530429Y-15334141D02*
X11549477Y-15324617D01*
X11549477Y-15324617D02*
X11597096Y-15324617D01*
X11597096Y-15324617D02*
X11616144Y-15334141D01*
X11616144Y-15334141D02*
X11625668Y-15343665D01*
X11625668Y-15343665D02*
X11635191Y-15362712D01*
X11635191Y-15362712D02*
X11635191Y-15410331D01*
X11635191Y-15410331D02*
X11625668Y-15429379D01*
X11625668Y-15429379D02*
X11616144Y-15438903D01*
X11616144Y-15438903D02*
X11597096Y-15448426D01*
X11597096Y-15448426D02*
X11549477Y-15448426D01*
X11549477Y-15448426D02*
X11530429Y-15438903D01*
X11530429Y-15438903D02*
X11520906Y-15429379D01*
X11701858Y-15248426D02*
X11825668Y-15248426D01*
X11825668Y-15248426D02*
X11759001Y-15324617D01*
X11759001Y-15324617D02*
X11787572Y-15324617D01*
X11787572Y-15324617D02*
X11806620Y-15334141D01*
X11806620Y-15334141D02*
X11816144Y-15343665D01*
X11816144Y-15343665D02*
X11825668Y-15362712D01*
X11825668Y-15362712D02*
X11825668Y-15410331D01*
X11825668Y-15410331D02*
X11816144Y-15429379D01*
X11816144Y-15429379D02*
X11806620Y-15438903D01*
X11806620Y-15438903D02*
X11787572Y-15448426D01*
X11787572Y-15448426D02*
X11730429Y-15448426D01*
X11730429Y-15448426D02*
X11711382Y-15438903D01*
X11711382Y-15438903D02*
X11701858Y-15429379D01*
X12063763Y-15448426D02*
X12063763Y-15248426D01*
X12149477Y-15448426D02*
X12149477Y-15343665D01*
X12149477Y-15343665D02*
X12139953Y-15324617D01*
X12139953Y-15324617D02*
X12120906Y-15315093D01*
X12120906Y-15315093D02*
X12092334Y-15315093D01*
X12092334Y-15315093D02*
X12073287Y-15324617D01*
X12073287Y-15324617D02*
X12063763Y-15334141D01*
X12273287Y-15448426D02*
X12254239Y-15438903D01*
X12254239Y-15438903D02*
X12244715Y-15429379D01*
X12244715Y-15429379D02*
X12235191Y-15410331D01*
X12235191Y-15410331D02*
X12235191Y-15353188D01*
X12235191Y-15353188D02*
X12244715Y-15334141D01*
X12244715Y-15334141D02*
X12254239Y-15324617D01*
X12254239Y-15324617D02*
X12273287Y-15315093D01*
X12273287Y-15315093D02*
X12301858Y-15315093D01*
X12301858Y-15315093D02*
X12320906Y-15324617D01*
X12320906Y-15324617D02*
X12330430Y-15334141D01*
X12330430Y-15334141D02*
X12339953Y-15353188D01*
X12339953Y-15353188D02*
X12339953Y-15410331D01*
X12339953Y-15410331D02*
X12330430Y-15429379D01*
X12330430Y-15429379D02*
X12320906Y-15438903D01*
X12320906Y-15438903D02*
X12301858Y-15448426D01*
X12301858Y-15448426D02*
X12273287Y-15448426D01*
X12454239Y-15448426D02*
X12435191Y-15438903D01*
X12435191Y-15438903D02*
X12425668Y-15419855D01*
X12425668Y-15419855D02*
X12425668Y-15248426D01*
X12606620Y-15438903D02*
X12587572Y-15448426D01*
X12587572Y-15448426D02*
X12549477Y-15448426D01*
X12549477Y-15448426D02*
X12530430Y-15438903D01*
X12530430Y-15438903D02*
X12520906Y-15419855D01*
X12520906Y-15419855D02*
X12520906Y-15343665D01*
X12520906Y-15343665D02*
X12530430Y-15324617D01*
X12530430Y-15324617D02*
X12549477Y-15315093D01*
X12549477Y-15315093D02*
X12587572Y-15315093D01*
X12587572Y-15315093D02*
X12606620Y-15324617D01*
X12606620Y-15324617D02*
X12616144Y-15343665D01*
X12616144Y-15343665D02*
X12616144Y-15362712D01*
X12616144Y-15362712D02*
X12520906Y-15381760D01*
X12692334Y-15438903D02*
X12711382Y-15448426D01*
X12711382Y-15448426D02*
X12749477Y-15448426D01*
X12749477Y-15448426D02*
X12768525Y-15438903D01*
X12768525Y-15438903D02*
X12778049Y-15419855D01*
X12778049Y-15419855D02*
X12778049Y-15410331D01*
X12778049Y-15410331D02*
X12768525Y-15391284D01*
X12768525Y-15391284D02*
X12749477Y-15381760D01*
X12749477Y-15381760D02*
X12720906Y-15381760D01*
X12720906Y-15381760D02*
X12701858Y-15372236D01*
X12701858Y-15372236D02*
X12692334Y-15353188D01*
X12692334Y-15353188D02*
X12692334Y-15343665D01*
X12692334Y-15343665D02*
X12701858Y-15324617D01*
X12701858Y-15324617D02*
X12720906Y-15315093D01*
X12720906Y-15315093D02*
X12749477Y-15315093D01*
X12749477Y-15315093D02*
X12768525Y-15324617D01*
X12844715Y-15524617D02*
X12854239Y-15515093D01*
X12854239Y-15515093D02*
X12873287Y-15486522D01*
X12873287Y-15486522D02*
X12882811Y-15467474D01*
X12882811Y-15467474D02*
X12892334Y-15438903D01*
X12892334Y-15438903D02*
X12901858Y-15391284D01*
X12901858Y-15391284D02*
X12901858Y-15353188D01*
X12901858Y-15353188D02*
X12892334Y-15305569D01*
X12892334Y-15305569D02*
X12882811Y-15276998D01*
X12882811Y-15276998D02*
X12873287Y-15257950D01*
X12873287Y-15257950D02*
X12854239Y-15229379D01*
X12854239Y-15229379D02*
X12844715Y-15219855D01*
D12*
X7688700Y-15620943D02*
G75*
G02*
X7607420Y-15620943I-40640J0D01*
G01*
X7607420Y-15620943D02*
G75*
G02*
X7688700Y-15620943I40640J0D01*
G01*
D11*
X7987572Y-15512426D02*
X8006620Y-15512426D01*
X8006620Y-15512426D02*
X8025667Y-15521950D01*
X8025667Y-15521950D02*
X8035191Y-15531474D01*
X8035191Y-15531474D02*
X8044715Y-15550522D01*
X8044715Y-15550522D02*
X8054239Y-15588617D01*
X8054239Y-15588617D02*
X8054239Y-15636236D01*
X8054239Y-15636236D02*
X8044715Y-15674331D01*
X8044715Y-15674331D02*
X8035191Y-15693379D01*
X8035191Y-15693379D02*
X8025667Y-15702903D01*
X8025667Y-15702903D02*
X8006620Y-15712426D01*
X8006620Y-15712426D02*
X7987572Y-15712426D01*
X7987572Y-15712426D02*
X7968524Y-15702903D01*
X7968524Y-15702903D02*
X7959001Y-15693379D01*
X7959001Y-15693379D02*
X7949477Y-15674331D01*
X7949477Y-15674331D02*
X7939953Y-15636236D01*
X7939953Y-15636236D02*
X7939953Y-15588617D01*
X7939953Y-15588617D02*
X7949477Y-15550522D01*
X7949477Y-15550522D02*
X7959001Y-15531474D01*
X7959001Y-15531474D02*
X7968524Y-15521950D01*
X7968524Y-15521950D02*
X7987572Y-15512426D01*
X8139953Y-15693379D02*
X8149477Y-15702903D01*
X8149477Y-15702903D02*
X8139953Y-15712426D01*
X8139953Y-15712426D02*
X8130429Y-15702903D01*
X8130429Y-15702903D02*
X8139953Y-15693379D01*
X8139953Y-15693379D02*
X8139953Y-15712426D01*
X8263762Y-15598141D02*
X8244715Y-15588617D01*
X8244715Y-15588617D02*
X8235191Y-15579093D01*
X8235191Y-15579093D02*
X8225667Y-15560045D01*
X8225667Y-15560045D02*
X8225667Y-15550522D01*
X8225667Y-15550522D02*
X8235191Y-15531474D01*
X8235191Y-15531474D02*
X8244715Y-15521950D01*
X8244715Y-15521950D02*
X8263762Y-15512426D01*
X8263762Y-15512426D02*
X8301858Y-15512426D01*
X8301858Y-15512426D02*
X8320905Y-15521950D01*
X8320905Y-15521950D02*
X8330429Y-15531474D01*
X8330429Y-15531474D02*
X8339953Y-15550522D01*
X8339953Y-15550522D02*
X8339953Y-15560045D01*
X8339953Y-15560045D02*
X8330429Y-15579093D01*
X8330429Y-15579093D02*
X8320905Y-15588617D01*
X8320905Y-15588617D02*
X8301858Y-15598141D01*
X8301858Y-15598141D02*
X8263762Y-15598141D01*
X8263762Y-15598141D02*
X8244715Y-15607665D01*
X8244715Y-15607665D02*
X8235191Y-15617188D01*
X8235191Y-15617188D02*
X8225667Y-15636236D01*
X8225667Y-15636236D02*
X8225667Y-15674331D01*
X8225667Y-15674331D02*
X8235191Y-15693379D01*
X8235191Y-15693379D02*
X8244715Y-15702903D01*
X8244715Y-15702903D02*
X8263762Y-15712426D01*
X8263762Y-15712426D02*
X8301858Y-15712426D01*
X8301858Y-15712426D02*
X8320905Y-15702903D01*
X8320905Y-15702903D02*
X8330429Y-15693379D01*
X8330429Y-15693379D02*
X8339953Y-15674331D01*
X8339953Y-15674331D02*
X8339953Y-15636236D01*
X8339953Y-15636236D02*
X8330429Y-15617188D01*
X8330429Y-15617188D02*
X8320905Y-15607665D01*
X8320905Y-15607665D02*
X8301858Y-15598141D01*
X8530429Y-15712426D02*
X8416144Y-15712426D01*
X8473286Y-15712426D02*
X8473286Y-15512426D01*
X8473286Y-15512426D02*
X8454239Y-15540998D01*
X8454239Y-15540998D02*
X8435191Y-15560045D01*
X8435191Y-15560045D02*
X8416144Y-15569569D01*
X8597096Y-15512426D02*
X8720905Y-15512426D01*
X8720905Y-15512426D02*
X8654239Y-15588617D01*
X8654239Y-15588617D02*
X8682810Y-15588617D01*
X8682810Y-15588617D02*
X8701858Y-15598141D01*
X8701858Y-15598141D02*
X8711382Y-15607665D01*
X8711382Y-15607665D02*
X8720905Y-15626712D01*
X8720905Y-15626712D02*
X8720905Y-15674331D01*
X8720905Y-15674331D02*
X8711382Y-15693379D01*
X8711382Y-15693379D02*
X8701858Y-15702903D01*
X8701858Y-15702903D02*
X8682810Y-15712426D01*
X8682810Y-15712426D02*
X8625667Y-15712426D01*
X8625667Y-15712426D02*
X8606620Y-15702903D01*
X8606620Y-15702903D02*
X8597096Y-15693379D01*
X8806620Y-15712426D02*
X8806620Y-15579093D01*
X8806620Y-15598141D02*
X8816144Y-15588617D01*
X8816144Y-15588617D02*
X8835191Y-15579093D01*
X8835191Y-15579093D02*
X8863763Y-15579093D01*
X8863763Y-15579093D02*
X8882810Y-15588617D01*
X8882810Y-15588617D02*
X8892334Y-15607665D01*
X8892334Y-15607665D02*
X8892334Y-15712426D01*
X8892334Y-15607665D02*
X8901858Y-15588617D01*
X8901858Y-15588617D02*
X8920905Y-15579093D01*
X8920905Y-15579093D02*
X8949477Y-15579093D01*
X8949477Y-15579093D02*
X8968525Y-15588617D01*
X8968525Y-15588617D02*
X8978048Y-15607665D01*
X8978048Y-15607665D02*
X8978048Y-15712426D01*
X9073286Y-15712426D02*
X9073286Y-15579093D01*
X9073286Y-15598141D02*
X9082810Y-15588617D01*
X9082810Y-15588617D02*
X9101858Y-15579093D01*
X9101858Y-15579093D02*
X9130429Y-15579093D01*
X9130429Y-15579093D02*
X9149477Y-15588617D01*
X9149477Y-15588617D02*
X9159001Y-15607665D01*
X9159001Y-15607665D02*
X9159001Y-15712426D01*
X9159001Y-15607665D02*
X9168525Y-15588617D01*
X9168525Y-15588617D02*
X9187572Y-15579093D01*
X9187572Y-15579093D02*
X9216144Y-15579093D01*
X9216144Y-15579093D02*
X9235191Y-15588617D01*
X9235191Y-15588617D02*
X9244715Y-15607665D01*
X9244715Y-15607665D02*
X9244715Y-15712426D01*
X9635191Y-15502903D02*
X9463763Y-15760045D01*
X9892334Y-15512426D02*
X9911382Y-15512426D01*
X9911382Y-15512426D02*
X9930429Y-15521950D01*
X9930429Y-15521950D02*
X9939953Y-15531474D01*
X9939953Y-15531474D02*
X9949477Y-15550522D01*
X9949477Y-15550522D02*
X9959001Y-15588617D01*
X9959001Y-15588617D02*
X9959001Y-15636236D01*
X9959001Y-15636236D02*
X9949477Y-15674331D01*
X9949477Y-15674331D02*
X9939953Y-15693379D01*
X9939953Y-15693379D02*
X9930429Y-15702903D01*
X9930429Y-15702903D02*
X9911382Y-15712426D01*
X9911382Y-15712426D02*
X9892334Y-15712426D01*
X9892334Y-15712426D02*
X9873287Y-15702903D01*
X9873287Y-15702903D02*
X9863763Y-15693379D01*
X9863763Y-15693379D02*
X9854239Y-15674331D01*
X9854239Y-15674331D02*
X9844715Y-15636236D01*
X9844715Y-15636236D02*
X9844715Y-15588617D01*
X9844715Y-15588617D02*
X9854239Y-15550522D01*
X9854239Y-15550522D02*
X9863763Y-15531474D01*
X9863763Y-15531474D02*
X9873287Y-15521950D01*
X9873287Y-15521950D02*
X9892334Y-15512426D01*
X10044715Y-15693379D02*
X10054239Y-15702903D01*
X10054239Y-15702903D02*
X10044715Y-15712426D01*
X10044715Y-15712426D02*
X10035191Y-15702903D01*
X10035191Y-15702903D02*
X10044715Y-15693379D01*
X10044715Y-15693379D02*
X10044715Y-15712426D01*
X10178048Y-15512426D02*
X10197096Y-15512426D01*
X10197096Y-15512426D02*
X10216144Y-15521950D01*
X10216144Y-15521950D02*
X10225668Y-15531474D01*
X10225668Y-15531474D02*
X10235191Y-15550522D01*
X10235191Y-15550522D02*
X10244715Y-15588617D01*
X10244715Y-15588617D02*
X10244715Y-15636236D01*
X10244715Y-15636236D02*
X10235191Y-15674331D01*
X10235191Y-15674331D02*
X10225668Y-15693379D01*
X10225668Y-15693379D02*
X10216144Y-15702903D01*
X10216144Y-15702903D02*
X10197096Y-15712426D01*
X10197096Y-15712426D02*
X10178048Y-15712426D01*
X10178048Y-15712426D02*
X10159001Y-15702903D01*
X10159001Y-15702903D02*
X10149477Y-15693379D01*
X10149477Y-15693379D02*
X10139953Y-15674331D01*
X10139953Y-15674331D02*
X10130429Y-15636236D01*
X10130429Y-15636236D02*
X10130429Y-15588617D01*
X10130429Y-15588617D02*
X10139953Y-15550522D01*
X10139953Y-15550522D02*
X10149477Y-15531474D01*
X10149477Y-15531474D02*
X10159001Y-15521950D01*
X10159001Y-15521950D02*
X10178048Y-15512426D01*
X10311382Y-15512426D02*
X10435191Y-15512426D01*
X10435191Y-15512426D02*
X10368525Y-15588617D01*
X10368525Y-15588617D02*
X10397096Y-15588617D01*
X10397096Y-15588617D02*
X10416144Y-15598141D01*
X10416144Y-15598141D02*
X10425668Y-15607665D01*
X10425668Y-15607665D02*
X10435191Y-15626712D01*
X10435191Y-15626712D02*
X10435191Y-15674331D01*
X10435191Y-15674331D02*
X10425668Y-15693379D01*
X10425668Y-15693379D02*
X10416144Y-15702903D01*
X10416144Y-15702903D02*
X10397096Y-15712426D01*
X10397096Y-15712426D02*
X10339953Y-15712426D01*
X10339953Y-15712426D02*
X10320906Y-15702903D01*
X10320906Y-15702903D02*
X10311382Y-15693379D01*
X10511382Y-15531474D02*
X10520906Y-15521950D01*
X10520906Y-15521950D02*
X10539953Y-15512426D01*
X10539953Y-15512426D02*
X10587572Y-15512426D01*
X10587572Y-15512426D02*
X10606620Y-15521950D01*
X10606620Y-15521950D02*
X10616144Y-15531474D01*
X10616144Y-15531474D02*
X10625668Y-15550522D01*
X10625668Y-15550522D02*
X10625668Y-15569569D01*
X10625668Y-15569569D02*
X10616144Y-15598141D01*
X10616144Y-15598141D02*
X10501858Y-15712426D01*
X10501858Y-15712426D02*
X10625668Y-15712426D01*
X10749477Y-15512426D02*
X10768525Y-15512426D01*
X10768525Y-15512426D02*
X10787572Y-15521950D01*
X10787572Y-15521950D02*
X10797096Y-15531474D01*
X10797096Y-15531474D02*
X10806620Y-15550522D01*
X10806620Y-15550522D02*
X10816144Y-15588617D01*
X10816144Y-15588617D02*
X10816144Y-15636236D01*
X10816144Y-15636236D02*
X10806620Y-15674331D01*
X10806620Y-15674331D02*
X10797096Y-15693379D01*
X10797096Y-15693379D02*
X10787572Y-15702903D01*
X10787572Y-15702903D02*
X10768525Y-15712426D01*
X10768525Y-15712426D02*
X10749477Y-15712426D01*
X10749477Y-15712426D02*
X10730429Y-15702903D01*
X10730429Y-15702903D02*
X10720906Y-15693379D01*
X10720906Y-15693379D02*
X10711382Y-15674331D01*
X10711382Y-15674331D02*
X10701858Y-15636236D01*
X10701858Y-15636236D02*
X10701858Y-15588617D01*
X10701858Y-15588617D02*
X10711382Y-15550522D01*
X10711382Y-15550522D02*
X10720906Y-15531474D01*
X10720906Y-15531474D02*
X10730429Y-15521950D01*
X10730429Y-15521950D02*
X10749477Y-15512426D01*
X10892334Y-15512426D02*
X10892334Y-15550522D01*
X10968525Y-15512426D02*
X10968525Y-15550522D01*
X11263763Y-15788617D02*
X11254239Y-15779093D01*
X11254239Y-15779093D02*
X11235191Y-15750522D01*
X11235191Y-15750522D02*
X11225668Y-15731474D01*
X11225668Y-15731474D02*
X11216144Y-15702903D01*
X11216144Y-15702903D02*
X11206620Y-15655284D01*
X11206620Y-15655284D02*
X11206620Y-15617188D01*
X11206620Y-15617188D02*
X11216144Y-15569569D01*
X11216144Y-15569569D02*
X11225668Y-15540998D01*
X11225668Y-15540998D02*
X11235191Y-15521950D01*
X11235191Y-15521950D02*
X11254239Y-15493379D01*
X11254239Y-15493379D02*
X11263763Y-15483855D01*
X11349477Y-15712426D02*
X11387572Y-15712426D01*
X11387572Y-15712426D02*
X11406620Y-15702903D01*
X11406620Y-15702903D02*
X11416144Y-15693379D01*
X11416144Y-15693379D02*
X11435191Y-15664807D01*
X11435191Y-15664807D02*
X11444715Y-15626712D01*
X11444715Y-15626712D02*
X11444715Y-15550522D01*
X11444715Y-15550522D02*
X11435191Y-15531474D01*
X11435191Y-15531474D02*
X11425668Y-15521950D01*
X11425668Y-15521950D02*
X11406620Y-15512426D01*
X11406620Y-15512426D02*
X11368525Y-15512426D01*
X11368525Y-15512426D02*
X11349477Y-15521950D01*
X11349477Y-15521950D02*
X11339953Y-15531474D01*
X11339953Y-15531474D02*
X11330429Y-15550522D01*
X11330429Y-15550522D02*
X11330429Y-15598141D01*
X11330429Y-15598141D02*
X11339953Y-15617188D01*
X11339953Y-15617188D02*
X11349477Y-15626712D01*
X11349477Y-15626712D02*
X11368525Y-15636236D01*
X11368525Y-15636236D02*
X11406620Y-15636236D01*
X11406620Y-15636236D02*
X11425668Y-15626712D01*
X11425668Y-15626712D02*
X11435191Y-15617188D01*
X11435191Y-15617188D02*
X11444715Y-15598141D01*
X11635191Y-15712426D02*
X11520906Y-15712426D01*
X11578048Y-15712426D02*
X11578048Y-15512426D01*
X11578048Y-15512426D02*
X11559001Y-15540998D01*
X11559001Y-15540998D02*
X11539953Y-15560045D01*
X11539953Y-15560045D02*
X11520906Y-15569569D01*
X11873287Y-15712426D02*
X11873287Y-15512426D01*
X11959001Y-15712426D02*
X11959001Y-15607665D01*
X11959001Y-15607665D02*
X11949477Y-15588617D01*
X11949477Y-15588617D02*
X11930430Y-15579093D01*
X11930430Y-15579093D02*
X11901858Y-15579093D01*
X11901858Y-15579093D02*
X11882810Y-15588617D01*
X11882810Y-15588617D02*
X11873287Y-15598141D01*
X12082810Y-15712426D02*
X12063763Y-15702903D01*
X12063763Y-15702903D02*
X12054239Y-15693379D01*
X12054239Y-15693379D02*
X12044715Y-15674331D01*
X12044715Y-15674331D02*
X12044715Y-15617188D01*
X12044715Y-15617188D02*
X12054239Y-15598141D01*
X12054239Y-15598141D02*
X12063763Y-15588617D01*
X12063763Y-15588617D02*
X12082810Y-15579093D01*
X12082810Y-15579093D02*
X12111382Y-15579093D01*
X12111382Y-15579093D02*
X12130430Y-15588617D01*
X12130430Y-15588617D02*
X12139953Y-15598141D01*
X12139953Y-15598141D02*
X12149477Y-15617188D01*
X12149477Y-15617188D02*
X12149477Y-15674331D01*
X12149477Y-15674331D02*
X12139953Y-15693379D01*
X12139953Y-15693379D02*
X12130430Y-15702903D01*
X12130430Y-15702903D02*
X12111382Y-15712426D01*
X12111382Y-15712426D02*
X12082810Y-15712426D01*
X12263763Y-15712426D02*
X12244715Y-15702903D01*
X12244715Y-15702903D02*
X12235191Y-15683855D01*
X12235191Y-15683855D02*
X12235191Y-15512426D01*
X12416144Y-15702903D02*
X12397096Y-15712426D01*
X12397096Y-15712426D02*
X12359001Y-15712426D01*
X12359001Y-15712426D02*
X12339953Y-15702903D01*
X12339953Y-15702903D02*
X12330430Y-15683855D01*
X12330430Y-15683855D02*
X12330430Y-15607665D01*
X12330430Y-15607665D02*
X12339953Y-15588617D01*
X12339953Y-15588617D02*
X12359001Y-15579093D01*
X12359001Y-15579093D02*
X12397096Y-15579093D01*
X12397096Y-15579093D02*
X12416144Y-15588617D01*
X12416144Y-15588617D02*
X12425668Y-15607665D01*
X12425668Y-15607665D02*
X12425668Y-15626712D01*
X12425668Y-15626712D02*
X12330430Y-15645760D01*
X12501858Y-15702903D02*
X12520906Y-15712426D01*
X12520906Y-15712426D02*
X12559001Y-15712426D01*
X12559001Y-15712426D02*
X12578049Y-15702903D01*
X12578049Y-15702903D02*
X12587572Y-15683855D01*
X12587572Y-15683855D02*
X12587572Y-15674331D01*
X12587572Y-15674331D02*
X12578049Y-15655284D01*
X12578049Y-15655284D02*
X12559001Y-15645760D01*
X12559001Y-15645760D02*
X12530430Y-15645760D01*
X12530430Y-15645760D02*
X12511382Y-15636236D01*
X12511382Y-15636236D02*
X12501858Y-15617188D01*
X12501858Y-15617188D02*
X12501858Y-15607665D01*
X12501858Y-15607665D02*
X12511382Y-15588617D01*
X12511382Y-15588617D02*
X12530430Y-15579093D01*
X12530430Y-15579093D02*
X12559001Y-15579093D01*
X12559001Y-15579093D02*
X12578049Y-15588617D01*
X12654239Y-15788617D02*
X12663763Y-15779093D01*
X12663763Y-15779093D02*
X12682811Y-15750522D01*
X12682811Y-15750522D02*
X12692334Y-15731474D01*
X12692334Y-15731474D02*
X12701858Y-15702903D01*
X12701858Y-15702903D02*
X12711382Y-15655284D01*
X12711382Y-15655284D02*
X12711382Y-15617188D01*
X12711382Y-15617188D02*
X12701858Y-15569569D01*
X12701858Y-15569569D02*
X12692334Y-15540998D01*
X12692334Y-15540998D02*
X12682811Y-15521950D01*
X12682811Y-15521950D02*
X12663763Y-15493379D01*
X12663763Y-15493379D02*
X12654239Y-15483855D01*
D12*
X7638700Y-15834943D02*
X7638700Y-15934943D01*
X7588700Y-15884943D02*
X7688700Y-15884943D01*
D11*
X8054239Y-15976426D02*
X7939953Y-15976426D01*
X7997096Y-15976426D02*
X7997096Y-15776426D01*
X7997096Y-15776426D02*
X7978048Y-15804998D01*
X7978048Y-15804998D02*
X7959001Y-15824045D01*
X7959001Y-15824045D02*
X7939953Y-15833569D01*
X8139953Y-15957379D02*
X8149477Y-15966903D01*
X8149477Y-15966903D02*
X8139953Y-15976426D01*
X8139953Y-15976426D02*
X8130429Y-15966903D01*
X8130429Y-15966903D02*
X8139953Y-15957379D01*
X8139953Y-15957379D02*
X8139953Y-15976426D01*
X8273286Y-15776426D02*
X8292334Y-15776426D01*
X8292334Y-15776426D02*
X8311382Y-15785950D01*
X8311382Y-15785950D02*
X8320905Y-15795474D01*
X8320905Y-15795474D02*
X8330429Y-15814522D01*
X8330429Y-15814522D02*
X8339953Y-15852617D01*
X8339953Y-15852617D02*
X8339953Y-15900236D01*
X8339953Y-15900236D02*
X8330429Y-15938331D01*
X8330429Y-15938331D02*
X8320905Y-15957379D01*
X8320905Y-15957379D02*
X8311382Y-15966903D01*
X8311382Y-15966903D02*
X8292334Y-15976426D01*
X8292334Y-15976426D02*
X8273286Y-15976426D01*
X8273286Y-15976426D02*
X8254239Y-15966903D01*
X8254239Y-15966903D02*
X8244715Y-15957379D01*
X8244715Y-15957379D02*
X8235191Y-15938331D01*
X8235191Y-15938331D02*
X8225667Y-15900236D01*
X8225667Y-15900236D02*
X8225667Y-15852617D01*
X8225667Y-15852617D02*
X8235191Y-15814522D01*
X8235191Y-15814522D02*
X8244715Y-15795474D01*
X8244715Y-15795474D02*
X8254239Y-15785950D01*
X8254239Y-15785950D02*
X8273286Y-15776426D01*
X8463763Y-15776426D02*
X8482810Y-15776426D01*
X8482810Y-15776426D02*
X8501858Y-15785950D01*
X8501858Y-15785950D02*
X8511382Y-15795474D01*
X8511382Y-15795474D02*
X8520905Y-15814522D01*
X8520905Y-15814522D02*
X8530429Y-15852617D01*
X8530429Y-15852617D02*
X8530429Y-15900236D01*
X8530429Y-15900236D02*
X8520905Y-15938331D01*
X8520905Y-15938331D02*
X8511382Y-15957379D01*
X8511382Y-15957379D02*
X8501858Y-15966903D01*
X8501858Y-15966903D02*
X8482810Y-15976426D01*
X8482810Y-15976426D02*
X8463763Y-15976426D01*
X8463763Y-15976426D02*
X8444715Y-15966903D01*
X8444715Y-15966903D02*
X8435191Y-15957379D01*
X8435191Y-15957379D02*
X8425667Y-15938331D01*
X8425667Y-15938331D02*
X8416144Y-15900236D01*
X8416144Y-15900236D02*
X8416144Y-15852617D01*
X8416144Y-15852617D02*
X8425667Y-15814522D01*
X8425667Y-15814522D02*
X8435191Y-15795474D01*
X8435191Y-15795474D02*
X8444715Y-15785950D01*
X8444715Y-15785950D02*
X8463763Y-15776426D01*
X8654239Y-15776426D02*
X8673286Y-15776426D01*
X8673286Y-15776426D02*
X8692334Y-15785950D01*
X8692334Y-15785950D02*
X8701858Y-15795474D01*
X8701858Y-15795474D02*
X8711382Y-15814522D01*
X8711382Y-15814522D02*
X8720905Y-15852617D01*
X8720905Y-15852617D02*
X8720905Y-15900236D01*
X8720905Y-15900236D02*
X8711382Y-15938331D01*
X8711382Y-15938331D02*
X8701858Y-15957379D01*
X8701858Y-15957379D02*
X8692334Y-15966903D01*
X8692334Y-15966903D02*
X8673286Y-15976426D01*
X8673286Y-15976426D02*
X8654239Y-15976426D01*
X8654239Y-15976426D02*
X8635191Y-15966903D01*
X8635191Y-15966903D02*
X8625667Y-15957379D01*
X8625667Y-15957379D02*
X8616144Y-15938331D01*
X8616144Y-15938331D02*
X8606620Y-15900236D01*
X8606620Y-15900236D02*
X8606620Y-15852617D01*
X8606620Y-15852617D02*
X8616144Y-15814522D01*
X8616144Y-15814522D02*
X8625667Y-15795474D01*
X8625667Y-15795474D02*
X8635191Y-15785950D01*
X8635191Y-15785950D02*
X8654239Y-15776426D01*
X8806620Y-15976426D02*
X8806620Y-15843093D01*
X8806620Y-15862141D02*
X8816144Y-15852617D01*
X8816144Y-15852617D02*
X8835191Y-15843093D01*
X8835191Y-15843093D02*
X8863763Y-15843093D01*
X8863763Y-15843093D02*
X8882810Y-15852617D01*
X8882810Y-15852617D02*
X8892334Y-15871665D01*
X8892334Y-15871665D02*
X8892334Y-15976426D01*
X8892334Y-15871665D02*
X8901858Y-15852617D01*
X8901858Y-15852617D02*
X8920905Y-15843093D01*
X8920905Y-15843093D02*
X8949477Y-15843093D01*
X8949477Y-15843093D02*
X8968525Y-15852617D01*
X8968525Y-15852617D02*
X8978048Y-15871665D01*
X8978048Y-15871665D02*
X8978048Y-15976426D01*
X9073286Y-15976426D02*
X9073286Y-15843093D01*
X9073286Y-15862141D02*
X9082810Y-15852617D01*
X9082810Y-15852617D02*
X9101858Y-15843093D01*
X9101858Y-15843093D02*
X9130429Y-15843093D01*
X9130429Y-15843093D02*
X9149477Y-15852617D01*
X9149477Y-15852617D02*
X9159001Y-15871665D01*
X9159001Y-15871665D02*
X9159001Y-15976426D01*
X9159001Y-15871665D02*
X9168525Y-15852617D01*
X9168525Y-15852617D02*
X9187572Y-15843093D01*
X9187572Y-15843093D02*
X9216144Y-15843093D01*
X9216144Y-15843093D02*
X9235191Y-15852617D01*
X9235191Y-15852617D02*
X9244715Y-15871665D01*
X9244715Y-15871665D02*
X9244715Y-15976426D01*
X9635191Y-15766903D02*
X9463763Y-16024045D01*
X9892334Y-15776426D02*
X9911382Y-15776426D01*
X9911382Y-15776426D02*
X9930429Y-15785950D01*
X9930429Y-15785950D02*
X9939953Y-15795474D01*
X9939953Y-15795474D02*
X9949477Y-15814522D01*
X9949477Y-15814522D02*
X9959001Y-15852617D01*
X9959001Y-15852617D02*
X9959001Y-15900236D01*
X9959001Y-15900236D02*
X9949477Y-15938331D01*
X9949477Y-15938331D02*
X9939953Y-15957379D01*
X9939953Y-15957379D02*
X9930429Y-15966903D01*
X9930429Y-15966903D02*
X9911382Y-15976426D01*
X9911382Y-15976426D02*
X9892334Y-15976426D01*
X9892334Y-15976426D02*
X9873287Y-15966903D01*
X9873287Y-15966903D02*
X9863763Y-15957379D01*
X9863763Y-15957379D02*
X9854239Y-15938331D01*
X9854239Y-15938331D02*
X9844715Y-15900236D01*
X9844715Y-15900236D02*
X9844715Y-15852617D01*
X9844715Y-15852617D02*
X9854239Y-15814522D01*
X9854239Y-15814522D02*
X9863763Y-15795474D01*
X9863763Y-15795474D02*
X9873287Y-15785950D01*
X9873287Y-15785950D02*
X9892334Y-15776426D01*
X10044715Y-15957379D02*
X10054239Y-15966903D01*
X10054239Y-15966903D02*
X10044715Y-15976426D01*
X10044715Y-15976426D02*
X10035191Y-15966903D01*
X10035191Y-15966903D02*
X10044715Y-15957379D01*
X10044715Y-15957379D02*
X10044715Y-15976426D01*
X10178048Y-15776426D02*
X10197096Y-15776426D01*
X10197096Y-15776426D02*
X10216144Y-15785950D01*
X10216144Y-15785950D02*
X10225668Y-15795474D01*
X10225668Y-15795474D02*
X10235191Y-15814522D01*
X10235191Y-15814522D02*
X10244715Y-15852617D01*
X10244715Y-15852617D02*
X10244715Y-15900236D01*
X10244715Y-15900236D02*
X10235191Y-15938331D01*
X10235191Y-15938331D02*
X10225668Y-15957379D01*
X10225668Y-15957379D02*
X10216144Y-15966903D01*
X10216144Y-15966903D02*
X10197096Y-15976426D01*
X10197096Y-15976426D02*
X10178048Y-15976426D01*
X10178048Y-15976426D02*
X10159001Y-15966903D01*
X10159001Y-15966903D02*
X10149477Y-15957379D01*
X10149477Y-15957379D02*
X10139953Y-15938331D01*
X10139953Y-15938331D02*
X10130429Y-15900236D01*
X10130429Y-15900236D02*
X10130429Y-15852617D01*
X10130429Y-15852617D02*
X10139953Y-15814522D01*
X10139953Y-15814522D02*
X10149477Y-15795474D01*
X10149477Y-15795474D02*
X10159001Y-15785950D01*
X10159001Y-15785950D02*
X10178048Y-15776426D01*
X10311382Y-15776426D02*
X10435191Y-15776426D01*
X10435191Y-15776426D02*
X10368525Y-15852617D01*
X10368525Y-15852617D02*
X10397096Y-15852617D01*
X10397096Y-15852617D02*
X10416144Y-15862141D01*
X10416144Y-15862141D02*
X10425668Y-15871665D01*
X10425668Y-15871665D02*
X10435191Y-15890712D01*
X10435191Y-15890712D02*
X10435191Y-15938331D01*
X10435191Y-15938331D02*
X10425668Y-15957379D01*
X10425668Y-15957379D02*
X10416144Y-15966903D01*
X10416144Y-15966903D02*
X10397096Y-15976426D01*
X10397096Y-15976426D02*
X10339953Y-15976426D01*
X10339953Y-15976426D02*
X10320906Y-15966903D01*
X10320906Y-15966903D02*
X10311382Y-15957379D01*
X10530429Y-15976426D02*
X10568525Y-15976426D01*
X10568525Y-15976426D02*
X10587572Y-15966903D01*
X10587572Y-15966903D02*
X10597096Y-15957379D01*
X10597096Y-15957379D02*
X10616144Y-15928807D01*
X10616144Y-15928807D02*
X10625668Y-15890712D01*
X10625668Y-15890712D02*
X10625668Y-15814522D01*
X10625668Y-15814522D02*
X10616144Y-15795474D01*
X10616144Y-15795474D02*
X10606620Y-15785950D01*
X10606620Y-15785950D02*
X10587572Y-15776426D01*
X10587572Y-15776426D02*
X10549477Y-15776426D01*
X10549477Y-15776426D02*
X10530429Y-15785950D01*
X10530429Y-15785950D02*
X10520906Y-15795474D01*
X10520906Y-15795474D02*
X10511382Y-15814522D01*
X10511382Y-15814522D02*
X10511382Y-15862141D01*
X10511382Y-15862141D02*
X10520906Y-15881188D01*
X10520906Y-15881188D02*
X10530429Y-15890712D01*
X10530429Y-15890712D02*
X10549477Y-15900236D01*
X10549477Y-15900236D02*
X10587572Y-15900236D01*
X10587572Y-15900236D02*
X10606620Y-15890712D01*
X10606620Y-15890712D02*
X10616144Y-15881188D01*
X10616144Y-15881188D02*
X10625668Y-15862141D01*
X10797096Y-15843093D02*
X10797096Y-15976426D01*
X10749477Y-15766903D02*
X10701858Y-15909760D01*
X10701858Y-15909760D02*
X10825668Y-15909760D01*
X10892334Y-15776426D02*
X10892334Y-15814522D01*
X10968525Y-15776426D02*
X10968525Y-15814522D01*
X11263763Y-16052617D02*
X11254239Y-16043093D01*
X11254239Y-16043093D02*
X11235191Y-16014522D01*
X11235191Y-16014522D02*
X11225668Y-15995474D01*
X11225668Y-15995474D02*
X11216144Y-15966903D01*
X11216144Y-15966903D02*
X11206620Y-15919284D01*
X11206620Y-15919284D02*
X11206620Y-15881188D01*
X11206620Y-15881188D02*
X11216144Y-15833569D01*
X11216144Y-15833569D02*
X11225668Y-15804998D01*
X11225668Y-15804998D02*
X11235191Y-15785950D01*
X11235191Y-15785950D02*
X11254239Y-15757379D01*
X11254239Y-15757379D02*
X11263763Y-15747855D01*
X11320906Y-15776426D02*
X11454239Y-15776426D01*
X11454239Y-15776426D02*
X11368525Y-15976426D01*
X11682810Y-15976426D02*
X11682810Y-15776426D01*
X11768525Y-15976426D02*
X11768525Y-15871665D01*
X11768525Y-15871665D02*
X11759001Y-15852617D01*
X11759001Y-15852617D02*
X11739953Y-15843093D01*
X11739953Y-15843093D02*
X11711382Y-15843093D01*
X11711382Y-15843093D02*
X11692334Y-15852617D01*
X11692334Y-15852617D02*
X11682810Y-15862141D01*
X11892334Y-15976426D02*
X11873287Y-15966903D01*
X11873287Y-15966903D02*
X11863763Y-15957379D01*
X11863763Y-15957379D02*
X11854239Y-15938331D01*
X11854239Y-15938331D02*
X11854239Y-15881188D01*
X11854239Y-15881188D02*
X11863763Y-15862141D01*
X11863763Y-15862141D02*
X11873287Y-15852617D01*
X11873287Y-15852617D02*
X11892334Y-15843093D01*
X11892334Y-15843093D02*
X11920906Y-15843093D01*
X11920906Y-15843093D02*
X11939953Y-15852617D01*
X11939953Y-15852617D02*
X11949477Y-15862141D01*
X11949477Y-15862141D02*
X11959001Y-15881188D01*
X11959001Y-15881188D02*
X11959001Y-15938331D01*
X11959001Y-15938331D02*
X11949477Y-15957379D01*
X11949477Y-15957379D02*
X11939953Y-15966903D01*
X11939953Y-15966903D02*
X11920906Y-15976426D01*
X11920906Y-15976426D02*
X11892334Y-15976426D01*
X12073287Y-15976426D02*
X12054239Y-15966903D01*
X12054239Y-15966903D02*
X12044715Y-15947855D01*
X12044715Y-15947855D02*
X12044715Y-15776426D01*
X12225668Y-15966903D02*
X12206620Y-15976426D01*
X12206620Y-15976426D02*
X12168525Y-15976426D01*
X12168525Y-15976426D02*
X12149477Y-15966903D01*
X12149477Y-15966903D02*
X12139953Y-15947855D01*
X12139953Y-15947855D02*
X12139953Y-15871665D01*
X12139953Y-15871665D02*
X12149477Y-15852617D01*
X12149477Y-15852617D02*
X12168525Y-15843093D01*
X12168525Y-15843093D02*
X12206620Y-15843093D01*
X12206620Y-15843093D02*
X12225668Y-15852617D01*
X12225668Y-15852617D02*
X12235191Y-15871665D01*
X12235191Y-15871665D02*
X12235191Y-15890712D01*
X12235191Y-15890712D02*
X12139953Y-15909760D01*
X12311382Y-15966903D02*
X12330430Y-15976426D01*
X12330430Y-15976426D02*
X12368525Y-15976426D01*
X12368525Y-15976426D02*
X12387572Y-15966903D01*
X12387572Y-15966903D02*
X12397096Y-15947855D01*
X12397096Y-15947855D02*
X12397096Y-15938331D01*
X12397096Y-15938331D02*
X12387572Y-15919284D01*
X12387572Y-15919284D02*
X12368525Y-15909760D01*
X12368525Y-15909760D02*
X12339953Y-15909760D01*
X12339953Y-15909760D02*
X12320906Y-15900236D01*
X12320906Y-15900236D02*
X12311382Y-15881188D01*
X12311382Y-15881188D02*
X12311382Y-15871665D01*
X12311382Y-15871665D02*
X12320906Y-15852617D01*
X12320906Y-15852617D02*
X12339953Y-15843093D01*
X12339953Y-15843093D02*
X12368525Y-15843093D01*
X12368525Y-15843093D02*
X12387572Y-15852617D01*
X12635192Y-15900236D02*
X12787573Y-15900236D01*
X12711382Y-15976426D02*
X12711382Y-15824045D01*
X13063763Y-15862141D02*
X13044715Y-15852617D01*
X13044715Y-15852617D02*
X13035192Y-15843093D01*
X13035192Y-15843093D02*
X13025668Y-15824045D01*
X13025668Y-15824045D02*
X13025668Y-15814522D01*
X13025668Y-15814522D02*
X13035192Y-15795474D01*
X13035192Y-15795474D02*
X13044715Y-15785950D01*
X13044715Y-15785950D02*
X13063763Y-15776426D01*
X13063763Y-15776426D02*
X13101858Y-15776426D01*
X13101858Y-15776426D02*
X13120906Y-15785950D01*
X13120906Y-15785950D02*
X13130430Y-15795474D01*
X13130430Y-15795474D02*
X13139953Y-15814522D01*
X13139953Y-15814522D02*
X13139953Y-15824045D01*
X13139953Y-15824045D02*
X13130430Y-15843093D01*
X13130430Y-15843093D02*
X13120906Y-15852617D01*
X13120906Y-15852617D02*
X13101858Y-15862141D01*
X13101858Y-15862141D02*
X13063763Y-15862141D01*
X13063763Y-15862141D02*
X13044715Y-15871665D01*
X13044715Y-15871665D02*
X13035192Y-15881188D01*
X13035192Y-15881188D02*
X13025668Y-15900236D01*
X13025668Y-15900236D02*
X13025668Y-15938331D01*
X13025668Y-15938331D02*
X13035192Y-15957379D01*
X13035192Y-15957379D02*
X13044715Y-15966903D01*
X13044715Y-15966903D02*
X13063763Y-15976426D01*
X13063763Y-15976426D02*
X13101858Y-15976426D01*
X13101858Y-15976426D02*
X13120906Y-15966903D01*
X13120906Y-15966903D02*
X13130430Y-15957379D01*
X13130430Y-15957379D02*
X13139953Y-15938331D01*
X13139953Y-15938331D02*
X13139953Y-15900236D01*
X13139953Y-15900236D02*
X13130430Y-15881188D01*
X13130430Y-15881188D02*
X13120906Y-15871665D01*
X13120906Y-15871665D02*
X13101858Y-15862141D01*
X13368525Y-15966903D02*
X13387573Y-15976426D01*
X13387573Y-15976426D02*
X13425668Y-15976426D01*
X13425668Y-15976426D02*
X13444715Y-15966903D01*
X13444715Y-15966903D02*
X13454239Y-15947855D01*
X13454239Y-15947855D02*
X13454239Y-15938331D01*
X13454239Y-15938331D02*
X13444715Y-15919284D01*
X13444715Y-15919284D02*
X13425668Y-15909760D01*
X13425668Y-15909760D02*
X13397096Y-15909760D01*
X13397096Y-15909760D02*
X13378049Y-15900236D01*
X13378049Y-15900236D02*
X13368525Y-15881188D01*
X13368525Y-15881188D02*
X13368525Y-15871665D01*
X13368525Y-15871665D02*
X13378049Y-15852617D01*
X13378049Y-15852617D02*
X13397096Y-15843093D01*
X13397096Y-15843093D02*
X13425668Y-15843093D01*
X13425668Y-15843093D02*
X13444715Y-15852617D01*
X13568525Y-15976426D02*
X13549477Y-15966903D01*
X13549477Y-15966903D02*
X13539954Y-15947855D01*
X13539954Y-15947855D02*
X13539954Y-15776426D01*
X13673287Y-15976426D02*
X13654239Y-15966903D01*
X13654239Y-15966903D02*
X13644715Y-15957379D01*
X13644715Y-15957379D02*
X13635192Y-15938331D01*
X13635192Y-15938331D02*
X13635192Y-15881188D01*
X13635192Y-15881188D02*
X13644715Y-15862141D01*
X13644715Y-15862141D02*
X13654239Y-15852617D01*
X13654239Y-15852617D02*
X13673287Y-15843093D01*
X13673287Y-15843093D02*
X13701858Y-15843093D01*
X13701858Y-15843093D02*
X13720906Y-15852617D01*
X13720906Y-15852617D02*
X13730430Y-15862141D01*
X13730430Y-15862141D02*
X13739954Y-15881188D01*
X13739954Y-15881188D02*
X13739954Y-15938331D01*
X13739954Y-15938331D02*
X13730430Y-15957379D01*
X13730430Y-15957379D02*
X13720906Y-15966903D01*
X13720906Y-15966903D02*
X13701858Y-15976426D01*
X13701858Y-15976426D02*
X13673287Y-15976426D01*
X13797096Y-15843093D02*
X13873287Y-15843093D01*
X13825668Y-15776426D02*
X13825668Y-15947855D01*
X13825668Y-15947855D02*
X13835192Y-15966903D01*
X13835192Y-15966903D02*
X13854239Y-15976426D01*
X13854239Y-15976426D02*
X13873287Y-15976426D01*
X13930430Y-15966903D02*
X13949477Y-15976426D01*
X13949477Y-15976426D02*
X13987573Y-15976426D01*
X13987573Y-15976426D02*
X14006620Y-15966903D01*
X14006620Y-15966903D02*
X14016144Y-15947855D01*
X14016144Y-15947855D02*
X14016144Y-15938331D01*
X14016144Y-15938331D02*
X14006620Y-15919284D01*
X14006620Y-15919284D02*
X13987573Y-15909760D01*
X13987573Y-15909760D02*
X13959001Y-15909760D01*
X13959001Y-15909760D02*
X13939954Y-15900236D01*
X13939954Y-15900236D02*
X13930430Y-15881188D01*
X13930430Y-15881188D02*
X13930430Y-15871665D01*
X13930430Y-15871665D02*
X13939954Y-15852617D01*
X13939954Y-15852617D02*
X13959001Y-15843093D01*
X13959001Y-15843093D02*
X13987573Y-15843093D01*
X13987573Y-15843093D02*
X14006620Y-15852617D01*
X14082811Y-16052617D02*
X14092335Y-16043093D01*
X14092335Y-16043093D02*
X14111382Y-16014522D01*
X14111382Y-16014522D02*
X14120906Y-15995474D01*
X14120906Y-15995474D02*
X14130430Y-15966903D01*
X14130430Y-15966903D02*
X14139954Y-15919284D01*
X14139954Y-15919284D02*
X14139954Y-15881188D01*
X14139954Y-15881188D02*
X14130430Y-15833569D01*
X14130430Y-15833569D02*
X14120906Y-15804998D01*
X14120906Y-15804998D02*
X14111382Y-15785950D01*
X14111382Y-15785950D02*
X14092335Y-15757379D01*
X14092335Y-15757379D02*
X14082811Y-15747855D01*
D13*
X7669662Y-16194905D02*
X7669662Y-16102980D01*
X7577738Y-16102980D01*
X7577738Y-16194905D01*
X7669662Y-16194905D01*
D11*
X8054239Y-16240426D02*
X7939953Y-16240426D01*
X7997096Y-16240426D02*
X7997096Y-16040426D01*
X7997096Y-16040426D02*
X7978048Y-16068998D01*
X7978048Y-16068998D02*
X7959001Y-16088045D01*
X7959001Y-16088045D02*
X7939953Y-16097569D01*
X8139953Y-16221379D02*
X8149477Y-16230903D01*
X8149477Y-16230903D02*
X8139953Y-16240426D01*
X8139953Y-16240426D02*
X8130429Y-16230903D01*
X8130429Y-16230903D02*
X8139953Y-16221379D01*
X8139953Y-16221379D02*
X8139953Y-16240426D01*
X8216143Y-16040426D02*
X8339953Y-16040426D01*
X8339953Y-16040426D02*
X8273286Y-16116617D01*
X8273286Y-16116617D02*
X8301858Y-16116617D01*
X8301858Y-16116617D02*
X8320905Y-16126141D01*
X8320905Y-16126141D02*
X8330429Y-16135665D01*
X8330429Y-16135665D02*
X8339953Y-16154712D01*
X8339953Y-16154712D02*
X8339953Y-16202331D01*
X8339953Y-16202331D02*
X8330429Y-16221379D01*
X8330429Y-16221379D02*
X8320905Y-16230903D01*
X8320905Y-16230903D02*
X8301858Y-16240426D01*
X8301858Y-16240426D02*
X8244715Y-16240426D01*
X8244715Y-16240426D02*
X8225667Y-16230903D01*
X8225667Y-16230903D02*
X8216143Y-16221379D01*
X8463763Y-16040426D02*
X8482810Y-16040426D01*
X8482810Y-16040426D02*
X8501858Y-16049950D01*
X8501858Y-16049950D02*
X8511382Y-16059474D01*
X8511382Y-16059474D02*
X8520905Y-16078522D01*
X8520905Y-16078522D02*
X8530429Y-16116617D01*
X8530429Y-16116617D02*
X8530429Y-16164236D01*
X8530429Y-16164236D02*
X8520905Y-16202331D01*
X8520905Y-16202331D02*
X8511382Y-16221379D01*
X8511382Y-16221379D02*
X8501858Y-16230903D01*
X8501858Y-16230903D02*
X8482810Y-16240426D01*
X8482810Y-16240426D02*
X8463763Y-16240426D01*
X8463763Y-16240426D02*
X8444715Y-16230903D01*
X8444715Y-16230903D02*
X8435191Y-16221379D01*
X8435191Y-16221379D02*
X8425667Y-16202331D01*
X8425667Y-16202331D02*
X8416144Y-16164236D01*
X8416144Y-16164236D02*
X8416144Y-16116617D01*
X8416144Y-16116617D02*
X8425667Y-16078522D01*
X8425667Y-16078522D02*
X8435191Y-16059474D01*
X8435191Y-16059474D02*
X8444715Y-16049950D01*
X8444715Y-16049950D02*
X8463763Y-16040426D01*
X8654239Y-16040426D02*
X8673286Y-16040426D01*
X8673286Y-16040426D02*
X8692334Y-16049950D01*
X8692334Y-16049950D02*
X8701858Y-16059474D01*
X8701858Y-16059474D02*
X8711382Y-16078522D01*
X8711382Y-16078522D02*
X8720905Y-16116617D01*
X8720905Y-16116617D02*
X8720905Y-16164236D01*
X8720905Y-16164236D02*
X8711382Y-16202331D01*
X8711382Y-16202331D02*
X8701858Y-16221379D01*
X8701858Y-16221379D02*
X8692334Y-16230903D01*
X8692334Y-16230903D02*
X8673286Y-16240426D01*
X8673286Y-16240426D02*
X8654239Y-16240426D01*
X8654239Y-16240426D02*
X8635191Y-16230903D01*
X8635191Y-16230903D02*
X8625667Y-16221379D01*
X8625667Y-16221379D02*
X8616144Y-16202331D01*
X8616144Y-16202331D02*
X8606620Y-16164236D01*
X8606620Y-16164236D02*
X8606620Y-16116617D01*
X8606620Y-16116617D02*
X8616144Y-16078522D01*
X8616144Y-16078522D02*
X8625667Y-16059474D01*
X8625667Y-16059474D02*
X8635191Y-16049950D01*
X8635191Y-16049950D02*
X8654239Y-16040426D01*
X8806620Y-16240426D02*
X8806620Y-16107093D01*
X8806620Y-16126141D02*
X8816144Y-16116617D01*
X8816144Y-16116617D02*
X8835191Y-16107093D01*
X8835191Y-16107093D02*
X8863763Y-16107093D01*
X8863763Y-16107093D02*
X8882810Y-16116617D01*
X8882810Y-16116617D02*
X8892334Y-16135665D01*
X8892334Y-16135665D02*
X8892334Y-16240426D01*
X8892334Y-16135665D02*
X8901858Y-16116617D01*
X8901858Y-16116617D02*
X8920905Y-16107093D01*
X8920905Y-16107093D02*
X8949477Y-16107093D01*
X8949477Y-16107093D02*
X8968525Y-16116617D01*
X8968525Y-16116617D02*
X8978048Y-16135665D01*
X8978048Y-16135665D02*
X8978048Y-16240426D01*
X9073286Y-16240426D02*
X9073286Y-16107093D01*
X9073286Y-16126141D02*
X9082810Y-16116617D01*
X9082810Y-16116617D02*
X9101858Y-16107093D01*
X9101858Y-16107093D02*
X9130429Y-16107093D01*
X9130429Y-16107093D02*
X9149477Y-16116617D01*
X9149477Y-16116617D02*
X9159001Y-16135665D01*
X9159001Y-16135665D02*
X9159001Y-16240426D01*
X9159001Y-16135665D02*
X9168525Y-16116617D01*
X9168525Y-16116617D02*
X9187572Y-16107093D01*
X9187572Y-16107093D02*
X9216144Y-16107093D01*
X9216144Y-16107093D02*
X9235191Y-16116617D01*
X9235191Y-16116617D02*
X9244715Y-16135665D01*
X9244715Y-16135665D02*
X9244715Y-16240426D01*
X9635191Y-16030903D02*
X9463763Y-16288045D01*
X9892334Y-16040426D02*
X9911382Y-16040426D01*
X9911382Y-16040426D02*
X9930429Y-16049950D01*
X9930429Y-16049950D02*
X9939953Y-16059474D01*
X9939953Y-16059474D02*
X9949477Y-16078522D01*
X9949477Y-16078522D02*
X9959001Y-16116617D01*
X9959001Y-16116617D02*
X9959001Y-16164236D01*
X9959001Y-16164236D02*
X9949477Y-16202331D01*
X9949477Y-16202331D02*
X9939953Y-16221379D01*
X9939953Y-16221379D02*
X9930429Y-16230903D01*
X9930429Y-16230903D02*
X9911382Y-16240426D01*
X9911382Y-16240426D02*
X9892334Y-16240426D01*
X9892334Y-16240426D02*
X9873287Y-16230903D01*
X9873287Y-16230903D02*
X9863763Y-16221379D01*
X9863763Y-16221379D02*
X9854239Y-16202331D01*
X9854239Y-16202331D02*
X9844715Y-16164236D01*
X9844715Y-16164236D02*
X9844715Y-16116617D01*
X9844715Y-16116617D02*
X9854239Y-16078522D01*
X9854239Y-16078522D02*
X9863763Y-16059474D01*
X9863763Y-16059474D02*
X9873287Y-16049950D01*
X9873287Y-16049950D02*
X9892334Y-16040426D01*
X10044715Y-16221379D02*
X10054239Y-16230903D01*
X10054239Y-16230903D02*
X10044715Y-16240426D01*
X10044715Y-16240426D02*
X10035191Y-16230903D01*
X10035191Y-16230903D02*
X10044715Y-16221379D01*
X10044715Y-16221379D02*
X10044715Y-16240426D01*
X10178048Y-16040426D02*
X10197096Y-16040426D01*
X10197096Y-16040426D02*
X10216144Y-16049950D01*
X10216144Y-16049950D02*
X10225668Y-16059474D01*
X10225668Y-16059474D02*
X10235191Y-16078522D01*
X10235191Y-16078522D02*
X10244715Y-16116617D01*
X10244715Y-16116617D02*
X10244715Y-16164236D01*
X10244715Y-16164236D02*
X10235191Y-16202331D01*
X10235191Y-16202331D02*
X10225668Y-16221379D01*
X10225668Y-16221379D02*
X10216144Y-16230903D01*
X10216144Y-16230903D02*
X10197096Y-16240426D01*
X10197096Y-16240426D02*
X10178048Y-16240426D01*
X10178048Y-16240426D02*
X10159001Y-16230903D01*
X10159001Y-16230903D02*
X10149477Y-16221379D01*
X10149477Y-16221379D02*
X10139953Y-16202331D01*
X10139953Y-16202331D02*
X10130429Y-16164236D01*
X10130429Y-16164236D02*
X10130429Y-16116617D01*
X10130429Y-16116617D02*
X10139953Y-16078522D01*
X10139953Y-16078522D02*
X10149477Y-16059474D01*
X10149477Y-16059474D02*
X10159001Y-16049950D01*
X10159001Y-16049950D02*
X10178048Y-16040426D01*
X10425668Y-16040426D02*
X10330429Y-16040426D01*
X10330429Y-16040426D02*
X10320906Y-16135665D01*
X10320906Y-16135665D02*
X10330429Y-16126141D01*
X10330429Y-16126141D02*
X10349477Y-16116617D01*
X10349477Y-16116617D02*
X10397096Y-16116617D01*
X10397096Y-16116617D02*
X10416144Y-16126141D01*
X10416144Y-16126141D02*
X10425668Y-16135665D01*
X10425668Y-16135665D02*
X10435191Y-16154712D01*
X10435191Y-16154712D02*
X10435191Y-16202331D01*
X10435191Y-16202331D02*
X10425668Y-16221379D01*
X10425668Y-16221379D02*
X10416144Y-16230903D01*
X10416144Y-16230903D02*
X10397096Y-16240426D01*
X10397096Y-16240426D02*
X10349477Y-16240426D01*
X10349477Y-16240426D02*
X10330429Y-16230903D01*
X10330429Y-16230903D02*
X10320906Y-16221379D01*
X10625668Y-16240426D02*
X10511382Y-16240426D01*
X10568525Y-16240426D02*
X10568525Y-16040426D01*
X10568525Y-16040426D02*
X10549477Y-16068998D01*
X10549477Y-16068998D02*
X10530429Y-16088045D01*
X10530429Y-16088045D02*
X10511382Y-16097569D01*
X10701858Y-16059474D02*
X10711382Y-16049950D01*
X10711382Y-16049950D02*
X10730429Y-16040426D01*
X10730429Y-16040426D02*
X10778049Y-16040426D01*
X10778049Y-16040426D02*
X10797096Y-16049950D01*
X10797096Y-16049950D02*
X10806620Y-16059474D01*
X10806620Y-16059474D02*
X10816144Y-16078522D01*
X10816144Y-16078522D02*
X10816144Y-16097569D01*
X10816144Y-16097569D02*
X10806620Y-16126141D01*
X10806620Y-16126141D02*
X10692334Y-16240426D01*
X10692334Y-16240426D02*
X10816144Y-16240426D01*
X10892334Y-16040426D02*
X10892334Y-16078522D01*
X10968525Y-16040426D02*
X10968525Y-16078522D01*
X11263763Y-16316617D02*
X11254239Y-16307093D01*
X11254239Y-16307093D02*
X11235191Y-16278522D01*
X11235191Y-16278522D02*
X11225668Y-16259474D01*
X11225668Y-16259474D02*
X11216144Y-16230903D01*
X11216144Y-16230903D02*
X11206620Y-16183284D01*
X11206620Y-16183284D02*
X11206620Y-16145188D01*
X11206620Y-16145188D02*
X11216144Y-16097569D01*
X11216144Y-16097569D02*
X11225668Y-16068998D01*
X11225668Y-16068998D02*
X11235191Y-16049950D01*
X11235191Y-16049950D02*
X11254239Y-16021379D01*
X11254239Y-16021379D02*
X11263763Y-16011855D01*
X11330429Y-16059474D02*
X11339953Y-16049950D01*
X11339953Y-16049950D02*
X11359001Y-16040426D01*
X11359001Y-16040426D02*
X11406620Y-16040426D01*
X11406620Y-16040426D02*
X11425668Y-16049950D01*
X11425668Y-16049950D02*
X11435191Y-16059474D01*
X11435191Y-16059474D02*
X11444715Y-16078522D01*
X11444715Y-16078522D02*
X11444715Y-16097569D01*
X11444715Y-16097569D02*
X11435191Y-16126141D01*
X11435191Y-16126141D02*
X11320906Y-16240426D01*
X11320906Y-16240426D02*
X11444715Y-16240426D01*
X11682810Y-16240426D02*
X11682810Y-16040426D01*
X11768525Y-16240426D02*
X11768525Y-16135665D01*
X11768525Y-16135665D02*
X11759001Y-16116617D01*
X11759001Y-16116617D02*
X11739953Y-16107093D01*
X11739953Y-16107093D02*
X11711382Y-16107093D01*
X11711382Y-16107093D02*
X11692334Y-16116617D01*
X11692334Y-16116617D02*
X11682810Y-16126141D01*
X11892334Y-16240426D02*
X11873287Y-16230903D01*
X11873287Y-16230903D02*
X11863763Y-16221379D01*
X11863763Y-16221379D02*
X11854239Y-16202331D01*
X11854239Y-16202331D02*
X11854239Y-16145188D01*
X11854239Y-16145188D02*
X11863763Y-16126141D01*
X11863763Y-16126141D02*
X11873287Y-16116617D01*
X11873287Y-16116617D02*
X11892334Y-16107093D01*
X11892334Y-16107093D02*
X11920906Y-16107093D01*
X11920906Y-16107093D02*
X11939953Y-16116617D01*
X11939953Y-16116617D02*
X11949477Y-16126141D01*
X11949477Y-16126141D02*
X11959001Y-16145188D01*
X11959001Y-16145188D02*
X11959001Y-16202331D01*
X11959001Y-16202331D02*
X11949477Y-16221379D01*
X11949477Y-16221379D02*
X11939953Y-16230903D01*
X11939953Y-16230903D02*
X11920906Y-16240426D01*
X11920906Y-16240426D02*
X11892334Y-16240426D01*
X12073287Y-16240426D02*
X12054239Y-16230903D01*
X12054239Y-16230903D02*
X12044715Y-16211855D01*
X12044715Y-16211855D02*
X12044715Y-16040426D01*
X12225668Y-16230903D02*
X12206620Y-16240426D01*
X12206620Y-16240426D02*
X12168525Y-16240426D01*
X12168525Y-16240426D02*
X12149477Y-16230903D01*
X12149477Y-16230903D02*
X12139953Y-16211855D01*
X12139953Y-16211855D02*
X12139953Y-16135665D01*
X12139953Y-16135665D02*
X12149477Y-16116617D01*
X12149477Y-16116617D02*
X12168525Y-16107093D01*
X12168525Y-16107093D02*
X12206620Y-16107093D01*
X12206620Y-16107093D02*
X12225668Y-16116617D01*
X12225668Y-16116617D02*
X12235191Y-16135665D01*
X12235191Y-16135665D02*
X12235191Y-16154712D01*
X12235191Y-16154712D02*
X12139953Y-16173760D01*
X12311382Y-16230903D02*
X12330430Y-16240426D01*
X12330430Y-16240426D02*
X12368525Y-16240426D01*
X12368525Y-16240426D02*
X12387572Y-16230903D01*
X12387572Y-16230903D02*
X12397096Y-16211855D01*
X12397096Y-16211855D02*
X12397096Y-16202331D01*
X12397096Y-16202331D02*
X12387572Y-16183284D01*
X12387572Y-16183284D02*
X12368525Y-16173760D01*
X12368525Y-16173760D02*
X12339953Y-16173760D01*
X12339953Y-16173760D02*
X12320906Y-16164236D01*
X12320906Y-16164236D02*
X12311382Y-16145188D01*
X12311382Y-16145188D02*
X12311382Y-16135665D01*
X12311382Y-16135665D02*
X12320906Y-16116617D01*
X12320906Y-16116617D02*
X12339953Y-16107093D01*
X12339953Y-16107093D02*
X12368525Y-16107093D01*
X12368525Y-16107093D02*
X12387572Y-16116617D01*
X12463763Y-16316617D02*
X12473287Y-16307093D01*
X12473287Y-16307093D02*
X12492334Y-16278522D01*
X12492334Y-16278522D02*
X12501858Y-16259474D01*
X12501858Y-16259474D02*
X12511382Y-16230903D01*
X12511382Y-16230903D02*
X12520906Y-16183284D01*
X12520906Y-16183284D02*
X12520906Y-16145188D01*
X12520906Y-16145188D02*
X12511382Y-16097569D01*
X12511382Y-16097569D02*
X12501858Y-16068998D01*
X12501858Y-16068998D02*
X12492334Y-16049950D01*
X12492334Y-16049950D02*
X12473287Y-16021379D01*
X12473287Y-16021379D02*
X12463763Y-16011855D01*
X7588700Y-16512943D02*
X7688700Y-16412943D01*
X7588700Y-16312943D01*
X7488700Y-16412943D01*
X7588700Y-16512943D01*
X7939953Y-16323474D02*
X7949477Y-16313950D01*
X7949477Y-16313950D02*
X7968524Y-16304426D01*
X7968524Y-16304426D02*
X8016143Y-16304426D01*
X8016143Y-16304426D02*
X8035191Y-16313950D01*
X8035191Y-16313950D02*
X8044715Y-16323474D01*
X8044715Y-16323474D02*
X8054239Y-16342522D01*
X8054239Y-16342522D02*
X8054239Y-16361569D01*
X8054239Y-16361569D02*
X8044715Y-16390141D01*
X8044715Y-16390141D02*
X7930429Y-16504426D01*
X7930429Y-16504426D02*
X8054239Y-16504426D01*
X8139953Y-16485379D02*
X8149477Y-16494903D01*
X8149477Y-16494903D02*
X8139953Y-16504426D01*
X8139953Y-16504426D02*
X8130429Y-16494903D01*
X8130429Y-16494903D02*
X8139953Y-16485379D01*
X8139953Y-16485379D02*
X8139953Y-16504426D01*
X8273286Y-16304426D02*
X8292334Y-16304426D01*
X8292334Y-16304426D02*
X8311382Y-16313950D01*
X8311382Y-16313950D02*
X8320905Y-16323474D01*
X8320905Y-16323474D02*
X8330429Y-16342522D01*
X8330429Y-16342522D02*
X8339953Y-16380617D01*
X8339953Y-16380617D02*
X8339953Y-16428236D01*
X8339953Y-16428236D02*
X8330429Y-16466331D01*
X8330429Y-16466331D02*
X8320905Y-16485379D01*
X8320905Y-16485379D02*
X8311382Y-16494903D01*
X8311382Y-16494903D02*
X8292334Y-16504426D01*
X8292334Y-16504426D02*
X8273286Y-16504426D01*
X8273286Y-16504426D02*
X8254239Y-16494903D01*
X8254239Y-16494903D02*
X8244715Y-16485379D01*
X8244715Y-16485379D02*
X8235191Y-16466331D01*
X8235191Y-16466331D02*
X8225667Y-16428236D01*
X8225667Y-16428236D02*
X8225667Y-16380617D01*
X8225667Y-16380617D02*
X8235191Y-16342522D01*
X8235191Y-16342522D02*
X8244715Y-16323474D01*
X8244715Y-16323474D02*
X8254239Y-16313950D01*
X8254239Y-16313950D02*
X8273286Y-16304426D01*
X8463763Y-16304426D02*
X8482810Y-16304426D01*
X8482810Y-16304426D02*
X8501858Y-16313950D01*
X8501858Y-16313950D02*
X8511382Y-16323474D01*
X8511382Y-16323474D02*
X8520905Y-16342522D01*
X8520905Y-16342522D02*
X8530429Y-16380617D01*
X8530429Y-16380617D02*
X8530429Y-16428236D01*
X8530429Y-16428236D02*
X8520905Y-16466331D01*
X8520905Y-16466331D02*
X8511382Y-16485379D01*
X8511382Y-16485379D02*
X8501858Y-16494903D01*
X8501858Y-16494903D02*
X8482810Y-16504426D01*
X8482810Y-16504426D02*
X8463763Y-16504426D01*
X8463763Y-16504426D02*
X8444715Y-16494903D01*
X8444715Y-16494903D02*
X8435191Y-16485379D01*
X8435191Y-16485379D02*
X8425667Y-16466331D01*
X8425667Y-16466331D02*
X8416144Y-16428236D01*
X8416144Y-16428236D02*
X8416144Y-16380617D01*
X8416144Y-16380617D02*
X8425667Y-16342522D01*
X8425667Y-16342522D02*
X8435191Y-16323474D01*
X8435191Y-16323474D02*
X8444715Y-16313950D01*
X8444715Y-16313950D02*
X8463763Y-16304426D01*
X8654239Y-16304426D02*
X8673286Y-16304426D01*
X8673286Y-16304426D02*
X8692334Y-16313950D01*
X8692334Y-16313950D02*
X8701858Y-16323474D01*
X8701858Y-16323474D02*
X8711382Y-16342522D01*
X8711382Y-16342522D02*
X8720905Y-16380617D01*
X8720905Y-16380617D02*
X8720905Y-16428236D01*
X8720905Y-16428236D02*
X8711382Y-16466331D01*
X8711382Y-16466331D02*
X8701858Y-16485379D01*
X8701858Y-16485379D02*
X8692334Y-16494903D01*
X8692334Y-16494903D02*
X8673286Y-16504426D01*
X8673286Y-16504426D02*
X8654239Y-16504426D01*
X8654239Y-16504426D02*
X8635191Y-16494903D01*
X8635191Y-16494903D02*
X8625667Y-16485379D01*
X8625667Y-16485379D02*
X8616144Y-16466331D01*
X8616144Y-16466331D02*
X8606620Y-16428236D01*
X8606620Y-16428236D02*
X8606620Y-16380617D01*
X8606620Y-16380617D02*
X8616144Y-16342522D01*
X8616144Y-16342522D02*
X8625667Y-16323474D01*
X8625667Y-16323474D02*
X8635191Y-16313950D01*
X8635191Y-16313950D02*
X8654239Y-16304426D01*
X8806620Y-16504426D02*
X8806620Y-16371093D01*
X8806620Y-16390141D02*
X8816144Y-16380617D01*
X8816144Y-16380617D02*
X8835191Y-16371093D01*
X8835191Y-16371093D02*
X8863763Y-16371093D01*
X8863763Y-16371093D02*
X8882810Y-16380617D01*
X8882810Y-16380617D02*
X8892334Y-16399665D01*
X8892334Y-16399665D02*
X8892334Y-16504426D01*
X8892334Y-16399665D02*
X8901858Y-16380617D01*
X8901858Y-16380617D02*
X8920905Y-16371093D01*
X8920905Y-16371093D02*
X8949477Y-16371093D01*
X8949477Y-16371093D02*
X8968525Y-16380617D01*
X8968525Y-16380617D02*
X8978048Y-16399665D01*
X8978048Y-16399665D02*
X8978048Y-16504426D01*
X9073286Y-16504426D02*
X9073286Y-16371093D01*
X9073286Y-16390141D02*
X9082810Y-16380617D01*
X9082810Y-16380617D02*
X9101858Y-16371093D01*
X9101858Y-16371093D02*
X9130429Y-16371093D01*
X9130429Y-16371093D02*
X9149477Y-16380617D01*
X9149477Y-16380617D02*
X9159001Y-16399665D01*
X9159001Y-16399665D02*
X9159001Y-16504426D01*
X9159001Y-16399665D02*
X9168525Y-16380617D01*
X9168525Y-16380617D02*
X9187572Y-16371093D01*
X9187572Y-16371093D02*
X9216144Y-16371093D01*
X9216144Y-16371093D02*
X9235191Y-16380617D01*
X9235191Y-16380617D02*
X9244715Y-16399665D01*
X9244715Y-16399665D02*
X9244715Y-16504426D01*
X9635191Y-16294903D02*
X9463763Y-16552045D01*
X9892334Y-16304426D02*
X9911382Y-16304426D01*
X9911382Y-16304426D02*
X9930429Y-16313950D01*
X9930429Y-16313950D02*
X9939953Y-16323474D01*
X9939953Y-16323474D02*
X9949477Y-16342522D01*
X9949477Y-16342522D02*
X9959001Y-16380617D01*
X9959001Y-16380617D02*
X9959001Y-16428236D01*
X9959001Y-16428236D02*
X9949477Y-16466331D01*
X9949477Y-16466331D02*
X9939953Y-16485379D01*
X9939953Y-16485379D02*
X9930429Y-16494903D01*
X9930429Y-16494903D02*
X9911382Y-16504426D01*
X9911382Y-16504426D02*
X9892334Y-16504426D01*
X9892334Y-16504426D02*
X9873287Y-16494903D01*
X9873287Y-16494903D02*
X9863763Y-16485379D01*
X9863763Y-16485379D02*
X9854239Y-16466331D01*
X9854239Y-16466331D02*
X9844715Y-16428236D01*
X9844715Y-16428236D02*
X9844715Y-16380617D01*
X9844715Y-16380617D02*
X9854239Y-16342522D01*
X9854239Y-16342522D02*
X9863763Y-16323474D01*
X9863763Y-16323474D02*
X9873287Y-16313950D01*
X9873287Y-16313950D02*
X9892334Y-16304426D01*
X10044715Y-16485379D02*
X10054239Y-16494903D01*
X10054239Y-16494903D02*
X10044715Y-16504426D01*
X10044715Y-16504426D02*
X10035191Y-16494903D01*
X10035191Y-16494903D02*
X10044715Y-16485379D01*
X10044715Y-16485379D02*
X10044715Y-16504426D01*
X10178048Y-16304426D02*
X10197096Y-16304426D01*
X10197096Y-16304426D02*
X10216144Y-16313950D01*
X10216144Y-16313950D02*
X10225668Y-16323474D01*
X10225668Y-16323474D02*
X10235191Y-16342522D01*
X10235191Y-16342522D02*
X10244715Y-16380617D01*
X10244715Y-16380617D02*
X10244715Y-16428236D01*
X10244715Y-16428236D02*
X10235191Y-16466331D01*
X10235191Y-16466331D02*
X10225668Y-16485379D01*
X10225668Y-16485379D02*
X10216144Y-16494903D01*
X10216144Y-16494903D02*
X10197096Y-16504426D01*
X10197096Y-16504426D02*
X10178048Y-16504426D01*
X10178048Y-16504426D02*
X10159001Y-16494903D01*
X10159001Y-16494903D02*
X10149477Y-16485379D01*
X10149477Y-16485379D02*
X10139953Y-16466331D01*
X10139953Y-16466331D02*
X10130429Y-16428236D01*
X10130429Y-16428236D02*
X10130429Y-16380617D01*
X10130429Y-16380617D02*
X10139953Y-16342522D01*
X10139953Y-16342522D02*
X10149477Y-16323474D01*
X10149477Y-16323474D02*
X10159001Y-16313950D01*
X10159001Y-16313950D02*
X10178048Y-16304426D01*
X10311382Y-16304426D02*
X10444715Y-16304426D01*
X10444715Y-16304426D02*
X10359001Y-16504426D01*
X10549477Y-16390141D02*
X10530429Y-16380617D01*
X10530429Y-16380617D02*
X10520906Y-16371093D01*
X10520906Y-16371093D02*
X10511382Y-16352045D01*
X10511382Y-16352045D02*
X10511382Y-16342522D01*
X10511382Y-16342522D02*
X10520906Y-16323474D01*
X10520906Y-16323474D02*
X10530429Y-16313950D01*
X10530429Y-16313950D02*
X10549477Y-16304426D01*
X10549477Y-16304426D02*
X10587572Y-16304426D01*
X10587572Y-16304426D02*
X10606620Y-16313950D01*
X10606620Y-16313950D02*
X10616144Y-16323474D01*
X10616144Y-16323474D02*
X10625668Y-16342522D01*
X10625668Y-16342522D02*
X10625668Y-16352045D01*
X10625668Y-16352045D02*
X10616144Y-16371093D01*
X10616144Y-16371093D02*
X10606620Y-16380617D01*
X10606620Y-16380617D02*
X10587572Y-16390141D01*
X10587572Y-16390141D02*
X10549477Y-16390141D01*
X10549477Y-16390141D02*
X10530429Y-16399665D01*
X10530429Y-16399665D02*
X10520906Y-16409188D01*
X10520906Y-16409188D02*
X10511382Y-16428236D01*
X10511382Y-16428236D02*
X10511382Y-16466331D01*
X10511382Y-16466331D02*
X10520906Y-16485379D01*
X10520906Y-16485379D02*
X10530429Y-16494903D01*
X10530429Y-16494903D02*
X10549477Y-16504426D01*
X10549477Y-16504426D02*
X10587572Y-16504426D01*
X10587572Y-16504426D02*
X10606620Y-16494903D01*
X10606620Y-16494903D02*
X10616144Y-16485379D01*
X10616144Y-16485379D02*
X10625668Y-16466331D01*
X10625668Y-16466331D02*
X10625668Y-16428236D01*
X10625668Y-16428236D02*
X10616144Y-16409188D01*
X10616144Y-16409188D02*
X10606620Y-16399665D01*
X10606620Y-16399665D02*
X10587572Y-16390141D01*
X10692334Y-16304426D02*
X10825668Y-16304426D01*
X10825668Y-16304426D02*
X10739953Y-16504426D01*
X10892334Y-16304426D02*
X10892334Y-16342522D01*
X10968525Y-16304426D02*
X10968525Y-16342522D01*
X11263763Y-16580617D02*
X11254239Y-16571093D01*
X11254239Y-16571093D02*
X11235191Y-16542522D01*
X11235191Y-16542522D02*
X11225668Y-16523474D01*
X11225668Y-16523474D02*
X11216144Y-16494903D01*
X11216144Y-16494903D02*
X11206620Y-16447284D01*
X11206620Y-16447284D02*
X11206620Y-16409188D01*
X11206620Y-16409188D02*
X11216144Y-16361569D01*
X11216144Y-16361569D02*
X11225668Y-16332998D01*
X11225668Y-16332998D02*
X11235191Y-16313950D01*
X11235191Y-16313950D02*
X11254239Y-16285379D01*
X11254239Y-16285379D02*
X11263763Y-16275855D01*
X11378048Y-16304426D02*
X11397096Y-16304426D01*
X11397096Y-16304426D02*
X11416144Y-16313950D01*
X11416144Y-16313950D02*
X11425668Y-16323474D01*
X11425668Y-16323474D02*
X11435191Y-16342522D01*
X11435191Y-16342522D02*
X11444715Y-16380617D01*
X11444715Y-16380617D02*
X11444715Y-16428236D01*
X11444715Y-16428236D02*
X11435191Y-16466331D01*
X11435191Y-16466331D02*
X11425668Y-16485379D01*
X11425668Y-16485379D02*
X11416144Y-16494903D01*
X11416144Y-16494903D02*
X11397096Y-16504426D01*
X11397096Y-16504426D02*
X11378048Y-16504426D01*
X11378048Y-16504426D02*
X11359001Y-16494903D01*
X11359001Y-16494903D02*
X11349477Y-16485379D01*
X11349477Y-16485379D02*
X11339953Y-16466331D01*
X11339953Y-16466331D02*
X11330429Y-16428236D01*
X11330429Y-16428236D02*
X11330429Y-16380617D01*
X11330429Y-16380617D02*
X11339953Y-16342522D01*
X11339953Y-16342522D02*
X11349477Y-16323474D01*
X11349477Y-16323474D02*
X11359001Y-16313950D01*
X11359001Y-16313950D02*
X11378048Y-16304426D01*
X11682810Y-16504426D02*
X11682810Y-16304426D01*
X11768525Y-16504426D02*
X11768525Y-16399665D01*
X11768525Y-16399665D02*
X11759001Y-16380617D01*
X11759001Y-16380617D02*
X11739953Y-16371093D01*
X11739953Y-16371093D02*
X11711382Y-16371093D01*
X11711382Y-16371093D02*
X11692334Y-16380617D01*
X11692334Y-16380617D02*
X11682810Y-16390141D01*
X11892334Y-16504426D02*
X11873287Y-16494903D01*
X11873287Y-16494903D02*
X11863763Y-16485379D01*
X11863763Y-16485379D02*
X11854239Y-16466331D01*
X11854239Y-16466331D02*
X11854239Y-16409188D01*
X11854239Y-16409188D02*
X11863763Y-16390141D01*
X11863763Y-16390141D02*
X11873287Y-16380617D01*
X11873287Y-16380617D02*
X11892334Y-16371093D01*
X11892334Y-16371093D02*
X11920906Y-16371093D01*
X11920906Y-16371093D02*
X11939953Y-16380617D01*
X11939953Y-16380617D02*
X11949477Y-16390141D01*
X11949477Y-16390141D02*
X11959001Y-16409188D01*
X11959001Y-16409188D02*
X11959001Y-16466331D01*
X11959001Y-16466331D02*
X11949477Y-16485379D01*
X11949477Y-16485379D02*
X11939953Y-16494903D01*
X11939953Y-16494903D02*
X11920906Y-16504426D01*
X11920906Y-16504426D02*
X11892334Y-16504426D01*
X12073287Y-16504426D02*
X12054239Y-16494903D01*
X12054239Y-16494903D02*
X12044715Y-16475855D01*
X12044715Y-16475855D02*
X12044715Y-16304426D01*
X12225668Y-16494903D02*
X12206620Y-16504426D01*
X12206620Y-16504426D02*
X12168525Y-16504426D01*
X12168525Y-16504426D02*
X12149477Y-16494903D01*
X12149477Y-16494903D02*
X12139953Y-16475855D01*
X12139953Y-16475855D02*
X12139953Y-16399665D01*
X12139953Y-16399665D02*
X12149477Y-16380617D01*
X12149477Y-16380617D02*
X12168525Y-16371093D01*
X12168525Y-16371093D02*
X12206620Y-16371093D01*
X12206620Y-16371093D02*
X12225668Y-16380617D01*
X12225668Y-16380617D02*
X12235191Y-16399665D01*
X12235191Y-16399665D02*
X12235191Y-16418712D01*
X12235191Y-16418712D02*
X12139953Y-16437760D01*
X12311382Y-16494903D02*
X12330430Y-16504426D01*
X12330430Y-16504426D02*
X12368525Y-16504426D01*
X12368525Y-16504426D02*
X12387572Y-16494903D01*
X12387572Y-16494903D02*
X12397096Y-16475855D01*
X12397096Y-16475855D02*
X12397096Y-16466331D01*
X12397096Y-16466331D02*
X12387572Y-16447284D01*
X12387572Y-16447284D02*
X12368525Y-16437760D01*
X12368525Y-16437760D02*
X12339953Y-16437760D01*
X12339953Y-16437760D02*
X12320906Y-16428236D01*
X12320906Y-16428236D02*
X12311382Y-16409188D01*
X12311382Y-16409188D02*
X12311382Y-16399665D01*
X12311382Y-16399665D02*
X12320906Y-16380617D01*
X12320906Y-16380617D02*
X12339953Y-16371093D01*
X12339953Y-16371093D02*
X12368525Y-16371093D01*
X12368525Y-16371093D02*
X12387572Y-16380617D01*
X12635192Y-16428236D02*
X12787573Y-16428236D01*
X12711382Y-16504426D02*
X12711382Y-16352045D01*
X13025668Y-16323474D02*
X13035192Y-16313950D01*
X13035192Y-16313950D02*
X13054239Y-16304426D01*
X13054239Y-16304426D02*
X13101858Y-16304426D01*
X13101858Y-16304426D02*
X13120906Y-16313950D01*
X13120906Y-16313950D02*
X13130430Y-16323474D01*
X13130430Y-16323474D02*
X13139953Y-16342522D01*
X13139953Y-16342522D02*
X13139953Y-16361569D01*
X13139953Y-16361569D02*
X13130430Y-16390141D01*
X13130430Y-16390141D02*
X13016144Y-16504426D01*
X13016144Y-16504426D02*
X13139953Y-16504426D01*
X13368525Y-16494903D02*
X13387573Y-16504426D01*
X13387573Y-16504426D02*
X13425668Y-16504426D01*
X13425668Y-16504426D02*
X13444715Y-16494903D01*
X13444715Y-16494903D02*
X13454239Y-16475855D01*
X13454239Y-16475855D02*
X13454239Y-16466331D01*
X13454239Y-16466331D02*
X13444715Y-16447284D01*
X13444715Y-16447284D02*
X13425668Y-16437760D01*
X13425668Y-16437760D02*
X13397096Y-16437760D01*
X13397096Y-16437760D02*
X13378049Y-16428236D01*
X13378049Y-16428236D02*
X13368525Y-16409188D01*
X13368525Y-16409188D02*
X13368525Y-16399665D01*
X13368525Y-16399665D02*
X13378049Y-16380617D01*
X13378049Y-16380617D02*
X13397096Y-16371093D01*
X13397096Y-16371093D02*
X13425668Y-16371093D01*
X13425668Y-16371093D02*
X13444715Y-16380617D01*
X13568525Y-16504426D02*
X13549477Y-16494903D01*
X13549477Y-16494903D02*
X13539954Y-16475855D01*
X13539954Y-16475855D02*
X13539954Y-16304426D01*
X13673287Y-16504426D02*
X13654239Y-16494903D01*
X13654239Y-16494903D02*
X13644715Y-16485379D01*
X13644715Y-16485379D02*
X13635192Y-16466331D01*
X13635192Y-16466331D02*
X13635192Y-16409188D01*
X13635192Y-16409188D02*
X13644715Y-16390141D01*
X13644715Y-16390141D02*
X13654239Y-16380617D01*
X13654239Y-16380617D02*
X13673287Y-16371093D01*
X13673287Y-16371093D02*
X13701858Y-16371093D01*
X13701858Y-16371093D02*
X13720906Y-16380617D01*
X13720906Y-16380617D02*
X13730430Y-16390141D01*
X13730430Y-16390141D02*
X13739954Y-16409188D01*
X13739954Y-16409188D02*
X13739954Y-16466331D01*
X13739954Y-16466331D02*
X13730430Y-16485379D01*
X13730430Y-16485379D02*
X13720906Y-16494903D01*
X13720906Y-16494903D02*
X13701858Y-16504426D01*
X13701858Y-16504426D02*
X13673287Y-16504426D01*
X13797096Y-16371093D02*
X13873287Y-16371093D01*
X13825668Y-16304426D02*
X13825668Y-16475855D01*
X13825668Y-16475855D02*
X13835192Y-16494903D01*
X13835192Y-16494903D02*
X13854239Y-16504426D01*
X13854239Y-16504426D02*
X13873287Y-16504426D01*
X13930430Y-16494903D02*
X13949477Y-16504426D01*
X13949477Y-16504426D02*
X13987573Y-16504426D01*
X13987573Y-16504426D02*
X14006620Y-16494903D01*
X14006620Y-16494903D02*
X14016144Y-16475855D01*
X14016144Y-16475855D02*
X14016144Y-16466331D01*
X14016144Y-16466331D02*
X14006620Y-16447284D01*
X14006620Y-16447284D02*
X13987573Y-16437760D01*
X13987573Y-16437760D02*
X13959001Y-16437760D01*
X13959001Y-16437760D02*
X13939954Y-16428236D01*
X13939954Y-16428236D02*
X13930430Y-16409188D01*
X13930430Y-16409188D02*
X13930430Y-16399665D01*
X13930430Y-16399665D02*
X13939954Y-16380617D01*
X13939954Y-16380617D02*
X13959001Y-16371093D01*
X13959001Y-16371093D02*
X13987573Y-16371093D01*
X13987573Y-16371093D02*
X14006620Y-16380617D01*
X14082811Y-16580617D02*
X14092335Y-16571093D01*
X14092335Y-16571093D02*
X14111382Y-16542522D01*
X14111382Y-16542522D02*
X14120906Y-16523474D01*
X14120906Y-16523474D02*
X14130430Y-16494903D01*
X14130430Y-16494903D02*
X14139954Y-16447284D01*
X14139954Y-16447284D02*
X14139954Y-16409188D01*
X14139954Y-16409188D02*
X14130430Y-16361569D01*
X14130430Y-16361569D02*
X14120906Y-16332998D01*
X14120906Y-16332998D02*
X14111382Y-16313950D01*
X14111382Y-16313950D02*
X14092335Y-16285379D01*
X14092335Y-16285379D02*
X14082811Y-16275855D01*
X7488700Y-16632943D02*
X7688700Y-16832943D01*
X7688700Y-16632943D02*
X7488700Y-16832943D01*
X7688700Y-16732943D02*
G75*
G02*
X7488700Y-16732943I-100000J0D01*
G01*
X7488700Y-16732943D02*
G75*
G02*
X7688700Y-16732943I100000J0D01*
G01*
X7939953Y-16643474D02*
X7949477Y-16633950D01*
X7949477Y-16633950D02*
X7968524Y-16624426D01*
X7968524Y-16624426D02*
X8016143Y-16624426D01*
X8016143Y-16624426D02*
X8035191Y-16633950D01*
X8035191Y-16633950D02*
X8044715Y-16643474D01*
X8044715Y-16643474D02*
X8054239Y-16662522D01*
X8054239Y-16662522D02*
X8054239Y-16681569D01*
X8054239Y-16681569D02*
X8044715Y-16710141D01*
X8044715Y-16710141D02*
X7930429Y-16824427D01*
X7930429Y-16824427D02*
X8054239Y-16824427D01*
X8139953Y-16805379D02*
X8149477Y-16814903D01*
X8149477Y-16814903D02*
X8139953Y-16824427D01*
X8139953Y-16824427D02*
X8130429Y-16814903D01*
X8130429Y-16814903D02*
X8139953Y-16805379D01*
X8139953Y-16805379D02*
X8139953Y-16824427D01*
X8225667Y-16643474D02*
X8235191Y-16633950D01*
X8235191Y-16633950D02*
X8254239Y-16624426D01*
X8254239Y-16624426D02*
X8301858Y-16624426D01*
X8301858Y-16624426D02*
X8320905Y-16633950D01*
X8320905Y-16633950D02*
X8330429Y-16643474D01*
X8330429Y-16643474D02*
X8339953Y-16662522D01*
X8339953Y-16662522D02*
X8339953Y-16681569D01*
X8339953Y-16681569D02*
X8330429Y-16710141D01*
X8330429Y-16710141D02*
X8216143Y-16824427D01*
X8216143Y-16824427D02*
X8339953Y-16824427D01*
X8463763Y-16624426D02*
X8482810Y-16624426D01*
X8482810Y-16624426D02*
X8501858Y-16633950D01*
X8501858Y-16633950D02*
X8511382Y-16643474D01*
X8511382Y-16643474D02*
X8520905Y-16662522D01*
X8520905Y-16662522D02*
X8530429Y-16700617D01*
X8530429Y-16700617D02*
X8530429Y-16748236D01*
X8530429Y-16748236D02*
X8520905Y-16786331D01*
X8520905Y-16786331D02*
X8511382Y-16805379D01*
X8511382Y-16805379D02*
X8501858Y-16814903D01*
X8501858Y-16814903D02*
X8482810Y-16824427D01*
X8482810Y-16824427D02*
X8463763Y-16824427D01*
X8463763Y-16824427D02*
X8444715Y-16814903D01*
X8444715Y-16814903D02*
X8435191Y-16805379D01*
X8435191Y-16805379D02*
X8425667Y-16786331D01*
X8425667Y-16786331D02*
X8416144Y-16748236D01*
X8416144Y-16748236D02*
X8416144Y-16700617D01*
X8416144Y-16700617D02*
X8425667Y-16662522D01*
X8425667Y-16662522D02*
X8435191Y-16643474D01*
X8435191Y-16643474D02*
X8444715Y-16633950D01*
X8444715Y-16633950D02*
X8463763Y-16624426D01*
X8654239Y-16624426D02*
X8673286Y-16624426D01*
X8673286Y-16624426D02*
X8692334Y-16633950D01*
X8692334Y-16633950D02*
X8701858Y-16643474D01*
X8701858Y-16643474D02*
X8711382Y-16662522D01*
X8711382Y-16662522D02*
X8720905Y-16700617D01*
X8720905Y-16700617D02*
X8720905Y-16748236D01*
X8720905Y-16748236D02*
X8711382Y-16786331D01*
X8711382Y-16786331D02*
X8701858Y-16805379D01*
X8701858Y-16805379D02*
X8692334Y-16814903D01*
X8692334Y-16814903D02*
X8673286Y-16824427D01*
X8673286Y-16824427D02*
X8654239Y-16824427D01*
X8654239Y-16824427D02*
X8635191Y-16814903D01*
X8635191Y-16814903D02*
X8625667Y-16805379D01*
X8625667Y-16805379D02*
X8616144Y-16786331D01*
X8616144Y-16786331D02*
X8606620Y-16748236D01*
X8606620Y-16748236D02*
X8606620Y-16700617D01*
X8606620Y-16700617D02*
X8616144Y-16662522D01*
X8616144Y-16662522D02*
X8625667Y-16643474D01*
X8625667Y-16643474D02*
X8635191Y-16633950D01*
X8635191Y-16633950D02*
X8654239Y-16624426D01*
X8806620Y-16824427D02*
X8806620Y-16691093D01*
X8806620Y-16710141D02*
X8816144Y-16700617D01*
X8816144Y-16700617D02*
X8835191Y-16691093D01*
X8835191Y-16691093D02*
X8863763Y-16691093D01*
X8863763Y-16691093D02*
X8882810Y-16700617D01*
X8882810Y-16700617D02*
X8892334Y-16719665D01*
X8892334Y-16719665D02*
X8892334Y-16824427D01*
X8892334Y-16719665D02*
X8901858Y-16700617D01*
X8901858Y-16700617D02*
X8920905Y-16691093D01*
X8920905Y-16691093D02*
X8949477Y-16691093D01*
X8949477Y-16691093D02*
X8968525Y-16700617D01*
X8968525Y-16700617D02*
X8978048Y-16719665D01*
X8978048Y-16719665D02*
X8978048Y-16824427D01*
X9073286Y-16824427D02*
X9073286Y-16691093D01*
X9073286Y-16710141D02*
X9082810Y-16700617D01*
X9082810Y-16700617D02*
X9101858Y-16691093D01*
X9101858Y-16691093D02*
X9130429Y-16691093D01*
X9130429Y-16691093D02*
X9149477Y-16700617D01*
X9149477Y-16700617D02*
X9159001Y-16719665D01*
X9159001Y-16719665D02*
X9159001Y-16824427D01*
X9159001Y-16719665D02*
X9168525Y-16700617D01*
X9168525Y-16700617D02*
X9187572Y-16691093D01*
X9187572Y-16691093D02*
X9216144Y-16691093D01*
X9216144Y-16691093D02*
X9235191Y-16700617D01*
X9235191Y-16700617D02*
X9244715Y-16719665D01*
X9244715Y-16719665D02*
X9244715Y-16824427D01*
X9635191Y-16614903D02*
X9463763Y-16872046D01*
X9892334Y-16624426D02*
X9911382Y-16624426D01*
X9911382Y-16624426D02*
X9930429Y-16633950D01*
X9930429Y-16633950D02*
X9939953Y-16643474D01*
X9939953Y-16643474D02*
X9949477Y-16662522D01*
X9949477Y-16662522D02*
X9959001Y-16700617D01*
X9959001Y-16700617D02*
X9959001Y-16748236D01*
X9959001Y-16748236D02*
X9949477Y-16786331D01*
X9949477Y-16786331D02*
X9939953Y-16805379D01*
X9939953Y-16805379D02*
X9930429Y-16814903D01*
X9930429Y-16814903D02*
X9911382Y-16824427D01*
X9911382Y-16824427D02*
X9892334Y-16824427D01*
X9892334Y-16824427D02*
X9873287Y-16814903D01*
X9873287Y-16814903D02*
X9863763Y-16805379D01*
X9863763Y-16805379D02*
X9854239Y-16786331D01*
X9854239Y-16786331D02*
X9844715Y-16748236D01*
X9844715Y-16748236D02*
X9844715Y-16700617D01*
X9844715Y-16700617D02*
X9854239Y-16662522D01*
X9854239Y-16662522D02*
X9863763Y-16643474D01*
X9863763Y-16643474D02*
X9873287Y-16633950D01*
X9873287Y-16633950D02*
X9892334Y-16624426D01*
X10044715Y-16805379D02*
X10054239Y-16814903D01*
X10054239Y-16814903D02*
X10044715Y-16824427D01*
X10044715Y-16824427D02*
X10035191Y-16814903D01*
X10035191Y-16814903D02*
X10044715Y-16805379D01*
X10044715Y-16805379D02*
X10044715Y-16824427D01*
X10178048Y-16624426D02*
X10197096Y-16624426D01*
X10197096Y-16624426D02*
X10216144Y-16633950D01*
X10216144Y-16633950D02*
X10225668Y-16643474D01*
X10225668Y-16643474D02*
X10235191Y-16662522D01*
X10235191Y-16662522D02*
X10244715Y-16700617D01*
X10244715Y-16700617D02*
X10244715Y-16748236D01*
X10244715Y-16748236D02*
X10235191Y-16786331D01*
X10235191Y-16786331D02*
X10225668Y-16805379D01*
X10225668Y-16805379D02*
X10216144Y-16814903D01*
X10216144Y-16814903D02*
X10197096Y-16824427D01*
X10197096Y-16824427D02*
X10178048Y-16824427D01*
X10178048Y-16824427D02*
X10159001Y-16814903D01*
X10159001Y-16814903D02*
X10149477Y-16805379D01*
X10149477Y-16805379D02*
X10139953Y-16786331D01*
X10139953Y-16786331D02*
X10130429Y-16748236D01*
X10130429Y-16748236D02*
X10130429Y-16700617D01*
X10130429Y-16700617D02*
X10139953Y-16662522D01*
X10139953Y-16662522D02*
X10149477Y-16643474D01*
X10149477Y-16643474D02*
X10159001Y-16633950D01*
X10159001Y-16633950D02*
X10178048Y-16624426D01*
X10359001Y-16710141D02*
X10339953Y-16700617D01*
X10339953Y-16700617D02*
X10330429Y-16691093D01*
X10330429Y-16691093D02*
X10320906Y-16672045D01*
X10320906Y-16672045D02*
X10320906Y-16662522D01*
X10320906Y-16662522D02*
X10330429Y-16643474D01*
X10330429Y-16643474D02*
X10339953Y-16633950D01*
X10339953Y-16633950D02*
X10359001Y-16624426D01*
X10359001Y-16624426D02*
X10397096Y-16624426D01*
X10397096Y-16624426D02*
X10416144Y-16633950D01*
X10416144Y-16633950D02*
X10425668Y-16643474D01*
X10425668Y-16643474D02*
X10435191Y-16662522D01*
X10435191Y-16662522D02*
X10435191Y-16672045D01*
X10435191Y-16672045D02*
X10425668Y-16691093D01*
X10425668Y-16691093D02*
X10416144Y-16700617D01*
X10416144Y-16700617D02*
X10397096Y-16710141D01*
X10397096Y-16710141D02*
X10359001Y-16710141D01*
X10359001Y-16710141D02*
X10339953Y-16719665D01*
X10339953Y-16719665D02*
X10330429Y-16729188D01*
X10330429Y-16729188D02*
X10320906Y-16748236D01*
X10320906Y-16748236D02*
X10320906Y-16786331D01*
X10320906Y-16786331D02*
X10330429Y-16805379D01*
X10330429Y-16805379D02*
X10339953Y-16814903D01*
X10339953Y-16814903D02*
X10359001Y-16824427D01*
X10359001Y-16824427D02*
X10397096Y-16824427D01*
X10397096Y-16824427D02*
X10416144Y-16814903D01*
X10416144Y-16814903D02*
X10425668Y-16805379D01*
X10425668Y-16805379D02*
X10435191Y-16786331D01*
X10435191Y-16786331D02*
X10435191Y-16748236D01*
X10435191Y-16748236D02*
X10425668Y-16729188D01*
X10425668Y-16729188D02*
X10416144Y-16719665D01*
X10416144Y-16719665D02*
X10397096Y-16710141D01*
X10606620Y-16624426D02*
X10568525Y-16624426D01*
X10568525Y-16624426D02*
X10549477Y-16633950D01*
X10549477Y-16633950D02*
X10539953Y-16643474D01*
X10539953Y-16643474D02*
X10520906Y-16672045D01*
X10520906Y-16672045D02*
X10511382Y-16710141D01*
X10511382Y-16710141D02*
X10511382Y-16786331D01*
X10511382Y-16786331D02*
X10520906Y-16805379D01*
X10520906Y-16805379D02*
X10530429Y-16814903D01*
X10530429Y-16814903D02*
X10549477Y-16824427D01*
X10549477Y-16824427D02*
X10587572Y-16824427D01*
X10587572Y-16824427D02*
X10606620Y-16814903D01*
X10606620Y-16814903D02*
X10616144Y-16805379D01*
X10616144Y-16805379D02*
X10625668Y-16786331D01*
X10625668Y-16786331D02*
X10625668Y-16738712D01*
X10625668Y-16738712D02*
X10616144Y-16719665D01*
X10616144Y-16719665D02*
X10606620Y-16710141D01*
X10606620Y-16710141D02*
X10587572Y-16700617D01*
X10587572Y-16700617D02*
X10549477Y-16700617D01*
X10549477Y-16700617D02*
X10530429Y-16710141D01*
X10530429Y-16710141D02*
X10520906Y-16719665D01*
X10520906Y-16719665D02*
X10511382Y-16738712D01*
X10797096Y-16624426D02*
X10759001Y-16624426D01*
X10759001Y-16624426D02*
X10739953Y-16633950D01*
X10739953Y-16633950D02*
X10730429Y-16643474D01*
X10730429Y-16643474D02*
X10711382Y-16672045D01*
X10711382Y-16672045D02*
X10701858Y-16710141D01*
X10701858Y-16710141D02*
X10701858Y-16786331D01*
X10701858Y-16786331D02*
X10711382Y-16805379D01*
X10711382Y-16805379D02*
X10720906Y-16814903D01*
X10720906Y-16814903D02*
X10739953Y-16824427D01*
X10739953Y-16824427D02*
X10778049Y-16824427D01*
X10778049Y-16824427D02*
X10797096Y-16814903D01*
X10797096Y-16814903D02*
X10806620Y-16805379D01*
X10806620Y-16805379D02*
X10816144Y-16786331D01*
X10816144Y-16786331D02*
X10816144Y-16738712D01*
X10816144Y-16738712D02*
X10806620Y-16719665D01*
X10806620Y-16719665D02*
X10797096Y-16710141D01*
X10797096Y-16710141D02*
X10778049Y-16700617D01*
X10778049Y-16700617D02*
X10739953Y-16700617D01*
X10739953Y-16700617D02*
X10720906Y-16710141D01*
X10720906Y-16710141D02*
X10711382Y-16719665D01*
X10711382Y-16719665D02*
X10701858Y-16738712D01*
X10892334Y-16624426D02*
X10892334Y-16662522D01*
X10968525Y-16624426D02*
X10968525Y-16662522D01*
X11263763Y-16900617D02*
X11254239Y-16891093D01*
X11254239Y-16891093D02*
X11235191Y-16862522D01*
X11235191Y-16862522D02*
X11225668Y-16843474D01*
X11225668Y-16843474D02*
X11216144Y-16814903D01*
X11216144Y-16814903D02*
X11206620Y-16767284D01*
X11206620Y-16767284D02*
X11206620Y-16729188D01*
X11206620Y-16729188D02*
X11216144Y-16681569D01*
X11216144Y-16681569D02*
X11225668Y-16652998D01*
X11225668Y-16652998D02*
X11235191Y-16633950D01*
X11235191Y-16633950D02*
X11254239Y-16605379D01*
X11254239Y-16605379D02*
X11263763Y-16595855D01*
X11444715Y-16824427D02*
X11330429Y-16824427D01*
X11387572Y-16824427D02*
X11387572Y-16624426D01*
X11387572Y-16624426D02*
X11368525Y-16652998D01*
X11368525Y-16652998D02*
X11349477Y-16672045D01*
X11349477Y-16672045D02*
X11330429Y-16681569D01*
X11568525Y-16624426D02*
X11587572Y-16624426D01*
X11587572Y-16624426D02*
X11606620Y-16633950D01*
X11606620Y-16633950D02*
X11616144Y-16643474D01*
X11616144Y-16643474D02*
X11625668Y-16662522D01*
X11625668Y-16662522D02*
X11635191Y-16700617D01*
X11635191Y-16700617D02*
X11635191Y-16748236D01*
X11635191Y-16748236D02*
X11625668Y-16786331D01*
X11625668Y-16786331D02*
X11616144Y-16805379D01*
X11616144Y-16805379D02*
X11606620Y-16814903D01*
X11606620Y-16814903D02*
X11587572Y-16824427D01*
X11587572Y-16824427D02*
X11568525Y-16824427D01*
X11568525Y-16824427D02*
X11549477Y-16814903D01*
X11549477Y-16814903D02*
X11539953Y-16805379D01*
X11539953Y-16805379D02*
X11530429Y-16786331D01*
X11530429Y-16786331D02*
X11520906Y-16748236D01*
X11520906Y-16748236D02*
X11520906Y-16700617D01*
X11520906Y-16700617D02*
X11530429Y-16662522D01*
X11530429Y-16662522D02*
X11539953Y-16643474D01*
X11539953Y-16643474D02*
X11549477Y-16633950D01*
X11549477Y-16633950D02*
X11568525Y-16624426D01*
X11873287Y-16824427D02*
X11873287Y-16624426D01*
X11959001Y-16824427D02*
X11959001Y-16719665D01*
X11959001Y-16719665D02*
X11949477Y-16700617D01*
X11949477Y-16700617D02*
X11930430Y-16691093D01*
X11930430Y-16691093D02*
X11901858Y-16691093D01*
X11901858Y-16691093D02*
X11882810Y-16700617D01*
X11882810Y-16700617D02*
X11873287Y-16710141D01*
X12082810Y-16824427D02*
X12063763Y-16814903D01*
X12063763Y-16814903D02*
X12054239Y-16805379D01*
X12054239Y-16805379D02*
X12044715Y-16786331D01*
X12044715Y-16786331D02*
X12044715Y-16729188D01*
X12044715Y-16729188D02*
X12054239Y-16710141D01*
X12054239Y-16710141D02*
X12063763Y-16700617D01*
X12063763Y-16700617D02*
X12082810Y-16691093D01*
X12082810Y-16691093D02*
X12111382Y-16691093D01*
X12111382Y-16691093D02*
X12130430Y-16700617D01*
X12130430Y-16700617D02*
X12139953Y-16710141D01*
X12139953Y-16710141D02*
X12149477Y-16729188D01*
X12149477Y-16729188D02*
X12149477Y-16786331D01*
X12149477Y-16786331D02*
X12139953Y-16805379D01*
X12139953Y-16805379D02*
X12130430Y-16814903D01*
X12130430Y-16814903D02*
X12111382Y-16824427D01*
X12111382Y-16824427D02*
X12082810Y-16824427D01*
X12263763Y-16824427D02*
X12244715Y-16814903D01*
X12244715Y-16814903D02*
X12235191Y-16795855D01*
X12235191Y-16795855D02*
X12235191Y-16624426D01*
X12416144Y-16814903D02*
X12397096Y-16824427D01*
X12397096Y-16824427D02*
X12359001Y-16824427D01*
X12359001Y-16824427D02*
X12339953Y-16814903D01*
X12339953Y-16814903D02*
X12330430Y-16795855D01*
X12330430Y-16795855D02*
X12330430Y-16719665D01*
X12330430Y-16719665D02*
X12339953Y-16700617D01*
X12339953Y-16700617D02*
X12359001Y-16691093D01*
X12359001Y-16691093D02*
X12397096Y-16691093D01*
X12397096Y-16691093D02*
X12416144Y-16700617D01*
X12416144Y-16700617D02*
X12425668Y-16719665D01*
X12425668Y-16719665D02*
X12425668Y-16738712D01*
X12425668Y-16738712D02*
X12330430Y-16757760D01*
X12501858Y-16814903D02*
X12520906Y-16824427D01*
X12520906Y-16824427D02*
X12559001Y-16824427D01*
X12559001Y-16824427D02*
X12578049Y-16814903D01*
X12578049Y-16814903D02*
X12587572Y-16795855D01*
X12587572Y-16795855D02*
X12587572Y-16786331D01*
X12587572Y-16786331D02*
X12578049Y-16767284D01*
X12578049Y-16767284D02*
X12559001Y-16757760D01*
X12559001Y-16757760D02*
X12530430Y-16757760D01*
X12530430Y-16757760D02*
X12511382Y-16748236D01*
X12511382Y-16748236D02*
X12501858Y-16729188D01*
X12501858Y-16729188D02*
X12501858Y-16719665D01*
X12501858Y-16719665D02*
X12511382Y-16700617D01*
X12511382Y-16700617D02*
X12530430Y-16691093D01*
X12530430Y-16691093D02*
X12559001Y-16691093D01*
X12559001Y-16691093D02*
X12578049Y-16700617D01*
X12654239Y-16900617D02*
X12663763Y-16891093D01*
X12663763Y-16891093D02*
X12682811Y-16862522D01*
X12682811Y-16862522D02*
X12692334Y-16843474D01*
X12692334Y-16843474D02*
X12701858Y-16814903D01*
X12701858Y-16814903D02*
X12711382Y-16767284D01*
X12711382Y-16767284D02*
X12711382Y-16729188D01*
X12711382Y-16729188D02*
X12701858Y-16681569D01*
X12701858Y-16681569D02*
X12692334Y-16652998D01*
X12692334Y-16652998D02*
X12682811Y-16633950D01*
X12682811Y-16633950D02*
X12663763Y-16605379D01*
X12663763Y-16605379D02*
X12654239Y-16595855D01*
M02*
