G04 #@! TF.GenerationSoftware,KiCad,Pcbnew,8.0.1*
G04 #@! TF.CreationDate,2024-07-30T22:50:04+02:00*
G04 #@! TF.ProjectId,chocofi,63686f63-6f66-4692-9e6b-696361645f70,0.2*
G04 #@! TF.SameCoordinates,Original*
G04 #@! TF.FileFunction,Profile,NP*
%FSLAX46Y46*%
G04 Gerber Fmt 4.6, Leading zero omitted, Abs format (unit mm)*
G04 Created by KiCad (PCBNEW 8.0.1) date 2024-07-30 22:50:04*
%MOMM*%
%LPD*%
G01*
G04 APERTURE LIST*
G04 #@! TA.AperFunction,Profile*
%ADD10C,0.150000*%
G04 #@! TD*
G04 APERTURE END LIST*
D10*
X187620000Y-53805000D02*
X167330400Y-53815020D01*
X94515447Y-62020847D02*
X77419200Y-61976000D01*
X202800000Y-146600000D02*
X211800000Y-130200000D01*
X184200000Y-137400000D02*
X201600000Y-147000000D01*
X148839770Y-127690088D02*
X166358677Y-130722420D01*
X166360498Y-53055000D02*
G75*
G02*
X166850402Y-53455020I2J-500000D01*
G01*
X167330400Y-53815020D02*
G75*
G02*
X166850386Y-53455024I0J500020D01*
G01*
X166360498Y-53055000D02*
X149293200Y-53069020D01*
X95015447Y-61520847D02*
G75*
G02*
X94515447Y-62020847I-500047J47D01*
G01*
X95017120Y-50506820D02*
G75*
G02*
X95517120Y-50006820I499980J20D01*
G01*
X130310000Y-44036200D02*
X113530000Y-44049553D01*
X130810000Y-50053400D02*
X130810000Y-44536200D01*
X148293200Y-50569020D02*
X131310000Y-50553400D01*
X148793200Y-52569020D02*
X148793200Y-51069020D01*
X95017120Y-50506820D02*
X95015447Y-61520847D01*
X112547120Y-50006820D02*
X95517120Y-50006820D01*
X113030000Y-44549553D02*
X113047120Y-49506820D01*
X113047120Y-49506820D02*
G75*
G02*
X112547120Y-50006820I-500020J20D01*
G01*
X113030000Y-44549553D02*
G75*
G02*
X113530000Y-44049600I500000J-47D01*
G01*
X130310000Y-44036200D02*
G75*
G02*
X130810000Y-44536200I0J-500000D01*
G01*
X131310000Y-50553400D02*
G75*
G02*
X130810000Y-50053400I0J500000D01*
G01*
X148293200Y-50569020D02*
G75*
G02*
X148793180Y-51069020I0J-499980D01*
G01*
X149293200Y-53069020D02*
G75*
G02*
X148793180Y-52569020I0J500020D01*
G01*
X187620000Y-53805000D02*
G75*
G02*
X188120000Y-54305000I0J-500000D01*
G01*
X95453200Y-100862652D02*
X112623600Y-100862652D01*
X94792800Y-110744000D02*
X94843600Y-101472252D01*
X112623600Y-100862652D02*
G75*
G02*
X113294857Y-101294883I0J-737348D01*
G01*
X211400000Y-129000000D02*
G75*
G02*
X211800000Y-130200000I-400000J-800000D01*
G01*
X117600000Y-107999999D02*
G75*
G02*
X117000001Y-107600000I100000J799999D01*
G01*
X147200000Y-108000000D02*
G75*
G02*
X147700000Y-108500000I0J-500000D01*
G01*
X147700000Y-108500000D02*
X147700000Y-126400000D01*
X202800000Y-146600000D02*
G75*
G02*
X201600000Y-147000000I-800000J400000D01*
G01*
X77012800Y-93776800D02*
X77012800Y-110744000D01*
X76962000Y-62433200D02*
X77012800Y-76708000D01*
X188120000Y-54305000D02*
X188214000Y-115400000D01*
X148839770Y-127690088D02*
G75*
G02*
X147700000Y-126400000I160230J1290088D01*
G01*
X94792800Y-112115600D02*
X94792800Y-110744000D01*
X94843600Y-101472252D02*
G75*
G02*
X95453200Y-100862700I609600J-48D01*
G01*
X189000000Y-116600000D02*
X211400000Y-129000000D01*
X94792800Y-112115600D02*
G75*
G02*
X94132400Y-112776000I-660400J0D01*
G01*
X77012800Y-112115600D02*
X77012800Y-110744000D01*
X147200000Y-108000000D02*
X117600000Y-108000000D01*
X77012800Y-76708000D02*
X77012800Y-93776800D01*
X113294857Y-101294883D02*
X117000000Y-107600000D01*
X76962000Y-62433200D02*
G75*
G02*
X77419200Y-61976000I457200J0D01*
G01*
X77673200Y-112776000D02*
X94132400Y-112776000D01*
X166358677Y-130722420D02*
X184200000Y-137400000D01*
X189000000Y-116600000D02*
G75*
G02*
X188214013Y-115400000I600000J1250400D01*
G01*
X77673200Y-112776000D02*
G75*
G02*
X77012800Y-112115600I0J660400D01*
G01*
M02*
